<?xml version="1.0" encoding="utf-8" standalone="no"?>
<!DOCTYPE svg PUBLIC "-//W3C//DTD SVG 1.1//EN"
  "http://www.w3.org/Graphics/SVG/1.1/DTD/svg11.dtd">
<svg xmlns:xlink="http://www.w3.org/1999/xlink" width="2160pt" height="720pt" viewBox="0 0 2160 720" xmlns="http://www.w3.org/2000/svg" version="1.1">
 <metadata>
  <rdf:RDF xmlns:dc="http://purl.org/dc/elements/1.1/" xmlns:cc="http://creativecommons.org/ns#" xmlns:rdf="http://www.w3.org/1999/02/22-rdf-syntax-ns#">
   <cc:Work>
    <dc:type rdf:resource="http://purl.org/dc/dcmitype/StillImage"/>
    <dc:date>2023-07-17T17:11:25.256215</dc:date>
    <dc:format>image/svg+xml</dc:format>
    <dc:creator>
     <cc:Agent>
      <dc:title>Matplotlib v3.7.1, https://matplotlib.org/</dc:title>
     </cc:Agent>
    </dc:creator>
   </cc:Work>
  </rdf:RDF>
 </metadata>
 <defs>
  <style type="text/css">*{stroke-linejoin: round; stroke-linecap: butt}</style>
 </defs>
 <g id="figure_1">
  <g id="patch_1">
   <path d="M 0 720 
L 2160 720 
L 2160 0 
L 0 0 
z
" style="fill: #ffffff"/>
  </g>
  <g id="axes_1">
   <g id="patch_2">
    <path d="M 136.992223 645.712 
L 1075.367619 645.712 
L 1075.367619 21.6 
L 136.992223 21.6 
z
" style="fill: #ffffff"/>
   </g>
   <g id="matplotlib.axis_1">
    <g id="xtick_1">
     <g id="line2d_1">
      <defs>
       <path id="medb958c73a" d="M 0 0 
L 0 3.5 
" style="stroke: #000000; stroke-width: 0.8"/>
      </defs>
      <g>
       <use xlink:href="#medb958c73a" x="147.952222" y="645.712" style="stroke: #000000; stroke-width: 0.8"/>
      </g>
     </g>
     <g id="text_1">
      <!-- $\mathdefault{10^{-2}}$ -->
      <g transform="translate(124.452222 667.908875) scale(0.2 -0.2)">
       <defs>
        <path id="DejaVuSans-31" d="M 794 531 
L 1825 531 
L 1825 4091 
L 703 3866 
L 703 4441 
L 1819 4666 
L 2450 4666 
L 2450 531 
L 3481 531 
L 3481 0 
L 794 0 
L 794 531 
z
" transform="scale(0.015625)"/>
        <path id="DejaVuSans-30" d="M 2034 4250 
Q 1547 4250 1301 3770 
Q 1056 3291 1056 2328 
Q 1056 1369 1301 889 
Q 1547 409 2034 409 
Q 2525 409 2770 889 
Q 3016 1369 3016 2328 
Q 3016 3291 2770 3770 
Q 2525 4250 2034 4250 
z
M 2034 4750 
Q 2819 4750 3233 4129 
Q 3647 3509 3647 2328 
Q 3647 1150 3233 529 
Q 2819 -91 2034 -91 
Q 1250 -91 836 529 
Q 422 1150 422 2328 
Q 422 3509 836 4129 
Q 1250 4750 2034 4750 
z
" transform="scale(0.015625)"/>
        <path id="DejaVuSans-2212" d="M 678 2272 
L 4684 2272 
L 4684 1741 
L 678 1741 
L 678 2272 
z
" transform="scale(0.015625)"/>
        <path id="DejaVuSans-32" d="M 1228 531 
L 3431 531 
L 3431 0 
L 469 0 
L 469 531 
Q 828 903 1448 1529 
Q 2069 2156 2228 2338 
Q 2531 2678 2651 2914 
Q 2772 3150 2772 3378 
Q 2772 3750 2511 3984 
Q 2250 4219 1831 4219 
Q 1534 4219 1204 4116 
Q 875 4013 500 3803 
L 500 4441 
Q 881 4594 1212 4672 
Q 1544 4750 1819 4750 
Q 2544 4750 2975 4387 
Q 3406 4025 3406 3419 
Q 3406 3131 3298 2873 
Q 3191 2616 2906 2266 
Q 2828 2175 2409 1742 
Q 1991 1309 1228 531 
z
" transform="scale(0.015625)"/>
       </defs>
       <use xlink:href="#DejaVuSans-31" transform="translate(0 0.765625)"/>
       <use xlink:href="#DejaVuSans-30" transform="translate(63.623047 0.765625)"/>
       <use xlink:href="#DejaVuSans-2212" transform="translate(128.203125 39.046875) scale(0.7)"/>
       <use xlink:href="#DejaVuSans-32" transform="translate(186.855469 39.046875) scale(0.7)"/>
      </g>
     </g>
    </g>
    <g id="xtick_2">
     <g id="line2d_2">
      <defs>
       <path id="m631ea76978" d="M 0 0 
L 0 2 
" style="stroke: #000000; stroke-width: 0.6"/>
      </defs>
      <g>
       <use xlink:href="#m631ea76978" x="686.165255" y="645.712" style="stroke: #000000; stroke-width: 0.6"/>
      </g>
     </g>
     <g id="text_2">
      <!-- $\mathdefault{2\times10^{-2}}$ -->
      <g transform="translate(644.065255 666.308875) scale(0.2 -0.2)">
       <defs>
        <path id="DejaVuSans-d7" d="M 4488 3438 
L 3059 2003 
L 4488 575 
L 4116 197 
L 2681 1631 
L 1247 197 
L 878 575 
L 2303 2003 
L 878 3438 
L 1247 3816 
L 2681 2381 
L 4116 3816 
L 4488 3438 
z
" transform="scale(0.015625)"/>
       </defs>
       <use xlink:href="#DejaVuSans-32" transform="translate(0 0.765625)"/>
       <use xlink:href="#DejaVuSans-d7" transform="translate(83.105469 0.765625)"/>
       <use xlink:href="#DejaVuSans-31" transform="translate(186.376953 0.765625)"/>
       <use xlink:href="#DejaVuSans-30" transform="translate(250 0.765625)"/>
       <use xlink:href="#DejaVuSans-2212" transform="translate(314.580078 39.046875) scale(0.7)"/>
       <use xlink:href="#DejaVuSans-32" transform="translate(373.232422 39.046875) scale(0.7)"/>
      </g>
     </g>
    </g>
    <g id="xtick_3">
     <g id="line2d_3">
      <g>
       <use xlink:href="#m631ea76978" x="1000.999696" y="645.712" style="stroke: #000000; stroke-width: 0.6"/>
      </g>
     </g>
     <g id="text_3">
      <!-- $\mathdefault{3\times10^{-2}}$ -->
      <g transform="translate(958.899696 666.308875) scale(0.2 -0.2)">
       <defs>
        <path id="DejaVuSans-33" d="M 2597 2516 
Q 3050 2419 3304 2112 
Q 3559 1806 3559 1356 
Q 3559 666 3084 287 
Q 2609 -91 1734 -91 
Q 1441 -91 1130 -33 
Q 819 25 488 141 
L 488 750 
Q 750 597 1062 519 
Q 1375 441 1716 441 
Q 2309 441 2620 675 
Q 2931 909 2931 1356 
Q 2931 1769 2642 2001 
Q 2353 2234 1838 2234 
L 1294 2234 
L 1294 2753 
L 1863 2753 
Q 2328 2753 2575 2939 
Q 2822 3125 2822 3475 
Q 2822 3834 2567 4026 
Q 2313 4219 1838 4219 
Q 1578 4219 1281 4162 
Q 984 4106 628 3988 
L 628 4550 
Q 988 4650 1302 4700 
Q 1616 4750 1894 4750 
Q 2613 4750 3031 4423 
Q 3450 4097 3450 3541 
Q 3450 3153 3228 2886 
Q 3006 2619 2597 2516 
z
" transform="scale(0.015625)"/>
       </defs>
       <use xlink:href="#DejaVuSans-33" transform="translate(0 0.765625)"/>
       <use xlink:href="#DejaVuSans-d7" transform="translate(83.105469 0.765625)"/>
       <use xlink:href="#DejaVuSans-31" transform="translate(186.376953 0.765625)"/>
       <use xlink:href="#DejaVuSans-30" transform="translate(250 0.765625)"/>
       <use xlink:href="#DejaVuSans-2212" transform="translate(314.580078 39.046875) scale(0.7)"/>
       <use xlink:href="#DejaVuSans-32" transform="translate(373.232422 39.046875) scale(0.7)"/>
      </g>
     </g>
    </g>
    <g id="text_4">
     <!-- $h$ -->
     <g transform="translate(599.779921 691.265125) scale(0.2 -0.2)">
      <defs>
       <path id="DejaVuSans-Oblique-68" d="M 3566 2113 
L 3156 0 
L 2578 0 
L 2988 2091 
Q 3016 2238 3031 2350 
Q 3047 2463 3047 2528 
Q 3047 2791 2881 2937 
Q 2716 3084 2419 3084 
Q 1956 3084 1617 2771 
Q 1278 2459 1178 1941 
L 800 0 
L 225 0 
L 1172 4863 
L 1747 4863 
L 1375 2950 
Q 1594 3244 1934 3414 
Q 2275 3584 2650 3584 
Q 3113 3584 3367 3334 
Q 3622 3084 3622 2631 
Q 3622 2519 3608 2391 
Q 3594 2263 3566 2113 
z
" transform="scale(0.015625)"/>
      </defs>
      <use xlink:href="#DejaVuSans-Oblique-68" transform="translate(0 0.015625)"/>
     </g>
    </g>
   </g>
   <g id="matplotlib.axis_2">
    <g id="ytick_1">
     <g id="line2d_4">
      <defs>
       <path id="m8b7a156d49" d="M 0 0 
L -3.5 0 
" style="stroke: #000000; stroke-width: 0.8"/>
      </defs>
      <g>
       <use xlink:href="#m8b7a156d49" x="136.992223" y="578.821293" style="stroke: #000000; stroke-width: 0.8"/>
      </g>
     </g>
     <g id="text_5">
      <!-- $\mathdefault{10^{-1}}$ -->
      <g transform="translate(82.992223 586.41973) scale(0.2 -0.2)">
       <use xlink:href="#DejaVuSans-31" transform="translate(0 0.684375)"/>
       <use xlink:href="#DejaVuSans-30" transform="translate(63.623047 0.684375)"/>
       <use xlink:href="#DejaVuSans-2212" transform="translate(128.203125 38.965625) scale(0.7)"/>
       <use xlink:href="#DejaVuSans-31" transform="translate(186.855469 38.965625) scale(0.7)"/>
      </g>
     </g>
    </g>
    <g id="ytick_2">
     <g id="line2d_5">
      <defs>
       <path id="ma07c6e516a" d="M 0 0 
L -2 0 
" style="stroke: #000000; stroke-width: 0.6"/>
      </defs>
      <g>
       <use xlink:href="#ma07c6e516a" x="136.992223" y="634.9428" style="stroke: #000000; stroke-width: 0.6"/>
      </g>
     </g>
    </g>
    <g id="ytick_3">
     <g id="line2d_6">
      <g>
       <use xlink:href="#ma07c6e516a" x="136.992223" y="209.608363" style="stroke: #000000; stroke-width: 0.6"/>
      </g>
     </g>
     <g id="text_6">
      <!-- $\mathdefault{2\times10^{-1}}$ -->
      <g transform="translate(47.392223 217.206801) scale(0.2 -0.2)">
       <use xlink:href="#DejaVuSans-32" transform="translate(0 0.684375)"/>
       <use xlink:href="#DejaVuSans-d7" transform="translate(83.105469 0.684375)"/>
       <use xlink:href="#DejaVuSans-31" transform="translate(186.376953 0.684375)"/>
       <use xlink:href="#DejaVuSans-30" transform="translate(250 0.684375)"/>
       <use xlink:href="#DejaVuSans-2212" transform="translate(314.580078 38.965625) scale(0.7)"/>
       <use xlink:href="#DejaVuSans-31" transform="translate(373.232422 38.965625) scale(0.7)"/>
      </g>
     </g>
    </g>
    <g id="text_7">
     <!-- Error $\rho$ -->
     <g transform="translate(39.192223 367.956) rotate(-90) scale(0.2 -0.2)">
      <defs>
       <path id="DejaVuSans-45" d="M 628 4666 
L 3578 4666 
L 3578 4134 
L 1259 4134 
L 1259 2753 
L 3481 2753 
L 3481 2222 
L 1259 2222 
L 1259 531 
L 3634 531 
L 3634 0 
L 628 0 
L 628 4666 
z
" transform="scale(0.015625)"/>
       <path id="DejaVuSans-72" d="M 2631 2963 
Q 2534 3019 2420 3045 
Q 2306 3072 2169 3072 
Q 1681 3072 1420 2755 
Q 1159 2438 1159 1844 
L 1159 0 
L 581 0 
L 581 3500 
L 1159 3500 
L 1159 2956 
Q 1341 3275 1631 3429 
Q 1922 3584 2338 3584 
Q 2397 3584 2469 3576 
Q 2541 3569 2628 3553 
L 2631 2963 
z
" transform="scale(0.015625)"/>
       <path id="DejaVuSans-6f" d="M 1959 3097 
Q 1497 3097 1228 2736 
Q 959 2375 959 1747 
Q 959 1119 1226 758 
Q 1494 397 1959 397 
Q 2419 397 2687 759 
Q 2956 1122 2956 1747 
Q 2956 2369 2687 2733 
Q 2419 3097 1959 3097 
z
M 1959 3584 
Q 2709 3584 3137 3096 
Q 3566 2609 3566 1747 
Q 3566 888 3137 398 
Q 2709 -91 1959 -91 
Q 1206 -91 779 398 
Q 353 888 353 1747 
Q 353 2609 779 3096 
Q 1206 3584 1959 3584 
z
" transform="scale(0.015625)"/>
       <path id="DejaVuSans-20" transform="scale(0.015625)"/>
       <path id="DejaVuSans-Oblique-3c1" d="M 1203 2875 
Q 1453 3194 1981 3475 
Q 2188 3584 2756 3584 
Q 3394 3584 3694 3078 
Q 3994 2572 3834 1747 
Q 3672 922 3175 415 
Q 2678 -91 2041 -91 
Q 1656 -91 1409 63 
Q 1163 213 1044 525 
L 681 -1331 
L 103 -1331 
L 697 1716 
Q 838 2438 1203 2875 
z
M 3238 1747 
Q 3359 2381 3169 2744 
Q 2978 3103 2522 3103 
Q 2066 3103 1734 2744 
Q 1403 2381 1281 1747 
Q 1156 1113 1347 750 
Q 1538 391 1994 391 
Q 2450 391 2781 750 
Q 3113 1113 3238 1747 
z
" transform="scale(0.015625)"/>
      </defs>
      <use xlink:href="#DejaVuSans-45" transform="translate(0 0.09375)"/>
      <use xlink:href="#DejaVuSans-72" transform="translate(63.183594 0.09375)"/>
      <use xlink:href="#DejaVuSans-72" transform="translate(104.296875 0.09375)"/>
      <use xlink:href="#DejaVuSans-6f" transform="translate(145.410156 0.09375)"/>
      <use xlink:href="#DejaVuSans-72" transform="translate(206.591797 0.09375)"/>
      <use xlink:href="#DejaVuSans-20" transform="translate(247.705078 0.09375)"/>
      <use xlink:href="#DejaVuSans-Oblique-3c1" transform="translate(279.492188 0.09375)"/>
     </g>
    </g>
   </g>
   <g id="line2d_7">
    <path d="M 179.64565 387.00813 
L 321.201134 349.805831 
L 494.477458 323.412483 
L 717.827083 271.013141 
L 1032.714192 220.662126 
" clip-path="url(#pda0103267b)" style="fill: none; stroke: #ff0000; stroke-width: 1.5; stroke-linecap: square"/>
    <defs>
     <path id="m1209005cba" d="M 0 1.5 
C 0.397805 1.5 0.77937 1.341951 1.06066 1.06066 
C 1.341951 0.77937 1.5 0.397805 1.5 0 
C 1.5 -0.397805 1.341951 -0.77937 1.06066 -1.06066 
C 0.77937 -1.341951 0.397805 -1.5 0 -1.5 
C -0.397805 -1.5 -0.77937 -1.341951 -1.06066 -1.06066 
C -1.341951 -0.77937 -1.5 -0.397805 -1.5 0 
C -1.5 0.397805 -1.341951 0.77937 -1.06066 1.06066 
C -0.77937 1.341951 -0.397805 1.5 0 1.5 
z
" style="stroke: #ff0000"/>
    </defs>
    <g clip-path="url(#pda0103267b)">
     <use xlink:href="#m1209005cba" x="179.64565" y="387.00813" style="fill: #ff0000; stroke: #ff0000"/>
     <use xlink:href="#m1209005cba" x="321.201134" y="349.805831" style="fill: #ff0000; stroke: #ff0000"/>
     <use xlink:href="#m1209005cba" x="494.477458" y="323.412483" style="fill: #ff0000; stroke: #ff0000"/>
     <use xlink:href="#m1209005cba" x="717.827083" y="271.013141" style="fill: #ff0000; stroke: #ff0000"/>
     <use xlink:href="#m1209005cba" x="1032.714192" y="220.662126" style="fill: #ff0000; stroke: #ff0000"/>
    </g>
   </g>
   <g id="line2d_8">
    <path d="M 179.64565 382.074671 
L 321.201134 354.610608 
L 494.477458 320.992186 
L 717.827083 277.658731 
L 1032.714192 216.565516 
" clip-path="url(#pda0103267b)" style="fill: none; stroke-dasharray: 5.55,2.4; stroke-dashoffset: 0; stroke: #ff0000; stroke-width: 1.5"/>
   </g>
   <g id="line2d_9">
    <path d="M 179.64565 235.629692 
L 321.201134 208.344917 
L 494.477458 180.281756 
L 717.827083 129.676981 
L 1032.714192 78.207578 
" clip-path="url(#pda0103267b)" style="fill: none; stroke: #008000; stroke-width: 1.5; stroke-linecap: square"/>
    <defs>
     <path id="m812047e6a9" d="M 0 1.5 
C 0.397805 1.5 0.77937 1.341951 1.06066 1.06066 
C 1.341951 0.77937 1.5 0.397805 1.5 0 
C 1.5 -0.397805 1.341951 -0.77937 1.06066 -1.06066 
C 0.77937 -1.341951 0.397805 -1.5 0 -1.5 
C -0.397805 -1.5 -0.77937 -1.341951 -1.06066 -1.06066 
C -1.341951 -0.77937 -1.5 -0.397805 -1.5 0 
C -1.5 0.397805 -1.341951 0.77937 -1.06066 1.06066 
C -0.77937 1.341951 -0.397805 1.5 0 1.5 
z
" style="stroke: #008000"/>
    </defs>
    <g clip-path="url(#pda0103267b)">
     <use xlink:href="#m812047e6a9" x="179.64565" y="235.629692" style="fill: #008000; stroke: #008000"/>
     <use xlink:href="#m812047e6a9" x="321.201134" y="208.344917" style="fill: #008000; stroke: #008000"/>
     <use xlink:href="#m812047e6a9" x="494.477458" y="180.281756" style="fill: #008000; stroke: #008000"/>
     <use xlink:href="#m812047e6a9" x="717.827083" y="129.676981" style="fill: #008000; stroke: #008000"/>
     <use xlink:href="#m812047e6a9" x="1032.714192" y="78.207578" style="fill: #008000; stroke: #008000"/>
    </g>
   </g>
   <g id="line2d_10">
    <path d="M 179.64565 235.437839 
L 321.201134 209.002198 
L 494.477458 176.642656 
L 717.827083 134.931871 
L 1032.714192 76.126361 
" clip-path="url(#pda0103267b)" style="fill: none; stroke-dasharray: 5.55,2.4; stroke-dashoffset: 0; stroke: #008000; stroke-width: 1.5"/>
   </g>
   <g id="line2d_11">
    <path d="M 179.64565 212.964099 
L 321.201134 176.846434 
L 494.477458 152.375395 
L 717.827083 104.644291 
L 1032.714192 52.424689 
" clip-path="url(#pda0103267b)" style="fill: none; stroke: #0000ff; stroke-width: 1.5; stroke-linecap: square"/>
    <defs>
     <path id="mf2e9771ae7" d="M 0 1.5 
C 0.397805 1.5 0.77937 1.341951 1.06066 1.06066 
C 1.341951 0.77937 1.5 0.397805 1.5 0 
C 1.5 -0.397805 1.341951 -0.77937 1.06066 -1.06066 
C 0.77937 -1.341951 0.397805 -1.5 0 -1.5 
C -0.397805 -1.5 -0.77937 -1.341951 -1.06066 -1.06066 
C -1.341951 -0.77937 -1.5 -0.397805 -1.5 0 
C -1.5 0.397805 -1.341951 0.77937 -1.06066 1.06066 
C -0.77937 1.341951 -0.397805 1.5 0 1.5 
z
" style="stroke: #0000ff"/>
    </defs>
    <g clip-path="url(#pda0103267b)">
     <use xlink:href="#mf2e9771ae7" x="179.64565" y="212.964099" style="fill: #0000ff; stroke: #0000ff"/>
     <use xlink:href="#mf2e9771ae7" x="321.201134" y="176.846434" style="fill: #0000ff; stroke: #0000ff"/>
     <use xlink:href="#mf2e9771ae7" x="494.477458" y="152.375395" style="fill: #0000ff; stroke: #0000ff"/>
     <use xlink:href="#mf2e9771ae7" x="717.827083" y="104.644291" style="fill: #0000ff; stroke: #0000ff"/>
     <use xlink:href="#mf2e9771ae7" x="1032.714192" y="52.424689" style="fill: #0000ff; stroke: #0000ff"/>
    </g>
   </g>
   <g id="line2d_12">
    <path d="M 179.64565 208.539995 
L 321.201134 182.227183 
L 494.477458 150.017993 
L 717.827083 108.501009 
L 1032.714192 49.968727 
" clip-path="url(#pda0103267b)" style="fill: none; stroke-dasharray: 5.55,2.4; stroke-dashoffset: 0; stroke: #0000ff; stroke-width: 1.5"/>
   </g>
   <g id="line2d_13">
    <path d="M 179.64565 608.075718 
L 321.201134 577.037524 
L 494.477458 539.85579 
L 717.827083 455.07179 
L 1032.714192 362.907609 
" clip-path="url(#pda0103267b)" style="fill: none; stroke: #ffa500; stroke-width: 1.5; stroke-linecap: square"/>
    <defs>
     <path id="mb9ef185222" d="M 0 1.5 
C 0.397805 1.5 0.77937 1.341951 1.06066 1.06066 
C 1.341951 0.77937 1.5 0.397805 1.5 0 
C 1.5 -0.397805 1.341951 -0.77937 1.06066 -1.06066 
C 0.77937 -1.341951 0.397805 -1.5 0 -1.5 
C -0.397805 -1.5 -0.77937 -1.341951 -1.06066 -1.06066 
C -1.341951 -0.77937 -1.5 -0.397805 -1.5 0 
C -1.5 0.397805 -1.341951 0.77937 -1.06066 1.06066 
C -0.77937 1.341951 -0.397805 1.5 0 1.5 
z
" style="stroke: #ffa500"/>
    </defs>
    <g clip-path="url(#pda0103267b)">
     <use xlink:href="#mb9ef185222" x="179.64565" y="608.075718" style="fill: #ffa500; stroke: #ffa500"/>
     <use xlink:href="#mb9ef185222" x="321.201134" y="577.037524" style="fill: #ffa500; stroke: #ffa500"/>
     <use xlink:href="#mb9ef185222" x="494.477458" y="539.85579" style="fill: #ffa500; stroke: #ffa500"/>
     <use xlink:href="#mb9ef185222" x="717.827083" y="455.07179" style="fill: #ffa500; stroke: #ffa500"/>
     <use xlink:href="#mb9ef185222" x="1032.714192" y="362.907609" style="fill: #ffa500; stroke: #ffa500"/>
    </g>
   </g>
   <g id="line2d_14">
    <path d="M 179.64565 617.343273 
L 321.201134 575.682859 
L 494.477458 524.68686 
L 717.827083 458.954064 
L 1032.714192 366.281376 
" clip-path="url(#pda0103267b)" style="fill: none; stroke-dasharray: 5.55,2.4; stroke-dashoffset: 0; stroke: #ffa500; stroke-width: 1.5"/>
   </g>
   <g id="patch_3">
    <path d="M 136.992223 645.712 
L 136.992223 21.6 
" style="fill: none; stroke: #000000; stroke-width: 0.8; stroke-linejoin: miter; stroke-linecap: square"/>
   </g>
   <g id="patch_4">
    <path d="M 1075.367619 645.712 
L 1075.367619 21.6 
" style="fill: none; stroke: #000000; stroke-width: 0.8; stroke-linejoin: miter; stroke-linecap: square"/>
   </g>
   <g id="patch_5">
    <path d="M 136.992223 645.712 
L 1075.367619 645.712 
" style="fill: none; stroke: #000000; stroke-width: 0.8; stroke-linejoin: miter; stroke-linecap: square"/>
   </g>
   <g id="patch_6">
    <path d="M 136.992223 21.6 
L 1075.367619 21.6 
" style="fill: none; stroke: #000000; stroke-width: 0.8; stroke-linejoin: miter; stroke-linecap: square"/>
   </g>
  </g>
  <g id="axes_2">
   <g id="patch_7">
    <path d="M 1200.024604 645.712 
L 2138.4 645.712 
L 2138.4 21.6 
L 1200.024604 21.6 
z
" style="fill: #ffffff"/>
   </g>
   <g id="matplotlib.axis_3">
    <g id="xtick_4">
     <g id="line2d_15">
      <g>
       <use xlink:href="#medb958c73a" x="1210.984603" y="645.712" style="stroke: #000000; stroke-width: 0.8"/>
      </g>
     </g>
     <g id="text_8">
      <!-- $\mathdefault{10^{-2}}$ -->
      <g transform="translate(1187.484603 667.908875) scale(0.2 -0.2)">
       <use xlink:href="#DejaVuSans-31" transform="translate(0 0.765625)"/>
       <use xlink:href="#DejaVuSans-30" transform="translate(63.623047 0.765625)"/>
       <use xlink:href="#DejaVuSans-2212" transform="translate(128.203125 39.046875) scale(0.7)"/>
       <use xlink:href="#DejaVuSans-32" transform="translate(186.855469 39.046875) scale(0.7)"/>
      </g>
     </g>
    </g>
    <g id="xtick_5">
     <g id="line2d_16">
      <g>
       <use xlink:href="#m631ea76978" x="1749.197636" y="645.712" style="stroke: #000000; stroke-width: 0.6"/>
      </g>
     </g>
     <g id="text_9">
      <!-- $\mathdefault{2\times10^{-2}}$ -->
      <g transform="translate(1707.097636 666.308875) scale(0.2 -0.2)">
       <use xlink:href="#DejaVuSans-32" transform="translate(0 0.765625)"/>
       <use xlink:href="#DejaVuSans-d7" transform="translate(83.105469 0.765625)"/>
       <use xlink:href="#DejaVuSans-31" transform="translate(186.376953 0.765625)"/>
       <use xlink:href="#DejaVuSans-30" transform="translate(250 0.765625)"/>
       <use xlink:href="#DejaVuSans-2212" transform="translate(314.580078 39.046875) scale(0.7)"/>
       <use xlink:href="#DejaVuSans-32" transform="translate(373.232422 39.046875) scale(0.7)"/>
      </g>
     </g>
    </g>
    <g id="xtick_6">
     <g id="line2d_17">
      <g>
       <use xlink:href="#m631ea76978" x="2064.032077" y="645.712" style="stroke: #000000; stroke-width: 0.6"/>
      </g>
     </g>
     <g id="text_10">
      <!-- $\mathdefault{3\times10^{-2}}$ -->
      <g transform="translate(2021.932077 666.308875) scale(0.2 -0.2)">
       <use xlink:href="#DejaVuSans-33" transform="translate(0 0.765625)"/>
       <use xlink:href="#DejaVuSans-d7" transform="translate(83.105469 0.765625)"/>
       <use xlink:href="#DejaVuSans-31" transform="translate(186.376953 0.765625)"/>
       <use xlink:href="#DejaVuSans-30" transform="translate(250 0.765625)"/>
       <use xlink:href="#DejaVuSans-2212" transform="translate(314.580078 39.046875) scale(0.7)"/>
       <use xlink:href="#DejaVuSans-32" transform="translate(373.232422 39.046875) scale(0.7)"/>
      </g>
     </g>
    </g>
    <g id="text_11">
     <!-- $h$ -->
     <g transform="translate(1662.812302 691.265125) scale(0.2 -0.2)">
      <use xlink:href="#DejaVuSans-Oblique-68" transform="translate(0 0.015625)"/>
     </g>
    </g>
   </g>
   <g id="matplotlib.axis_4">
    <g id="ytick_4">
     <g id="line2d_18">
      <g>
       <use xlink:href="#m8b7a156d49" x="1200.024604" y="524.288008" style="stroke: #000000; stroke-width: 0.8"/>
      </g>
     </g>
     <g id="text_12">
      <!-- $\mathdefault{10^{0}}$ -->
      <g transform="translate(1157.824604 531.886446) scale(0.2 -0.2)">
       <use xlink:href="#DejaVuSans-31" transform="translate(0 0.765625)"/>
       <use xlink:href="#DejaVuSans-30" transform="translate(63.623047 0.765625)"/>
       <use xlink:href="#DejaVuSans-30" transform="translate(128.203125 39.046875) scale(0.7)"/>
      </g>
     </g>
    </g>
    <g id="ytick_5">
     <g id="line2d_19">
      <g>
       <use xlink:href="#ma07c6e516a" x="1200.024604" y="635.081672" style="stroke: #000000; stroke-width: 0.6"/>
      </g>
     </g>
    </g>
    <g id="ytick_6">
     <g id="line2d_20">
      <g>
       <use xlink:href="#ma07c6e516a" x="1200.024604" y="576.600869" style="stroke: #000000; stroke-width: 0.6"/>
      </g>
     </g>
    </g>
    <g id="ytick_7">
     <g id="line2d_21">
      <g>
       <use xlink:href="#ma07c6e516a" x="1200.024604" y="180.131453" style="stroke: #000000; stroke-width: 0.6"/>
      </g>
     </g>
     <g id="text_13">
      <!-- $\mathdefault{2\times10^{0}}$ -->
      <g transform="translate(1122.224604 187.72989) scale(0.2 -0.2)">
       <use xlink:href="#DejaVuSans-32" transform="translate(0 0.765625)"/>
       <use xlink:href="#DejaVuSans-d7" transform="translate(83.105469 0.765625)"/>
       <use xlink:href="#DejaVuSans-31" transform="translate(186.376953 0.765625)"/>
       <use xlink:href="#DejaVuSans-30" transform="translate(250 0.765625)"/>
       <use xlink:href="#DejaVuSans-30" transform="translate(314.580078 39.046875) scale(0.7)"/>
      </g>
     </g>
    </g>
    <g id="text_14">
     <!-- Error $V_r$ -->
     <g transform="translate(1114.065229 371.656) rotate(-90) scale(0.2 -0.2)">
      <defs>
       <path id="DejaVuSans-Oblique-56" d="M 1319 0 
L 500 4666 
L 1119 4666 
L 1797 653 
L 4063 4666 
L 4750 4666 
L 2053 0 
L 1319 0 
z
" transform="scale(0.015625)"/>
       <path id="DejaVuSans-Oblique-72" d="M 2853 2969 
Q 2766 3016 2653 3041 
Q 2541 3066 2413 3066 
Q 1953 3066 1609 2717 
Q 1266 2369 1153 1784 
L 800 0 
L 225 0 
L 909 3500 
L 1484 3500 
L 1375 2956 
Q 1603 3259 1920 3421 
Q 2238 3584 2597 3584 
Q 2691 3584 2781 3573 
Q 2872 3563 2963 3538 
L 2853 2969 
z
" transform="scale(0.015625)"/>
      </defs>
      <use xlink:href="#DejaVuSans-45" transform="translate(0 0.09375)"/>
      <use xlink:href="#DejaVuSans-72" transform="translate(63.183594 0.09375)"/>
      <use xlink:href="#DejaVuSans-72" transform="translate(104.296875 0.09375)"/>
      <use xlink:href="#DejaVuSans-6f" transform="translate(145.410156 0.09375)"/>
      <use xlink:href="#DejaVuSans-72" transform="translate(206.591797 0.09375)"/>
      <use xlink:href="#DejaVuSans-20" transform="translate(247.705078 0.09375)"/>
      <use xlink:href="#DejaVuSans-Oblique-56" transform="translate(279.492188 0.09375)"/>
      <use xlink:href="#DejaVuSans-Oblique-72" transform="translate(347.900391 -16.3125) scale(0.7)"/>
     </g>
    </g>
   </g>
   <g id="line2d_22">
    <path d="M 1242.678031 462.626087 
L 1384.233515 418.224874 
L 1557.509839 372.089456 
L 1780.859464 303.348547 
L 2095.746573 198.525617 
" clip-path="url(#p9e116350a8)" style="fill: none; stroke: #ff0000; stroke-width: 1.5; stroke-linecap: square"/>
    <g clip-path="url(#p9e116350a8)">
     <use xlink:href="#m1209005cba" x="1242.678031" y="462.626087" style="fill: #ff0000; stroke: #ff0000"/>
     <use xlink:href="#m1209005cba" x="1384.233515" y="418.224874" style="fill: #ff0000; stroke: #ff0000"/>
     <use xlink:href="#m1209005cba" x="1557.509839" y="372.089456" style="fill: #ff0000; stroke: #ff0000"/>
     <use xlink:href="#m1209005cba" x="1780.859464" y="303.348547" style="fill: #ff0000; stroke: #ff0000"/>
     <use xlink:href="#m1209005cba" x="2095.746573" y="198.525617" style="fill: #ff0000; stroke: #ff0000"/>
    </g>
   </g>
   <g id="line2d_23">
    <path d="M 1242.678031 464.558324 
L 1384.233515 421.043146 
L 1557.509839 367.776753 
L 1780.859464 299.117465 
L 2095.746573 202.318893 
" clip-path="url(#p9e116350a8)" style="fill: none; stroke-dasharray: 5.55,2.4; stroke-dashoffset: 0; stroke: #ff0000; stroke-width: 1.5"/>
   </g>
   <g id="line2d_24">
    <path d="M 1242.678031 325.422433 
L 1384.233515 286.88865 
L 1557.509839 228.531023 
L 1780.859464 161.440853 
L 2095.746573 49.968727 
" clip-path="url(#p9e116350a8)" style="fill: none; stroke: #008000; stroke-width: 1.5; stroke-linecap: square"/>
    <g clip-path="url(#p9e116350a8)">
     <use xlink:href="#m812047e6a9" x="1242.678031" y="325.422433" style="fill: #008000; stroke: #008000"/>
     <use xlink:href="#m812047e6a9" x="1384.233515" y="286.88865" style="fill: #008000; stroke: #008000"/>
     <use xlink:href="#m812047e6a9" x="1557.509839" y="228.531023" style="fill: #008000; stroke: #008000"/>
     <use xlink:href="#m812047e6a9" x="1780.859464" y="161.440853" style="fill: #008000; stroke: #008000"/>
     <use xlink:href="#m812047e6a9" x="2095.746573" y="49.968727" style="fill: #008000; stroke: #008000"/>
    </g>
   </g>
   <g id="line2d_25">
    <path d="M 1242.678031 329.968633 
L 1384.233515 284.184564 
L 1557.509839 228.14085 
L 1780.859464 155.901653 
L 2095.746573 54.055985 
" clip-path="url(#p9e116350a8)" style="fill: none; stroke-dasharray: 5.55,2.4; stroke-dashoffset: 0; stroke: #008000; stroke-width: 1.5"/>
   </g>
   <g id="line2d_26">
    <path d="M 1242.678031 284.212585 
L 1384.233515 243.645004 
L 1557.509839 206.270682 
L 1780.859464 152.566511 
L 2095.746573 57.395081 
" clip-path="url(#p9e116350a8)" style="fill: none; stroke: #0000ff; stroke-width: 1.5; stroke-linecap: square"/>
    <g clip-path="url(#p9e116350a8)">
     <use xlink:href="#mf2e9771ae7" x="1242.678031" y="284.212585" style="fill: #0000ff; stroke: #0000ff"/>
     <use xlink:href="#mf2e9771ae7" x="1384.233515" y="243.645004" style="fill: #0000ff; stroke: #0000ff"/>
     <use xlink:href="#mf2e9771ae7" x="1557.509839" y="206.270682" style="fill: #0000ff; stroke: #0000ff"/>
     <use xlink:href="#mf2e9771ae7" x="1780.859464" y="152.566511" style="fill: #0000ff; stroke: #0000ff"/>
     <use xlink:href="#mf2e9771ae7" x="2095.746573" y="57.395081" style="fill: #0000ff; stroke: #0000ff"/>
    </g>
   </g>
   <g id="line2d_27">
    <path d="M 1242.678031 285.210091 
L 1384.233515 248.285005 
L 1557.509839 203.085462 
L 1780.859464 144.824179 
L 2095.746573 62.685125 
" clip-path="url(#p9e116350a8)" style="fill: none; stroke-dasharray: 5.55,2.4; stroke-dashoffset: 0; stroke: #0000ff; stroke-width: 1.5"/>
   </g>
   <g id="line2d_28">
    <path d="M 1242.678031 617.343273 
L 1384.233515 559.585387 
L 1557.509839 496.849492 
L 1780.859464 409.287677 
L 2095.746573 298.787765 
" clip-path="url(#p9e116350a8)" style="fill: none; stroke: #ffa500; stroke-width: 1.5; stroke-linecap: square"/>
    <g clip-path="url(#p9e116350a8)">
     <use xlink:href="#mb9ef185222" x="1242.678031" y="617.343273" style="fill: #ffa500; stroke: #ffa500"/>
     <use xlink:href="#mb9ef185222" x="1384.233515" y="559.585387" style="fill: #ffa500; stroke: #ffa500"/>
     <use xlink:href="#mb9ef185222" x="1557.509839" y="496.849492" style="fill: #ffa500; stroke: #ffa500"/>
     <use xlink:href="#mb9ef185222" x="1780.859464" y="409.287677" style="fill: #ffa500; stroke: #ffa500"/>
     <use xlink:href="#mb9ef185222" x="2095.746573" y="298.787765" style="fill: #ffa500; stroke: #ffa500"/>
    </g>
   </g>
   <g id="line2d_29">
    <path d="M 1242.678031 614.294352 
L 1384.233515 561.459721 
L 1557.509839 496.7855 
L 1780.859464 413.421757 
L 2095.746573 295.892264 
" clip-path="url(#p9e116350a8)" style="fill: none; stroke-dasharray: 5.55,2.4; stroke-dashoffset: 0; stroke: #ffa500; stroke-width: 1.5"/>
   </g>
   <g id="patch_8">
    <path d="M 1200.024604 645.712 
L 1200.024604 21.6 
" style="fill: none; stroke: #000000; stroke-width: 0.8; stroke-linejoin: miter; stroke-linecap: square"/>
   </g>
   <g id="patch_9">
    <path d="M 2138.4 645.712 
L 2138.4 21.6 
" style="fill: none; stroke: #000000; stroke-width: 0.8; stroke-linejoin: miter; stroke-linecap: square"/>
   </g>
   <g id="patch_10">
    <path d="M 1200.024604 645.712 
L 2138.4 645.712 
" style="fill: none; stroke: #000000; stroke-width: 0.8; stroke-linejoin: miter; stroke-linecap: square"/>
   </g>
   <g id="patch_11">
    <path d="M 1200.024604 21.6 
L 2138.4 21.6 
" style="fill: none; stroke: #000000; stroke-width: 0.8; stroke-linejoin: miter; stroke-linecap: square"/>
   </g>
   <g id="legend_1">
    <g id="patch_12">
     <path d="M 2020.525 635.712 
L 2124.4 635.712 
Q 2128.4 635.712 2128.4 631.712 
L 2128.4 516.287 
Q 2128.4 512.287 2124.4 512.287 
L 2020.525 512.287 
Q 2016.525 512.287 2016.525 516.287 
L 2016.525 631.712 
Q 2016.525 635.712 2020.525 635.712 
z
" style="fill: #ffffff; opacity: 0.8; stroke: #cccccc; stroke-linejoin: miter"/>
    </g>
    <g id="line2d_30">
     <path d="M 2024.525 528.483875 
L 2044.525 528.483875 
L 2064.525 528.483875 
" style="fill: none; stroke-dasharray: 5.55,2.4; stroke-dashoffset: 0; stroke: #ff0000; stroke-width: 1.5"/>
    </g>
    <g id="text_15">
     <!-- N -->
     <g transform="translate(2080.525 535.483875) scale(0.2 -0.2)">
      <defs>
       <path id="DejaVuSans-4e" d="M 628 4666 
L 1478 4666 
L 3547 763 
L 3547 4666 
L 4159 4666 
L 4159 0 
L 3309 0 
L 1241 3903 
L 1241 0 
L 628 0 
L 628 4666 
z
" transform="scale(0.015625)"/>
      </defs>
      <use xlink:href="#DejaVuSans-4e"/>
     </g>
    </g>
    <g id="line2d_31">
     <path d="M 2024.525 557.840125 
L 2044.525 557.840125 
L 2064.525 557.840125 
" style="fill: none; stroke-dasharray: 5.55,2.4; stroke-dashoffset: 0; stroke: #008000; stroke-width: 1.5"/>
    </g>
    <g id="text_16">
     <!-- LDA -->
     <g transform="translate(2080.525 564.840125) scale(0.2 -0.2)">
      <defs>
       <path id="DejaVuSans-4c" d="M 628 4666 
L 1259 4666 
L 1259 531 
L 3531 531 
L 3531 0 
L 628 0 
L 628 4666 
z
" transform="scale(0.015625)"/>
       <path id="DejaVuSans-44" d="M 1259 4147 
L 1259 519 
L 2022 519 
Q 2988 519 3436 956 
Q 3884 1394 3884 2338 
Q 3884 3275 3436 3711 
Q 2988 4147 2022 4147 
L 1259 4147 
z
M 628 4666 
L 1925 4666 
Q 3281 4666 3915 4102 
Q 4550 3538 4550 2338 
Q 4550 1131 3912 565 
Q 3275 0 1925 0 
L 628 0 
L 628 4666 
z
" transform="scale(0.015625)"/>
       <path id="DejaVuSans-41" d="M 2188 4044 
L 1331 1722 
L 3047 1722 
L 2188 4044 
z
M 1831 4666 
L 2547 4666 
L 4325 0 
L 3669 0 
L 3244 1197 
L 1141 1197 
L 716 0 
L 50 0 
L 1831 4666 
z
" transform="scale(0.015625)"/>
      </defs>
      <use xlink:href="#DejaVuSans-4c"/>
      <use xlink:href="#DejaVuSans-44" x="55.712891"/>
      <use xlink:href="#DejaVuSans-41" x="130.964844"/>
     </g>
    </g>
    <g id="line2d_32">
     <path d="M 2024.525 587.196375 
L 2044.525 587.196375 
L 2064.525 587.196375 
" style="fill: none; stroke-dasharray: 5.55,2.4; stroke-dashoffset: 0; stroke: #0000ff; stroke-width: 1.5"/>
    </g>
    <g id="text_17">
     <!-- B -->
     <g transform="translate(2080.525 594.196375) scale(0.2 -0.2)">
      <defs>
       <path id="DejaVuSans-42" d="M 1259 2228 
L 1259 519 
L 2272 519 
Q 2781 519 3026 730 
Q 3272 941 3272 1375 
Q 3272 1813 3026 2020 
Q 2781 2228 2272 2228 
L 1259 2228 
z
M 1259 4147 
L 1259 2741 
L 2194 2741 
Q 2656 2741 2882 2914 
Q 3109 3088 3109 3444 
Q 3109 3797 2882 3972 
Q 2656 4147 2194 4147 
L 1259 4147 
z
M 628 4666 
L 2241 4666 
Q 2963 4666 3353 4366 
Q 3744 4066 3744 3513 
Q 3744 3084 3544 2831 
Q 3344 2578 2956 2516 
Q 3422 2416 3680 2098 
Q 3938 1781 3938 1306 
Q 3938 681 3513 340 
Q 3088 0 2303 0 
L 628 0 
L 628 4666 
z
" transform="scale(0.015625)"/>
      </defs>
      <use xlink:href="#DejaVuSans-42"/>
     </g>
    </g>
    <g id="line2d_33">
     <path d="M 2024.525 616.552625 
L 2044.525 616.552625 
L 2064.525 616.552625 
" style="fill: none; stroke-dasharray: 5.55,2.4; stroke-dashoffset: 0; stroke: #ffa500; stroke-width: 1.5"/>
    </g>
    <g id="text_18">
     <!-- Bx -->
     <g transform="translate(2080.525 623.552625) scale(0.2 -0.2)">
      <defs>
       <path id="DejaVuSans-78" d="M 3513 3500 
L 2247 1797 
L 3578 0 
L 2900 0 
L 1881 1375 
L 863 0 
L 184 0 
L 1544 1831 
L 300 3500 
L 978 3500 
L 1906 2253 
L 2834 3500 
L 3513 3500 
z
" transform="scale(0.015625)"/>
      </defs>
      <use xlink:href="#DejaVuSans-42"/>
      <use xlink:href="#DejaVuSans-78" x="68.603516"/>
     </g>
    </g>
   </g>
  </g>
 </g>
 <defs>
  <clipPath id="pda0103267b">
   <rect x="136.992223" y="21.6" width="938.375396" height="624.112"/>
  </clipPath>
  <clipPath id="p9e116350a8">
   <rect x="1200.024604" y="21.6" width="938.375396" height="624.112"/>
  </clipPath>
 </defs>
</svg>
