<?xml version="1.0" encoding="utf-8" standalone="no"?>
<!DOCTYPE svg PUBLIC "-//W3C//DTD SVG 1.1//EN"
  "http://www.w3.org/Graphics/SVG/1.1/DTD/svg11.dtd">
<svg xmlns:xlink="http://www.w3.org/1999/xlink" width="2160pt" height="720pt" viewBox="0 0 2160 720" xmlns="http://www.w3.org/2000/svg" version="1.1">
 <metadata>
  <rdf:RDF xmlns:dc="http://purl.org/dc/elements/1.1/" xmlns:cc="http://creativecommons.org/ns#" xmlns:rdf="http://www.w3.org/1999/02/22-rdf-syntax-ns#">
   <cc:Work>
    <dc:type rdf:resource="http://purl.org/dc/dcmitype/StillImage"/>
    <dc:date>2023-06-26T18:59:56.258897</dc:date>
    <dc:format>image/svg+xml</dc:format>
    <dc:creator>
     <cc:Agent>
      <dc:title>Matplotlib v3.7.1, https://matplotlib.org/</dc:title>
     </cc:Agent>
    </dc:creator>
   </cc:Work>
  </rdf:RDF>
 </metadata>
 <defs>
  <style type="text/css">*{stroke-linejoin: round; stroke-linecap: butt}</style>
 </defs>
 <g id="figure_1">
  <g id="patch_1">
   <path d="M 0 720 
L 2160 720 
L 2160 0 
L 0 0 
z
" style="fill: #ffffff"/>
  </g>
  <g id="axes_1">
   <g id="patch_2">
    <path d="M 84.71 647.08 
L 696.006 647.08 
L 696.006 21.6 
L 84.71 21.6 
z
" style="fill: #ffffff"/>
   </g>
   <g id="matplotlib.axis_1">
    <g id="xtick_1">
     <g id="line2d_1">
      <defs>
       <path id="m7c84b32ce5" d="M 0 0 
L 0 3.5 
" style="stroke: #000000; stroke-width: 0.8"/>
      </defs>
      <g>
       <use xlink:href="#m7c84b32ce5" x="84.71" y="647.08" style="stroke: #000000; stroke-width: 0.8"/>
      </g>
     </g>
     <g id="text_1">
      <!-- 1.0 -->
      <g transform="translate(68.806875 669.276875) scale(0.2 -0.2)">
       <defs>
        <path id="DejaVuSans-31" d="M 794 531 
L 1825 531 
L 1825 4091 
L 703 3866 
L 703 4441 
L 1819 4666 
L 2450 4666 
L 2450 531 
L 3481 531 
L 3481 0 
L 794 0 
L 794 531 
z
" transform="scale(0.015625)"/>
        <path id="DejaVuSans-2e" d="M 684 794 
L 1344 794 
L 1344 0 
L 684 0 
L 684 794 
z
" transform="scale(0.015625)"/>
        <path id="DejaVuSans-30" d="M 2034 4250 
Q 1547 4250 1301 3770 
Q 1056 3291 1056 2328 
Q 1056 1369 1301 889 
Q 1547 409 2034 409 
Q 2525 409 2770 889 
Q 3016 1369 3016 2328 
Q 3016 3291 2770 3770 
Q 2525 4250 2034 4250 
z
M 2034 4750 
Q 2819 4750 3233 4129 
Q 3647 3509 3647 2328 
Q 3647 1150 3233 529 
Q 2819 -91 2034 -91 
Q 1250 -91 836 529 
Q 422 1150 422 2328 
Q 422 3509 836 4129 
Q 1250 4750 2034 4750 
z
" transform="scale(0.015625)"/>
       </defs>
       <use xlink:href="#DejaVuSans-31"/>
       <use xlink:href="#DejaVuSans-2e" x="63.623047"/>
       <use xlink:href="#DejaVuSans-30" x="95.410156"/>
      </g>
     </g>
    </g>
    <g id="xtick_2">
     <g id="line2d_2">
      <g>
       <use xlink:href="#m7c84b32ce5" x="206.9692" y="647.08" style="stroke: #000000; stroke-width: 0.8"/>
      </g>
     </g>
     <g id="text_2">
      <!-- 1.2 -->
      <g transform="translate(191.066075 669.276875) scale(0.2 -0.2)">
       <defs>
        <path id="DejaVuSans-32" d="M 1228 531 
L 3431 531 
L 3431 0 
L 469 0 
L 469 531 
Q 828 903 1448 1529 
Q 2069 2156 2228 2338 
Q 2531 2678 2651 2914 
Q 2772 3150 2772 3378 
Q 2772 3750 2511 3984 
Q 2250 4219 1831 4219 
Q 1534 4219 1204 4116 
Q 875 4013 500 3803 
L 500 4441 
Q 881 4594 1212 4672 
Q 1544 4750 1819 4750 
Q 2544 4750 2975 4387 
Q 3406 4025 3406 3419 
Q 3406 3131 3298 2873 
Q 3191 2616 2906 2266 
Q 2828 2175 2409 1742 
Q 1991 1309 1228 531 
z
" transform="scale(0.015625)"/>
       </defs>
       <use xlink:href="#DejaVuSans-31"/>
       <use xlink:href="#DejaVuSans-2e" x="63.623047"/>
       <use xlink:href="#DejaVuSans-32" x="95.410156"/>
      </g>
     </g>
    </g>
    <g id="xtick_3">
     <g id="line2d_3">
      <g>
       <use xlink:href="#m7c84b32ce5" x="329.2284" y="647.08" style="stroke: #000000; stroke-width: 0.8"/>
      </g>
     </g>
     <g id="text_3">
      <!-- 1.4 -->
      <g transform="translate(313.325275 669.276875) scale(0.2 -0.2)">
       <defs>
        <path id="DejaVuSans-34" d="M 2419 4116 
L 825 1625 
L 2419 1625 
L 2419 4116 
z
M 2253 4666 
L 3047 4666 
L 3047 1625 
L 3713 1625 
L 3713 1100 
L 3047 1100 
L 3047 0 
L 2419 0 
L 2419 1100 
L 313 1100 
L 313 1709 
L 2253 4666 
z
" transform="scale(0.015625)"/>
       </defs>
       <use xlink:href="#DejaVuSans-31"/>
       <use xlink:href="#DejaVuSans-2e" x="63.623047"/>
       <use xlink:href="#DejaVuSans-34" x="95.410156"/>
      </g>
     </g>
    </g>
    <g id="xtick_4">
     <g id="line2d_4">
      <g>
       <use xlink:href="#m7c84b32ce5" x="451.4876" y="647.08" style="stroke: #000000; stroke-width: 0.8"/>
      </g>
     </g>
     <g id="text_4">
      <!-- 1.6 -->
      <g transform="translate(435.584475 669.276875) scale(0.2 -0.2)">
       <defs>
        <path id="DejaVuSans-36" d="M 2113 2584 
Q 1688 2584 1439 2293 
Q 1191 2003 1191 1497 
Q 1191 994 1439 701 
Q 1688 409 2113 409 
Q 2538 409 2786 701 
Q 3034 994 3034 1497 
Q 3034 2003 2786 2293 
Q 2538 2584 2113 2584 
z
M 3366 4563 
L 3366 3988 
Q 3128 4100 2886 4159 
Q 2644 4219 2406 4219 
Q 1781 4219 1451 3797 
Q 1122 3375 1075 2522 
Q 1259 2794 1537 2939 
Q 1816 3084 2150 3084 
Q 2853 3084 3261 2657 
Q 3669 2231 3669 1497 
Q 3669 778 3244 343 
Q 2819 -91 2113 -91 
Q 1303 -91 875 529 
Q 447 1150 447 2328 
Q 447 3434 972 4092 
Q 1497 4750 2381 4750 
Q 2619 4750 2861 4703 
Q 3103 4656 3366 4563 
z
" transform="scale(0.015625)"/>
       </defs>
       <use xlink:href="#DejaVuSans-31"/>
       <use xlink:href="#DejaVuSans-2e" x="63.623047"/>
       <use xlink:href="#DejaVuSans-36" x="95.410156"/>
      </g>
     </g>
    </g>
    <g id="xtick_5">
     <g id="line2d_5">
      <g>
       <use xlink:href="#m7c84b32ce5" x="573.7468" y="647.08" style="stroke: #000000; stroke-width: 0.8"/>
      </g>
     </g>
     <g id="text_5">
      <!-- 1.8 -->
      <g transform="translate(557.843675 669.276875) scale(0.2 -0.2)">
       <defs>
        <path id="DejaVuSans-38" d="M 2034 2216 
Q 1584 2216 1326 1975 
Q 1069 1734 1069 1313 
Q 1069 891 1326 650 
Q 1584 409 2034 409 
Q 2484 409 2743 651 
Q 3003 894 3003 1313 
Q 3003 1734 2745 1975 
Q 2488 2216 2034 2216 
z
M 1403 2484 
Q 997 2584 770 2862 
Q 544 3141 544 3541 
Q 544 4100 942 4425 
Q 1341 4750 2034 4750 
Q 2731 4750 3128 4425 
Q 3525 4100 3525 3541 
Q 3525 3141 3298 2862 
Q 3072 2584 2669 2484 
Q 3125 2378 3379 2068 
Q 3634 1759 3634 1313 
Q 3634 634 3220 271 
Q 2806 -91 2034 -91 
Q 1263 -91 848 271 
Q 434 634 434 1313 
Q 434 1759 690 2068 
Q 947 2378 1403 2484 
z
M 1172 3481 
Q 1172 3119 1398 2916 
Q 1625 2713 2034 2713 
Q 2441 2713 2670 2916 
Q 2900 3119 2900 3481 
Q 2900 3844 2670 4047 
Q 2441 4250 2034 4250 
Q 1625 4250 1398 4047 
Q 1172 3844 1172 3481 
z
" transform="scale(0.015625)"/>
       </defs>
       <use xlink:href="#DejaVuSans-31"/>
       <use xlink:href="#DejaVuSans-2e" x="63.623047"/>
       <use xlink:href="#DejaVuSans-38" x="95.410156"/>
      </g>
     </g>
    </g>
    <g id="xtick_6">
     <g id="line2d_6">
      <g>
       <use xlink:href="#m7c84b32ce5" x="696.006" y="647.08" style="stroke: #000000; stroke-width: 0.8"/>
      </g>
     </g>
     <g id="text_6">
      <!-- 2.0 -->
      <g transform="translate(680.102875 669.276875) scale(0.2 -0.2)">
       <use xlink:href="#DejaVuSans-32"/>
       <use xlink:href="#DejaVuSans-2e" x="63.623047"/>
       <use xlink:href="#DejaVuSans-30" x="95.410156"/>
      </g>
     </g>
    </g>
    <g id="text_7">
     <!-- Position $x$ -->
     <g transform="translate(341.958 692.633125) scale(0.2 -0.2)">
      <defs>
       <path id="DejaVuSans-50" d="M 1259 4147 
L 1259 2394 
L 2053 2394 
Q 2494 2394 2734 2622 
Q 2975 2850 2975 3272 
Q 2975 3691 2734 3919 
Q 2494 4147 2053 4147 
L 1259 4147 
z
M 628 4666 
L 2053 4666 
Q 2838 4666 3239 4311 
Q 3641 3956 3641 3272 
Q 3641 2581 3239 2228 
Q 2838 1875 2053 1875 
L 1259 1875 
L 1259 0 
L 628 0 
L 628 4666 
z
" transform="scale(0.015625)"/>
       <path id="DejaVuSans-6f" d="M 1959 3097 
Q 1497 3097 1228 2736 
Q 959 2375 959 1747 
Q 959 1119 1226 758 
Q 1494 397 1959 397 
Q 2419 397 2687 759 
Q 2956 1122 2956 1747 
Q 2956 2369 2687 2733 
Q 2419 3097 1959 3097 
z
M 1959 3584 
Q 2709 3584 3137 3096 
Q 3566 2609 3566 1747 
Q 3566 888 3137 398 
Q 2709 -91 1959 -91 
Q 1206 -91 779 398 
Q 353 888 353 1747 
Q 353 2609 779 3096 
Q 1206 3584 1959 3584 
z
" transform="scale(0.015625)"/>
       <path id="DejaVuSans-73" d="M 2834 3397 
L 2834 2853 
Q 2591 2978 2328 3040 
Q 2066 3103 1784 3103 
Q 1356 3103 1142 2972 
Q 928 2841 928 2578 
Q 928 2378 1081 2264 
Q 1234 2150 1697 2047 
L 1894 2003 
Q 2506 1872 2764 1633 
Q 3022 1394 3022 966 
Q 3022 478 2636 193 
Q 2250 -91 1575 -91 
Q 1294 -91 989 -36 
Q 684 19 347 128 
L 347 722 
Q 666 556 975 473 
Q 1284 391 1588 391 
Q 1994 391 2212 530 
Q 2431 669 2431 922 
Q 2431 1156 2273 1281 
Q 2116 1406 1581 1522 
L 1381 1569 
Q 847 1681 609 1914 
Q 372 2147 372 2553 
Q 372 3047 722 3315 
Q 1072 3584 1716 3584 
Q 2034 3584 2315 3537 
Q 2597 3491 2834 3397 
z
" transform="scale(0.015625)"/>
       <path id="DejaVuSans-69" d="M 603 3500 
L 1178 3500 
L 1178 0 
L 603 0 
L 603 3500 
z
M 603 4863 
L 1178 4863 
L 1178 4134 
L 603 4134 
L 603 4863 
z
" transform="scale(0.015625)"/>
       <path id="DejaVuSans-74" d="M 1172 4494 
L 1172 3500 
L 2356 3500 
L 2356 3053 
L 1172 3053 
L 1172 1153 
Q 1172 725 1289 603 
Q 1406 481 1766 481 
L 2356 481 
L 2356 0 
L 1766 0 
Q 1100 0 847 248 
Q 594 497 594 1153 
L 594 3053 
L 172 3053 
L 172 3500 
L 594 3500 
L 594 4494 
L 1172 4494 
z
" transform="scale(0.015625)"/>
       <path id="DejaVuSans-6e" d="M 3513 2113 
L 3513 0 
L 2938 0 
L 2938 2094 
Q 2938 2591 2744 2837 
Q 2550 3084 2163 3084 
Q 1697 3084 1428 2787 
Q 1159 2491 1159 1978 
L 1159 0 
L 581 0 
L 581 3500 
L 1159 3500 
L 1159 2956 
Q 1366 3272 1645 3428 
Q 1925 3584 2291 3584 
Q 2894 3584 3203 3211 
Q 3513 2838 3513 2113 
z
" transform="scale(0.015625)"/>
       <path id="DejaVuSans-20" transform="scale(0.015625)"/>
       <path id="DejaVuSans-Oblique-78" d="M 3841 3500 
L 2234 1784 
L 3219 0 
L 2559 0 
L 1819 1388 
L 531 0 
L -166 0 
L 1556 1844 
L 641 3500 
L 1300 3500 
L 1972 2234 
L 3144 3500 
L 3841 3500 
z
" transform="scale(0.015625)"/>
      </defs>
      <use xlink:href="#DejaVuSans-50" transform="translate(0 0.015625)"/>
      <use xlink:href="#DejaVuSans-6f" transform="translate(60.302734 0.015625)"/>
      <use xlink:href="#DejaVuSans-73" transform="translate(121.484375 0.015625)"/>
      <use xlink:href="#DejaVuSans-69" transform="translate(173.583984 0.015625)"/>
      <use xlink:href="#DejaVuSans-74" transform="translate(201.367188 0.015625)"/>
      <use xlink:href="#DejaVuSans-69" transform="translate(240.576172 0.015625)"/>
      <use xlink:href="#DejaVuSans-6f" transform="translate(268.359375 0.015625)"/>
      <use xlink:href="#DejaVuSans-6e" transform="translate(329.541016 0.015625)"/>
      <use xlink:href="#DejaVuSans-20" transform="translate(392.919922 0.015625)"/>
      <use xlink:href="#DejaVuSans-Oblique-78" transform="translate(424.707031 0.015625)"/>
     </g>
    </g>
   </g>
   <g id="matplotlib.axis_2">
    <g id="ytick_1">
     <g id="line2d_7">
      <defs>
       <path id="m722041708b" d="M 0 0 
L -3.5 0 
" style="stroke: #000000; stroke-width: 0.8"/>
      </defs>
      <g>
       <use xlink:href="#m722041708b" x="84.71" y="647.08" style="stroke: #000000; stroke-width: 0.8"/>
      </g>
     </g>
     <g id="text_8">
      <!-- 0.0 -->
      <g transform="translate(45.90375 654.678437) scale(0.2 -0.2)">
       <use xlink:href="#DejaVuSans-30"/>
       <use xlink:href="#DejaVuSans-2e" x="63.623047"/>
       <use xlink:href="#DejaVuSans-30" x="95.410156"/>
      </g>
     </g>
    </g>
    <g id="ytick_2">
     <g id="line2d_8">
      <g>
       <use xlink:href="#m722041708b" x="84.71" y="527.227545" style="stroke: #000000; stroke-width: 0.8"/>
      </g>
     </g>
     <g id="text_9">
      <!-- 0.2 -->
      <g transform="translate(45.90375 534.825982) scale(0.2 -0.2)">
       <use xlink:href="#DejaVuSans-30"/>
       <use xlink:href="#DejaVuSans-2e" x="63.623047"/>
       <use xlink:href="#DejaVuSans-32" x="95.410156"/>
      </g>
     </g>
    </g>
    <g id="ytick_3">
     <g id="line2d_9">
      <g>
       <use xlink:href="#m722041708b" x="84.71" y="407.37509" style="stroke: #000000; stroke-width: 0.8"/>
      </g>
     </g>
     <g id="text_10">
      <!-- 0.4 -->
      <g transform="translate(45.90375 414.973527) scale(0.2 -0.2)">
       <use xlink:href="#DejaVuSans-30"/>
       <use xlink:href="#DejaVuSans-2e" x="63.623047"/>
       <use xlink:href="#DejaVuSans-34" x="95.410156"/>
      </g>
     </g>
    </g>
    <g id="ytick_4">
     <g id="line2d_10">
      <g>
       <use xlink:href="#m722041708b" x="84.71" y="287.522635" style="stroke: #000000; stroke-width: 0.8"/>
      </g>
     </g>
     <g id="text_11">
      <!-- 0.6 -->
      <g transform="translate(45.90375 295.121072) scale(0.2 -0.2)">
       <use xlink:href="#DejaVuSans-30"/>
       <use xlink:href="#DejaVuSans-2e" x="63.623047"/>
       <use xlink:href="#DejaVuSans-36" x="95.410156"/>
      </g>
     </g>
    </g>
    <g id="ytick_5">
     <g id="line2d_11">
      <g>
       <use xlink:href="#m722041708b" x="84.71" y="167.67018" style="stroke: #000000; stroke-width: 0.8"/>
      </g>
     </g>
     <g id="text_12">
      <!-- 0.8 -->
      <g transform="translate(45.90375 175.268617) scale(0.2 -0.2)">
       <use xlink:href="#DejaVuSans-30"/>
       <use xlink:href="#DejaVuSans-2e" x="63.623047"/>
       <use xlink:href="#DejaVuSans-38" x="95.410156"/>
      </g>
     </g>
    </g>
    <g id="ytick_6">
     <g id="line2d_12">
      <g>
       <use xlink:href="#m722041708b" x="84.71" y="47.817725" style="stroke: #000000; stroke-width: 0.8"/>
      </g>
     </g>
     <g id="text_13">
      <!-- 1.0 -->
      <g transform="translate(45.90375 55.416162) scale(0.2 -0.2)">
       <use xlink:href="#DejaVuSans-31"/>
       <use xlink:href="#DejaVuSans-2e" x="63.623047"/>
       <use xlink:href="#DejaVuSans-30" x="95.410156"/>
      </g>
     </g>
    </g>
    <g id="text_14">
     <!-- $\rho$ -->
     <g transform="translate(37.70375 340.74) rotate(-90) scale(0.2 -0.2)">
      <defs>
       <path id="DejaVuSans-Oblique-3c1" d="M 1203 2875 
Q 1453 3194 1981 3475 
Q 2188 3584 2756 3584 
Q 3394 3584 3694 3078 
Q 3994 2572 3834 1747 
Q 3672 922 3175 415 
Q 2678 -91 2041 -91 
Q 1656 -91 1409 63 
Q 1163 213 1044 525 
L 681 -1331 
L 103 -1331 
L 697 1716 
Q 838 2438 1203 2875 
z
M 3238 1747 
Q 3359 2381 3169 2744 
Q 2978 3103 2522 3103 
Q 2066 3103 1734 2744 
Q 1403 2381 1281 1747 
Q 1156 1113 1347 750 
Q 1538 391 1994 391 
Q 2450 391 2781 750 
Q 3113 1113 3238 1747 
z
" transform="scale(0.015625)"/>
      </defs>
      <use xlink:href="#DejaVuSans-Oblique-3c1"/>
     </g>
    </g>
   </g>
   <g id="line2d_13">
    <path d="M -1 47.817725 
L 232.154595 47.817725 
L 236.800445 60.04552 
L 261.496803 126.694816 
L 269.076874 146.089416 
L 274.823056 160.466271 
L 289.127382 195.055161 
L 293.650973 205.64207 
L 300.619747 221.626062 
L 311.378557 245.537855 
L 324.70481 273.891803 
L 330.450992 285.693976 
L 335.585878 296.027735 
L 346.10017 316.568849 
L 358.20383 339.20406 
L 361.871606 345.853215 
L 370.674269 359.620443 
L 488.776656 359.620443 
L 498.312874 509.366084 
L 601.988675 509.366084 
L 617.148816 572.172216 
L 689.770781 572.172216 
L 689.770781 572.172216 
" clip-path="url(#pf6fb5ee1e4)" style="fill: none; stroke: #1f77b4; stroke-width: 1.5; stroke-linecap: square"/>
   </g>
   <g id="line2d_14">
    <path d="M -1 63.663338 
L 13.921923 60.498714 
L 15.87807 59.914433 
L 20.768438 56.922916 
L 27.859472 56.08275 
L 29.082064 56.614295 
L 29.69336 53.725252 
L 45.587056 52.749653 
L 48.643536 52.079079 
L 50.355165 53.073854 
L 51.944534 52.068891 
L 58.913309 51.247303 
L 67.715971 51.113667 
L 68.205008 50.186608 
L 70.527933 50.383166 
L 74.562486 49.906753 
L 91.678774 49.81986 
L 94.735254 50.284887 
L 101.337251 50.328633 
L 102.682102 50.564144 
L 107.939248 50.631261 
L 112.707357 50.424515 
L 113.563171 50.929094 
L 114.908022 50.289082 
L 115.641578 51.197564 
L 116.497392 51.950836 
L 119.79839 52.076082 
L 132.268829 53.063067 
L 135.20305 55.032842 
L 154.764522 56.385377 
L 161.855555 60.252417 
L 165.401072 61.102171 
L 167.357219 60.384854 
L 168.946589 66.241444 
L 169.068848 65.639185 
L 175.670845 68.601938 
L 179.338621 70.459651 
L 179.705398 70.226538 
L 189.975171 75.753534 
L 199.511389 78.990749 
L 204.401757 78.06369 
L 218.950602 87.526041 
L 224.452266 96.035566 
L 226.408413 100.365236 
L 226.530672 97.467803 
L 227.631005 100.675654 
L 228.120042 100.503066 
L 232.154595 114.776295 
L 236.800445 113.10675 
L 261.496803 130.838921 
L 266.50943 139.648076 
L 269.076874 151.708829 
L 274.823056 159.637668 
L 284.237014 168.210115 
L 284.726051 169.69269 
L 289.127382 188.265026 
L 293.650973 180.307423 
L 300.619747 193.872923 
L 311.378557 208.786164 
L 320.792515 212.701743 
L 322.870922 216.547209 
L 324.70481 241.445358 
L 326.416438 246.138781 
L 330.450992 242.815272 
L 335.585878 252.38549 
L 346.10017 265.581845 
L 354.536054 283.945039 
L 357.837053 290.02815 
L 358.20383 290.131823 
L 361.871606 287.569976 
L 370.674269 314.899333 
L 374.464304 319.071996 
L 387.668298 335.193949 
L 398.549366 340.710158 
L 402.950698 354.961214 
L 407.474288 361.645985 
L 410.653027 368.056293 
L 415.298877 376.92178 
L 420.9228 372.592709 
L 422.023133 369.273994 
L 426.057686 373.535948 
L 426.668982 388.216675 
L 429.236426 384.075173 
L 431.314832 390.196038 
L 450.265008 395.326323 
L 451.120822 399.044745 
L 451.4876 394.903843 
L 460.65704 403.595543 
L 464.813853 417.808246 
L 467.381296 417.900532 
L 467.503555 414.976133 
L 484.497584 441.528245 
L 485.353398 443.427308 
L 488.776656 444.563509 
L 498.312874 462.273507 
L 503.814538 474.822059 
L 506.259722 473.856647 
L 528.021859 490.414863 
L 538.780669 495.645824 
L 547.216554 500.118717 
L 548.194627 503.239675 
L 556.141475 507.388967 
L 556.99729 508.558128 
L 572.890986 514.483034 
L 582.060426 514.306252 
L 589.395978 517.058663 
L 593.430531 521.59388 
L 601.988675 526.352023 
L 617.148816 534.143032 
L 633.653808 535.526129 
L 634.998659 538.721995 
L 635.243178 537.135747 
L 638.299658 539.423731 
L 638.910954 542.509332 
L 642.334211 550.119963 
L 645.390691 546.19899 
L 661.528906 552.608699 
L 670.820605 560.091687 
L 676.322269 561.244668 
L 685.24719 565.034403 
L 687.692374 562.925599 
L 688.059152 563.358865 
L 689.770781 564.079179 
L 689.770781 564.079179 
" clip-path="url(#pf6fb5ee1e4)" style="fill: none; stroke: #ff7f0e; stroke-width: 1.5; stroke-linecap: square"/>
   </g>
   <g id="line2d_15">
    <path d="M -1 73.837466 
L 13.921923 70.098895 
L 15.87807 68.770331 
L 20.768438 65.605027 
L 27.859472 64.023574 
L 29.082064 64.366352 
L 29.69336 61.168689 
L 45.587056 59.73765 
L 48.643536 58.702725 
L 50.355165 60.03848 
L 51.944534 58.842952 
L 58.913309 57.573115 
L 67.715971 57.272885 
L 68.205008 56.35062 
L 70.527933 56.167246 
L 74.562486 55.717799 
L 91.678774 55.364834 
L 94.735254 56.25354 
L 101.337251 56.137882 
L 102.682102 56.351819 
L 107.939248 56.637667 
L 112.707357 56.681413 
L 113.563171 57.452663 
L 114.908022 56.295488 
L 116.497392 58.780629 
L 118.942576 58.600251 
L 119.79839 58.729092 
L 132.268829 60.345902 
L 135.20305 62.479275 
L 154.764522 64.982394 
L 161.855555 69.498434 
L 165.401072 70.234328 
L 167.357219 69.387571 
L 168.946589 75.239367 
L 169.068848 74.704226 
L 175.670845 77.764658 
L 179.338621 79.811139 
L 179.705398 79.260417 
L 189.975171 84.236092 
L 199.511389 88.345832 
L 204.401757 88.186428 
L 218.950602 97.319785 
L 224.452266 103.92785 
L 226.408413 109.166001 
L 226.530672 106.18587 
L 227.631005 110.128417 
L 228.120042 109.894704 
L 232.154595 118.954351 
L 236.800445 118.026094 
L 261.496803 134.041379 
L 266.50943 141.889317 
L 269.076874 149.81516 
L 274.823056 156.2812 
L 284.237014 163.960746 
L 284.726051 166.125281 
L 289.127382 179.119685 
L 293.650973 174.764846 
L 300.619747 183.636924 
L 311.378557 199.841575 
L 320.792515 204.785489 
L 322.870922 206.874517 
L 324.70481 222.878415 
L 326.416438 231.165014 
L 330.450992 228.746391 
L 335.585878 236.853811 
L 346.10017 249.708586 
L 354.536054 271.55649 
L 357.837053 278.588833 
L 358.20383 272.27141 
L 361.871606 268.390587 
L 370.674269 297.232481 
L 374.464304 307.03821 
L 398.549366 332.572176 
L 402.950698 345.73677 
L 407.474288 363.53486 
L 410.653027 373.770858 
L 415.298877 379.848576 
L 420.9228 370.306523 
L 422.023133 364.278544 
L 426.057686 368.271429 
L 426.668982 376.755784 
L 429.236426 380.09787 
L 431.314832 384.746946 
L 450.265008 401.281192 
L 451.120822 394.541289 
L 451.4876 400.554287 
L 460.65704 408.25241 
L 464.813853 424.265297 
L 467.381296 420.468971 
L 467.503555 418.507585 
L 484.497584 441.588771 
L 485.353398 435.191047 
L 488.776656 443.77428 
L 498.312874 457.641209 
L 503.814538 469.87455 
L 506.259722 465.205098 
L 528.021859 481.129294 
L 538.780669 491.938787 
L 547.216554 497.408853 
L 548.194627 496.232501 
L 556.141475 503.222896 
L 556.99729 507.664029 
L 572.890986 513.108326 
L 582.060426 514.584909 
L 589.395978 517.351103 
L 593.430531 521.734108 
L 617.148816 530.909412 
L 633.653808 529.902052 
L 634.998659 531.22822 
L 635.243178 530.354495 
L 638.299658 531.689652 
L 638.910954 533.308858 
L 642.334211 538.639896 
L 645.390691 534.747088 
L 661.528906 536.346519 
L 670.820605 541.440848 
L 676.322269 544.188465 
L 685.24719 542.944996 
L 687.692374 541.069904 
L 688.059152 539.958273 
L 689.770781 542.618997 
L 689.770781 542.618997 
" clip-path="url(#pf6fb5ee1e4)" style="fill: none; stroke: #2ca02c; stroke-width: 1.5; stroke-linecap: square"/>
   </g>
   <g id="line2d_16">
    <path d="M -1 71.993478 
L 13.921923 68.273542 
L 15.87807 67.466935 
L 20.768438 63.880351 
L 27.859472 62.510437 
L 29.082064 62.866998 
L 29.69336 59.369104 
L 45.587056 57.855967 
L 48.643536 56.450098 
L 50.355165 58.180767 
L 51.944534 56.812052 
L 58.913309 55.362437 
L 67.715971 55.235992 
L 68.205008 53.748024 
L 70.527933 54.779354 
L 74.562486 53.552665 
L 91.678774 53.716263 
L 94.735254 54.205261 
L 101.337251 53.611991 
L 102.682102 54.172901 
L 107.939248 54.429984 
L 112.707357 54.44197 
L 113.563171 55.128724 
L 114.908022 54.033872 
L 115.641578 55.094566 
L 116.497392 56.73235 
L 119.79839 56.409947 
L 132.268829 58.237697 
L 135.20305 60.636544 
L 154.764522 63.350603 
L 161.855555 68.215414 
L 165.401072 68.687033 
L 167.357219 67.525663 
L 168.946589 74.40819 
L 169.068848 73.356485 
L 175.670845 76.922695 
L 179.338621 78.549692 
L 179.705398 78.515534 
L 189.975171 85.454991 
L 199.511389 88.074366 
L 204.401757 86.97472 
L 218.950602 96.580894 
L 224.452266 103.926052 
L 226.408413 109.074314 
L 226.530672 105.850883 
L 227.631005 109.737698 
L 228.120042 109.713727 
L 232.154595 121.477246 
L 236.800445 120.420746 
L 261.496803 138.036061 
L 266.50943 147.555342 
L 269.076874 155.550699 
L 274.823056 165.547593 
L 284.237014 174.390307 
L 284.726051 175.41924 
L 289.127382 193.172385 
L 293.650973 184.039029 
L 300.619747 194.485968 
L 311.378557 210.330463 
L 320.792515 215.70165 
L 322.870922 222.413987 
L 324.70481 239.388091 
L 326.416438 252.404667 
L 330.450992 243.723154 
L 335.585878 252.164363 
L 346.10017 270.182382 
L 354.536054 288.18482 
L 357.837053 292.084818 
L 358.20383 290.809588 
L 361.871606 284.873296 
L 370.674269 305.659307 
L 374.464304 321.485225 
L 387.668298 329.390094 
L 398.549366 339.586541 
L 402.950698 344.327904 
L 407.474288 359.697184 
L 410.653027 364.770538 
L 415.298877 376.870842 
L 420.9228 369.727037 
L 422.023133 361.475195 
L 426.057686 367.161595 
L 426.668982 378.735147 
L 429.236426 380.787021 
L 431.314832 382.224651 
L 450.265008 392.406717 
L 451.120822 397.450108 
L 451.4876 388.031503 
L 460.65704 397.572957 
L 464.813853 415.69285 
L 467.503555 409.041638 
L 484.497584 435.420564 
L 485.353398 437.664202 
L 488.776656 441.483301 
L 498.312874 461.646079 
L 503.814538 469.689977 
L 506.259722 471.01135 
L 528.021859 487.374207 
L 538.780669 492.46434 
L 547.216554 497.434022 
L 548.194627 500.203813 
L 556.141475 504.622773 
L 556.99729 505.470129 
L 572.890986 511.374661 
L 582.060426 510.954578 
L 589.395978 513.589534 
L 593.430531 517.611183 
L 601.988675 521.696953 
L 617.148816 527.838792 
L 633.653808 528.933045 
L 634.998659 531.6507 
L 635.243178 529.688116 
L 638.299658 531.497888 
L 638.910954 533.972242 
L 642.334211 541.038743 
L 645.390691 536.562253 
L 661.528906 541.253878 
L 670.820605 549.20429 
L 676.322269 552.07236 
L 685.24719 553.602875 
L 687.692374 552.941889 
L 688.059152 564.160678 
L 689.770781 556.862862 
L 689.770781 556.862862 
" clip-path="url(#pf6fb5ee1e4)" style="fill: none; stroke: #d62728; stroke-width: 1.5; stroke-linecap: square"/>
   </g>
   <g id="line2d_17">
    <path d="M -1 68.598052 
L 13.921923 65.00157 
L 15.87807 64.174588 
L 20.768438 61.193259 
L 27.859472 60.051065 
L 29.082064 60.39624 
L 29.69336 57.347193 
L 45.587056 56.022824 
L 48.643536 55.094566 
L 50.355165 56.31047 
L 51.944534 55.277941 
L 58.913309 54.041063 
L 67.715971 53.967953 
L 68.205008 52.968983 
L 70.527933 52.848531 
L 74.562486 52.350544 
L 91.678774 52.103648 
L 94.735254 52.708903 
L 101.337251 52.721488 
L 102.682102 52.943814 
L 107.939248 53.130784 
L 112.707357 52.939619 
L 113.563171 53.711469 
L 114.908022 52.951604 
L 116.497392 55.149099 
L 118.942576 54.980707 
L 119.79839 55.110147 
L 132.268829 56.580138 
L 135.20305 58.700927 
L 154.764522 60.730628 
L 161.855555 64.865538 
L 165.401072 65.622406 
L 167.357219 64.910482 
L 168.946589 70.966028 
L 169.068848 70.469239 
L 175.670845 73.278581 
L 179.338621 75.420943 
L 179.705398 75.005655 
L 189.975171 79.901028 
L 199.511389 83.684171 
L 204.401757 83.817806 
L 218.950602 92.775579 
L 224.452266 100.180663 
L 226.408413 105.297164 
L 226.530672 102.368569 
L 227.631005 106.165495 
L 228.120042 106.223024 
L 232.154595 117.997929 
L 236.800445 116.613034 
L 261.496803 132.489888 
L 266.50943 140.987428 
L 269.076874 150.622966 
L 274.823056 157.331707 
L 284.237014 165.878985 
L 289.127382 185.368192 
L 293.650973 175.329351 
L 300.619747 187.642992 
L 311.378557 200.621814 
L 320.792515 205.696367 
L 322.870922 211.893938 
L 324.70481 225.388725 
L 326.416438 239.20172 
L 330.450992 235.443147 
L 335.585878 241.579593 
L 346.10017 258.144401 
L 357.837053 284.484375 
L 358.20383 281.508439 
L 361.871606 272.924606 
L 370.674269 300.027441 
L 374.464304 310.334153 
L 387.668298 322.156998 
L 398.549366 333.807256 
L 402.950698 344.505286 
L 410.653027 371.764528 
L 415.298877 376.24701 
L 420.9228 372.347611 
L 422.023133 367.699732 
L 426.057686 374.218507 
L 426.668982 378.093937 
L 429.236426 385.395947 
L 431.314832 384.407165 
L 450.265008 400.602827 
L 451.120822 394.919423 
L 451.4876 395.01171 
L 460.65704 402.091994 
L 464.813853 421.252206 
L 467.381296 416.763732 
L 467.503555 412.513764 
L 484.497584 437.022992 
L 485.353398 437.167414 
L 488.776656 444.977599 
L 498.312874 461.872001 
L 503.814538 470.574488 
L 506.259722 467.443942 
L 528.021859 486.169689 
L 538.780669 492.683071 
L 547.216554 499.187464 
L 548.194627 500.176247 
L 556.141475 505.564813 
L 556.99729 508.307037 
L 572.890986 515.037951 
L 582.060426 515.797816 
L 589.395978 518.827086 
L 593.430531 523.493542 
L 601.988675 526.97945 
L 617.148816 533.577927 
L 633.653808 534.107675 
L 634.998659 535.968384 
L 635.243178 535.234288 
L 638.299658 537.087806 
L 638.910954 539.330845 
L 642.334211 545.521224 
L 645.390691 541.7231 
L 661.528906 545.353431 
L 670.820605 552.208991 
L 676.322269 554.046929 
L 685.24719 556.406824 
L 688.059152 553.800033 
L 689.770781 554.664768 
L 689.770781 554.664768 
" clip-path="url(#pf6fb5ee1e4)" style="fill: none; stroke: #9467bd; stroke-width: 1.5; stroke-linecap: square"/>
   </g>
   <g id="patch_3">
    <path d="M 84.71 647.08 
L 84.71 21.6 
" style="fill: none; stroke: #000000; stroke-width: 0.8; stroke-linejoin: miter; stroke-linecap: square"/>
   </g>
   <g id="patch_4">
    <path d="M 696.006 647.08 
L 696.006 21.6 
" style="fill: none; stroke: #000000; stroke-width: 0.8; stroke-linejoin: miter; stroke-linecap: square"/>
   </g>
   <g id="patch_5">
    <path d="M 84.71 647.08 
L 696.006 647.08 
" style="fill: none; stroke: #000000; stroke-width: 0.8; stroke-linejoin: miter; stroke-linecap: square"/>
   </g>
   <g id="patch_6">
    <path d="M 84.71 21.6 
L 696.006 21.6 
" style="fill: none; stroke: #000000; stroke-width: 0.8; stroke-linejoin: miter; stroke-linecap: square"/>
   </g>
  </g>
  <g id="axes_2">
   <g id="patch_7">
    <path d="M 797.942 647.08 
L 1409.238 647.08 
L 1409.238 21.6 
L 797.942 21.6 
z
" style="fill: #ffffff"/>
   </g>
   <g id="matplotlib.axis_3">
    <g id="xtick_7">
     <g id="line2d_18">
      <g>
       <use xlink:href="#m7c84b32ce5" x="797.942" y="647.08" style="stroke: #000000; stroke-width: 0.8"/>
      </g>
     </g>
     <g id="text_15">
      <!-- 1.0 -->
      <g transform="translate(782.038875 669.276875) scale(0.2 -0.2)">
       <use xlink:href="#DejaVuSans-31"/>
       <use xlink:href="#DejaVuSans-2e" x="63.623047"/>
       <use xlink:href="#DejaVuSans-30" x="95.410156"/>
      </g>
     </g>
    </g>
    <g id="xtick_8">
     <g id="line2d_19">
      <g>
       <use xlink:href="#m7c84b32ce5" x="920.2012" y="647.08" style="stroke: #000000; stroke-width: 0.8"/>
      </g>
     </g>
     <g id="text_16">
      <!-- 1.2 -->
      <g transform="translate(904.298075 669.276875) scale(0.2 -0.2)">
       <use xlink:href="#DejaVuSans-31"/>
       <use xlink:href="#DejaVuSans-2e" x="63.623047"/>
       <use xlink:href="#DejaVuSans-32" x="95.410156"/>
      </g>
     </g>
    </g>
    <g id="xtick_9">
     <g id="line2d_20">
      <g>
       <use xlink:href="#m7c84b32ce5" x="1042.4604" y="647.08" style="stroke: #000000; stroke-width: 0.8"/>
      </g>
     </g>
     <g id="text_17">
      <!-- 1.4 -->
      <g transform="translate(1026.557275 669.276875) scale(0.2 -0.2)">
       <use xlink:href="#DejaVuSans-31"/>
       <use xlink:href="#DejaVuSans-2e" x="63.623047"/>
       <use xlink:href="#DejaVuSans-34" x="95.410156"/>
      </g>
     </g>
    </g>
    <g id="xtick_10">
     <g id="line2d_21">
      <g>
       <use xlink:href="#m7c84b32ce5" x="1164.7196" y="647.08" style="stroke: #000000; stroke-width: 0.8"/>
      </g>
     </g>
     <g id="text_18">
      <!-- 1.6 -->
      <g transform="translate(1148.816475 669.276875) scale(0.2 -0.2)">
       <use xlink:href="#DejaVuSans-31"/>
       <use xlink:href="#DejaVuSans-2e" x="63.623047"/>
       <use xlink:href="#DejaVuSans-36" x="95.410156"/>
      </g>
     </g>
    </g>
    <g id="xtick_11">
     <g id="line2d_22">
      <g>
       <use xlink:href="#m7c84b32ce5" x="1286.9788" y="647.08" style="stroke: #000000; stroke-width: 0.8"/>
      </g>
     </g>
     <g id="text_19">
      <!-- 1.8 -->
      <g transform="translate(1271.075675 669.276875) scale(0.2 -0.2)">
       <use xlink:href="#DejaVuSans-31"/>
       <use xlink:href="#DejaVuSans-2e" x="63.623047"/>
       <use xlink:href="#DejaVuSans-38" x="95.410156"/>
      </g>
     </g>
    </g>
    <g id="xtick_12">
     <g id="line2d_23">
      <g>
       <use xlink:href="#m7c84b32ce5" x="1409.238" y="647.08" style="stroke: #000000; stroke-width: 0.8"/>
      </g>
     </g>
     <g id="text_20">
      <!-- 2.0 -->
      <g transform="translate(1393.334875 669.276875) scale(0.2 -0.2)">
       <use xlink:href="#DejaVuSans-32"/>
       <use xlink:href="#DejaVuSans-2e" x="63.623047"/>
       <use xlink:href="#DejaVuSans-30" x="95.410156"/>
      </g>
     </g>
    </g>
    <g id="text_21">
     <!-- Position $x$ -->
     <g transform="translate(1055.19 692.633125) scale(0.2 -0.2)">
      <use xlink:href="#DejaVuSans-50" transform="translate(0 0.015625)"/>
      <use xlink:href="#DejaVuSans-6f" transform="translate(60.302734 0.015625)"/>
      <use xlink:href="#DejaVuSans-73" transform="translate(121.484375 0.015625)"/>
      <use xlink:href="#DejaVuSans-69" transform="translate(173.583984 0.015625)"/>
      <use xlink:href="#DejaVuSans-74" transform="translate(201.367188 0.015625)"/>
      <use xlink:href="#DejaVuSans-69" transform="translate(240.576172 0.015625)"/>
      <use xlink:href="#DejaVuSans-6f" transform="translate(268.359375 0.015625)"/>
      <use xlink:href="#DejaVuSans-6e" transform="translate(329.541016 0.015625)"/>
      <use xlink:href="#DejaVuSans-20" transform="translate(392.919922 0.015625)"/>
      <use xlink:href="#DejaVuSans-Oblique-78" transform="translate(424.707031 0.015625)"/>
     </g>
    </g>
   </g>
   <g id="matplotlib.axis_4">
    <g id="ytick_7">
     <g id="line2d_24">
      <g>
       <use xlink:href="#m722041708b" x="797.942" y="647.08" style="stroke: #000000; stroke-width: 0.8"/>
      </g>
     </g>
     <g id="text_22">
      <!-- 0.0 -->
      <g transform="translate(759.13575 654.678437) scale(0.2 -0.2)">
       <use xlink:href="#DejaVuSans-30"/>
       <use xlink:href="#DejaVuSans-2e" x="63.623047"/>
       <use xlink:href="#DejaVuSans-30" x="95.410156"/>
      </g>
     </g>
    </g>
    <g id="ytick_8">
     <g id="line2d_25">
      <g>
       <use xlink:href="#m722041708b" x="797.942" y="515.656711" style="stroke: #000000; stroke-width: 0.8"/>
      </g>
     </g>
     <g id="text_23">
      <!-- 0.2 -->
      <g transform="translate(759.13575 523.255149) scale(0.2 -0.2)">
       <use xlink:href="#DejaVuSans-30"/>
       <use xlink:href="#DejaVuSans-2e" x="63.623047"/>
       <use xlink:href="#DejaVuSans-32" x="95.410156"/>
      </g>
     </g>
    </g>
    <g id="ytick_9">
     <g id="line2d_26">
      <g>
       <use xlink:href="#m722041708b" x="797.942" y="384.233422" style="stroke: #000000; stroke-width: 0.8"/>
      </g>
     </g>
     <g id="text_24">
      <!-- 0.4 -->
      <g transform="translate(759.13575 391.83186) scale(0.2 -0.2)">
       <use xlink:href="#DejaVuSans-30"/>
       <use xlink:href="#DejaVuSans-2e" x="63.623047"/>
       <use xlink:href="#DejaVuSans-34" x="95.410156"/>
      </g>
     </g>
    </g>
    <g id="ytick_10">
     <g id="line2d_27">
      <g>
       <use xlink:href="#m722041708b" x="797.942" y="252.810134" style="stroke: #000000; stroke-width: 0.8"/>
      </g>
     </g>
     <g id="text_25">
      <!-- 0.6 -->
      <g transform="translate(759.13575 260.408571) scale(0.2 -0.2)">
       <use xlink:href="#DejaVuSans-30"/>
       <use xlink:href="#DejaVuSans-2e" x="63.623047"/>
       <use xlink:href="#DejaVuSans-36" x="95.410156"/>
      </g>
     </g>
    </g>
    <g id="ytick_11">
     <g id="line2d_28">
      <g>
       <use xlink:href="#m722041708b" x="797.942" y="121.386845" style="stroke: #000000; stroke-width: 0.8"/>
      </g>
     </g>
     <g id="text_26">
      <!-- 0.8 -->
      <g transform="translate(759.13575 128.985282) scale(0.2 -0.2)">
       <use xlink:href="#DejaVuSans-30"/>
       <use xlink:href="#DejaVuSans-2e" x="63.623047"/>
       <use xlink:href="#DejaVuSans-38" x="95.410156"/>
      </g>
     </g>
    </g>
    <g id="text_27">
     <!-- $U_x$ -->
     <g transform="translate(750.976375 346.14) rotate(-90) scale(0.2 -0.2)">
      <defs>
       <path id="DejaVuSans-Oblique-55" d="M 991 4666 
L 1625 4666 
L 1075 1831 
Q 1041 1641 1027 1517 
Q 1013 1394 1013 1300 
Q 1013 869 1253 645 
Q 1494 422 1959 422 
Q 2563 422 2898 753 
Q 3234 1084 3378 1831 
L 3928 4666 
L 4563 4666 
L 4000 1753 
Q 3816 809 3300 359 
Q 2784 -91 1888 -91 
Q 1188 -91 780 261 
Q 372 613 372 1216 
Q 372 1325 387 1461 
Q 403 1597 434 1753 
L 991 4666 
z
" transform="scale(0.015625)"/>
      </defs>
      <use xlink:href="#DejaVuSans-Oblique-55" transform="translate(0 0.09375)"/>
      <use xlink:href="#DejaVuSans-Oblique-78" transform="translate(73.193359 -16.3125) scale(0.7)"/>
     </g>
    </g>
   </g>
   <g id="line2d_29">
    <path d="M 188.846666 647.08 
L 945.386595 647.08 
L 950.032445 629.650877 
L 1075.103606 125.626972 
L 1083.906269 94.31703 
L 1315.220675 94.31703 
L 1330.380816 647.08 
L 1403.002781 647.08 
L 1403.002781 647.08 
" clip-path="url(#p2eabd06c1e)" style="fill: none; stroke: #1f77b4; stroke-width: 1.5; stroke-linecap: square"/>
   </g>
   <g id="line2d_30">
    <path d="M 188.846666 646.896191 
L 195.081885 682.07881 
L 196.793514 701.134333 
L 197.771587 667.719173 
L 201.806141 708.212266 
L 201.806141 717.314577 
L 203.031466 721 
M 655.249792 721 
L 658.566512 708.354926 
L 660.657613 721 
M 661.901647 721 
L 665.413027 707.82483 
L 671.892765 698.383906 
L 678.73928 696.777717 
L 684.118685 686.267599 
L 685.708054 685.54464 
L 688.764534 687.302426 
L 699.034307 674.939569 
L 699.401085 674.101154 
L 701.72401 671.196962 
L 707.959229 669.01481 
L 727.153923 659.086569 
L 729.11007 661.759259 
L 734.000438 656.801775 
L 741.091472 657.356775 
L 742.314064 658.389763 
L 742.92536 654.551414 
L 758.819056 652.863571 
L 761.875536 651.719222 
L 763.587165 653.512579 
L 765.176534 650.844029 
L 772.145309 650.699713 
L 780.947971 650.198491 
L 781.437008 648.401961 
L 783.759933 649.351034 
L 787.794486 647.496653 
L 804.910774 647.324952 
L 807.967254 645.727306 
L 814.569251 645.822036 
L 815.914102 644.996783 
L 821.171248 644.33855 
L 825.939357 645.732451 
L 826.795171 643.847881 
L 828.140022 645.419335 
L 828.873578 643.467982 
L 829.729392 642.938083 
L 832.174576 641.656187 
L 833.03039 642.025874 
L 845.500829 640.621183 
L 848.43505 637.715565 
L 867.996522 636.60609 
L 875.087555 631.353298 
L 878.633072 629.471448 
L 880.589219 629.952588 
L 882.178589 622.31959 
L 882.300848 623.796064 
L 888.902845 621.112072 
L 892.570621 622.891215 
L 892.937398 618.627581 
L 903.207171 606.073568 
L 912.743389 609.534141 
L 917.633757 608.034404 
L 932.182602 594.833657 
L 937.684266 588.555961 
L 939.640413 574.79062 
L 939.762672 575.54039 
L 940.863005 598.724049 
L 941.352042 584.014826 
L 945.386595 557.764076 
L 950.032445 558.756979 
L 974.728803 527.802194 
L 979.74143 523.241806 
L 982.308874 496.17518 
L 988.055056 494.559988 
L 997.469014 479.149293 
L 997.958051 468.262188 
L 1002.359382 444.274152 
L 1006.882973 460.600867 
L 1013.851747 439.442375 
L 1024.610557 411.110799 
L 1034.024515 404.180192 
L 1036.102922 387.032738 
L 1037.93681 363.67882 
L 1039.648438 338.610485 
L 1043.682992 370.169816 
L 1048.817878 338.82799 
L 1059.33217 301.2797 
L 1071.069053 252.419806 
L 1071.43583 285.721811 
L 1075.103606 274.712482 
L 1083.906269 234.40693 
L 1087.696304 207.588037 
L 1100.900298 188.918045 
L 1111.781366 142.891637 
L 1116.182698 112.435605 
L 1120.706288 122.437574 
L 1123.885027 120.364372 
L 1128.530877 105.644963 
L 1134.1548 112.653767 
L 1135.255133 99.510781 
L 1139.289686 95.022019 
L 1139.900982 79.734862 
L 1142.468426 107.975098 
L 1144.546832 89.280792 
L 1163.497008 117.42049 
L 1164.352822 98.963403 
L 1164.7196 110.658762 
L 1173.88904 114.760483 
L 1178.045853 122.973124 
L 1180.613296 105.154754 
L 1180.735555 117.446117 
L 1197.729584 119.011369 
L 1198.585398 84.614609 
L 1202.008656 118.030294 
L 1211.544874 115.980748 
L 1217.046538 125.186949 
L 1219.491722 103.390397 
L 1241.253859 95.391975 
L 1252.012669 122.202983 
L 1260.448554 121.468327 
L 1261.426627 97.263443 
L 1269.373475 117.350836 
L 1270.22929 127.093901 
L 1286.122986 145.025952 
L 1295.292426 143.803715 
L 1302.627978 162.242403 
L 1306.662531 189.898462 
L 1315.220675 214.240684 
L 1330.380816 276.866509 
L 1346.885808 320.872283 
L 1348.230659 351.200836 
L 1348.475178 349.199259 
L 1351.531658 363.007904 
L 1352.142954 377.511778 
L 1355.566211 441.522805 
L 1358.622691 414.132221 
L 1374.760906 489.211717 
L 1384.052605 560.89655 
L 1389.554269 551.237595 
L 1398.47919 637.913751 
L 1400.924374 604.751713 
L 1401.291152 628.641247 
L 1403.002781 630.656952 
L 1403.002781 630.656952 
" clip-path="url(#p2eabd06c1e)" style="fill: none; stroke: #ff7f0e; stroke-width: 1.5; stroke-linecap: square"/>
   </g>
   <g id="line2d_31">
    <path d="M 188.846666 645.804793 
L 195.081885 702.671328 
L 195.951591 721 
M 197.172792 721 
L 197.771587 692.9876 
L 199.801405 721 
M 658.004704 721 
L 658.566512 719.315496 
L 658.892236 721 
M 664.728547 721 
L 665.413027 718.792432 
L 671.892765 707.541087 
L 678.73928 707.810636 
L 684.118685 698.037803 
L 688.764534 698.554691 
L 699.034307 686.183817 
L 699.401085 686.863275 
L 701.72401 682.788496 
L 707.959229 681.5497 
L 727.153923 667.588341 
L 729.11007 671.027097 
L 734.000438 664.726336 
L 741.091472 665.525981 
L 742.314064 666.654645 
L 742.92536 662.291391 
L 758.819056 658.404942 
L 761.875536 656.924064 
L 763.587165 659.633093 
L 765.176534 655.232384 
L 772.145309 655.145579 
L 780.947971 653.317901 
L 781.437008 651.539757 
L 783.759933 652.230157 
L 787.794486 648.593773 
L 804.910774 647.353845 
L 807.967254 644.056607 
L 814.569251 644.249359 
L 815.914102 642.751528 
L 821.171248 641.049485 
L 825.939357 642.861345 
L 826.795171 639.071065 
L 828.140022 642.88558 
L 828.873578 639.083813 
L 829.729392 639.042677 
L 832.174576 636.625737 
L 833.03039 636.518825 
L 845.500829 633.92512 
L 848.43505 630.548987 
L 867.996522 627.532954 
L 875.087555 623.083225 
L 878.633072 618.058649 
L 880.589219 618.811639 
L 882.300848 612.378798 
L 888.902845 609.446941 
L 892.570621 613.035126 
L 892.937398 607.972635 
L 903.207171 594.282796 
L 912.743389 601.09164 
L 917.633757 594.948258 
L 937.684266 577.48414 
L 939.640413 566.021401 
L 939.762672 563.473761 
L 940.863005 584.618651 
L 941.352042 569.367438 
L 945.386595 551.232338 
L 950.032445 553.730038 
L 974.728803 523.232607 
L 979.74143 519.086859 
L 982.308874 493.797733 
L 988.055056 501.622675 
L 997.469014 476.66605 
L 997.958051 472.709552 
L 1002.359382 452.559733 
L 1006.882973 455.770404 
L 1013.851747 463.312787 
L 1024.610557 421.597063 
L 1034.024515 404.521893 
L 1036.102922 397.350781 
L 1037.93681 392.574201 
L 1039.648438 355.818393 
L 1043.682992 377.657658 
L 1048.817878 350.055482 
L 1059.33217 333.446207 
L 1067.768054 291.990044 
L 1071.069053 268.446219 
L 1071.43583 324.741385 
L 1075.103606 283.89437 
L 1083.906269 267.260124 
L 1087.696304 215.285499 
L 1100.900298 244.7598 
L 1111.781366 134.080363 
L 1116.182698 113.099949 
L 1120.706288 136.662174 
L 1123.885027 108.22086 
L 1128.530877 122.120844 
L 1134.1548 141.552434 
L 1135.255133 100.240838 
L 1139.289686 86.146347 
L 1139.900982 122.731962 
L 1142.468426 156.238987 
L 1144.546832 122.597253 
L 1163.497008 147.780584 
L 1164.352822 109.809767 
L 1164.7196 141.554406 
L 1173.88904 146.414439 
L 1178.045853 159.41483 
L 1180.613296 127.682677 
L 1180.735555 152.916606 
L 1197.729584 167.360025 
L 1198.585398 88.430484 
L 1202.008656 142.181295 
L 1211.544874 127.657707 
L 1217.046538 179.276175 
L 1219.491722 136.984161 
L 1241.253859 99.400386 
L 1252.012669 175.170511 
L 1260.448554 158.212964 
L 1261.426627 110.601593 
L 1269.373475 134.299183 
L 1270.22929 183.439008 
L 1286.122986 168.052626 
L 1295.292426 185.022658 
L 1302.627978 198.023707 
L 1306.662531 206.58462 
L 1315.220675 233.623648 
L 1330.380816 268.040121 
L 1346.885808 302.890292 
L 1348.230659 316.035906 
L 1348.475178 325.068629 
L 1351.531658 317.506533 
L 1352.142954 331.070074 
L 1355.566211 392.164161 
L 1358.622691 345.650173 
L 1374.760906 414.318185 
L 1384.052605 490.130366 
L 1389.554269 495.953732 
L 1398.47919 619.665825 
L 1400.924374 568.07029 
L 1401.291152 601.859152 
L 1403.002781 619.841669 
L 1403.002781 619.841669 
" clip-path="url(#p2eabd06c1e)" style="fill: none; stroke: #2ca02c; stroke-width: 1.5; stroke-linecap: square"/>
   </g>
   <g id="line2d_32">
    <path d="M 188.846666 656.21543 
L 195.081885 717.809386 
L 195.138573 721 
M 668.073713 721 
L 671.892765 714.808335 
L 678.73928 709.7076 
L 685.708054 698.050223 
L 688.764534 701.377203 
L 699.034307 688.857098 
L 699.401085 685.311758 
L 701.72401 685.78843 
L 707.959229 679.06074 
L 727.153923 678.907106 
L 729.11007 671.406188 
L 734.000438 665.350663 
L 741.091472 664.631712 
L 742.314064 666.13388 
L 742.92536 661.104639 
L 758.819056 657.867355 
L 761.875536 651.276037 
L 763.587165 660.942331 
L 765.176534 655.100763 
L 772.145309 655.265568 
L 780.947971 653.583192 
L 781.437008 651.347163 
L 783.759933 654.99707 
L 787.794486 648.532773 
L 804.910774 648.593904 
L 807.967254 645.251915 
L 814.569251 644.529869 
L 815.914102 642.671629 
L 821.171248 641.563862 
L 825.939357 643.318054 
L 826.795171 639.059171 
L 828.140022 641.301574 
L 828.873578 640.123634 
L 829.729392 634.962904 
L 832.174576 637.433399 
L 833.03039 637.775231 
L 845.500829 634.314199 
L 848.43505 630.653732 
L 867.996522 628.641378 
L 875.087555 621.808353 
L 878.633072 620.206369 
L 880.589219 621.092293 
L 882.178589 608.955221 
L 882.300848 614.828462 
L 888.902845 610.601626 
L 892.570621 613.513046 
L 892.937398 607.884121 
L 903.207171 594.515284 
L 912.743389 599.316966 
L 917.633757 599.323931 
L 932.182602 586.961862 
L 937.684266 567.450629 
L 939.640413 566.022058 
L 939.762672 565.746726 
L 940.863005 588.945171 
L 941.352042 574.54683 
L 945.386595 545.324204 
L 950.032445 549.596118 
L 974.728803 516.993286 
L 979.74143 514.634895 
L 982.308874 488.182673 
L 988.055056 485.69483 
L 997.469014 476.118672 
L 997.958051 462.071494 
L 1002.359382 440.404393 
L 1006.882973 452.677357 
L 1013.851747 434.138131 
L 1024.610557 406.403874 
L 1034.024515 399.648717 
L 1036.102922 379.407559 
L 1037.93681 358.314778 
L 1039.648438 328.343697 
L 1043.682992 365.394551 
L 1048.817878 337.932341 
L 1059.33217 304.22161 
L 1067.768054 268.63284 
L 1071.069053 244.864282 
L 1071.43583 282.22398 
L 1075.103606 272.632708 
L 1083.906269 234.677005 
L 1087.696304 181.498543 
L 1100.900298 219.426647 
L 1111.781366 124.886647 
L 1116.182698 122.570311 
L 1120.706288 142.986919 
L 1123.885027 125.552306 
L 1128.530877 133.723549 
L 1134.1548 129.008081 
L 1135.255133 114.903734 
L 1139.289686 107.975755 
L 1139.900982 107.977069 
L 1142.468426 133.507358 
L 1144.546832 115.348602 
L 1163.497008 141.217305 
L 1164.352822 117.054476 
L 1164.7196 124.544289 
L 1173.88904 129.456892 
L 1178.045853 138.019776 
L 1180.613296 125.270403 
L 1180.735555 132.407345 
L 1197.729584 132.949466 
L 1198.585398 106.509071 
L 1202.008656 129.37081 
L 1211.544874 125.506308 
L 1217.046538 135.028582 
L 1219.491722 119.090223 
L 1241.253859 108.473192 
L 1252.012669 119.751282 
L 1260.448554 114.662572 
L 1261.426627 106.990081 
L 1269.373475 117.648509 
L 1270.22929 116.035288 
L 1286.122986 134.044222 
L 1295.292426 127.706991 
L 1302.627978 143.658492 
L 1306.662531 173.778082 
L 1315.220675 186.71999 
L 1330.380816 231.505104 
L 1346.885808 265.518766 
L 1348.230659 287.233836 
L 1348.475178 287.87321 
L 1351.531658 303.981105 
L 1352.142954 311.907901 
L 1355.566211 362.078741 
L 1358.622691 341.540567 
L 1374.760906 410.272976 
L 1384.052605 490.194763 
L 1389.554269 469.255748 
L 1398.47919 621.895815 
L 1400.924374 547.326438 
L 1401.291152 582.166029 
L 1403.002781 628.090123 
L 1403.002781 628.090123 
" clip-path="url(#p2eabd06c1e)" style="fill: none; stroke: #d62728; stroke-width: 1.5; stroke-linecap: square"/>
   </g>
   <g id="line2d_33">
    <path d="M 188.846666 653.587194 
L 195.081885 699.00015 
L 196.688131 721 
M 196.846894 721 
L 197.771587 695.996799 
L 200.388944 721 
M 656.956174 721 
L 658.566512 715.470708 
L 659.535635 721 
M 663.710891 721 
L 665.413027 714.976557 
L 671.892765 702.703987 
L 678.73928 702.552259 
L 684.118685 693.269109 
L 685.708054 691.548778 
L 688.764534 692.768189 
L 699.034307 681.721668 
L 699.401085 679.899812 
L 701.72401 676.599248 
L 707.959229 674.841461 
L 727.153923 663.01054 
L 729.11007 666.584136 
L 734.000438 661.046813 
L 741.091472 661.427152 
L 742.314064 663.01008 
L 742.92536 658.674951 
L 758.819056 655.539586 
L 761.875536 654.020135 
L 763.587165 656.514681 
L 765.176534 653.09366 
L 772.145309 653.177883 
L 780.947971 651.808347 
L 781.437008 650.514965 
L 783.759933 650.585736 
L 787.794486 648.22492 
L 804.910774 647.218081 
L 807.967254 644.940481 
L 814.569251 645.077332 
L 815.914102 643.68989 
L 821.171248 642.886901 
L 825.939357 644.70116 
L 826.795171 641.849465 
L 828.140022 644.474606 
L 828.873578 641.063659 
L 829.729392 641.138189 
L 832.174576 639.278516 
L 833.03039 639.159513 
L 845.500829 637.056149 
L 848.43505 634.483801 
L 867.996522 631.573103 
L 880.589219 624.078953 
L 882.178589 617.230486 
L 882.300848 618.46501 
L 888.902845 615.600902 
L 892.570621 618.140986 
L 892.937398 613.754274 
L 903.207171 600.627781 
L 912.743389 606.010485 
L 917.633757 599.515678 
L 932.182602 587.49025 
L 937.684266 583.178317 
L 939.640413 571.681802 
L 939.762672 565.459566 
L 940.863005 592.201314 
L 941.352042 575.201975 
L 945.386595 552.233784 
L 950.032445 556.536582 
L 974.728803 528.93572 
L 979.74143 522.017598 
L 982.308874 499.00998 
L 988.055056 499.253771 
L 997.469014 479.331314 
L 997.958051 472.275855 
L 1002.359382 449.035618 
L 1006.882973 462.602444 
L 1013.851747 452.064267 
L 1024.610557 425.45828 
L 1034.024515 402.690509 
L 1036.102922 395.397831 
L 1037.93681 398.170205 
L 1039.648438 350.949817 
L 1043.682992 380.844673 
L 1048.817878 337.465131 
L 1059.33217 321.125273 
L 1067.768054 281.428869 
L 1071.069053 271.781742 
L 1071.43583 288.341734 
L 1075.103606 276.930907 
L 1083.906269 236.65624 
L 1087.696304 232.768082 
L 1100.900298 219.979939 
L 1111.781366 157.443481 
L 1116.182698 137.826584 
L 1120.706288 125.882178 
L 1123.885027 120.481338 
L 1128.530877 107.877845 
L 1134.1548 118.519189 
L 1135.255133 95.939353 
L 1139.289686 86.706867 
L 1139.900982 100.662706 
L 1142.468426 132.738531 
L 1144.546832 104.903736 
L 1163.497008 138.134114 
L 1164.7196 106.703578 
L 1173.88904 115.387372 
L 1178.045853 142.946835 
L 1180.613296 95.321007 
L 1180.735555 119.106651 
L 1197.729584 116.681234 
L 1198.585398 78.403544 
L 1202.008656 138.685435 
L 1211.544874 131.706201 
L 1217.046538 136.386842 
L 1219.491722 103.3168 
L 1241.253859 96.145031 
L 1252.012669 126.227822 
L 1260.448554 136.421669 
L 1261.426627 100.522083 
L 1269.373475 117.877843 
L 1270.22929 144.314952 
L 1286.122986 151.077337 
L 1295.292426 148.888482 
L 1302.627978 168.740627 
L 1306.662531 182.981655 
L 1315.220675 217.534151 
L 1330.380816 267.161557 
L 1346.885808 307.652415 
L 1348.230659 325.899881 
L 1348.475178 335.666603 
L 1351.531658 340.189536 
L 1352.142954 349.729552 
L 1355.566211 414.409524 
L 1358.622691 374.826143 
L 1374.760906 447.572219 
L 1384.052605 526.263228 
L 1389.554269 523.774728 
L 1398.47919 631.242639 
L 1400.924374 585.457657 
L 1401.291152 623.749672 
L 1403.002781 625.742312 
L 1403.002781 625.742312 
" clip-path="url(#p2eabd06c1e)" style="fill: none; stroke: #9467bd; stroke-width: 1.5; stroke-linecap: square"/>
   </g>
   <g id="patch_8">
    <path d="M 797.942 647.08 
L 797.942 21.6 
" style="fill: none; stroke: #000000; stroke-width: 0.8; stroke-linejoin: miter; stroke-linecap: square"/>
   </g>
   <g id="patch_9">
    <path d="M 1409.238 647.08 
L 1409.238 21.6 
" style="fill: none; stroke: #000000; stroke-width: 0.8; stroke-linejoin: miter; stroke-linecap: square"/>
   </g>
   <g id="patch_10">
    <path d="M 797.942 647.08 
L 1409.238 647.08 
" style="fill: none; stroke: #000000; stroke-width: 0.8; stroke-linejoin: miter; stroke-linecap: square"/>
   </g>
   <g id="patch_11">
    <path d="M 797.942 21.6 
L 1409.238 21.6 
" style="fill: none; stroke: #000000; stroke-width: 0.8; stroke-linejoin: miter; stroke-linecap: square"/>
   </g>
  </g>
  <g id="axes_3">
   <g id="patch_12">
    <path d="M 1511.174 647.08 
L 2122.47 647.08 
L 2122.47 21.6 
L 1511.174 21.6 
z
" style="fill: #ffffff"/>
   </g>
   <g id="matplotlib.axis_5">
    <g id="xtick_13">
     <g id="line2d_34">
      <g>
       <use xlink:href="#m7c84b32ce5" x="1511.174" y="647.08" style="stroke: #000000; stroke-width: 0.8"/>
      </g>
     </g>
     <g id="text_28">
      <!-- 1.0 -->
      <g transform="translate(1495.270875 669.276875) scale(0.2 -0.2)">
       <use xlink:href="#DejaVuSans-31"/>
       <use xlink:href="#DejaVuSans-2e" x="63.623047"/>
       <use xlink:href="#DejaVuSans-30" x="95.410156"/>
      </g>
     </g>
    </g>
    <g id="xtick_14">
     <g id="line2d_35">
      <g>
       <use xlink:href="#m7c84b32ce5" x="1633.4332" y="647.08" style="stroke: #000000; stroke-width: 0.8"/>
      </g>
     </g>
     <g id="text_29">
      <!-- 1.2 -->
      <g transform="translate(1617.530075 669.276875) scale(0.2 -0.2)">
       <use xlink:href="#DejaVuSans-31"/>
       <use xlink:href="#DejaVuSans-2e" x="63.623047"/>
       <use xlink:href="#DejaVuSans-32" x="95.410156"/>
      </g>
     </g>
    </g>
    <g id="xtick_15">
     <g id="line2d_36">
      <g>
       <use xlink:href="#m7c84b32ce5" x="1755.6924" y="647.08" style="stroke: #000000; stroke-width: 0.8"/>
      </g>
     </g>
     <g id="text_30">
      <!-- 1.4 -->
      <g transform="translate(1739.789275 669.276875) scale(0.2 -0.2)">
       <use xlink:href="#DejaVuSans-31"/>
       <use xlink:href="#DejaVuSans-2e" x="63.623047"/>
       <use xlink:href="#DejaVuSans-34" x="95.410156"/>
      </g>
     </g>
    </g>
    <g id="xtick_16">
     <g id="line2d_37">
      <g>
       <use xlink:href="#m7c84b32ce5" x="1877.9516" y="647.08" style="stroke: #000000; stroke-width: 0.8"/>
      </g>
     </g>
     <g id="text_31">
      <!-- 1.6 -->
      <g transform="translate(1862.048475 669.276875) scale(0.2 -0.2)">
       <use xlink:href="#DejaVuSans-31"/>
       <use xlink:href="#DejaVuSans-2e" x="63.623047"/>
       <use xlink:href="#DejaVuSans-36" x="95.410156"/>
      </g>
     </g>
    </g>
    <g id="xtick_17">
     <g id="line2d_38">
      <g>
       <use xlink:href="#m7c84b32ce5" x="2000.2108" y="647.08" style="stroke: #000000; stroke-width: 0.8"/>
      </g>
     </g>
     <g id="text_32">
      <!-- 1.8 -->
      <g transform="translate(1984.307675 669.276875) scale(0.2 -0.2)">
       <use xlink:href="#DejaVuSans-31"/>
       <use xlink:href="#DejaVuSans-2e" x="63.623047"/>
       <use xlink:href="#DejaVuSans-38" x="95.410156"/>
      </g>
     </g>
    </g>
    <g id="xtick_18">
     <g id="line2d_39">
      <g>
       <use xlink:href="#m7c84b32ce5" x="2122.47" y="647.08" style="stroke: #000000; stroke-width: 0.8"/>
      </g>
     </g>
     <g id="text_33">
      <!-- 2.0 -->
      <g transform="translate(2106.566875 669.276875) scale(0.2 -0.2)">
       <use xlink:href="#DejaVuSans-32"/>
       <use xlink:href="#DejaVuSans-2e" x="63.623047"/>
       <use xlink:href="#DejaVuSans-30" x="95.410156"/>
      </g>
     </g>
    </g>
    <g id="text_34">
     <!-- Position $x$ -->
     <g transform="translate(1768.422 692.633125) scale(0.2 -0.2)">
      <use xlink:href="#DejaVuSans-50" transform="translate(0 0.015625)"/>
      <use xlink:href="#DejaVuSans-6f" transform="translate(60.302734 0.015625)"/>
      <use xlink:href="#DejaVuSans-73" transform="translate(121.484375 0.015625)"/>
      <use xlink:href="#DejaVuSans-69" transform="translate(173.583984 0.015625)"/>
      <use xlink:href="#DejaVuSans-74" transform="translate(201.367188 0.015625)"/>
      <use xlink:href="#DejaVuSans-69" transform="translate(240.576172 0.015625)"/>
      <use xlink:href="#DejaVuSans-6f" transform="translate(268.359375 0.015625)"/>
      <use xlink:href="#DejaVuSans-6e" transform="translate(329.541016 0.015625)"/>
      <use xlink:href="#DejaVuSans-20" transform="translate(392.919922 0.015625)"/>
      <use xlink:href="#DejaVuSans-Oblique-78" transform="translate(424.707031 0.015625)"/>
     </g>
    </g>
   </g>
   <g id="matplotlib.axis_6">
    <g id="ytick_12">
     <g id="line2d_40">
      <g>
       <use xlink:href="#m722041708b" x="1511.174" y="647.08" style="stroke: #000000; stroke-width: 0.8"/>
      </g>
     </g>
     <g id="text_35">
      <!-- 0.0 -->
      <g transform="translate(1472.36775 654.678437) scale(0.2 -0.2)">
       <use xlink:href="#DejaVuSans-30"/>
       <use xlink:href="#DejaVuSans-2e" x="63.623047"/>
       <use xlink:href="#DejaVuSans-30" x="95.410156"/>
      </g>
     </g>
    </g>
    <g id="ytick_13">
     <g id="line2d_41">
      <g>
       <use xlink:href="#m722041708b" x="1511.174" y="527.370909" style="stroke: #000000; stroke-width: 0.8"/>
      </g>
     </g>
     <g id="text_36">
      <!-- 0.2 -->
      <g transform="translate(1472.36775 534.969347) scale(0.2 -0.2)">
       <use xlink:href="#DejaVuSans-30"/>
       <use xlink:href="#DejaVuSans-2e" x="63.623047"/>
       <use xlink:href="#DejaVuSans-32" x="95.410156"/>
      </g>
     </g>
    </g>
    <g id="ytick_14">
     <g id="line2d_42">
      <g>
       <use xlink:href="#m722041708b" x="1511.174" y="407.661818" style="stroke: #000000; stroke-width: 0.8"/>
      </g>
     </g>
     <g id="text_37">
      <!-- 0.4 -->
      <g transform="translate(1472.36775 415.260256) scale(0.2 -0.2)">
       <use xlink:href="#DejaVuSans-30"/>
       <use xlink:href="#DejaVuSans-2e" x="63.623047"/>
       <use xlink:href="#DejaVuSans-34" x="95.410156"/>
      </g>
     </g>
    </g>
    <g id="ytick_15">
     <g id="line2d_43">
      <g>
       <use xlink:href="#m722041708b" x="1511.174" y="287.952727" style="stroke: #000000; stroke-width: 0.8"/>
      </g>
     </g>
     <g id="text_38">
      <!-- 0.6 -->
      <g transform="translate(1472.36775 295.551165) scale(0.2 -0.2)">
       <use xlink:href="#DejaVuSans-30"/>
       <use xlink:href="#DejaVuSans-2e" x="63.623047"/>
       <use xlink:href="#DejaVuSans-36" x="95.410156"/>
      </g>
     </g>
    </g>
    <g id="ytick_16">
     <g id="line2d_44">
      <g>
       <use xlink:href="#m722041708b" x="1511.174" y="168.243636" style="stroke: #000000; stroke-width: 0.8"/>
      </g>
     </g>
     <g id="text_39">
      <!-- 0.8 -->
      <g transform="translate(1472.36775 175.842074) scale(0.2 -0.2)">
       <use xlink:href="#DejaVuSans-30"/>
       <use xlink:href="#DejaVuSans-2e" x="63.623047"/>
       <use xlink:href="#DejaVuSans-38" x="95.410156"/>
      </g>
     </g>
    </g>
    <g id="ytick_17">
     <g id="line2d_45">
      <g>
       <use xlink:href="#m722041708b" x="1511.174" y="48.534545" style="stroke: #000000; stroke-width: 0.8"/>
      </g>
     </g>
     <g id="text_40">
      <!-- 1.0 -->
      <g transform="translate(1472.36775 56.132983) scale(0.2 -0.2)">
       <use xlink:href="#DejaVuSans-31"/>
       <use xlink:href="#DejaVuSans-2e" x="63.623047"/>
       <use xlink:href="#DejaVuSans-30" x="95.410156"/>
      </g>
     </g>
    </g>
    <g id="text_41">
     <!-- $P$ -->
     <g transform="translate(1464.208375 340.44) rotate(-90) scale(0.2 -0.2)">
      <defs>
       <path id="DejaVuSans-Oblique-50" d="M 1081 4666 
L 2541 4666 
Q 3178 4666 3512 4369 
Q 3847 4072 3847 3500 
Q 3847 2731 3353 2303 
Q 2859 1875 1966 1875 
L 1172 1875 
L 806 0 
L 172 0 
L 1081 4666 
z
M 1613 4147 
L 1275 2394 
L 2069 2394 
Q 2606 2394 2893 2669 
Q 3181 2944 3181 3456 
Q 3181 3784 2986 3965 
Q 2791 4147 2438 4147 
L 1613 4147 
z
" transform="scale(0.015625)"/>
      </defs>
      <use xlink:href="#DejaVuSans-Oblique-50" transform="translate(0 0.09375)"/>
     </g>
    </g>
   </g>
   <g id="line2d_46">
    <path d="M 902.078666 48.534545 
L 1658.618595 48.534545 
L 1663.264445 68.751062 
L 1687.960803 173.98999 
L 1695.540874 203.009921 
L 1701.287056 224.045129 
L 1711.190051 258.421842 
L 1715.591382 272.964181 
L 1720.114973 287.453531 
L 1727.083747 308.89333 
L 1737.842557 339.974593 
L 1749.334922 370.60643 
L 1752.880438 379.5458 
L 1756.914992 389.435332 
L 1762.049878 401.596746 
L 1772.56417 425.066645 
L 1781.000054 442.568416 
L 1788.335606 456.873706 
L 1797.138269 471.140444 
L 2028.452675 471.140444 
L 2043.612816 587.225455 
L 2116.234781 587.225455 
L 2116.234781 587.225455 
" clip-path="url(#p656ff97310)" style="fill: none; stroke: #1f77b4; stroke-width: 1.5; stroke-linecap: square"/>
   </g>
   <g id="line2d_47">
    <path d="M 902.078666 575.645396 
L 908.313885 576.114655 
L 910.025514 573.189564 
L 911.003587 573.886869 
L 915.038141 570.461393 
L 915.038141 571.687215 
L 922.618211 569.472596 
L 930.809578 563.131007 
L 931.90991 561.49638 
L 932.03217 564.04738 
L 932.765725 561.997961 
L 936.066723 555.800023 
L 943.035498 552.915632 
L 946.214237 540.652633 
L 952.449456 548.240992 
L 953.30527 544.810129 
L 955.628195 537.110441 
L 960.029526 529.553206 
L 964.797635 523.694643 
L 968.58767 522.414354 
L 970.054781 515.853099 
L 973.722557 516.085933 
L 990.472067 505.374364 
L 992.794992 509.436093 
L 997.807619 501.626272 
L 1008.199651 491.093668 
L 1016.880054 488.173963 
L 1017.246832 490.337705 
L 1027.761123 484.644939 
L 1028.494678 480.758583 
L 1037.908637 476.55859 
L 1038.642192 478.795953 
L 1079.843542 474.594762 
L 1084.611651 472.282581 
L 1084.978429 474.880268 
L 1089.502019 473.204341 
L 1107.107344 475.414171 
L 1122.267485 474.121911 
L 1123.00104 472.66984 
L 1130.458851 471.626575 
L 1147.819658 476.622634 
L 1148.308694 477.53781 
L 1152.832285 477.43905 
L 1156.62232 472.897287 
L 1179.729309 465.117992 
L 1181.318678 462.303631 
L 1181.440938 460.159043 
L 1185.475491 455.991371 
L 1209.438294 432.835443 
L 1214.69544 423.461623 
L 1223.375843 409.381439 
L 1232.300765 405.845831 
L 1232.423024 389.533073 
L 1233.156579 392.770007 
L 1234.134653 406.528772 
L 1234.134653 405.094657 
L 1237.924688 379.718724 
L 1239.025021 381.72026 
L 1246.482832 359.155695 
L 1249.78383 361.078821 
L 1254.918717 331.384981 
L 1257.730678 344.822327 
L 1265.922045 332.187631 
L 1272.76856 316.092743 
L 1278.637002 303.190497 
L 1284.99448 264.748916 
L 1296.609104 278.514863 
L 1300.032362 241.499615 
L 1315.803798 229.689116 
L 1329.619088 210.173541 
L 1333.409123 194.135516 
L 1339.033046 179.38975 
L 1345.512784 174.943754 
L 1362.384554 140.164073 
L 1364.951997 147.414853 
L 1371.798512 119.961967 
L 1374.365955 137.152791 
L 1378.645027 120.780179 
L 1385.124765 117.935292 
L 1391.97128 107.124364 
L 1397.350685 103.391835 
L 1398.940054 97.08556 
L 1401.996534 102.057079 
L 1412.266307 84.300031 
L 1412.633085 81.126543 
L 1414.95601 78.540826 
L 1421.191229 76.001198 
L 1440.385923 69.459096 
L 1442.34207 68.431992 
L 1447.232438 63.562825 
L 1454.323472 62.211309 
L 1455.546064 63.034309 
L 1456.15736 58.312384 
L 1472.051056 56.709479 
L 1475.107536 55.601572 
L 1476.819165 57.240988 
L 1478.408534 55.589002 
L 1485.377309 54.230304 
L 1494.179971 54.010039 
L 1494.669008 52.47058 
L 1496.991933 52.795591 
L 1501.026486 52.007905 
L 1518.142774 51.862458 
L 1521.199254 52.637575 
L 1527.801251 52.707604 
L 1529.146102 53.097856 
L 1534.403248 53.207988 
L 1539.171357 52.862628 
L 1540.027171 53.699394 
L 1541.372022 52.638772 
L 1542.105578 54.150099 
L 1542.961392 55.395672 
L 1546.26239 55.603966 
L 1558.732829 57.230812 
L 1561.66705 60.454578 
L 1581.228522 62.681766 
L 1588.319555 69.014377 
L 1591.865072 70.392228 
L 1593.821219 69.221473 
L 1595.410589 78.756901 
L 1595.532848 77.847711 
L 1602.134845 82.558263 
L 1605.802621 85.604261 
L 1606.169398 85.178097 
L 1616.439171 93.785779 
L 1625.975389 98.978161 
L 1630.865757 97.451271 
L 1645.414602 112.359243 
L 1650.916266 125.243532 
L 1652.872413 132.3758 
L 1652.994672 128.149471 
L 1654.095005 132.879775 
L 1654.584042 132.873191 
L 1658.618595 153.943787 
L 1663.264445 152.005098 
L 1687.960803 178.241141 
L 1692.97343 191.304994 
L 1695.540874 208.797485 
L 1701.287056 219.637742 
L 1710.701014 233.096036 
L 1711.190051 234.843789 
L 1715.591382 260.298132 
L 1720.114973 248.18836 
L 1727.083747 264.537031 
L 1737.842557 288.392658 
L 1747.256515 290.941863 
L 1749.334922 297.034457 
L 1751.16881 323.882214 
L 1752.880438 335.713662 
L 1756.914992 327.673401 
L 1762.049878 343.087143 
L 1772.56417 359.696181 
L 1781.000054 381.763355 
L 1784.301053 388.792673 
L 1784.66783 379.320092 
L 1788.335606 383.353092 
L 1797.138269 410.297812 
L 1800.928304 416.322172 
L 1814.132298 434.098972 
L 1825.013366 443.241754 
L 1829.414698 458.071316 
L 1833.938288 463.437276 
L 1837.117027 469.121663 
L 1841.762877 475.156796 
L 1847.3868 471.072322 
L 1848.487133 468.051463 
L 1852.521686 468.927135 
L 1853.132982 483.480169 
L 1855.700426 476.194674 
L 1857.778832 479.727888 
L 1876.729008 474.907203 
L 1877.584822 475.760729 
L 1877.9516 473.054705 
L 1887.12104 473.943545 
L 1891.277853 473.815456 
L 1893.845296 474.304468 
L 1893.967555 474.057268 
L 1911.817398 473.967487 
L 1915.240656 473.714302 
L 1924.776874 472.391516 
L 1932.723722 472.869754 
L 1954.485859 473.311481 
L 1965.244669 475.506945 
L 1973.680554 475.440507 
L 1974.658627 476.923703 
L 1982.605475 478.477527 
L 1983.46129 479.539346 
L 1999.354986 484.086496 
L 2008.524426 484.376192 
L 2015.859978 488.206284 
L 2019.894531 496.410547 
L 2028.452675 503.473982 
L 2043.612816 520.767756 
L 2060.117808 524.467365 
L 2061.462659 532.202368 
L 2061.707178 528.842134 
L 2064.763658 532.101214 
L 2065.374954 537.835878 
L 2068.798211 550.878782 
L 2071.854691 546.586014 
L 2087.992906 557.585484 
L 2097.284605 569.325953 
L 2102.786269 570.579307 
L 2111.71119 577.255483 
L 2114.156374 574.123295 
L 2114.523152 574.888834 
L 2116.234781 575.758521 
L 2116.234781 575.758521 
" clip-path="url(#p656ff97310)" style="fill: none; stroke: #ff7f0e; stroke-width: 1.5; stroke-linecap: square"/>
   </g>
   <g id="line2d_48">
    <path d="M 902.078666 541.097352 
L 908.313885 543.84288 
L 910.025514 539.296927 
L 911.003587 539.851779 
L 915.038141 537.166105 
L 915.038141 539.870334 
L 922.618211 540.044511 
L 930.809578 534.418183 
L 931.90991 535.22622 
L 932.765725 533.246231 
L 936.066723 530.953204 
L 943.035498 529.099508 
L 946.214237 524.313539 
L 952.449456 528.077193 
L 953.30527 525.787158 
L 955.628195 521.680537 
L 960.029526 518.00068 
L 964.797635 514.25618 
L 968.58767 511.743486 
L 970.054781 508.161191 
L 973.722557 508.527501 
L 990.472067 501.631659 
L 992.794992 504.515451 
L 997.807619 500.4214 
L 1008.199651 493.515383 
L 1016.880054 491.106836 
L 1017.246832 492.77558 
L 1027.761123 485.580465 
L 1028.494678 485.325485 
L 1037.908637 479.373549 
L 1038.642192 480.018183 
L 1079.843542 475.875649 
L 1084.611651 471.81392 
L 1084.978429 473.051712 
L 1089.502019 471.016059 
L 1107.107344 469.674719 
L 1123.00104 467.991609 
L 1130.458851 466.464719 
L 1147.819658 471.576297 
L 1148.308694 472.571679 
L 1152.832285 475.093949 
L 1156.62232 466.572457 
L 1181.318678 453.405655 
L 1181.440938 445.376766 
L 1185.475491 447.564449 
L 1209.438294 421.613913 
L 1214.69544 411.272843 
L 1223.375843 394.9541 
L 1232.300765 389.661761 
L 1232.423024 375.819799 
L 1233.156579 380.993625 
L 1234.134653 389.931705 
L 1234.134653 391.954788 
L 1237.924688 369.748153 
L 1239.025021 366.197582 
L 1246.482832 351.656519 
L 1249.78383 347.303896 
L 1254.918717 315.801252 
L 1257.730678 335.158212 
L 1265.922045 321.232453 
L 1272.76856 301.206319 
L 1278.637002 291.427284 
L 1284.99448 259.583468 
L 1296.609104 268.141471 
L 1300.032362 240.577855 
L 1315.803798 225.615415 
L 1329.619088 209.123692 
L 1333.409123 196.408193 
L 1339.033046 184.795214 
L 1345.512784 180.712535 
L 1362.384554 151.031265 
L 1364.951997 157.606885 
L 1371.798512 135.470879 
L 1374.365955 148.486848 
L 1378.645027 135.044116 
L 1385.124765 131.631808 
L 1391.97128 122.159228 
L 1397.350685 119.414298 
L 1398.940054 114.032177 
L 1401.996534 117.863467 
L 1412.266307 100.974908 
L 1412.633085 98.338914 
L 1414.95601 94.453157 
L 1421.191229 93.132167 
L 1440.385923 85.455822 
L 1442.34207 83.232824 
L 1447.232438 77.918339 
L 1454.323472 75.386492 
L 1455.546064 75.997607 
L 1456.15736 70.627457 
L 1472.051056 68.282356 
L 1475.107536 66.606428 
L 1476.819165 68.870127 
L 1478.408534 66.839861 
L 1485.377309 64.70066 
L 1494.179971 64.245765 
L 1494.669008 62.676379 
L 1496.991933 62.386084 
L 1501.026486 61.634311 
L 1518.142774 61.053124 
L 1521.199254 62.527341 
L 1527.801251 62.323836 
L 1529.146102 62.690145 
L 1534.403248 63.154018 
L 1539.171357 63.221055 
L 1540.027171 64.515709 
L 1541.372022 62.569838 
L 1542.961392 66.705188 
L 1545.406576 66.394543 
L 1546.26239 66.60164 
L 1558.732829 69.308263 
L 1561.66705 72.825316 
L 1581.228522 76.911585 
L 1588.319555 84.195285 
L 1591.865072 85.367237 
L 1593.821219 84.035473 
L 1595.410589 93.904889 
L 1595.532848 92.825113 
L 1605.802621 101.021595 
L 1606.169398 100.180639 
L 1616.439171 108.566859 
L 1625.975389 114.993441 
L 1630.865757 114.209945 
L 1645.414602 128.628905 
L 1650.916266 139.39614 
L 1652.872413 147.022806 
L 1652.994672 142.980828 
L 1654.095005 148.418015 
L 1654.584042 148.303095 
L 1658.618595 162.850742 
L 1663.264445 161.936763 
L 1687.960803 185.453015 
L 1692.97343 197.09233 
L 1695.540874 210.498551 
L 1701.287056 219.382761 
L 1710.701014 232.241912 
L 1711.190051 233.660465 
L 1715.591382 253.260434 
L 1720.114973 247.036759 
L 1727.083747 257.449055 
L 1737.842557 282.809426 
L 1747.256515 288.411812 
L 1749.334922 289.948278 
L 1751.16881 310.127041 
L 1752.880438 321.932751 
L 1756.914992 318.873585 
L 1762.049878 330.439878 
L 1772.56417 344.311169 
L 1781.000054 369.842724 
L 1784.301053 378.075716 
L 1784.66783 364.860431 
L 1788.335606 368.700699 
L 1797.138269 392.761029 
L 1800.928304 404.144765 
L 1814.132298 416.956032 
L 1825.013366 438.780196 
L 1833.938288 460.874903 
L 1837.117027 470.046415 
L 1841.762877 472.056331 
L 1847.3868 459.484482 
L 1848.487133 459.948953 
L 1853.132982 463.319961 
L 1855.700426 458.681833 
L 1857.778832 463.005725 
L 1876.729008 465.952364 
L 1877.584822 465.478316 
L 1877.9516 465.037787 
L 1887.12104 466.675407 
L 1891.277853 466.898066 
L 1893.845296 467.530729 
L 1893.967555 467.351764 
L 1911.817398 468.685323 
L 1915.240656 468.406401 
L 1924.776874 469.377241 
L 1930.278538 470.644961 
L 1932.723722 469.644193 
L 1954.485859 473.085829 
L 1965.244669 476.8836 
L 1973.680554 476.308398 
L 1974.658627 478.398519 
L 1982.605475 482.239385 
L 1983.46129 482.116683 
L 1999.354986 486.725483 
L 2008.524426 487.146859 
L 2015.859978 489.255535 
L 2019.894531 496.337524 
L 2028.452675 501.159407 
L 2043.612816 512.441988 
L 2060.117808 511.357424 
L 2061.462659 515.487986 
L 2061.707178 513.024972 
L 2064.763658 515.900384 
L 2065.374954 519.085244 
L 2068.798211 528.350728 
L 2071.854691 523.708409 
L 2087.992906 528.26753 
L 2097.284605 537.857425 
L 2102.786269 541.103936 
L 2111.71119 542.627833 
L 2114.523152 537.875382 
L 2116.234781 541.615094 
L 2116.234781 541.615094 
" clip-path="url(#p656ff97310)" style="fill: none; stroke: #2ca02c; stroke-width: 1.5; stroke-linecap: square"/>
   </g>
   <g id="line2d_49">
    <path d="M 902.078666 559.560085 
L 908.313885 558.292366 
L 910.025514 558.388133 
L 911.003587 559.703736 
L 915.038141 554.332988 
L 915.038141 556.630205 
L 922.618211 552.14291 
L 930.809578 544.510258 
L 931.90991 543.900939 
L 932.03217 546.861345 
L 932.765725 543.420905 
L 936.066723 537.565934 
L 943.035498 532.626737 
L 946.214237 524.087887 
L 952.449456 530.398352 
L 953.30527 527.807847 
L 955.628195 521.824787 
L 960.029526 515.038479 
L 964.797635 509.754519 
L 968.58767 507.154438 
L 970.054781 501.571804 
L 973.722557 502.281679 
L 990.472067 493.538127 
L 992.794992 497.077925 
L 997.807619 490.835096 
L 1008.199651 482.1095 
L 1016.880054 479.532762 
L 1017.246832 479.939773 
L 1027.761123 474.540893 
L 1028.494678 473.88788 
L 1037.908637 465.951167 
L 1038.642192 467.962879 
L 1079.843542 459.668236 
L 1084.611651 461.854722 
L 1084.978429 467.103367 
L 1089.502019 466.111577 
L 1107.107344 469.006143 
L 1122.267485 468.597935 
L 1123.00104 467.048301 
L 1130.458851 466.504822 
L 1147.819658 470.151759 
L 1148.308694 470.408535 
L 1152.832285 470.170314 
L 1156.62232 467.199135 
L 1179.729309 460.249423 
L 1181.318678 460.129116 
L 1181.440938 451.413097 
L 1185.475491 456.27149 
L 1209.438294 429.615268 
L 1223.375843 410.621625 
L 1232.300765 408.527913 
L 1232.423024 392.390529 
L 1233.156579 397.636182 
L 1234.134653 406.738861 
L 1234.134653 408.014361 
L 1237.924688 385.122392 
L 1239.025021 384.116237 
L 1246.482832 363.876423 
L 1249.78383 362.753551 
L 1254.918717 334.43876 
L 1257.730678 350.017103 
L 1265.922045 337.93666 
L 1272.76856 323.392005 
L 1278.637002 310.346108 
L 1284.99448 274.574039 
L 1296.609104 283.848501 
L 1300.032362 251.217599 
L 1315.803798 237.901159 
L 1329.619088 219.891525 
L 1333.409123 203.822974 
L 1339.033046 190.644799 
L 1345.512784 186.94878 
L 1362.384554 154.675209 
L 1364.951997 164.182505 
L 1371.798512 138.476774 
L 1374.365955 155.324033 
L 1378.645027 138.323546 
L 1385.124765 133.114405 
L 1391.97128 122.651831 
L 1397.350685 120.094246 
L 1398.940054 114.045345 
L 1401.996534 119.033025 
L 1412.266307 98.642377 
L 1412.633085 95.839388 
L 1414.95601 91.701644 
L 1421.191229 89.905409 
L 1440.385923 83.320212 
L 1442.34207 80.857197 
L 1447.232438 75.038737 
L 1454.323472 72.833695 
L 1455.546064 73.373583 
L 1456.15736 67.59762 
L 1472.051056 65.147175 
L 1475.107536 62.781124 
L 1476.819165 65.773253 
L 1478.408534 63.438926 
L 1485.377309 61.036364 
L 1494.179971 60.852012 
L 1494.669008 58.345903 
L 1496.991933 60.115801 
L 1501.026486 58.026878 
L 1518.142774 58.306997 
L 1521.199254 59.118625 
L 1527.801251 58.108879 
L 1529.146102 59.076727 
L 1534.403248 59.498701 
L 1539.171357 59.511869 
L 1540.027171 60.652098 
L 1541.372022 58.826535 
L 1542.105578 60.599426 
L 1542.961392 63.425159 
L 1545.406576 62.81165 
L 1546.26239 62.767358 
L 1558.732829 65.765472 
L 1561.66705 69.693726 
L 1581.228522 74.10321 
L 1588.319555 81.910637 
L 1591.865072 82.749798 
L 1593.821219 80.879942 
L 1595.410589 92.819128 
L 1595.532848 90.548845 
L 1602.134845 96.024339 
L 1605.802621 98.816553 
L 1606.169398 98.78902 
L 1616.439171 109.143258 
L 1625.975389 113.929826 
L 1630.865757 111.874421 
L 1645.414602 126.859007 
L 1650.916266 139.909692 
L 1652.872413 146.074111 
L 1652.994672 141.604174 
L 1654.095005 147.355597 
L 1654.584042 147.189201 
L 1658.618595 165.189259 
L 1663.264445 164.210637 
L 1687.960803 189.482423 
L 1692.97343 203.138238 
L 1695.540874 217.072376 
L 1701.287056 230.140419 
L 1710.701014 241.394271 
L 1711.190051 244.808972 
L 1715.591382 267.562678 
L 1720.114973 256.136445 
L 1727.083747 270.381827 
L 1737.842557 294.702524 
L 1747.256515 295.226252 
L 1749.334922 304.388187 
L 1751.16881 326.269213 
L 1752.880438 343.6809 
L 1756.914992 333.084252 
L 1762.049878 344.119036 
L 1772.56417 364.129009 
L 1781.000054 385.804734 
L 1784.301053 393.121353 
L 1784.66783 381.936933 
L 1788.335606 383.351895 
L 1797.138269 408.126888 
L 1800.928304 424.831095 
L 1814.132298 426.513007 
L 1825.013366 448.615495 
L 1829.414698 451.829086 
L 1833.938288 460.253015 
L 1837.117027 469.905159 
L 1841.762877 471.145943 
L 1847.3868 467.129703 
L 1848.487133 461.739801 
L 1852.521686 461.40701 
L 1853.132982 474.473257 
L 1855.700426 471.584677 
L 1857.778832 471.673262 
L 1876.729008 468.375276 
L 1877.584822 469.001355 
L 1877.9516 469.717215 
L 1887.12104 468.144238 
L 1891.277853 468.482416 
L 1893.845296 467.298493 
L 1893.967555 467.537313 
L 1910.961584 467.281135 
L 1911.817398 465.241891 
L 1915.240656 466.97049 
L 1924.776874 464.553564 
L 1930.278538 464.521242 
L 1932.723722 464.299182 
L 1954.485859 465.903882 
L 1965.244669 468.374678 
L 1973.680554 468.115508 
L 1974.658627 469.067793 
L 1982.605475 469.940473 
L 1983.46129 470.654537 
L 1999.354986 475.159789 
L 2008.524426 475.460857 
L 2015.859978 478.605615 
L 2019.894531 486.09701 
L 2028.452675 492.307518 
L 2043.612816 506.418227 
L 2060.117808 509.166748 
L 2061.462659 516.233774 
L 2061.707178 512.350411 
L 2064.763658 515.26413 
L 2065.374954 520.113545 
L 2068.798211 532.629131 
L 2071.854691 527.366719 
L 2087.992906 537.046396 
L 2097.284605 550.953001 
L 2102.786269 554.474843 
L 2111.71119 559.426011 
L 2114.156374 557.953589 
L 2114.523152 570.14177 
L 2116.234781 561.263545 
L 2116.234781 561.263545 
" clip-path="url(#p656ff97310)" style="fill: none; stroke: #d62728; stroke-width: 1.5; stroke-linecap: square"/>
   </g>
   <g id="line2d_50">
    <path d="M 902.078666 561.514935 
L 908.313885 564.15033 
L 910.025514 558.385739 
L 911.003587 559.622932 
L 915.038141 557.253889 
L 915.038141 559.072869 
L 922.618211 557.032428 
L 930.809578 549.931284 
L 931.90991 549.802597 
L 932.03217 550.546589 
L 932.765725 549.07297 
L 936.066723 544.315731 
L 943.035498 540.516763 
L 946.214237 533.039135 
L 952.449456 537.735921 
L 953.30527 536.395179 
L 955.628195 530.625201 
L 960.029526 523.999303 
L 964.797635 519.404269 
L 968.58767 517.725948 
L 970.054781 513.492436 
L 973.722557 513.379311 
L 990.472067 505.207968 
L 992.794992 508.301251 
L 997.807619 502.829348 
L 1008.199651 493.853561 
L 1016.880054 491.70179 
L 1017.246832 493.275366 
L 1027.761123 486.207741 
L 1028.494678 484.571318 
L 1037.908637 478.670857 
L 1038.642192 480.824423 
L 1079.843542 475.889416 
L 1084.611651 472.393312 
L 1084.978429 474.663595 
L 1089.502019 472.846411 
L 1107.107344 474.216481 
L 1122.267485 472.656672 
L 1123.00104 471.110031 
L 1130.458851 469.940473 
L 1147.819658 475.334564 
L 1148.308694 476.331143 
L 1152.832285 477.587489 
L 1156.62232 472.517809 
L 1179.729309 463.846681 
L 1181.318678 459.96691 
L 1181.440938 456.015911 
L 1185.475491 456.608471 
L 1209.438294 425.946185 
L 1214.69544 416.691475 
L 1223.375843 401.848146 
L 1232.300765 397.976156 
L 1232.423024 382.764721 
L 1233.156579 385.319912 
L 1234.134653 402.32818 
L 1234.134653 401.332799 
L 1237.924688 373.896672 
L 1239.025021 376.484783 
L 1246.482832 354.624705 
L 1249.78383 352.021033 
L 1254.918717 323.44348 
L 1257.730678 338.376591 
L 1265.922045 326.074087 
L 1272.76856 305.648724 
L 1278.637002 298.505682 
L 1284.99448 263.022711 
L 1296.609104 271.797985 
L 1300.032362 241.947327 
L 1315.803798 227.165648 
L 1329.619088 207.920616 
L 1333.409123 194.5946 
L 1339.033046 182.663793 
L 1345.512784 178.083724 
L 1362.384554 146.233324 
L 1364.951997 153.363198 
L 1371.798512 128.488247 
L 1374.365955 143.630849 
L 1378.645027 128.836601 
L 1385.124765 125.682266 
L 1391.97128 114.868345 
L 1397.350685 111.687076 
L 1398.940054 105.428685 
L 1401.996534 109.860914 
L 1412.266307 92.557564 
L 1412.633085 89.314644 
L 1414.95601 85.905928 
L 1421.191229 84.254541 
L 1440.385923 77.066609 
L 1442.34207 75.44874 
L 1447.232438 70.636435 
L 1454.323472 68.847981 
L 1455.546064 69.223868 
L 1456.15736 64.331956 
L 1472.051056 62.141878 
L 1475.107536 60.588652 
L 1476.819165 62.686554 
L 1478.408534 60.942393 
L 1485.377309 58.870228 
L 1494.179971 58.751716 
L 1494.669008 57.09195 
L 1496.991933 56.880065 
L 1501.026486 56.057065 
L 1518.142774 55.651849 
L 1521.199254 56.655012 
L 1527.801251 56.675362 
L 1529.146102 57.043468 
L 1534.403248 57.353514 
L 1539.171357 57.030898 
L 1540.027171 58.312983 
L 1541.372022 57.05065 
L 1542.961392 60.696989 
L 1545.406576 60.400111 
L 1546.26239 60.622171 
L 1558.732829 63.089974 
L 1561.66705 66.543581 
L 1581.228522 69.827201 
L 1588.319555 76.575203 
L 1591.865072 77.79444 
L 1593.821219 76.688328 
L 1595.410589 86.467364 
L 1595.532848 85.813153 
L 1605.802621 93.601427 
L 1606.169398 92.849055 
L 1616.439171 101.111377 
L 1625.975389 107.603799 
L 1630.865757 107.208759 
L 1645.414602 121.432593 
L 1650.916266 133.249676 
L 1652.872413 140.67583 
L 1652.994672 137.019316 
L 1654.095005 141.981257 
L 1654.584042 142.306866 
L 1658.618595 159.127789 
L 1663.264445 157.577556 
L 1687.960803 181.127926 
L 1692.97343 194.217516 
L 1695.540874 208.997399 
L 1701.287056 218.845268 
L 1710.701014 233.490478 
L 1711.190051 233.142124 
L 1715.591382 257.300616 
L 1720.114973 246.123378 
L 1727.083747 259.367393 
L 1737.842557 281.341793 
L 1747.256515 286.938193 
L 1749.334922 292.44122 
L 1752.880438 329.021924 
L 1756.914992 321.703508 
L 1762.049878 335.763341 
L 1772.56417 352.803332 
L 1781.000054 375.879653 
L 1784.301053 384.137186 
L 1784.66783 374.616124 
L 1788.335606 374.818432 
L 1797.138269 399.328868 
L 1800.928304 407.961091 
L 1814.132298 418.782194 
L 1825.013366 438.00508 
L 1829.414698 446.655857 
L 1833.938288 458.458575 
L 1837.117027 467.233252 
L 1841.762877 469.973991 
L 1847.3868 464.078319 
L 1848.487133 463.567759 
L 1852.521686 466.033168 
L 1853.132982 468.757747 
L 1855.700426 465.87994 
L 1857.778832 467.740818 
L 1876.729008 466.944154 
L 1877.584822 466.60418 
L 1877.9516 467.574423 
L 1887.12104 467.784512 
L 1891.277853 467.34518 
L 1893.845296 469.435899 
L 1893.967555 468.866084 
L 1910.961584 469.633419 
L 1915.240656 468.79366 
L 1924.776874 469.523287 
L 1932.723722 469.532265 
L 1954.485859 471.789978 
L 1965.244669 475.316009 
L 1973.680554 475.942687 
L 1974.658627 476.974579 
L 1982.605475 480.156447 
L 1983.46129 481.683935 
L 1999.354986 487.098377 
L 2008.524426 488.34395 
L 2015.859978 491.319918 
L 2019.894531 499.361975 
L 2028.452675 504.042001 
L 2043.612816 518.360406 
L 2060.117808 520.51098 
L 2061.462659 526.185191 
L 2061.707178 524.071727 
L 2064.763658 526.66283 
L 2065.374954 531.411091 
L 2068.798211 542.057419 
L 2071.854691 537.499495 
L 2087.992906 545.189607 
L 2097.284605 556.646366 
L 2102.786269 558.849013 
L 2111.71119 564.423267 
L 2114.156374 560.457903 
L 2114.523152 560.485436 
L 2116.234781 561.59095 
L 2116.234781 561.59095 
" clip-path="url(#p656ff97310)" style="fill: none; stroke: #9467bd; stroke-width: 1.5; stroke-linecap: square"/>
   </g>
   <g id="patch_13">
    <path d="M 1511.174 647.08 
L 1511.174 21.6 
" style="fill: none; stroke: #000000; stroke-width: 0.8; stroke-linejoin: miter; stroke-linecap: square"/>
   </g>
   <g id="patch_14">
    <path d="M 2122.47 647.08 
L 2122.47 21.6 
" style="fill: none; stroke: #000000; stroke-width: 0.8; stroke-linejoin: miter; stroke-linecap: square"/>
   </g>
   <g id="patch_15">
    <path d="M 1511.174 647.08 
L 2122.47 647.08 
" style="fill: none; stroke: #000000; stroke-width: 0.8; stroke-linejoin: miter; stroke-linecap: square"/>
   </g>
   <g id="patch_16">
    <path d="M 1511.174 21.6 
L 2122.47 21.6 
" style="fill: none; stroke: #000000; stroke-width: 0.8; stroke-linejoin: miter; stroke-linecap: square"/>
   </g>
   <g id="legend_1">
    <g id="patch_17">
     <path d="M 1945.698125 184.38125 
L 2108.47 184.38125 
Q 2112.47 184.38125 2112.47 180.38125 
L 2112.47 35.6 
Q 2112.47 31.6 2108.47 31.6 
L 1945.698125 31.6 
Q 1941.698125 31.6 1941.698125 35.6 
L 1941.698125 180.38125 
Q 1941.698125 184.38125 1945.698125 184.38125 
z
" style="fill: #ffffff; opacity: 0.8; stroke: #cccccc; stroke-linejoin: miter"/>
    </g>
    <g id="line2d_51">
     <path d="M 1949.698125 47.796875 
L 1969.698125 47.796875 
L 1989.698125 47.796875 
" style="fill: none; stroke: #1f77b4; stroke-width: 1.5; stroke-linecap: square"/>
    </g>
    <g id="text_42">
     <!-- Exact Sol. -->
     <g transform="translate(2005.698125 54.796875) scale(0.2 -0.2)">
      <defs>
       <path id="DejaVuSans-45" d="M 628 4666 
L 3578 4666 
L 3578 4134 
L 1259 4134 
L 1259 2753 
L 3481 2753 
L 3481 2222 
L 1259 2222 
L 1259 531 
L 3634 531 
L 3634 0 
L 628 0 
L 628 4666 
z
" transform="scale(0.015625)"/>
       <path id="DejaVuSans-78" d="M 3513 3500 
L 2247 1797 
L 3578 0 
L 2900 0 
L 1881 1375 
L 863 0 
L 184 0 
L 1544 1831 
L 300 3500 
L 978 3500 
L 1906 2253 
L 2834 3500 
L 3513 3500 
z
" transform="scale(0.015625)"/>
       <path id="DejaVuSans-61" d="M 2194 1759 
Q 1497 1759 1228 1600 
Q 959 1441 959 1056 
Q 959 750 1161 570 
Q 1363 391 1709 391 
Q 2188 391 2477 730 
Q 2766 1069 2766 1631 
L 2766 1759 
L 2194 1759 
z
M 3341 1997 
L 3341 0 
L 2766 0 
L 2766 531 
Q 2569 213 2275 61 
Q 1981 -91 1556 -91 
Q 1019 -91 701 211 
Q 384 513 384 1019 
Q 384 1609 779 1909 
Q 1175 2209 1959 2209 
L 2766 2209 
L 2766 2266 
Q 2766 2663 2505 2880 
Q 2244 3097 1772 3097 
Q 1472 3097 1187 3025 
Q 903 2953 641 2809 
L 641 3341 
Q 956 3463 1253 3523 
Q 1550 3584 1831 3584 
Q 2591 3584 2966 3190 
Q 3341 2797 3341 1997 
z
" transform="scale(0.015625)"/>
       <path id="DejaVuSans-63" d="M 3122 3366 
L 3122 2828 
Q 2878 2963 2633 3030 
Q 2388 3097 2138 3097 
Q 1578 3097 1268 2742 
Q 959 2388 959 1747 
Q 959 1106 1268 751 
Q 1578 397 2138 397 
Q 2388 397 2633 464 
Q 2878 531 3122 666 
L 3122 134 
Q 2881 22 2623 -34 
Q 2366 -91 2075 -91 
Q 1284 -91 818 406 
Q 353 903 353 1747 
Q 353 2603 823 3093 
Q 1294 3584 2113 3584 
Q 2378 3584 2631 3529 
Q 2884 3475 3122 3366 
z
" transform="scale(0.015625)"/>
       <path id="DejaVuSans-53" d="M 3425 4513 
L 3425 3897 
Q 3066 4069 2747 4153 
Q 2428 4238 2131 4238 
Q 1616 4238 1336 4038 
Q 1056 3838 1056 3469 
Q 1056 3159 1242 3001 
Q 1428 2844 1947 2747 
L 2328 2669 
Q 3034 2534 3370 2195 
Q 3706 1856 3706 1288 
Q 3706 609 3251 259 
Q 2797 -91 1919 -91 
Q 1588 -91 1214 -16 
Q 841 59 441 206 
L 441 856 
Q 825 641 1194 531 
Q 1563 422 1919 422 
Q 2459 422 2753 634 
Q 3047 847 3047 1241 
Q 3047 1584 2836 1778 
Q 2625 1972 2144 2069 
L 1759 2144 
Q 1053 2284 737 2584 
Q 422 2884 422 3419 
Q 422 4038 858 4394 
Q 1294 4750 2059 4750 
Q 2388 4750 2728 4690 
Q 3069 4631 3425 4513 
z
" transform="scale(0.015625)"/>
       <path id="DejaVuSans-6c" d="M 603 4863 
L 1178 4863 
L 1178 0 
L 603 0 
L 603 4863 
z
" transform="scale(0.015625)"/>
      </defs>
      <use xlink:href="#DejaVuSans-45"/>
      <use xlink:href="#DejaVuSans-78" x="63.183594"/>
      <use xlink:href="#DejaVuSans-61" x="122.363281"/>
      <use xlink:href="#DejaVuSans-63" x="183.642578"/>
      <use xlink:href="#DejaVuSans-74" x="238.623047"/>
      <use xlink:href="#DejaVuSans-20" x="277.832031"/>
      <use xlink:href="#DejaVuSans-53" x="309.619141"/>
      <use xlink:href="#DejaVuSans-6f" x="373.095703"/>
      <use xlink:href="#DejaVuSans-6c" x="434.277344"/>
      <use xlink:href="#DejaVuSans-2e" x="462.060547"/>
     </g>
    </g>
    <g id="line2d_52">
     <path d="M 1949.698125 77.153125 
L 1969.698125 77.153125 
L 1989.698125 77.153125 
" style="fill: none; stroke: #ff7f0e; stroke-width: 1.5; stroke-linecap: square"/>
    </g>
    <g id="text_43">
     <!-- N -->
     <g transform="translate(2005.698125 84.153125) scale(0.2 -0.2)">
      <defs>
       <path id="DejaVuSans-4e" d="M 628 4666 
L 1478 4666 
L 3547 763 
L 3547 4666 
L 4159 4666 
L 4159 0 
L 3309 0 
L 1241 3903 
L 1241 0 
L 628 0 
L 628 4666 
z
" transform="scale(0.015625)"/>
      </defs>
      <use xlink:href="#DejaVuSans-4e"/>
     </g>
    </g>
    <g id="line2d_53">
     <path d="M 1949.698125 106.509375 
L 1969.698125 106.509375 
L 1989.698125 106.509375 
" style="fill: none; stroke: #2ca02c; stroke-width: 1.5; stroke-linecap: square"/>
    </g>
    <g id="text_44">
     <!-- LDA -->
     <g transform="translate(2005.698125 113.509375) scale(0.2 -0.2)">
      <defs>
       <path id="DejaVuSans-4c" d="M 628 4666 
L 1259 4666 
L 1259 531 
L 3531 531 
L 3531 0 
L 628 0 
L 628 4666 
z
" transform="scale(0.015625)"/>
       <path id="DejaVuSans-44" d="M 1259 4147 
L 1259 519 
L 2022 519 
Q 2988 519 3436 956 
Q 3884 1394 3884 2338 
Q 3884 3275 3436 3711 
Q 2988 4147 2022 4147 
L 1259 4147 
z
M 628 4666 
L 1925 4666 
Q 3281 4666 3915 4102 
Q 4550 3538 4550 2338 
Q 4550 1131 3912 565 
Q 3275 0 1925 0 
L 628 0 
L 628 4666 
z
" transform="scale(0.015625)"/>
       <path id="DejaVuSans-41" d="M 2188 4044 
L 1331 1722 
L 3047 1722 
L 2188 4044 
z
M 1831 4666 
L 2547 4666 
L 4325 0 
L 3669 0 
L 3244 1197 
L 1141 1197 
L 716 0 
L 50 0 
L 1831 4666 
z
" transform="scale(0.015625)"/>
      </defs>
      <use xlink:href="#DejaVuSans-4c"/>
      <use xlink:href="#DejaVuSans-44" x="55.712891"/>
      <use xlink:href="#DejaVuSans-41" x="130.964844"/>
     </g>
    </g>
    <g id="line2d_54">
     <path d="M 1949.698125 135.865625 
L 1969.698125 135.865625 
L 1989.698125 135.865625 
" style="fill: none; stroke: #d62728; stroke-width: 1.5; stroke-linecap: square"/>
    </g>
    <g id="text_45">
     <!-- B -->
     <g transform="translate(2005.698125 142.865625) scale(0.2 -0.2)">
      <defs>
       <path id="DejaVuSans-42" d="M 1259 2228 
L 1259 519 
L 2272 519 
Q 2781 519 3026 730 
Q 3272 941 3272 1375 
Q 3272 1813 3026 2020 
Q 2781 2228 2272 2228 
L 1259 2228 
z
M 1259 4147 
L 1259 2741 
L 2194 2741 
Q 2656 2741 2882 2914 
Q 3109 3088 3109 3444 
Q 3109 3797 2882 3972 
Q 2656 4147 2194 4147 
L 1259 4147 
z
M 628 4666 
L 2241 4666 
Q 2963 4666 3353 4366 
Q 3744 4066 3744 3513 
Q 3744 3084 3544 2831 
Q 3344 2578 2956 2516 
Q 3422 2416 3680 2098 
Q 3938 1781 3938 1306 
Q 3938 681 3513 340 
Q 3088 0 2303 0 
L 628 0 
L 628 4666 
z
" transform="scale(0.015625)"/>
      </defs>
      <use xlink:href="#DejaVuSans-42"/>
     </g>
    </g>
    <g id="line2d_55">
     <path d="M 1949.698125 165.221875 
L 1969.698125 165.221875 
L 1989.698125 165.221875 
" style="fill: none; stroke: #9467bd; stroke-width: 1.5; stroke-linecap: square"/>
    </g>
    <g id="text_46">
     <!-- Bx -->
     <g transform="translate(2005.698125 172.221875) scale(0.2 -0.2)">
      <use xlink:href="#DejaVuSans-42"/>
      <use xlink:href="#DejaVuSans-78" x="68.603516"/>
     </g>
    </g>
   </g>
  </g>
 </g>
 <defs>
  <clipPath id="pf6fb5ee1e4">
   <rect x="84.71" y="21.6" width="611.296" height="625.48"/>
  </clipPath>
  <clipPath id="p2eabd06c1e">
   <rect x="797.942" y="21.6" width="611.296" height="625.48"/>
  </clipPath>
  <clipPath id="p656ff97310">
   <rect x="1511.174" y="21.6" width="611.296" height="625.48"/>
  </clipPath>
 </defs>
</svg>
