<?xml version="1.0" encoding="utf-8" standalone="no"?>
<!DOCTYPE svg PUBLIC "-//W3C//DTD SVG 1.1//EN"
  "http://www.w3.org/Graphics/SVG/1.1/DTD/svg11.dtd">
<svg xmlns:xlink="http://www.w3.org/1999/xlink" width="2160pt" height="720pt" viewBox="0 0 2160 720" xmlns="http://www.w3.org/2000/svg" version="1.1">
 <metadata>
  <rdf:RDF xmlns:dc="http://purl.org/dc/elements/1.1/" xmlns:cc="http://creativecommons.org/ns#" xmlns:rdf="http://www.w3.org/1999/02/22-rdf-syntax-ns#">
   <cc:Work>
    <dc:type rdf:resource="http://purl.org/dc/dcmitype/StillImage"/>
    <dc:date>2023-06-30T01:37:03.701927</dc:date>
    <dc:format>image/svg+xml</dc:format>
    <dc:creator>
     <cc:Agent>
      <dc:title>Matplotlib v3.7.1, https://matplotlib.org/</dc:title>
     </cc:Agent>
    </dc:creator>
   </cc:Work>
  </rdf:RDF>
 </metadata>
 <defs>
  <style type="text/css">*{stroke-linejoin: round; stroke-linecap: butt}</style>
 </defs>
 <g id="figure_1">
  <g id="patch_1">
   <path d="M 0 720 
L 2160 720 
L 2160 0 
L 0 0 
z
" style="fill: #ffffff"/>
  </g>
  <g id="axes_1">
   <g id="patch_2">
    <path d="M 84.71 647.08 
L 696.006 647.08 
L 696.006 21.6 
L 84.71 21.6 
z
" style="fill: #ffffff"/>
   </g>
   <g id="matplotlib.axis_1">
    <g id="xtick_1">
     <g id="line2d_1">
      <defs>
       <path id="mf2e961bc37" d="M 0 0 
L 0 3.5 
" style="stroke: #000000; stroke-width: 0.8"/>
      </defs>
      <g>
       <use xlink:href="#mf2e961bc37" x="84.71" y="647.08" style="stroke: #000000; stroke-width: 0.8"/>
      </g>
     </g>
     <g id="text_1">
      <!-- 1.0 -->
      <g transform="translate(68.806875 669.276875) scale(0.2 -0.2)">
       <defs>
        <path id="DejaVuSans-31" d="M 794 531 
L 1825 531 
L 1825 4091 
L 703 3866 
L 703 4441 
L 1819 4666 
L 2450 4666 
L 2450 531 
L 3481 531 
L 3481 0 
L 794 0 
L 794 531 
z
" transform="scale(0.015625)"/>
        <path id="DejaVuSans-2e" d="M 684 794 
L 1344 794 
L 1344 0 
L 684 0 
L 684 794 
z
" transform="scale(0.015625)"/>
        <path id="DejaVuSans-30" d="M 2034 4250 
Q 1547 4250 1301 3770 
Q 1056 3291 1056 2328 
Q 1056 1369 1301 889 
Q 1547 409 2034 409 
Q 2525 409 2770 889 
Q 3016 1369 3016 2328 
Q 3016 3291 2770 3770 
Q 2525 4250 2034 4250 
z
M 2034 4750 
Q 2819 4750 3233 4129 
Q 3647 3509 3647 2328 
Q 3647 1150 3233 529 
Q 2819 -91 2034 -91 
Q 1250 -91 836 529 
Q 422 1150 422 2328 
Q 422 3509 836 4129 
Q 1250 4750 2034 4750 
z
" transform="scale(0.015625)"/>
       </defs>
       <use xlink:href="#DejaVuSans-31"/>
       <use xlink:href="#DejaVuSans-2e" x="63.623047"/>
       <use xlink:href="#DejaVuSans-30" x="95.410156"/>
      </g>
     </g>
    </g>
    <g id="xtick_2">
     <g id="line2d_2">
      <g>
       <use xlink:href="#mf2e961bc37" x="206.9692" y="647.08" style="stroke: #000000; stroke-width: 0.8"/>
      </g>
     </g>
     <g id="text_2">
      <!-- 1.2 -->
      <g transform="translate(191.066075 669.276875) scale(0.2 -0.2)">
       <defs>
        <path id="DejaVuSans-32" d="M 1228 531 
L 3431 531 
L 3431 0 
L 469 0 
L 469 531 
Q 828 903 1448 1529 
Q 2069 2156 2228 2338 
Q 2531 2678 2651 2914 
Q 2772 3150 2772 3378 
Q 2772 3750 2511 3984 
Q 2250 4219 1831 4219 
Q 1534 4219 1204 4116 
Q 875 4013 500 3803 
L 500 4441 
Q 881 4594 1212 4672 
Q 1544 4750 1819 4750 
Q 2544 4750 2975 4387 
Q 3406 4025 3406 3419 
Q 3406 3131 3298 2873 
Q 3191 2616 2906 2266 
Q 2828 2175 2409 1742 
Q 1991 1309 1228 531 
z
" transform="scale(0.015625)"/>
       </defs>
       <use xlink:href="#DejaVuSans-31"/>
       <use xlink:href="#DejaVuSans-2e" x="63.623047"/>
       <use xlink:href="#DejaVuSans-32" x="95.410156"/>
      </g>
     </g>
    </g>
    <g id="xtick_3">
     <g id="line2d_3">
      <g>
       <use xlink:href="#mf2e961bc37" x="329.2284" y="647.08" style="stroke: #000000; stroke-width: 0.8"/>
      </g>
     </g>
     <g id="text_3">
      <!-- 1.4 -->
      <g transform="translate(313.325275 669.276875) scale(0.2 -0.2)">
       <defs>
        <path id="DejaVuSans-34" d="M 2419 4116 
L 825 1625 
L 2419 1625 
L 2419 4116 
z
M 2253 4666 
L 3047 4666 
L 3047 1625 
L 3713 1625 
L 3713 1100 
L 3047 1100 
L 3047 0 
L 2419 0 
L 2419 1100 
L 313 1100 
L 313 1709 
L 2253 4666 
z
" transform="scale(0.015625)"/>
       </defs>
       <use xlink:href="#DejaVuSans-31"/>
       <use xlink:href="#DejaVuSans-2e" x="63.623047"/>
       <use xlink:href="#DejaVuSans-34" x="95.410156"/>
      </g>
     </g>
    </g>
    <g id="xtick_4">
     <g id="line2d_4">
      <g>
       <use xlink:href="#mf2e961bc37" x="451.4876" y="647.08" style="stroke: #000000; stroke-width: 0.8"/>
      </g>
     </g>
     <g id="text_4">
      <!-- 1.6 -->
      <g transform="translate(435.584475 669.276875) scale(0.2 -0.2)">
       <defs>
        <path id="DejaVuSans-36" d="M 2113 2584 
Q 1688 2584 1439 2293 
Q 1191 2003 1191 1497 
Q 1191 994 1439 701 
Q 1688 409 2113 409 
Q 2538 409 2786 701 
Q 3034 994 3034 1497 
Q 3034 2003 2786 2293 
Q 2538 2584 2113 2584 
z
M 3366 4563 
L 3366 3988 
Q 3128 4100 2886 4159 
Q 2644 4219 2406 4219 
Q 1781 4219 1451 3797 
Q 1122 3375 1075 2522 
Q 1259 2794 1537 2939 
Q 1816 3084 2150 3084 
Q 2853 3084 3261 2657 
Q 3669 2231 3669 1497 
Q 3669 778 3244 343 
Q 2819 -91 2113 -91 
Q 1303 -91 875 529 
Q 447 1150 447 2328 
Q 447 3434 972 4092 
Q 1497 4750 2381 4750 
Q 2619 4750 2861 4703 
Q 3103 4656 3366 4563 
z
" transform="scale(0.015625)"/>
       </defs>
       <use xlink:href="#DejaVuSans-31"/>
       <use xlink:href="#DejaVuSans-2e" x="63.623047"/>
       <use xlink:href="#DejaVuSans-36" x="95.410156"/>
      </g>
     </g>
    </g>
    <g id="xtick_5">
     <g id="line2d_5">
      <g>
       <use xlink:href="#mf2e961bc37" x="573.7468" y="647.08" style="stroke: #000000; stroke-width: 0.8"/>
      </g>
     </g>
     <g id="text_5">
      <!-- 1.8 -->
      <g transform="translate(557.843675 669.276875) scale(0.2 -0.2)">
       <defs>
        <path id="DejaVuSans-38" d="M 2034 2216 
Q 1584 2216 1326 1975 
Q 1069 1734 1069 1313 
Q 1069 891 1326 650 
Q 1584 409 2034 409 
Q 2484 409 2743 651 
Q 3003 894 3003 1313 
Q 3003 1734 2745 1975 
Q 2488 2216 2034 2216 
z
M 1403 2484 
Q 997 2584 770 2862 
Q 544 3141 544 3541 
Q 544 4100 942 4425 
Q 1341 4750 2034 4750 
Q 2731 4750 3128 4425 
Q 3525 4100 3525 3541 
Q 3525 3141 3298 2862 
Q 3072 2584 2669 2484 
Q 3125 2378 3379 2068 
Q 3634 1759 3634 1313 
Q 3634 634 3220 271 
Q 2806 -91 2034 -91 
Q 1263 -91 848 271 
Q 434 634 434 1313 
Q 434 1759 690 2068 
Q 947 2378 1403 2484 
z
M 1172 3481 
Q 1172 3119 1398 2916 
Q 1625 2713 2034 2713 
Q 2441 2713 2670 2916 
Q 2900 3119 2900 3481 
Q 2900 3844 2670 4047 
Q 2441 4250 2034 4250 
Q 1625 4250 1398 4047 
Q 1172 3844 1172 3481 
z
" transform="scale(0.015625)"/>
       </defs>
       <use xlink:href="#DejaVuSans-31"/>
       <use xlink:href="#DejaVuSans-2e" x="63.623047"/>
       <use xlink:href="#DejaVuSans-38" x="95.410156"/>
      </g>
     </g>
    </g>
    <g id="xtick_6">
     <g id="line2d_6">
      <g>
       <use xlink:href="#mf2e961bc37" x="696.006" y="647.08" style="stroke: #000000; stroke-width: 0.8"/>
      </g>
     </g>
     <g id="text_6">
      <!-- 2.0 -->
      <g transform="translate(680.102875 669.276875) scale(0.2 -0.2)">
       <use xlink:href="#DejaVuSans-32"/>
       <use xlink:href="#DejaVuSans-2e" x="63.623047"/>
       <use xlink:href="#DejaVuSans-30" x="95.410156"/>
      </g>
     </g>
    </g>
    <g id="text_7">
     <!-- Position $x$ -->
     <g transform="translate(341.958 692.633125) scale(0.2 -0.2)">
      <defs>
       <path id="DejaVuSans-50" d="M 1259 4147 
L 1259 2394 
L 2053 2394 
Q 2494 2394 2734 2622 
Q 2975 2850 2975 3272 
Q 2975 3691 2734 3919 
Q 2494 4147 2053 4147 
L 1259 4147 
z
M 628 4666 
L 2053 4666 
Q 2838 4666 3239 4311 
Q 3641 3956 3641 3272 
Q 3641 2581 3239 2228 
Q 2838 1875 2053 1875 
L 1259 1875 
L 1259 0 
L 628 0 
L 628 4666 
z
" transform="scale(0.015625)"/>
       <path id="DejaVuSans-6f" d="M 1959 3097 
Q 1497 3097 1228 2736 
Q 959 2375 959 1747 
Q 959 1119 1226 758 
Q 1494 397 1959 397 
Q 2419 397 2687 759 
Q 2956 1122 2956 1747 
Q 2956 2369 2687 2733 
Q 2419 3097 1959 3097 
z
M 1959 3584 
Q 2709 3584 3137 3096 
Q 3566 2609 3566 1747 
Q 3566 888 3137 398 
Q 2709 -91 1959 -91 
Q 1206 -91 779 398 
Q 353 888 353 1747 
Q 353 2609 779 3096 
Q 1206 3584 1959 3584 
z
" transform="scale(0.015625)"/>
       <path id="DejaVuSans-73" d="M 2834 3397 
L 2834 2853 
Q 2591 2978 2328 3040 
Q 2066 3103 1784 3103 
Q 1356 3103 1142 2972 
Q 928 2841 928 2578 
Q 928 2378 1081 2264 
Q 1234 2150 1697 2047 
L 1894 2003 
Q 2506 1872 2764 1633 
Q 3022 1394 3022 966 
Q 3022 478 2636 193 
Q 2250 -91 1575 -91 
Q 1294 -91 989 -36 
Q 684 19 347 128 
L 347 722 
Q 666 556 975 473 
Q 1284 391 1588 391 
Q 1994 391 2212 530 
Q 2431 669 2431 922 
Q 2431 1156 2273 1281 
Q 2116 1406 1581 1522 
L 1381 1569 
Q 847 1681 609 1914 
Q 372 2147 372 2553 
Q 372 3047 722 3315 
Q 1072 3584 1716 3584 
Q 2034 3584 2315 3537 
Q 2597 3491 2834 3397 
z
" transform="scale(0.015625)"/>
       <path id="DejaVuSans-69" d="M 603 3500 
L 1178 3500 
L 1178 0 
L 603 0 
L 603 3500 
z
M 603 4863 
L 1178 4863 
L 1178 4134 
L 603 4134 
L 603 4863 
z
" transform="scale(0.015625)"/>
       <path id="DejaVuSans-74" d="M 1172 4494 
L 1172 3500 
L 2356 3500 
L 2356 3053 
L 1172 3053 
L 1172 1153 
Q 1172 725 1289 603 
Q 1406 481 1766 481 
L 2356 481 
L 2356 0 
L 1766 0 
Q 1100 0 847 248 
Q 594 497 594 1153 
L 594 3053 
L 172 3053 
L 172 3500 
L 594 3500 
L 594 4494 
L 1172 4494 
z
" transform="scale(0.015625)"/>
       <path id="DejaVuSans-6e" d="M 3513 2113 
L 3513 0 
L 2938 0 
L 2938 2094 
Q 2938 2591 2744 2837 
Q 2550 3084 2163 3084 
Q 1697 3084 1428 2787 
Q 1159 2491 1159 1978 
L 1159 0 
L 581 0 
L 581 3500 
L 1159 3500 
L 1159 2956 
Q 1366 3272 1645 3428 
Q 1925 3584 2291 3584 
Q 2894 3584 3203 3211 
Q 3513 2838 3513 2113 
z
" transform="scale(0.015625)"/>
       <path id="DejaVuSans-20" transform="scale(0.015625)"/>
       <path id="DejaVuSans-Oblique-78" d="M 3841 3500 
L 2234 1784 
L 3219 0 
L 2559 0 
L 1819 1388 
L 531 0 
L -166 0 
L 1556 1844 
L 641 3500 
L 1300 3500 
L 1972 2234 
L 3144 3500 
L 3841 3500 
z
" transform="scale(0.015625)"/>
      </defs>
      <use xlink:href="#DejaVuSans-50" transform="translate(0 0.015625)"/>
      <use xlink:href="#DejaVuSans-6f" transform="translate(60.302734 0.015625)"/>
      <use xlink:href="#DejaVuSans-73" transform="translate(121.484375 0.015625)"/>
      <use xlink:href="#DejaVuSans-69" transform="translate(173.583984 0.015625)"/>
      <use xlink:href="#DejaVuSans-74" transform="translate(201.367188 0.015625)"/>
      <use xlink:href="#DejaVuSans-69" transform="translate(240.576172 0.015625)"/>
      <use xlink:href="#DejaVuSans-6f" transform="translate(268.359375 0.015625)"/>
      <use xlink:href="#DejaVuSans-6e" transform="translate(329.541016 0.015625)"/>
      <use xlink:href="#DejaVuSans-20" transform="translate(392.919922 0.015625)"/>
      <use xlink:href="#DejaVuSans-Oblique-78" transform="translate(424.707031 0.015625)"/>
     </g>
    </g>
   </g>
   <g id="matplotlib.axis_2">
    <g id="ytick_1">
     <g id="line2d_7">
      <defs>
       <path id="mcb4063a038" d="M 0 0 
L -3.5 0 
" style="stroke: #000000; stroke-width: 0.8"/>
      </defs>
      <g>
       <use xlink:href="#mcb4063a038" x="84.71" y="647.08" style="stroke: #000000; stroke-width: 0.8"/>
      </g>
     </g>
     <g id="text_8">
      <!-- 0.0 -->
      <g transform="translate(45.90375 654.678437) scale(0.2 -0.2)">
       <use xlink:href="#DejaVuSans-30"/>
       <use xlink:href="#DejaVuSans-2e" x="63.623047"/>
       <use xlink:href="#DejaVuSans-30" x="95.410156"/>
      </g>
     </g>
    </g>
    <g id="ytick_2">
     <g id="line2d_8">
      <g>
       <use xlink:href="#mcb4063a038" x="84.71" y="527.227545" style="stroke: #000000; stroke-width: 0.8"/>
      </g>
     </g>
     <g id="text_9">
      <!-- 0.2 -->
      <g transform="translate(45.90375 534.825982) scale(0.2 -0.2)">
       <use xlink:href="#DejaVuSans-30"/>
       <use xlink:href="#DejaVuSans-2e" x="63.623047"/>
       <use xlink:href="#DejaVuSans-32" x="95.410156"/>
      </g>
     </g>
    </g>
    <g id="ytick_3">
     <g id="line2d_9">
      <g>
       <use xlink:href="#mcb4063a038" x="84.71" y="407.37509" style="stroke: #000000; stroke-width: 0.8"/>
      </g>
     </g>
     <g id="text_10">
      <!-- 0.4 -->
      <g transform="translate(45.90375 414.973527) scale(0.2 -0.2)">
       <use xlink:href="#DejaVuSans-30"/>
       <use xlink:href="#DejaVuSans-2e" x="63.623047"/>
       <use xlink:href="#DejaVuSans-34" x="95.410156"/>
      </g>
     </g>
    </g>
    <g id="ytick_4">
     <g id="line2d_10">
      <g>
       <use xlink:href="#mcb4063a038" x="84.71" y="287.522635" style="stroke: #000000; stroke-width: 0.8"/>
      </g>
     </g>
     <g id="text_11">
      <!-- 0.6 -->
      <g transform="translate(45.90375 295.121072) scale(0.2 -0.2)">
       <use xlink:href="#DejaVuSans-30"/>
       <use xlink:href="#DejaVuSans-2e" x="63.623047"/>
       <use xlink:href="#DejaVuSans-36" x="95.410156"/>
      </g>
     </g>
    </g>
    <g id="ytick_5">
     <g id="line2d_11">
      <g>
       <use xlink:href="#mcb4063a038" x="84.71" y="167.67018" style="stroke: #000000; stroke-width: 0.8"/>
      </g>
     </g>
     <g id="text_12">
      <!-- 0.8 -->
      <g transform="translate(45.90375 175.268617) scale(0.2 -0.2)">
       <use xlink:href="#DejaVuSans-30"/>
       <use xlink:href="#DejaVuSans-2e" x="63.623047"/>
       <use xlink:href="#DejaVuSans-38" x="95.410156"/>
      </g>
     </g>
    </g>
    <g id="ytick_6">
     <g id="line2d_12">
      <g>
       <use xlink:href="#mcb4063a038" x="84.71" y="47.817725" style="stroke: #000000; stroke-width: 0.8"/>
      </g>
     </g>
     <g id="text_13">
      <!-- 1.0 -->
      <g transform="translate(45.90375 55.416162) scale(0.2 -0.2)">
       <use xlink:href="#DejaVuSans-31"/>
       <use xlink:href="#DejaVuSans-2e" x="63.623047"/>
       <use xlink:href="#DejaVuSans-30" x="95.410156"/>
      </g>
     </g>
    </g>
    <g id="text_14">
     <!-- $\rho$ -->
     <g transform="translate(37.70375 340.74) rotate(-90) scale(0.2 -0.2)">
      <defs>
       <path id="DejaVuSans-Oblique-3c1" d="M 1203 2875 
Q 1453 3194 1981 3475 
Q 2188 3584 2756 3584 
Q 3394 3584 3694 3078 
Q 3994 2572 3834 1747 
Q 3672 922 3175 415 
Q 2678 -91 2041 -91 
Q 1656 -91 1409 63 
Q 1163 213 1044 525 
L 681 -1331 
L 103 -1331 
L 697 1716 
Q 838 2438 1203 2875 
z
M 3238 1747 
Q 3359 2381 3169 2744 
Q 2978 3103 2522 3103 
Q 2066 3103 1734 2744 
Q 1403 2381 1281 1747 
Q 1156 1113 1347 750 
Q 1538 391 1994 391 
Q 2450 391 2781 750 
Q 3113 1113 3238 1747 
z
" transform="scale(0.015625)"/>
      </defs>
      <use xlink:href="#DejaVuSans-Oblique-3c1"/>
     </g>
    </g>
   </g>
   <g id="line2d_13">
    <path d="M 77.0688 47.817725 
L 229.8928 47.817725 
L 229.8928 47.817725 
L 237.534 62.85869 
L 237.534 62.85869 
L 245.1752 83.948731 
L 245.1752 83.948731 
L 252.8164 104.525005 
L 252.8164 104.525005 
L 260.4576 124.593849 
L 260.4576 124.593849 
L 268.0988 144.161598 
L 268.0988 144.161598 
L 275.74 163.234587 
L 275.74 163.234587 
L 283.3812 181.819151 
L 283.3812 181.819151 
L 291.0224 199.921626 
L 291.0224 199.921626 
L 298.6636 217.548346 
L 298.6636 217.548346 
L 306.3048 234.705648 
L 306.3048 234.705648 
L 313.946 251.399867 
L 313.946 251.399867 
L 321.5872 267.637337 
L 321.5872 267.637337 
L 329.2284 283.424395 
L 329.2284 283.424395 
L 336.8696 298.767374 
L 336.8696 298.767374 
L 344.5108 313.672612 
L 344.5108 313.672612 
L 352.152 328.146443 
L 352.152 328.146443 
L 359.7932 342.195202 
L 359.7932 342.195202 
L 367.4344 355.825224 
L 367.4344 355.825224 
L 375.0756 359.620443 
L 375.0756 359.620443 
L 489.6936 359.620443 
L 489.6936 359.620443 
L 497.3348 509.366084 
L 497.3348 509.366084 
L 611.9528 509.366084 
L 611.9528 509.366084 
L 619.594 572.172216 
L 619.594 572.172216 
L 688.3648 572.172216 
L 688.3648 572.172216 
" clip-path="url(#p85dd0380f2)" style="fill: none; stroke: #1f77b4; stroke-width: 1.5; stroke-linecap: square"/>
   </g>
   <g id="line2d_14">
    <path d="M 77.0688 47.853081 
L 107.6336 47.916004 
L 107.6336 47.916004 
L 122.916 48.117955 
L 122.916 48.117955 
L 130.5572 48.325899 
L 130.5572 48.325899 
L 138.1984 48.656692 
L 138.1984 48.656692 
L 145.8396 49.165465 
L 145.8396 49.165465 
L 153.4808 49.924731 
L 153.4808 49.924731 
L 161.122 51.023178 
L 161.122 51.023178 
L 168.7632 52.56508 
L 168.7632 52.56508 
L 176.4044 54.663697 
L 176.4044 54.663697 
L 184.0456 57.435285 
L 184.0456 57.435285 
L 191.6868 60.991906 
L 191.6868 60.991906 
L 199.328 65.431241 
L 199.328 65.431241 
L 206.9692 70.831194 
L 206.9692 70.831194 
L 214.6104 77.240304 
L 214.6104 77.240304 
L 222.2516 84.680145 
L 222.2516 84.680145 
L 229.8928 93.141129 
L 229.8928 93.141129 
L 237.534 102.588499 
L 237.534 102.588499 
L 245.1752 112.965324 
L 245.1752 112.965324 
L 252.8164 124.196099 
L 252.8164 124.196099 
L 260.4576 136.195726 
L 260.4576 136.195726 
L 268.0988 148.870723 
L 268.0988 148.870723 
L 275.74 162.125805 
L 275.74 162.125805 
L 283.3812 175.867488 
L 283.3812 175.867488 
L 291.0224 190.002288 
L 291.0224 190.002288 
L 306.3048 219.110853 
L 306.3048 219.110853 
L 344.5108 293.170082 
L 344.5108 293.170082 
L 352.152 307.567958 
L 352.152 307.567958 
L 359.7932 321.548747 
L 359.7932 321.548747 
L 367.4344 334.839785 
L 367.4344 334.839785 
L 375.0756 346.908927 
L 375.0756 346.908927 
L 382.7168 356.704468 
L 382.7168 356.704468 
L 390.358 362.635367 
L 390.358 362.635367 
L 397.9992 364.410382 
L 397.9992 364.410382 
L 413.2816 365.275716 
L 413.2816 365.275117 
L 420.9228 366.015206 
L 420.9228 366.015206 
L 428.564 367.328789 
L 428.564 367.32819 
L 436.2052 369.670706 
L 436.2052 369.670706 
L 443.8464 373.6558 
L 443.8464 373.6558 
L 451.4876 379.924683 
L 451.4876 379.924683 
L 459.1288 388.929797 
L 459.1288 388.929797 
L 466.77 400.733466 
L 466.77 400.733466 
L 474.4112 414.897629 
L 474.4112 414.897629 
L 482.0524 430.529985 
L 482.0524 430.529985 
L 489.6936 446.472159 
L 489.6936 446.472159 
L 497.3348 461.560984 
L 497.3348 461.560984 
L 504.976 474.86161 
L 504.976 474.86161 
L 512.6172 485.814926 
L 512.6172 485.814926 
L 520.2584 494.259131 
L 520.2584 494.259131 
L 527.8996 500.362617 
L 527.8996 500.362617 
L 535.5408 504.505916 
L 535.5408 504.505916 
L 543.182 507.158251 
L 543.182 507.158251 
L 550.8232 508.787046 
L 550.8232 508.787046 
L 558.4644 509.808788 
L 558.4644 509.808788 
L 573.7468 511.401028 
L 573.7468 511.400429 
L 581.388 512.588167 
L 581.388 512.588167 
L 589.0292 514.477641 
L 589.0292 514.477041 
L 596.6704 517.466761 
L 596.6704 517.466162 
L 604.3116 521.99239 
L 604.3116 521.99239 
L 611.9528 528.411687 
L 611.9528 528.411687 
L 619.594 536.731245 
L 619.594 536.731245 
L 627.2352 546.260714 
L 627.2352 546.260714 
L 634.8764 555.531301 
L 634.8764 555.531301 
L 642.5176 562.914812 
L 642.5176 562.914812 
L 650.1588 567.656175 
L 650.1588 567.656175 
L 657.8 570.169481 
L 657.8 570.169481 
L 665.4412 571.333248 
L 665.4412 571.333248 
L 673.0824 571.830636 
L 673.0824 571.830636 
L 680.7236 572.033187 
L 680.7236 572.033187 
L 688.3648 572.111091 
L 688.3648 572.111091 
" clip-path="url(#p85dd0380f2)" style="fill: none; stroke: #ff7f0e; stroke-width: 1.5; stroke-linecap: square"/>
   </g>
   <g id="line2d_15">
    <path d="M 77.0688 48.419384 
L 92.3512 48.419384 
L 92.3512 48.419384 
L 99.9924 48.566802 
L 99.9924 48.566802 
L 107.6336 48.826283 
L 107.6336 48.826283 
L 115.2748 49.221197 
L 115.2748 49.221197 
L 122.916 49.781507 
L 122.916 49.781507 
L 130.5572 50.544967 
L 130.5572 50.544368 
L 138.1984 51.556522 
L 138.1984 51.555923 
L 145.8396 52.866509 
L 145.8396 52.866509 
L 153.4808 54.529462 
L 153.4808 54.529462 
L 161.122 56.601112 
L 161.122 56.601112 
L 168.7632 59.137789 
L 168.7632 59.137789 
L 176.4044 62.193427 
L 176.4044 62.193427 
L 184.0456 65.816567 
L 184.0456 65.816567 
L 191.6868 70.050954 
L 199.328 74.931346 
L 199.328 74.931346 
L 206.9692 80.485908 
L 206.9692 80.485908 
L 214.6104 86.732019 
L 214.6104 86.732019 
L 222.2516 93.678068 
L 222.2516 93.678068 
L 229.8928 101.324055 
L 229.8928 101.324055 
L 237.534 109.659794 
L 237.534 109.659794 
L 245.1752 118.668503 
L 245.1752 118.668503 
L 252.8164 128.325615 
L 252.8164 128.325615 
L 260.4576 138.599967 
L 260.4576 138.599367 
L 268.0988 149.454404 
L 268.0988 149.454404 
L 275.74 160.849376 
L 275.74 160.848777 
L 283.3812 172.739339 
L 283.3812 172.73874 
L 291.0224 185.076951 
L 291.0224 185.076352 
L 298.6636 197.812473 
L 298.6636 197.812473 
L 306.3048 210.893769 
L 306.3048 210.893769 
L 313.946 224.267505 
L 313.946 224.266906 
L 329.2284 251.655589 
L 329.2284 251.65499 
L 352.152 293.250983 
L 352.152 293.250384 
L 359.7932 306.779928 
L 359.7932 306.779329 
L 367.4344 319.716802 
L 367.4344 319.716203 
L 375.0756 331.511482 
L 375.0756 331.510883 
L 382.7168 341.298634 
L 382.7168 341.298034 
L 390.358 348.208128 
L 390.358 348.208128 
L 397.9992 352.464688 
L 397.9992 352.464088 
L 405.6404 355.603623 
L 405.6404 355.603623 
L 413.2816 358.607725 
L 413.2816 358.607725 
L 420.9228 362.093634 
L 420.9228 362.093634 
L 428.564 366.508399 
L 436.2052 372.072549 
L 443.8464 378.983841 
L 451.4876 387.301601 
L 459.1288 396.98508 
L 466.77 407.857496 
L 474.4112 419.624011 
L 489.6936 444.208746 
L 489.6936 444.208146 
L 497.3348 456.120282 
L 497.3348 456.119683 
L 504.976 467.213825 
L 504.976 467.213825 
L 512.6172 477.168171 
L 512.6172 477.167571 
L 520.2584 485.776573 
L 520.2584 485.775974 
L 527.8996 492.95993 
L 527.8996 492.959331 
L 535.5408 498.760789 
L 535.5408 498.76019 
L 543.182 503.318778 
L 543.182 503.318778 
L 550.8232 506.847234 
L 550.8232 506.847234 
L 558.4644 509.598447 
L 558.4644 509.598447 
L 566.1056 511.840887 
L 566.1056 511.840887 
L 581.388 515.821786 
L 581.388 515.821187 
L 589.0292 518.010292 
L 589.0292 518.010292 
L 596.6704 520.579928 
L 596.6704 520.579928 
L 604.3116 523.671523 
L 604.3116 523.671523 
L 611.9528 527.387548 
L 611.9528 527.387548 
L 619.594 531.778942 
L 619.594 531.778942 
L 627.2352 536.830124 
L 627.2352 536.830124 
L 634.8764 542.433226 
L 634.8764 542.433226 
L 650.1588 554.218917 
L 650.1588 554.218917 
L 657.8 559.547557 
L 657.8 559.547557 
L 665.4412 563.898201 
L 665.4412 563.898201 
L 673.0824 567.049722 
L 673.0824 567.049722 
L 680.7236 569.05725 
L 680.7236 569.05725 
L 688.3648 570.128731 
L 688.3648 570.128731 
" clip-path="url(#p85dd0380f2)" style="fill: none; stroke: #2ca02c; stroke-width: 1.5; stroke-linecap: square"/>
   </g>
   <g id="line2d_16">
    <path d="M 77.0688 48.047841 
L 92.3512 48.047841 
L 92.3512 48.047841 
L 107.6336 48.315112 
L 107.6336 48.315112 
L 115.2748 48.5686 
L 115.2748 48.5686 
L 122.916 48.939544 
L 122.916 48.939544 
L 130.5572 49.466894 
L 130.5572 49.466894 
L 138.1984 50.199792 
L 138.1984 50.199792 
L 145.8396 51.196365 
L 145.8396 51.196365 
L 153.4808 52.52433 
L 153.4808 52.52433 
L 161.122 54.256198 
L 161.122 54.256198 
L 168.7632 56.469873 
L 168.7632 56.469873 
L 176.4044 59.244458 
L 176.4044 59.244458 
L 184.0456 62.65426 
L 184.0456 62.65426 
L 191.6868 66.768795 
L 191.6868 66.768795 
L 199.328 71.64619 
L 199.328 71.64619 
L 206.9692 77.330792 
L 206.9692 77.329594 
L 214.6104 83.852564 
L 214.6104 83.851964 
L 222.2516 91.23128 
L 222.2516 91.209107 
L 229.8928 99.446567 
L 229.8928 99.445368 
L 237.534 108.486438 
L 237.534 108.471456 
L 245.1752 118.330519 
L 245.1752 118.323328 
L 252.8164 128.93866 
L 252.8164 128.879933 
L 260.4576 140.240747 
L 260.4576 140.185015 
L 268.0988 152.18704 
L 268.0988 152.056401 
L 275.74 164.49409 
L 275.74 164.735592 
L 275.74 164.522255 
L 283.3812 177.471114 
L 283.3812 177.827675 
L 283.3812 177.439953 
L 291.0224 190.990471 
L 291.0224 191.339242 
L 291.0224 190.882604 
L 291.0224 190.99946 
L 298.6636 204.753728 
L 298.6636 205.118678 
L 298.6636 204.739345 
L 306.3048 219.108456 
L 306.3048 219.357749 
L 306.3048 218.90231 
L 306.3048 218.958041 
L 313.946 233.435619 
L 313.946 233.805364 
L 313.946 233.172543 
L 321.5872 248.416576 
L 321.5872 248.790516 
L 321.5872 247.777164 
L 329.2284 263.251913 
L 329.2284 263.861363 
L 329.2284 262.424931 
L 329.2284 262.654449 
L 336.8696 276.749697 
L 336.8696 279.729828 
L 336.8696 277.489786 
L 344.5108 291.635372 
L 344.5108 294.145681 
L 344.5108 291.595221 
L 352.152 307.023228 
L 352.152 308.981018 
L 352.152 305.410014 
L 359.7932 321.433688 
L 359.7932 318.282767 
L 359.7932 324.347901 
L 359.7932 320.162653 
L 367.4344 335.129228 
L 367.4344 328.31262 
L 367.4344 338.918364 
L 367.4344 335.025556 
L 375.0756 347.065934 
L 375.0756 339.170653 
L 375.0756 350.080223 
L 375.0756 346.808251 
L 382.7168 356.060261 
L 382.7168 347.71853 
L 382.7168 353.460661 
L 390.358 360.832786 
L 390.358 349.774 
L 390.358 357.6531 
L 397.9992 361.351747 
L 397.9992 351.69104 
L 397.9992 358.572369 
L 405.6404 362.071461 
L 405.6404 352.82005 
L 405.6404 362.610797 
L 405.6404 359.704375 
L 413.2816 362.478959 
L 413.2816 353.744112 
L 413.2816 363.465345 
L 413.2816 360.150226 
L 420.9228 363.248412 
L 420.9228 355.01335 
L 420.9228 364.52544 
L 420.9228 361.115638 
L 428.564 364.641098 
L 428.564 357.440362 
L 428.564 366.151838 
L 428.564 362.952377 
L 436.2052 367.52295 
L 436.2052 361.824565 
L 436.2052 369.145153 
L 436.2052 366.227345 
L 443.8464 372.481845 
L 443.8464 368.52192 
L 443.8464 374.069291 
L 443.8464 371.443324 
L 451.4876 379.758088 
L 451.4876 377.288528 
L 451.4876 381.221486 
L 451.4876 378.974852 
L 459.1288 389.433177 
L 459.1288 388.057271 
L 459.1288 390.712602 
L 459.1288 388.947176 
L 466.77 401.398647 
L 466.77 400.753841 
L 466.77 402.461139 
L 466.77 401.165534 
L 474.4112 415.178683 
L 474.4112 414.976133 
L 474.4112 416.01765 
L 474.4112 415.112764 
L 482.0524 430.028402 
L 482.0524 430.627065 
L 482.0524 429.930123 
L 482.0524 430.021211 
L 489.6936 445.071084 
L 489.6936 445.460604 
L 489.6936 444.902691 
L 489.6936 444.999173 
L 497.3348 459.273001 
L 497.3348 459.528286 
L 497.3348 459.091424 
L 497.3348 459.18431 
L 504.976 471.960582 
L 504.976 472.124779 
L 504.976 471.793387 
L 504.976 471.877883 
L 512.6172 482.710748 
L 512.6172 482.797041 
L 512.6172 482.553741 
L 512.6172 482.62745 
L 520.2584 491.356904 
L 520.2584 491.24604 
L 527.8996 497.852907 
L 527.8996 497.786988 
L 535.5408 502.519362 
L 535.5408 502.479211 
L 543.182 505.675077 
L 543.182 505.650507 
L 550.8232 507.684404 
L 550.8232 507.658036 
L 558.4644 508.869744 
L 558.4644 508.844575 
L 581.388 511.060647 
L 581.388 511.005515 
L 589.0292 512.417377 
L 589.0292 512.377226 
L 596.6704 514.535769 
L 596.6704 514.52678 
L 604.3116 517.732833 
L 604.3116 517.715455 
L 611.9528 522.179959 
L 611.9528 522.160183 
L 619.594 528.062317 
L 619.594 528.01977 
L 627.2352 535.16777 
L 642.5176 551.01586 
L 650.1588 558.079365 
L 657.8 563.581192 
L 665.4412 567.324184 
L 673.0824 569.584002 
L 680.7236 570.826272 
L 680.7236 570.826272 
L 688.3648 571.44591 
L 688.3648 571.44591 
" clip-path="url(#p85dd0380f2)" style="fill: none; stroke: #d62728; stroke-width: 1.5; stroke-linecap: square"/>
   </g>
   <g id="line2d_17">
    <path d="M 77.0688 48.425376 
L 92.3512 48.425976 
L 92.3512 48.426575 
L 99.9924 48.576391 
L 107.6336 48.839467 
L 107.6336 48.839467 
L 115.2748 49.239774 
L 122.916 49.807275 
L 130.5572 50.580324 
L 138.1984 51.604463 
L 145.8396 52.93063 
L 153.4808 54.613359 
L 161.122 56.70838 
L 168.7632 59.272623 
L 176.4044 62.359423 
L 176.4044 62.359423 
L 184.0456 66.015522 
L 191.6868 70.286464 
L 191.6868 70.285266 
L 199.328 75.204011 
L 206.9692 80.797525 
L 214.6104 87.084385 
L 222.2516 94.108338 
L 222.2516 94.072383 
L 229.8928 101.824439 
L 229.8928 101.75852 
L 237.534 110.227894 
L 237.534 110.134409 
L 245.1752 119.249189 
L 245.1752 119.172483 
L 252.8164 128.948848 
L 252.8164 128.943454 
L 260.4576 139.367022 
L 260.4576 139.224997 
L 268.0988 150.30296 
L 268.0988 150.069847 
L 275.74 161.893891 
L 275.74 161.435455 
L 275.74 161.507366 
L 283.3812 173.724526 
L 283.3812 173.465645 
L 298.6636 198.849796 
L 298.6636 198.72455 
L 298.6636 199.053545 
L 298.6636 198.703576 
L 306.3048 212.347579 
L 306.3048 211.858581 
L 313.946 225.684161 
L 313.946 225.1652 
L 313.946 225.784837 
L 313.946 225.358762 
L 321.5872 239.106438 
L 321.5872 239.726674 
L 321.5872 238.799016 
L 321.5872 239.125614 
L 329.2284 253.405435 
L 329.2284 253.053668 
L 329.2284 253.590607 
L 329.2284 253.131572 
L 336.8696 267.886608 
L 336.8696 267.328095 
L 344.5108 282.778275 
L 344.5108 281.676232 
L 352.152 296.184971 
L 352.152 297.098247 
L 352.152 296.123846 
L 359.7932 310.660151 
L 359.7932 310.133999 
L 359.7932 310.982554 
L 359.7932 310.476777 
L 367.4344 324.690679 
L 367.4344 324.995104 
L 367.4344 324.311945 
L 367.4344 324.566632 
L 375.0756 337.671898 
L 375.0756 338.79971 
L 375.0756 337.736619 
L 382.7168 348.605438 
L 382.7168 348.338167 
L 382.7168 350.251013 
L 390.358 356.55645 
L 390.358 357.577593 
L 390.358 357.01968 
L 397.9992 358.679637 
L 397.9992 358.574166 
L 397.9992 358.388994 
L 397.9992 359.238149 
L 405.6404 361.680742 
L 405.6404 361.607033 
L 405.6404 361.826363 
L 405.6404 361.733477 
L 413.2816 363.343096 
L 413.2816 363.304743 
L 413.2816 363.709844 
L 420.9228 366.522781 
L 420.9228 366.495215 
L 420.9228 366.76728 
L 420.9228 366.752898 
L 428.564 370.565405 
L 428.564 370.870429 
L 436.2052 376.083412 
L 436.2052 376.372855 
L 436.2052 376.362069 
L 443.8464 383.260776 
L 443.8464 383.447146 
L 443.8464 383.421977 
L 451.4876 391.982439 
L 451.4876 392.192181 
L 451.4876 392.146637 
L 459.1288 402.360463 
L 459.1288 402.588183 
L 459.1288 402.519268 
L 466.77 414.233647 
L 466.77 414.46616 
L 466.77 414.224058 
L 466.77 414.361889 
L 474.4112 427.290972 
L 474.4112 427.512699 
L 474.4112 427.258612 
L 474.4112 427.375468 
L 482.0524 440.855274 
L 482.0524 441.271162 
L 482.0524 441.107563 
L 489.6936 454.824677 
L 489.6936 454.819883 
L 489.6936 455.208804 
L 489.6936 455.027227 
L 497.3348 468.043803 
L 497.3348 468.036013 
L 497.3348 468.360813 
L 497.3348 468.185828 
L 504.976 479.663499 
L 504.976 479.655708 
L 504.976 479.907998 
L 504.976 479.757583 
L 512.6172 489.183979 
L 512.6172 489.177387 
L 512.6172 489.360761 
L 512.6172 489.243306 
L 520.2584 496.604643 
L 520.2584 496.50996 
L 527.8996 501.79845 
L 527.8996 501.730134 
L 535.5408 505.302935 
L 535.5408 505.257991 
L 543.182 507.547173 
L 543.182 507.520206 
L 550.8232 508.953641 
L 550.8232 508.93866 
L 558.4644 509.894483 
L 558.4644 509.887292 
L 566.1056 510.698094 
L 566.1056 510.695097 
L 573.7468 511.662906 
L 573.7468 511.662906 
L 581.388 513.095742 
L 581.388 513.095742 
L 589.0292 515.344174 
L 596.6704 518.814502 
L 604.3116 523.929205 
L 611.9528 530.962747 
L 619.594 539.738943 
L 627.2352 549.31815 
L 634.8764 558.09914 
L 642.5176 564.646081 
L 650.1588 568.597616 
L 650.1588 568.597616 
L 657.8 570.599152 
L 657.8 570.599152 
L 665.4412 571.497446 
L 665.4412 571.497446 
L 673.0824 571.879176 
L 673.0824 571.879176 
L 688.3648 572.100304 
L 688.3648 572.100304 
" clip-path="url(#p85dd0380f2)" style="fill: none; stroke: #9467bd; stroke-width: 1.5; stroke-linecap: square"/>
   </g>
   <g id="patch_3">
    <path d="M 84.71 647.08 
L 84.71 21.6 
" style="fill: none; stroke: #000000; stroke-width: 0.8; stroke-linejoin: miter; stroke-linecap: square"/>
   </g>
   <g id="patch_4">
    <path d="M 696.006 647.08 
L 696.006 21.6 
" style="fill: none; stroke: #000000; stroke-width: 0.8; stroke-linejoin: miter; stroke-linecap: square"/>
   </g>
   <g id="patch_5">
    <path d="M 84.71 647.08 
L 696.006 647.08 
" style="fill: none; stroke: #000000; stroke-width: 0.8; stroke-linejoin: miter; stroke-linecap: square"/>
   </g>
   <g id="patch_6">
    <path d="M 84.71 21.6 
L 696.006 21.6 
" style="fill: none; stroke: #000000; stroke-width: 0.8; stroke-linejoin: miter; stroke-linecap: square"/>
   </g>
  </g>
  <g id="axes_2">
   <g id="patch_7">
    <path d="M 797.942 647.08 
L 1409.238 647.08 
L 1409.238 21.6 
L 797.942 21.6 
z
" style="fill: #ffffff"/>
   </g>
   <g id="matplotlib.axis_3">
    <g id="xtick_7">
     <g id="line2d_18">
      <g>
       <use xlink:href="#mf2e961bc37" x="797.942" y="647.08" style="stroke: #000000; stroke-width: 0.8"/>
      </g>
     </g>
     <g id="text_15">
      <!-- 1.0 -->
      <g transform="translate(782.038875 669.276875) scale(0.2 -0.2)">
       <use xlink:href="#DejaVuSans-31"/>
       <use xlink:href="#DejaVuSans-2e" x="63.623047"/>
       <use xlink:href="#DejaVuSans-30" x="95.410156"/>
      </g>
     </g>
    </g>
    <g id="xtick_8">
     <g id="line2d_19">
      <g>
       <use xlink:href="#mf2e961bc37" x="920.2012" y="647.08" style="stroke: #000000; stroke-width: 0.8"/>
      </g>
     </g>
     <g id="text_16">
      <!-- 1.2 -->
      <g transform="translate(904.298075 669.276875) scale(0.2 -0.2)">
       <use xlink:href="#DejaVuSans-31"/>
       <use xlink:href="#DejaVuSans-2e" x="63.623047"/>
       <use xlink:href="#DejaVuSans-32" x="95.410156"/>
      </g>
     </g>
    </g>
    <g id="xtick_9">
     <g id="line2d_20">
      <g>
       <use xlink:href="#mf2e961bc37" x="1042.4604" y="647.08" style="stroke: #000000; stroke-width: 0.8"/>
      </g>
     </g>
     <g id="text_17">
      <!-- 1.4 -->
      <g transform="translate(1026.557275 669.276875) scale(0.2 -0.2)">
       <use xlink:href="#DejaVuSans-31"/>
       <use xlink:href="#DejaVuSans-2e" x="63.623047"/>
       <use xlink:href="#DejaVuSans-34" x="95.410156"/>
      </g>
     </g>
    </g>
    <g id="xtick_10">
     <g id="line2d_21">
      <g>
       <use xlink:href="#mf2e961bc37" x="1164.7196" y="647.08" style="stroke: #000000; stroke-width: 0.8"/>
      </g>
     </g>
     <g id="text_18">
      <!-- 1.6 -->
      <g transform="translate(1148.816475 669.276875) scale(0.2 -0.2)">
       <use xlink:href="#DejaVuSans-31"/>
       <use xlink:href="#DejaVuSans-2e" x="63.623047"/>
       <use xlink:href="#DejaVuSans-36" x="95.410156"/>
      </g>
     </g>
    </g>
    <g id="xtick_11">
     <g id="line2d_22">
      <g>
       <use xlink:href="#mf2e961bc37" x="1286.9788" y="647.08" style="stroke: #000000; stroke-width: 0.8"/>
      </g>
     </g>
     <g id="text_19">
      <!-- 1.8 -->
      <g transform="translate(1271.075675 669.276875) scale(0.2 -0.2)">
       <use xlink:href="#DejaVuSans-31"/>
       <use xlink:href="#DejaVuSans-2e" x="63.623047"/>
       <use xlink:href="#DejaVuSans-38" x="95.410156"/>
      </g>
     </g>
    </g>
    <g id="xtick_12">
     <g id="line2d_23">
      <g>
       <use xlink:href="#mf2e961bc37" x="1409.238" y="647.08" style="stroke: #000000; stroke-width: 0.8"/>
      </g>
     </g>
     <g id="text_20">
      <!-- 2.0 -->
      <g transform="translate(1393.334875 669.276875) scale(0.2 -0.2)">
       <use xlink:href="#DejaVuSans-32"/>
       <use xlink:href="#DejaVuSans-2e" x="63.623047"/>
       <use xlink:href="#DejaVuSans-30" x="95.410156"/>
      </g>
     </g>
    </g>
    <g id="text_21">
     <!-- Position $x$ -->
     <g transform="translate(1055.19 692.633125) scale(0.2 -0.2)">
      <use xlink:href="#DejaVuSans-50" transform="translate(0 0.015625)"/>
      <use xlink:href="#DejaVuSans-6f" transform="translate(60.302734 0.015625)"/>
      <use xlink:href="#DejaVuSans-73" transform="translate(121.484375 0.015625)"/>
      <use xlink:href="#DejaVuSans-69" transform="translate(173.583984 0.015625)"/>
      <use xlink:href="#DejaVuSans-74" transform="translate(201.367188 0.015625)"/>
      <use xlink:href="#DejaVuSans-69" transform="translate(240.576172 0.015625)"/>
      <use xlink:href="#DejaVuSans-6f" transform="translate(268.359375 0.015625)"/>
      <use xlink:href="#DejaVuSans-6e" transform="translate(329.541016 0.015625)"/>
      <use xlink:href="#DejaVuSans-20" transform="translate(392.919922 0.015625)"/>
      <use xlink:href="#DejaVuSans-Oblique-78" transform="translate(424.707031 0.015625)"/>
     </g>
    </g>
   </g>
   <g id="matplotlib.axis_4">
    <g id="ytick_7">
     <g id="line2d_24">
      <g>
       <use xlink:href="#mcb4063a038" x="797.942" y="647.08" style="stroke: #000000; stroke-width: 0.8"/>
      </g>
     </g>
     <g id="text_22">
      <!-- 0.0 -->
      <g transform="translate(759.13575 654.678437) scale(0.2 -0.2)">
       <use xlink:href="#DejaVuSans-30"/>
       <use xlink:href="#DejaVuSans-2e" x="63.623047"/>
       <use xlink:href="#DejaVuSans-30" x="95.410156"/>
      </g>
     </g>
    </g>
    <g id="ytick_8">
     <g id="line2d_25">
      <g>
       <use xlink:href="#mcb4063a038" x="797.942" y="513.620756" style="stroke: #000000; stroke-width: 0.8"/>
      </g>
     </g>
     <g id="text_23">
      <!-- 0.2 -->
      <g transform="translate(759.13575 521.219194) scale(0.2 -0.2)">
       <use xlink:href="#DejaVuSans-30"/>
       <use xlink:href="#DejaVuSans-2e" x="63.623047"/>
       <use xlink:href="#DejaVuSans-32" x="95.410156"/>
      </g>
     </g>
    </g>
    <g id="ytick_9">
     <g id="line2d_26">
      <g>
       <use xlink:href="#mcb4063a038" x="797.942" y="380.161513" style="stroke: #000000; stroke-width: 0.8"/>
      </g>
     </g>
     <g id="text_24">
      <!-- 0.4 -->
      <g transform="translate(759.13575 387.75995) scale(0.2 -0.2)">
       <use xlink:href="#DejaVuSans-30"/>
       <use xlink:href="#DejaVuSans-2e" x="63.623047"/>
       <use xlink:href="#DejaVuSans-34" x="95.410156"/>
      </g>
     </g>
    </g>
    <g id="ytick_10">
     <g id="line2d_27">
      <g>
       <use xlink:href="#mcb4063a038" x="797.942" y="246.702269" style="stroke: #000000; stroke-width: 0.8"/>
      </g>
     </g>
     <g id="text_25">
      <!-- 0.6 -->
      <g transform="translate(759.13575 254.300707) scale(0.2 -0.2)">
       <use xlink:href="#DejaVuSans-30"/>
       <use xlink:href="#DejaVuSans-2e" x="63.623047"/>
       <use xlink:href="#DejaVuSans-36" x="95.410156"/>
      </g>
     </g>
    </g>
    <g id="ytick_11">
     <g id="line2d_28">
      <g>
       <use xlink:href="#mcb4063a038" x="797.942" y="113.243026" style="stroke: #000000; stroke-width: 0.8"/>
      </g>
     </g>
     <g id="text_26">
      <!-- 0.8 -->
      <g transform="translate(759.13575 120.841463) scale(0.2 -0.2)">
       <use xlink:href="#DejaVuSans-30"/>
       <use xlink:href="#DejaVuSans-2e" x="63.623047"/>
       <use xlink:href="#DejaVuSans-38" x="95.410156"/>
      </g>
     </g>
    </g>
    <g id="text_27">
     <!-- $U_x$ -->
     <g transform="translate(750.976375 346.14) rotate(-90) scale(0.2 -0.2)">
      <defs>
       <path id="DejaVuSans-Oblique-55" d="M 991 4666 
L 1625 4666 
L 1075 1831 
Q 1041 1641 1027 1517 
Q 1013 1394 1013 1300 
Q 1013 869 1253 645 
Q 1494 422 1959 422 
Q 2563 422 2898 753 
Q 3234 1084 3378 1831 
L 3928 4666 
L 4563 4666 
L 4000 1753 
Q 3816 809 3300 359 
Q 2784 -91 1888 -91 
Q 1188 -91 780 261 
Q 372 613 372 1216 
Q 372 1325 387 1461 
Q 403 1597 434 1753 
L 991 4666 
z
" transform="scale(0.015625)"/>
      </defs>
      <use xlink:href="#DejaVuSans-Oblique-55" transform="translate(0 0.09375)"/>
      <use xlink:href="#DejaVuSans-Oblique-78" transform="translate(73.193359 -16.3125) scale(0.7)"/>
     </g>
    </g>
   </g>
   <g id="line2d_29">
    <path d="M 790.3008 647.08 
L 943.1248 647.08 
L 943.1248 647.08 
L 950.766 625.274238 
L 950.766 625.274238 
L 1080.6664 94.618369 
L 1080.6664 94.618369 
L 1088.3076 85.753857 
L 1088.3076 85.753857 
L 1325.1848 85.753857 
L 1325.1848 85.753857 
L 1332.826 647.08 
L 1332.826 647.08 
L 1401.5968 647.08 
L 1401.5968 647.08 
" clip-path="url(#p77d22b3a44)" style="fill: none; stroke: #1f77b4; stroke-width: 1.5; stroke-linecap: square"/>
   </g>
   <g id="line2d_30">
    <path d="M 790.3008 647.106187 
L 820.8656 646.959168 
L 820.8656 646.959168 
L 836.148 646.694452 
L 836.148 646.694452 
L 843.7892 646.422532 
L 843.7892 646.422532 
L 851.4304 645.988857 
L 851.4304 645.988857 
L 859.0716 645.31729 
L 859.0716 645.31729 
L 866.7128 644.308325 
L 866.7128 644.308325 
L 874.354 642.838011 
L 874.354 642.838011 
L 881.9952 640.759724 
L 881.9952 640.759724 
L 889.6364 637.909148 
L 889.6364 637.909148 
L 897.2776 634.112633 
L 897.2776 634.112633 
L 904.9188 629.197462 
L 904.9188 629.197462 
L 912.56 623.003285 
L 912.56 623.003352 
L 920.2012 615.392839 
L 920.2012 615.392839 
L 927.8424 606.259422 
L 927.8424 606.259422 
L 935.4836 595.531768 
L 935.4836 595.531768 
L 943.1248 583.174976 
L 943.1248 583.175043 
L 950.766 569.188514 
L 950.766 569.188514 
L 958.4072 553.600475 
L 958.4072 553.600475 
L 966.0484 536.462973 
L 966.0484 536.462973 
L 973.6896 517.846076 
L 973.6896 517.846076 
L 981.3308 497.829859 
L 981.3308 497.830526 
L 988.972 476.501737 
L 988.972 476.501737 
L 996.6132 453.949794 
L 996.6132 453.950461 
L 1004.2544 430.262113 
L 1004.2544 430.26278 
L 1011.8956 405.524108 
L 1011.8956 405.524775 
L 1019.5368 379.817855 
L 1019.5368 379.81919 
L 1027.178 353.222765 
L 1027.178 353.223432 
L 1034.8192 325.816242 
L 1034.8192 325.816242 
L 1042.4604 297.679697 
L 1042.4604 297.679697 
L 1050.1016 268.905217 
L 1050.1016 268.905884 
L 1065.384 209.980959 
L 1065.384 209.981626 
L 1073.0252 180.314971 
L 1073.0252 180.315638 
L 1080.6664 151.210179 
L 1080.6664 151.210179 
L 1088.3076 123.925771 
L 1088.3076 123.925771 
L 1095.9488 101.134936 
L 1095.9488 101.134936 
L 1103.59 87.205795 
L 1103.59 87.205795 
L 1111.2312 83.542339 
L 1111.2312 83.542339 
L 1118.8724 83.420891 
L 1118.8724 83.421558 
L 1134.1548 83.712499 
L 1134.1548 83.712499 
L 1157.0784 83.795244 
L 1202.9256 83.694482 
L 1202.9256 83.637762 
L 1202.9256 83.700488 
L 1202.9256 83.700488 
L 1233.4904 83.585713 
L 1233.4904 83.700488 
L 1241.1316 83.797913 
L 1241.1316 83.772556 
L 1241.1316 83.686475 
L 1241.1316 83.801917 
L 1241.1316 83.799915 
L 1248.7728 84.029465 
L 1248.7728 84.026796 
L 1256.414 84.496572 
L 1256.414 84.493903 
L 1264.0552 85.40276 
L 1264.0552 85.400759 
L 1271.6964 87.09102 
L 1271.6964 87.089685 
L 1279.3376 90.131889 
L 1279.3376 90.130554 
L 1286.9788 95.44757 
L 1286.9788 95.446903 
L 1294.62 104.483428 
L 1294.62 104.482761 
L 1302.2612 119.418852 
L 1302.2612 119.418852 
L 1309.9024 143.367446 
L 1309.9024 143.367446 
L 1317.5436 180.377029 
L 1317.5436 180.376362 
L 1325.1848 234.744321 
L 1325.1848 234.742987 
L 1332.826 308.750141 
L 1332.826 308.748139 
L 1348.1084 488.738615 
L 1348.1084 488.737948 
L 1355.7496 561.223667 
L 1355.7496 561.223667 
L 1363.3908 606.432785 
L 1371.032 629.450701 
L 1378.6732 639.789589 
L 1386.3144 644.147473 
L 1393.9556 645.937589 
L 1401.5968 646.689912 
L 1401.5968 646.689912 
" clip-path="url(#p77d22b3a44)" style="fill: none; stroke: #ff7f0e; stroke-width: 1.5; stroke-linecap: square"/>
   </g>
   <g id="line2d_31">
    <path d="M 790.3008 647.378935 
L 813.2244 646.440067 
L 813.2244 646.440108 
L 820.8656 646.013113 
L 820.8656 646.013133 
L 828.5068 645.45153 
L 828.5068 645.451557 
L 836.148 644.700809 
L 836.148 644.700862 
L 843.7892 643.699344 
L 843.7892 643.699457 
L 851.4304 642.378024 
L 851.4304 642.378284 
L 859.0716 640.660677 
L 859.0716 640.661178 
L 866.7128 638.465072 
L 866.7128 638.46594 
L 874.354 635.704668 
L 874.354 635.706069 
L 881.9952 632.290847 
L 881.9952 632.293383 
L 889.6364 628.133859 
L 889.6364 628.13873 
L 897.2776 623.149757 
L 897.2776 623.15663 
L 904.9188 617.260067 
L 904.9188 617.266006 
L 912.56 610.391253 
L 912.56 610.393389 
L 920.2012 602.472516 
L 920.2012 602.473517 
L 927.8424 593.44987 
L 927.8424 593.450337 
L 935.4836 583.27754 
L 935.4836 583.277807 
L 943.1248 571.919758 
L 943.1248 571.919758 
L 950.766 559.350566 
L 950.766 559.350566 
L 958.4072 545.55355 
L 958.4072 545.554217 
L 966.0484 530.5207 
L 966.0484 530.5207 
L 973.6896 514.250684 
L 973.6896 514.250684 
L 981.3308 496.751508 
L 981.3308 496.752175 
L 988.972 478.035851 
L 988.972 478.035851 
L 996.6132 458.121063 
L 996.6132 458.12173 
L 1004.2544 437.029831 
L 1004.2544 437.030499 
L 1011.8956 414.788848 
L 1011.8956 414.789516 
L 1019.5368 391.429477 
L 1019.5368 391.430144 
L 1027.178 366.989086 
L 1027.178 366.989753 
L 1034.8192 341.511716 
L 1034.8192 341.512383 
L 1042.4604 315.056758 
L 1042.4604 315.057425 
L 1050.1016 287.707622 
L 1050.1016 287.708289 
L 1057.7428 259.591763 
L 1057.7428 259.59243 
L 1080.6664 173.838194 
L 1080.6664 173.838861 
L 1088.3076 147.538048 
L 1088.3076 147.538715 
L 1095.9488 125.509265 
L 1095.9488 125.509265 
L 1103.59 110.362308 
L 1103.59 110.362975 
L 1111.2312 102.226633 
L 1111.2312 102.2273 
L 1118.8724 97.897882 
L 1118.8724 97.897882 
L 1126.5136 95.483604 
L 1126.5136 95.483604 
L 1134.1548 94.005543 
L 1134.1548 94.005543 
L 1141.796 92.881149 
L 1141.796 92.881149 
L 1149.4372 92.043025 
L 1157.0784 91.347035 
L 1172.3608 90.316063 
L 1187.6432 89.668785 
L 1195.2844 89.497957 
L 1202.9256 89.452581 
L 1210.5668 89.56402 
L 1210.5668 89.562018 
L 1218.208 89.874312 
L 1218.208 89.872978 
L 1225.8492 90.450856 
L 1225.8492 90.449522 
L 1233.4904 91.383069 
L 1233.4904 91.382402 
L 1241.1316 92.795735 
L 1241.1316 92.795735 
L 1248.7728 94.854344 
L 1248.7728 94.854344 
L 1256.414 97.77243 
L 1264.0552 101.820917 
L 1271.6964 107.338789 
L 1279.3376 114.743775 
L 1286.9788 124.541018 
L 1294.62 137.33709 
L 1302.2612 153.843997 
L 1309.9024 174.870501 
L 1317.5436 201.294096 
L 1317.5436 201.294096 
L 1325.1848 233.9796 
L 1325.1848 233.9796 
L 1332.826 273.609655 
L 1332.826 273.609655 
L 1340.4672 320.376443 
L 1340.4672 320.376443 
L 1348.1084 373.483212 
L 1348.1084 373.483212 
L 1363.3908 487.190488 
L 1363.3908 487.190488 
L 1371.032 537.95438 
L 1371.032 537.953713 
L 1378.6732 578.330473 
L 1378.6732 578.330473 
L 1386.3144 606.981169 
L 1386.3144 606.981103 
L 1393.9556 625.75368 
L 1393.9556 625.75348 
L 1401.5968 637.986154 
L 1401.5968 637.985553 
" clip-path="url(#p77d22b3a44)" style="fill: none; stroke: #2ca02c; stroke-width: 1.5; stroke-linecap: square"/>
   </g>
   <g id="line2d_32">
    <path d="M 790.3008 647.27212 
L 820.8656 646.463569 
L 820.8656 646.463569 
L 828.5068 646.124412 
L 828.5068 646.124412 
L 836.148 645.636838 
L 836.148 645.636838 
L 843.7892 644.943491 
L 843.7892 644.943491 
L 851.4304 643.975965 
L 851.4304 643.975972 
L 859.0716 642.652303 
L 859.0716 642.652309 
L 866.7128 640.877482 
L 866.7128 640.877495 
L 874.354 638.545014 
L 874.354 638.545081 
L 881.9952 635.539779 
L 881.9952 635.539846 
L 889.6364 631.741863 
L 889.6364 631.74193 
L 897.2776 627.031219 
L 897.2776 627.031419 
L 904.9188 621.292872 
L 904.9188 621.293205 
L 912.56 614.421455 
L 912.56 614.421989 
L 920.2012 606.325284 
L 920.2012 606.327353 
L 927.8424 596.927885 
L 927.8424 596.929353 
L 935.4836 586.160927 
L 935.4836 586.209372 
L 943.1248 573.95768 
L 943.1248 573.963019 
L 950.766 560.692499 
L 950.766 560.317478 
L 950.766 560.695168 
L 958.4072 545.275287 
L 958.4072 545.8545 
L 958.4072 545.265945 
L 958.4072 545.284629 
L 966.0484 529.586486 
L 966.0484 528.816426 
L 966.0484 529.636533 
L 966.0484 529.630527 
L 973.6896 511.039655 
L 973.6896 512.077968 
L 973.6896 511.018969 
L 973.6896 511.103048 
L 981.3308 493.188146 
L 981.3308 491.8322 
L 981.3308 493.222846 
L 988.972 471.785955 
L 988.972 473.031129 
L 988.972 471.394919 
L 988.972 472.032187 
L 996.6132 451.522838 
L 996.6132 449.871947 
L 996.6132 451.441428 
L 1004.2544 427.704367 
L 1004.2544 428.795396 
L 1004.2544 426.740791 
L 1004.2544 427.706368 
L 1011.8956 405.172443 
L 1011.8956 403.249962 
L 1011.8956 404.912197 
L 1019.5368 379.189262 
L 1019.5368 380.523188 
L 1019.5368 377.404245 
L 1019.5368 378.606045 
L 1027.178 354.160316 
L 1027.178 350.945283 
L 1027.178 352.86843 
L 1034.8192 325.992408 
L 1034.8192 327.198879 
L 1034.8192 324.409581 
L 1034.8192 325.094227 
L 1042.4604 297.131179 
L 1042.4604 298.887503 
L 1042.4604 294.209756 
L 1042.4604 295.355504 
L 1050.1016 268.567565 
L 1050.1016 262.27029 
L 1050.1016 275.628226 
L 1050.1016 265.97245 
L 1057.7428 245.559858 
L 1057.7428 223.659196 
L 1057.7428 250.276975 
L 1057.7428 234.348615 
L 1065.384 221.301639 
L 1065.384 188.601455 
L 1065.384 225.647739 
L 1065.384 211.930798 
L 1073.0252 195.716167 
L 1073.0252 155.712426 
L 1073.0252 196.290709 
L 1073.0252 185.110161 
L 1080.6664 171.24775 
L 1080.6664 130.428573 
L 1080.6664 158.234139 
L 1088.3076 145.238545 
L 1088.3076 109.680331 
L 1088.3076 126.486187 
L 1095.9488 126.195246 
L 1095.9488 86.657945 
L 1095.9488 107.545651 
L 1103.59 112.749227 
L 1103.59 82.127003 
L 1103.59 96.551946 
L 1111.2312 109.1872 
L 1111.2312 79.178221 
L 1111.2312 93.677901 
L 1118.8724 105.537757 
L 1118.8724 78.273368 
L 1118.8724 105.797335 
L 1118.8724 90.589654 
L 1126.5136 102.744455 
L 1126.5136 78.553632 
L 1126.5136 103.591253 
L 1126.5136 90.018448 
L 1134.1548 99.869742 
L 1134.1548 79.00339 
L 1134.1548 101.053526 
L 1134.1548 89.425889 
L 1141.796 97.149843 
L 1141.796 79.736081 
L 1141.796 98.424379 
L 1141.796 89.011498 
L 1149.4372 94.658826 
L 1149.4372 81.214809 
L 1149.4372 95.992751 
L 1149.4372 88.604448 
L 1157.0784 92.59955 
L 1157.0784 82.593443 
L 1157.0784 94.007545 
L 1157.0784 88.232096 
L 1164.7196 90.849232 
L 1164.7196 83.725845 
L 1164.7196 92.303271 
L 1164.7196 87.924473 
L 1172.3608 89.580702 
L 1172.3608 84.849572 
L 1172.3608 90.976686 
L 1172.3608 87.690252 
L 1180.002 88.715886 
L 1180.002 85.862528 
L 1180.002 90.128552 
L 1180.002 87.518089 
L 1187.6432 88.135338 
L 1187.6432 86.628584 
L 1187.6432 89.86497 
L 1187.6432 87.393305 
L 1195.2844 87.760985 
L 1195.2844 86.587879 
L 1195.2844 89.578033 
L 1195.2844 87.31056 
L 1202.9256 87.634199 
L 1202.9256 89.291763 
L 1202.9256 86.613236 
L 1202.9256 87.271857 
L 1210.5668 87.424668 
L 1210.5668 89.032852 
L 1210.5668 86.701986 
L 1210.5668 87.280532 
L 1218.208 87.407986 
L 1218.208 88.821986 
L 1218.208 86.833444 
L 1218.208 87.327243 
L 1225.8492 87.467375 
L 1225.8492 88.725896 
L 1225.8492 87.014948 
L 1225.8492 87.430674 
L 1233.4904 87.610176 
L 1233.4904 88.691196 
L 1233.4904 87.281199 
L 1233.4904 87.596163 
L 1241.1316 87.837724 
L 1241.1316 88.775276 
L 1241.1316 87.654885 
L 1241.1316 87.848401 
L 1248.7728 88.192059 
L 1248.7728 89.015502 
L 1248.7728 88.16203 
L 1248.7728 88.228093 
L 1256.414 88.707879 
L 1256.414 89.476604 
L 1256.414 88.845342 
L 1264.0552 89.441904 
L 1264.0552 90.229981 
L 1264.0552 89.813588 
L 1271.6964 90.796516 
L 1271.6964 91.433116 
L 1271.6964 91.201565 
L 1279.3376 93.238153 
L 1279.3376 93.183434 
L 1279.3376 93.593154 
L 1279.3376 93.483718 
L 1286.9788 97.440784 
L 1286.9788 97.331348 
L 1286.9788 97.193217 
L 1286.9788 97.504845 
L 1286.9788 97.453463 
L 1294.62 104.147778 
L 1294.62 104.086387 
L 1294.62 103.794779 
L 1294.62 104.028332 
L 1302.2612 114.804499 
L 1302.2612 114.697064 
L 1302.2612 114.559601 
L 1302.2612 114.62166 
L 1309.9024 131.548963 
L 1309.9024 131.169272 
L 1317.5436 156.274957 
L 1317.5436 156.827478 
L 1317.5436 156.026056 
L 1317.5436 156.042071 
L 1325.1848 192.444414 
L 1325.1848 192.258238 
L 1325.1848 191.256627 
L 1325.1848 192.607902 
L 1325.1848 192.078068 
L 1332.826 241.357227 
L 1332.826 240.982874 
L 1340.4672 303.501856 
L 1340.4672 303.267635 
L 1340.4672 302.268025 
L 1340.4672 303.309675 
L 1340.4672 303.200906 
L 1348.1084 376.628847 
L 1348.1084 376.336571 
L 1355.7496 452.24285 
L 1355.7496 452.227503 
L 1363.3908 519.998106 
L 1371.032 571.481344 
L 1378.6732 605.223511 
L 1386.3144 625.047814 
L 1393.9556 635.961177 
L 1401.5968 642.139199 
L 1401.5968 642.139019 
" clip-path="url(#p77d22b3a44)" style="fill: none; stroke: #d62728; stroke-width: 1.5; stroke-linecap: square"/>
   </g>
   <g id="line2d_33">
    <path d="M 790.3008 647.380539 
L 813.2244 646.430689 
L 820.8656 645.998126 
L 828.5068 645.429109 
L 836.148 644.668492 
L 843.7892 643.654021 
L 851.4304 642.315919 
L 859.0716 640.577439 
L 866.7128 638.355502 
L 874.354 635.563869 
L 881.9952 632.11041 
L 889.6364 627.878485 
L 889.6364 627.914185 
L 897.2776 622.843935 
L 897.2776 622.882371 
L 904.9188 616.880842 
L 904.9188 617.087971 
L 904.9188 616.937095 
L 912.56 610.074888 
L 912.56 609.936024 
L 912.56 610.010761 
L 920.2012 601.994932 
L 920.2012 602.024493 
L 927.8424 592.893812 
L 927.8424 593.253351 
L 927.8424 592.879932 
L 927.8424 592.931715 
L 935.4836 582.861948 
L 935.4836 582.393639 
L 935.4836 583.01943 
L 935.4836 582.672369 
L 943.1248 571.08497 
L 943.1248 571.588112 
L 943.1248 571.232443 
L 950.766 558.515779 
L 958.4072 544.640688 
L 958.4072 544.82553 
L 958.4072 545.370711 
L 958.4072 544.016099 
L 958.4072 544.766807 
L 966.0484 530.159693 
L 966.0484 528.885825 
L 966.0484 530.652825 
L 966.0484 529.433008 
L 973.6896 511.92449 
L 973.6896 513.784244 
L 973.6896 513.451263 
L 981.3308 495.873346 
L 981.3308 496.396507 
L 981.3308 494.647523 
L 981.3308 495.916053 
L 988.972 475.280585 
L 988.972 477.524702 
L 988.972 477.08829 
L 996.6132 457.736033 
L 996.6132 456.479514 
L 996.6132 456.945287 
L 1004.2544 437.093224 
L 1004.2544 433.480483 
L 1004.2544 437.31143 
L 1004.2544 435.592475 
L 1011.8956 412.118996 
L 1011.8956 415.751757 
L 1011.8956 411.167432 
L 1011.8956 413.166651 
L 1019.5368 388.861054 
L 1019.5368 391.444157 
L 1019.5368 387.388331 
L 1019.5368 389.635785 
L 1027.178 363.39703 
L 1027.178 368.018056 
L 1027.178 363.001991 
L 1027.178 364.940486 
L 1034.8192 340.817728 
L 1034.8192 336.069915 
L 1034.8192 341.757281 
L 1034.8192 339.14148 
L 1042.4604 312.846672 
L 1042.4604 310.212854 
L 1042.4604 313.676789 
L 1042.4604 312.221416 
L 1050.1016 282.881068 
L 1050.1016 284.749498 
L 1050.1016 282.813672 
L 1050.1016 284.173621 
L 1057.7428 250.992984 
L 1057.7428 256.590265 
L 1057.7428 254.990088 
L 1065.384 225.200651 
L 1065.384 226.283672 
L 1065.384 220.753121 
L 1065.384 224.883018 
L 1073.0252 194.059271 
L 1073.0252 195.49596 
L 1073.0252 193.44736 
L 1073.0252 194.188059 
L 1080.6664 162.804451 
L 1080.6664 162.967271 
L 1080.6664 165.504998 
L 1080.6664 162.255933 
L 1080.6664 163.222178 
L 1088.3076 133.368013 
L 1088.3076 131.32008 
L 1088.3076 134.621195 
L 1095.9488 108.619998 
L 1095.9488 109.191203 
L 1095.9488 104.985235 
L 1103.59 90.47221 
L 1103.59 87.666229 
L 1103.59 89.961728 
L 1111.2312 87.421332 
L 1111.2312 88.021898 
L 1111.2312 86.527155 
L 1111.2312 86.658612 
L 1118.8724 83.174658 
L 1118.8724 82.157699 
L 1118.8724 83.832612 
L 1126.5136 83.921363 
L 1126.5136 83.099921 
L 1126.5136 83.982087 
L 1134.1548 83.21136 
L 1134.1548 82.500022 
L 1134.1548 83.735187 
L 1141.796 83.22604 
L 1141.796 82.580097 
L 1141.796 83.655779 
L 1149.4372 83.002496 
L 1149.4372 82.308508 
L 1149.4372 83.579707 
L 1157.0784 82.841678 
L 1157.0784 82.108319 
L 1157.0784 83.471605 
L 1164.7196 82.688867 
L 1164.7196 81.928816 
L 1164.7196 83.45559 
L 1164.7196 83.339481 
L 1172.3608 82.525379 
L 1172.3608 81.772669 
L 1172.3608 83.486953 
L 1172.3608 83.157976 
L 1180.002 82.411272 
L 1180.002 81.659229 
L 1180.002 83.502301 
L 1180.002 83.009836 
L 1187.6432 82.315848 
L 1187.6432 81.584491 
L 1187.6432 83.48028 
L 1187.6432 82.833003 
L 1195.2844 82.25112 
L 1195.2844 81.558467 
L 1195.2844 83.424227 
L 1195.2844 82.648162 
L 1202.9256 82.196402 
L 1202.9256 81.587828 
L 1202.9256 83.296774 
L 1202.9256 82.449975 
L 1210.5668 82.166374 
L 1210.5668 81.651221 
L 1210.5668 83.159978 
L 1210.5668 82.302502 
L 1218.208 82.181722 
L 1218.208 81.749314 
L 1218.208 83.037863 
L 1218.208 82.235105 
L 1225.8492 82.251788 
L 1225.8492 81.895452 
L 1225.8492 82.969131 
L 1225.8492 82.257126 
L 1233.4904 82.397926 
L 1233.4904 82.108319 
L 1233.4904 82.983812 
L 1233.4904 82.38191 
L 1241.1316 82.657504 
L 1241.1316 82.43129 
L 1241.1316 83.131284 
L 1241.1316 82.652165 
L 1248.7728 83.113267 
L 1248.7728 82.939103 
L 1248.7728 83.494293 
L 1248.7728 83.127948 
L 1256.414 83.901344 
L 1256.414 83.771221 
L 1256.414 84.212304 
L 1256.414 83.944051 
L 1264.0552 85.254621 
L 1264.0552 85.22259 
L 1264.0552 85.514199 
L 1264.0552 85.323352 
L 1271.6964 87.581483 
L 1271.6964 87.578813 
L 1271.6964 87.790346 
L 1271.6964 87.664227 
L 1279.3376 91.551228 
L 1279.3376 91.550561 
L 1279.3376 91.719386 
L 1279.3376 91.64198 
L 1286.9788 98.322283 
L 1286.9788 98.354313 
L 1286.9788 98.31294 
L 1294.62 109.315988 
L 1294.62 109.303976 
L 1302.2612 127.032702 
L 1309.9024 154.873635 
L 1317.5436 197.010055 
L 1325.1848 257.37634 
L 1332.826 336.741883 
L 1340.4672 427.951933 
L 1348.1084 514.137911 
L 1355.7496 577.972802 
L 1363.3908 615.181439 
L 1371.032 633.330762 
L 1371.032 633.330762 
L 1378.6732 641.276305 
L 1378.6732 641.276178 
L 1386.3144 644.634353 
L 1386.3144 644.634179 
L 1393.9556 646.052631 
L 1393.9556 646.052464 
L 1401.5968 646.696969 
L 1401.5968 646.696857 
" clip-path="url(#p77d22b3a44)" style="fill: none; stroke: #9467bd; stroke-width: 1.5; stroke-linecap: square"/>
   </g>
   <g id="patch_8">
    <path d="M 797.942 647.08 
L 797.942 21.6 
" style="fill: none; stroke: #000000; stroke-width: 0.8; stroke-linejoin: miter; stroke-linecap: square"/>
   </g>
   <g id="patch_9">
    <path d="M 1409.238 647.08 
L 1409.238 21.6 
" style="fill: none; stroke: #000000; stroke-width: 0.8; stroke-linejoin: miter; stroke-linecap: square"/>
   </g>
   <g id="patch_10">
    <path d="M 797.942 647.08 
L 1409.238 647.08 
" style="fill: none; stroke: #000000; stroke-width: 0.8; stroke-linejoin: miter; stroke-linecap: square"/>
   </g>
   <g id="patch_11">
    <path d="M 797.942 21.6 
L 1409.238 21.6 
" style="fill: none; stroke: #000000; stroke-width: 0.8; stroke-linejoin: miter; stroke-linecap: square"/>
   </g>
  </g>
  <g id="axes_3">
   <g id="patch_12">
    <path d="M 1511.174 647.08 
L 2122.47 647.08 
L 2122.47 21.6 
L 1511.174 21.6 
z
" style="fill: #ffffff"/>
   </g>
   <g id="matplotlib.axis_5">
    <g id="xtick_13">
     <g id="line2d_34">
      <g>
       <use xlink:href="#mf2e961bc37" x="1511.174" y="647.08" style="stroke: #000000; stroke-width: 0.8"/>
      </g>
     </g>
     <g id="text_28">
      <!-- 1.0 -->
      <g transform="translate(1495.270875 669.276875) scale(0.2 -0.2)">
       <use xlink:href="#DejaVuSans-31"/>
       <use xlink:href="#DejaVuSans-2e" x="63.623047"/>
       <use xlink:href="#DejaVuSans-30" x="95.410156"/>
      </g>
     </g>
    </g>
    <g id="xtick_14">
     <g id="line2d_35">
      <g>
       <use xlink:href="#mf2e961bc37" x="1633.4332" y="647.08" style="stroke: #000000; stroke-width: 0.8"/>
      </g>
     </g>
     <g id="text_29">
      <!-- 1.2 -->
      <g transform="translate(1617.530075 669.276875) scale(0.2 -0.2)">
       <use xlink:href="#DejaVuSans-31"/>
       <use xlink:href="#DejaVuSans-2e" x="63.623047"/>
       <use xlink:href="#DejaVuSans-32" x="95.410156"/>
      </g>
     </g>
    </g>
    <g id="xtick_15">
     <g id="line2d_36">
      <g>
       <use xlink:href="#mf2e961bc37" x="1755.6924" y="647.08" style="stroke: #000000; stroke-width: 0.8"/>
      </g>
     </g>
     <g id="text_30">
      <!-- 1.4 -->
      <g transform="translate(1739.789275 669.276875) scale(0.2 -0.2)">
       <use xlink:href="#DejaVuSans-31"/>
       <use xlink:href="#DejaVuSans-2e" x="63.623047"/>
       <use xlink:href="#DejaVuSans-34" x="95.410156"/>
      </g>
     </g>
    </g>
    <g id="xtick_16">
     <g id="line2d_37">
      <g>
       <use xlink:href="#mf2e961bc37" x="1877.9516" y="647.08" style="stroke: #000000; stroke-width: 0.8"/>
      </g>
     </g>
     <g id="text_31">
      <!-- 1.6 -->
      <g transform="translate(1862.048475 669.276875) scale(0.2 -0.2)">
       <use xlink:href="#DejaVuSans-31"/>
       <use xlink:href="#DejaVuSans-2e" x="63.623047"/>
       <use xlink:href="#DejaVuSans-36" x="95.410156"/>
      </g>
     </g>
    </g>
    <g id="xtick_17">
     <g id="line2d_38">
      <g>
       <use xlink:href="#mf2e961bc37" x="2000.2108" y="647.08" style="stroke: #000000; stroke-width: 0.8"/>
      </g>
     </g>
     <g id="text_32">
      <!-- 1.8 -->
      <g transform="translate(1984.307675 669.276875) scale(0.2 -0.2)">
       <use xlink:href="#DejaVuSans-31"/>
       <use xlink:href="#DejaVuSans-2e" x="63.623047"/>
       <use xlink:href="#DejaVuSans-38" x="95.410156"/>
      </g>
     </g>
    </g>
    <g id="xtick_18">
     <g id="line2d_39">
      <g>
       <use xlink:href="#mf2e961bc37" x="2122.47" y="647.08" style="stroke: #000000; stroke-width: 0.8"/>
      </g>
     </g>
     <g id="text_33">
      <!-- 2.0 -->
      <g transform="translate(2106.566875 669.276875) scale(0.2 -0.2)">
       <use xlink:href="#DejaVuSans-32"/>
       <use xlink:href="#DejaVuSans-2e" x="63.623047"/>
       <use xlink:href="#DejaVuSans-30" x="95.410156"/>
      </g>
     </g>
    </g>
    <g id="text_34">
     <!-- Position $x$ -->
     <g transform="translate(1768.422 692.633125) scale(0.2 -0.2)">
      <use xlink:href="#DejaVuSans-50" transform="translate(0 0.015625)"/>
      <use xlink:href="#DejaVuSans-6f" transform="translate(60.302734 0.015625)"/>
      <use xlink:href="#DejaVuSans-73" transform="translate(121.484375 0.015625)"/>
      <use xlink:href="#DejaVuSans-69" transform="translate(173.583984 0.015625)"/>
      <use xlink:href="#DejaVuSans-74" transform="translate(201.367188 0.015625)"/>
      <use xlink:href="#DejaVuSans-69" transform="translate(240.576172 0.015625)"/>
      <use xlink:href="#DejaVuSans-6f" transform="translate(268.359375 0.015625)"/>
      <use xlink:href="#DejaVuSans-6e" transform="translate(329.541016 0.015625)"/>
      <use xlink:href="#DejaVuSans-20" transform="translate(392.919922 0.015625)"/>
      <use xlink:href="#DejaVuSans-Oblique-78" transform="translate(424.707031 0.015625)"/>
     </g>
    </g>
   </g>
   <g id="matplotlib.axis_6">
    <g id="ytick_12">
     <g id="line2d_40">
      <g>
       <use xlink:href="#mcb4063a038" x="1511.174" y="647.08" style="stroke: #000000; stroke-width: 0.8"/>
      </g>
     </g>
     <g id="text_35">
      <!-- 0.0 -->
      <g transform="translate(1472.36775 654.678437) scale(0.2 -0.2)">
       <use xlink:href="#DejaVuSans-30"/>
       <use xlink:href="#DejaVuSans-2e" x="63.623047"/>
       <use xlink:href="#DejaVuSans-30" x="95.410156"/>
      </g>
     </g>
    </g>
    <g id="ytick_13">
     <g id="line2d_41">
      <g>
       <use xlink:href="#mcb4063a038" x="1511.174" y="527.370909" style="stroke: #000000; stroke-width: 0.8"/>
      </g>
     </g>
     <g id="text_36">
      <!-- 0.2 -->
      <g transform="translate(1472.36775 534.969347) scale(0.2 -0.2)">
       <use xlink:href="#DejaVuSans-30"/>
       <use xlink:href="#DejaVuSans-2e" x="63.623047"/>
       <use xlink:href="#DejaVuSans-32" x="95.410156"/>
      </g>
     </g>
    </g>
    <g id="ytick_14">
     <g id="line2d_42">
      <g>
       <use xlink:href="#mcb4063a038" x="1511.174" y="407.661818" style="stroke: #000000; stroke-width: 0.8"/>
      </g>
     </g>
     <g id="text_37">
      <!-- 0.4 -->
      <g transform="translate(1472.36775 415.260256) scale(0.2 -0.2)">
       <use xlink:href="#DejaVuSans-30"/>
       <use xlink:href="#DejaVuSans-2e" x="63.623047"/>
       <use xlink:href="#DejaVuSans-34" x="95.410156"/>
      </g>
     </g>
    </g>
    <g id="ytick_15">
     <g id="line2d_43">
      <g>
       <use xlink:href="#mcb4063a038" x="1511.174" y="287.952727" style="stroke: #000000; stroke-width: 0.8"/>
      </g>
     </g>
     <g id="text_38">
      <!-- 0.6 -->
      <g transform="translate(1472.36775 295.551165) scale(0.2 -0.2)">
       <use xlink:href="#DejaVuSans-30"/>
       <use xlink:href="#DejaVuSans-2e" x="63.623047"/>
       <use xlink:href="#DejaVuSans-36" x="95.410156"/>
      </g>
     </g>
    </g>
    <g id="ytick_16">
     <g id="line2d_44">
      <g>
       <use xlink:href="#mcb4063a038" x="1511.174" y="168.243636" style="stroke: #000000; stroke-width: 0.8"/>
      </g>
     </g>
     <g id="text_39">
      <!-- 0.8 -->
      <g transform="translate(1472.36775 175.842074) scale(0.2 -0.2)">
       <use xlink:href="#DejaVuSans-30"/>
       <use xlink:href="#DejaVuSans-2e" x="63.623047"/>
       <use xlink:href="#DejaVuSans-38" x="95.410156"/>
      </g>
     </g>
    </g>
    <g id="ytick_17">
     <g id="line2d_45">
      <g>
       <use xlink:href="#mcb4063a038" x="1511.174" y="48.534545" style="stroke: #000000; stroke-width: 0.8"/>
      </g>
     </g>
     <g id="text_40">
      <!-- 1.0 -->
      <g transform="translate(1472.36775 56.132983) scale(0.2 -0.2)">
       <use xlink:href="#DejaVuSans-31"/>
       <use xlink:href="#DejaVuSans-2e" x="63.623047"/>
       <use xlink:href="#DejaVuSans-30" x="95.410156"/>
      </g>
     </g>
    </g>
    <g id="text_41">
     <!-- $P$ -->
     <g transform="translate(1464.208375 340.44) rotate(-90) scale(0.2 -0.2)">
      <defs>
       <path id="DejaVuSans-Oblique-50" d="M 1081 4666 
L 2541 4666 
Q 3178 4666 3512 4369 
Q 3847 4072 3847 3500 
Q 3847 2731 3353 2303 
Q 2859 1875 1966 1875 
L 1172 1875 
L 806 0 
L 172 0 
L 1081 4666 
z
M 1613 4147 
L 1275 2394 
L 2069 2394 
Q 2606 2394 2893 2669 
Q 3181 2944 3181 3456 
Q 3181 3784 2986 3965 
Q 2791 4147 2438 4147 
L 1613 4147 
z
" transform="scale(0.015625)"/>
      </defs>
      <use xlink:href="#DejaVuSans-Oblique-50" transform="translate(0 0.09375)"/>
     </g>
    </g>
   </g>
   <g id="line2d_46">
    <path d="M 1503.5328 48.534545 
L 1656.3568 48.534545 
L 1656.3568 48.534545 
L 1663.998 73.362766 
L 1663.998 73.362766 
L 1671.6392 107.463802 
L 1671.6392 107.463802 
L 1679.2804 139.923672 
L 1679.2804 139.923672 
L 1686.9216 170.80234 
L 1686.9216 170.80234 
L 1694.5628 200.158292 
L 1694.5628 200.158292 
L 1702.204 228.048551 
L 1702.204 228.048551 
L 1709.8452 254.5287 
L 1709.8452 254.5287 
L 1717.4864 279.652899 
L 1717.4864 279.652899 
L 1725.1276 303.473903 
L 1725.1276 303.473903 
L 1732.7688 326.043079 
L 1732.7688 326.043079 
L 1740.41 347.410428 
L 1740.41 347.410428 
L 1748.0512 367.624601 
L 1748.0512 367.624601 
L 1755.6924 386.732917 
L 1755.6924 386.732917 
L 1763.3336 404.781384 
L 1763.3336 404.781384 
L 1770.9748 421.814714 
L 1770.9748 421.814714 
L 1778.616 437.876345 
L 1778.616 437.876345 
L 1786.2572 453.008458 
L 1786.2572 453.008458 
L 1793.8984 467.251993 
L 1793.8984 467.251993 
L 1801.5396 471.140444 
L 1801.5396 471.140444 
L 2038.4168 471.140444 
L 2038.4168 471.140444 
L 2046.058 587.225455 
L 2046.058 587.225455 
L 2114.8288 587.225455 
L 2114.8288 587.225455 
" clip-path="url(#p642cf27f66)" style="fill: none; stroke: #1f77b4; stroke-width: 1.5; stroke-linecap: square"/>
   </g>
   <g id="line2d_47">
    <path d="M 1503.5328 48.593801 
L 1526.4564 48.628517 
L 1526.4564 48.628517 
L 1541.7388 48.823044 
L 1541.7388 48.823044 
L 1549.38 49.034331 
L 1549.38 49.034331 
L 1557.0212 49.38029 
L 1557.0212 49.38029 
L 1564.6624 49.929755 
L 1564.6624 49.929755 
L 1572.3036 50.774901 
L 1572.3036 50.774901 
L 1579.9448 52.035438 
L 1579.9448 52.035438 
L 1587.586 53.856812 
L 1587.586 53.856812 
L 1595.2272 56.406615 
L 1595.2272 56.406615 
L 1602.8684 59.868004 
L 1602.8684 59.868004 
L 1610.5096 64.423533 
L 1610.5096 64.423533 
L 1618.1508 70.242592 
L 1618.1508 70.242592 
L 1625.792 77.466437 
L 1625.792 77.466437 
L 1633.4332 86.192033 
L 1633.4332 86.192033 
L 1641.0744 96.467861 
L 1641.0744 96.467861 
L 1648.7156 108.284944 
L 1648.7156 108.284944 
L 1656.3568 121.584025 
L 1656.3568 121.584025 
L 1663.998 136.259163 
L 1663.998 136.259163 
L 1671.6392 152.167903 
L 1671.6392 152.167903 
L 1679.2804 169.142652 
L 1679.2804 169.142652 
L 1686.9216 187.000854 
L 1686.9216 187.000854 
L 1694.5628 205.554566 
L 1694.5628 205.554566 
L 1702.204 224.618239 
L 1702.204 224.618239 
L 1717.4864 263.579358 
L 1717.4864 263.579358 
L 1732.7688 302.623675 
L 1732.7688 302.623675 
L 1740.41 321.846561 
L 1740.41 321.846561 
L 1748.0512 340.721093 
L 1748.0512 340.721093 
L 1755.6924 359.150906 
L 1755.6924 359.150906 
L 1763.3336 377.043824 
L 1763.3336 377.043824 
L 1770.9748 394.306473 
L 1770.9748 394.306473 
L 1778.616 410.829321 
L 1778.616 410.829321 
L 1786.2572 426.45854 
L 1786.2572 426.45854 
L 1793.8984 440.931967 
L 1793.8984 440.931967 
L 1801.5396 453.738446 
L 1801.5396 453.738446 
L 1809.1808 463.859849 
L 1809.1808 463.859849 
L 1816.822 469.763303 
L 1816.822 469.762705 
L 1824.4632 471.26266 
L 1824.4632 471.26266 
L 1832.1044 471.284806 
L 1832.1044 471.284806 
L 1855.028 471.053767 
L 1855.028 471.053767 
L 1931.44 470.729356 
L 1931.44 470.729356 
L 1954.3636 470.734743 
L 1954.3636 470.735341 
L 1969.646 470.914905 
L 1969.646 470.914905 
L 1977.2872 471.163301 
L 1977.2872 471.163301 
L 1984.9284 471.632561 
L 1984.9284 471.632561 
L 1992.5696 472.484291 
L 1992.5696 472.484291 
L 2000.2108 473.974669 
L 2000.2108 473.974669 
L 2007.852 476.495144 
L 2007.852 476.495144 
L 2015.4932 480.610144 
L 2015.4932 480.610144 
L 2023.1344 487.058274 
L 2023.1344 487.058274 
L 2030.7756 496.652958 
L 2030.7756 496.652359 
L 2038.4168 509.961616 
L 2038.4168 509.961616 
L 2046.058 526.684377 
L 2046.058 526.684377 
L 2053.6992 544.972335 
L 2053.6992 544.971737 
L 2061.3404 561.601724 
L 2061.3404 561.601724 
L 2068.9816 573.762372 
L 2068.9816 573.762372 
L 2076.6228 580.934143 
L 2076.6228 580.934143 
L 2084.264 584.503868 
L 2084.264 584.503868 
L 2091.9052 586.098393 
L 2091.9052 586.098393 
L 2099.5464 586.768764 
L 2099.5464 586.768764 
L 2107.1876 587.040504 
L 2107.1876 587.040504 
L 2114.8288 587.143454 
L 2114.8288 587.143454 
" clip-path="url(#p642cf27f66)" style="fill: none; stroke: #ff7f0e; stroke-width: 1.5; stroke-linecap: square"/>
   </g>
   <g id="line2d_48">
    <path d="M 1503.5328 49.535912 
L 1511.174 49.456904 
L 1511.174 49.456904 
L 1518.8152 49.535912 
L 1518.8152 49.535912 
L 1526.4564 49.780717 
L 1526.4564 49.780717 
L 1534.0976 50.212867 
L 1534.0976 50.212867 
L 1541.7388 50.869471 
L 1541.7388 50.869471 
L 1549.38 51.800808 
L 1549.38 51.800808 
L 1557.0212 53.068527 
L 1557.0212 53.068527 
L 1564.6624 54.747447 
L 1564.6624 54.747447 
L 1572.3036 56.919569 
L 1572.3036 56.919569 
L 1579.9448 59.672279 
L 1579.9448 59.672279 
L 1587.586 63.094762 
L 1587.586 63.094762 
L 1595.2272 67.275004 
L 1595.2272 67.275004 
L 1602.8684 72.295004 
L 1602.8684 72.295004 
L 1610.5096 78.225991 
L 1618.1508 85.126622 
L 1625.792 93.039991 
L 1625.792 93.039991 
L 1633.4332 101.992436 
L 1633.4332 101.992436 
L 1641.0744 111.991137 
L 1641.0744 111.991137 
L 1648.7156 123.024126 
L 1648.7156 123.024126 
L 1656.3568 135.063868 
L 1656.3568 135.063868 
L 1663.998 148.063676 
L 1663.998 148.063676 
L 1671.6392 161.964296 
L 1671.6392 161.964296 
L 1679.2804 176.692704 
L 1679.2804 176.692704 
L 1686.9216 192.165703 
L 1686.9216 192.165104 
L 1694.5628 208.290517 
L 1694.5628 208.290517 
L 1702.204 224.970183 
L 1702.204 224.969585 
L 1709.8452 242.10235 
L 1709.8452 242.101751 
L 1725.1276 277.308793 
L 1725.1276 277.308195 
L 1755.6924 348.573411 
L 1755.6924 348.572812 
L 1763.3336 365.95158 
L 1763.3336 365.950981 
L 1770.9748 382.917949 
L 1770.9748 382.917949 
L 1778.616 399.316299 
L 1778.616 399.3157 
L 1786.2572 414.920379 
L 1786.2572 414.91978 
L 1793.8984 429.377646 
L 1793.8984 429.377047 
L 1801.5396 442.111102 
L 1801.5396 442.110503 
L 1809.1808 452.249863 
L 1809.1808 452.249863 
L 1816.822 458.948185 
L 1816.822 458.948185 
L 1824.4632 462.457457 
L 1824.4632 462.457457 
L 1832.1044 464.284817 
L 1832.1044 464.284817 
L 1839.7456 465.276008 
L 1839.7456 465.276008 
L 1847.3868 465.861984 
L 1847.3868 465.861984 
L 1855.028 466.289944 
L 1855.028 466.289944 
L 1870.3104 466.835219 
L 1870.3104 466.83462 
L 1893.234 467.317048 
L 1893.234 467.317048 
L 1923.7988 467.878484 
L 1923.7988 467.878484 
L 1939.0812 468.363904 
L 1939.0812 468.363904 
L 1946.7224 468.729615 
L 1946.7224 468.729615 
L 1954.3636 469.221021 
L 1954.3636 469.220423 
L 1962.0048 469.884209 
L 1962.0048 469.884209 
L 1969.646 470.779035 
L 1969.646 470.779035 
L 1977.2872 471.979119 
L 1977.2872 471.979119 
L 1984.9284 473.575439 
L 1984.9284 473.575439 
L 1992.5696 475.677531 
L 1992.5696 475.677531 
L 2000.2108 478.413482 
L 2000.2108 478.412884 
L 2007.852 481.925747 
L 2007.852 481.925747 
L 2015.4932 486.369348 
L 2015.4932 486.369348 
L 2023.1344 491.898711 
L 2023.1344 491.898711 
L 2030.7756 498.647311 
L 2030.7756 498.647311 
L 2038.4168 506.700142 
L 2038.4168 506.700142 
L 2046.058 516.045232 
L 2046.058 516.045232 
L 2053.6992 526.515588 
L 2053.6992 526.515588 
L 2068.9816 549.027481 
L 2068.9816 549.027481 
L 2076.6228 559.584625 
L 2076.6228 559.584625 
L 2084.264 568.55742 
L 2084.264 568.55742 
L 2091.9052 575.41316 
L 2091.9052 575.41316 
L 2099.5464 580.105756 
L 2099.5464 580.105756 
L 2107.1876 582.973986 
L 2107.1876 582.973986 
L 2114.8288 584.467357 
L 2114.8288 584.467357 
" clip-path="url(#p642cf27f66)" style="fill: none; stroke: #2ca02c; stroke-width: 1.5; stroke-linecap: square"/>
   </g>
   <g id="line2d_49">
    <path d="M 1503.5328 48.917615 
L 1511.174 48.850577 
L 1511.174 48.850577 
L 1526.4564 49.086404 
L 1526.4564 49.086404 
L 1534.0976 49.362932 
L 1534.0976 49.362932 
L 1541.7388 49.784308 
L 1541.7388 49.784308 
L 1549.38 50.400212 
L 1549.38 50.400212 
L 1557.0212 51.277081 
L 1557.0212 51.277081 
L 1564.6624 52.494522 
L 1564.6624 52.494522 
L 1572.3036 54.148303 
L 1572.3036 54.148303 
L 1579.9448 56.347359 
L 1579.9448 56.347359 
L 1587.586 59.210801 
L 1587.586 59.210801 
L 1595.2272 62.862527 
L 1595.2272 62.862527 
L 1602.8684 67.424041 
L 1602.8684 67.424041 
L 1610.5096 73.009668 
L 1610.5096 73.009069 
L 1618.1508 79.716968 
L 1618.1508 79.716968 
L 1625.792 87.622556 
L 1625.792 87.621958 
L 1633.4332 96.775513 
L 1633.4332 96.773718 
L 1641.0744 107.194993 
L 1641.0744 107.193197 
L 1648.7156 118.876206 
L 1648.7156 118.84568 
L 1656.3568 131.75032 
L 1656.3568 131.747926 
L 1663.998 145.759875 
L 1663.998 145.755685 
L 1671.6392 160.826461 
L 1671.6392 160.806111 
L 1679.2804 176.830369 
L 1679.2804 176.783683 
L 1686.9216 193.64411 
L 1686.9216 193.547744 
L 1702.204 228.803867 
L 1702.204 229.2019 
L 1702.204 228.826013 
L 1709.8452 247.250439 
L 1709.8452 247.729874 
L 1709.8452 247.128336 
L 1709.8452 247.234279 
L 1717.4864 265.761056 
L 1717.4864 266.377558 
L 1717.4864 265.783202 
L 1725.1276 284.672698 
L 1725.1276 285.172484 
L 1725.1276 284.591296 
L 1725.1276 284.778042 
L 1732.7688 303.343127 
L 1732.7688 304.015892 
L 1732.7688 303.528077 
L 1740.41 322.394828 
L 1740.41 322.376273 
L 1740.41 322.911972 
L 1740.41 322.111716 
L 1740.41 322.277513 
L 1748.0512 340.871927 
L 1748.0512 340.734261 
L 1748.0512 341.452516 
L 1748.0512 340.740845 
L 1755.6924 359.858387 
L 1755.6924 358.670873 
L 1755.6924 360.741241 
L 1755.6924 359.756634 
L 1763.3336 376.813384 
L 1763.3336 379.702563 
L 1763.3336 375.81501 
L 1763.3336 377.562164 
L 1770.9748 392.872359 
L 1770.9748 398.369999 
L 1770.9748 395.014553 
L 1778.616 409.404184 
L 1778.616 414.579208 
L 1778.616 409.301833 
L 1786.2572 424.854438 
L 1786.2572 429.522494 
L 1786.2572 425.092659 
L 1793.8984 438.418076 
L 1793.8984 442.1117 
L 1793.8984 438.23971 
L 1793.8984 439.213543 
L 1801.5396 451.189241 
L 1801.5396 453.60497 
L 1801.5396 450.332722 
L 1801.5396 452.756233 
L 1809.1808 460.037538 
L 1809.1808 461.383068 
L 1809.1808 458.113813 
L 1809.1808 460.020779 
L 1816.822 465.344242 
L 1816.822 463.068572 
L 1816.822 464.235736 
L 1824.4632 466.000847 
L 1824.4632 464.800164 
L 1824.4632 465.326286 
L 1832.1044 466.816664 
L 1832.1044 465.91705 
L 1832.1044 466.513201 
L 1839.7456 467.165017 
L 1839.7456 466.425215 
L 1839.7456 466.762795 
L 1847.3868 467.5014 
L 1847.3868 466.807686 
L 1847.3868 467.06925 
L 1855.028 467.710292 
L 1855.028 466.969892 
L 1855.028 467.273354 
L 1862.6692 467.742614 
L 1862.6692 467.021965 
L 1862.6692 467.434363 
L 1870.3104 467.721066 
L 1870.3104 467.032739 
L 1870.3104 467.563649 
L 1877.9516 467.765957 
L 1877.9516 467.20931 
L 1877.9516 467.67019 
L 1885.5928 467.82641 
L 1885.5928 467.400246 
L 1885.5928 467.832994 
L 1885.5928 467.755183 
L 1893.234 467.865316 
L 1893.234 467.558262 
L 1893.234 467.880878 
L 1893.234 467.821622 
L 1900.8752 467.898834 
L 1900.8752 467.686351 
L 1900.8752 467.916192 
L 1900.8752 467.876089 
L 1908.5164 467.926367 
L 1908.5164 467.790497 
L 1908.5164 467.946119 
L 1908.5164 467.923973 
L 1954.3636 468.22564 
L 1954.3636 468.22145 
L 1954.3636 468.247786 
L 1954.3636 468.210676 
L 1954.3636 468.231625 
L 1969.646 468.538679 
L 1969.646 468.537482 
L 1977.2872 468.802638 
L 1977.2872 468.799645 
L 1984.9284 469.228802 
L 1984.9284 469.202466 
L 1992.5696 469.931495 
L 1992.5696 469.871041 
L 2000.2108 471.108833 
L 2000.2108 471.013665 
L 2007.852 473.019989 
L 2007.852 473.049916 
L 2007.852 472.921828 
L 2007.852 472.946368 
L 2015.4932 476.122849 
L 2015.4932 476.051023 
L 2023.1344 480.811255 
L 2023.1344 480.795095 
L 2030.7756 487.709492 
L 2030.7756 487.679564 
L 2038.4168 497.1294 
L 2038.4168 497.082115 
L 2046.058 509.304413 
L 2046.058 509.224208 
L 2053.6992 523.680876 
L 2061.3404 539.12694 
L 2068.9816 553.829012 
L 2076.6228 566.063281 
L 2084.264 574.888236 
L 2091.9052 580.485234 
L 2099.5464 583.698825 
L 2107.1876 585.41246 
L 2107.1876 585.41246 
L 2114.8288 586.252818 
L 2114.8288 586.252818 
" clip-path="url(#p642cf27f66)" style="fill: none; stroke: #d62728; stroke-width: 1.5; stroke-linecap: square"/>
   </g>
   <g id="line2d_50">
    <path d="M 1503.5328 49.546087 
L 1511.174 49.465882 
L 1511.174 49.467079 
L 1518.8152 49.547883 
L 1518.8152 49.547883 
L 1526.4564 49.796878 
L 1534.0976 50.235013 
L 1541.7388 50.900596 
L 1549.38 51.843903 
L 1557.0212 53.127783 
L 1564.6624 54.827652 
L 1572.3036 57.02611 
L 1579.9448 59.810543 
L 1587.586 63.271333 
L 1595.2272 67.497064 
L 1602.8684 72.567941 
L 1602.8684 72.567343 
L 1610.5096 78.552199 
L 1618.1508 85.510888 
L 1618.1508 85.509092 
L 1625.792 93.483513 
L 1633.4332 102.496411 
L 1641.0744 112.557361 
L 1648.7156 123.704672 
L 1648.7156 123.654394 
L 1656.3568 135.849159 
L 1656.3568 135.753991 
L 1663.998 148.950122 
L 1663.998 148.810661 
L 1671.6392 162.88426 
L 1671.6392 162.750186 
L 1679.2804 177.679107 
L 1679.2804 177.315191 
L 1679.2804 177.643793 
L 1686.9216 193.35202 
L 1686.9216 193.125171 
L 1694.5628 209.582777 
L 1694.5628 209.230832 
L 1702.204 226.49827 
L 1702.204 225.838673 
L 1702.204 225.968557 
L 1709.8452 243.492771 
L 1709.8452 243.18871 
L 1725.1276 278.908705 
L 1725.1276 279.106225 
L 1725.1276 278.608834 
L 1732.7688 297.176911 
L 1732.7688 296.494569 
L 1732.7688 296.564001 
L 1740.41 315.018953 
L 1740.41 314.349779 
L 1740.41 315.162005 
L 1740.41 314.622117 
L 1748.0512 332.521619 
L 1748.0512 333.3937 
L 1748.0512 332.149324 
L 1748.0512 332.644321 
L 1755.6924 350.838307 
L 1755.6924 350.339719 
L 1755.6924 351.050192 
L 1755.6924 350.567166 
L 1763.3336 368.794072 
L 1763.3336 368.294885 
L 1770.9748 386.910247 
L 1770.9748 385.742485 
L 1778.616 402.773497 
L 1778.616 403.873624 
L 1778.616 402.812403 
L 1786.2572 419.323878 
L 1786.2572 418.75526 
L 1786.2572 419.589033 
L 1786.2572 419.241279 
L 1793.8984 434.897432 
L 1793.8984 435.190719 
L 1793.8984 434.536509 
L 1793.8984 434.812439 
L 1801.5396 448.786081 
L 1801.5396 449.819769 
L 1801.5396 448.847132 
L 1809.1808 460.001625 
L 1809.1808 459.963917 
L 1809.1808 459.801113 
L 1809.1808 461.691319 
L 1816.822 467.704905 
L 1816.822 468.588359 
L 1816.822 468.121493 
L 1824.4632 469.013326 
L 1824.4632 468.780492 
L 1824.4632 469.487972 
L 1832.1044 470.802977 
L 1832.1044 470.635983 
L 1839.7456 470.370827 
L 1839.7456 470.434273 
L 1839.7456 470.543208 
L 1847.3868 470.629997 
L 1847.3868 470.609048 
L 1862.6692 470.509091 
L 1862.6692 470.556376 
L 1885.5928 470.416915 
L 1885.5928 470.430681 
L 1885.5928 470.454623 
L 1908.5164 470.334316 
L 1908.5164 470.366039 
L 1939.0812 470.303191 
L 1939.0812 470.311571 
L 1954.3636 470.405543 
L 1954.3636 470.397163 
L 1969.646 470.734144 
L 1969.646 470.728757 
L 1977.2872 471.108235 
L 1977.2872 471.105242 
L 1984.9284 471.759452 
L 1984.9284 471.757657 
L 1992.5696 472.873944 
L 1992.5696 472.873944 
L 2000.2108 474.744997 
L 2007.852 477.80536 
L 2015.4932 482.661958 
L 2023.1344 490.078535 
L 2030.7756 500.818236 
L 2038.4168 515.243181 
L 2046.058 532.626737 
L 2053.6992 550.633977 
L 2061.3404 565.970507 
L 2068.9816 576.449841 
L 2076.6228 582.292841 
L 2076.6228 582.292841 
L 2084.264 585.097027 
L 2084.264 585.097027 
L 2091.9052 586.321052 
L 2091.9052 586.321052 
L 2099.5464 586.834006 
L 2099.5464 586.834006 
L 2107.1876 587.045891 
L 2107.1876 587.045891 
L 2114.8288 587.129089 
L 2114.8288 587.129089 
" clip-path="url(#p642cf27f66)" style="fill: none; stroke: #9467bd; stroke-width: 1.5; stroke-linecap: square"/>
   </g>
   <g id="patch_13">
    <path d="M 1511.174 647.08 
L 1511.174 21.6 
" style="fill: none; stroke: #000000; stroke-width: 0.8; stroke-linejoin: miter; stroke-linecap: square"/>
   </g>
   <g id="patch_14">
    <path d="M 2122.47 647.08 
L 2122.47 21.6 
" style="fill: none; stroke: #000000; stroke-width: 0.8; stroke-linejoin: miter; stroke-linecap: square"/>
   </g>
   <g id="patch_15">
    <path d="M 1511.174 647.08 
L 2122.47 647.08 
" style="fill: none; stroke: #000000; stroke-width: 0.8; stroke-linejoin: miter; stroke-linecap: square"/>
   </g>
   <g id="patch_16">
    <path d="M 1511.174 21.6 
L 2122.47 21.6 
" style="fill: none; stroke: #000000; stroke-width: 0.8; stroke-linejoin: miter; stroke-linecap: square"/>
   </g>
   <g id="legend_1">
    <g id="patch_17">
     <path d="M 1945.698125 184.38125 
L 2108.47 184.38125 
Q 2112.47 184.38125 2112.47 180.38125 
L 2112.47 35.6 
Q 2112.47 31.6 2108.47 31.6 
L 1945.698125 31.6 
Q 1941.698125 31.6 1941.698125 35.6 
L 1941.698125 180.38125 
Q 1941.698125 184.38125 1945.698125 184.38125 
z
" style="fill: #ffffff; opacity: 0.8; stroke: #cccccc; stroke-linejoin: miter"/>
    </g>
    <g id="line2d_51">
     <path d="M 1949.698125 47.796875 
L 1969.698125 47.796875 
L 1989.698125 47.796875 
" style="fill: none; stroke: #1f77b4; stroke-width: 1.5; stroke-linecap: square"/>
    </g>
    <g id="text_42">
     <!-- Exact Sol. -->
     <g transform="translate(2005.698125 54.796875) scale(0.2 -0.2)">
      <defs>
       <path id="DejaVuSans-45" d="M 628 4666 
L 3578 4666 
L 3578 4134 
L 1259 4134 
L 1259 2753 
L 3481 2753 
L 3481 2222 
L 1259 2222 
L 1259 531 
L 3634 531 
L 3634 0 
L 628 0 
L 628 4666 
z
" transform="scale(0.015625)"/>
       <path id="DejaVuSans-78" d="M 3513 3500 
L 2247 1797 
L 3578 0 
L 2900 0 
L 1881 1375 
L 863 0 
L 184 0 
L 1544 1831 
L 300 3500 
L 978 3500 
L 1906 2253 
L 2834 3500 
L 3513 3500 
z
" transform="scale(0.015625)"/>
       <path id="DejaVuSans-61" d="M 2194 1759 
Q 1497 1759 1228 1600 
Q 959 1441 959 1056 
Q 959 750 1161 570 
Q 1363 391 1709 391 
Q 2188 391 2477 730 
Q 2766 1069 2766 1631 
L 2766 1759 
L 2194 1759 
z
M 3341 1997 
L 3341 0 
L 2766 0 
L 2766 531 
Q 2569 213 2275 61 
Q 1981 -91 1556 -91 
Q 1019 -91 701 211 
Q 384 513 384 1019 
Q 384 1609 779 1909 
Q 1175 2209 1959 2209 
L 2766 2209 
L 2766 2266 
Q 2766 2663 2505 2880 
Q 2244 3097 1772 3097 
Q 1472 3097 1187 3025 
Q 903 2953 641 2809 
L 641 3341 
Q 956 3463 1253 3523 
Q 1550 3584 1831 3584 
Q 2591 3584 2966 3190 
Q 3341 2797 3341 1997 
z
" transform="scale(0.015625)"/>
       <path id="DejaVuSans-63" d="M 3122 3366 
L 3122 2828 
Q 2878 2963 2633 3030 
Q 2388 3097 2138 3097 
Q 1578 3097 1268 2742 
Q 959 2388 959 1747 
Q 959 1106 1268 751 
Q 1578 397 2138 397 
Q 2388 397 2633 464 
Q 2878 531 3122 666 
L 3122 134 
Q 2881 22 2623 -34 
Q 2366 -91 2075 -91 
Q 1284 -91 818 406 
Q 353 903 353 1747 
Q 353 2603 823 3093 
Q 1294 3584 2113 3584 
Q 2378 3584 2631 3529 
Q 2884 3475 3122 3366 
z
" transform="scale(0.015625)"/>
       <path id="DejaVuSans-53" d="M 3425 4513 
L 3425 3897 
Q 3066 4069 2747 4153 
Q 2428 4238 2131 4238 
Q 1616 4238 1336 4038 
Q 1056 3838 1056 3469 
Q 1056 3159 1242 3001 
Q 1428 2844 1947 2747 
L 2328 2669 
Q 3034 2534 3370 2195 
Q 3706 1856 3706 1288 
Q 3706 609 3251 259 
Q 2797 -91 1919 -91 
Q 1588 -91 1214 -16 
Q 841 59 441 206 
L 441 856 
Q 825 641 1194 531 
Q 1563 422 1919 422 
Q 2459 422 2753 634 
Q 3047 847 3047 1241 
Q 3047 1584 2836 1778 
Q 2625 1972 2144 2069 
L 1759 2144 
Q 1053 2284 737 2584 
Q 422 2884 422 3419 
Q 422 4038 858 4394 
Q 1294 4750 2059 4750 
Q 2388 4750 2728 4690 
Q 3069 4631 3425 4513 
z
" transform="scale(0.015625)"/>
       <path id="DejaVuSans-6c" d="M 603 4863 
L 1178 4863 
L 1178 0 
L 603 0 
L 603 4863 
z
" transform="scale(0.015625)"/>
      </defs>
      <use xlink:href="#DejaVuSans-45"/>
      <use xlink:href="#DejaVuSans-78" x="63.183594"/>
      <use xlink:href="#DejaVuSans-61" x="122.363281"/>
      <use xlink:href="#DejaVuSans-63" x="183.642578"/>
      <use xlink:href="#DejaVuSans-74" x="238.623047"/>
      <use xlink:href="#DejaVuSans-20" x="277.832031"/>
      <use xlink:href="#DejaVuSans-53" x="309.619141"/>
      <use xlink:href="#DejaVuSans-6f" x="373.095703"/>
      <use xlink:href="#DejaVuSans-6c" x="434.277344"/>
      <use xlink:href="#DejaVuSans-2e" x="462.060547"/>
     </g>
    </g>
    <g id="line2d_52">
     <path d="M 1949.698125 77.153125 
L 1969.698125 77.153125 
L 1989.698125 77.153125 
" style="fill: none; stroke: #ff7f0e; stroke-width: 1.5; stroke-linecap: square"/>
    </g>
    <g id="text_43">
     <!-- N -->
     <g transform="translate(2005.698125 84.153125) scale(0.2 -0.2)">
      <defs>
       <path id="DejaVuSans-4e" d="M 628 4666 
L 1478 4666 
L 3547 763 
L 3547 4666 
L 4159 4666 
L 4159 0 
L 3309 0 
L 1241 3903 
L 1241 0 
L 628 0 
L 628 4666 
z
" transform="scale(0.015625)"/>
      </defs>
      <use xlink:href="#DejaVuSans-4e"/>
     </g>
    </g>
    <g id="line2d_53">
     <path d="M 1949.698125 106.509375 
L 1969.698125 106.509375 
L 1989.698125 106.509375 
" style="fill: none; stroke: #2ca02c; stroke-width: 1.5; stroke-linecap: square"/>
    </g>
    <g id="text_44">
     <!-- LDA -->
     <g transform="translate(2005.698125 113.509375) scale(0.2 -0.2)">
      <defs>
       <path id="DejaVuSans-4c" d="M 628 4666 
L 1259 4666 
L 1259 531 
L 3531 531 
L 3531 0 
L 628 0 
L 628 4666 
z
" transform="scale(0.015625)"/>
       <path id="DejaVuSans-44" d="M 1259 4147 
L 1259 519 
L 2022 519 
Q 2988 519 3436 956 
Q 3884 1394 3884 2338 
Q 3884 3275 3436 3711 
Q 2988 4147 2022 4147 
L 1259 4147 
z
M 628 4666 
L 1925 4666 
Q 3281 4666 3915 4102 
Q 4550 3538 4550 2338 
Q 4550 1131 3912 565 
Q 3275 0 1925 0 
L 628 0 
L 628 4666 
z
" transform="scale(0.015625)"/>
       <path id="DejaVuSans-41" d="M 2188 4044 
L 1331 1722 
L 3047 1722 
L 2188 4044 
z
M 1831 4666 
L 2547 4666 
L 4325 0 
L 3669 0 
L 3244 1197 
L 1141 1197 
L 716 0 
L 50 0 
L 1831 4666 
z
" transform="scale(0.015625)"/>
      </defs>
      <use xlink:href="#DejaVuSans-4c"/>
      <use xlink:href="#DejaVuSans-44" x="55.712891"/>
      <use xlink:href="#DejaVuSans-41" x="130.964844"/>
     </g>
    </g>
    <g id="line2d_54">
     <path d="M 1949.698125 135.865625 
L 1969.698125 135.865625 
L 1989.698125 135.865625 
" style="fill: none; stroke: #d62728; stroke-width: 1.5; stroke-linecap: square"/>
    </g>
    <g id="text_45">
     <!-- B -->
     <g transform="translate(2005.698125 142.865625) scale(0.2 -0.2)">
      <defs>
       <path id="DejaVuSans-42" d="M 1259 2228 
L 1259 519 
L 2272 519 
Q 2781 519 3026 730 
Q 3272 941 3272 1375 
Q 3272 1813 3026 2020 
Q 2781 2228 2272 2228 
L 1259 2228 
z
M 1259 4147 
L 1259 2741 
L 2194 2741 
Q 2656 2741 2882 2914 
Q 3109 3088 3109 3444 
Q 3109 3797 2882 3972 
Q 2656 4147 2194 4147 
L 1259 4147 
z
M 628 4666 
L 2241 4666 
Q 2963 4666 3353 4366 
Q 3744 4066 3744 3513 
Q 3744 3084 3544 2831 
Q 3344 2578 2956 2516 
Q 3422 2416 3680 2098 
Q 3938 1781 3938 1306 
Q 3938 681 3513 340 
Q 3088 0 2303 0 
L 628 0 
L 628 4666 
z
" transform="scale(0.015625)"/>
      </defs>
      <use xlink:href="#DejaVuSans-42"/>
     </g>
    </g>
    <g id="line2d_55">
     <path d="M 1949.698125 165.221875 
L 1969.698125 165.221875 
L 1989.698125 165.221875 
" style="fill: none; stroke: #9467bd; stroke-width: 1.5; stroke-linecap: square"/>
    </g>
    <g id="text_46">
     <!-- Bx -->
     <g transform="translate(2005.698125 172.221875) scale(0.2 -0.2)">
      <use xlink:href="#DejaVuSans-42"/>
      <use xlink:href="#DejaVuSans-78" x="68.603516"/>
     </g>
    </g>
   </g>
  </g>
 </g>
 <defs>
  <clipPath id="p85dd0380f2">
   <rect x="84.71" y="21.6" width="611.296" height="625.48"/>
  </clipPath>
  <clipPath id="p77d22b3a44">
   <rect x="797.942" y="21.6" width="611.296" height="625.48"/>
  </clipPath>
  <clipPath id="p642cf27f66">
   <rect x="1511.174" y="21.6" width="611.296" height="625.48"/>
  </clipPath>
 </defs>
</svg>
