<?xml version="1.0" encoding="utf-8" standalone="no"?>
<!DOCTYPE svg PUBLIC "-//W3C//DTD SVG 1.1//EN"
  "http://www.w3.org/Graphics/SVG/1.1/DTD/svg11.dtd">
<svg xmlns:xlink="http://www.w3.org/1999/xlink" width="2160pt" height="720pt" viewBox="0 0 2160 720" xmlns="http://www.w3.org/2000/svg" version="1.1">
 <metadata>
  <rdf:RDF xmlns:dc="http://purl.org/dc/elements/1.1/" xmlns:cc="http://creativecommons.org/ns#" xmlns:rdf="http://www.w3.org/1999/02/22-rdf-syntax-ns#">
   <cc:Work>
    <dc:type rdf:resource="http://purl.org/dc/dcmitype/StillImage"/>
    <dc:date>2023-06-26T23:50:32.762892</dc:date>
    <dc:format>image/svg+xml</dc:format>
    <dc:creator>
     <cc:Agent>
      <dc:title>Matplotlib v3.7.1, https://matplotlib.org/</dc:title>
     </cc:Agent>
    </dc:creator>
   </cc:Work>
  </rdf:RDF>
 </metadata>
 <defs>
  <style type="text/css">*{stroke-linejoin: round; stroke-linecap: butt}</style>
 </defs>
 <g id="figure_1">
  <g id="patch_1">
   <path d="M 0 720 
L 2160 720 
L 2160 0 
L 0 0 
z
" style="fill: #ffffff"/>
  </g>
  <g id="axes_1">
   <g id="patch_2">
    <path d="M 84.71 647.08 
L 696.006 647.08 
L 696.006 21.6 
L 84.71 21.6 
z
" style="fill: #ffffff"/>
   </g>
   <g id="matplotlib.axis_1">
    <g id="xtick_1">
     <g id="line2d_1">
      <defs>
       <path id="mc797d895b7" d="M 0 0 
L 0 3.5 
" style="stroke: #000000; stroke-width: 0.8"/>
      </defs>
      <g>
       <use xlink:href="#mc797d895b7" x="84.71" y="647.08" style="stroke: #000000; stroke-width: 0.8"/>
      </g>
     </g>
     <g id="text_1">
      <!-- 1.0 -->
      <g transform="translate(68.806875 669.276875) scale(0.2 -0.2)">
       <defs>
        <path id="DejaVuSans-31" d="M 794 531 
L 1825 531 
L 1825 4091 
L 703 3866 
L 703 4441 
L 1819 4666 
L 2450 4666 
L 2450 531 
L 3481 531 
L 3481 0 
L 794 0 
L 794 531 
z
" transform="scale(0.015625)"/>
        <path id="DejaVuSans-2e" d="M 684 794 
L 1344 794 
L 1344 0 
L 684 0 
L 684 794 
z
" transform="scale(0.015625)"/>
        <path id="DejaVuSans-30" d="M 2034 4250 
Q 1547 4250 1301 3770 
Q 1056 3291 1056 2328 
Q 1056 1369 1301 889 
Q 1547 409 2034 409 
Q 2525 409 2770 889 
Q 3016 1369 3016 2328 
Q 3016 3291 2770 3770 
Q 2525 4250 2034 4250 
z
M 2034 4750 
Q 2819 4750 3233 4129 
Q 3647 3509 3647 2328 
Q 3647 1150 3233 529 
Q 2819 -91 2034 -91 
Q 1250 -91 836 529 
Q 422 1150 422 2328 
Q 422 3509 836 4129 
Q 1250 4750 2034 4750 
z
" transform="scale(0.015625)"/>
       </defs>
       <use xlink:href="#DejaVuSans-31"/>
       <use xlink:href="#DejaVuSans-2e" x="63.623047"/>
       <use xlink:href="#DejaVuSans-30" x="95.410156"/>
      </g>
     </g>
    </g>
    <g id="xtick_2">
     <g id="line2d_2">
      <g>
       <use xlink:href="#mc797d895b7" x="206.9692" y="647.08" style="stroke: #000000; stroke-width: 0.8"/>
      </g>
     </g>
     <g id="text_2">
      <!-- 1.2 -->
      <g transform="translate(191.066075 669.276875) scale(0.2 -0.2)">
       <defs>
        <path id="DejaVuSans-32" d="M 1228 531 
L 3431 531 
L 3431 0 
L 469 0 
L 469 531 
Q 828 903 1448 1529 
Q 2069 2156 2228 2338 
Q 2531 2678 2651 2914 
Q 2772 3150 2772 3378 
Q 2772 3750 2511 3984 
Q 2250 4219 1831 4219 
Q 1534 4219 1204 4116 
Q 875 4013 500 3803 
L 500 4441 
Q 881 4594 1212 4672 
Q 1544 4750 1819 4750 
Q 2544 4750 2975 4387 
Q 3406 4025 3406 3419 
Q 3406 3131 3298 2873 
Q 3191 2616 2906 2266 
Q 2828 2175 2409 1742 
Q 1991 1309 1228 531 
z
" transform="scale(0.015625)"/>
       </defs>
       <use xlink:href="#DejaVuSans-31"/>
       <use xlink:href="#DejaVuSans-2e" x="63.623047"/>
       <use xlink:href="#DejaVuSans-32" x="95.410156"/>
      </g>
     </g>
    </g>
    <g id="xtick_3">
     <g id="line2d_3">
      <g>
       <use xlink:href="#mc797d895b7" x="329.2284" y="647.08" style="stroke: #000000; stroke-width: 0.8"/>
      </g>
     </g>
     <g id="text_3">
      <!-- 1.4 -->
      <g transform="translate(313.325275 669.276875) scale(0.2 -0.2)">
       <defs>
        <path id="DejaVuSans-34" d="M 2419 4116 
L 825 1625 
L 2419 1625 
L 2419 4116 
z
M 2253 4666 
L 3047 4666 
L 3047 1625 
L 3713 1625 
L 3713 1100 
L 3047 1100 
L 3047 0 
L 2419 0 
L 2419 1100 
L 313 1100 
L 313 1709 
L 2253 4666 
z
" transform="scale(0.015625)"/>
       </defs>
       <use xlink:href="#DejaVuSans-31"/>
       <use xlink:href="#DejaVuSans-2e" x="63.623047"/>
       <use xlink:href="#DejaVuSans-34" x="95.410156"/>
      </g>
     </g>
    </g>
    <g id="xtick_4">
     <g id="line2d_4">
      <g>
       <use xlink:href="#mc797d895b7" x="451.4876" y="647.08" style="stroke: #000000; stroke-width: 0.8"/>
      </g>
     </g>
     <g id="text_4">
      <!-- 1.6 -->
      <g transform="translate(435.584475 669.276875) scale(0.2 -0.2)">
       <defs>
        <path id="DejaVuSans-36" d="M 2113 2584 
Q 1688 2584 1439 2293 
Q 1191 2003 1191 1497 
Q 1191 994 1439 701 
Q 1688 409 2113 409 
Q 2538 409 2786 701 
Q 3034 994 3034 1497 
Q 3034 2003 2786 2293 
Q 2538 2584 2113 2584 
z
M 3366 4563 
L 3366 3988 
Q 3128 4100 2886 4159 
Q 2644 4219 2406 4219 
Q 1781 4219 1451 3797 
Q 1122 3375 1075 2522 
Q 1259 2794 1537 2939 
Q 1816 3084 2150 3084 
Q 2853 3084 3261 2657 
Q 3669 2231 3669 1497 
Q 3669 778 3244 343 
Q 2819 -91 2113 -91 
Q 1303 -91 875 529 
Q 447 1150 447 2328 
Q 447 3434 972 4092 
Q 1497 4750 2381 4750 
Q 2619 4750 2861 4703 
Q 3103 4656 3366 4563 
z
" transform="scale(0.015625)"/>
       </defs>
       <use xlink:href="#DejaVuSans-31"/>
       <use xlink:href="#DejaVuSans-2e" x="63.623047"/>
       <use xlink:href="#DejaVuSans-36" x="95.410156"/>
      </g>
     </g>
    </g>
    <g id="xtick_5">
     <g id="line2d_5">
      <g>
       <use xlink:href="#mc797d895b7" x="573.7468" y="647.08" style="stroke: #000000; stroke-width: 0.8"/>
      </g>
     </g>
     <g id="text_5">
      <!-- 1.8 -->
      <g transform="translate(557.843675 669.276875) scale(0.2 -0.2)">
       <defs>
        <path id="DejaVuSans-38" d="M 2034 2216 
Q 1584 2216 1326 1975 
Q 1069 1734 1069 1313 
Q 1069 891 1326 650 
Q 1584 409 2034 409 
Q 2484 409 2743 651 
Q 3003 894 3003 1313 
Q 3003 1734 2745 1975 
Q 2488 2216 2034 2216 
z
M 1403 2484 
Q 997 2584 770 2862 
Q 544 3141 544 3541 
Q 544 4100 942 4425 
Q 1341 4750 2034 4750 
Q 2731 4750 3128 4425 
Q 3525 4100 3525 3541 
Q 3525 3141 3298 2862 
Q 3072 2584 2669 2484 
Q 3125 2378 3379 2068 
Q 3634 1759 3634 1313 
Q 3634 634 3220 271 
Q 2806 -91 2034 -91 
Q 1263 -91 848 271 
Q 434 634 434 1313 
Q 434 1759 690 2068 
Q 947 2378 1403 2484 
z
M 1172 3481 
Q 1172 3119 1398 2916 
Q 1625 2713 2034 2713 
Q 2441 2713 2670 2916 
Q 2900 3119 2900 3481 
Q 2900 3844 2670 4047 
Q 2441 4250 2034 4250 
Q 1625 4250 1398 4047 
Q 1172 3844 1172 3481 
z
" transform="scale(0.015625)"/>
       </defs>
       <use xlink:href="#DejaVuSans-31"/>
       <use xlink:href="#DejaVuSans-2e" x="63.623047"/>
       <use xlink:href="#DejaVuSans-38" x="95.410156"/>
      </g>
     </g>
    </g>
    <g id="xtick_6">
     <g id="line2d_6">
      <g>
       <use xlink:href="#mc797d895b7" x="696.006" y="647.08" style="stroke: #000000; stroke-width: 0.8"/>
      </g>
     </g>
     <g id="text_6">
      <!-- 2.0 -->
      <g transform="translate(680.102875 669.276875) scale(0.2 -0.2)">
       <use xlink:href="#DejaVuSans-32"/>
       <use xlink:href="#DejaVuSans-2e" x="63.623047"/>
       <use xlink:href="#DejaVuSans-30" x="95.410156"/>
      </g>
     </g>
    </g>
    <g id="text_7">
     <!-- Position $x$ -->
     <g transform="translate(341.958 692.633125) scale(0.2 -0.2)">
      <defs>
       <path id="DejaVuSans-50" d="M 1259 4147 
L 1259 2394 
L 2053 2394 
Q 2494 2394 2734 2622 
Q 2975 2850 2975 3272 
Q 2975 3691 2734 3919 
Q 2494 4147 2053 4147 
L 1259 4147 
z
M 628 4666 
L 2053 4666 
Q 2838 4666 3239 4311 
Q 3641 3956 3641 3272 
Q 3641 2581 3239 2228 
Q 2838 1875 2053 1875 
L 1259 1875 
L 1259 0 
L 628 0 
L 628 4666 
z
" transform="scale(0.015625)"/>
       <path id="DejaVuSans-6f" d="M 1959 3097 
Q 1497 3097 1228 2736 
Q 959 2375 959 1747 
Q 959 1119 1226 758 
Q 1494 397 1959 397 
Q 2419 397 2687 759 
Q 2956 1122 2956 1747 
Q 2956 2369 2687 2733 
Q 2419 3097 1959 3097 
z
M 1959 3584 
Q 2709 3584 3137 3096 
Q 3566 2609 3566 1747 
Q 3566 888 3137 398 
Q 2709 -91 1959 -91 
Q 1206 -91 779 398 
Q 353 888 353 1747 
Q 353 2609 779 3096 
Q 1206 3584 1959 3584 
z
" transform="scale(0.015625)"/>
       <path id="DejaVuSans-73" d="M 2834 3397 
L 2834 2853 
Q 2591 2978 2328 3040 
Q 2066 3103 1784 3103 
Q 1356 3103 1142 2972 
Q 928 2841 928 2578 
Q 928 2378 1081 2264 
Q 1234 2150 1697 2047 
L 1894 2003 
Q 2506 1872 2764 1633 
Q 3022 1394 3022 966 
Q 3022 478 2636 193 
Q 2250 -91 1575 -91 
Q 1294 -91 989 -36 
Q 684 19 347 128 
L 347 722 
Q 666 556 975 473 
Q 1284 391 1588 391 
Q 1994 391 2212 530 
Q 2431 669 2431 922 
Q 2431 1156 2273 1281 
Q 2116 1406 1581 1522 
L 1381 1569 
Q 847 1681 609 1914 
Q 372 2147 372 2553 
Q 372 3047 722 3315 
Q 1072 3584 1716 3584 
Q 2034 3584 2315 3537 
Q 2597 3491 2834 3397 
z
" transform="scale(0.015625)"/>
       <path id="DejaVuSans-69" d="M 603 3500 
L 1178 3500 
L 1178 0 
L 603 0 
L 603 3500 
z
M 603 4863 
L 1178 4863 
L 1178 4134 
L 603 4134 
L 603 4863 
z
" transform="scale(0.015625)"/>
       <path id="DejaVuSans-74" d="M 1172 4494 
L 1172 3500 
L 2356 3500 
L 2356 3053 
L 1172 3053 
L 1172 1153 
Q 1172 725 1289 603 
Q 1406 481 1766 481 
L 2356 481 
L 2356 0 
L 1766 0 
Q 1100 0 847 248 
Q 594 497 594 1153 
L 594 3053 
L 172 3053 
L 172 3500 
L 594 3500 
L 594 4494 
L 1172 4494 
z
" transform="scale(0.015625)"/>
       <path id="DejaVuSans-6e" d="M 3513 2113 
L 3513 0 
L 2938 0 
L 2938 2094 
Q 2938 2591 2744 2837 
Q 2550 3084 2163 3084 
Q 1697 3084 1428 2787 
Q 1159 2491 1159 1978 
L 1159 0 
L 581 0 
L 581 3500 
L 1159 3500 
L 1159 2956 
Q 1366 3272 1645 3428 
Q 1925 3584 2291 3584 
Q 2894 3584 3203 3211 
Q 3513 2838 3513 2113 
z
" transform="scale(0.015625)"/>
       <path id="DejaVuSans-20" transform="scale(0.015625)"/>
       <path id="DejaVuSans-Oblique-78" d="M 3841 3500 
L 2234 1784 
L 3219 0 
L 2559 0 
L 1819 1388 
L 531 0 
L -166 0 
L 1556 1844 
L 641 3500 
L 1300 3500 
L 1972 2234 
L 3144 3500 
L 3841 3500 
z
" transform="scale(0.015625)"/>
      </defs>
      <use xlink:href="#DejaVuSans-50" transform="translate(0 0.015625)"/>
      <use xlink:href="#DejaVuSans-6f" transform="translate(60.302734 0.015625)"/>
      <use xlink:href="#DejaVuSans-73" transform="translate(121.484375 0.015625)"/>
      <use xlink:href="#DejaVuSans-69" transform="translate(173.583984 0.015625)"/>
      <use xlink:href="#DejaVuSans-74" transform="translate(201.367188 0.015625)"/>
      <use xlink:href="#DejaVuSans-69" transform="translate(240.576172 0.015625)"/>
      <use xlink:href="#DejaVuSans-6f" transform="translate(268.359375 0.015625)"/>
      <use xlink:href="#DejaVuSans-6e" transform="translate(329.541016 0.015625)"/>
      <use xlink:href="#DejaVuSans-20" transform="translate(392.919922 0.015625)"/>
      <use xlink:href="#DejaVuSans-Oblique-78" transform="translate(424.707031 0.015625)"/>
     </g>
    </g>
   </g>
   <g id="matplotlib.axis_2">
    <g id="ytick_1">
     <g id="line2d_7">
      <defs>
       <path id="ma3a669a4fa" d="M 0 0 
L -3.5 0 
" style="stroke: #000000; stroke-width: 0.8"/>
      </defs>
      <g>
       <use xlink:href="#ma3a669a4fa" x="84.71" y="647.08" style="stroke: #000000; stroke-width: 0.8"/>
      </g>
     </g>
     <g id="text_8">
      <!-- 0.0 -->
      <g transform="translate(45.90375 654.678437) scale(0.2 -0.2)">
       <use xlink:href="#DejaVuSans-30"/>
       <use xlink:href="#DejaVuSans-2e" x="63.623047"/>
       <use xlink:href="#DejaVuSans-30" x="95.410156"/>
      </g>
     </g>
    </g>
    <g id="ytick_2">
     <g id="line2d_8">
      <g>
       <use xlink:href="#ma3a669a4fa" x="84.71" y="527.227545" style="stroke: #000000; stroke-width: 0.8"/>
      </g>
     </g>
     <g id="text_9">
      <!-- 0.2 -->
      <g transform="translate(45.90375 534.825982) scale(0.2 -0.2)">
       <use xlink:href="#DejaVuSans-30"/>
       <use xlink:href="#DejaVuSans-2e" x="63.623047"/>
       <use xlink:href="#DejaVuSans-32" x="95.410156"/>
      </g>
     </g>
    </g>
    <g id="ytick_3">
     <g id="line2d_9">
      <g>
       <use xlink:href="#ma3a669a4fa" x="84.71" y="407.37509" style="stroke: #000000; stroke-width: 0.8"/>
      </g>
     </g>
     <g id="text_10">
      <!-- 0.4 -->
      <g transform="translate(45.90375 414.973527) scale(0.2 -0.2)">
       <use xlink:href="#DejaVuSans-30"/>
       <use xlink:href="#DejaVuSans-2e" x="63.623047"/>
       <use xlink:href="#DejaVuSans-34" x="95.410156"/>
      </g>
     </g>
    </g>
    <g id="ytick_4">
     <g id="line2d_10">
      <g>
       <use xlink:href="#ma3a669a4fa" x="84.71" y="287.522635" style="stroke: #000000; stroke-width: 0.8"/>
      </g>
     </g>
     <g id="text_11">
      <!-- 0.6 -->
      <g transform="translate(45.90375 295.121072) scale(0.2 -0.2)">
       <use xlink:href="#DejaVuSans-30"/>
       <use xlink:href="#DejaVuSans-2e" x="63.623047"/>
       <use xlink:href="#DejaVuSans-36" x="95.410156"/>
      </g>
     </g>
    </g>
    <g id="ytick_5">
     <g id="line2d_11">
      <g>
       <use xlink:href="#ma3a669a4fa" x="84.71" y="167.67018" style="stroke: #000000; stroke-width: 0.8"/>
      </g>
     </g>
     <g id="text_12">
      <!-- 0.8 -->
      <g transform="translate(45.90375 175.268617) scale(0.2 -0.2)">
       <use xlink:href="#DejaVuSans-30"/>
       <use xlink:href="#DejaVuSans-2e" x="63.623047"/>
       <use xlink:href="#DejaVuSans-38" x="95.410156"/>
      </g>
     </g>
    </g>
    <g id="ytick_6">
     <g id="line2d_12">
      <g>
       <use xlink:href="#ma3a669a4fa" x="84.71" y="47.817725" style="stroke: #000000; stroke-width: 0.8"/>
      </g>
     </g>
     <g id="text_13">
      <!-- 1.0 -->
      <g transform="translate(45.90375 55.416162) scale(0.2 -0.2)">
       <use xlink:href="#DejaVuSans-31"/>
       <use xlink:href="#DejaVuSans-2e" x="63.623047"/>
       <use xlink:href="#DejaVuSans-30" x="95.410156"/>
      </g>
     </g>
    </g>
    <g id="text_14">
     <!-- $\rho$ -->
     <g transform="translate(37.70375 340.74) rotate(-90) scale(0.2 -0.2)">
      <defs>
       <path id="DejaVuSans-Oblique-3c1" d="M 1203 2875 
Q 1453 3194 1981 3475 
Q 2188 3584 2756 3584 
Q 3394 3584 3694 3078 
Q 3994 2572 3834 1747 
Q 3672 922 3175 415 
Q 2678 -91 2041 -91 
Q 1656 -91 1409 63 
Q 1163 213 1044 525 
L 681 -1331 
L 103 -1331 
L 697 1716 
Q 838 2438 1203 2875 
z
M 3238 1747 
Q 3359 2381 3169 2744 
Q 2978 3103 2522 3103 
Q 2066 3103 1734 2744 
Q 1403 2381 1281 1747 
Q 1156 1113 1347 750 
Q 1538 391 1994 391 
Q 2450 391 2781 750 
Q 3113 1113 3238 1747 
z
" transform="scale(0.015625)"/>
      </defs>
      <use xlink:href="#DejaVuSans-Oblique-3c1"/>
     </g>
    </g>
   </g>
   <g id="line2d_13">
    <path d="M 77.0688 47.817725 
L 229.8928 47.817725 
L 229.8928 47.817725 
L 237.534 62.85869 
L 237.534 62.85869 
L 245.1752 83.948731 
L 245.1752 83.948731 
L 252.8164 104.525005 
L 252.8164 104.525005 
L 260.4576 124.593849 
L 260.4576 124.593849 
L 268.0988 144.161598 
L 268.0988 144.161598 
L 275.74 163.234587 
L 275.74 163.234587 
L 283.3812 181.819151 
L 283.3812 181.819151 
L 291.0224 199.921626 
L 291.0224 199.921626 
L 298.6636 217.548346 
L 298.6636 217.548346 
L 306.3048 234.705648 
L 306.3048 234.705648 
L 313.946 251.399867 
L 313.946 251.399867 
L 321.5872 267.637337 
L 321.5872 267.637337 
L 329.2284 283.424395 
L 329.2284 283.424395 
L 336.8696 298.767374 
L 336.8696 298.767374 
L 344.5108 313.672612 
L 344.5108 313.672612 
L 352.152 328.146443 
L 352.152 328.146443 
L 359.7932 342.195202 
L 359.7932 342.195202 
L 367.4344 355.825224 
L 367.4344 355.825224 
L 375.0756 359.620443 
L 375.0756 359.620443 
L 489.6936 359.620443 
L 489.6936 359.620443 
L 497.3348 509.366084 
L 497.3348 509.366084 
L 611.9528 509.366084 
L 611.9528 509.366084 
L 619.594 572.172216 
L 619.594 572.172216 
L 688.3648 572.172216 
L 688.3648 572.172216 
" clip-path="url(#pd9375b9c49)" style="fill: none; stroke: #1f77b4; stroke-width: 1.5; stroke-linecap: square"/>
   </g>
   <g id="line2d_14">
    <path d="M 77.0688 47.853081 
L 107.6336 47.916004 
L 107.6336 47.916004 
L 122.916 48.117955 
L 122.916 48.117955 
L 130.5572 48.325899 
L 130.5572 48.325899 
L 138.1984 48.656692 
L 138.1984 48.656692 
L 145.8396 49.165465 
L 145.8396 49.165465 
L 153.4808 49.924731 
L 153.4808 49.924731 
L 161.122 51.023178 
L 161.122 51.023178 
L 168.7632 52.56508 
L 168.7632 52.56508 
L 176.4044 54.663697 
L 176.4044 54.663697 
L 184.0456 57.435285 
L 184.0456 57.435285 
L 191.6868 60.991906 
L 191.6868 60.991906 
L 199.328 65.431241 
L 199.328 65.431241 
L 206.9692 70.831194 
L 206.9692 70.831194 
L 214.6104 77.240304 
L 214.6104 77.240304 
L 222.2516 84.680145 
L 222.2516 84.680145 
L 229.8928 93.141129 
L 229.8928 93.141129 
L 237.534 102.588499 
L 237.534 102.588499 
L 245.1752 112.965324 
L 245.1752 112.965324 
L 252.8164 124.196099 
L 252.8164 124.196099 
L 260.4576 136.195726 
L 260.4576 136.195726 
L 268.0988 148.870723 
L 268.0988 148.870723 
L 275.74 162.125805 
L 275.74 162.125805 
L 283.3812 175.867488 
L 283.3812 175.867488 
L 291.0224 190.002288 
L 291.0224 190.002288 
L 306.3048 219.110853 
L 306.3048 219.110853 
L 344.5108 293.170082 
L 344.5108 293.170082 
L 352.152 307.567958 
L 352.152 307.567958 
L 359.7932 321.548747 
L 359.7932 321.548747 
L 367.4344 334.839785 
L 367.4344 334.839785 
L 375.0756 346.908927 
L 375.0756 346.908927 
L 382.7168 356.704468 
L 382.7168 356.704468 
L 390.358 362.635367 
L 390.358 362.635367 
L 397.9992 364.410382 
L 397.9992 364.410382 
L 413.2816 365.275716 
L 413.2816 365.275117 
L 420.9228 366.015206 
L 420.9228 366.015206 
L 428.564 367.328789 
L 428.564 367.32819 
L 436.2052 369.670706 
L 436.2052 369.670706 
L 443.8464 373.6558 
L 443.8464 373.6558 
L 451.4876 379.924683 
L 451.4876 379.924683 
L 459.1288 388.929797 
L 459.1288 388.929797 
L 466.77 400.733466 
L 466.77 400.733466 
L 474.4112 414.897629 
L 474.4112 414.897629 
L 482.0524 430.529985 
L 482.0524 430.529985 
L 489.6936 446.472159 
L 489.6936 446.472159 
L 497.3348 461.560984 
L 497.3348 461.560984 
L 504.976 474.86161 
L 504.976 474.86161 
L 512.6172 485.814926 
L 512.6172 485.814926 
L 520.2584 494.259131 
L 520.2584 494.259131 
L 527.8996 500.362617 
L 527.8996 500.362617 
L 535.5408 504.505916 
L 535.5408 504.505916 
L 543.182 507.158251 
L 543.182 507.158251 
L 550.8232 508.787046 
L 550.8232 508.787046 
L 558.4644 509.808788 
L 558.4644 509.808788 
L 573.7468 511.401028 
L 573.7468 511.400429 
L 581.388 512.588167 
L 581.388 512.588167 
L 589.0292 514.477641 
L 589.0292 514.477041 
L 596.6704 517.466761 
L 596.6704 517.466162 
L 604.3116 521.99239 
L 604.3116 521.99239 
L 611.9528 528.411687 
L 611.9528 528.411687 
L 619.594 536.731245 
L 619.594 536.731245 
L 627.2352 546.260714 
L 627.2352 546.260714 
L 634.8764 555.531301 
L 634.8764 555.531301 
L 642.5176 562.914812 
L 642.5176 562.914812 
L 650.1588 567.656175 
L 650.1588 567.656175 
L 657.8 570.169481 
L 657.8 570.169481 
L 665.4412 571.333248 
L 665.4412 571.333248 
L 673.0824 571.830636 
L 673.0824 571.830636 
L 680.7236 572.033187 
L 680.7236 572.033187 
L 688.3648 572.111091 
L 688.3648 572.111091 
" clip-path="url(#pd9375b9c49)" style="fill: none; stroke: #ff7f0e; stroke-width: 1.5; stroke-linecap: square"/>
   </g>
   <g id="line2d_15">
    <path d="M 77.0688 48.419384 
L 92.3512 48.419384 
L 92.3512 48.419384 
L 99.9924 48.566802 
L 99.9924 48.566802 
L 107.6336 48.826283 
L 107.6336 48.826283 
L 115.2748 49.221197 
L 115.2748 49.221197 
L 122.916 49.781507 
L 122.916 49.781507 
L 130.5572 50.544967 
L 130.5572 50.544368 
L 138.1984 51.556522 
L 138.1984 51.555923 
L 145.8396 52.866509 
L 145.8396 52.866509 
L 153.4808 54.529462 
L 153.4808 54.529462 
L 161.122 56.601112 
L 161.122 56.601112 
L 168.7632 59.137789 
L 168.7632 59.137789 
L 176.4044 62.193427 
L 176.4044 62.193427 
L 184.0456 65.816567 
L 184.0456 65.816567 
L 191.6868 70.050954 
L 199.328 74.931346 
L 199.328 74.931346 
L 206.9692 80.485908 
L 206.9692 80.485908 
L 214.6104 86.732019 
L 214.6104 86.732019 
L 222.2516 93.678068 
L 222.2516 93.678068 
L 229.8928 101.324055 
L 229.8928 101.324055 
L 237.534 109.659794 
L 237.534 109.659794 
L 245.1752 118.668503 
L 245.1752 118.668503 
L 252.8164 128.325615 
L 252.8164 128.325615 
L 260.4576 138.599967 
L 260.4576 138.599367 
L 268.0988 149.454404 
L 268.0988 149.454404 
L 275.74 160.849376 
L 275.74 160.848777 
L 283.3812 172.739339 
L 283.3812 172.73874 
L 291.0224 185.076951 
L 291.0224 185.076352 
L 298.6636 197.812473 
L 298.6636 197.812473 
L 306.3048 210.893769 
L 306.3048 210.893769 
L 313.946 224.267505 
L 313.946 224.266906 
L 329.2284 251.655589 
L 329.2284 251.65499 
L 352.152 293.250983 
L 352.152 293.250384 
L 359.7932 306.779928 
L 359.7932 306.779329 
L 367.4344 319.716802 
L 367.4344 319.716203 
L 375.0756 331.511482 
L 375.0756 331.510883 
L 382.7168 341.298634 
L 382.7168 341.298034 
L 390.358 348.208128 
L 390.358 348.208128 
L 397.9992 352.464688 
L 397.9992 352.464088 
L 405.6404 355.603623 
L 405.6404 355.603623 
L 413.2816 358.607725 
L 413.2816 358.607725 
L 420.9228 362.093634 
L 420.9228 362.093634 
L 428.564 366.508399 
L 436.2052 372.072549 
L 443.8464 378.983841 
L 451.4876 387.301601 
L 459.1288 396.98508 
L 466.77 407.857496 
L 474.4112 419.624011 
L 489.6936 444.208746 
L 489.6936 444.208146 
L 497.3348 456.120282 
L 497.3348 456.119683 
L 504.976 467.213825 
L 504.976 467.213825 
L 512.6172 477.168171 
L 512.6172 477.167571 
L 520.2584 485.776573 
L 520.2584 485.775974 
L 527.8996 492.95993 
L 527.8996 492.959331 
L 535.5408 498.760789 
L 535.5408 498.76019 
L 543.182 503.318778 
L 543.182 503.318778 
L 550.8232 506.847234 
L 550.8232 506.847234 
L 558.4644 509.598447 
L 558.4644 509.598447 
L 566.1056 511.840887 
L 566.1056 511.840887 
L 581.388 515.821786 
L 581.388 515.821187 
L 589.0292 518.010292 
L 589.0292 518.010292 
L 596.6704 520.579928 
L 596.6704 520.579928 
L 604.3116 523.671523 
L 604.3116 523.671523 
L 611.9528 527.387548 
L 611.9528 527.387548 
L 619.594 531.778942 
L 619.594 531.778942 
L 627.2352 536.830124 
L 627.2352 536.830124 
L 634.8764 542.433226 
L 634.8764 542.433226 
L 650.1588 554.218917 
L 650.1588 554.218917 
L 657.8 559.547557 
L 657.8 559.547557 
L 665.4412 563.898201 
L 665.4412 563.898201 
L 673.0824 567.049722 
L 673.0824 567.049722 
L 680.7236 569.05725 
L 680.7236 569.05725 
L 688.3648 570.128731 
L 688.3648 570.128731 
" clip-path="url(#pd9375b9c49)" style="fill: none; stroke: #2ca02c; stroke-width: 1.5; stroke-linecap: square"/>
   </g>
   <g id="line2d_16">
    <path d="M 77.0688 48.047841 
L 92.3512 48.047841 
L 92.3512 48.047841 
L 107.6336 48.315112 
L 107.6336 48.315112 
L 115.2748 48.5686 
L 115.2748 48.5686 
L 122.916 48.939544 
L 122.916 48.939544 
L 130.5572 49.466894 
L 130.5572 49.466894 
L 138.1984 50.199792 
L 138.1984 50.199792 
L 145.8396 51.196365 
L 145.8396 51.196365 
L 153.4808 52.52433 
L 153.4808 52.52433 
L 161.122 54.256198 
L 161.122 54.256198 
L 168.7632 56.469873 
L 168.7632 56.469873 
L 176.4044 59.244458 
L 176.4044 59.244458 
L 184.0456 62.65426 
L 184.0456 62.65426 
L 191.6868 66.768795 
L 191.6868 66.768795 
L 199.328 71.64619 
L 199.328 71.64619 
L 206.9692 77.330792 
L 206.9692 77.329594 
L 214.6104 83.852564 
L 214.6104 83.851964 
L 222.2516 91.23128 
L 222.2516 91.209107 
L 229.8928 99.446567 
L 229.8928 99.445368 
L 237.534 108.486438 
L 237.534 108.471456 
L 245.1752 118.330519 
L 245.1752 118.323328 
L 252.8164 128.93866 
L 252.8164 128.879933 
L 260.4576 140.240747 
L 260.4576 140.185015 
L 268.0988 152.18704 
L 268.0988 152.056401 
L 275.74 164.49409 
L 275.74 164.735592 
L 275.74 164.522255 
L 283.3812 177.471114 
L 283.3812 177.827675 
L 283.3812 177.439953 
L 291.0224 190.990471 
L 291.0224 191.339242 
L 291.0224 190.882604 
L 291.0224 190.99946 
L 298.6636 204.753728 
L 298.6636 205.118678 
L 298.6636 204.739345 
L 306.3048 219.108456 
L 306.3048 219.357749 
L 306.3048 218.90231 
L 306.3048 218.958041 
L 313.946 233.435619 
L 313.946 233.805364 
L 313.946 233.172543 
L 321.5872 248.416576 
L 321.5872 248.790516 
L 321.5872 247.777164 
L 329.2284 263.251913 
L 329.2284 263.861363 
L 329.2284 262.424931 
L 329.2284 262.654449 
L 336.8696 276.749697 
L 336.8696 279.729828 
L 336.8696 277.489786 
L 344.5108 291.635372 
L 344.5108 294.145681 
L 344.5108 291.595221 
L 352.152 307.023228 
L 352.152 308.981018 
L 352.152 305.410014 
L 359.7932 321.433688 
L 359.7932 318.282767 
L 359.7932 324.347901 
L 359.7932 320.162653 
L 367.4344 335.129228 
L 367.4344 328.31262 
L 367.4344 338.918364 
L 367.4344 335.025556 
L 375.0756 347.065934 
L 375.0756 339.170653 
L 375.0756 350.080223 
L 375.0756 346.808251 
L 382.7168 356.060261 
L 382.7168 347.71853 
L 382.7168 353.460661 
L 390.358 360.832786 
L 390.358 349.774 
L 390.358 357.6531 
L 397.9992 361.351747 
L 397.9992 351.69104 
L 397.9992 358.572369 
L 405.6404 362.071461 
L 405.6404 352.82005 
L 405.6404 362.610797 
L 405.6404 359.704375 
L 413.2816 362.478959 
L 413.2816 353.744112 
L 413.2816 363.465345 
L 413.2816 360.150226 
L 420.9228 363.248412 
L 420.9228 355.01335 
L 420.9228 364.52544 
L 420.9228 361.115638 
L 428.564 364.641098 
L 428.564 357.440362 
L 428.564 366.151838 
L 428.564 362.952377 
L 436.2052 367.52295 
L 436.2052 361.824565 
L 436.2052 369.145153 
L 436.2052 366.227345 
L 443.8464 372.481845 
L 443.8464 368.52192 
L 443.8464 374.069291 
L 443.8464 371.443324 
L 451.4876 379.758088 
L 451.4876 377.288528 
L 451.4876 381.221486 
L 451.4876 378.974852 
L 459.1288 389.433177 
L 459.1288 388.057271 
L 459.1288 390.712602 
L 459.1288 388.947176 
L 466.77 401.398647 
L 466.77 400.753841 
L 466.77 402.461139 
L 466.77 401.165534 
L 474.4112 415.178683 
L 474.4112 414.976133 
L 474.4112 416.01765 
L 474.4112 415.112764 
L 482.0524 430.028402 
L 482.0524 430.627065 
L 482.0524 429.930123 
L 482.0524 430.021211 
L 489.6936 445.071084 
L 489.6936 445.460604 
L 489.6936 444.902691 
L 489.6936 444.999173 
L 497.3348 459.273001 
L 497.3348 459.528286 
L 497.3348 459.091424 
L 497.3348 459.18431 
L 504.976 471.960582 
L 504.976 472.124779 
L 504.976 471.793387 
L 504.976 471.877883 
L 512.6172 482.710748 
L 512.6172 482.797041 
L 512.6172 482.553741 
L 512.6172 482.62745 
L 520.2584 491.356904 
L 520.2584 491.24604 
L 527.8996 497.852907 
L 527.8996 497.786988 
L 535.5408 502.519362 
L 535.5408 502.479211 
L 543.182 505.675077 
L 543.182 505.650507 
L 550.8232 507.684404 
L 550.8232 507.658036 
L 558.4644 508.869744 
L 558.4644 508.844575 
L 581.388 511.060647 
L 581.388 511.005515 
L 589.0292 512.417377 
L 589.0292 512.377226 
L 596.6704 514.535769 
L 596.6704 514.52678 
L 604.3116 517.732833 
L 604.3116 517.715455 
L 611.9528 522.179959 
L 611.9528 522.160183 
L 619.594 528.062317 
L 619.594 528.01977 
L 627.2352 535.16777 
L 642.5176 551.01586 
L 650.1588 558.079365 
L 657.8 563.581192 
L 665.4412 567.324184 
L 673.0824 569.584002 
L 680.7236 570.826272 
L 680.7236 570.826272 
L 688.3648 571.44591 
L 688.3648 571.44591 
" clip-path="url(#pd9375b9c49)" style="fill: none; stroke: #d62728; stroke-width: 1.5; stroke-linecap: square"/>
   </g>
   <g id="line2d_17">
    <path d="M 77.0688 48.06522 
L 92.3512 47.988514 
L 92.3512 48.028066 
L 92.3512 48.043047 
L 99.9924 48.026268 
L 99.9924 48.116756 
L 107.6336 48.230616 
L 107.6336 48.249793 
L 115.2748 48.404402 
L 115.2748 48.463729 
L 122.916 48.639313 
L 122.916 48.807706 
L 130.5572 49.068385 
L 130.5572 49.278127 
L 138.1984 49.629294 
L 138.1984 49.958289 
L 145.8396 50.549162 
L 145.8396 50.927896 
L 153.4808 51.767462 
L 153.4808 52.197133 
L 161.122 53.344121 
L 161.122 53.903233 
L 168.7632 55.350451 
L 168.7632 56.022224 
L 176.4044 57.857165 
L 176.4044 58.647592 
L 184.0456 61.090185 
L 184.0456 61.893197 
L 191.6868 65.289216 
L 191.6868 65.898666 
L 199.328 69.866981 
L 199.328 70.688569 
L 206.9692 75.560572 
L 206.9692 76.213168 
L 214.6104 82.112306 
L 214.6104 82.481452 
L 214.6104 82.444297 
L 222.2516 89.28967 
L 222.2516 89.612073 
L 229.8928 97.505556 
L 229.8928 97.400685 
L 229.8928 97.319186 
L 229.8928 97.626607 
L 229.8928 97.508552 
L 237.534 106.354862 
L 237.534 106.046841 
L 237.534 106.45374 
L 245.1752 115.938264 
L 245.1752 116.458424 
L 245.1752 115.929875 
L 245.1752 115.972422 
L 252.8164 126.752551 
L 252.8164 125.707438 
L 252.8164 126.021451 
L 260.4576 137.611783 
L 260.4576 136.588243 
L 260.4576 137.636952 
L 260.4576 137.140763 
L 268.0988 149.283615 
L 268.0988 149.090652 
L 268.0988 148.393111 
L 275.74 161.561899 
L 275.74 159.958873 
L 283.3812 174.389108 
L 283.3812 172.434315 
L 291.0224 186.816609 
L 291.0224 187.248677 
L 291.0224 185.863183 
L 298.6636 201.323551 
L 298.6636 198.77369 
L 306.3048 215.252803 
L 306.3048 212.010794 
L 313.946 228.760175 
L 313.946 226.446423 
L 313.946 227.007332 
L 321.5872 243.452288 
L 321.5872 240.097018 
L 321.5872 241.215242 
L 329.2284 258.219309 
L 329.2284 253.741022 
L 329.2284 254.50568 
L 336.8696 272.626173 
L 336.8696 268.52662 
L 336.8696 269.317646 
L 344.5108 285.416827 
L 344.5108 285.36589 
L 344.5108 282.775878 
L 344.5108 283.955826 
L 352.152 300.508049 
L 352.152 296.970604 
L 352.152 297.725075 
L 359.7932 314.416926 
L 359.7932 315.119861 
L 359.7932 312.368049 
L 359.7932 312.60236 
L 367.4344 328.111268 
L 367.4344 324.564834 
L 367.4344 325.001097 
L 375.0756 338.98608 
L 375.0756 341.176384 
L 375.0756 338.370039 
L 375.0756 340.502214 
L 382.7168 349.997525 
L 382.7168 346.27311 
L 390.358 355.964978 
L 390.358 356.187904 
L 390.358 353.994604 
L 390.358 354.648999 
L 397.9992 358.191238 
L 397.9992 358.773121 
L 397.9992 357.553024 
L 405.6404 360.134645 
L 405.6404 361.12223 
L 405.6404 360.104682 
L 405.6404 360.449857 
L 413.2816 361.652577 
L 413.2816 363.213655 
L 413.2816 362.547275 
L 420.9228 363.585797 
L 420.9228 366.042772 
L 420.9228 365.555572 
L 428.564 366.016405 
L 428.564 369.32613 
L 428.564 369.035488 
L 436.2052 370.206446 
L 436.2052 374.099853 
L 436.2052 373.786439 
L 443.8464 375.58123 
L 443.8464 380.20274 
L 443.8464 380.160792 
L 451.4876 382.96534 
L 451.4876 387.89607 
L 451.4876 387.893673 
L 459.1288 392.949049 
L 459.1288 392.61526 
L 459.1288 397.371005 
L 466.77 404.789273 
L 466.77 403.328871 
L 466.77 408.369865 
L 474.4112 418.336196 
L 474.4112 415.390223 
L 474.4112 420.370092 
L 482.0524 432.732873 
L 482.0524 434.751188 
L 482.0524 428.373839 
L 482.0524 432.965986 
L 489.6936 447.128351 
L 489.6936 450.107883 
L 489.6936 441.746976 
L 489.6936 445.703306 
L 497.3348 460.649506 
L 497.3348 464.541115 
L 497.3348 454.346465 
L 497.3348 458.154178 
L 504.976 473.054235 
L 504.976 476.821198 
L 504.976 466.208862 
L 504.976 469.673197 
L 512.6172 483.945827 
L 512.6172 486.9733 
L 512.6172 476.706739 
L 512.6172 480.087177 
L 520.2584 492.598575 
L 520.2584 495.195778 
L 520.2584 486.018675 
L 520.2584 488.751311 
L 527.8996 498.678091 
L 527.8996 501.1075 
L 527.8996 493.536421 
L 527.8996 496.065307 
L 535.5408 503.150984 
L 535.5408 505.279564 
L 535.5408 499.448742 
L 535.5408 501.413124 
L 543.182 506.518239 
L 543.182 508.122464 
L 543.182 503.792794 
L 543.182 505.39642 
L 550.8232 508.671389 
L 550.8232 510.061078 
L 550.8232 507.148663 
L 550.8232 508.219545 
L 558.4644 510.30258 
L 558.4644 511.444175 
L 558.4644 509.416272 
L 558.4644 510.40026 
L 566.1056 511.686876 
L 566.1056 512.554608 
L 566.1056 511.260801 
L 566.1056 512.032051 
L 573.7468 513.059786 
L 573.7468 513.820849 
L 573.7468 512.947724 
L 573.7468 513.691409 
L 581.388 514.771879 
L 581.388 515.547324 
L 589.0292 516.911844 
L 589.0292 517.913811 
L 589.0292 517.806543 
L 596.6704 519.711597 
L 596.6704 521.284062 
L 604.3116 523.796169 
L 604.3116 525.480695 
L 611.9528 529.140989 
L 611.9528 530.770983 
L 611.9528 530.138761 
L 619.594 536.353111 
L 619.594 537.214251 
L 619.594 536.757014 
L 627.2352 544.263972 
L 627.2352 544.764955 
L 627.2352 544.552217 
L 634.8764 552.676416 
L 634.8764 552.842412 
L 634.8764 552.602107 
L 642.5176 559.798049 
L 642.5176 560.12225 
L 642.5176 559.688983 
L 650.1588 565.281898 
L 650.1588 565.251935 
L 650.1588 565.046987 
L 650.1588 565.286093 
L 650.1588 565.171034 
L 657.8 568.681513 
L 657.8 568.590425 
L 657.8 568.395665 
L 665.4412 570.500873 
L 665.4412 570.407987 
L 665.4412 570.370234 
L 665.4412 570.385215 
L 673.0824 571.373998 
L 673.0824 571.28351 
L 680.7236 571.777901 
L 680.7236 571.738949 
L 688.3648 571.953485 
L 688.3648 571.922922 
" clip-path="url(#pd9375b9c49)" style="fill: none; stroke: #9467bd; stroke-width: 1.5; stroke-linecap: square"/>
   </g>
   <g id="patch_3">
    <path d="M 84.71 647.08 
L 84.71 21.6 
" style="fill: none; stroke: #000000; stroke-width: 0.8; stroke-linejoin: miter; stroke-linecap: square"/>
   </g>
   <g id="patch_4">
    <path d="M 696.006 647.08 
L 696.006 21.6 
" style="fill: none; stroke: #000000; stroke-width: 0.8; stroke-linejoin: miter; stroke-linecap: square"/>
   </g>
   <g id="patch_5">
    <path d="M 84.71 647.08 
L 696.006 647.08 
" style="fill: none; stroke: #000000; stroke-width: 0.8; stroke-linejoin: miter; stroke-linecap: square"/>
   </g>
   <g id="patch_6">
    <path d="M 84.71 21.6 
L 696.006 21.6 
" style="fill: none; stroke: #000000; stroke-width: 0.8; stroke-linejoin: miter; stroke-linecap: square"/>
   </g>
  </g>
  <g id="axes_2">
   <g id="patch_7">
    <path d="M 797.942 647.08 
L 1409.238 647.08 
L 1409.238 21.6 
L 797.942 21.6 
z
" style="fill: #ffffff"/>
   </g>
   <g id="matplotlib.axis_3">
    <g id="xtick_7">
     <g id="line2d_18">
      <g>
       <use xlink:href="#mc797d895b7" x="797.942" y="647.08" style="stroke: #000000; stroke-width: 0.8"/>
      </g>
     </g>
     <g id="text_15">
      <!-- 1.0 -->
      <g transform="translate(782.038875 669.276875) scale(0.2 -0.2)">
       <use xlink:href="#DejaVuSans-31"/>
       <use xlink:href="#DejaVuSans-2e" x="63.623047"/>
       <use xlink:href="#DejaVuSans-30" x="95.410156"/>
      </g>
     </g>
    </g>
    <g id="xtick_8">
     <g id="line2d_19">
      <g>
       <use xlink:href="#mc797d895b7" x="920.2012" y="647.08" style="stroke: #000000; stroke-width: 0.8"/>
      </g>
     </g>
     <g id="text_16">
      <!-- 1.2 -->
      <g transform="translate(904.298075 669.276875) scale(0.2 -0.2)">
       <use xlink:href="#DejaVuSans-31"/>
       <use xlink:href="#DejaVuSans-2e" x="63.623047"/>
       <use xlink:href="#DejaVuSans-32" x="95.410156"/>
      </g>
     </g>
    </g>
    <g id="xtick_9">
     <g id="line2d_20">
      <g>
       <use xlink:href="#mc797d895b7" x="1042.4604" y="647.08" style="stroke: #000000; stroke-width: 0.8"/>
      </g>
     </g>
     <g id="text_17">
      <!-- 1.4 -->
      <g transform="translate(1026.557275 669.276875) scale(0.2 -0.2)">
       <use xlink:href="#DejaVuSans-31"/>
       <use xlink:href="#DejaVuSans-2e" x="63.623047"/>
       <use xlink:href="#DejaVuSans-34" x="95.410156"/>
      </g>
     </g>
    </g>
    <g id="xtick_10">
     <g id="line2d_21">
      <g>
       <use xlink:href="#mc797d895b7" x="1164.7196" y="647.08" style="stroke: #000000; stroke-width: 0.8"/>
      </g>
     </g>
     <g id="text_18">
      <!-- 1.6 -->
      <g transform="translate(1148.816475 669.276875) scale(0.2 -0.2)">
       <use xlink:href="#DejaVuSans-31"/>
       <use xlink:href="#DejaVuSans-2e" x="63.623047"/>
       <use xlink:href="#DejaVuSans-36" x="95.410156"/>
      </g>
     </g>
    </g>
    <g id="xtick_11">
     <g id="line2d_22">
      <g>
       <use xlink:href="#mc797d895b7" x="1286.9788" y="647.08" style="stroke: #000000; stroke-width: 0.8"/>
      </g>
     </g>
     <g id="text_19">
      <!-- 1.8 -->
      <g transform="translate(1271.075675 669.276875) scale(0.2 -0.2)">
       <use xlink:href="#DejaVuSans-31"/>
       <use xlink:href="#DejaVuSans-2e" x="63.623047"/>
       <use xlink:href="#DejaVuSans-38" x="95.410156"/>
      </g>
     </g>
    </g>
    <g id="xtick_12">
     <g id="line2d_23">
      <g>
       <use xlink:href="#mc797d895b7" x="1409.238" y="647.08" style="stroke: #000000; stroke-width: 0.8"/>
      </g>
     </g>
     <g id="text_20">
      <!-- 2.0 -->
      <g transform="translate(1393.334875 669.276875) scale(0.2 -0.2)">
       <use xlink:href="#DejaVuSans-32"/>
       <use xlink:href="#DejaVuSans-2e" x="63.623047"/>
       <use xlink:href="#DejaVuSans-30" x="95.410156"/>
      </g>
     </g>
    </g>
    <g id="text_21">
     <!-- Position $x$ -->
     <g transform="translate(1055.19 692.633125) scale(0.2 -0.2)">
      <use xlink:href="#DejaVuSans-50" transform="translate(0 0.015625)"/>
      <use xlink:href="#DejaVuSans-6f" transform="translate(60.302734 0.015625)"/>
      <use xlink:href="#DejaVuSans-73" transform="translate(121.484375 0.015625)"/>
      <use xlink:href="#DejaVuSans-69" transform="translate(173.583984 0.015625)"/>
      <use xlink:href="#DejaVuSans-74" transform="translate(201.367188 0.015625)"/>
      <use xlink:href="#DejaVuSans-69" transform="translate(240.576172 0.015625)"/>
      <use xlink:href="#DejaVuSans-6f" transform="translate(268.359375 0.015625)"/>
      <use xlink:href="#DejaVuSans-6e" transform="translate(329.541016 0.015625)"/>
      <use xlink:href="#DejaVuSans-20" transform="translate(392.919922 0.015625)"/>
      <use xlink:href="#DejaVuSans-Oblique-78" transform="translate(424.707031 0.015625)"/>
     </g>
    </g>
   </g>
   <g id="matplotlib.axis_4">
    <g id="ytick_7">
     <g id="line2d_24">
      <g>
       <use xlink:href="#ma3a669a4fa" x="797.942" y="647.08" style="stroke: #000000; stroke-width: 0.8"/>
      </g>
     </g>
     <g id="text_22">
      <!-- 0.0 -->
      <g transform="translate(759.13575 654.678437) scale(0.2 -0.2)">
       <use xlink:href="#DejaVuSans-30"/>
       <use xlink:href="#DejaVuSans-2e" x="63.623047"/>
       <use xlink:href="#DejaVuSans-30" x="95.410156"/>
      </g>
     </g>
    </g>
    <g id="ytick_8">
     <g id="line2d_25">
      <g>
       <use xlink:href="#ma3a669a4fa" x="797.942" y="514.870501" style="stroke: #000000; stroke-width: 0.8"/>
      </g>
     </g>
     <g id="text_23">
      <!-- 0.2 -->
      <g transform="translate(759.13575 522.468938) scale(0.2 -0.2)">
       <use xlink:href="#DejaVuSans-30"/>
       <use xlink:href="#DejaVuSans-2e" x="63.623047"/>
       <use xlink:href="#DejaVuSans-32" x="95.410156"/>
      </g>
     </g>
    </g>
    <g id="ytick_9">
     <g id="line2d_26">
      <g>
       <use xlink:href="#ma3a669a4fa" x="797.942" y="382.661002" style="stroke: #000000; stroke-width: 0.8"/>
      </g>
     </g>
     <g id="text_24">
      <!-- 0.4 -->
      <g transform="translate(759.13575 390.259439) scale(0.2 -0.2)">
       <use xlink:href="#DejaVuSans-30"/>
       <use xlink:href="#DejaVuSans-2e" x="63.623047"/>
       <use xlink:href="#DejaVuSans-34" x="95.410156"/>
      </g>
     </g>
    </g>
    <g id="ytick_10">
     <g id="line2d_27">
      <g>
       <use xlink:href="#ma3a669a4fa" x="797.942" y="250.451503" style="stroke: #000000; stroke-width: 0.8"/>
      </g>
     </g>
     <g id="text_25">
      <!-- 0.6 -->
      <g transform="translate(759.13575 258.04994) scale(0.2 -0.2)">
       <use xlink:href="#DejaVuSans-30"/>
       <use xlink:href="#DejaVuSans-2e" x="63.623047"/>
       <use xlink:href="#DejaVuSans-36" x="95.410156"/>
      </g>
     </g>
    </g>
    <g id="ytick_11">
     <g id="line2d_28">
      <g>
       <use xlink:href="#ma3a669a4fa" x="797.942" y="118.242004" style="stroke: #000000; stroke-width: 0.8"/>
      </g>
     </g>
     <g id="text_26">
      <!-- 0.8 -->
      <g transform="translate(759.13575 125.840441) scale(0.2 -0.2)">
       <use xlink:href="#DejaVuSans-30"/>
       <use xlink:href="#DejaVuSans-2e" x="63.623047"/>
       <use xlink:href="#DejaVuSans-38" x="95.410156"/>
      </g>
     </g>
    </g>
    <g id="text_27">
     <!-- $U_x$ -->
     <g transform="translate(750.976375 346.14) rotate(-90) scale(0.2 -0.2)">
      <defs>
       <path id="DejaVuSans-Oblique-55" d="M 991 4666 
L 1625 4666 
L 1075 1831 
Q 1041 1641 1027 1517 
Q 1013 1394 1013 1300 
Q 1013 869 1253 645 
Q 1494 422 1959 422 
Q 2563 422 2898 753 
Q 3234 1084 3378 1831 
L 3928 4666 
L 4563 4666 
L 4000 1753 
Q 3816 809 3300 359 
Q 2784 -91 1888 -91 
Q 1188 -91 780 261 
Q 372 613 372 1216 
Q 372 1325 387 1461 
Q 403 1597 434 1753 
L 991 4666 
z
" transform="scale(0.015625)"/>
      </defs>
      <use xlink:href="#DejaVuSans-Oblique-55" transform="translate(0 0.09375)"/>
      <use xlink:href="#DejaVuSans-Oblique-78" transform="translate(73.193359 -16.3125) scale(0.7)"/>
     </g>
    </g>
   </g>
   <g id="line2d_29">
    <path d="M 790.3008 647.08 
L 943.1248 647.08 
L 943.1248 647.08 
L 950.766 625.478432 
L 950.766 625.478432 
L 1080.6664 99.791753 
L 1080.6664 99.791753 
L 1088.3076 91.01025 
L 1088.3076 91.01025 
L 1325.1848 91.01025 
L 1325.1848 91.01025 
L 1332.826 647.08 
L 1332.826 647.08 
L 1401.5968 647.08 
L 1401.5968 647.08 
" clip-path="url(#p6c5127558e)" style="fill: none; stroke: #1f77b4; stroke-width: 1.5; stroke-linecap: square"/>
   </g>
   <g id="line2d_30">
    <path d="M 790.3008 647.105941 
L 820.8656 646.9603 
L 820.8656 646.9603 
L 836.148 646.698063 
L 836.148 646.698063 
L 843.7892 646.428688 
L 843.7892 646.428689 
L 851.4304 645.999075 
L 851.4304 645.999075 
L 859.0716 645.333797 
L 859.0716 645.333797 
L 866.7128 644.33428 
L 866.7128 644.33428 
L 874.354 642.877734 
L 874.354 642.877734 
L 881.9952 640.818908 
L 881.9952 640.818908 
L 889.6364 637.995026 
L 889.6364 637.995026 
L 897.2776 634.234062 
L 897.2776 634.234062 
L 904.9188 629.364919 
L 904.9188 629.364919 
L 912.56 623.228745 
L 912.56 623.228811 
L 920.2012 615.689565 
L 920.2012 615.689565 
L 927.8424 606.641675 
L 927.8424 606.641675 
L 935.4836 596.014478 
L 935.4836 596.014478 
L 943.1248 583.773398 
L 943.1248 583.773465 
L 950.766 569.917909 
L 950.766 569.917909 
L 958.4072 554.47584 
L 958.4072 554.47584 
L 966.0484 537.498818 
L 966.0484 537.498818 
L 973.6896 519.056254 
L 973.6896 519.056254 
L 981.3308 499.227473 
L 981.3308 499.228134 
L 988.972 478.099073 
L 988.972 478.099073 
L 996.6132 455.758312 
L 996.6132 455.758973 
L 1004.2544 432.292448 
L 1004.2544 432.293109 
L 1011.8956 407.786095 
L 1011.8956 407.786756 
L 1019.5368 382.320562 
L 1019.5368 382.321885 
L 1027.178 355.974515 
L 1027.178 355.975176 
L 1034.8192 328.824633 
L 1034.8192 328.824633 
L 1042.4604 300.951565 
L 1042.4604 300.951565 
L 1050.1016 272.446536 
L 1050.1016 272.447197 
L 1065.384 214.074059 
L 1065.384 214.07472 
L 1073.0252 184.685871 
L 1073.0252 184.686532 
L 1080.6664 155.853623 
L 1080.6664 155.853623 
L 1088.3076 128.824713 
L 1088.3076 128.824713 
L 1095.9488 106.247297 
L 1095.9488 106.247297 
L 1103.59 92.448592 
L 1103.59 92.448592 
L 1111.2312 88.819441 
L 1111.2312 88.819441 
L 1118.8724 88.69913 
L 1118.8724 88.699791 
L 1134.1548 88.988008 
L 1134.1548 88.988008 
L 1157.0784 89.069978 
L 1202.9256 88.97016 
L 1202.9256 88.913971 
L 1202.9256 88.976109 
L 1202.9256 88.976109 
L 1233.4904 88.862409 
L 1233.4904 88.976109 
L 1241.1316 89.076588 
L 1241.1316 89.074605 
L 1248.7728 89.302006 
L 1248.7728 89.299361 
L 1256.414 89.764739 
L 1256.414 89.762095 
L 1264.0552 90.662441 
L 1264.0552 90.660458 
L 1271.6964 92.334891 
L 1271.6964 92.333569 
L 1279.3376 95.347285 
L 1279.3376 95.345963 
L 1286.9788 100.613189 
L 1286.9788 100.612528 
L 1294.62 109.564433 
L 1294.62 109.563772 
L 1302.2612 124.359998 
L 1302.2612 124.359998 
L 1309.9024 148.084332 
L 1309.9024 148.084332 
L 1317.5436 184.747348 
L 1317.5436 184.746687 
L 1325.1848 238.605532 
L 1325.1848 238.60421 
L 1332.826 311.918343 
L 1332.826 311.91636 
L 1348.1084 490.221362 
L 1348.1084 490.220701 
L 1355.7496 562.027646 
L 1355.7496 562.027646 
L 1363.3908 606.813416 
L 1371.032 629.615786 
L 1378.6732 639.857858 
L 1386.3144 644.174934 
L 1393.9556 645.948287 
L 1401.5968 646.693565 
L 1401.5968 646.693565 
" clip-path="url(#p6c5127558e)" style="fill: none; stroke: #ff7f0e; stroke-width: 1.5; stroke-linecap: square"/>
   </g>
   <g id="line2d_31">
    <path d="M 790.3008 647.376135 
L 813.2244 646.446059 
L 813.2244 646.4461 
L 820.8656 646.023104 
L 820.8656 646.023124 
L 828.5068 645.46678 
L 828.5068 645.466806 
L 836.148 644.723088 
L 836.148 644.723141 
L 843.7892 643.731001 
L 843.7892 643.731114 
L 851.4304 642.422054 
L 851.4304 642.422312 
L 859.0716 640.720789 
L 859.0716 640.721285 
L 866.7128 638.545745 
L 866.7128 638.546604 
L 874.354 635.811189 
L 874.354 635.812578 
L 881.9952 632.429337 
L 881.9952 632.431849 
L 889.6364 628.311275 
L 889.6364 628.316101 
L 897.2776 623.373845 
L 897.2776 623.380654 
L 904.9188 617.539308 
L 904.9188 617.545191 
L 912.56 610.734815 
L 912.56 610.736931 
L 920.2012 602.890231 
L 920.2012 602.891223 
L 927.8424 593.952076 
L 927.8424 593.952538 
L 935.4836 583.875001 
L 935.4836 583.875266 
L 943.1248 572.623576 
L 943.1248 572.623576 
L 950.766 560.172086 
L 950.766 560.172086 
L 958.4072 546.504268 
L 958.4072 546.504929 
L 966.0484 531.61219 
L 966.0484 531.61219 
L 973.6896 515.49453 
L 973.6896 515.49453 
L 981.3308 498.15922 
L 981.3308 498.159881 
L 988.972 479.618821 
L 988.972 479.618821 
L 996.6132 459.89052 
L 996.6132 459.891181 
L 1004.2544 438.996792 
L 1004.2544 438.997453 
L 1011.8956 416.964079 
L 1011.8956 416.96474 
L 1019.5368 393.82345 
L 1019.5368 393.824111 
L 1027.178 369.611924 
L 1027.178 369.612585 
L 1034.8192 344.373131 
L 1034.8192 344.373792 
L 1042.4604 318.165903 
L 1042.4604 318.166564 
L 1050.1016 291.072871 
L 1050.1016 291.073532 
L 1057.7428 263.220296 
L 1057.7428 263.220957 
L 1080.6664 178.269744 
L 1080.6664 178.270405 
L 1088.3076 152.215879 
L 1088.3076 152.21654 
L 1095.9488 130.393379 
L 1095.9488 130.393379 
L 1103.59 115.388262 
L 1103.59 115.388923 
L 1111.2312 107.328771 
L 1111.2312 107.329432 
L 1118.8724 103.040556 
L 1118.8724 103.040556 
L 1126.5136 100.648886 
L 1126.5136 100.648886 
L 1134.1548 99.184666 
L 1134.1548 99.184666 
L 1141.796 98.070801 
L 1141.796 98.070801 
L 1149.4372 97.240525 
L 1157.0784 96.551052 
L 1172.3608 95.529734 
L 1187.6432 94.888518 
L 1195.2844 94.71929 
L 1202.9256 94.674339 
L 1210.5668 94.784733 
L 1210.5668 94.78275 
L 1218.208 95.092121 
L 1218.208 95.090798 
L 1225.8492 95.663266 
L 1225.8492 95.661943 
L 1233.4904 96.586749 
L 1233.4904 96.586088 
L 1241.1316 97.986186 
L 1241.1316 97.986186 
L 1248.7728 100.025518 
L 1248.7728 100.025518 
L 1256.414 102.916279 
L 1264.0552 106.926854 
L 1271.6964 112.393056 
L 1279.3376 119.7287 
L 1286.9788 129.434199 
L 1294.62 142.110446 
L 1302.2612 158.462778 
L 1309.9024 179.292384 
L 1317.5436 205.468543 
L 1317.5436 205.468543 
L 1325.1848 237.847971 
L 1325.1848 237.847971 
L 1332.826 277.106921 
L 1332.826 277.106921 
L 1340.4672 323.435774 
L 1340.4672 323.435774 
L 1348.1084 376.045239 
L 1348.1084 376.045239 
L 1363.3908 488.687732 
L 1363.3908 488.687732 
L 1371.032 538.976259 
L 1371.032 538.975598 
L 1378.6732 578.97426 
L 1378.6732 578.97426 
L 1386.3144 607.356664 
L 1386.3144 607.356598 
L 1393.9556 625.953385 
L 1393.9556 625.953186 
L 1401.5968 638.071311 
L 1401.5968 638.070716 
" clip-path="url(#p6c5127558e)" style="fill: none; stroke: #2ca02c; stroke-width: 1.5; stroke-linecap: square"/>
   </g>
   <g id="line2d_32">
    <path d="M 790.3008 647.270321 
L 820.8656 646.469342 
L 820.8656 646.469342 
L 828.5068 646.13336 
L 828.5068 646.13336 
L 836.148 645.650353 
L 836.148 645.650353 
L 843.7892 644.963498 
L 843.7892 644.963498 
L 851.4304 644.005032 
L 851.4304 644.005038 
L 859.0716 642.693765 
L 859.0716 642.693771 
L 866.7128 640.935564 
L 866.7128 640.935577 
L 874.354 638.624938 
L 874.354 638.625004 
L 881.9952 635.647845 
L 881.9952 635.647911 
L 889.6364 631.885493 
L 889.6364 631.885559 
L 897.2776 627.21896 
L 897.2776 627.219159 
L 904.9188 621.534348 
L 904.9188 621.534679 
L 912.56 614.727278 
L 912.56 614.727807 
L 920.2012 606.706921 
L 920.2012 606.70897 
L 927.8424 597.397521 
L 927.8424 597.398975 
L 935.4836 586.731388 
L 935.4836 586.77938 
L 943.1248 574.642415 
L 943.1248 574.647704 
L 950.766 561.501452 
L 950.766 561.129944 
L 950.766 561.504097 
L 958.4072 546.228611 
L 958.4072 546.8024 
L 958.4072 546.219356 
L 958.4072 546.237866 
L 966.0484 530.686723 
L 966.0484 529.923875 
L 966.0484 530.736302 
L 966.0484 530.730352 
L 973.6896 512.313569 
L 973.6896 513.342159 
L 973.6896 512.293077 
L 973.6896 512.376369 
L 981.3308 494.629227 
L 981.3308 493.285978 
L 981.3308 494.663601 
L 988.972 473.42745 
L 988.972 474.660965 
L 988.972 473.040077 
L 988.972 473.671377 
L 996.6132 453.354082 
L 996.6132 451.718651 
L 996.6132 453.273434 
L 1004.2544 429.758653 
L 1004.2544 430.839465 
L 1004.2544 428.8041 
L 1004.2544 429.760636 
L 1011.8956 407.437723 
L 1011.8956 405.533245 
L 1011.8956 407.179915 
L 1019.5368 381.697856 
L 1019.5368 383.01929 
L 1019.5368 379.929554 
L 1019.5368 381.1201 
L 1027.178 356.903286 
L 1027.178 353.718359 
L 1027.178 355.623498 
L 1034.8192 328.999149 
L 1034.8192 330.194323 
L 1034.8192 327.431145 
L 1034.8192 328.109379 
L 1042.4604 300.408184 
L 1042.4604 302.148061 
L 1042.4604 297.514118 
L 1042.4604 298.649137 
L 1050.1016 272.112046 
L 1050.1016 265.873741 
L 1050.1016 279.10659 
L 1050.1016 269.541232 
L 1057.7428 249.31979 
L 1057.7428 227.624211 
L 1057.7428 253.992734 
L 1057.7428 238.213531 
L 1065.384 225.28873 
L 1065.384 192.894759 
L 1065.384 229.594132 
L 1065.384 216.00564 
L 1073.0252 199.942847 
L 1073.0252 160.313711 
L 1073.0252 200.512009 
L 1073.0252 189.436158 
L 1080.6664 175.703557 
L 1080.6664 135.266621 
L 1080.6664 162.811809 
L 1088.3076 149.937909 
L 1088.3076 114.712671 
L 1088.3076 131.361152 
L 1095.9488 131.072936 
L 1095.9488 91.905872 
L 1095.9488 112.59798 
L 1103.59 117.752829 
L 1103.59 87.417359 
L 1103.59 101.707223 
L 1111.2312 114.224157 
L 1111.2312 84.49619 
L 1111.2312 98.860091 
L 1118.8724 110.608888 
L 1118.8724 83.59981 
L 1118.8724 110.866036 
L 1118.8724 95.800763 
L 1126.5136 107.841744 
L 1126.5136 83.87745 
L 1126.5136 108.680613 
L 1126.5136 95.234907 
L 1134.1548 104.993951 
L 1134.1548 84.322996 
L 1134.1548 106.166649 
L 1134.1548 94.647897 
L 1141.796 102.299521 
L 1141.796 85.048826 
L 1141.796 103.562122 
L 1141.796 94.237386 
L 1149.4372 99.831831 
L 1149.4372 86.513707 
L 1149.4372 101.153265 
L 1149.4372 93.834147 
L 1157.0784 97.791839 
L 1157.0784 87.879431 
L 1157.0784 99.186649 
L 1157.0784 93.465283 
L 1164.7196 96.057911 
L 1164.7196 89.001229 
L 1164.7196 97.498333 
L 1164.7196 93.16054 
L 1172.3608 94.80126 
L 1172.3608 90.114433 
L 1172.3608 96.184171 
L 1172.3608 92.928512 
L 1180.002 93.944542 
L 1180.002 91.117903 
L 1180.002 95.34398 
L 1180.002 92.757962 
L 1187.6432 93.369431 
L 1187.6432 91.876786 
L 1187.6432 95.082866 
L 1187.6432 92.634346 
L 1195.2844 92.998583 
L 1195.2844 91.836462 
L 1195.2844 94.798615 
L 1195.2844 92.552376 
L 1202.9256 92.872984 
L 1202.9256 94.515026 
L 1202.9256 91.861581 
L 1202.9256 92.514035 
L 1210.5668 92.665415 
L 1210.5668 94.25854 
L 1210.5668 91.949501 
L 1210.5668 92.522629 
L 1218.208 92.648889 
L 1218.208 94.049649 
L 1218.208 92.079727 
L 1218.208 92.568902 
L 1225.8492 92.707722 
L 1225.8492 93.954458 
L 1225.8492 92.259532 
L 1225.8492 92.671365 
L 1233.4904 92.849186 
L 1233.4904 93.920083 
L 1233.4904 92.52329 
L 1233.4904 92.835304 
L 1241.1316 93.074604 
L 1241.1316 94.003375 
L 1241.1316 92.893477 
L 1241.1316 93.08518 
L 1248.7728 93.42562 
L 1248.7728 94.241352 
L 1248.7728 93.395873 
L 1248.7728 93.461316 
L 1256.414 93.93661 
L 1256.414 94.698136 
L 1256.414 94.072785 
L 1264.0552 94.663762 
L 1264.0552 95.444459 
L 1264.0552 95.031965 
L 1271.6964 96.005688 
L 1271.6964 96.636327 
L 1271.6964 96.406944 
L 1279.3376 98.424461 
L 1279.3376 98.370255 
L 1279.3376 98.776138 
L 1279.3376 98.667726 
L 1286.9788 102.587738 
L 1286.9788 102.479326 
L 1286.9788 102.342489 
L 1286.9788 102.651199 
L 1286.9788 102.600298 
L 1294.62 109.231926 
L 1294.62 109.17111 
L 1294.62 108.882232 
L 1294.62 109.113599 
L 1302.2612 119.788855 
L 1302.2612 119.682426 
L 1302.2612 119.546251 
L 1302.2612 119.607728 
L 1309.9024 136.37652 
L 1309.9024 136.000384 
L 1317.5436 160.870974 
L 1317.5436 161.418321 
L 1317.5436 160.624403 
L 1317.5436 160.640268 
L 1325.1848 196.701731 
L 1325.1848 196.517299 
L 1325.1848 195.525066 
L 1325.1848 196.863688 
L 1325.1848 196.338816 
L 1332.826 245.156512 
L 1332.826 244.785665 
L 1340.4672 306.719205 
L 1340.4672 306.487177 
L 1340.4672 305.496928 
L 1340.4672 306.528823 
L 1340.4672 306.421072 
L 1348.1084 379.161416 
L 1348.1084 378.871878 
L 1355.7496 454.067352 
L 1355.7496 454.052148 
L 1363.3908 521.188132 
L 1371.032 572.189268 
L 1378.6732 605.615465 
L 1386.3144 625.254129 
L 1393.9556 636.065296 
L 1401.5968 642.185466 
L 1401.5968 642.185287 
" clip-path="url(#p6c5127558e)" style="fill: none; stroke: #d62728; stroke-width: 1.5; stroke-linecap: square"/>
   </g>
   <g id="line2d_33">
    <path d="M 790.3008 647.245366 
L 813.2244 646.86428 
L 813.2244 646.809292 
L 820.8656 646.653362 
L 820.8656 646.596042 
L 828.5068 646.446931 
L 828.5068 646.314236 
L 828.5068 646.324304 
L 836.148 646.110653 
L 836.148 645.868637 
L 843.7892 645.548498 
L 843.7892 645.22161 
L 851.4304 644.821862 
L 851.4304 644.35778 
L 859.0716 643.653487 
L 859.0716 643.113464 
L 866.7128 642.080584 
L 866.7128 641.451683 
L 866.7128 641.526732 
L 874.354 640.156519 
L 874.354 639.133019 
L 881.9952 637.555033 
L 881.9952 637.682483 
L 881.9952 636.221303 
L 889.6364 634.002762 
L 889.6364 634.201869 
L 889.6364 632.539401 
L 897.2776 629.813902 
L 897.2776 628.019026 
L 897.2776 628.355367 
L 904.9188 623.947304 
L 904.9188 624.317292 
L 904.9188 622.390735 
L 904.9188 623.16079 
L 912.56 617.970972 
L 912.56 615.877831 
L 912.56 616.226203 
L 920.2012 609.735708 
L 920.2012 607.973818 
L 920.2012 608.403301 
L 927.8424 601.480679 
L 927.8424 599.033812 
L 935.4836 591.106134 
L 935.4836 588.354458 
L 943.1248 579.128284 
L 943.1248 576.628863 
L 943.1248 579.216864 
L 943.1248 577.540448 
L 950.766 565.956912 
L 950.766 566.148616 
L 950.766 562.701254 
L 958.4072 553.133913 
L 958.4072 548.047814 
L 958.4072 549.697788 
L 966.0484 533.677302 
L 966.0484 536.704239 
L 966.0484 532.658628 
L 966.0484 536.245472 
L 973.6896 518.947842 
L 973.6896 520.570714 
L 973.6896 514.553198 
L 981.3308 503.148146 
L 981.3308 497.531886 
L 981.3308 498.40513 
L 988.972 477.218558 
L 988.972 483.517679 
L 988.972 480.011483 
L 996.6132 460.236909 
L 996.6132 453.619823 
L 996.6132 461.890849 
L 996.6132 460.461665 
L 1004.2544 440.884743 
L 1004.2544 431.752372 
L 1004.2544 442.497038 
L 1004.2544 433.209982 
L 1011.8956 408.033988 
L 1011.8956 421.478372 
L 1011.8956 413.812865 
L 1019.5368 390.147365 
L 1019.5368 387.985739 
L 1019.5368 393.758667 
L 1019.5368 393.169013 
L 1027.178 363.298921 
L 1027.178 369.986738 
L 1027.178 359.845609 
L 1034.8192 337.209359 
L 1034.8192 346.492449 
L 1034.8192 334.796536 
L 1042.4604 307.053695 
L 1042.4604 320.298442 
L 1042.4604 306.204249 
L 1042.4604 309.358767 
L 1050.1016 282.586344 
L 1050.1016 282.876544 
L 1050.1016 292.464376 
L 1050.1016 280.710952 
L 1050.1016 281.249706 
L 1057.7428 257.081148 
L 1057.7428 251.940182 
L 1057.7428 263.438442 
L 1057.7428 255.823836 
L 1065.384 226.661065 
L 1065.384 223.911768 
L 1065.384 235.203781 
L 1065.384 231.147594 
L 1073.0252 199.781551 
L 1073.0252 192.659426 
L 1073.0252 195.087453 
L 1080.6664 168.402288 
L 1080.6664 166.396009 
L 1080.6664 171.854278 
L 1088.3076 144.256206 
L 1088.3076 131.497328 
L 1088.3076 134.657135 
L 1095.9488 119.044515 
L 1095.9488 116.133923 
L 1095.9488 123.240845 
L 1103.59 103.595836 
L 1103.59 98.508414 
L 1103.59 104.870335 
L 1103.59 103.76903 
L 1111.2312 98.067495 
L 1111.2312 92.887527 
L 1111.2312 98.111786 
L 1118.8724 94.474702 
L 1118.8724 88.454543 
L 1118.8724 93.019737 
L 1126.5136 93.143353 
L 1126.5136 86.978424 
L 1126.5136 91.591213 
L 1134.1548 92.341502 
L 1134.1548 85.288125 
L 1134.1548 89.832166 
L 1141.796 92.085015 
L 1141.796 84.42678 
L 1141.796 89.712516 
L 1149.4372 91.719456 
L 1149.4372 91.997096 
L 1149.4372 83.219708 
L 1149.4372 89.454708 
L 1157.0784 91.905211 
L 1157.0784 92.871001 
L 1157.0784 82.706735 
L 1157.0784 89.370093 
L 1164.7196 92.283991 
L 1164.7196 94.33456 
L 1164.7196 82.34382 
L 1164.7196 89.493048 
L 1172.3608 91.71549 
L 1172.3608 95.275892 
L 1172.3608 81.487763 
L 1172.3608 89.967019 
L 1180.002 92.179545 
L 1180.002 96.99131 
L 1180.002 80.175584 
L 1180.002 90.04304 
L 1187.6432 92.95231 
L 1187.6432 99.147647 
L 1187.6432 79.354563 
L 1187.6432 90.1065 
L 1195.2844 93.771348 
L 1195.2844 101.520146 
L 1195.2844 78.676989 
L 1195.2844 90.335223 
L 1202.9256 94.973793 
L 1202.9256 103.099389 
L 1202.9256 78.07808 
L 1202.9256 90.845551 
L 1210.5668 96.430742 
L 1210.5668 104.149793 
L 1210.5668 77.974296 
L 1210.5668 91.761763 
L 1218.208 97.71053 
L 1218.208 104.414212 
L 1218.208 78.238715 
L 1218.208 92.433388 
L 1225.8492 98.4238 
L 1225.8492 103.831168 
L 1225.8492 78.866049 
L 1225.8492 93.175083 
L 1233.4904 98.714661 
L 1233.4904 102.778781 
L 1233.4904 80.64625 
L 1233.4904 93.810349 
L 1241.1316 99.47751 
L 1241.1316 102.150786 
L 1241.1316 83.501314 
L 1241.1316 94.892484 
L 1248.7728 99.988499 
L 1248.7728 99.929666 
L 1248.7728 102.040391 
L 1248.7728 87.051139 
L 1248.7728 96.283989 
L 1256.414 100.555017 
L 1256.414 91.295725 
L 1256.414 102.60757 
L 1256.414 98.90372 
L 1264.0552 102.439663 
L 1264.0552 94.678305 
L 1264.0552 104.71565 
L 1264.0552 103.055099 
L 1271.6964 105.253082 
L 1271.6964 100.939086 
L 1271.6964 109.29076 
L 1271.6964 108.046668 
L 1279.3376 110.415201 
L 1279.3376 110.331909 
L 1279.3376 115.964695 
L 1279.3376 109.335711 
L 1279.3376 115.4504 
L 1286.9788 119.737954 
L 1286.9788 117.713166 
L 1286.9788 124.365948 
L 1286.9788 122.93478 
L 1294.62 130.111112 
L 1294.62 128.484274 
L 1294.62 136.958903 
L 1294.62 136.634989 
L 1302.2612 147.521781 
L 1302.2612 145.876433 
L 1302.2612 157.797103 
L 1309.9024 170.660426 
L 1309.9024 180.932443 
L 1309.9024 179.893276 
L 1317.5436 204.697762 
L 1317.5436 217.834097 
L 1317.5436 204.443258 
L 1317.5436 212.983992 
L 1325.1848 252.703692 
L 1325.1848 264.890763 
L 1325.1848 245.771948 
L 1325.1848 261.447367 
L 1332.826 311.333977 
L 1332.826 318.647807 
L 1332.826 308.045927 
L 1332.826 317.875042 
L 1340.4672 387.383525 
L 1340.4672 389.539862 
L 1340.4672 383.428478 
L 1340.4672 386.928063 
L 1348.1084 467.471412 
L 1348.1084 469.612545 
L 1348.1084 464.451086 
L 1348.1084 467.423817 
L 1355.7496 535.65119 
L 1355.7496 538.982208 
L 1355.7496 534.359503 
L 1355.7496 535.091944 
L 1363.3908 589.391972 
L 1363.3908 584.840924 
L 1363.3908 589.587906 
L 1363.3908 589.160341 
L 1371.032 618.788093 
L 1371.032 619.635291 
L 1371.032 613.812454 
L 1371.032 615.495812 
L 1378.6732 632.586534 
L 1378.6732 633.287839 
L 1378.6732 631.423751 
L 1378.6732 632.169347 
L 1386.3144 640.093257 
L 1386.3144 640.850077 
L 1386.3144 639.736027 
L 1393.9556 644.254518 
L 1393.9556 644.449586 
L 1393.9556 643.948982 
L 1401.5968 646.282856 
L 1401.5968 646.178589 
L 1401.5968 646.311684 
L 1401.5968 645.819138 
L 1401.5968 645.819138 
" clip-path="url(#p6c5127558e)" style="fill: none; stroke: #9467bd; stroke-width: 1.5; stroke-linecap: square"/>
   </g>
   <g id="patch_8">
    <path d="M 797.942 647.08 
L 797.942 21.6 
" style="fill: none; stroke: #000000; stroke-width: 0.8; stroke-linejoin: miter; stroke-linecap: square"/>
   </g>
   <g id="patch_9">
    <path d="M 1409.238 647.08 
L 1409.238 21.6 
" style="fill: none; stroke: #000000; stroke-width: 0.8; stroke-linejoin: miter; stroke-linecap: square"/>
   </g>
   <g id="patch_10">
    <path d="M 797.942 647.08 
L 1409.238 647.08 
" style="fill: none; stroke: #000000; stroke-width: 0.8; stroke-linejoin: miter; stroke-linecap: square"/>
   </g>
   <g id="patch_11">
    <path d="M 797.942 21.6 
L 1409.238 21.6 
" style="fill: none; stroke: #000000; stroke-width: 0.8; stroke-linejoin: miter; stroke-linecap: square"/>
   </g>
  </g>
  <g id="axes_3">
   <g id="patch_12">
    <path d="M 1511.174 647.08 
L 2122.47 647.08 
L 2122.47 21.6 
L 1511.174 21.6 
z
" style="fill: #ffffff"/>
   </g>
   <g id="matplotlib.axis_5">
    <g id="xtick_13">
     <g id="line2d_34">
      <g>
       <use xlink:href="#mc797d895b7" x="1511.174" y="647.08" style="stroke: #000000; stroke-width: 0.8"/>
      </g>
     </g>
     <g id="text_28">
      <!-- 1.0 -->
      <g transform="translate(1495.270875 669.276875) scale(0.2 -0.2)">
       <use xlink:href="#DejaVuSans-31"/>
       <use xlink:href="#DejaVuSans-2e" x="63.623047"/>
       <use xlink:href="#DejaVuSans-30" x="95.410156"/>
      </g>
     </g>
    </g>
    <g id="xtick_14">
     <g id="line2d_35">
      <g>
       <use xlink:href="#mc797d895b7" x="1633.4332" y="647.08" style="stroke: #000000; stroke-width: 0.8"/>
      </g>
     </g>
     <g id="text_29">
      <!-- 1.2 -->
      <g transform="translate(1617.530075 669.276875) scale(0.2 -0.2)">
       <use xlink:href="#DejaVuSans-31"/>
       <use xlink:href="#DejaVuSans-2e" x="63.623047"/>
       <use xlink:href="#DejaVuSans-32" x="95.410156"/>
      </g>
     </g>
    </g>
    <g id="xtick_15">
     <g id="line2d_36">
      <g>
       <use xlink:href="#mc797d895b7" x="1755.6924" y="647.08" style="stroke: #000000; stroke-width: 0.8"/>
      </g>
     </g>
     <g id="text_30">
      <!-- 1.4 -->
      <g transform="translate(1739.789275 669.276875) scale(0.2 -0.2)">
       <use xlink:href="#DejaVuSans-31"/>
       <use xlink:href="#DejaVuSans-2e" x="63.623047"/>
       <use xlink:href="#DejaVuSans-34" x="95.410156"/>
      </g>
     </g>
    </g>
    <g id="xtick_16">
     <g id="line2d_37">
      <g>
       <use xlink:href="#mc797d895b7" x="1877.9516" y="647.08" style="stroke: #000000; stroke-width: 0.8"/>
      </g>
     </g>
     <g id="text_31">
      <!-- 1.6 -->
      <g transform="translate(1862.048475 669.276875) scale(0.2 -0.2)">
       <use xlink:href="#DejaVuSans-31"/>
       <use xlink:href="#DejaVuSans-2e" x="63.623047"/>
       <use xlink:href="#DejaVuSans-36" x="95.410156"/>
      </g>
     </g>
    </g>
    <g id="xtick_17">
     <g id="line2d_38">
      <g>
       <use xlink:href="#mc797d895b7" x="2000.2108" y="647.08" style="stroke: #000000; stroke-width: 0.8"/>
      </g>
     </g>
     <g id="text_32">
      <!-- 1.8 -->
      <g transform="translate(1984.307675 669.276875) scale(0.2 -0.2)">
       <use xlink:href="#DejaVuSans-31"/>
       <use xlink:href="#DejaVuSans-2e" x="63.623047"/>
       <use xlink:href="#DejaVuSans-38" x="95.410156"/>
      </g>
     </g>
    </g>
    <g id="xtick_18">
     <g id="line2d_39">
      <g>
       <use xlink:href="#mc797d895b7" x="2122.47" y="647.08" style="stroke: #000000; stroke-width: 0.8"/>
      </g>
     </g>
     <g id="text_33">
      <!-- 2.0 -->
      <g transform="translate(2106.566875 669.276875) scale(0.2 -0.2)">
       <use xlink:href="#DejaVuSans-32"/>
       <use xlink:href="#DejaVuSans-2e" x="63.623047"/>
       <use xlink:href="#DejaVuSans-30" x="95.410156"/>
      </g>
     </g>
    </g>
    <g id="text_34">
     <!-- Position $x$ -->
     <g transform="translate(1768.422 692.633125) scale(0.2 -0.2)">
      <use xlink:href="#DejaVuSans-50" transform="translate(0 0.015625)"/>
      <use xlink:href="#DejaVuSans-6f" transform="translate(60.302734 0.015625)"/>
      <use xlink:href="#DejaVuSans-73" transform="translate(121.484375 0.015625)"/>
      <use xlink:href="#DejaVuSans-69" transform="translate(173.583984 0.015625)"/>
      <use xlink:href="#DejaVuSans-74" transform="translate(201.367188 0.015625)"/>
      <use xlink:href="#DejaVuSans-69" transform="translate(240.576172 0.015625)"/>
      <use xlink:href="#DejaVuSans-6f" transform="translate(268.359375 0.015625)"/>
      <use xlink:href="#DejaVuSans-6e" transform="translate(329.541016 0.015625)"/>
      <use xlink:href="#DejaVuSans-20" transform="translate(392.919922 0.015625)"/>
      <use xlink:href="#DejaVuSans-Oblique-78" transform="translate(424.707031 0.015625)"/>
     </g>
    </g>
   </g>
   <g id="matplotlib.axis_6">
    <g id="ytick_12">
     <g id="line2d_40">
      <g>
       <use xlink:href="#ma3a669a4fa" x="1511.174" y="647.08" style="stroke: #000000; stroke-width: 0.8"/>
      </g>
     </g>
     <g id="text_35">
      <!-- 0.0 -->
      <g transform="translate(1472.36775 654.678437) scale(0.2 -0.2)">
       <use xlink:href="#DejaVuSans-30"/>
       <use xlink:href="#DejaVuSans-2e" x="63.623047"/>
       <use xlink:href="#DejaVuSans-30" x="95.410156"/>
      </g>
     </g>
    </g>
    <g id="ytick_13">
     <g id="line2d_41">
      <g>
       <use xlink:href="#ma3a669a4fa" x="1511.174" y="527.370909" style="stroke: #000000; stroke-width: 0.8"/>
      </g>
     </g>
     <g id="text_36">
      <!-- 0.2 -->
      <g transform="translate(1472.36775 534.969347) scale(0.2 -0.2)">
       <use xlink:href="#DejaVuSans-30"/>
       <use xlink:href="#DejaVuSans-2e" x="63.623047"/>
       <use xlink:href="#DejaVuSans-32" x="95.410156"/>
      </g>
     </g>
    </g>
    <g id="ytick_14">
     <g id="line2d_42">
      <g>
       <use xlink:href="#ma3a669a4fa" x="1511.174" y="407.661818" style="stroke: #000000; stroke-width: 0.8"/>
      </g>
     </g>
     <g id="text_37">
      <!-- 0.4 -->
      <g transform="translate(1472.36775 415.260256) scale(0.2 -0.2)">
       <use xlink:href="#DejaVuSans-30"/>
       <use xlink:href="#DejaVuSans-2e" x="63.623047"/>
       <use xlink:href="#DejaVuSans-34" x="95.410156"/>
      </g>
     </g>
    </g>
    <g id="ytick_15">
     <g id="line2d_43">
      <g>
       <use xlink:href="#ma3a669a4fa" x="1511.174" y="287.952727" style="stroke: #000000; stroke-width: 0.8"/>
      </g>
     </g>
     <g id="text_38">
      <!-- 0.6 -->
      <g transform="translate(1472.36775 295.551165) scale(0.2 -0.2)">
       <use xlink:href="#DejaVuSans-30"/>
       <use xlink:href="#DejaVuSans-2e" x="63.623047"/>
       <use xlink:href="#DejaVuSans-36" x="95.410156"/>
      </g>
     </g>
    </g>
    <g id="ytick_16">
     <g id="line2d_44">
      <g>
       <use xlink:href="#ma3a669a4fa" x="1511.174" y="168.243636" style="stroke: #000000; stroke-width: 0.8"/>
      </g>
     </g>
     <g id="text_39">
      <!-- 0.8 -->
      <g transform="translate(1472.36775 175.842074) scale(0.2 -0.2)">
       <use xlink:href="#DejaVuSans-30"/>
       <use xlink:href="#DejaVuSans-2e" x="63.623047"/>
       <use xlink:href="#DejaVuSans-38" x="95.410156"/>
      </g>
     </g>
    </g>
    <g id="ytick_17">
     <g id="line2d_45">
      <g>
       <use xlink:href="#ma3a669a4fa" x="1511.174" y="48.534545" style="stroke: #000000; stroke-width: 0.8"/>
      </g>
     </g>
     <g id="text_40">
      <!-- 1.0 -->
      <g transform="translate(1472.36775 56.132983) scale(0.2 -0.2)">
       <use xlink:href="#DejaVuSans-31"/>
       <use xlink:href="#DejaVuSans-2e" x="63.623047"/>
       <use xlink:href="#DejaVuSans-30" x="95.410156"/>
      </g>
     </g>
    </g>
    <g id="text_41">
     <!-- $P$ -->
     <g transform="translate(1464.208375 340.44) rotate(-90) scale(0.2 -0.2)">
      <defs>
       <path id="DejaVuSans-Oblique-50" d="M 1081 4666 
L 2541 4666 
Q 3178 4666 3512 4369 
Q 3847 4072 3847 3500 
Q 3847 2731 3353 2303 
Q 2859 1875 1966 1875 
L 1172 1875 
L 806 0 
L 172 0 
L 1081 4666 
z
M 1613 4147 
L 1275 2394 
L 2069 2394 
Q 2606 2394 2893 2669 
Q 3181 2944 3181 3456 
Q 3181 3784 2986 3965 
Q 2791 4147 2438 4147 
L 1613 4147 
z
" transform="scale(0.015625)"/>
      </defs>
      <use xlink:href="#DejaVuSans-Oblique-50" transform="translate(0 0.09375)"/>
     </g>
    </g>
   </g>
   <g id="line2d_46">
    <path d="M 1503.5328 48.534545 
L 1656.3568 48.534545 
L 1656.3568 48.534545 
L 1663.998 73.362766 
L 1663.998 73.362766 
L 1671.6392 107.463802 
L 1671.6392 107.463802 
L 1679.2804 139.923672 
L 1679.2804 139.923672 
L 1686.9216 170.80234 
L 1686.9216 170.80234 
L 1694.5628 200.158292 
L 1694.5628 200.158292 
L 1702.204 228.048551 
L 1702.204 228.048551 
L 1709.8452 254.5287 
L 1709.8452 254.5287 
L 1717.4864 279.652899 
L 1717.4864 279.652899 
L 1725.1276 303.473903 
L 1725.1276 303.473903 
L 1732.7688 326.043079 
L 1732.7688 326.043079 
L 1740.41 347.410428 
L 1740.41 347.410428 
L 1748.0512 367.624601 
L 1748.0512 367.624601 
L 1755.6924 386.732917 
L 1755.6924 386.732917 
L 1763.3336 404.781384 
L 1763.3336 404.781384 
L 1770.9748 421.814714 
L 1770.9748 421.814714 
L 1778.616 437.876345 
L 1778.616 437.876345 
L 1786.2572 453.008458 
L 1786.2572 453.008458 
L 1793.8984 467.251993 
L 1793.8984 467.251993 
L 1801.5396 471.140444 
L 1801.5396 471.140444 
L 2038.4168 471.140444 
L 2038.4168 471.140444 
L 2046.058 587.225455 
L 2046.058 587.225455 
L 2114.8288 587.225455 
L 2114.8288 587.225455 
" clip-path="url(#p6c35aaf0fc)" style="fill: none; stroke: #1f77b4; stroke-width: 1.5; stroke-linecap: square"/>
   </g>
   <g id="line2d_47">
    <path d="M 1503.5328 48.593801 
L 1526.4564 48.628517 
L 1526.4564 48.628517 
L 1541.7388 48.823044 
L 1541.7388 48.823044 
L 1549.38 49.034331 
L 1549.38 49.034331 
L 1557.0212 49.38029 
L 1557.0212 49.38029 
L 1564.6624 49.929755 
L 1564.6624 49.929755 
L 1572.3036 50.774901 
L 1572.3036 50.774901 
L 1579.9448 52.035438 
L 1579.9448 52.035438 
L 1587.586 53.856812 
L 1587.586 53.856812 
L 1595.2272 56.406615 
L 1595.2272 56.406615 
L 1602.8684 59.868004 
L 1602.8684 59.868004 
L 1610.5096 64.423533 
L 1610.5096 64.423533 
L 1618.1508 70.242592 
L 1618.1508 70.242592 
L 1625.792 77.466437 
L 1625.792 77.466437 
L 1633.4332 86.192033 
L 1633.4332 86.192033 
L 1641.0744 96.467861 
L 1641.0744 96.467861 
L 1648.7156 108.284944 
L 1648.7156 108.284944 
L 1656.3568 121.584025 
L 1656.3568 121.584025 
L 1663.998 136.259163 
L 1663.998 136.259163 
L 1671.6392 152.167903 
L 1671.6392 152.167903 
L 1679.2804 169.142652 
L 1679.2804 169.142652 
L 1686.9216 187.000854 
L 1686.9216 187.000854 
L 1694.5628 205.554566 
L 1694.5628 205.554566 
L 1702.204 224.618239 
L 1702.204 224.618239 
L 1717.4864 263.579358 
L 1717.4864 263.579358 
L 1732.7688 302.623675 
L 1732.7688 302.623675 
L 1740.41 321.846561 
L 1740.41 321.846561 
L 1748.0512 340.721093 
L 1748.0512 340.721093 
L 1755.6924 359.150906 
L 1755.6924 359.150906 
L 1763.3336 377.043824 
L 1763.3336 377.043824 
L 1770.9748 394.306473 
L 1770.9748 394.306473 
L 1778.616 410.829321 
L 1778.616 410.829321 
L 1786.2572 426.45854 
L 1786.2572 426.45854 
L 1793.8984 440.931967 
L 1793.8984 440.931967 
L 1801.5396 453.738446 
L 1801.5396 453.738446 
L 1809.1808 463.859849 
L 1809.1808 463.859849 
L 1816.822 469.763303 
L 1816.822 469.762705 
L 1824.4632 471.26266 
L 1824.4632 471.26266 
L 1832.1044 471.284806 
L 1832.1044 471.284806 
L 1855.028 471.053767 
L 1855.028 471.053767 
L 1931.44 470.729356 
L 1931.44 470.729356 
L 1954.3636 470.734743 
L 1954.3636 470.735341 
L 1969.646 470.914905 
L 1969.646 470.914905 
L 1977.2872 471.163301 
L 1977.2872 471.163301 
L 1984.9284 471.632561 
L 1984.9284 471.632561 
L 1992.5696 472.484291 
L 1992.5696 472.484291 
L 2000.2108 473.974669 
L 2000.2108 473.974669 
L 2007.852 476.495144 
L 2007.852 476.495144 
L 2015.4932 480.610144 
L 2015.4932 480.610144 
L 2023.1344 487.058274 
L 2023.1344 487.058274 
L 2030.7756 496.652958 
L 2030.7756 496.652359 
L 2038.4168 509.961616 
L 2038.4168 509.961616 
L 2046.058 526.684377 
L 2046.058 526.684377 
L 2053.6992 544.972335 
L 2053.6992 544.971737 
L 2061.3404 561.601724 
L 2061.3404 561.601724 
L 2068.9816 573.762372 
L 2068.9816 573.762372 
L 2076.6228 580.934143 
L 2076.6228 580.934143 
L 2084.264 584.503868 
L 2084.264 584.503868 
L 2091.9052 586.098393 
L 2091.9052 586.098393 
L 2099.5464 586.768764 
L 2099.5464 586.768764 
L 2107.1876 587.040504 
L 2107.1876 587.040504 
L 2114.8288 587.143454 
L 2114.8288 587.143454 
" clip-path="url(#p6c35aaf0fc)" style="fill: none; stroke: #ff7f0e; stroke-width: 1.5; stroke-linecap: square"/>
   </g>
   <g id="line2d_48">
    <path d="M 1503.5328 49.535912 
L 1511.174 49.456904 
L 1511.174 49.456904 
L 1518.8152 49.535912 
L 1518.8152 49.535912 
L 1526.4564 49.780717 
L 1526.4564 49.780717 
L 1534.0976 50.212867 
L 1534.0976 50.212867 
L 1541.7388 50.869471 
L 1541.7388 50.869471 
L 1549.38 51.800808 
L 1549.38 51.800808 
L 1557.0212 53.068527 
L 1557.0212 53.068527 
L 1564.6624 54.747447 
L 1564.6624 54.747447 
L 1572.3036 56.919569 
L 1572.3036 56.919569 
L 1579.9448 59.672279 
L 1579.9448 59.672279 
L 1587.586 63.094762 
L 1587.586 63.094762 
L 1595.2272 67.275004 
L 1595.2272 67.275004 
L 1602.8684 72.295004 
L 1602.8684 72.295004 
L 1610.5096 78.225991 
L 1618.1508 85.126622 
L 1625.792 93.039991 
L 1625.792 93.039991 
L 1633.4332 101.992436 
L 1633.4332 101.992436 
L 1641.0744 111.991137 
L 1641.0744 111.991137 
L 1648.7156 123.024126 
L 1648.7156 123.024126 
L 1656.3568 135.063868 
L 1656.3568 135.063868 
L 1663.998 148.063676 
L 1663.998 148.063676 
L 1671.6392 161.964296 
L 1671.6392 161.964296 
L 1679.2804 176.692704 
L 1679.2804 176.692704 
L 1686.9216 192.165703 
L 1686.9216 192.165104 
L 1694.5628 208.290517 
L 1694.5628 208.290517 
L 1702.204 224.970183 
L 1702.204 224.969585 
L 1709.8452 242.10235 
L 1709.8452 242.101751 
L 1725.1276 277.308793 
L 1725.1276 277.308195 
L 1755.6924 348.573411 
L 1755.6924 348.572812 
L 1763.3336 365.95158 
L 1763.3336 365.950981 
L 1770.9748 382.917949 
L 1770.9748 382.917949 
L 1778.616 399.316299 
L 1778.616 399.3157 
L 1786.2572 414.920379 
L 1786.2572 414.91978 
L 1793.8984 429.377646 
L 1793.8984 429.377047 
L 1801.5396 442.111102 
L 1801.5396 442.110503 
L 1809.1808 452.249863 
L 1809.1808 452.249863 
L 1816.822 458.948185 
L 1816.822 458.948185 
L 1824.4632 462.457457 
L 1824.4632 462.457457 
L 1832.1044 464.284817 
L 1832.1044 464.284817 
L 1839.7456 465.276008 
L 1839.7456 465.276008 
L 1847.3868 465.861984 
L 1847.3868 465.861984 
L 1855.028 466.289944 
L 1855.028 466.289944 
L 1870.3104 466.835219 
L 1870.3104 466.83462 
L 1893.234 467.317048 
L 1893.234 467.317048 
L 1923.7988 467.878484 
L 1923.7988 467.878484 
L 1939.0812 468.363904 
L 1939.0812 468.363904 
L 1946.7224 468.729615 
L 1946.7224 468.729615 
L 1954.3636 469.221021 
L 1954.3636 469.220423 
L 1962.0048 469.884209 
L 1962.0048 469.884209 
L 1969.646 470.779035 
L 1969.646 470.779035 
L 1977.2872 471.979119 
L 1977.2872 471.979119 
L 1984.9284 473.575439 
L 1984.9284 473.575439 
L 1992.5696 475.677531 
L 1992.5696 475.677531 
L 2000.2108 478.413482 
L 2000.2108 478.412884 
L 2007.852 481.925747 
L 2007.852 481.925747 
L 2015.4932 486.369348 
L 2015.4932 486.369348 
L 2023.1344 491.898711 
L 2023.1344 491.898711 
L 2030.7756 498.647311 
L 2030.7756 498.647311 
L 2038.4168 506.700142 
L 2038.4168 506.700142 
L 2046.058 516.045232 
L 2046.058 516.045232 
L 2053.6992 526.515588 
L 2053.6992 526.515588 
L 2068.9816 549.027481 
L 2068.9816 549.027481 
L 2076.6228 559.584625 
L 2076.6228 559.584625 
L 2084.264 568.55742 
L 2084.264 568.55742 
L 2091.9052 575.41316 
L 2091.9052 575.41316 
L 2099.5464 580.105756 
L 2099.5464 580.105756 
L 2107.1876 582.973986 
L 2107.1876 582.973986 
L 2114.8288 584.467357 
L 2114.8288 584.467357 
" clip-path="url(#p6c35aaf0fc)" style="fill: none; stroke: #2ca02c; stroke-width: 1.5; stroke-linecap: square"/>
   </g>
   <g id="line2d_49">
    <path d="M 1503.5328 48.917615 
L 1511.174 48.850577 
L 1511.174 48.850577 
L 1526.4564 49.086404 
L 1526.4564 49.086404 
L 1534.0976 49.362932 
L 1534.0976 49.362932 
L 1541.7388 49.784308 
L 1541.7388 49.784308 
L 1549.38 50.400212 
L 1549.38 50.400212 
L 1557.0212 51.277081 
L 1557.0212 51.277081 
L 1564.6624 52.494522 
L 1564.6624 52.494522 
L 1572.3036 54.148303 
L 1572.3036 54.148303 
L 1579.9448 56.347359 
L 1579.9448 56.347359 
L 1587.586 59.210801 
L 1587.586 59.210801 
L 1595.2272 62.862527 
L 1595.2272 62.862527 
L 1602.8684 67.424041 
L 1602.8684 67.424041 
L 1610.5096 73.009668 
L 1610.5096 73.009069 
L 1618.1508 79.716968 
L 1618.1508 79.716968 
L 1625.792 87.622556 
L 1625.792 87.621958 
L 1633.4332 96.775513 
L 1633.4332 96.773718 
L 1641.0744 107.194993 
L 1641.0744 107.193197 
L 1648.7156 118.876206 
L 1648.7156 118.84568 
L 1656.3568 131.75032 
L 1656.3568 131.747926 
L 1663.998 145.759875 
L 1663.998 145.755685 
L 1671.6392 160.826461 
L 1671.6392 160.806111 
L 1679.2804 176.830369 
L 1679.2804 176.783683 
L 1686.9216 193.64411 
L 1686.9216 193.547744 
L 1702.204 228.803867 
L 1702.204 229.2019 
L 1702.204 228.826013 
L 1709.8452 247.250439 
L 1709.8452 247.729874 
L 1709.8452 247.128336 
L 1709.8452 247.234279 
L 1717.4864 265.761056 
L 1717.4864 266.377558 
L 1717.4864 265.783202 
L 1725.1276 284.672698 
L 1725.1276 285.172484 
L 1725.1276 284.591296 
L 1725.1276 284.778042 
L 1732.7688 303.343127 
L 1732.7688 304.015892 
L 1732.7688 303.528077 
L 1740.41 322.394828 
L 1740.41 322.376273 
L 1740.41 322.911972 
L 1740.41 322.111716 
L 1740.41 322.277513 
L 1748.0512 340.871927 
L 1748.0512 340.734261 
L 1748.0512 341.452516 
L 1748.0512 340.740845 
L 1755.6924 359.858387 
L 1755.6924 358.670873 
L 1755.6924 360.741241 
L 1755.6924 359.756634 
L 1763.3336 376.813384 
L 1763.3336 379.702563 
L 1763.3336 375.81501 
L 1763.3336 377.562164 
L 1770.9748 392.872359 
L 1770.9748 398.369999 
L 1770.9748 395.014553 
L 1778.616 409.404184 
L 1778.616 414.579208 
L 1778.616 409.301833 
L 1786.2572 424.854438 
L 1786.2572 429.522494 
L 1786.2572 425.092659 
L 1793.8984 438.418076 
L 1793.8984 442.1117 
L 1793.8984 438.23971 
L 1793.8984 439.213543 
L 1801.5396 451.189241 
L 1801.5396 453.60497 
L 1801.5396 450.332722 
L 1801.5396 452.756233 
L 1809.1808 460.037538 
L 1809.1808 461.383068 
L 1809.1808 458.113813 
L 1809.1808 460.020779 
L 1816.822 465.344242 
L 1816.822 463.068572 
L 1816.822 464.235736 
L 1824.4632 466.000847 
L 1824.4632 464.800164 
L 1824.4632 465.326286 
L 1832.1044 466.816664 
L 1832.1044 465.91705 
L 1832.1044 466.513201 
L 1839.7456 467.165017 
L 1839.7456 466.425215 
L 1839.7456 466.762795 
L 1847.3868 467.5014 
L 1847.3868 466.807686 
L 1847.3868 467.06925 
L 1855.028 467.710292 
L 1855.028 466.969892 
L 1855.028 467.273354 
L 1862.6692 467.742614 
L 1862.6692 467.021965 
L 1862.6692 467.434363 
L 1870.3104 467.721066 
L 1870.3104 467.032739 
L 1870.3104 467.563649 
L 1877.9516 467.765957 
L 1877.9516 467.20931 
L 1877.9516 467.67019 
L 1885.5928 467.82641 
L 1885.5928 467.400246 
L 1885.5928 467.832994 
L 1885.5928 467.755183 
L 1893.234 467.865316 
L 1893.234 467.558262 
L 1893.234 467.880878 
L 1893.234 467.821622 
L 1900.8752 467.898834 
L 1900.8752 467.686351 
L 1900.8752 467.916192 
L 1900.8752 467.876089 
L 1908.5164 467.926367 
L 1908.5164 467.790497 
L 1908.5164 467.946119 
L 1908.5164 467.923973 
L 1954.3636 468.22564 
L 1954.3636 468.22145 
L 1954.3636 468.247786 
L 1954.3636 468.210676 
L 1954.3636 468.231625 
L 1969.646 468.538679 
L 1969.646 468.537482 
L 1977.2872 468.802638 
L 1977.2872 468.799645 
L 1984.9284 469.228802 
L 1984.9284 469.202466 
L 1992.5696 469.931495 
L 1992.5696 469.871041 
L 2000.2108 471.108833 
L 2000.2108 471.013665 
L 2007.852 473.019989 
L 2007.852 473.049916 
L 2007.852 472.921828 
L 2007.852 472.946368 
L 2015.4932 476.122849 
L 2015.4932 476.051023 
L 2023.1344 480.811255 
L 2023.1344 480.795095 
L 2030.7756 487.709492 
L 2030.7756 487.679564 
L 2038.4168 497.1294 
L 2038.4168 497.082115 
L 2046.058 509.304413 
L 2046.058 509.224208 
L 2053.6992 523.680876 
L 2061.3404 539.12694 
L 2068.9816 553.829012 
L 2076.6228 566.063281 
L 2084.264 574.888236 
L 2091.9052 580.485234 
L 2099.5464 583.698825 
L 2107.1876 585.41246 
L 2107.1876 585.41246 
L 2114.8288 586.252818 
L 2114.8288 586.252818 
" clip-path="url(#p6c35aaf0fc)" style="fill: none; stroke: #d62728; stroke-width: 1.5; stroke-linecap: square"/>
   </g>
   <g id="line2d_50">
    <path d="M 1503.5328 48.946345 
L 1518.8152 48.818855 
L 1518.8152 48.909235 
L 1526.4564 48.881702 
L 1526.4564 48.972681 
L 1526.4564 49.031937 
L 1534.0976 49.148055 
L 1534.0976 49.253997 
L 1541.7388 49.426378 
L 1541.7388 49.610132 
L 1549.38 49.848353 
L 1549.38 50.181144 
L 1557.0212 50.539074 
L 1557.0212 50.962844 
L 1564.6624 51.547025 
L 1564.6624 52.093497 
L 1572.3036 52.960789 
L 1572.3036 53.703584 
L 1579.9448 54.965916 
L 1579.9448 55.809865 
L 1587.586 57.555224 
L 1587.586 58.636796 
L 1595.2272 60.859793 
L 1595.2272 62.140681 
L 1602.8684 65.123233 
L 1602.8684 66.440631 
L 1610.5096 70.458667 
L 1610.5096 71.776664 
L 1618.1508 77.088755 
L 1618.1508 78.322956 
L 1625.792 84.712428 
L 1625.792 86.158514 
L 1633.4332 93.890524 
L 1633.4332 95.120535 
L 1641.0744 104.042454 
L 1641.0744 105.156347 
L 1648.7156 115.662017 
L 1648.7156 116.449104 
L 1656.3568 128.617533 
L 1656.3568 129.089785 
L 1656.3568 129.053873 
L 1663.998 142.245216 
L 1663.998 142.878477 
L 1671.6392 157.219028 
L 1671.6392 157.679309 
L 1671.6392 157.5596 
L 1679.2804 173.199593 
L 1679.2804 172.984715 
L 1679.2804 172.50947 
L 1679.2804 173.088263 
L 1686.9216 189.406408 
L 1686.9216 188.988025 
L 1686.9216 189.836762 
L 1686.9216 189.806835 
L 1694.5628 206.86957 
L 1694.5628 206.675641 
L 1694.5628 206.376369 
L 1702.204 224.429697 
L 1702.204 223.069801 
L 1709.8452 242.652413 
L 1709.8452 241.11475 
L 1717.4864 260.271197 
L 1717.4864 260.651273 
L 1717.4864 259.500271 
L 1717.4864 259.894712 
L 1725.1276 280.206352 
L 1725.1276 277.512299 
L 1732.7688 298.532018 
L 1732.7688 295.573408 
L 1740.41 316.191503 
L 1740.41 315.90061 
L 1740.41 314.662818 
L 1740.41 315.487015 
L 1748.0512 334.857143 
L 1748.0512 332.351033 
L 1748.0512 333.903062 
L 1755.6924 353.355191 
L 1755.6924 349.900985 
L 1755.6924 353.504228 
L 1755.6924 350.571954 
L 1763.3336 371.36662 
L 1763.3336 368.257177 
L 1763.3336 368.774919 
L 1770.9748 386.603193 
L 1770.9748 386.902466 
L 1770.9748 385.606017 
L 1770.9748 386.424228 
L 1778.616 404.278839 
L 1778.616 401.863708 
L 1778.616 402.680723 
L 1786.2572 420.172017 
L 1786.2572 421.397838 
L 1786.2572 419.66026 
L 1793.8984 435.460663 
L 1793.8984 432.763617 
L 1793.8984 433.430996 
L 1801.5396 447.311265 
L 1801.5396 450.744521 
L 1801.5396 450.244137 
L 1809.1808 458.921251 
L 1809.1808 458.898506 
L 1809.1808 456.182905 
L 1816.822 465.083276 
L 1816.822 464.379985 
L 1816.822 465.166474 
L 1816.822 464.621798 
L 1824.4632 467.148857 
L 1824.4632 467.827009 
L 1824.4632 467.037527 
L 1832.1044 468.606315 
L 1832.1044 469.383227 
L 1832.1044 469.088743 
L 1839.7456 469.176729 
L 1839.7456 469.877027 
L 1839.7456 469.637609 
L 1847.3868 469.594513 
L 1847.3868 470.404345 
L 1847.3868 470.29122 
L 1855.028 469.826151 
L 1855.028 470.510288 
L 1855.028 470.312169 
L 1862.6692 470.072153 
L 1862.6692 470.175701 
L 1862.6692 470.707209 
L 1862.6692 470.442652 
L 1870.3104 470.114649 
L 1870.3104 470.133204 
L 1870.3104 470.688655 
L 1870.3104 470.515675 
L 1877.9516 470.063773 
L 1877.9516 470.187672 
L 1877.9516 470.713793 
L 1877.9516 470.522857 
L 1885.5928 470.30798 
L 1885.5928 470.763473 
L 1885.5928 470.425893 
L 1893.234 470.366637 
L 1893.234 470.819736 
L 1893.234 470.480361 
L 1900.8752 470.352871 
L 1900.8752 470.38998 
L 1900.8752 470.762874 
L 1900.8752 470.515076 
L 1908.5164 470.327732 
L 1908.5164 470.397163 
L 1908.5164 470.709005 
L 1908.5164 470.479164 
L 1916.1576 470.443251 
L 1916.1576 470.449236 
L 1916.1576 470.646756 
L 1916.1576 470.392375 
L 1923.7988 470.57134 
L 1923.7988 470.459412 
L 1923.7988 470.253512 
L 1931.44 470.719779 
L 1931.44 470.622216 
L 1931.44 470.224782 
L 1939.0812 470.928073 
L 1939.0812 470.78921 
L 1939.0812 470.29541 
L 1946.7224 471.227944 
L 1946.7224 471.034015 
L 1946.7224 470.53004 
L 1954.3636 471.274631 
L 1954.3636 471.444019 
L 1954.3636 470.810159 
L 1962.0048 471.554151 
L 1962.0048 471.770226 
L 1962.0048 471.221959 
L 1969.646 471.986301 
L 1969.646 472.183821 
L 1969.646 471.710372 
L 1969.646 471.716357 
L 1977.2872 472.803316 
L 1977.2872 472.298143 
L 1984.9284 473.684973 
L 1984.9284 473.97826 
L 1984.9284 473.429993 
L 1984.9284 473.500023 
L 1992.5696 475.288476 
L 1992.5696 475.564406 
L 1992.5696 475.088562 
L 2000.2108 477.413313 
L 2000.2108 478.01126 
L 2000.2108 477.816732 
L 2007.852 480.762773 
L 2007.852 481.560036 
L 2015.4932 485.462552 
L 2015.4932 486.982259 
L 2015.4932 486.326852 
L 2023.1344 491.765236 
L 2023.1344 493.852962 
L 2023.1344 493.616537 
L 2030.7756 500.664409 
L 2030.7756 502.926911 
L 2030.7756 502.660559 
L 2038.4168 512.077474 
L 2038.4168 513.76238 
L 2038.4168 513.48226 
L 2046.058 526.250432 
L 2046.058 526.157059 
L 2046.058 527.25958 
L 2046.058 526.482668 
L 2061.3404 557.231145 
L 2061.3404 556.761287 
L 2068.9816 568.894401 
L 2068.9816 569.462421 
L 2068.9816 568.708852 
L 2076.6228 577.473952 
L 2076.6228 577.419484 
L 2076.6228 577.097467 
L 2076.6228 577.482332 
L 2076.6228 577.305761 
L 2084.264 582.429908 
L 2084.264 582.300623 
L 2084.264 582.015715 
L 2091.9052 584.964748 
L 2091.9052 584.849828 
L 2091.9052 584.784586 
L 2091.9052 584.805535 
L 2099.5464 586.154657 
L 2099.5464 586.031356 
L 2107.1876 586.698735 
L 2107.1876 586.646063 
L 2114.8288 586.933963 
L 2114.8288 586.892663 
" clip-path="url(#p6c35aaf0fc)" style="fill: none; stroke: #9467bd; stroke-width: 1.5; stroke-linecap: square"/>
   </g>
   <g id="patch_13">
    <path d="M 1511.174 647.08 
L 1511.174 21.6 
" style="fill: none; stroke: #000000; stroke-width: 0.8; stroke-linejoin: miter; stroke-linecap: square"/>
   </g>
   <g id="patch_14">
    <path d="M 2122.47 647.08 
L 2122.47 21.6 
" style="fill: none; stroke: #000000; stroke-width: 0.8; stroke-linejoin: miter; stroke-linecap: square"/>
   </g>
   <g id="patch_15">
    <path d="M 1511.174 647.08 
L 2122.47 647.08 
" style="fill: none; stroke: #000000; stroke-width: 0.8; stroke-linejoin: miter; stroke-linecap: square"/>
   </g>
   <g id="patch_16">
    <path d="M 1511.174 21.6 
L 2122.47 21.6 
" style="fill: none; stroke: #000000; stroke-width: 0.8; stroke-linejoin: miter; stroke-linecap: square"/>
   </g>
   <g id="legend_1">
    <g id="patch_17">
     <path d="M 1945.698125 184.38125 
L 2108.47 184.38125 
Q 2112.47 184.38125 2112.47 180.38125 
L 2112.47 35.6 
Q 2112.47 31.6 2108.47 31.6 
L 1945.698125 31.6 
Q 1941.698125 31.6 1941.698125 35.6 
L 1941.698125 180.38125 
Q 1941.698125 184.38125 1945.698125 184.38125 
z
" style="fill: #ffffff; opacity: 0.8; stroke: #cccccc; stroke-linejoin: miter"/>
    </g>
    <g id="line2d_51">
     <path d="M 1949.698125 47.796875 
L 1969.698125 47.796875 
L 1989.698125 47.796875 
" style="fill: none; stroke: #1f77b4; stroke-width: 1.5; stroke-linecap: square"/>
    </g>
    <g id="text_42">
     <!-- Exact Sol. -->
     <g transform="translate(2005.698125 54.796875) scale(0.2 -0.2)">
      <defs>
       <path id="DejaVuSans-45" d="M 628 4666 
L 3578 4666 
L 3578 4134 
L 1259 4134 
L 1259 2753 
L 3481 2753 
L 3481 2222 
L 1259 2222 
L 1259 531 
L 3634 531 
L 3634 0 
L 628 0 
L 628 4666 
z
" transform="scale(0.015625)"/>
       <path id="DejaVuSans-78" d="M 3513 3500 
L 2247 1797 
L 3578 0 
L 2900 0 
L 1881 1375 
L 863 0 
L 184 0 
L 1544 1831 
L 300 3500 
L 978 3500 
L 1906 2253 
L 2834 3500 
L 3513 3500 
z
" transform="scale(0.015625)"/>
       <path id="DejaVuSans-61" d="M 2194 1759 
Q 1497 1759 1228 1600 
Q 959 1441 959 1056 
Q 959 750 1161 570 
Q 1363 391 1709 391 
Q 2188 391 2477 730 
Q 2766 1069 2766 1631 
L 2766 1759 
L 2194 1759 
z
M 3341 1997 
L 3341 0 
L 2766 0 
L 2766 531 
Q 2569 213 2275 61 
Q 1981 -91 1556 -91 
Q 1019 -91 701 211 
Q 384 513 384 1019 
Q 384 1609 779 1909 
Q 1175 2209 1959 2209 
L 2766 2209 
L 2766 2266 
Q 2766 2663 2505 2880 
Q 2244 3097 1772 3097 
Q 1472 3097 1187 3025 
Q 903 2953 641 2809 
L 641 3341 
Q 956 3463 1253 3523 
Q 1550 3584 1831 3584 
Q 2591 3584 2966 3190 
Q 3341 2797 3341 1997 
z
" transform="scale(0.015625)"/>
       <path id="DejaVuSans-63" d="M 3122 3366 
L 3122 2828 
Q 2878 2963 2633 3030 
Q 2388 3097 2138 3097 
Q 1578 3097 1268 2742 
Q 959 2388 959 1747 
Q 959 1106 1268 751 
Q 1578 397 2138 397 
Q 2388 397 2633 464 
Q 2878 531 3122 666 
L 3122 134 
Q 2881 22 2623 -34 
Q 2366 -91 2075 -91 
Q 1284 -91 818 406 
Q 353 903 353 1747 
Q 353 2603 823 3093 
Q 1294 3584 2113 3584 
Q 2378 3584 2631 3529 
Q 2884 3475 3122 3366 
z
" transform="scale(0.015625)"/>
       <path id="DejaVuSans-53" d="M 3425 4513 
L 3425 3897 
Q 3066 4069 2747 4153 
Q 2428 4238 2131 4238 
Q 1616 4238 1336 4038 
Q 1056 3838 1056 3469 
Q 1056 3159 1242 3001 
Q 1428 2844 1947 2747 
L 2328 2669 
Q 3034 2534 3370 2195 
Q 3706 1856 3706 1288 
Q 3706 609 3251 259 
Q 2797 -91 1919 -91 
Q 1588 -91 1214 -16 
Q 841 59 441 206 
L 441 856 
Q 825 641 1194 531 
Q 1563 422 1919 422 
Q 2459 422 2753 634 
Q 3047 847 3047 1241 
Q 3047 1584 2836 1778 
Q 2625 1972 2144 2069 
L 1759 2144 
Q 1053 2284 737 2584 
Q 422 2884 422 3419 
Q 422 4038 858 4394 
Q 1294 4750 2059 4750 
Q 2388 4750 2728 4690 
Q 3069 4631 3425 4513 
z
" transform="scale(0.015625)"/>
       <path id="DejaVuSans-6c" d="M 603 4863 
L 1178 4863 
L 1178 0 
L 603 0 
L 603 4863 
z
" transform="scale(0.015625)"/>
      </defs>
      <use xlink:href="#DejaVuSans-45"/>
      <use xlink:href="#DejaVuSans-78" x="63.183594"/>
      <use xlink:href="#DejaVuSans-61" x="122.363281"/>
      <use xlink:href="#DejaVuSans-63" x="183.642578"/>
      <use xlink:href="#DejaVuSans-74" x="238.623047"/>
      <use xlink:href="#DejaVuSans-20" x="277.832031"/>
      <use xlink:href="#DejaVuSans-53" x="309.619141"/>
      <use xlink:href="#DejaVuSans-6f" x="373.095703"/>
      <use xlink:href="#DejaVuSans-6c" x="434.277344"/>
      <use xlink:href="#DejaVuSans-2e" x="462.060547"/>
     </g>
    </g>
    <g id="line2d_52">
     <path d="M 1949.698125 77.153125 
L 1969.698125 77.153125 
L 1989.698125 77.153125 
" style="fill: none; stroke: #ff7f0e; stroke-width: 1.5; stroke-linecap: square"/>
    </g>
    <g id="text_43">
     <!-- N -->
     <g transform="translate(2005.698125 84.153125) scale(0.2 -0.2)">
      <defs>
       <path id="DejaVuSans-4e" d="M 628 4666 
L 1478 4666 
L 3547 763 
L 3547 4666 
L 4159 4666 
L 4159 0 
L 3309 0 
L 1241 3903 
L 1241 0 
L 628 0 
L 628 4666 
z
" transform="scale(0.015625)"/>
      </defs>
      <use xlink:href="#DejaVuSans-4e"/>
     </g>
    </g>
    <g id="line2d_53">
     <path d="M 1949.698125 106.509375 
L 1969.698125 106.509375 
L 1989.698125 106.509375 
" style="fill: none; stroke: #2ca02c; stroke-width: 1.5; stroke-linecap: square"/>
    </g>
    <g id="text_44">
     <!-- LDA -->
     <g transform="translate(2005.698125 113.509375) scale(0.2 -0.2)">
      <defs>
       <path id="DejaVuSans-4c" d="M 628 4666 
L 1259 4666 
L 1259 531 
L 3531 531 
L 3531 0 
L 628 0 
L 628 4666 
z
" transform="scale(0.015625)"/>
       <path id="DejaVuSans-44" d="M 1259 4147 
L 1259 519 
L 2022 519 
Q 2988 519 3436 956 
Q 3884 1394 3884 2338 
Q 3884 3275 3436 3711 
Q 2988 4147 2022 4147 
L 1259 4147 
z
M 628 4666 
L 1925 4666 
Q 3281 4666 3915 4102 
Q 4550 3538 4550 2338 
Q 4550 1131 3912 565 
Q 3275 0 1925 0 
L 628 0 
L 628 4666 
z
" transform="scale(0.015625)"/>
       <path id="DejaVuSans-41" d="M 2188 4044 
L 1331 1722 
L 3047 1722 
L 2188 4044 
z
M 1831 4666 
L 2547 4666 
L 4325 0 
L 3669 0 
L 3244 1197 
L 1141 1197 
L 716 0 
L 50 0 
L 1831 4666 
z
" transform="scale(0.015625)"/>
      </defs>
      <use xlink:href="#DejaVuSans-4c"/>
      <use xlink:href="#DejaVuSans-44" x="55.712891"/>
      <use xlink:href="#DejaVuSans-41" x="130.964844"/>
     </g>
    </g>
    <g id="line2d_54">
     <path d="M 1949.698125 135.865625 
L 1969.698125 135.865625 
L 1989.698125 135.865625 
" style="fill: none; stroke: #d62728; stroke-width: 1.5; stroke-linecap: square"/>
    </g>
    <g id="text_45">
     <!-- B -->
     <g transform="translate(2005.698125 142.865625) scale(0.2 -0.2)">
      <defs>
       <path id="DejaVuSans-42" d="M 1259 2228 
L 1259 519 
L 2272 519 
Q 2781 519 3026 730 
Q 3272 941 3272 1375 
Q 3272 1813 3026 2020 
Q 2781 2228 2272 2228 
L 1259 2228 
z
M 1259 4147 
L 1259 2741 
L 2194 2741 
Q 2656 2741 2882 2914 
Q 3109 3088 3109 3444 
Q 3109 3797 2882 3972 
Q 2656 4147 2194 4147 
L 1259 4147 
z
M 628 4666 
L 2241 4666 
Q 2963 4666 3353 4366 
Q 3744 4066 3744 3513 
Q 3744 3084 3544 2831 
Q 3344 2578 2956 2516 
Q 3422 2416 3680 2098 
Q 3938 1781 3938 1306 
Q 3938 681 3513 340 
Q 3088 0 2303 0 
L 628 0 
L 628 4666 
z
" transform="scale(0.015625)"/>
      </defs>
      <use xlink:href="#DejaVuSans-42"/>
     </g>
    </g>
    <g id="line2d_55">
     <path d="M 1949.698125 165.221875 
L 1969.698125 165.221875 
L 1989.698125 165.221875 
" style="fill: none; stroke: #9467bd; stroke-width: 1.5; stroke-linecap: square"/>
    </g>
    <g id="text_46">
     <!-- Bx -->
     <g transform="translate(2005.698125 172.221875) scale(0.2 -0.2)">
      <use xlink:href="#DejaVuSans-42"/>
      <use xlink:href="#DejaVuSans-78" x="68.603516"/>
     </g>
    </g>
   </g>
  </g>
 </g>
 <defs>
  <clipPath id="pd9375b9c49">
   <rect x="84.71" y="21.6" width="611.296" height="625.48"/>
  </clipPath>
  <clipPath id="p6c5127558e">
   <rect x="797.942" y="21.6" width="611.296" height="625.48"/>
  </clipPath>
  <clipPath id="p6c35aaf0fc">
   <rect x="1511.174" y="21.6" width="611.296" height="625.48"/>
  </clipPath>
 </defs>
</svg>
