<?xml version="1.0" encoding="utf-8" standalone="no"?>
<!DOCTYPE svg PUBLIC "-//W3C//DTD SVG 1.1//EN"
  "http://www.w3.org/Graphics/SVG/1.1/DTD/svg11.dtd">
<svg xmlns:xlink="http://www.w3.org/1999/xlink" width="2160pt" height="720pt" viewBox="0 0 2160 720" xmlns="http://www.w3.org/2000/svg" version="1.1">
 <metadata>
  <rdf:RDF xmlns:dc="http://purl.org/dc/elements/1.1/" xmlns:cc="http://creativecommons.org/ns#" xmlns:rdf="http://www.w3.org/1999/02/22-rdf-syntax-ns#">
   <cc:Work>
    <dc:type rdf:resource="http://purl.org/dc/dcmitype/StillImage"/>
    <dc:date>2023-06-30T01:42:21.877241</dc:date>
    <dc:format>image/svg+xml</dc:format>
    <dc:creator>
     <cc:Agent>
      <dc:title>Matplotlib v3.7.1, https://matplotlib.org/</dc:title>
     </cc:Agent>
    </dc:creator>
   </cc:Work>
  </rdf:RDF>
 </metadata>
 <defs>
  <style type="text/css">*{stroke-linejoin: round; stroke-linecap: butt}</style>
 </defs>
 <g id="figure_1">
  <g id="patch_1">
   <path d="M 0 720 
L 2160 720 
L 2160 0 
L 0 0 
z
" style="fill: #ffffff"/>
  </g>
  <g id="axes_1">
   <g id="patch_2">
    <path d="M 84.71 647.08 
L 696.006 647.08 
L 696.006 21.6 
L 84.71 21.6 
z
" style="fill: #ffffff"/>
   </g>
   <g id="matplotlib.axis_1">
    <g id="xtick_1">
     <g id="line2d_1">
      <defs>
       <path id="m2adf32c4bf" d="M 0 0 
L 0 3.5 
" style="stroke: #000000; stroke-width: 0.8"/>
      </defs>
      <g>
       <use xlink:href="#m2adf32c4bf" x="84.71" y="647.08" style="stroke: #000000; stroke-width: 0.8"/>
      </g>
     </g>
     <g id="text_1">
      <!-- 1.0 -->
      <g transform="translate(68.806875 669.276875) scale(0.2 -0.2)">
       <defs>
        <path id="DejaVuSans-31" d="M 794 531 
L 1825 531 
L 1825 4091 
L 703 3866 
L 703 4441 
L 1819 4666 
L 2450 4666 
L 2450 531 
L 3481 531 
L 3481 0 
L 794 0 
L 794 531 
z
" transform="scale(0.015625)"/>
        <path id="DejaVuSans-2e" d="M 684 794 
L 1344 794 
L 1344 0 
L 684 0 
L 684 794 
z
" transform="scale(0.015625)"/>
        <path id="DejaVuSans-30" d="M 2034 4250 
Q 1547 4250 1301 3770 
Q 1056 3291 1056 2328 
Q 1056 1369 1301 889 
Q 1547 409 2034 409 
Q 2525 409 2770 889 
Q 3016 1369 3016 2328 
Q 3016 3291 2770 3770 
Q 2525 4250 2034 4250 
z
M 2034 4750 
Q 2819 4750 3233 4129 
Q 3647 3509 3647 2328 
Q 3647 1150 3233 529 
Q 2819 -91 2034 -91 
Q 1250 -91 836 529 
Q 422 1150 422 2328 
Q 422 3509 836 4129 
Q 1250 4750 2034 4750 
z
" transform="scale(0.015625)"/>
       </defs>
       <use xlink:href="#DejaVuSans-31"/>
       <use xlink:href="#DejaVuSans-2e" x="63.623047"/>
       <use xlink:href="#DejaVuSans-30" x="95.410156"/>
      </g>
     </g>
    </g>
    <g id="xtick_2">
     <g id="line2d_2">
      <g>
       <use xlink:href="#m2adf32c4bf" x="206.9692" y="647.08" style="stroke: #000000; stroke-width: 0.8"/>
      </g>
     </g>
     <g id="text_2">
      <!-- 1.2 -->
      <g transform="translate(191.066075 669.276875) scale(0.2 -0.2)">
       <defs>
        <path id="DejaVuSans-32" d="M 1228 531 
L 3431 531 
L 3431 0 
L 469 0 
L 469 531 
Q 828 903 1448 1529 
Q 2069 2156 2228 2338 
Q 2531 2678 2651 2914 
Q 2772 3150 2772 3378 
Q 2772 3750 2511 3984 
Q 2250 4219 1831 4219 
Q 1534 4219 1204 4116 
Q 875 4013 500 3803 
L 500 4441 
Q 881 4594 1212 4672 
Q 1544 4750 1819 4750 
Q 2544 4750 2975 4387 
Q 3406 4025 3406 3419 
Q 3406 3131 3298 2873 
Q 3191 2616 2906 2266 
Q 2828 2175 2409 1742 
Q 1991 1309 1228 531 
z
" transform="scale(0.015625)"/>
       </defs>
       <use xlink:href="#DejaVuSans-31"/>
       <use xlink:href="#DejaVuSans-2e" x="63.623047"/>
       <use xlink:href="#DejaVuSans-32" x="95.410156"/>
      </g>
     </g>
    </g>
    <g id="xtick_3">
     <g id="line2d_3">
      <g>
       <use xlink:href="#m2adf32c4bf" x="329.2284" y="647.08" style="stroke: #000000; stroke-width: 0.8"/>
      </g>
     </g>
     <g id="text_3">
      <!-- 1.4 -->
      <g transform="translate(313.325275 669.276875) scale(0.2 -0.2)">
       <defs>
        <path id="DejaVuSans-34" d="M 2419 4116 
L 825 1625 
L 2419 1625 
L 2419 4116 
z
M 2253 4666 
L 3047 4666 
L 3047 1625 
L 3713 1625 
L 3713 1100 
L 3047 1100 
L 3047 0 
L 2419 0 
L 2419 1100 
L 313 1100 
L 313 1709 
L 2253 4666 
z
" transform="scale(0.015625)"/>
       </defs>
       <use xlink:href="#DejaVuSans-31"/>
       <use xlink:href="#DejaVuSans-2e" x="63.623047"/>
       <use xlink:href="#DejaVuSans-34" x="95.410156"/>
      </g>
     </g>
    </g>
    <g id="xtick_4">
     <g id="line2d_4">
      <g>
       <use xlink:href="#m2adf32c4bf" x="451.4876" y="647.08" style="stroke: #000000; stroke-width: 0.8"/>
      </g>
     </g>
     <g id="text_4">
      <!-- 1.6 -->
      <g transform="translate(435.584475 669.276875) scale(0.2 -0.2)">
       <defs>
        <path id="DejaVuSans-36" d="M 2113 2584 
Q 1688 2584 1439 2293 
Q 1191 2003 1191 1497 
Q 1191 994 1439 701 
Q 1688 409 2113 409 
Q 2538 409 2786 701 
Q 3034 994 3034 1497 
Q 3034 2003 2786 2293 
Q 2538 2584 2113 2584 
z
M 3366 4563 
L 3366 3988 
Q 3128 4100 2886 4159 
Q 2644 4219 2406 4219 
Q 1781 4219 1451 3797 
Q 1122 3375 1075 2522 
Q 1259 2794 1537 2939 
Q 1816 3084 2150 3084 
Q 2853 3084 3261 2657 
Q 3669 2231 3669 1497 
Q 3669 778 3244 343 
Q 2819 -91 2113 -91 
Q 1303 -91 875 529 
Q 447 1150 447 2328 
Q 447 3434 972 4092 
Q 1497 4750 2381 4750 
Q 2619 4750 2861 4703 
Q 3103 4656 3366 4563 
z
" transform="scale(0.015625)"/>
       </defs>
       <use xlink:href="#DejaVuSans-31"/>
       <use xlink:href="#DejaVuSans-2e" x="63.623047"/>
       <use xlink:href="#DejaVuSans-36" x="95.410156"/>
      </g>
     </g>
    </g>
    <g id="xtick_5">
     <g id="line2d_5">
      <g>
       <use xlink:href="#m2adf32c4bf" x="573.7468" y="647.08" style="stroke: #000000; stroke-width: 0.8"/>
      </g>
     </g>
     <g id="text_5">
      <!-- 1.8 -->
      <g transform="translate(557.843675 669.276875) scale(0.2 -0.2)">
       <defs>
        <path id="DejaVuSans-38" d="M 2034 2216 
Q 1584 2216 1326 1975 
Q 1069 1734 1069 1313 
Q 1069 891 1326 650 
Q 1584 409 2034 409 
Q 2484 409 2743 651 
Q 3003 894 3003 1313 
Q 3003 1734 2745 1975 
Q 2488 2216 2034 2216 
z
M 1403 2484 
Q 997 2584 770 2862 
Q 544 3141 544 3541 
Q 544 4100 942 4425 
Q 1341 4750 2034 4750 
Q 2731 4750 3128 4425 
Q 3525 4100 3525 3541 
Q 3525 3141 3298 2862 
Q 3072 2584 2669 2484 
Q 3125 2378 3379 2068 
Q 3634 1759 3634 1313 
Q 3634 634 3220 271 
Q 2806 -91 2034 -91 
Q 1263 -91 848 271 
Q 434 634 434 1313 
Q 434 1759 690 2068 
Q 947 2378 1403 2484 
z
M 1172 3481 
Q 1172 3119 1398 2916 
Q 1625 2713 2034 2713 
Q 2441 2713 2670 2916 
Q 2900 3119 2900 3481 
Q 2900 3844 2670 4047 
Q 2441 4250 2034 4250 
Q 1625 4250 1398 4047 
Q 1172 3844 1172 3481 
z
" transform="scale(0.015625)"/>
       </defs>
       <use xlink:href="#DejaVuSans-31"/>
       <use xlink:href="#DejaVuSans-2e" x="63.623047"/>
       <use xlink:href="#DejaVuSans-38" x="95.410156"/>
      </g>
     </g>
    </g>
    <g id="xtick_6">
     <g id="line2d_6">
      <g>
       <use xlink:href="#m2adf32c4bf" x="696.006" y="647.08" style="stroke: #000000; stroke-width: 0.8"/>
      </g>
     </g>
     <g id="text_6">
      <!-- 2.0 -->
      <g transform="translate(680.102875 669.276875) scale(0.2 -0.2)">
       <use xlink:href="#DejaVuSans-32"/>
       <use xlink:href="#DejaVuSans-2e" x="63.623047"/>
       <use xlink:href="#DejaVuSans-30" x="95.410156"/>
      </g>
     </g>
    </g>
    <g id="text_7">
     <!-- Position $x$ -->
     <g transform="translate(341.958 692.633125) scale(0.2 -0.2)">
      <defs>
       <path id="DejaVuSans-50" d="M 1259 4147 
L 1259 2394 
L 2053 2394 
Q 2494 2394 2734 2622 
Q 2975 2850 2975 3272 
Q 2975 3691 2734 3919 
Q 2494 4147 2053 4147 
L 1259 4147 
z
M 628 4666 
L 2053 4666 
Q 2838 4666 3239 4311 
Q 3641 3956 3641 3272 
Q 3641 2581 3239 2228 
Q 2838 1875 2053 1875 
L 1259 1875 
L 1259 0 
L 628 0 
L 628 4666 
z
" transform="scale(0.015625)"/>
       <path id="DejaVuSans-6f" d="M 1959 3097 
Q 1497 3097 1228 2736 
Q 959 2375 959 1747 
Q 959 1119 1226 758 
Q 1494 397 1959 397 
Q 2419 397 2687 759 
Q 2956 1122 2956 1747 
Q 2956 2369 2687 2733 
Q 2419 3097 1959 3097 
z
M 1959 3584 
Q 2709 3584 3137 3096 
Q 3566 2609 3566 1747 
Q 3566 888 3137 398 
Q 2709 -91 1959 -91 
Q 1206 -91 779 398 
Q 353 888 353 1747 
Q 353 2609 779 3096 
Q 1206 3584 1959 3584 
z
" transform="scale(0.015625)"/>
       <path id="DejaVuSans-73" d="M 2834 3397 
L 2834 2853 
Q 2591 2978 2328 3040 
Q 2066 3103 1784 3103 
Q 1356 3103 1142 2972 
Q 928 2841 928 2578 
Q 928 2378 1081 2264 
Q 1234 2150 1697 2047 
L 1894 2003 
Q 2506 1872 2764 1633 
Q 3022 1394 3022 966 
Q 3022 478 2636 193 
Q 2250 -91 1575 -91 
Q 1294 -91 989 -36 
Q 684 19 347 128 
L 347 722 
Q 666 556 975 473 
Q 1284 391 1588 391 
Q 1994 391 2212 530 
Q 2431 669 2431 922 
Q 2431 1156 2273 1281 
Q 2116 1406 1581 1522 
L 1381 1569 
Q 847 1681 609 1914 
Q 372 2147 372 2553 
Q 372 3047 722 3315 
Q 1072 3584 1716 3584 
Q 2034 3584 2315 3537 
Q 2597 3491 2834 3397 
z
" transform="scale(0.015625)"/>
       <path id="DejaVuSans-69" d="M 603 3500 
L 1178 3500 
L 1178 0 
L 603 0 
L 603 3500 
z
M 603 4863 
L 1178 4863 
L 1178 4134 
L 603 4134 
L 603 4863 
z
" transform="scale(0.015625)"/>
       <path id="DejaVuSans-74" d="M 1172 4494 
L 1172 3500 
L 2356 3500 
L 2356 3053 
L 1172 3053 
L 1172 1153 
Q 1172 725 1289 603 
Q 1406 481 1766 481 
L 2356 481 
L 2356 0 
L 1766 0 
Q 1100 0 847 248 
Q 594 497 594 1153 
L 594 3053 
L 172 3053 
L 172 3500 
L 594 3500 
L 594 4494 
L 1172 4494 
z
" transform="scale(0.015625)"/>
       <path id="DejaVuSans-6e" d="M 3513 2113 
L 3513 0 
L 2938 0 
L 2938 2094 
Q 2938 2591 2744 2837 
Q 2550 3084 2163 3084 
Q 1697 3084 1428 2787 
Q 1159 2491 1159 1978 
L 1159 0 
L 581 0 
L 581 3500 
L 1159 3500 
L 1159 2956 
Q 1366 3272 1645 3428 
Q 1925 3584 2291 3584 
Q 2894 3584 3203 3211 
Q 3513 2838 3513 2113 
z
" transform="scale(0.015625)"/>
       <path id="DejaVuSans-20" transform="scale(0.015625)"/>
       <path id="DejaVuSans-Oblique-78" d="M 3841 3500 
L 2234 1784 
L 3219 0 
L 2559 0 
L 1819 1388 
L 531 0 
L -166 0 
L 1556 1844 
L 641 3500 
L 1300 3500 
L 1972 2234 
L 3144 3500 
L 3841 3500 
z
" transform="scale(0.015625)"/>
      </defs>
      <use xlink:href="#DejaVuSans-50" transform="translate(0 0.015625)"/>
      <use xlink:href="#DejaVuSans-6f" transform="translate(60.302734 0.015625)"/>
      <use xlink:href="#DejaVuSans-73" transform="translate(121.484375 0.015625)"/>
      <use xlink:href="#DejaVuSans-69" transform="translate(173.583984 0.015625)"/>
      <use xlink:href="#DejaVuSans-74" transform="translate(201.367188 0.015625)"/>
      <use xlink:href="#DejaVuSans-69" transform="translate(240.576172 0.015625)"/>
      <use xlink:href="#DejaVuSans-6f" transform="translate(268.359375 0.015625)"/>
      <use xlink:href="#DejaVuSans-6e" transform="translate(329.541016 0.015625)"/>
      <use xlink:href="#DejaVuSans-20" transform="translate(392.919922 0.015625)"/>
      <use xlink:href="#DejaVuSans-Oblique-78" transform="translate(424.707031 0.015625)"/>
     </g>
    </g>
   </g>
   <g id="matplotlib.axis_2">
    <g id="ytick_1">
     <g id="line2d_7">
      <defs>
       <path id="m6a26200c6d" d="M 0 0 
L -3.5 0 
" style="stroke: #000000; stroke-width: 0.8"/>
      </defs>
      <g>
       <use xlink:href="#m6a26200c6d" x="84.71" y="647.08" style="stroke: #000000; stroke-width: 0.8"/>
      </g>
     </g>
     <g id="text_8">
      <!-- 0.0 -->
      <g transform="translate(45.90375 654.678437) scale(0.2 -0.2)">
       <use xlink:href="#DejaVuSans-30"/>
       <use xlink:href="#DejaVuSans-2e" x="63.623047"/>
       <use xlink:href="#DejaVuSans-30" x="95.410156"/>
      </g>
     </g>
    </g>
    <g id="ytick_2">
     <g id="line2d_8">
      <g>
       <use xlink:href="#m6a26200c6d" x="84.71" y="527.227545" style="stroke: #000000; stroke-width: 0.8"/>
      </g>
     </g>
     <g id="text_9">
      <!-- 0.2 -->
      <g transform="translate(45.90375 534.825982) scale(0.2 -0.2)">
       <use xlink:href="#DejaVuSans-30"/>
       <use xlink:href="#DejaVuSans-2e" x="63.623047"/>
       <use xlink:href="#DejaVuSans-32" x="95.410156"/>
      </g>
     </g>
    </g>
    <g id="ytick_3">
     <g id="line2d_9">
      <g>
       <use xlink:href="#m6a26200c6d" x="84.71" y="407.37509" style="stroke: #000000; stroke-width: 0.8"/>
      </g>
     </g>
     <g id="text_10">
      <!-- 0.4 -->
      <g transform="translate(45.90375 414.973527) scale(0.2 -0.2)">
       <use xlink:href="#DejaVuSans-30"/>
       <use xlink:href="#DejaVuSans-2e" x="63.623047"/>
       <use xlink:href="#DejaVuSans-34" x="95.410156"/>
      </g>
     </g>
    </g>
    <g id="ytick_4">
     <g id="line2d_10">
      <g>
       <use xlink:href="#m6a26200c6d" x="84.71" y="287.522635" style="stroke: #000000; stroke-width: 0.8"/>
      </g>
     </g>
     <g id="text_11">
      <!-- 0.6 -->
      <g transform="translate(45.90375 295.121072) scale(0.2 -0.2)">
       <use xlink:href="#DejaVuSans-30"/>
       <use xlink:href="#DejaVuSans-2e" x="63.623047"/>
       <use xlink:href="#DejaVuSans-36" x="95.410156"/>
      </g>
     </g>
    </g>
    <g id="ytick_5">
     <g id="line2d_11">
      <g>
       <use xlink:href="#m6a26200c6d" x="84.71" y="167.67018" style="stroke: #000000; stroke-width: 0.8"/>
      </g>
     </g>
     <g id="text_12">
      <!-- 0.8 -->
      <g transform="translate(45.90375 175.268617) scale(0.2 -0.2)">
       <use xlink:href="#DejaVuSans-30"/>
       <use xlink:href="#DejaVuSans-2e" x="63.623047"/>
       <use xlink:href="#DejaVuSans-38" x="95.410156"/>
      </g>
     </g>
    </g>
    <g id="ytick_6">
     <g id="line2d_12">
      <g>
       <use xlink:href="#m6a26200c6d" x="84.71" y="47.817725" style="stroke: #000000; stroke-width: 0.8"/>
      </g>
     </g>
     <g id="text_13">
      <!-- 1.0 -->
      <g transform="translate(45.90375 55.416162) scale(0.2 -0.2)">
       <use xlink:href="#DejaVuSans-31"/>
       <use xlink:href="#DejaVuSans-2e" x="63.623047"/>
       <use xlink:href="#DejaVuSans-30" x="95.410156"/>
      </g>
     </g>
    </g>
    <g id="text_14">
     <!-- $\rho$ -->
     <g transform="translate(37.70375 340.74) rotate(-90) scale(0.2 -0.2)">
      <defs>
       <path id="DejaVuSans-Oblique-3c1" d="M 1203 2875 
Q 1453 3194 1981 3475 
Q 2188 3584 2756 3584 
Q 3394 3584 3694 3078 
Q 3994 2572 3834 1747 
Q 3672 922 3175 415 
Q 2678 -91 2041 -91 
Q 1656 -91 1409 63 
Q 1163 213 1044 525 
L 681 -1331 
L 103 -1331 
L 697 1716 
Q 838 2438 1203 2875 
z
M 3238 1747 
Q 3359 2381 3169 2744 
Q 2978 3103 2522 3103 
Q 2066 3103 1734 2744 
Q 1403 2381 1281 1747 
Q 1156 1113 1347 750 
Q 1538 391 1994 391 
Q 2450 391 2781 750 
Q 3113 1113 3238 1747 
z
" transform="scale(0.015625)"/>
      </defs>
      <use xlink:href="#DejaVuSans-Oblique-3c1"/>
     </g>
    </g>
   </g>
   <g id="line2d_13">
    <path d="M 78.34213 47.817725 
L 231.164296 47.817725 
L 231.164296 47.817725 
L 237.534 62.11353 
L 237.534 62.11353 
L 243.903704 79.775488 
L 243.903704 79.775488 
L 250.267296 97.061871 
L 250.267296 97.061871 
L 256.637 114.009577 
L 256.637 114.009577 
L 263.006704 130.605518 
L 263.006704 130.605518 
L 269.370296 146.837955 
L 269.370296 146.837955 
L 275.74 162.741762 
L 275.74 162.741762 
L 282.109704 178.304866 
L 282.109704 178.304866 
L 288.473296 193.516506 
L 288.473296 193.516506 
L 294.843 208.409593 
L 294.843 208.409593 
L 301.212704 222.973041 
L 301.212704 222.973041 
L 307.576296 237.197032 
L 307.576296 237.197032 
L 313.946 251.112579 
L 313.946 251.112579 
L 320.315704 264.709551 
L 320.315704 264.709551 
L 326.679296 277.97904 
L 326.679296 277.97904 
L 333.049 290.950227 
L 333.049 290.950227 
L 339.418704 303.613903 
L 339.418704 303.613903 
L 345.782296 315.962039 
L 345.782296 315.962039 
L 352.152 328.022046 
L 352.152 328.022046 
L 358.521704 339.785605 
L 358.521704 339.785605 
L 364.885296 351.245536 
L 364.885296 351.245536 
L 371.255 359.620443 
L 371.255 359.620443 
L 492.242704 359.620443 
L 492.242704 359.620443 
L 498.606296 509.366084 
L 498.606296 509.366084 
L 613.224296 509.366084 
L 613.224296 509.366084 
L 619.594 572.172216 
L 619.594 572.172216 
L 689.636296 572.172216 
L 689.636296 572.172216 
" clip-path="url(#peec859f547)" style="fill: none; stroke: #1f77b4; stroke-width: 1.5; stroke-linecap: square"/>
   </g>
   <g id="line2d_14">
    <path d="M 78.34213 47.825515 
L 116.546296 47.88664 
L 116.546296 47.88664 
L 129.285704 48.019077 
L 129.285704 48.019077 
L 142.019 48.358259 
L 142.019 48.358259 
L 148.388704 48.672273 
L 148.388704 48.672273 
L 154.752296 49.138499 
L 154.752296 49.138499 
L 161.122 49.810871 
L 161.122 49.810871 
L 167.491704 50.755308 
L 167.491704 50.755308 
L 173.855296 52.047318 
L 173.855296 52.047318 
L 180.225 53.768998 
L 180.225 53.768998 
L 186.594704 56.004846 
L 186.594704 56.004846 
L 192.958296 58.835761 
L 192.958296 58.835761 
L 199.328 62.334853 
L 199.328 62.334853 
L 205.697704 66.562649 
L 205.697704 66.562649 
L 212.061296 71.561694 
L 212.061296 71.561694 
L 218.431 77.356561 
L 218.431 77.356561 
L 224.800704 83.951442 
L 224.800704 83.951442 
L 231.164296 91.330758 
L 231.164296 91.330758 
L 237.534 99.463945 
L 237.534 99.463945 
L 243.903704 108.308457 
L 243.903704 108.308457 
L 250.267296 117.805566 
L 250.267296 117.805566 
L 256.637 127.895944 
L 256.637 127.895944 
L 263.006704 138.51607 
L 263.006704 138.51607 
L 269.370296 149.594632 
L 269.370296 149.594632 
L 275.74 161.068107 
L 275.74 161.068107 
L 282.109704 172.874773 
L 282.109704 172.874773 
L 294.843 197.232387 
L 294.843 197.232387 
L 307.576296 222.231212 
L 307.576296 222.231212 
L 339.418704 285.072851 
L 339.418704 285.072851 
L 352.152 309.389116 
L 352.152 309.389116 
L 358.521704 321.113083 
L 358.521704 321.113083 
L 364.885296 332.346254 
L 364.885296 332.346254 
L 371.255 342.806377 
L 371.255 342.806377 
L 377.624704 351.963704 
L 377.624704 351.963704 
L 383.988296 358.903761 
L 383.988296 358.903761 
L 390.358 362.691698 
L 390.358 362.691698 
L 396.727704 363.7458 
L 396.727704 363.7458 
L 415.830704 364.554804 
L 415.830704 364.554804 
L 422.194296 365.06178 
L 422.194296 365.061181 
L 428.564 365.861795 
L 428.564 365.861196 
L 434.933704 367.190359 
L 434.933704 367.188562 
L 441.297296 369.40763 
L 441.297296 369.402236 
L 447.667 372.974439 
L 447.667 372.963053 
L 454.036704 378.363005 
L 454.036704 378.345627 
L 460.400296 385.947868 
L 460.400296 385.925096 
L 466.77 395.869254 
L 466.77 395.844684 
L 473.139704 407.925213 
L 473.139704 407.90304 
L 479.503296 421.591389 
L 479.503296 421.573411 
L 492.242704 450.489014 
L 492.242704 450.481224 
L 498.606296 463.958033 
L 498.606296 463.953838 
L 504.976 475.837808 
L 504.976 475.835411 
L 511.345704 485.725037 
L 511.345704 485.723838 
L 517.709296 493.513049 
L 517.709296 493.51245 
L 524.079 499.323496 
L 524.079 499.323496 
L 530.448704 503.424248 
L 530.448704 503.424248 
L 536.812296 506.165873 
L 536.812296 506.165873 
L 543.182 507.901936 
L 543.182 507.901936 
L 549.551704 508.948248 
L 549.551704 508.947648 
L 555.915296 509.567885 
L 555.915296 509.566686 
L 575.018296 510.804163 
L 575.018296 510.799369 
L 581.388 511.561031 
L 581.388 511.555638 
L 587.757704 512.814688 
L 587.757704 512.810493 
L 594.121296 514.845588 
L 594.121296 514.841992 
L 600.491 518.014487 
L 600.491 518.012689 
L 606.860704 522.724688 
L 606.860704 522.72349 
L 613.224296 529.289007 
L 613.224296 529.288408 
L 619.594 537.662499 
L 619.594 537.662499 
L 625.963704 547.105075 
L 625.963704 547.105075 
L 632.327296 556.157531 
L 632.327296 556.157531 
L 638.697 563.277965 
L 638.697 563.277965 
L 645.066704 567.815579 
L 645.066704 567.815579 
L 651.430296 570.221617 
L 651.430296 570.221617 
L 657.8 571.343436 
L 657.8 571.343436 
L 664.169704 571.829438 
L 664.169704 571.829438 
L 670.533296 572.032587 
L 670.533296 572.032587 
L 683.272704 572.149444 
L 683.272704 572.149444 
L 689.636296 572.162028 
L 689.636296 572.162028 
" clip-path="url(#peec859f547)" style="fill: none; stroke: #ff7f0e; stroke-width: 1.5; stroke-linecap: square"/>
   </g>
   <g id="line2d_15">
    <path d="M 78.34213 48.061025 
L 91.079704 48.061025 
L 91.079704 48.061025 
L 103.813 48.227021 
L 103.813 48.226421 
L 116.546296 48.622534 
L 116.546296 48.622534 
L 122.916 48.946735 
L 122.916 48.946735 
L 129.285704 49.384795 
L 129.285704 49.384795 
L 135.649296 49.964282 
L 135.649296 49.964282 
L 142.019 50.718154 
L 142.019 50.718154 
L 148.388704 51.681168 
L 148.388704 51.681168 
L 154.752296 52.891678 
L 154.752296 52.891678 
L 161.122 54.389834 
L 161.122 54.389834 
L 167.491704 56.216985 
L 167.491704 56.216985 
L 173.855296 58.412682 
L 173.855296 58.412682 
L 180.225 61.015278 
L 180.225 61.015278 
L 186.594704 64.060729 
L 186.594704 64.060729 
L 192.958296 67.578997 
L 192.958296 67.578997 
L 199.328 71.596452 
L 199.328 71.596452 
L 205.697704 76.133466 
L 205.697704 76.133466 
L 212.061296 81.203225 
L 212.061296 81.203225 
L 218.431 86.814717 
L 218.431 86.814717 
L 224.800704 92.970339 
L 224.800704 92.970339 
L 231.164296 99.6635 
L 231.164296 99.6635 
L 237.534 106.886408 
L 237.534 106.886408 
L 243.903704 114.625281 
L 243.903704 114.625281 
L 250.267296 122.857347 
L 250.267296 122.857347 
L 256.637 131.56283 
L 256.637 131.56283 
L 263.006704 140.715962 
L 263.006704 140.715962 
L 269.370296 150.281985 
L 269.370296 150.281985 
L 275.74 160.235732 
L 275.74 160.235732 
L 282.109704 170.544841 
L 282.109704 170.544841 
L 288.473296 181.167963 
L 288.473296 181.167963 
L 294.843 192.077533 
L 294.843 192.077533 
L 307.576296 214.607997 
L 320.315704 237.846788 
L 320.315704 237.846788 
L 352.152 296.775844 
L 352.152 296.775844 
L 358.521704 308.181003 
L 358.521704 308.181003 
L 364.885296 319.122334 
L 364.885296 319.122334 
L 371.255 329.296609 
L 371.255 329.296609 
L 377.624704 338.185466 
L 377.624704 338.185466 
L 383.988296 345.117133 
L 383.988296 345.117133 
L 390.358 349.707482 
L 390.358 349.707482 
L 396.727704 352.449107 
L 396.727704 352.449107 
L 403.091296 354.397308 
L 403.091296 354.397308 
L 409.461 356.112996 
L 409.461 356.112996 
L 415.830704 358.024643 
L 415.830704 358.024643 
L 422.194296 360.413302 
L 422.194296 360.413302 
L 428.564 363.463547 
L 428.564 363.463547 
L 434.933704 367.377929 
L 434.933704 367.377929 
L 441.297296 372.302067 
L 441.297296 372.302067 
L 447.667 378.35941 
L 454.036704 385.594902 
L 460.400296 393.990567 
L 460.400296 393.990567 
L 466.77 403.443929 
L 473.139704 413.750042 
L 473.139704 413.750042 
L 479.503296 424.64463 
L 479.503296 424.64463 
L 492.242704 446.883852 
L 492.242704 446.883852 
L 498.606296 457.532743 
L 498.606296 457.532144 
L 504.976 467.458324 
L 504.976 467.457126 
L 511.345704 476.4137 
L 511.345704 476.411902 
L 517.709296 484.246057 
L 517.709296 484.24366 
L 524.079 490.890078 
L 524.079 490.887082 
L 530.448704 496.354751 
L 530.448704 496.350556 
L 536.812296 500.724572 
L 536.812296 500.720377 
L 543.182 504.139767 
L 543.182 504.135572 
L 549.551704 506.768731 
L 549.551704 506.764536 
L 555.915296 508.801428 
L 555.915296 508.797234 
L 562.285 510.428426 
L 562.285 510.42483 
L 581.388 514.622063 
L 581.388 514.619666 
L 587.757704 516.295203 
L 587.757704 516.293405 
L 594.121296 518.317114 
L 594.121296 518.315916 
L 600.491 520.792667 
L 600.491 520.791468 
L 606.860704 523.809952 
L 606.860704 523.809353 
L 613.224296 527.43489 
L 613.224296 527.43429 
L 619.594 531.69924 
L 619.594 531.698641 
L 625.963704 536.583228 
L 625.963704 536.582628 
L 632.327296 541.99097 
L 632.327296 541.990371 
L 645.066704 553.439277 
L 645.066704 553.438678 
L 651.430296 558.723572 
L 651.430296 558.722972 
L 657.8 563.158112 
L 657.8 563.158112 
L 664.169704 566.506191 
L 664.169704 566.506191 
L 670.533296 568.788781 
L 670.533296 568.788781 
L 676.903 570.212029 
L 676.903 570.212029 
L 683.272704 571.027025 
L 683.272704 571.026426 
L 689.636296 571.435123 
L 689.636296 571.435123 
" clip-path="url(#peec859f547)" style="fill: none; stroke: #2ca02c; stroke-width: 1.5; stroke-linecap: square"/>
   </g>
   <g id="line2d_16">
    <path d="M 78.34213 47.892632 
L 97.443296 47.926191 
L 97.443296 47.926191 
L 116.546296 48.192863 
L 116.546296 48.192863 
L 129.285704 48.639313 
L 129.285704 48.639313 
L 135.649296 49.006062 
L 135.649296 49.006062 
L 142.019 49.508843 
L 142.019 49.508843 
L 148.388704 50.187208 
L 148.388704 50.187208 
L 154.752296 51.084303 
L 154.752296 51.084303 
L 161.122 52.251067 
L 161.122 52.251067 
L 167.491704 53.741432 
L 167.491704 53.741432 
L 173.855296 55.61113 
L 173.855296 55.61113 
L 180.225 57.917691 
L 180.225 57.917691 
L 186.594704 60.716246 
L 186.594704 60.716246 
L 192.958296 64.055934 
L 192.958296 64.055934 
L 199.328 67.979904 
L 199.328 67.979904 
L 205.697704 72.524709 
L 205.697704 72.524709 
L 212.061296 77.713122 
L 212.061296 77.712522 
L 218.431 83.561322 
L 218.431 83.55533 
L 224.800704 90.078899 
L 224.800704 90.057325 
L 231.164296 97.241881 
L 231.164296 97.241881 
L 237.534 105.034687 
L 237.534 105.015511 
L 243.903704 113.468105 
L 243.903704 113.406981 
L 250.267296 122.465429 
L 256.637 131.993699 
L 256.637 131.909203 
L 263.006704 141.969019 
L 263.006704 141.877332 
L 269.370296 152.478881 
L 269.370296 152.383598 
L 275.74 163.293168 
L 282.109704 174.572483 
L 282.109704 174.502369 
L 282.109704 174.340568 
L 282.109704 174.61503 
L 282.109704 174.431057 
L 288.473296 186.07652 
L 288.473296 185.990227 
L 294.843 197.959891 
L 294.843 198.078545 
L 294.843 197.801686 
L 301.212704 209.923563 
L 301.212704 209.547826 
L 301.212704 210.109335 
L 301.212704 209.858244 
L 307.576296 222.218628 
L 307.576296 222.087988 
L 307.576296 222.348068 
L 307.576296 222.195256 
L 313.946 234.320729 
L 313.946 234.866657 
L 313.946 233.778397 
L 313.946 234.593394 
L 320.315704 246.397063 
L 320.315704 247.502102 
L 320.315704 247.469143 
L 326.679296 259.676115 
L 326.679296 260.212455 
L 326.679296 259.564653 
L 326.679296 260.082415 
L 333.049 273.106781 
L 333.049 273.004308 
L 333.049 271.875297 
L 333.049 273.321917 
L 333.049 272.383472 
L 339.418704 285.608591 
L 339.418704 287.425554 
L 339.418704 284.297405 
L 339.418704 286.458345 
L 345.782296 298.437598 
L 345.782296 300.760338 
L 345.782296 297.499153 
L 352.152 310.73446 
L 352.152 311.976131 
L 352.152 306.428161 
L 358.521704 323.474776 
L 358.521704 324.86806 
L 358.521704 317.664928 
L 364.885296 333.874972 
L 364.885296 329.248668 
L 364.885296 335.415077 
L 364.885296 330.333332 
L 371.255 341.762463 
L 371.255 339.636879 
L 371.255 342.259251 
L 371.255 341.079903 
L 377.624704 349.779993 
L 377.624704 350.941363 
L 377.624704 346.928103 
L 383.988296 354.467422 
L 383.988296 351.753962 
L 383.988296 356.711659 
L 383.988296 351.819881 
L 390.358 356.961552 
L 390.358 358.115731 
L 390.358 354.910277 
L 396.727704 357.773552 
L 396.727704 359.715761 
L 396.727704 355.772016 
L 396.727704 356.612182 
L 403.091296 358.783309 
L 403.091296 360.492405 
L 403.091296 357.029868 
L 403.091296 357.481711 
L 409.461 359.358001 
L 409.461 361.166575 
L 409.461 357.769357 
L 409.461 358.146892 
L 415.830704 359.929098 
L 415.830704 361.798797 
L 415.830704 358.351241 
L 415.830704 358.761736 
L 422.194296 360.591283 
L 422.194296 362.545478 
L 422.194296 359.08294 
L 422.194296 359.564747 
L 428.564 361.607632 
L 428.564 363.645124 
L 428.564 360.282663 
L 428.564 360.774058 
L 434.933704 363.350886 
L 434.933704 365.434521 
L 434.933704 362.214685 
L 434.933704 362.732447 
L 441.297296 366.269293 
L 441.297296 368.321767 
L 441.297296 365.270323 
L 441.297296 365.837225 
L 447.667 370.793124 
L 447.667 372.727543 
L 447.667 369.871459 
L 447.667 370.495291 
L 454.036704 377.234594 
L 454.036704 378.982043 
L 454.036704 376.345289 
L 454.036704 377.025452 
L 460.400296 385.735729 
L 460.400296 387.285421 
L 460.400296 384.859008 
L 460.400296 385.58052 
L 466.77 396.215628 
L 466.77 397.536402 
L 466.77 395.356885 
L 466.77 396.089783 
L 473.139704 408.337505 
L 473.139704 409.407188 
L 473.139704 407.521909 
L 473.139704 408.228439 
L 479.503296 421.580602 
L 479.503296 422.439944 
L 479.503296 420.838715 
L 479.503296 421.484121 
L 485.873 435.298315 
L 485.873 435.987466 
L 485.873 434.656505 
L 485.873 435.215017 
L 492.242704 448.793102 
L 492.242704 449.360004 
L 492.242704 448.263354 
L 492.242704 448.718793 
L 498.606296 461.444128 
L 498.606296 461.903762 
L 498.606296 461.025244 
L 498.606296 461.375213 
L 504.976 472.98532 
L 504.976 472.580818 
L 504.976 473.122551 
L 504.976 472.444785 
L 504.976 472.696476 
L 511.345704 482.591494 
L 511.345704 482.284073 
L 511.345704 482.694567 
L 511.345704 482.189389 
L 511.345704 482.358981 
L 517.709296 490.426249 
L 517.709296 490.19853 
L 517.709296 490.498161 
L 517.709296 490.136206 
L 517.709296 490.241677 
L 524.079 496.576478 
L 524.079 496.385913 
L 530.448704 501.095515 
L 530.448704 500.949295 
L 536.812296 504.287785 
L 536.812296 504.174524 
L 543.182 506.423556 
L 543.182 506.336063 
L 549.551704 507.7683 
L 549.551704 507.701782 
L 555.915296 508.562323 
L 555.915296 508.506591 
L 562.285 509.000983 
L 562.285 508.947648 
L 575.018296 509.645789 
L 575.018296 509.569683 
L 581.388 510.191717 
L 581.388 510.115011 
L 587.757704 511.088813 
L 587.757704 510.988137 
L 587.757704 510.96057 
L 587.757704 510.99353 
L 594.121296 512.52884 
L 594.121296 512.411384 
L 600.491 514.710155 
L 600.491 514.629853 
L 606.860704 517.898829 
L 606.860704 517.840701 
L 613.224296 522.315392 
L 613.224296 522.304605 
L 619.594 528.088086 
L 619.594 528.062317 
L 625.963704 535.059903 
L 638.697 550.663494 
L 638.697 550.645516 
L 645.066704 557.67726 
L 645.066704 557.673664 
L 651.430296 563.20905 
L 657.8 567.031145 
L 664.169704 569.384447 
L 664.169704 569.384447 
L 670.533296 570.715409 
L 670.533296 570.71481 
L 676.903 571.426733 
L 676.903 571.426733 
L 683.272704 571.792283 
L 683.272704 571.791684 
L 689.636296 571.967867 
L 689.636296 571.967867 
" clip-path="url(#peec859f547)" style="fill: none; stroke: #d62728; stroke-width: 1.5; stroke-linecap: square"/>
   </g>
   <g id="line2d_17">
    <path d="M 78.34213 48.063422 
L 91.079704 48.063422 
L 91.079704 48.063422 
L 103.813 48.231216 
L 103.813 48.231216 
L 116.546296 48.633321 
L 122.916 48.961117 
L 122.916 48.961117 
L 129.285704 49.404571 
L 135.649296 49.991848 
L 142.019 50.75411 
L 148.388704 51.72851 
L 154.752296 52.952204 
L 161.122 54.468337 
L 167.491704 56.314664 
L 173.855296 58.530736 
L 180.225 61.157902 
L 186.594704 64.228522 
L 192.958296 67.776155 
L 199.328 71.828965 
L 199.328 71.823572 
L 205.697704 76.39834 
L 205.697704 76.39055 
L 212.061296 81.489673 
L 212.061296 81.488474 
L 218.431 87.154499 
L 218.431 87.129929 
L 224.800704 93.355665 
L 224.800704 93.314915 
L 231.164296 100.076991 
L 231.164296 100.036241 
L 237.534 107.334656 
L 237.534 107.286116 
L 243.903704 115.125665 
L 243.903704 115.050757 
L 250.267296 123.445223 
L 250.267296 123.310389 
L 256.637 132.165688 
L 256.637 132.04224 
L 263.006704 141.321816 
L 263.006704 141.217544 
L 269.370296 151.047843 
L 269.370296 150.865667 
L 269.370296 151.004096 
L 269.370296 150.812333 
L 275.74 160.988405 
L 275.74 160.796042 
L 288.473296 182.012923 
L 288.473296 181.805578 
L 301.212704 204.179635 
L 301.212704 204.155065 
L 301.212704 204.39417 
L 301.212704 203.997459 
L 307.576296 215.615357 
L 307.576296 215.509886 
L 307.576296 215.818506 
L 307.576296 215.448162 
L 313.946 227.274004 
L 313.946 227.202093 
L 313.946 227.445393 
L 313.946 227.087034 
L 320.315704 238.992578 
L 320.315704 239.449815 
L 320.315704 238.881714 
L 320.315704 238.913475 
L 326.679296 250.814824 
L 326.679296 251.213933 
L 326.679296 250.695571 
L 326.679296 250.85078 
L 333.049 263.2627 
L 333.049 263.576114 
L 333.049 262.912132 
L 339.418704 275.597915 
L 339.418704 275.35821 
L 339.418704 274.829061 
L 339.418704 275.371993 
L 339.418704 275.031612 
L 345.782296 287.403981 
L 345.782296 287.345253 
L 345.782296 287.679042 
L 345.782296 287.184651 
L 352.152 299.470127 
L 352.152 299.776949 
L 352.152 299.326903 
L 358.521704 311.580618 
L 358.521704 311.503313 
L 358.521704 311.801147 
L 358.521704 311.39245 
L 364.885296 323.212898 
L 364.885296 323.882873 
L 364.885296 323.22728 
L 371.255 334.239324 
L 371.255 334.779859 
L 371.255 334.310636 
L 377.624704 344.418393 
L 377.624704 345.410172 
L 377.624704 345.07099 
L 383.988296 352.246556 
L 383.988296 352.173446 
L 383.988296 353.166424 
L 390.358 357.143727 
L 390.358 358.160675 
L 396.727704 359.020018 
L 396.727704 358.909753 
L 396.727704 358.027639 
L 396.727704 358.095356 
L 403.091296 359.861382 
L 403.091296 359.83861 
L 403.091296 360.174197 
L 403.091296 359.995017 
L 409.461 360.850165 
L 409.461 360.803422 
L 409.461 360.952039 
L 409.461 360.642221 
L 409.461 360.701547 
L 415.830704 362.277008 
L 415.830704 362.507125 
L 415.830704 362.227269 
L 415.830704 362.317159 
L 422.194296 364.253375 
L 422.194296 364.512856 
L 422.194296 364.229405 
L 422.194296 364.34686 
L 428.564 367.050731 
L 428.564 367.35216 
L 428.564 367.212532 
L 434.933704 370.819492 
L 434.933704 371.159873 
L 434.933704 371.03223 
L 441.297296 375.740634 
L 441.297296 376.121764 
L 441.297296 375.990526 
L 447.667 381.984946 
L 447.667 381.959178 
L 447.667 382.383456 
L 447.667 382.230644 
L 454.036704 389.615952 
L 454.036704 389.547636 
L 454.036704 390.019855 
L 454.036704 389.82929 
L 460.400296 398.630655 
L 460.400296 398.512001 
L 460.400296 399.035157 
L 460.400296 398.791257 
L 466.77 408.94276 
L 466.77 408.764779 
L 466.77 409.337075 
L 466.77 409.026057 
L 473.139704 420.342526 
L 473.139704 420.168141 
L 473.139704 420.099825 
L 473.139704 420.721859 
L 473.139704 420.326945 
L 479.503296 432.544105 
L 479.503296 432.322978 
L 479.503296 432.237882 
L 479.503296 432.916847 
L 479.503296 432.424852 
L 485.873 445.190936 
L 485.873 445.019547 
L 485.873 444.824188 
L 485.873 445.563678 
L 485.873 444.96082 
L 492.242704 457.791624 
L 492.242704 457.62443 
L 492.242704 457.396111 
L 492.242704 458.141593 
L 492.242704 457.465026 
L 498.606296 469.579113 
L 498.606296 469.433493 
L 498.606296 469.202777 
L 498.606296 469.891329 
L 498.606296 469.217758 
L 504.976 479.973917 
L 504.976 479.855862 
L 504.976 480.234596 
L 504.976 479.626944 
L 511.345704 488.614679 
L 511.345704 488.525389 
L 511.345704 488.817829 
L 511.345704 488.31385 
L 517.709296 495.408516 
L 517.709296 495.344395 
L 517.709296 495.557133 
L 517.709296 495.168212 
L 524.079 500.468087 
L 524.079 500.323665 
L 524.079 500.570561 
L 524.079 500.289507 
L 530.448704 504.103212 
L 530.448704 503.912048 
L 536.812296 506.466103 
L 536.812296 506.342655 
L 543.182 507.967855 
L 543.182 507.892348 
L 549.551704 508.887722 
L 549.551704 508.842778 
L 555.915296 509.45822 
L 555.915296 509.432452 
L 575.018296 510.833527 
L 575.018296 510.833527 
L 575.018296 510.836523 
L 575.018296 510.831729 
L 581.388 511.728825 
L 581.388 511.728225 
L 587.757704 513.183833 
L 587.757704 513.179039 
L 594.121296 515.492192 
L 594.121296 515.480806 
L 600.491 519.013457 
L 600.491 518.988288 
L 606.860704 524.149734 
L 606.860704 524.141344 
L 613.224296 531.149117 
L 613.224296 531.148518 
L 619.594 539.843214 
L 619.594 539.843214 
L 625.963704 549.309161 
L 632.327296 557.999063 
L 638.697 564.513644 
L 645.066704 568.482558 
L 651.430296 570.516454 
L 657.8 571.442913 
L 657.8 571.442913 
L 664.169704 571.850412 
L 664.169704 571.850412 
L 676.903 572.102102 
L 676.903 572.102102 
L 689.636296 572.149444 
L 689.636296 572.149444 
" clip-path="url(#peec859f547)" style="fill: none; stroke: #9467bd; stroke-width: 1.5; stroke-linecap: square"/>
   </g>
   <g id="patch_3">
    <path d="M 84.71 647.08 
L 84.71 21.6 
" style="fill: none; stroke: #000000; stroke-width: 0.8; stroke-linejoin: miter; stroke-linecap: square"/>
   </g>
   <g id="patch_4">
    <path d="M 696.006 647.08 
L 696.006 21.6 
" style="fill: none; stroke: #000000; stroke-width: 0.8; stroke-linejoin: miter; stroke-linecap: square"/>
   </g>
   <g id="patch_5">
    <path d="M 84.71 647.08 
L 696.006 647.08 
" style="fill: none; stroke: #000000; stroke-width: 0.8; stroke-linejoin: miter; stroke-linecap: square"/>
   </g>
   <g id="patch_6">
    <path d="M 84.71 21.6 
L 696.006 21.6 
" style="fill: none; stroke: #000000; stroke-width: 0.8; stroke-linejoin: miter; stroke-linecap: square"/>
   </g>
  </g>
  <g id="axes_2">
   <g id="patch_7">
    <path d="M 797.942 647.08 
L 1409.238 647.08 
L 1409.238 21.6 
L 797.942 21.6 
z
" style="fill: #ffffff"/>
   </g>
   <g id="matplotlib.axis_3">
    <g id="xtick_7">
     <g id="line2d_18">
      <g>
       <use xlink:href="#m2adf32c4bf" x="797.942" y="647.08" style="stroke: #000000; stroke-width: 0.8"/>
      </g>
     </g>
     <g id="text_15">
      <!-- 1.0 -->
      <g transform="translate(782.038875 669.276875) scale(0.2 -0.2)">
       <use xlink:href="#DejaVuSans-31"/>
       <use xlink:href="#DejaVuSans-2e" x="63.623047"/>
       <use xlink:href="#DejaVuSans-30" x="95.410156"/>
      </g>
     </g>
    </g>
    <g id="xtick_8">
     <g id="line2d_19">
      <g>
       <use xlink:href="#m2adf32c4bf" x="920.2012" y="647.08" style="stroke: #000000; stroke-width: 0.8"/>
      </g>
     </g>
     <g id="text_16">
      <!-- 1.2 -->
      <g transform="translate(904.298075 669.276875) scale(0.2 -0.2)">
       <use xlink:href="#DejaVuSans-31"/>
       <use xlink:href="#DejaVuSans-2e" x="63.623047"/>
       <use xlink:href="#DejaVuSans-32" x="95.410156"/>
      </g>
     </g>
    </g>
    <g id="xtick_9">
     <g id="line2d_20">
      <g>
       <use xlink:href="#m2adf32c4bf" x="1042.4604" y="647.08" style="stroke: #000000; stroke-width: 0.8"/>
      </g>
     </g>
     <g id="text_17">
      <!-- 1.4 -->
      <g transform="translate(1026.557275 669.276875) scale(0.2 -0.2)">
       <use xlink:href="#DejaVuSans-31"/>
       <use xlink:href="#DejaVuSans-2e" x="63.623047"/>
       <use xlink:href="#DejaVuSans-34" x="95.410156"/>
      </g>
     </g>
    </g>
    <g id="xtick_10">
     <g id="line2d_21">
      <g>
       <use xlink:href="#m2adf32c4bf" x="1164.7196" y="647.08" style="stroke: #000000; stroke-width: 0.8"/>
      </g>
     </g>
     <g id="text_18">
      <!-- 1.6 -->
      <g transform="translate(1148.816475 669.276875) scale(0.2 -0.2)">
       <use xlink:href="#DejaVuSans-31"/>
       <use xlink:href="#DejaVuSans-2e" x="63.623047"/>
       <use xlink:href="#DejaVuSans-36" x="95.410156"/>
      </g>
     </g>
    </g>
    <g id="xtick_11">
     <g id="line2d_22">
      <g>
       <use xlink:href="#m2adf32c4bf" x="1286.9788" y="647.08" style="stroke: #000000; stroke-width: 0.8"/>
      </g>
     </g>
     <g id="text_19">
      <!-- 1.8 -->
      <g transform="translate(1271.075675 669.276875) scale(0.2 -0.2)">
       <use xlink:href="#DejaVuSans-31"/>
       <use xlink:href="#DejaVuSans-2e" x="63.623047"/>
       <use xlink:href="#DejaVuSans-38" x="95.410156"/>
      </g>
     </g>
    </g>
    <g id="xtick_12">
     <g id="line2d_23">
      <g>
       <use xlink:href="#m2adf32c4bf" x="1409.238" y="647.08" style="stroke: #000000; stroke-width: 0.8"/>
      </g>
     </g>
     <g id="text_20">
      <!-- 2.0 -->
      <g transform="translate(1393.334875 669.276875) scale(0.2 -0.2)">
       <use xlink:href="#DejaVuSans-32"/>
       <use xlink:href="#DejaVuSans-2e" x="63.623047"/>
       <use xlink:href="#DejaVuSans-30" x="95.410156"/>
      </g>
     </g>
    </g>
    <g id="text_21">
     <!-- Position $x$ -->
     <g transform="translate(1055.19 692.633125) scale(0.2 -0.2)">
      <use xlink:href="#DejaVuSans-50" transform="translate(0 0.015625)"/>
      <use xlink:href="#DejaVuSans-6f" transform="translate(60.302734 0.015625)"/>
      <use xlink:href="#DejaVuSans-73" transform="translate(121.484375 0.015625)"/>
      <use xlink:href="#DejaVuSans-69" transform="translate(173.583984 0.015625)"/>
      <use xlink:href="#DejaVuSans-74" transform="translate(201.367188 0.015625)"/>
      <use xlink:href="#DejaVuSans-69" transform="translate(240.576172 0.015625)"/>
      <use xlink:href="#DejaVuSans-6f" transform="translate(268.359375 0.015625)"/>
      <use xlink:href="#DejaVuSans-6e" transform="translate(329.541016 0.015625)"/>
      <use xlink:href="#DejaVuSans-20" transform="translate(392.919922 0.015625)"/>
      <use xlink:href="#DejaVuSans-Oblique-78" transform="translate(424.707031 0.015625)"/>
     </g>
    </g>
   </g>
   <g id="matplotlib.axis_4">
    <g id="ytick_7">
     <g id="line2d_24">
      <g>
       <use xlink:href="#m6a26200c6d" x="797.942" y="647.08" style="stroke: #000000; stroke-width: 0.8"/>
      </g>
     </g>
     <g id="text_22">
      <!-- 0.0 -->
      <g transform="translate(759.13575 654.678437) scale(0.2 -0.2)">
       <use xlink:href="#DejaVuSans-30"/>
       <use xlink:href="#DejaVuSans-2e" x="63.623047"/>
       <use xlink:href="#DejaVuSans-30" x="95.410156"/>
      </g>
     </g>
    </g>
    <g id="ytick_8">
     <g id="line2d_25">
      <g>
       <use xlink:href="#m6a26200c6d" x="797.942" y="512.969753" style="stroke: #000000; stroke-width: 0.8"/>
      </g>
     </g>
     <g id="text_23">
      <!-- 0.2 -->
      <g transform="translate(759.13575 520.56819) scale(0.2 -0.2)">
       <use xlink:href="#DejaVuSans-30"/>
       <use xlink:href="#DejaVuSans-2e" x="63.623047"/>
       <use xlink:href="#DejaVuSans-32" x="95.410156"/>
      </g>
     </g>
    </g>
    <g id="ytick_9">
     <g id="line2d_26">
      <g>
       <use xlink:href="#m6a26200c6d" x="797.942" y="378.859506" style="stroke: #000000; stroke-width: 0.8"/>
      </g>
     </g>
     <g id="text_24">
      <!-- 0.4 -->
      <g transform="translate(759.13575 386.457943) scale(0.2 -0.2)">
       <use xlink:href="#DejaVuSans-30"/>
       <use xlink:href="#DejaVuSans-2e" x="63.623047"/>
       <use xlink:href="#DejaVuSans-34" x="95.410156"/>
      </g>
     </g>
    </g>
    <g id="ytick_10">
     <g id="line2d_27">
      <g>
       <use xlink:href="#m6a26200c6d" x="797.942" y="244.749259" style="stroke: #000000; stroke-width: 0.8"/>
      </g>
     </g>
     <g id="text_25">
      <!-- 0.6 -->
      <g transform="translate(759.13575 252.347696) scale(0.2 -0.2)">
       <use xlink:href="#DejaVuSans-30"/>
       <use xlink:href="#DejaVuSans-2e" x="63.623047"/>
       <use xlink:href="#DejaVuSans-36" x="95.410156"/>
      </g>
     </g>
    </g>
    <g id="ytick_11">
     <g id="line2d_28">
      <g>
       <use xlink:href="#m6a26200c6d" x="797.942" y="110.639012" style="stroke: #000000; stroke-width: 0.8"/>
      </g>
     </g>
     <g id="text_26">
      <!-- 0.8 -->
      <g transform="translate(759.13575 118.237449) scale(0.2 -0.2)">
       <use xlink:href="#DejaVuSans-30"/>
       <use xlink:href="#DejaVuSans-2e" x="63.623047"/>
       <use xlink:href="#DejaVuSans-38" x="95.410156"/>
      </g>
     </g>
    </g>
    <g id="text_27">
     <!-- $U_x$ -->
     <g transform="translate(750.976375 346.14) rotate(-90) scale(0.2 -0.2)">
      <defs>
       <path id="DejaVuSans-Oblique-55" d="M 991 4666 
L 1625 4666 
L 1075 1831 
Q 1041 1641 1027 1517 
Q 1013 1394 1013 1300 
Q 1013 869 1253 645 
Q 1494 422 1959 422 
Q 2563 422 2898 753 
Q 3234 1084 3378 1831 
L 3928 4666 
L 4563 4666 
L 4000 1753 
Q 3816 809 3300 359 
Q 2784 -91 1888 -91 
Q 1188 -91 780 261 
Q 372 613 372 1216 
Q 372 1325 387 1461 
Q 403 1597 434 1753 
L 991 4666 
z
" transform="scale(0.015625)"/>
      </defs>
      <use xlink:href="#DejaVuSans-Oblique-55" transform="translate(0 0.09375)"/>
      <use xlink:href="#DejaVuSans-Oblique-78" transform="translate(73.193359 -16.3125) scale(0.7)"/>
     </g>
    </g>
   </g>
   <g id="line2d_29">
    <path d="M 791.57413 647.08 
L 944.396296 647.08 
L 944.396296 647.08 
L 950.766 626.26224 
L 950.766 626.26224 
L 1078.117296 102.570051 
L 1078.117296 102.570051 
L 1084.487 83.015753 
L 1084.487 83.015753 
L 1326.456296 83.015753 
L 1326.456296 83.015753 
L 1332.826 647.08 
L 1332.826 647.08 
L 1402.868296 647.08 
L 1402.868296 647.08 
" clip-path="url(#pc72582f876)" style="fill: none; stroke: #1f77b4; stroke-width: 1.5; stroke-linecap: square"/>
   </g>
   <g id="line2d_30">
    <path d="M 791.57413 647.085764 
L 829.778296 646.991534 
L 829.778296 646.991534 
L 842.517704 646.817855 
L 842.517704 646.817855 
L 855.251 646.370999 
L 855.251 646.370999 
L 861.620704 645.953112 
L 867.984296 645.33086 
L 867.984296 645.33086 
L 874.354 644.427601 
L 874.354 644.427601 
L 880.723704 643.149658 
L 880.723704 643.149658 
L 887.087296 641.391714 
L 887.087296 641.391714 
L 893.457 639.033452 
L 893.457 639.033452 
L 899.826704 635.946972 
L 899.826704 635.946972 
L 906.190296 632.012848 
L 906.190296 632.012848 
L 912.56 627.110381 
L 912.56 627.110381 
L 918.929704 621.131411 
L 918.929704 621.131411 
L 925.293296 614.003518 
L 931.663 605.660385 
L 931.663 605.660385 
L 938.032704 596.058762 
L 938.032704 596.058762 
L 944.396296 585.205555 
L 944.396296 585.205555 
L 950.766 573.101435 
L 950.766 573.101435 
L 957.135704 559.764841 
L 957.135704 559.764841 
L 963.499296 545.265512 
L 963.499296 545.265512 
L 969.869 529.642339 
L 969.869 529.642339 
L 976.238704 512.946284 
L 976.238704 512.946284 
L 982.602296 495.270553 
L 982.602296 495.270553 
L 988.972 476.665438 
L 988.972 476.665438 
L 995.341704 457.182572 
L 995.341704 457.182572 
L 1001.705296 436.917843 
L 1001.705296 436.917843 
L 1008.075 415.912155 
L 1008.075 415.912826 
L 1014.444704 394.209765 
L 1014.444704 394.209765 
L 1020.808296 371.897172 
L 1020.808296 371.897172 
L 1027.178 349.006565 
L 1027.178 349.007235 
L 1033.547704 325.573481 
L 1033.547704 325.574152 
L 1046.281 277.370235 
L 1046.281 277.370906 
L 1059.014296 227.743409 
L 1059.014296 227.744079 
L 1071.753704 177.593553 
L 1071.753704 177.594894 
L 1078.117296 152.960853 
L 1078.117296 152.962865 
L 1084.487 129.416458 
L 1084.487 129.41914 
L 1090.856704 108.27666 
L 1090.856704 108.279342 
L 1097.220296 91.929291 
L 1097.220296 91.932644 
L 1103.59 83.028394 
L 1103.59 83.032417 
L 1109.959704 80.910123 
L 1109.959704 80.915487 
L 1116.323296 80.928228 
L 1116.323296 80.928228 
L 1129.062704 81.179014 
L 1129.062704 81.179014 
L 1154.529296 81.291666 
L 1154.529296 81.291666 
L 1211.838296 81.191754 
L 1211.838296 81.19913 
L 1243.680704 81.112629 
L 1243.680704 81.145486 
L 1256.414 81.362074 
L 1256.414 81.360733 
L 1256.414 81.368109 
L 1262.783704 81.693997 
L 1269.147296 82.322304 
L 1275.517 83.480346 
L 1281.886704 85.539608 
L 1288.250296 89.108953 
L 1294.62 95.150619 
L 1300.989704 105.121716 
L 1307.353296 121.236403 
L 1313.723 146.638896 
L 1320.092704 185.237837 
L 1326.456296 241.124929 
L 1332.826 316.185764 
L 1345.559296 494.205718 
L 1351.929 564.310508 
L 1358.298704 607.674386 
L 1364.662296 629.789166 
L 1371.032 639.818064 
L 1377.401704 644.095933 
L 1383.765296 645.869917 
L 1390.135 646.595374 
L 1396.504704 646.890636 
L 1402.868296 647.015018 
L 1402.868296 647.015018 
" clip-path="url(#pc72582f876)" style="fill: none; stroke: #ff7f0e; stroke-width: 1.5; stroke-linecap: square"/>
   </g>
   <g id="line2d_31">
    <path d="M 791.57413 647.200269 
L 817.045 646.648398 
L 817.045 646.648581 
L 829.778296 646.105783 
L 829.778296 646.10585 
L 836.148 645.683054 
L 836.148 645.683101 
L 842.517704 645.114742 
L 842.517704 645.114782 
L 848.881296 644.362075 
L 848.881296 644.362122 
L 855.251 643.378537 
L 855.251 643.378597 
L 861.620704 642.111765 
L 861.620704 642.111839 
L 867.984296 640.508437 
L 867.984296 640.508544 
L 874.354 638.507002 
L 874.354 638.507137 
L 880.723704 636.043062 
L 880.723704 636.043196 
L 887.087296 633.058573 
L 887.087296 633.058774 
L 893.457 629.487619 
L 893.457 629.48782 
L 899.826704 625.266231 
L 899.826704 625.266499 
L 906.190296 620.34653 
L 906.190296 620.346799 
L 912.56 614.671119 
L 912.56 614.671454 
L 918.929704 608.188632 
L 918.929704 608.189034 
L 925.293296 600.87332 
L 925.293296 600.873723 
L 931.663 592.683945 
L 931.663 592.684481 
L 938.032704 583.588186 
L 938.032704 583.588789 
L 944.396296 573.586243 
L 944.396296 573.586914 
L 950.766 562.654247 
L 950.766 562.654917 
L 957.135704 550.778114 
L 957.135704 550.779455 
L 963.499296 537.982655 
L 963.499296 537.983996 
L 969.869 524.256471 
L 969.869 524.257812 
L 976.238704 509.600233 
L 976.238704 509.602245 
L 982.602296 494.056855 
L 982.602296 494.058867 
L 988.972 477.622986 
L 988.972 477.624997 
L 995.341704 460.308682 
L 995.341704 460.310694 
L 1001.705296 442.169601 
L 1001.705296 442.172283 
L 1008.075 423.205071 
L 1008.075 423.207753 
L 1014.444704 403.432526 
L 1014.444704 403.435209 
L 1020.808296 382.917011 
L 1020.808296 382.919694 
L 1027.178 361.659196 
L 1027.178 361.661878 
L 1033.547704 339.687244 
L 1033.547704 339.690597 
L 1039.911296 317.082962 
L 1039.911296 317.086314 
L 1046.281 293.860431 
L 1046.281 293.863784 
L 1052.650704 270.086708 
L 1052.650704 270.09006 
L 1065.384 221.418099 
L 1065.384 221.422122 
L 1078.117296 172.831298 
L 1078.117296 172.835321 
L 1084.487 149.944713 
L 1084.487 149.948737 
L 1090.856704 129.559956 
L 1090.856704 129.563979 
L 1097.220296 113.504948 
L 1097.220296 113.50763 
L 1103.59 103.053736 
L 1103.59 103.057089 
L 1109.959704 97.362768 
L 1109.959704 97.366121 
L 1116.323296 94.124676 
L 1116.323296 94.128029 
L 1122.693 92.248473 
L 1122.693 92.251826 
L 1129.062704 90.997225 
L 1129.062704 91.000578 
L 1135.426296 90.033643 
L 1135.426296 90.036996 
L 1141.796 89.299389 
L 1141.796 89.302742 
L 1154.529296 88.162805 
L 1154.529296 88.168169 
L 1154.529296 88.167499 
L 1167.268704 87.340038 
L 1167.268704 87.344062 
L 1180.002 86.726484 
L 1180.002 86.730507 
L 1192.735296 86.292637 
L 1192.735296 86.296661 
L 1205.474704 86.061968 
L 1205.474704 86.066662 
L 1218.208 86.128352 
L 1218.208 86.132376 
L 1224.577704 86.342929 
L 1224.577704 86.3322 
L 1230.941296 86.710391 
L 1230.941296 86.694298 
L 1237.311 87.297123 
L 1237.311 87.274324 
L 1243.680704 88.176216 
L 1243.680704 88.148053 
L 1250.044296 89.447581 
L 1250.044296 89.416065 
L 1256.414 91.239294 
L 1256.414 91.207778 
L 1262.783704 93.710946 
L 1262.783704 93.682112 
L 1269.147296 97.069737 
L 1269.147296 97.047609 
L 1275.517 101.575171 
L 1275.517 101.56176 
L 1281.886704 107.539053 
L 1281.886704 107.534359 
L 1288.250296 115.359692 
L 1288.250296 115.352316 
L 1294.62 125.509826 
L 1294.62 125.505803 
L 1300.989704 138.537296 
L 1307.353296 155.101923 
L 1313.723 175.957408 
L 1320.092704 201.872201 
L 1320.092704 201.866166 
L 1326.456296 233.663706 
L 1326.456296 233.648954 
L 1332.826 271.993755 
L 1332.826 271.978333 
L 1339.195704 316.979026 
L 1339.195704 316.965615 
L 1345.559296 367.997917 
L 1345.559296 367.987188 
L 1358.298704 478.30896 
L 1358.298704 478.302925 
L 1364.662296 528.753858 
L 1364.662296 528.749165 
L 1371.032 569.990748 
L 1371.032 569.988736 
L 1377.401704 599.993758 
L 1377.401704 599.992484 
L 1383.765296 619.792186 
L 1383.765296 619.791582 
L 1390.135 632.000577 
L 1390.135 632.000376 
L 1396.504704 639.290206 
L 1396.504704 639.290072 
L 1402.868296 643.799435 
L 1402.868296 643.799348 
" clip-path="url(#pc72582f876)" style="fill: none; stroke: #2ca02c; stroke-width: 1.5; stroke-linecap: square"/>
   </g>
   <g id="line2d_32">
    <path d="M 791.57413 647.142597 
L 823.414704 646.76312 
L 823.414704 646.76312 
L 836.148 646.354417 
L 836.148 646.354417 
L 842.517704 646.009043 
L 842.517704 646.009043 
L 848.881296 645.524636 
L 848.881296 645.524636 
L 855.251 644.856526 
L 855.251 644.856526 
L 861.620704 643.950497 
L 867.984296 642.745108 
L 867.984296 642.745108 
L 874.354 641.168253 
L 874.354 641.168253 
L 880.723704 639.139668 
L 880.723704 639.139668 
L 887.087296 636.578631 
L 887.087296 636.578631 
L 893.457 633.396396 
L 893.457 633.396396 
L 899.826704 629.503444 
L 899.826704 629.503444 
L 906.190296 624.823667 
L 906.190296 624.823667 
L 912.56 619.276666 
L 912.56 619.276666 
L 918.929704 612.79029 
L 918.929704 612.79029 
L 925.293296 605.320483 
L 925.293296 605.321154 
L 931.663 596.81729 
L 931.663 596.824934 
L 938.032704 587.221299 
L 938.032704 587.245506 
L 944.396296 576.535998 
L 950.766 564.757766 
L 950.766 565.074266 
L 957.135704 551.883182 
L 957.135704 552.419623 
L 957.135704 551.970354 
L 963.499296 538.655889 
L 963.499296 537.990702 
L 963.499296 538.710203 
L 963.499296 538.040993 
L 969.869 523.069596 
L 969.869 524.005685 
L 969.869 523.024669 
L 969.869 523.921866 
L 976.238704 507.011905 
L 976.238704 508.355019 
L 976.238704 507.117852 
L 982.602296 491.467186 
L 982.602296 490.156929 
L 982.602296 491.662987 
L 982.602296 491.022611 
L 988.972 472.627379 
L 988.972 472.217002 
L 988.972 474.033525 
L 988.972 472.440295 
L 995.341704 453.437544 
L 995.341704 455.278207 
L 995.341704 455.007304 
L 1001.705296 435.958285 
L 1001.705296 433.730713 
L 1001.705296 434.457591 
L 1008.075 414.539537 
L 1008.075 415.334811 
L 1008.075 413.432457 
L 1008.075 415.079331 
L 1014.444704 393.319273 
L 1014.444704 393.684723 
L 1014.444704 393.76653 
L 1014.444704 392.37983 
L 1020.808296 370.607032 
L 1020.808296 373.07399 
L 1020.808296 370.473592 
L 1020.808296 370.835019 
L 1027.178 349.561111 
L 1027.178 347.945082 
L 1027.178 349.677116 
L 1027.178 348.643797 
L 1033.547704 325.009548 
L 1033.547704 325.026982 
L 1033.547704 326.945429 
L 1033.547704 323.629553 
L 1033.547704 324.971997 
L 1039.911296 301.53489 
L 1039.911296 303.086546 
L 1039.911296 298.131172 
L 1039.911296 299.790116 
L 1046.281 276.436157 
L 1046.281 276.803619 
L 1046.281 279.363114 
L 1046.281 272.293492 
L 1052.650704 246.882953 
L 1052.650704 253.949892 
L 1052.650704 245.618964 
L 1059.014296 226.396942 
L 1059.014296 234.748658 
L 1059.014296 213.527723 
L 1065.384 198.725304 
L 1065.384 186.851183 
L 1065.384 212.057204 
L 1065.384 189.79155 
L 1071.753704 175.33983 
L 1071.753704 165.678528 
L 1071.753704 183.46557 
L 1071.753704 173.44217 
L 1078.117296 146.798487 
L 1078.117296 147.220264 
L 1078.117296 153.779596 
L 1078.117296 150.535469 
L 1084.487 129.578061 
L 1084.487 136.960159 
L 1084.487 120.10116 
L 1090.856704 107.939372 
L 1090.856704 119.601599 
L 1090.856704 103.292452 
L 1097.220296 94.966218 
L 1097.220296 105.396642 
L 1097.220296 95.030591 
L 1103.59 87.456714 
L 1103.59 99.815644 
L 1103.59 90.23749 
L 1109.959704 85.384041 
L 1109.959704 96.114872 
L 1109.959704 87.187823 
L 1116.323296 83.711686 
L 1116.323296 94.205142 
L 1116.323296 85.871531 
L 1122.693 83.180609 
L 1122.693 93.195292 
L 1122.693 85.019261 
L 1129.062704 82.752127 
L 1129.062704 92.630688 
L 1129.062704 84.538475 
L 1135.426296 82.467143 
L 1135.426296 92.209582 
L 1135.426296 84.21527 
L 1141.796 82.321633 
L 1141.796 91.758301 
L 1141.796 84.051655 
L 1148.165704 82.320962 
L 1148.165704 91.255387 
L 1148.165704 83.981247 
L 1154.529296 82.442332 
L 1154.529296 90.735039 
L 1154.529296 82.438309 
L 1154.529296 83.973201 
L 1160.899 82.642827 
L 1160.899 90.262301 
L 1160.899 82.194228 
L 1160.899 84.02081 
L 1167.268704 82.873497 
L 1167.268704 89.952506 
L 1167.268704 82.063471 
L 1167.268704 84.09457 
L 1173.632296 83.100814 
L 1173.632296 89.611866 
L 1173.632296 82.037319 
L 1173.632296 84.177048 
L 1180.002 83.308014 
L 1180.002 89.241051 
L 1180.002 82.105716 
L 1180.002 84.259526 
L 1186.371704 83.490404 
L 1186.371704 88.846767 
L 1186.371704 82.255248 
L 1186.371704 84.333957 
L 1192.735296 83.658712 
L 1192.735296 88.435049 
L 1192.735296 82.466472 
L 1192.735296 84.395648 
L 1199.105 83.816962 
L 1199.105 88.015954 
L 1199.105 82.718599 
L 1199.105 84.445939 
L 1205.474704 83.967836 
L 1205.474704 87.606918 
L 1205.474704 82.990173 
L 1205.474704 84.49556 
L 1211.838296 84.102617 
L 1211.838296 87.212634 
L 1211.838296 83.273145 
L 1211.838296 84.554569 
L 1218.208 84.210576 
L 1218.208 86.844501 
L 1218.208 83.562153 
L 1218.208 84.620953 
L 1224.577704 84.307135 
L 1224.577704 86.501849 
L 1224.577704 83.798187 
L 1224.577704 84.684656 
L 1230.941296 84.413082 
L 1230.941296 86.188702 
L 1230.941296 84.011422 
L 1230.941296 84.739641 
L 1237.311 84.542499 
L 1237.311 85.946633 
L 1237.311 84.243433 
L 1237.311 84.802673 
L 1243.680704 84.700078 
L 1243.680704 85.803135 
L 1243.680704 84.492878 
L 1243.680704 84.910631 
L 1250.044296 84.89655 
L 1250.044296 85.740103 
L 1250.044296 84.767804 
L 1250.044296 85.104421 
L 1256.414 85.162759 
L 1256.414 85.822581 
L 1256.414 85.105091 
L 1256.414 85.408851 
L 1262.783704 85.534915 
L 1262.783704 86.063309 
L 1262.783704 85.834651 
L 1269.147296 86.094825 
L 1269.147296 86.487768 
L 1269.147296 86.080073 
L 1269.147296 86.38115 
L 1275.517 87.088582 
L 1275.517 86.994034 
L 1275.517 87.393683 
L 1275.517 87.215986 
L 1281.886704 88.775689 
L 1281.886704 88.491375 
L 1281.886704 88.893706 
L 1281.886704 88.685164 
L 1288.250296 91.25941 
L 1288.250296 91.691916 
L 1288.250296 90.961686 
L 1288.250296 91.400897 
L 1294.62 95.703824 
L 1294.62 96.158458 
L 1294.62 95.354467 
L 1294.62 95.766185 
L 1300.989704 102.914261 
L 1300.989704 103.246855 
L 1300.989704 102.567586 
L 1300.989704 103.087934 
L 1307.353296 114.197627 
L 1307.353296 114.118502 
L 1307.353296 113.722877 
L 1307.353296 114.378005 
L 1313.723 131.47505 
L 1313.723 131.103565 
L 1320.092704 156.660284 
L 1320.092704 156.129207 
L 1320.092704 156.079587 
L 1326.456296 192.542151 
L 1326.456296 191.4458 
L 1326.456296 191.597345 
L 1332.826 240.316245 
L 1339.195704 301.531537 
L 1345.559296 373.186642 
L 1345.559296 373.06192 
L 1351.929 447.8371 
L 1351.929 447.75194 
L 1358.298704 515.316012 
L 1358.298704 515.254992 
L 1364.662296 567.441983 
L 1371.032 602.236149 
L 1377.401704 623.010966 
L 1377.401704 623.009021 
L 1383.765296 634.5708 
L 1383.765296 634.568184 
L 1390.135 640.725669 
L 1390.135 640.724066 
L 1396.504704 643.926196 
L 1396.504704 643.925338 
L 1402.868296 645.688418 
L 1402.868296 645.687976 
" clip-path="url(#pc72582f876)" style="fill: none; stroke: #d62728; stroke-width: 1.5; stroke-linecap: square"/>
   </g>
   <g id="line2d_33">
    <path d="M 791.57413 647.2008 
L 817.045 646.642697 
L 829.778296 646.092955 
L 836.148 645.664748 
L 842.517704 645.089147 
L 848.881296 644.326992 
L 855.251 643.331256 
L 861.620704 642.048908 
L 867.984296 640.426925 
L 874.354 638.401927 
L 880.723704 635.903118 
L 880.723704 635.91492 
L 887.087296 632.894489 
L 887.087296 632.89925 
L 893.457 629.287258 
L 893.457 629.292287 
L 899.826704 625.029325 
L 899.826704 625.034756 
L 906.190296 620.039016 
L 906.190296 620.064966 
L 912.56 614.29608 
L 912.56 614.351467 
L 918.929704 607.936303 
L 918.929704 607.696783 
L 918.929704 607.938516 
L 918.929704 607.82298 
L 925.293296 600.441888 
L 925.293296 600.750207 
L 925.293296 600.307978 
L 925.293296 600.456774 
L 931.663 592.4058 
L 931.663 591.96042 
L 931.663 592.514296 
L 931.663 592.216638 
L 938.032704 582.898859 
L 938.032704 583.427119 
L 938.032704 582.735446 
L 938.032704 583.0728 
L 944.396296 572.651495 
L 944.396296 573.195312 
L 944.396296 573.02231 
L 950.766 562.485938 
L 950.766 561.561919 
L 950.766 562.042704 
L 957.135704 550.344267 
L 957.135704 549.60599 
L 957.135704 550.79823 
L 957.135704 550.101528 
L 969.869 523.868893 
L 969.869 522.542542 
L 969.869 524.080116 
L 969.869 523.487349 
L 976.238704 508.149831 
L 976.238704 509.386998 
L 976.238704 508.78149 
L 982.602296 491.707244 
L 982.602296 493.661901 
L 982.602296 493.169045 
L 988.972 477.485523 
L 988.972 474.558567 
L 988.972 478.113829 
L 988.972 476.659404 
L 995.341704 459.335042 
L 995.341704 460.847805 
L 995.341704 457.863852 
L 995.341704 459.277374 
L 1001.705296 441.479604 
L 1001.705296 440.206227 
L 1001.705296 441.711614 
L 1001.705296 441.06185 
L 1008.075 422.175775 
L 1008.075 421.151172 
L 1008.075 423.064925 
L 1008.075 421.961869 
L 1014.444704 402.327458 
L 1014.444704 401.286762 
L 1014.444704 402.768681 
L 1014.444704 402.02571 
L 1020.808296 382.060047 
L 1020.808296 379.91026 
L 1020.808296 382.527421 
L 1020.808296 381.359991 
L 1027.178 360.425382 
L 1027.178 359.120489 
L 1027.178 361.052347 
L 1027.178 359.898329 
L 1033.547704 338.394421 
L 1033.547704 334.820383 
L 1033.547704 337.650109 
L 1039.911296 315.393173 
L 1039.911296 312.366304 
L 1039.911296 315.684192 
L 1039.911296 314.688423 
L 1046.281 289.635288 
L 1046.281 291.315689 
L 1046.281 288.753513 
L 1046.281 290.998519 
L 1052.650704 264.965708 
L 1052.650704 267.929544 
L 1052.650704 266.64678 
L 1059.014296 240.73601 
L 1059.014296 242.03822 
L 1059.014296 239.772427 
L 1059.014296 241.66137 
L 1065.384 215.30066 
L 1065.384 216.45669 
L 1065.384 214.331043 
L 1065.384 216.091911 
L 1071.753704 189.513942 
L 1071.753704 190.669972 
L 1071.753704 189.429452 
L 1071.753704 190.032949 
L 1078.117296 163.688332 
L 1078.117296 164.757861 
L 1078.117296 161.869797 
L 1078.117296 163.880109 
L 1084.487 138.614409 
L 1084.487 139.877728 
L 1084.487 137.474472 
L 1084.487 139.775133 
L 1090.856704 114.721328 
L 1090.856704 115.389197 
L 1090.856704 112.451512 
L 1090.856704 114.640861 
L 1097.220296 96.350235 
L 1097.220296 94.60412 
L 1097.220296 95.162689 
L 1103.59 85.062176 
L 1103.59 85.798441 
L 1103.59 83.087403 
L 1103.59 83.287897 
L 1109.959704 81.083125 
L 1109.959704 84.539146 
L 1116.323296 80.685488 
L 1116.323296 81.164932 
L 1116.323296 79.925753 
L 1116.323296 81.153533 
L 1122.693 80.277793 
L 1122.693 81.879069 
L 1129.062704 80.33479 
L 1129.062704 79.942517 
L 1129.062704 81.461986 
L 1135.426296 80.265052 
L 1135.426296 79.90966 
L 1135.426296 81.512948 
L 1141.796 80.118202 
L 1141.796 79.759457 
L 1141.796 81.482103 
L 1141.796 81.413036 
L 1148.165704 80.086015 
L 1148.165704 79.61797 
L 1148.165704 81.46601 
L 1148.165704 81.310442 
L 1154.529296 80.120884 
L 1154.529296 79.469108 
L 1154.529296 81.433823 
L 1154.529296 81.171638 
L 1160.899 80.073275 
L 1160.899 79.307505 
L 1160.899 81.382191 
L 1160.899 80.990589 
L 1167.268704 80.035053 
L 1167.268704 79.147914 
L 1167.268704 81.3205 
L 1167.268704 80.765954 
L 1173.632296 80.014266 
L 1173.632296 78.992346 
L 1173.632296 81.250092 
L 1173.632296 80.494381 
L 1180.002 80.008231 
L 1180.002 78.848178 
L 1180.002 81.177002 
L 1180.002 80.21409 
L 1186.371704 80.027677 
L 1186.371704 78.726137 
L 1186.371704 81.072396 
L 1186.371704 79.927765 
L 1192.735296 80.075286 
L 1192.735296 78.637625 
L 1192.735296 81.003329 
L 1192.735296 79.621323 
L 1199.105 80.141671 
L 1199.105 78.597391 
L 1199.105 80.861843 
L 1199.105 79.330304 
L 1205.474704 80.18928 
L 1205.474704 78.641648 
L 1205.474704 80.851785 
L 1205.474704 79.098293 
L 1211.838296 80.21342 
L 1211.838296 78.72949 
L 1211.838296 80.927557 
L 1211.838296 78.96083 
L 1218.208 80.218114 
L 1218.208 78.834096 
L 1218.208 80.926216 
L 1218.208 78.915233 
L 1224.577704 80.207385 
L 1224.577704 80.87056 
L 1224.577704 78.944066 
L 1230.941296 80.191962 
L 1230.941296 80.786071 
L 1230.941296 79.035261 
L 1237.311 80.187939 
L 1237.311 80.69957 
L 1237.311 79.1801 
L 1243.680704 80.219455 
L 1243.680704 80.647267 
L 1243.680704 79.379254 
L 1250.044296 80.324731 
L 1250.044296 80.217443 
L 1250.044296 80.671406 
L 1250.044296 79.652839 
L 1256.414 80.565459 
L 1256.414 80.490358 
L 1256.414 80.841726 
L 1256.414 80.049805 
L 1262.783704 81.038198 
L 1262.783704 80.987236 
L 1262.783704 81.255457 
L 1262.783704 80.660007 
L 1269.147296 81.898515 
L 1269.147296 81.864988 
L 1269.147296 81.614201 
L 1269.147296 82.068165 
L 1269.147296 81.631636 
L 1275.517 83.393174 
L 1275.517 83.369705 
L 1275.517 83.185303 
L 1275.517 83.52259 
L 1275.517 83.211455 
L 1281.886704 85.93121 
L 1281.886704 85.907741 
L 1281.886704 85.783018 
L 1281.886704 86.019723 
L 1281.886704 85.807158 
L 1288.250296 90.218044 
L 1288.250296 90.074546 
L 1294.62 97.242739 
L 1294.62 97.127404 
L 1300.989704 108.676308 
L 1300.989704 108.603889 
L 1307.353296 126.86434 
L 1307.353296 126.799296 
L 1313.723 155.132768 
L 1313.723 155.108629 
L 1320.092704 197.513618 
L 1320.092704 197.484784 
L 1326.456296 257.733142 
L 1326.456296 257.731131 
L 1332.826 336.624836 
L 1339.195704 427.005085 
L 1345.559296 512.523166 
L 1351.929 576.328127 
L 1358.298704 613.919632 
L 1364.662296 632.494035 
L 1371.032 640.755274 
L 1377.401704 644.333744 
L 1383.765296 645.851108 
L 1390.135 646.505406 
L 1396.504704 646.807832 
L 1402.868296 646.970315 
L 1402.868296 646.970315 
" clip-path="url(#pc72582f876)" style="fill: none; stroke: #9467bd; stroke-width: 1.5; stroke-linecap: square"/>
   </g>
   <g id="patch_8">
    <path d="M 797.942 647.08 
L 797.942 21.6 
" style="fill: none; stroke: #000000; stroke-width: 0.8; stroke-linejoin: miter; stroke-linecap: square"/>
   </g>
   <g id="patch_9">
    <path d="M 1409.238 647.08 
L 1409.238 21.6 
" style="fill: none; stroke: #000000; stroke-width: 0.8; stroke-linejoin: miter; stroke-linecap: square"/>
   </g>
   <g id="patch_10">
    <path d="M 797.942 647.08 
L 1409.238 647.08 
" style="fill: none; stroke: #000000; stroke-width: 0.8; stroke-linejoin: miter; stroke-linecap: square"/>
   </g>
   <g id="patch_11">
    <path d="M 797.942 21.6 
L 1409.238 21.6 
" style="fill: none; stroke: #000000; stroke-width: 0.8; stroke-linejoin: miter; stroke-linecap: square"/>
   </g>
  </g>
  <g id="axes_3">
   <g id="patch_12">
    <path d="M 1511.174 647.08 
L 2122.47 647.08 
L 2122.47 21.6 
L 1511.174 21.6 
z
" style="fill: #ffffff"/>
   </g>
   <g id="matplotlib.axis_5">
    <g id="xtick_13">
     <g id="line2d_34">
      <g>
       <use xlink:href="#m2adf32c4bf" x="1511.174" y="647.08" style="stroke: #000000; stroke-width: 0.8"/>
      </g>
     </g>
     <g id="text_28">
      <!-- 1.0 -->
      <g transform="translate(1495.270875 669.276875) scale(0.2 -0.2)">
       <use xlink:href="#DejaVuSans-31"/>
       <use xlink:href="#DejaVuSans-2e" x="63.623047"/>
       <use xlink:href="#DejaVuSans-30" x="95.410156"/>
      </g>
     </g>
    </g>
    <g id="xtick_14">
     <g id="line2d_35">
      <g>
       <use xlink:href="#m2adf32c4bf" x="1633.4332" y="647.08" style="stroke: #000000; stroke-width: 0.8"/>
      </g>
     </g>
     <g id="text_29">
      <!-- 1.2 -->
      <g transform="translate(1617.530075 669.276875) scale(0.2 -0.2)">
       <use xlink:href="#DejaVuSans-31"/>
       <use xlink:href="#DejaVuSans-2e" x="63.623047"/>
       <use xlink:href="#DejaVuSans-32" x="95.410156"/>
      </g>
     </g>
    </g>
    <g id="xtick_15">
     <g id="line2d_36">
      <g>
       <use xlink:href="#m2adf32c4bf" x="1755.6924" y="647.08" style="stroke: #000000; stroke-width: 0.8"/>
      </g>
     </g>
     <g id="text_30">
      <!-- 1.4 -->
      <g transform="translate(1739.789275 669.276875) scale(0.2 -0.2)">
       <use xlink:href="#DejaVuSans-31"/>
       <use xlink:href="#DejaVuSans-2e" x="63.623047"/>
       <use xlink:href="#DejaVuSans-34" x="95.410156"/>
      </g>
     </g>
    </g>
    <g id="xtick_16">
     <g id="line2d_37">
      <g>
       <use xlink:href="#m2adf32c4bf" x="1877.9516" y="647.08" style="stroke: #000000; stroke-width: 0.8"/>
      </g>
     </g>
     <g id="text_31">
      <!-- 1.6 -->
      <g transform="translate(1862.048475 669.276875) scale(0.2 -0.2)">
       <use xlink:href="#DejaVuSans-31"/>
       <use xlink:href="#DejaVuSans-2e" x="63.623047"/>
       <use xlink:href="#DejaVuSans-36" x="95.410156"/>
      </g>
     </g>
    </g>
    <g id="xtick_17">
     <g id="line2d_38">
      <g>
       <use xlink:href="#m2adf32c4bf" x="2000.2108" y="647.08" style="stroke: #000000; stroke-width: 0.8"/>
      </g>
     </g>
     <g id="text_32">
      <!-- 1.8 -->
      <g transform="translate(1984.307675 669.276875) scale(0.2 -0.2)">
       <use xlink:href="#DejaVuSans-31"/>
       <use xlink:href="#DejaVuSans-2e" x="63.623047"/>
       <use xlink:href="#DejaVuSans-38" x="95.410156"/>
      </g>
     </g>
    </g>
    <g id="xtick_18">
     <g id="line2d_39">
      <g>
       <use xlink:href="#m2adf32c4bf" x="2122.47" y="647.08" style="stroke: #000000; stroke-width: 0.8"/>
      </g>
     </g>
     <g id="text_33">
      <!-- 2.0 -->
      <g transform="translate(2106.566875 669.276875) scale(0.2 -0.2)">
       <use xlink:href="#DejaVuSans-32"/>
       <use xlink:href="#DejaVuSans-2e" x="63.623047"/>
       <use xlink:href="#DejaVuSans-30" x="95.410156"/>
      </g>
     </g>
    </g>
    <g id="text_34">
     <!-- Position $x$ -->
     <g transform="translate(1768.422 692.633125) scale(0.2 -0.2)">
      <use xlink:href="#DejaVuSans-50" transform="translate(0 0.015625)"/>
      <use xlink:href="#DejaVuSans-6f" transform="translate(60.302734 0.015625)"/>
      <use xlink:href="#DejaVuSans-73" transform="translate(121.484375 0.015625)"/>
      <use xlink:href="#DejaVuSans-69" transform="translate(173.583984 0.015625)"/>
      <use xlink:href="#DejaVuSans-74" transform="translate(201.367188 0.015625)"/>
      <use xlink:href="#DejaVuSans-69" transform="translate(240.576172 0.015625)"/>
      <use xlink:href="#DejaVuSans-6f" transform="translate(268.359375 0.015625)"/>
      <use xlink:href="#DejaVuSans-6e" transform="translate(329.541016 0.015625)"/>
      <use xlink:href="#DejaVuSans-20" transform="translate(392.919922 0.015625)"/>
      <use xlink:href="#DejaVuSans-Oblique-78" transform="translate(424.707031 0.015625)"/>
     </g>
    </g>
   </g>
   <g id="matplotlib.axis_6">
    <g id="ytick_12">
     <g id="line2d_40">
      <g>
       <use xlink:href="#m6a26200c6d" x="1511.174" y="647.08" style="stroke: #000000; stroke-width: 0.8"/>
      </g>
     </g>
     <g id="text_35">
      <!-- 0.0 -->
      <g transform="translate(1472.36775 654.678437) scale(0.2 -0.2)">
       <use xlink:href="#DejaVuSans-30"/>
       <use xlink:href="#DejaVuSans-2e" x="63.623047"/>
       <use xlink:href="#DejaVuSans-30" x="95.410156"/>
      </g>
     </g>
    </g>
    <g id="ytick_13">
     <g id="line2d_41">
      <g>
       <use xlink:href="#m6a26200c6d" x="1511.174" y="527.370909" style="stroke: #000000; stroke-width: 0.8"/>
      </g>
     </g>
     <g id="text_36">
      <!-- 0.2 -->
      <g transform="translate(1472.36775 534.969347) scale(0.2 -0.2)">
       <use xlink:href="#DejaVuSans-30"/>
       <use xlink:href="#DejaVuSans-2e" x="63.623047"/>
       <use xlink:href="#DejaVuSans-32" x="95.410156"/>
      </g>
     </g>
    </g>
    <g id="ytick_14">
     <g id="line2d_42">
      <g>
       <use xlink:href="#m6a26200c6d" x="1511.174" y="407.661818" style="stroke: #000000; stroke-width: 0.8"/>
      </g>
     </g>
     <g id="text_37">
      <!-- 0.4 -->
      <g transform="translate(1472.36775 415.260256) scale(0.2 -0.2)">
       <use xlink:href="#DejaVuSans-30"/>
       <use xlink:href="#DejaVuSans-2e" x="63.623047"/>
       <use xlink:href="#DejaVuSans-34" x="95.410156"/>
      </g>
     </g>
    </g>
    <g id="ytick_15">
     <g id="line2d_43">
      <g>
       <use xlink:href="#m6a26200c6d" x="1511.174" y="287.952727" style="stroke: #000000; stroke-width: 0.8"/>
      </g>
     </g>
     <g id="text_38">
      <!-- 0.6 -->
      <g transform="translate(1472.36775 295.551165) scale(0.2 -0.2)">
       <use xlink:href="#DejaVuSans-30"/>
       <use xlink:href="#DejaVuSans-2e" x="63.623047"/>
       <use xlink:href="#DejaVuSans-36" x="95.410156"/>
      </g>
     </g>
    </g>
    <g id="ytick_16">
     <g id="line2d_44">
      <g>
       <use xlink:href="#m6a26200c6d" x="1511.174" y="168.243636" style="stroke: #000000; stroke-width: 0.8"/>
      </g>
     </g>
     <g id="text_39">
      <!-- 0.8 -->
      <g transform="translate(1472.36775 175.842074) scale(0.2 -0.2)">
       <use xlink:href="#DejaVuSans-30"/>
       <use xlink:href="#DejaVuSans-2e" x="63.623047"/>
       <use xlink:href="#DejaVuSans-38" x="95.410156"/>
      </g>
     </g>
    </g>
    <g id="ytick_17">
     <g id="line2d_45">
      <g>
       <use xlink:href="#m6a26200c6d" x="1511.174" y="48.534545" style="stroke: #000000; stroke-width: 0.8"/>
      </g>
     </g>
     <g id="text_40">
      <!-- 1.0 -->
      <g transform="translate(1472.36775 56.132983) scale(0.2 -0.2)">
       <use xlink:href="#DejaVuSans-31"/>
       <use xlink:href="#DejaVuSans-2e" x="63.623047"/>
       <use xlink:href="#DejaVuSans-30" x="95.410156"/>
      </g>
     </g>
    </g>
    <g id="text_41">
     <!-- $P$ -->
     <g transform="translate(1464.208375 340.44) rotate(-90) scale(0.2 -0.2)">
      <defs>
       <path id="DejaVuSans-Oblique-50" d="M 1081 4666 
L 2541 4666 
Q 3178 4666 3512 4369 
Q 3847 4072 3847 3500 
Q 3847 2731 3353 2303 
Q 2859 1875 1966 1875 
L 1172 1875 
L 806 0 
L 172 0 
L 1081 4666 
z
M 1613 4147 
L 1275 2394 
L 2069 2394 
Q 2606 2394 2893 2669 
Q 3181 2944 3181 3456 
Q 3181 3784 2986 3965 
Q 2791 4147 2438 4147 
L 1613 4147 
z
" transform="scale(0.015625)"/>
      </defs>
      <use xlink:href="#DejaVuSans-Oblique-50" transform="translate(0 0.09375)"/>
     </g>
    </g>
   </g>
   <g id="line2d_46">
    <path d="M 1504.80613 48.534545 
L 1657.628296 48.534545 
L 1657.628296 48.534545 
L 1663.998 72.142645 
L 1663.998 72.142645 
L 1670.367704 100.782388 
L 1670.367704 100.782388 
L 1676.731296 128.24343 
L 1676.731296 128.24343 
L 1683.101 154.613662 
L 1683.101 154.613662 
L 1689.470704 179.900598 
L 1689.470704 179.900598 
L 1695.834296 204.115193 
L 1695.834296 204.115193 
L 1702.204 227.336962 
L 1702.204 227.336962 
L 1708.573704 249.574463 
L 1708.573704 249.574463 
L 1714.937296 270.839342 
L 1714.937296 270.839342 
L 1721.307 291.203371 
L 1721.307 291.203371 
L 1727.676704 310.675934 
L 1727.676704 310.675934 
L 1734.040296 329.26917 
L 1734.040296 329.26917 
L 1740.41 347.047709 
L 1740.41 347.047709 
L 1746.779704 364.021561 
L 1746.779704 364.021561 
L 1753.143296 380.203175 
L 1753.143296 380.203175 
L 1759.513 395.650609 
L 1759.513 395.650609 
L 1765.882704 410.37431 
L 1765.882704 410.37431 
L 1772.246296 424.386878 
L 1772.246296 424.386878 
L 1778.616 437.740331 
L 1778.616 437.740331 
L 1784.985704 450.445386 
L 1784.985704 450.445386 
L 1791.349296 462.514645 
L 1791.349296 462.514645 
L 1797.719 471.140444 
L 1797.719 471.140444 
L 2039.688296 471.140444 
L 2039.688296 471.140444 
L 2046.058 587.225455 
L 2046.058 587.225455 
L 2116.100296 587.225455 
L 2116.100296 587.225455 
" clip-path="url(#pe886b2d3e8)" style="fill: none; stroke: #1f77b4; stroke-width: 1.5; stroke-linecap: square"/>
   </g>
   <g id="line2d_47">
    <path d="M 1504.80613 48.547713 
L 1536.646704 48.599188 
L 1536.646704 48.599188 
L 1549.38 48.732664 
L 1549.38 48.732664 
L 1562.113296 49.089996 
L 1562.113296 49.089996 
L 1568.483 49.433561 
L 1568.483 49.433561 
L 1574.852704 49.956689 
L 1574.852704 49.956689 
L 1581.216296 50.730609 
L 1581.216296 50.730609 
L 1587.586 51.846297 
L 1587.586 51.846297 
L 1593.955704 53.412691 
L 1593.955704 53.412691 
L 1600.319296 55.551892 
L 1600.319296 55.551892 
L 1606.689 58.394983 
L 1606.689 58.394983 
L 1613.058704 62.077235 
L 1613.058704 62.077235 
L 1619.422296 66.722546 
L 1619.422296 66.722546 
L 1625.792 72.439852 
L 1625.792 72.439852 
L 1632.161704 79.311753 
L 1632.161704 79.311753 
L 1638.525296 87.386729 
L 1638.525296 87.386729 
L 1644.895 96.679746 
L 1644.895 96.679746 
L 1651.264704 107.171051 
L 1651.264704 107.171051 
L 1657.628296 118.803183 
L 1657.628296 118.803183 
L 1663.998 131.494741 
L 1663.998 131.494741 
L 1670.367704 145.145169 
L 1670.367704 145.145169 
L 1676.731296 159.628173 
L 1676.731296 159.628173 
L 1683.101 174.819257 
L 1683.101 174.819257 
L 1689.470704 190.590929 
L 1689.470704 190.590929 
L 1695.834296 206.806124 
L 1695.834296 206.806124 
L 1708.573704 240.093033 
L 1708.573704 240.093033 
L 1727.676704 290.537247 
L 1727.676704 290.537247 
L 1740.41 323.478196 
L 1740.41 323.478196 
L 1746.779704 339.539564 
L 1746.779704 339.539564 
L 1753.143296 355.242404 
L 1753.143296 355.242404 
L 1759.513 370.541226 
L 1759.513 370.541226 
L 1765.882704 385.392935 
L 1765.882704 385.392935 
L 1772.246296 399.730492 
L 1772.246296 399.730492 
L 1778.616 413.495841 
L 1784.985704 426.599796 
L 1784.985704 426.599796 
L 1791.349296 438.877759 
L 1791.349296 438.877759 
L 1797.719 450.06218 
L 1797.719 450.06218 
L 1804.088704 459.642498 
L 1804.088704 459.642498 
L 1810.452296 466.738853 
L 1810.452296 466.738853 
L 1816.822 470.467791 
L 1816.822 470.467791 
L 1823.191704 471.325507 
L 1823.191704 471.325507 
L 1842.294704 471.156119 
L 1842.294704 471.156119 
L 1899.603704 470.875999 
L 1899.603704 470.875999 
L 1956.912704 470.714991 
L 1956.912704 470.714991 
L 1976.015704 470.851459 
L 1976.015704 470.85086 
L 1982.379296 471.022643 
L 1982.379296 471.022044 
L 1988.749 471.343463 
L 1988.749 471.342865 
L 1995.118704 471.919863 
L 1995.118704 471.919264 
L 2001.482296 472.919433 
L 2001.482296 472.919433 
L 2007.852 474.608529 
L 2007.852 474.60793 
L 2014.221704 477.38159 
L 2014.221704 477.380991 
L 2020.585296 481.794067 
L 2020.585296 481.793468 
L 2026.955 488.565412 
L 2026.955 488.565412 
L 2033.324704 498.461762 
L 2039.688296 511.963751 
L 2046.058 528.658979 
L 2052.427704 546.621927 
L 2058.791296 562.712624 
L 2065.161 574.344158 
L 2071.530704 581.168773 
L 2071.530704 581.168773 
L 2077.894296 584.576292 
L 2077.894296 584.576292 
L 2084.264 586.11216 
L 2084.264 586.11216 
L 2090.633704 586.767567 
L 2090.633704 586.767567 
L 2096.997296 587.039307 
L 2096.997296 587.039307 
L 2109.736704 587.194929 
L 2109.736704 587.194929 
L 2116.100296 587.211688 
L 2116.100296 587.211688 
" clip-path="url(#pe886b2d3e8)" style="fill: none; stroke: #ff7f0e; stroke-width: 1.5; stroke-linecap: square"/>
   </g>
   <g id="line2d_48">
    <path d="M 1504.80613 48.939162 
L 1517.543704 48.939162 
L 1517.543704 48.939162 
L 1530.277 49.214493 
L 1530.277 49.214493 
L 1536.646704 49.485036 
L 1536.646704 49.485036 
L 1543.010296 49.87409 
L 1543.010296 49.87409 
L 1549.38 50.41338 
L 1549.38 50.41338 
L 1555.749704 51.141809 
L 1555.749704 51.141809 
L 1562.113296 52.104869 
L 1562.113296 52.104869 
L 1568.483 53.356428 
L 1568.483 53.356428 
L 1574.852704 54.953945 
L 1574.852704 54.953945 
L 1581.216296 56.96027 
L 1581.216296 56.96027 
L 1587.586 59.440044 
L 1587.586 59.440044 
L 1593.955704 62.459107 
L 1593.955704 62.459107 
L 1600.319296 66.078511 
L 1600.319296 66.078511 
L 1606.689 70.358111 
L 1606.689 70.358111 
L 1613.058704 75.34998 
L 1613.058704 75.34998 
L 1619.422296 81.095418 
L 1619.422296 81.095418 
L 1625.792 87.627943 
L 1625.792 87.627943 
L 1632.161704 94.970899 
L 1632.161704 94.970899 
L 1638.525296 103.129672 
L 1638.525296 103.129672 
L 1644.895 112.104263 
L 1644.895 112.104263 
L 1651.264704 121.881503 
L 1651.264704 121.881503 
L 1657.628296 132.430866 
L 1657.628296 132.430866 
L 1663.998 143.720631 
L 1663.998 143.720631 
L 1670.367704 155.707102 
L 1670.367704 155.707102 
L 1676.731296 168.331024 
L 1676.731296 168.331024 
L 1683.101 181.539127 
L 1683.101 181.539127 
L 1689.470704 195.268562 
L 1689.470704 195.268562 
L 1695.834296 209.444513 
L 1695.834296 209.444513 
L 1702.204 224.003532 
L 1702.204 224.003532 
L 1714.937296 253.984674 
L 1714.937296 253.984674 
L 1734.040296 300.057112 
L 1734.040296 300.056513 
L 1746.779704 330.725983 
L 1746.779704 330.725983 
L 1759.513 360.741241 
L 1759.513 360.740643 
L 1765.882704 375.346948 
L 1765.882704 375.346948 
L 1772.246296 389.566592 
L 1772.246296 389.565993 
L 1778.616 403.318772 
L 1778.616 403.318772 
L 1784.985704 416.461035 
L 1784.985704 416.460436 
L 1791.349296 428.767728 
L 1791.349296 428.767728 
L 1797.719 439.932396 
L 1797.719 439.932396 
L 1804.088704 449.439692 
L 1804.088704 449.439692 
L 1810.452296 456.642588 
L 1810.452296 456.642588 
L 1816.822 461.197519 
L 1816.822 461.197519 
L 1823.191704 463.634796 
L 1823.191704 463.634796 
L 1829.555296 464.998283 
L 1829.555296 464.998283 
L 1835.925 465.772801 
L 1835.925 465.772801 
L 1842.294704 466.276177 
L 1842.294704 466.276177 
L 1855.028 466.924402 
L 1855.028 466.924402 
L 1867.761296 467.317647 
L 1867.761296 467.317647 
L 1886.864296 467.654628 
L 1886.864296 467.654628 
L 1944.173296 468.411788 
L 1944.173296 468.411788 
L 1956.912704 468.924741 
L 1956.912704 468.924741 
L 1963.276296 469.326365 
L 1963.276296 469.326365 
L 1969.646 469.870443 
L 1969.646 469.869844 
L 1976.015704 470.602464 
L 1976.015704 470.601267 
L 1982.379296 471.578093 
L 1982.379296 471.576896 
L 1988.749 472.869156 
L 1988.749 472.866761 
L 1995.118704 474.557652 
L 1995.118704 474.55466 
L 2001.482296 476.742942 
L 2001.482296 476.741146 
L 2007.852 479.542937 
L 2007.852 479.541142 
L 2014.221704 483.084531 
L 2014.221704 483.082735 
L 2020.585296 487.504789 
L 2020.585296 487.502993 
L 2026.955 492.941377 
L 2026.955 492.94018 
L 2033.324704 499.514005 
L 2033.324704 499.512808 
L 2039.688296 507.294497 
L 2039.688296 507.293899 
L 2046.058 516.275672 
L 2046.058 516.274475 
L 2052.427704 526.311484 
L 2052.427704 526.310287 
L 2065.161 547.975238 
L 2065.161 547.974041 
L 2071.530704 558.293563 
L 2071.530704 558.292366 
L 2077.894296 567.244212 
L 2077.894296 567.243613 
L 2084.264 574.289092 
L 2084.264 574.288493 
L 2090.633704 579.312684 
L 2090.633704 579.312085 
L 2096.997296 582.58972 
L 2096.997296 582.589121 
L 2103.367 584.572103 
L 2103.367 584.572103 
L 2109.736704 585.685996 
L 2109.736704 585.685996 
L 2116.100296 586.239052 
L 2116.100296 586.239052 
" clip-path="url(#pe886b2d3e8)" style="fill: none; stroke: #2ca02c; stroke-width: 1.5; stroke-linecap: square"/>
   </g>
   <g id="line2d_49">
    <path d="M 1504.80613 48.659043 
L 1517.543704 48.659043 
L 1517.543704 48.659043 
L 1530.277 48.806285 
L 1530.277 48.806285 
L 1543.010296 49.159427 
L 1543.010296 49.159427 
L 1549.38 49.465882 
L 1549.38 49.465882 
L 1555.749704 49.902222 
L 1555.749704 49.902222 
L 1562.113296 50.511541 
L 1562.113296 50.511541 
L 1568.483 51.347111 
L 1568.483 51.347111 
L 1574.852704 52.472975 
L 1574.852704 52.472975 
L 1581.216296 53.962156 
L 1581.216296 53.962156 
L 1587.586 55.894859 
L 1587.586 55.894859 
L 1593.955704 58.360268 
L 1593.955704 58.360268 
L 1600.319296 61.446967 
L 1600.319296 61.446967 
L 1606.689 65.244737 
L 1606.689 65.244737 
L 1613.058704 69.837975 
L 1613.058704 69.837975 
L 1619.422296 75.298505 
L 1619.422296 75.298505 
L 1625.792 81.686183 
L 1625.792 81.686183 
L 1632.161704 89.044102 
L 1632.161704 89.044102 
L 1638.525296 97.393212 
L 1638.525296 97.392614 
L 1644.895 106.737704 
L 1644.895 106.728726 
L 1651.264704 117.069796 
L 1651.264704 117.03927 
L 1657.628296 128.326041 
L 1663.998 140.451974 
L 1663.998 140.434017 
L 1670.367704 153.436819 
L 1670.367704 153.35422 
L 1676.731296 167.136327 
L 1683.101 181.458323 
L 1683.101 181.373928 
L 1689.470704 196.271724 
L 1689.470704 196.11311 
L 1702.204 227.254831 
L 1702.204 227.237473 
L 1708.573704 243.265324 
L 1708.573704 243.116286 
L 1708.573704 242.958868 
L 1708.573704 243.322185 
L 1708.573704 243.092344 
L 1721.307 275.321623 
L 1721.307 275.683144 
L 1721.307 275.455098 
L 1727.676704 291.788805 
L 1727.676704 291.382393 
L 1727.676704 291.931857 
L 1727.676704 291.766659 
L 1734.040296 307.975868 
L 1734.040296 307.726275 
L 1734.040296 307.596989 
L 1734.040296 308.246411 
L 1734.040296 307.950729 
L 1740.41 323.873236 
L 1740.41 323.700256 
L 1740.41 324.326933 
L 1740.41 323.559598 
L 1740.41 323.939076 
L 1746.779704 339.698179 
L 1746.779704 340.454142 
L 1746.779704 339.418658 
L 1746.779704 340.095015 
L 1753.143296 355.600335 
L 1753.143296 356.534065 
L 1753.143296 355.41718 
L 1753.143296 356.513116 
L 1759.513 372.02502 
L 1759.513 370.663329 
L 1759.513 372.37098 
L 1765.882704 388.063644 
L 1765.882704 385.948385 
L 1765.882704 388.068433 
L 1772.246296 401.294492 
L 1772.246296 404.558959 
L 1772.246296 399.851399 
L 1772.246296 403.631213 
L 1778.616 415.649407 
L 1778.616 417.722769 
L 1778.616 413.826836 
L 1778.616 414.99819 
L 1784.985704 428.156015 
L 1784.985704 427.923779 
L 1784.985704 425.830665 
L 1784.985704 429.321383 
L 1784.985704 425.964141 
L 1791.349296 440.534533 
L 1791.349296 437.888364 
L 1791.349296 441.672368 
L 1791.349296 438.448004 
L 1797.719 447.672786 
L 1797.719 451.359826 
L 1804.088704 456.963409 
L 1804.088704 455.389833 
L 1804.088704 458.011462 
L 1810.452296 461.717655 
L 1810.452296 460.931167 
L 1810.452296 463.504313 
L 1810.452296 462.1929 
L 1816.822 464.527826 
L 1816.822 464.224962 
L 1816.822 465.55074 
L 1816.822 464.792383 
L 1823.191704 465.520215 
L 1823.191704 466.306703 
L 1823.191704 466.257623 
L 1829.555296 466.48926 
L 1829.555296 466.972884 
L 1829.555296 466.905249 
L 1835.925 466.787934 
L 1835.925 466.868139 
L 1835.925 467.290113 
L 1842.294704 467.093192 
L 1842.294704 467.142871 
L 1842.294704 467.5014 
L 1848.658296 467.326625 
L 1848.658296 467.329019 
L 1848.658296 467.631284 
L 1855.028 467.466684 
L 1855.028 467.701314 
L 1861.397704 467.59178 
L 1861.397704 467.76476 
L 1861.397704 467.778527 
L 1861.397704 467.743811 
L 1874.131 467.849753 
L 1874.131 467.910207 
L 1874.131 467.837783 
L 1899.603704 468.087376 
L 1899.603704 467.979039 
L 1899.603704 468.096953 
L 1899.603704 468.013156 
L 1944.173296 468.219056 
L 1944.173296 468.175362 
L 1944.173296 468.142442 
L 1944.173296 468.186735 
L 1944.173296 468.15142 
L 1976.015704 468.55484 
L 1976.015704 468.48481 
L 1988.749 469.022304 
L 1988.749 468.956464 
L 1995.118704 469.53406 
L 1995.118704 469.448468 
L 2001.482296 470.347484 
L 2001.482296 470.208621 
L 2001.482296 470.139788 
L 2001.482296 470.216402 
L 2007.852 471.640342 
L 2007.852 471.429654 
L 2007.852 471.655904 
L 2007.852 471.523625 
L 2014.221704 473.713703 
L 2014.221704 473.49284 
L 2014.221704 473.746623 
L 2014.221704 473.55449 
L 2020.585296 476.900958 
L 2020.585296 476.818359 
L 2020.585296 476.708825 
L 2020.585296 476.945849 
L 2020.585296 476.71481 
L 2026.955 481.69411 
L 2026.955 481.531305 
L 2033.324704 488.49598 
L 2033.324704 488.380461 
L 2039.688296 497.760865 
L 2039.688296 497.729143 
L 2046.058 509.647978 
L 2046.058 509.595306 
L 2052.427704 523.681475 
L 2058.791296 538.783375 
L 2058.791296 538.767813 
L 2065.161 553.269971 
L 2065.161 553.242438 
L 2071.530704 565.428823 
L 2071.530704 565.422239 
L 2077.894296 574.3268 
L 2084.264 580.064457 
L 2090.633704 583.4211 
L 2090.633704 583.4211 
L 2096.997296 585.26043 
L 2096.997296 585.259831 
L 2103.367 586.226482 
L 2103.367 586.225884 
L 2109.736704 586.717289 
L 2109.736704 586.717289 
L 2116.100296 586.953116 
L 2116.100296 586.953116 
" clip-path="url(#pe886b2d3e8)" style="fill: none; stroke: #d62728; stroke-width: 1.5; stroke-linecap: square"/>
   </g>
   <g id="line2d_50">
    <path d="M 1504.80613 48.943352 
L 1517.543704 48.943352 
L 1517.543704 48.943951 
L 1530.277 49.222873 
L 1530.277 49.222873 
L 1536.646704 49.497007 
L 1536.646704 49.497007 
L 1543.010296 49.891448 
L 1549.38 50.437321 
L 1555.749704 51.174729 
L 1562.113296 52.14976 
L 1568.483 53.416282 
L 1574.852704 55.032953 
L 1581.216296 57.060825 
L 1587.586 59.569928 
L 1593.955704 62.619517 
L 1600.319296 66.273637 
L 1606.689 70.592143 
L 1613.058704 75.624713 
L 1619.422296 81.418034 
L 1625.792 88.006224 
L 1625.792 87.997844 
L 1632.161704 95.400056 
L 1632.161704 95.387487 
L 1638.525296 103.589953 
L 1644.895 112.647143 
L 1644.895 112.610033 
L 1651.264704 122.498603 
L 1651.264704 122.432164 
L 1657.628296 133.084478 
L 1657.628296 133.023426 
L 1663.998 144.408359 
L 1663.998 144.352096 
L 1670.367704 156.479824 
L 1670.367704 156.373881 
L 1676.731296 169.231835 
L 1676.731296 169.036709 
L 1683.101 182.480639 
L 1683.101 182.280724 
L 1689.470704 196.17895 
L 1689.470704 196.03889 
L 1695.834296 210.590129 
L 1695.834296 210.251951 
L 1702.204 225.114433 
L 1702.204 224.849277 
L 1721.307 270.490164 
L 1721.307 270.415944 
L 1721.307 270.643391 
L 1721.307 270.265111 
L 1727.676704 286.226522 
L 1727.676704 285.738708 
L 1734.040296 301.439752 
L 1734.040296 301.298495 
L 1734.040296 301.680367 
L 1734.040296 301.247619 
L 1740.41 316.648193 
L 1740.41 317.128825 
L 1740.41 316.733187 
L 1746.779704 332.254069 
L 1746.779704 332.798745 
L 1746.779704 332.111017 
L 1746.779704 332.180448 
L 1753.143296 347.360159 
L 1753.143296 347.852762 
L 1753.143296 347.233268 
L 1753.143296 347.474481 
L 1759.513 363.001349 
L 1759.513 363.383221 
L 1759.513 362.617681 
L 1765.882704 378.122403 
L 1765.882704 377.185081 
L 1765.882704 377.514879 
L 1772.246296 392.263039 
L 1772.246296 392.210367 
L 1772.246296 392.617378 
L 1772.246296 392.124177 
L 1778.616 406.428216 
L 1778.616 406.427019 
L 1778.616 406.778365 
L 1778.616 406.380332 
L 1784.985704 420.278558 
L 1784.985704 420.187579 
L 1784.985704 420.551495 
L 1784.985704 420.193564 
L 1791.349296 433.403463 
L 1791.349296 433.987044 
L 1791.349296 433.381316 
L 1797.719 445.248079 
L 1797.719 445.114603 
L 1797.719 444.946412 
L 1797.719 445.834653 
L 1797.719 445.405496 
L 1804.088704 456.335535 
L 1804.088704 457.158535 
L 1804.088704 456.767086 
L 1810.452296 464.346467 
L 1810.452296 465.062926 
L 1816.822 468.927135 
L 1816.822 469.987758 
L 1823.191704 470.540215 
L 1823.191704 469.50952 
L 1823.191704 469.532863 
L 1829.555296 470.733545 
L 1829.555296 470.958 
L 1829.555296 470.926876 
L 1835.925 470.724567 
L 1835.925 470.619822 
L 1842.294704 470.811356 
L 1842.294704 470.774247 
L 1874.131 470.599471 
L 1874.131 470.627004 
L 1874.131 470.643764 
L 1893.234 470.491135 
L 1893.234 470.507295 
L 1893.234 470.484551 
L 1893.234 470.545602 
L 1905.967296 470.425893 
L 1905.967296 470.477967 
L 1925.070296 470.348681 
L 1925.070296 470.381601 
L 1925.070296 470.370827 
L 1950.543 470.301396 
L 1950.543 470.30379 
L 1969.646 470.454623 
L 1969.646 470.43547 
L 1982.379296 470.843079 
L 1982.379296 470.829313 
L 1988.749 471.269842 
L 1988.749 471.257871 
L 1995.118704 471.987498 
L 1995.118704 471.977921 
L 2001.482296 473.176808 
L 2001.482296 473.169027 
L 2007.852 475.144227 
L 2007.852 475.143628 
L 2014.221704 478.326693 
L 2014.221704 478.314124 
L 2020.585296 483.297015 
L 2020.585296 483.273073 
L 2026.955 490.773446 
L 2026.955 490.724365 
L 2033.324704 501.495789 
L 2033.324704 501.482621 
L 2039.688296 515.787259 
L 2039.688296 515.786062 
L 2046.058 532.940973 
L 2052.427704 550.68186 
L 2058.791296 565.831644 
L 2065.161 576.257109 
L 2071.530704 582.130636 
L 2071.530704 582.130636 
L 2077.894296 584.983902 
L 2077.894296 584.983902 
L 2084.264 586.246833 
L 2084.264 586.246833 
L 2090.633704 586.795699 
L 2090.633704 586.795699 
L 2096.997296 587.031526 
L 2096.997296 587.031526 
L 2109.736704 587.175775 
L 2109.736704 587.175775 
L 2116.100296 587.194929 
L 2116.100296 587.194929 
" clip-path="url(#pe886b2d3e8)" style="fill: none; stroke: #9467bd; stroke-width: 1.5; stroke-linecap: square"/>
   </g>
   <g id="patch_13">
    <path d="M 1511.174 647.08 
L 1511.174 21.6 
" style="fill: none; stroke: #000000; stroke-width: 0.8; stroke-linejoin: miter; stroke-linecap: square"/>
   </g>
   <g id="patch_14">
    <path d="M 2122.47 647.08 
L 2122.47 21.6 
" style="fill: none; stroke: #000000; stroke-width: 0.8; stroke-linejoin: miter; stroke-linecap: square"/>
   </g>
   <g id="patch_15">
    <path d="M 1511.174 647.08 
L 2122.47 647.08 
" style="fill: none; stroke: #000000; stroke-width: 0.8; stroke-linejoin: miter; stroke-linecap: square"/>
   </g>
   <g id="patch_16">
    <path d="M 1511.174 21.6 
L 2122.47 21.6 
" style="fill: none; stroke: #000000; stroke-width: 0.8; stroke-linejoin: miter; stroke-linecap: square"/>
   </g>
   <g id="legend_1">
    <g id="patch_17">
     <path d="M 1945.698125 184.38125 
L 2108.47 184.38125 
Q 2112.47 184.38125 2112.47 180.38125 
L 2112.47 35.6 
Q 2112.47 31.6 2108.47 31.6 
L 1945.698125 31.6 
Q 1941.698125 31.6 1941.698125 35.6 
L 1941.698125 180.38125 
Q 1941.698125 184.38125 1945.698125 184.38125 
z
" style="fill: #ffffff; opacity: 0.8; stroke: #cccccc; stroke-linejoin: miter"/>
    </g>
    <g id="line2d_51">
     <path d="M 1949.698125 47.796875 
L 1969.698125 47.796875 
L 1989.698125 47.796875 
" style="fill: none; stroke: #1f77b4; stroke-width: 1.5; stroke-linecap: square"/>
    </g>
    <g id="text_42">
     <!-- Exact Sol. -->
     <g transform="translate(2005.698125 54.796875) scale(0.2 -0.2)">
      <defs>
       <path id="DejaVuSans-45" d="M 628 4666 
L 3578 4666 
L 3578 4134 
L 1259 4134 
L 1259 2753 
L 3481 2753 
L 3481 2222 
L 1259 2222 
L 1259 531 
L 3634 531 
L 3634 0 
L 628 0 
L 628 4666 
z
" transform="scale(0.015625)"/>
       <path id="DejaVuSans-78" d="M 3513 3500 
L 2247 1797 
L 3578 0 
L 2900 0 
L 1881 1375 
L 863 0 
L 184 0 
L 1544 1831 
L 300 3500 
L 978 3500 
L 1906 2253 
L 2834 3500 
L 3513 3500 
z
" transform="scale(0.015625)"/>
       <path id="DejaVuSans-61" d="M 2194 1759 
Q 1497 1759 1228 1600 
Q 959 1441 959 1056 
Q 959 750 1161 570 
Q 1363 391 1709 391 
Q 2188 391 2477 730 
Q 2766 1069 2766 1631 
L 2766 1759 
L 2194 1759 
z
M 3341 1997 
L 3341 0 
L 2766 0 
L 2766 531 
Q 2569 213 2275 61 
Q 1981 -91 1556 -91 
Q 1019 -91 701 211 
Q 384 513 384 1019 
Q 384 1609 779 1909 
Q 1175 2209 1959 2209 
L 2766 2209 
L 2766 2266 
Q 2766 2663 2505 2880 
Q 2244 3097 1772 3097 
Q 1472 3097 1187 3025 
Q 903 2953 641 2809 
L 641 3341 
Q 956 3463 1253 3523 
Q 1550 3584 1831 3584 
Q 2591 3584 2966 3190 
Q 3341 2797 3341 1997 
z
" transform="scale(0.015625)"/>
       <path id="DejaVuSans-63" d="M 3122 3366 
L 3122 2828 
Q 2878 2963 2633 3030 
Q 2388 3097 2138 3097 
Q 1578 3097 1268 2742 
Q 959 2388 959 1747 
Q 959 1106 1268 751 
Q 1578 397 2138 397 
Q 2388 397 2633 464 
Q 2878 531 3122 666 
L 3122 134 
Q 2881 22 2623 -34 
Q 2366 -91 2075 -91 
Q 1284 -91 818 406 
Q 353 903 353 1747 
Q 353 2603 823 3093 
Q 1294 3584 2113 3584 
Q 2378 3584 2631 3529 
Q 2884 3475 3122 3366 
z
" transform="scale(0.015625)"/>
       <path id="DejaVuSans-53" d="M 3425 4513 
L 3425 3897 
Q 3066 4069 2747 4153 
Q 2428 4238 2131 4238 
Q 1616 4238 1336 4038 
Q 1056 3838 1056 3469 
Q 1056 3159 1242 3001 
Q 1428 2844 1947 2747 
L 2328 2669 
Q 3034 2534 3370 2195 
Q 3706 1856 3706 1288 
Q 3706 609 3251 259 
Q 2797 -91 1919 -91 
Q 1588 -91 1214 -16 
Q 841 59 441 206 
L 441 856 
Q 825 641 1194 531 
Q 1563 422 1919 422 
Q 2459 422 2753 634 
Q 3047 847 3047 1241 
Q 3047 1584 2836 1778 
Q 2625 1972 2144 2069 
L 1759 2144 
Q 1053 2284 737 2584 
Q 422 2884 422 3419 
Q 422 4038 858 4394 
Q 1294 4750 2059 4750 
Q 2388 4750 2728 4690 
Q 3069 4631 3425 4513 
z
" transform="scale(0.015625)"/>
       <path id="DejaVuSans-6c" d="M 603 4863 
L 1178 4863 
L 1178 0 
L 603 0 
L 603 4863 
z
" transform="scale(0.015625)"/>
      </defs>
      <use xlink:href="#DejaVuSans-45"/>
      <use xlink:href="#DejaVuSans-78" x="63.183594"/>
      <use xlink:href="#DejaVuSans-61" x="122.363281"/>
      <use xlink:href="#DejaVuSans-63" x="183.642578"/>
      <use xlink:href="#DejaVuSans-74" x="238.623047"/>
      <use xlink:href="#DejaVuSans-20" x="277.832031"/>
      <use xlink:href="#DejaVuSans-53" x="309.619141"/>
      <use xlink:href="#DejaVuSans-6f" x="373.095703"/>
      <use xlink:href="#DejaVuSans-6c" x="434.277344"/>
      <use xlink:href="#DejaVuSans-2e" x="462.060547"/>
     </g>
    </g>
    <g id="line2d_52">
     <path d="M 1949.698125 77.153125 
L 1969.698125 77.153125 
L 1989.698125 77.153125 
" style="fill: none; stroke: #ff7f0e; stroke-width: 1.5; stroke-linecap: square"/>
    </g>
    <g id="text_43">
     <!-- N -->
     <g transform="translate(2005.698125 84.153125) scale(0.2 -0.2)">
      <defs>
       <path id="DejaVuSans-4e" d="M 628 4666 
L 1478 4666 
L 3547 763 
L 3547 4666 
L 4159 4666 
L 4159 0 
L 3309 0 
L 1241 3903 
L 1241 0 
L 628 0 
L 628 4666 
z
" transform="scale(0.015625)"/>
      </defs>
      <use xlink:href="#DejaVuSans-4e"/>
     </g>
    </g>
    <g id="line2d_53">
     <path d="M 1949.698125 106.509375 
L 1969.698125 106.509375 
L 1989.698125 106.509375 
" style="fill: none; stroke: #2ca02c; stroke-width: 1.5; stroke-linecap: square"/>
    </g>
    <g id="text_44">
     <!-- LDA -->
     <g transform="translate(2005.698125 113.509375) scale(0.2 -0.2)">
      <defs>
       <path id="DejaVuSans-4c" d="M 628 4666 
L 1259 4666 
L 1259 531 
L 3531 531 
L 3531 0 
L 628 0 
L 628 4666 
z
" transform="scale(0.015625)"/>
       <path id="DejaVuSans-44" d="M 1259 4147 
L 1259 519 
L 2022 519 
Q 2988 519 3436 956 
Q 3884 1394 3884 2338 
Q 3884 3275 3436 3711 
Q 2988 4147 2022 4147 
L 1259 4147 
z
M 628 4666 
L 1925 4666 
Q 3281 4666 3915 4102 
Q 4550 3538 4550 2338 
Q 4550 1131 3912 565 
Q 3275 0 1925 0 
L 628 0 
L 628 4666 
z
" transform="scale(0.015625)"/>
       <path id="DejaVuSans-41" d="M 2188 4044 
L 1331 1722 
L 3047 1722 
L 2188 4044 
z
M 1831 4666 
L 2547 4666 
L 4325 0 
L 3669 0 
L 3244 1197 
L 1141 1197 
L 716 0 
L 50 0 
L 1831 4666 
z
" transform="scale(0.015625)"/>
      </defs>
      <use xlink:href="#DejaVuSans-4c"/>
      <use xlink:href="#DejaVuSans-44" x="55.712891"/>
      <use xlink:href="#DejaVuSans-41" x="130.964844"/>
     </g>
    </g>
    <g id="line2d_54">
     <path d="M 1949.698125 135.865625 
L 1969.698125 135.865625 
L 1989.698125 135.865625 
" style="fill: none; stroke: #d62728; stroke-width: 1.5; stroke-linecap: square"/>
    </g>
    <g id="text_45">
     <!-- B -->
     <g transform="translate(2005.698125 142.865625) scale(0.2 -0.2)">
      <defs>
       <path id="DejaVuSans-42" d="M 1259 2228 
L 1259 519 
L 2272 519 
Q 2781 519 3026 730 
Q 3272 941 3272 1375 
Q 3272 1813 3026 2020 
Q 2781 2228 2272 2228 
L 1259 2228 
z
M 1259 4147 
L 1259 2741 
L 2194 2741 
Q 2656 2741 2882 2914 
Q 3109 3088 3109 3444 
Q 3109 3797 2882 3972 
Q 2656 4147 2194 4147 
L 1259 4147 
z
M 628 4666 
L 2241 4666 
Q 2963 4666 3353 4366 
Q 3744 4066 3744 3513 
Q 3744 3084 3544 2831 
Q 3344 2578 2956 2516 
Q 3422 2416 3680 2098 
Q 3938 1781 3938 1306 
Q 3938 681 3513 340 
Q 3088 0 2303 0 
L 628 0 
L 628 4666 
z
" transform="scale(0.015625)"/>
      </defs>
      <use xlink:href="#DejaVuSans-42"/>
     </g>
    </g>
    <g id="line2d_55">
     <path d="M 1949.698125 165.221875 
L 1969.698125 165.221875 
L 1989.698125 165.221875 
" style="fill: none; stroke: #9467bd; stroke-width: 1.5; stroke-linecap: square"/>
    </g>
    <g id="text_46">
     <!-- Bx -->
     <g transform="translate(2005.698125 172.221875) scale(0.2 -0.2)">
      <use xlink:href="#DejaVuSans-42"/>
      <use xlink:href="#DejaVuSans-78" x="68.603516"/>
     </g>
    </g>
   </g>
  </g>
 </g>
 <defs>
  <clipPath id="peec859f547">
   <rect x="84.71" y="21.6" width="611.296" height="625.48"/>
  </clipPath>
  <clipPath id="pc72582f876">
   <rect x="797.942" y="21.6" width="611.296" height="625.48"/>
  </clipPath>
  <clipPath id="pe886b2d3e8">
   <rect x="1511.174" y="21.6" width="611.296" height="625.48"/>
  </clipPath>
 </defs>
</svg>
