<?xml version="1.0" encoding="utf-8" standalone="no"?>
<!DOCTYPE svg PUBLIC "-//W3C//DTD SVG 1.1//EN"
  "http://www.w3.org/Graphics/SVG/1.1/DTD/svg11.dtd">
<svg xmlns:xlink="http://www.w3.org/1999/xlink" width="2160pt" height="720pt" viewBox="0 0 2160 720" xmlns="http://www.w3.org/2000/svg" version="1.1">
 <metadata>
  <rdf:RDF xmlns:dc="http://purl.org/dc/elements/1.1/" xmlns:cc="http://creativecommons.org/ns#" xmlns:rdf="http://www.w3.org/1999/02/22-rdf-syntax-ns#">
   <cc:Work>
    <dc:type rdf:resource="http://purl.org/dc/dcmitype/StillImage"/>
    <dc:date>2023-06-30T01:29:38.689948</dc:date>
    <dc:format>image/svg+xml</dc:format>
    <dc:creator>
     <cc:Agent>
      <dc:title>Matplotlib v3.7.1, https://matplotlib.org/</dc:title>
     </cc:Agent>
    </dc:creator>
   </cc:Work>
  </rdf:RDF>
 </metadata>
 <defs>
  <style type="text/css">*{stroke-linejoin: round; stroke-linecap: butt}</style>
 </defs>
 <g id="figure_1">
  <g id="patch_1">
   <path d="M 0 720 
L 2160 720 
L 2160 0 
L 0 0 
z
" style="fill: #ffffff"/>
  </g>
  <g id="axes_1">
   <g id="patch_2">
    <path d="M 84.71 647.08 
L 696.006 647.08 
L 696.006 21.6 
L 84.71 21.6 
z
" style="fill: #ffffff"/>
   </g>
   <g id="matplotlib.axis_1">
    <g id="xtick_1">
     <g id="line2d_1">
      <defs>
       <path id="mc48d9d4813" d="M 0 0 
L 0 3.5 
" style="stroke: #000000; stroke-width: 0.8"/>
      </defs>
      <g>
       <use xlink:href="#mc48d9d4813" x="84.71" y="647.08" style="stroke: #000000; stroke-width: 0.8"/>
      </g>
     </g>
     <g id="text_1">
      <!-- 1.0 -->
      <g transform="translate(68.806875 669.276875) scale(0.2 -0.2)">
       <defs>
        <path id="DejaVuSans-31" d="M 794 531 
L 1825 531 
L 1825 4091 
L 703 3866 
L 703 4441 
L 1819 4666 
L 2450 4666 
L 2450 531 
L 3481 531 
L 3481 0 
L 794 0 
L 794 531 
z
" transform="scale(0.015625)"/>
        <path id="DejaVuSans-2e" d="M 684 794 
L 1344 794 
L 1344 0 
L 684 0 
L 684 794 
z
" transform="scale(0.015625)"/>
        <path id="DejaVuSans-30" d="M 2034 4250 
Q 1547 4250 1301 3770 
Q 1056 3291 1056 2328 
Q 1056 1369 1301 889 
Q 1547 409 2034 409 
Q 2525 409 2770 889 
Q 3016 1369 3016 2328 
Q 3016 3291 2770 3770 
Q 2525 4250 2034 4250 
z
M 2034 4750 
Q 2819 4750 3233 4129 
Q 3647 3509 3647 2328 
Q 3647 1150 3233 529 
Q 2819 -91 2034 -91 
Q 1250 -91 836 529 
Q 422 1150 422 2328 
Q 422 3509 836 4129 
Q 1250 4750 2034 4750 
z
" transform="scale(0.015625)"/>
       </defs>
       <use xlink:href="#DejaVuSans-31"/>
       <use xlink:href="#DejaVuSans-2e" x="63.623047"/>
       <use xlink:href="#DejaVuSans-30" x="95.410156"/>
      </g>
     </g>
    </g>
    <g id="xtick_2">
     <g id="line2d_2">
      <g>
       <use xlink:href="#mc48d9d4813" x="206.9692" y="647.08" style="stroke: #000000; stroke-width: 0.8"/>
      </g>
     </g>
     <g id="text_2">
      <!-- 1.2 -->
      <g transform="translate(191.066075 669.276875) scale(0.2 -0.2)">
       <defs>
        <path id="DejaVuSans-32" d="M 1228 531 
L 3431 531 
L 3431 0 
L 469 0 
L 469 531 
Q 828 903 1448 1529 
Q 2069 2156 2228 2338 
Q 2531 2678 2651 2914 
Q 2772 3150 2772 3378 
Q 2772 3750 2511 3984 
Q 2250 4219 1831 4219 
Q 1534 4219 1204 4116 
Q 875 4013 500 3803 
L 500 4441 
Q 881 4594 1212 4672 
Q 1544 4750 1819 4750 
Q 2544 4750 2975 4387 
Q 3406 4025 3406 3419 
Q 3406 3131 3298 2873 
Q 3191 2616 2906 2266 
Q 2828 2175 2409 1742 
Q 1991 1309 1228 531 
z
" transform="scale(0.015625)"/>
       </defs>
       <use xlink:href="#DejaVuSans-31"/>
       <use xlink:href="#DejaVuSans-2e" x="63.623047"/>
       <use xlink:href="#DejaVuSans-32" x="95.410156"/>
      </g>
     </g>
    </g>
    <g id="xtick_3">
     <g id="line2d_3">
      <g>
       <use xlink:href="#mc48d9d4813" x="329.2284" y="647.08" style="stroke: #000000; stroke-width: 0.8"/>
      </g>
     </g>
     <g id="text_3">
      <!-- 1.4 -->
      <g transform="translate(313.325275 669.276875) scale(0.2 -0.2)">
       <defs>
        <path id="DejaVuSans-34" d="M 2419 4116 
L 825 1625 
L 2419 1625 
L 2419 4116 
z
M 2253 4666 
L 3047 4666 
L 3047 1625 
L 3713 1625 
L 3713 1100 
L 3047 1100 
L 3047 0 
L 2419 0 
L 2419 1100 
L 313 1100 
L 313 1709 
L 2253 4666 
z
" transform="scale(0.015625)"/>
       </defs>
       <use xlink:href="#DejaVuSans-31"/>
       <use xlink:href="#DejaVuSans-2e" x="63.623047"/>
       <use xlink:href="#DejaVuSans-34" x="95.410156"/>
      </g>
     </g>
    </g>
    <g id="xtick_4">
     <g id="line2d_4">
      <g>
       <use xlink:href="#mc48d9d4813" x="451.4876" y="647.08" style="stroke: #000000; stroke-width: 0.8"/>
      </g>
     </g>
     <g id="text_4">
      <!-- 1.6 -->
      <g transform="translate(435.584475 669.276875) scale(0.2 -0.2)">
       <defs>
        <path id="DejaVuSans-36" d="M 2113 2584 
Q 1688 2584 1439 2293 
Q 1191 2003 1191 1497 
Q 1191 994 1439 701 
Q 1688 409 2113 409 
Q 2538 409 2786 701 
Q 3034 994 3034 1497 
Q 3034 2003 2786 2293 
Q 2538 2584 2113 2584 
z
M 3366 4563 
L 3366 3988 
Q 3128 4100 2886 4159 
Q 2644 4219 2406 4219 
Q 1781 4219 1451 3797 
Q 1122 3375 1075 2522 
Q 1259 2794 1537 2939 
Q 1816 3084 2150 3084 
Q 2853 3084 3261 2657 
Q 3669 2231 3669 1497 
Q 3669 778 3244 343 
Q 2819 -91 2113 -91 
Q 1303 -91 875 529 
Q 447 1150 447 2328 
Q 447 3434 972 4092 
Q 1497 4750 2381 4750 
Q 2619 4750 2861 4703 
Q 3103 4656 3366 4563 
z
" transform="scale(0.015625)"/>
       </defs>
       <use xlink:href="#DejaVuSans-31"/>
       <use xlink:href="#DejaVuSans-2e" x="63.623047"/>
       <use xlink:href="#DejaVuSans-36" x="95.410156"/>
      </g>
     </g>
    </g>
    <g id="xtick_5">
     <g id="line2d_5">
      <g>
       <use xlink:href="#mc48d9d4813" x="573.7468" y="647.08" style="stroke: #000000; stroke-width: 0.8"/>
      </g>
     </g>
     <g id="text_5">
      <!-- 1.8 -->
      <g transform="translate(557.843675 669.276875) scale(0.2 -0.2)">
       <defs>
        <path id="DejaVuSans-38" d="M 2034 2216 
Q 1584 2216 1326 1975 
Q 1069 1734 1069 1313 
Q 1069 891 1326 650 
Q 1584 409 2034 409 
Q 2484 409 2743 651 
Q 3003 894 3003 1313 
Q 3003 1734 2745 1975 
Q 2488 2216 2034 2216 
z
M 1403 2484 
Q 997 2584 770 2862 
Q 544 3141 544 3541 
Q 544 4100 942 4425 
Q 1341 4750 2034 4750 
Q 2731 4750 3128 4425 
Q 3525 4100 3525 3541 
Q 3525 3141 3298 2862 
Q 3072 2584 2669 2484 
Q 3125 2378 3379 2068 
Q 3634 1759 3634 1313 
Q 3634 634 3220 271 
Q 2806 -91 2034 -91 
Q 1263 -91 848 271 
Q 434 634 434 1313 
Q 434 1759 690 2068 
Q 947 2378 1403 2484 
z
M 1172 3481 
Q 1172 3119 1398 2916 
Q 1625 2713 2034 2713 
Q 2441 2713 2670 2916 
Q 2900 3119 2900 3481 
Q 2900 3844 2670 4047 
Q 2441 4250 2034 4250 
Q 1625 4250 1398 4047 
Q 1172 3844 1172 3481 
z
" transform="scale(0.015625)"/>
       </defs>
       <use xlink:href="#DejaVuSans-31"/>
       <use xlink:href="#DejaVuSans-2e" x="63.623047"/>
       <use xlink:href="#DejaVuSans-38" x="95.410156"/>
      </g>
     </g>
    </g>
    <g id="xtick_6">
     <g id="line2d_6">
      <g>
       <use xlink:href="#mc48d9d4813" x="696.006" y="647.08" style="stroke: #000000; stroke-width: 0.8"/>
      </g>
     </g>
     <g id="text_6">
      <!-- 2.0 -->
      <g transform="translate(680.102875 669.276875) scale(0.2 -0.2)">
       <use xlink:href="#DejaVuSans-32"/>
       <use xlink:href="#DejaVuSans-2e" x="63.623047"/>
       <use xlink:href="#DejaVuSans-30" x="95.410156"/>
      </g>
     </g>
    </g>
    <g id="text_7">
     <!-- Position $x$ -->
     <g transform="translate(341.958 692.633125) scale(0.2 -0.2)">
      <defs>
       <path id="DejaVuSans-50" d="M 1259 4147 
L 1259 2394 
L 2053 2394 
Q 2494 2394 2734 2622 
Q 2975 2850 2975 3272 
Q 2975 3691 2734 3919 
Q 2494 4147 2053 4147 
L 1259 4147 
z
M 628 4666 
L 2053 4666 
Q 2838 4666 3239 4311 
Q 3641 3956 3641 3272 
Q 3641 2581 3239 2228 
Q 2838 1875 2053 1875 
L 1259 1875 
L 1259 0 
L 628 0 
L 628 4666 
z
" transform="scale(0.015625)"/>
       <path id="DejaVuSans-6f" d="M 1959 3097 
Q 1497 3097 1228 2736 
Q 959 2375 959 1747 
Q 959 1119 1226 758 
Q 1494 397 1959 397 
Q 2419 397 2687 759 
Q 2956 1122 2956 1747 
Q 2956 2369 2687 2733 
Q 2419 3097 1959 3097 
z
M 1959 3584 
Q 2709 3584 3137 3096 
Q 3566 2609 3566 1747 
Q 3566 888 3137 398 
Q 2709 -91 1959 -91 
Q 1206 -91 779 398 
Q 353 888 353 1747 
Q 353 2609 779 3096 
Q 1206 3584 1959 3584 
z
" transform="scale(0.015625)"/>
       <path id="DejaVuSans-73" d="M 2834 3397 
L 2834 2853 
Q 2591 2978 2328 3040 
Q 2066 3103 1784 3103 
Q 1356 3103 1142 2972 
Q 928 2841 928 2578 
Q 928 2378 1081 2264 
Q 1234 2150 1697 2047 
L 1894 2003 
Q 2506 1872 2764 1633 
Q 3022 1394 3022 966 
Q 3022 478 2636 193 
Q 2250 -91 1575 -91 
Q 1294 -91 989 -36 
Q 684 19 347 128 
L 347 722 
Q 666 556 975 473 
Q 1284 391 1588 391 
Q 1994 391 2212 530 
Q 2431 669 2431 922 
Q 2431 1156 2273 1281 
Q 2116 1406 1581 1522 
L 1381 1569 
Q 847 1681 609 1914 
Q 372 2147 372 2553 
Q 372 3047 722 3315 
Q 1072 3584 1716 3584 
Q 2034 3584 2315 3537 
Q 2597 3491 2834 3397 
z
" transform="scale(0.015625)"/>
       <path id="DejaVuSans-69" d="M 603 3500 
L 1178 3500 
L 1178 0 
L 603 0 
L 603 3500 
z
M 603 4863 
L 1178 4863 
L 1178 4134 
L 603 4134 
L 603 4863 
z
" transform="scale(0.015625)"/>
       <path id="DejaVuSans-74" d="M 1172 4494 
L 1172 3500 
L 2356 3500 
L 2356 3053 
L 1172 3053 
L 1172 1153 
Q 1172 725 1289 603 
Q 1406 481 1766 481 
L 2356 481 
L 2356 0 
L 1766 0 
Q 1100 0 847 248 
Q 594 497 594 1153 
L 594 3053 
L 172 3053 
L 172 3500 
L 594 3500 
L 594 4494 
L 1172 4494 
z
" transform="scale(0.015625)"/>
       <path id="DejaVuSans-6e" d="M 3513 2113 
L 3513 0 
L 2938 0 
L 2938 2094 
Q 2938 2591 2744 2837 
Q 2550 3084 2163 3084 
Q 1697 3084 1428 2787 
Q 1159 2491 1159 1978 
L 1159 0 
L 581 0 
L 581 3500 
L 1159 3500 
L 1159 2956 
Q 1366 3272 1645 3428 
Q 1925 3584 2291 3584 
Q 2894 3584 3203 3211 
Q 3513 2838 3513 2113 
z
" transform="scale(0.015625)"/>
       <path id="DejaVuSans-20" transform="scale(0.015625)"/>
       <path id="DejaVuSans-Oblique-78" d="M 3841 3500 
L 2234 1784 
L 3219 0 
L 2559 0 
L 1819 1388 
L 531 0 
L -166 0 
L 1556 1844 
L 641 3500 
L 1300 3500 
L 1972 2234 
L 3144 3500 
L 3841 3500 
z
" transform="scale(0.015625)"/>
      </defs>
      <use xlink:href="#DejaVuSans-50" transform="translate(0 0.015625)"/>
      <use xlink:href="#DejaVuSans-6f" transform="translate(60.302734 0.015625)"/>
      <use xlink:href="#DejaVuSans-73" transform="translate(121.484375 0.015625)"/>
      <use xlink:href="#DejaVuSans-69" transform="translate(173.583984 0.015625)"/>
      <use xlink:href="#DejaVuSans-74" transform="translate(201.367188 0.015625)"/>
      <use xlink:href="#DejaVuSans-69" transform="translate(240.576172 0.015625)"/>
      <use xlink:href="#DejaVuSans-6f" transform="translate(268.359375 0.015625)"/>
      <use xlink:href="#DejaVuSans-6e" transform="translate(329.541016 0.015625)"/>
      <use xlink:href="#DejaVuSans-20" transform="translate(392.919922 0.015625)"/>
      <use xlink:href="#DejaVuSans-Oblique-78" transform="translate(424.707031 0.015625)"/>
     </g>
    </g>
   </g>
   <g id="matplotlib.axis_2">
    <g id="ytick_1">
     <g id="line2d_7">
      <defs>
       <path id="m771528dd8b" d="M 0 0 
L -3.5 0 
" style="stroke: #000000; stroke-width: 0.8"/>
      </defs>
      <g>
       <use xlink:href="#m771528dd8b" x="84.71" y="647.08" style="stroke: #000000; stroke-width: 0.8"/>
      </g>
     </g>
     <g id="text_8">
      <!-- 0.0 -->
      <g transform="translate(45.90375 654.678437) scale(0.2 -0.2)">
       <use xlink:href="#DejaVuSans-30"/>
       <use xlink:href="#DejaVuSans-2e" x="63.623047"/>
       <use xlink:href="#DejaVuSans-30" x="95.410156"/>
      </g>
     </g>
    </g>
    <g id="ytick_2">
     <g id="line2d_8">
      <g>
       <use xlink:href="#m771528dd8b" x="84.71" y="527.227545" style="stroke: #000000; stroke-width: 0.8"/>
      </g>
     </g>
     <g id="text_9">
      <!-- 0.2 -->
      <g transform="translate(45.90375 534.825982) scale(0.2 -0.2)">
       <use xlink:href="#DejaVuSans-30"/>
       <use xlink:href="#DejaVuSans-2e" x="63.623047"/>
       <use xlink:href="#DejaVuSans-32" x="95.410156"/>
      </g>
     </g>
    </g>
    <g id="ytick_3">
     <g id="line2d_9">
      <g>
       <use xlink:href="#m771528dd8b" x="84.71" y="407.37509" style="stroke: #000000; stroke-width: 0.8"/>
      </g>
     </g>
     <g id="text_10">
      <!-- 0.4 -->
      <g transform="translate(45.90375 414.973527) scale(0.2 -0.2)">
       <use xlink:href="#DejaVuSans-30"/>
       <use xlink:href="#DejaVuSans-2e" x="63.623047"/>
       <use xlink:href="#DejaVuSans-34" x="95.410156"/>
      </g>
     </g>
    </g>
    <g id="ytick_4">
     <g id="line2d_10">
      <g>
       <use xlink:href="#m771528dd8b" x="84.71" y="287.522635" style="stroke: #000000; stroke-width: 0.8"/>
      </g>
     </g>
     <g id="text_11">
      <!-- 0.6 -->
      <g transform="translate(45.90375 295.121072) scale(0.2 -0.2)">
       <use xlink:href="#DejaVuSans-30"/>
       <use xlink:href="#DejaVuSans-2e" x="63.623047"/>
       <use xlink:href="#DejaVuSans-36" x="95.410156"/>
      </g>
     </g>
    </g>
    <g id="ytick_5">
     <g id="line2d_11">
      <g>
       <use xlink:href="#m771528dd8b" x="84.71" y="167.67018" style="stroke: #000000; stroke-width: 0.8"/>
      </g>
     </g>
     <g id="text_12">
      <!-- 0.8 -->
      <g transform="translate(45.90375 175.268617) scale(0.2 -0.2)">
       <use xlink:href="#DejaVuSans-30"/>
       <use xlink:href="#DejaVuSans-2e" x="63.623047"/>
       <use xlink:href="#DejaVuSans-38" x="95.410156"/>
      </g>
     </g>
    </g>
    <g id="ytick_6">
     <g id="line2d_12">
      <g>
       <use xlink:href="#m771528dd8b" x="84.71" y="47.817725" style="stroke: #000000; stroke-width: 0.8"/>
      </g>
     </g>
     <g id="text_13">
      <!-- 1.0 -->
      <g transform="translate(45.90375 55.416162) scale(0.2 -0.2)">
       <use xlink:href="#DejaVuSans-31"/>
       <use xlink:href="#DejaVuSans-2e" x="63.623047"/>
       <use xlink:href="#DejaVuSans-30" x="95.410156"/>
      </g>
     </g>
    </g>
    <g id="text_14">
     <!-- $\rho$ -->
     <g transform="translate(37.70375 340.74) rotate(-90) scale(0.2 -0.2)">
      <defs>
       <path id="DejaVuSans-Oblique-3c1" d="M 1203 2875 
Q 1453 3194 1981 3475 
Q 2188 3584 2756 3584 
Q 3394 3584 3694 3078 
Q 3994 2572 3834 1747 
Q 3672 922 3175 415 
Q 2678 -91 2041 -91 
Q 1656 -91 1409 63 
Q 1163 213 1044 525 
L 681 -1331 
L 103 -1331 
L 697 1716 
Q 838 2438 1203 2875 
z
M 3238 1747 
Q 3359 2381 3169 2744 
Q 2978 3103 2522 3103 
Q 2066 3103 1734 2744 
Q 1403 2381 1281 1747 
Q 1156 1113 1347 750 
Q 1538 391 1994 391 
Q 2450 391 2781 750 
Q 3113 1113 3238 1747 
z
" transform="scale(0.015625)"/>
      </defs>
      <use xlink:href="#DejaVuSans-Oblique-3c1"/>
     </g>
    </g>
   </g>
   <g id="line2d_13">
    <path d="M -1 47.817725 
L 227.985556 47.817725 
L 227.985556 47.817725 
L 237.534 63.536978 
L 237.534 63.536978 
L 247.082444 89.749145 
L 247.082444 89.749145 
L 256.637 115.180387 
L 256.637 115.180387 
L 266.191556 139.825992 
L 266.191556 139.825992 
L 275.74 163.683259 
L 275.74 163.683259 
L 285.288444 186.780507 
L 285.288444 186.780507 
L 294.843 209.144112 
L 294.843 209.144112 
L 304.397556 230.771371 
L 304.397556 230.771371 
L 313.946 251.661465 
L 313.946 251.661465 
L 323.494444 271.840768 
L 323.494444 271.840768 
L 333.049 291.333835 
L 333.049 291.333835 
L 342.603556 310.139846 
L 342.603556 310.139846 
L 352.152 328.25974 
L 352.152 328.25974 
L 361.700444 345.718071 
L 361.700444 345.718071 
L 371.255 359.620443 
L 371.255 359.620443 
L 485.873 359.620443 
L 485.873 359.620443 
L 495.427556 509.366084 
L 495.427556 509.366084 
L 610.045556 509.366084 
L 610.045556 509.366084 
L 619.594 572.172216 
L 619.594 572.172216 
L 686.457556 572.172216 
L 686.457556 572.172216 
" clip-path="url(#p0a14080b06)" style="fill: none; stroke: #1f77b4; stroke-width: 1.5; stroke-linecap: square"/>
   </g>
   <g id="line2d_14">
    <path d="M -1 55.567703 
L 8.298 53.051681 
L 8.298 53.051681 
L 17.8495 51.211347 
L 17.8495 51.211347 
L 27.401 49.948701 
L 27.401 49.948701 
L 36.9525 49.113929 
L 36.9525 49.113929 
L 46.504 48.583582 
L 46.504 48.583582 
L 56.0555 48.25998 
L 56.0555 48.25998 
L 75.1585 47.980125 
L 75.1585 47.980125 
L 94.258444 47.980125 
L 94.258444 47.980125 
L 113.367556 48.25998 
L 113.367556 48.25998 
L 122.916 48.583582 
L 122.916 48.583582 
L 132.464444 49.113929 
L 132.464444 49.113929 
L 142.019 49.948701 
L 142.019 49.948701 
L 151.573556 51.211347 
L 151.573556 51.211347 
L 161.122 53.051681 
L 161.122 53.051681 
L 170.670444 55.6357 
L 170.670444 55.6357 
L 180.225 59.139587 
L 180.225 59.139587 
L 189.779556 63.728737 
L 189.779556 63.728737 
L 199.328 69.543978 
L 199.328 69.543978 
L 208.876444 76.69138 
L 208.876444 76.69138 
L 218.431 85.232665 
L 218.431 85.232665 
L 227.985556 95.179819 
L 227.985556 95.179819 
L 237.534 106.493891 
L 237.534 106.493891 
L 247.082444 119.099373 
L 247.082444 119.099373 
L 256.637 132.89499 
L 256.637 132.89499 
L 266.191556 147.750702 
L 266.191556 147.750702 
L 275.74 163.516693 
L 275.74 163.516693 
L 285.288444 180.047343 
L 285.288444 180.047343 
L 294.843 197.203023 
L 294.843 197.203023 
L 304.397556 214.836915 
L 304.397556 214.836915 
L 323.494444 250.959846 
L 342.603556 287.342257 
L 342.603556 287.342257 
L 352.152 305.223045 
L 352.152 305.223045 
L 361.700444 322.556107 
L 371.255 338.832669 
L 371.255 338.832669 
L 380.809556 352.903947 
L 380.809556 352.903947 
L 390.358 362.384875 
L 390.358 362.384875 
L 399.906444 365.413547 
L 399.906444 365.413547 
L 409.461 366.284275 
L 419.015556 367.448042 
L 419.015556 367.448042 
L 428.564 369.791158 
L 438.112444 374.205324 
L 447.667 381.607411 
L 457.221556 392.559529 
L 466.77 406.932834 
L 476.318444 423.821244 
L 485.873 441.724204 
L 495.427556 458.965579 
L 504.976 474.154481 
L 514.524444 486.462129 
L 524.079 495.666798 
L 533.633556 502.046544 
L 543.182 506.191042 
L 552.730444 508.803826 
L 552.730444 508.803826 
L 562.285 510.577642 
L 562.285 510.577642 
L 571.839556 512.145911 
L 571.839556 512.145312 
L 581.388 514.092914 
L 581.388 514.092315 
L 590.936444 516.990947 
L 590.936444 516.990947 
L 600.491 521.400319 
L 600.491 521.400319 
L 610.045556 527.762686 
L 610.045556 527.762087 
L 619.594 536.136777 
L 619.594 536.136777 
L 629.142444 545.843028 
L 629.142444 545.843028 
L 638.697 555.346729 
L 638.697 555.346729 
L 648.251556 562.913014 
L 648.251556 562.913014 
L 657.8 567.731083 
L 657.8 567.731083 
L 667.348444 570.242591 
L 667.348444 570.242591 
L 676.903 571.371601 
L 676.903 571.371601 
L 686.457556 571.818651 
L 686.457556 571.818651 
" clip-path="url(#p0a14080b06)" style="fill: none; stroke: #ff7f0e; stroke-width: 1.5; stroke-linecap: square"/>
   </g>
   <g id="line2d_15">
    <path d="M -1 63.496472 
L 8.298 59.922223 
L 8.298 59.922223 
L 17.8495 56.945088 
L 17.8495 56.945088 
L 27.401 54.582197 
L 27.401 54.582197 
L 36.9525 52.753848 
L 36.9525 52.753848 
L 46.504 51.382736 
L 46.504 51.382736 
L 56.0555 50.397549 
L 56.0555 50.397549 
L 65.607 49.738959 
L 65.607 49.738959 
L 75.1585 49.363222 
L 75.1585 49.363222 
L 84.71 49.240972 
L 84.71 49.240972 
L 94.258444 49.363222 
L 94.258444 49.363222 
L 103.813 49.738959 
L 103.813 49.738959 
L 113.367556 50.397549 
L 113.367556 50.397549 
L 122.916 51.382736 
L 122.916 51.382736 
L 132.464444 52.753848 
L 132.464444 52.753848 
L 142.019 54.582197 
L 142.019 54.582197 
L 151.573556 56.945688 
L 151.573556 56.945088 
L 161.122 59.922823 
L 161.122 59.922223 
L 170.670444 63.599896 
L 170.670444 63.593304 
L 180.225 68.033238 
L 180.225 68.03204 
L 189.779556 73.303151 
L 189.779556 73.302551 
L 199.328 79.456376 
L 199.328 79.455177 
L 208.876444 86.530667 
L 208.876444 86.529468 
L 218.431 94.552991 
L 218.431 94.551792 
L 227.985556 103.531738 
L 227.985556 103.52994 
L 237.534 113.455521 
L 237.534 113.453723 
L 247.082444 124.306962 
L 247.082444 124.302767 
L 256.637 136.056698 
L 256.637 136.054301 
L 266.191556 148.660981 
L 266.191556 148.657985 
L 275.74 162.05689 
L 275.74 162.054493 
L 285.288444 176.185697 
L 285.288444 176.183899 
L 294.843 190.986276 
L 294.843 190.985078 
L 304.397556 206.378328 
L 304.397556 206.377129 
L 313.946 222.272561 
L 313.946 222.271962 
L 323.494444 238.583881 
L 323.494444 238.583881 
L 342.603556 272.103017 
L 361.700444 305.717436 
L 361.700444 305.717436 
L 371.255 321.644029 
L 371.255 321.644029 
L 380.809556 335.739277 
L 380.809556 335.739277 
L 390.358 346.509818 
L 399.906444 353.521786 
L 419.015556 364.413378 
L 419.015556 364.415176 
L 428.564 370.912377 
L 438.112444 378.980245 
L 447.667 388.745823 
L 457.221556 400.164766 
L 466.77 412.948229 
L 476.318444 426.640173 
L 485.873 440.646131 
L 495.427556 454.318899 
L 504.976 467.065208 
L 514.524444 478.427221 
L 524.079 488.119689 
L 533.633556 496.053322 
L 543.182 502.331194 
L 552.730444 507.207391 
L 552.730444 507.207391 
L 562.285 511.029486 
L 562.285 511.028886 
L 571.839556 514.185201 
L 571.839556 514.183403 
L 590.936444 520.008232 
L 590.936444 520.005236 
L 600.491 523.313763 
L 600.491 523.311366 
L 610.045556 527.187994 
L 610.045556 527.186196 
L 619.594 531.750177 
L 619.594 531.748979 
L 629.142444 537.014696 
L 629.142444 537.014696 
L 638.697 542.867092 
L 638.697 542.867092 
L 648.251556 549.025111 
L 648.251556 549.025111 
L 657.8 555.026123 
L 657.8 555.025524 
L 667.348444 560.282852 
L 667.348444 560.282852 
L 676.903 564.260755 
L 676.903 564.260755 
L 686.457556 566.6614 
L 686.457556 566.6614 
" clip-path="url(#p0a14080b06)" style="fill: none; stroke: #2ca02c; stroke-width: 1.5; stroke-linecap: square"/>
   </g>
   <g id="line2d_16">
    <path d="M -1 60.35556 
L 8.298 57.104492 
L 8.298 57.104492 
L 17.8495 54.507889 
L 17.8495 54.507889 
L 27.401 52.535716 
L 27.401 52.535716 
L 36.9525 51.075914 
L 36.9525 51.075914 
L 46.504 50.024208 
L 46.504 50.024208 
L 56.0555 49.29131 
L 56.0555 49.29131 
L 65.607 48.803511 
L 65.607 48.803511 
L 75.1585 48.501483 
L 75.1585 48.501483 
L 84.71 48.381031 
L 84.71 48.381031 
L 94.258444 48.501483 
L 94.258444 48.501483 
L 103.813 48.803511 
L 103.813 48.803511 
L 113.367556 49.29131 
L 113.367556 49.29131 
L 122.916 50.024208 
L 122.916 50.024208 
L 132.464444 51.075914 
L 132.464444 51.075914 
L 142.019 52.535716 
L 142.019 52.535716 
L 151.573556 54.507889 
L 151.573556 54.507889 
L 161.122 57.105091 
L 161.122 57.104492 
L 170.670444 60.443581 
L 170.670444 60.443581 
L 180.225 64.639017 
L 180.225 64.639017 
L 189.779556 69.795069 
L 189.779556 69.795069 
L 199.328 75.996835 
L 199.328 75.996235 
L 208.876444 83.310831 
L 208.876444 83.307235 
L 218.431 91.786197 
L 218.431 91.783201 
L 227.985556 101.432522 
L 227.985556 101.390573 
L 237.534 112.206658 
L 237.534 112.200066 
L 247.082444 124.103213 
L 247.082444 124.069055 
L 256.637 137.086829 
L 256.637 137.049076 
L 266.191556 151.028666 
L 266.191556 150.967541 
L 275.74 165.903554 
L 275.74 165.889771 
L 285.288444 181.29201 
L 285.288444 181.164967 
L 285.288444 181.582653 
L 285.288444 181.446021 
L 294.843 197.727378 
L 294.843 197.405574 
L 294.843 198.022215 
L 294.843 197.870601 
L 304.397556 214.427619 
L 304.397556 214.880062 
L 304.397556 214.672717 
L 313.946 231.994393 
L 313.946 231.859559 
L 313.946 231.667795 
L 313.946 232.551108 
L 313.946 232.081885 
L 323.494444 249.365209 
L 323.494444 249.19382 
L 323.494444 250.063349 
L 323.494444 249.793082 
L 333.049 267.426374 
L 333.049 268.546995 
L 333.049 266.92599 
L 342.603556 284.938616 
L 342.603556 286.843671 
L 342.603556 284.282424 
L 342.603556 285.358099 
L 352.152 303.356942 
L 352.152 304.693896 
L 352.152 302.982403 
L 352.152 303.280236 
L 361.700444 319.779125 
L 361.700444 322.718507 
L 361.700444 319.700023 
L 371.255 336.231272 
L 371.255 330.47356 
L 371.255 336.593226 
L 380.809556 350.523078 
L 380.809556 343.045483 
L 380.809556 350.768176 
L 390.358 356.914809 
L 390.358 352.485062 
L 390.358 359.510214 
L 390.358 359.427516 
L 399.906444 358.936121 
L 399.906444 354.800612 
L 399.906444 360.616452 
L 409.461 360.989793 
L 409.461 357.306127 
L 409.461 362.243449 
L 409.461 362.103821 
L 419.015556 362.891851 
L 419.015556 360.39113 
L 419.015556 363.645124 
L 419.015556 363.287364 
L 428.564 366.441881 
L 428.564 365.357815 
L 428.564 366.80803 
L 428.564 366.317834 
L 438.112444 372.46147 
L 438.112444 372.414728 
L 438.112444 372.63226 
L 438.112444 371.998241 
L 447.667 381.325758 
L 447.667 381.931612 
L 447.667 380.756459 
L 457.221556 393.356547 
L 457.221556 394.123603 
L 457.221556 392.653013 
L 466.77 408.013304 
L 466.77 408.739011 
L 466.77 407.292392 
L 476.318444 424.386348 
L 476.318444 424.989206 
L 476.318444 423.739145 
L 485.873 441.277754 
L 485.873 441.75237 
L 485.873 440.749804 
L 495.427556 457.45364 
L 495.427556 457.802411 
L 495.427556 457.04794 
L 504.976 471.892865 
L 504.976 472.136165 
L 504.976 471.599226 
L 514.524444 484.111223 
L 514.524444 483.747471 
L 524.079 493.469303 
L 524.079 493.232595 
L 533.633556 500.311081 
L 533.633556 500.150478 
L 543.182 504.972742 
L 543.182 504.864875 
L 552.730444 507.935494 
L 552.730444 507.85759 
L 562.285 509.75905 
L 562.285 509.667962 
L 571.839556 511.097802 
L 571.839556 510.991133 
L 581.388 512.597755 
L 581.388 512.516255 
L 590.936444 514.764088 
L 590.936444 514.751504 
L 600.491 518.078008 
L 600.491 518.057034 
L 610.045556 522.767835 
L 610.045556 522.724688 
L 619.594 528.943233 
L 619.594 528.915067 
L 629.142444 536.399853 
L 629.142444 536.357905 
L 638.697 544.594765 
L 638.697 544.565401 
L 648.251556 552.620685 
L 648.251556 552.606902 
L 657.8 559.547557 
L 657.8 559.540965 
L 667.348444 564.724584 
L 667.348444 564.724584 
L 676.903 568.064273 
L 686.457556 569.897416 
L 686.457556 569.897416 
" clip-path="url(#p0a14080b06)" style="fill: none; stroke: #d62728; stroke-width: 1.5; stroke-linecap: square"/>
   </g>
   <g id="line2d_17">
    <path d="M -1 63.723598 
L 8.298 60.106197 
L 8.298 60.106197 
L 17.8495 57.09011 
L 17.8495 57.09011 
L 27.401 54.695458 
L 27.401 54.695458 
L 36.9525 52.84134 
L 36.9525 52.84134 
L 46.504 51.449254 
L 46.504 51.449254 
L 56.0555 50.448486 
L 56.0555 50.449085 
L 65.607 49.779709 
L 65.607 49.780309 
L 75.1585 49.397979 
L 75.1585 49.399178 
L 84.71 49.273932 
L 84.71 49.276329 
L 94.258444 49.402773 
L 103.813 49.788099 
L 113.367556 50.46167 
L 122.916 51.467831 
L 132.464444 52.866509 
L 142.019 54.730215 
L 151.573556 57.133856 
L 151.573556 57.133856 
L 161.122 60.158932 
L 161.122 60.158932 
L 170.670444 63.888141 
L 180.225 68.390398 
L 180.225 68.385604 
L 189.779556 73.730425 
L 189.779556 73.721436 
L 199.328 79.966947 
L 199.328 79.94058 
L 208.876444 87.095172 
L 208.876444 87.08019 
L 218.431 95.175624 
L 227.985556 104.267632 
L 227.985556 104.219691 
L 237.534 114.31726 
L 237.534 114.208194 
L 247.082444 125.231624 
L 247.082444 125.078812 
L 256.637 137.056267 
L 256.637 136.979561 
L 266.191556 149.761227 
L 266.191556 149.529911 
L 275.74 163.27519 
L 275.74 162.96657 
L 275.74 163.028893 
L 285.288444 177.554412 
L 285.288444 177.086987 
L 294.843 192.465256 
L 294.843 192.277686 
L 294.843 192.064948 
L 304.397556 207.84712 
L 304.397556 207.606815 
L 313.946 223.907948 
L 313.946 223.57296 
L 313.946 223.997837 
L 313.946 223.65446 
L 323.494444 240.663321 
L 323.494444 240.865872 
L 323.494444 240.24144 
L 333.049 257.621844 
L 333.049 258.174963 
L 333.049 257.21135 
L 342.603556 274.908164 
L 342.603556 275.585929 
L 342.603556 274.606136 
L 352.152 292.328119 
L 352.152 292.117179 
L 352.152 291.4496 
L 352.152 292.272987 
L 352.152 292.156131 
L 361.700444 310.280818 
L 361.700444 311.023903 
L 361.700444 310.094448 
L 371.255 327.124882 
L 371.255 326.963681 
L 371.255 326.725774 
L 371.255 328.049544 
L 371.255 327.815832 
L 380.809556 343.475753 
L 380.809556 344.733605 
L 380.809556 344.548433 
L 390.358 355.292606 
L 390.358 357.762765 
L 390.358 357.432572 
L 399.906444 361.134215 
L 399.906444 360.727915 
L 399.906444 361.581864 
L 409.461 365.354819 
L 409.461 365.334444 
L 409.461 365.514822 
L 409.461 365.275716 
L 419.015556 370.0003 
L 419.015556 369.954756 
L 419.015556 370.141726 
L 419.015556 370.017679 
L 428.564 375.959964 
L 428.564 375.91442 
L 428.564 376.116371 
L 428.564 376.069029 
L 438.112444 383.922961 
L 438.112444 383.910975 
L 438.112444 384.147684 
L 438.112444 384.136897 
L 447.667 393.973788 
L 447.667 394.300385 
L 457.221556 406.105852 
L 457.221556 406.513351 
L 466.77 419.891282 
L 466.77 420.480357 
L 476.318444 435.15569 
L 476.318444 435.129323 
L 476.318444 435.694427 
L 485.873 450.900707 
L 485.873 450.771866 
L 485.873 451.459819 
L 495.427556 466.042267 
L 495.427556 465.866084 
L 495.427556 466.556434 
L 504.976 479.334504 
L 504.976 479.164313 
L 504.976 479.759381 
L 514.524444 490.039126 
L 514.524444 489.901296 
L 514.524444 490.359132 
L 524.079 498.058454 
L 524.079 498.204674 
L 533.633556 503.502751 
L 533.633556 503.596836 
L 543.182 507.10252 
L 552.730444 509.370128 
L 571.839556 512.728993 
L 581.388 514.968437 
L 590.936444 518.314118 
L 600.491 523.300579 
L 600.491 523.292789 
L 610.045556 530.264606 
L 619.594 539.082751 
L 629.142444 548.818965 
L 629.142444 548.817167 
L 638.697 557.825877 
L 638.697 557.822281 
L 648.251556 564.55739 
L 648.251556 564.556191 
L 657.8 568.595818 
L 667.348444 570.612336 
L 667.348444 570.612336 
L 676.903 571.492652 
L 676.903 571.492652 
L 686.457556 571.839625 
L 686.457556 571.839625 
" clip-path="url(#p0a14080b06)" style="fill: none; stroke: #9467bd; stroke-width: 1.5; stroke-linecap: square"/>
   </g>
   <g id="patch_3">
    <path d="M 84.71 647.08 
L 84.71 21.6 
" style="fill: none; stroke: #000000; stroke-width: 0.8; stroke-linejoin: miter; stroke-linecap: square"/>
   </g>
   <g id="patch_4">
    <path d="M 696.006 647.08 
L 696.006 21.6 
" style="fill: none; stroke: #000000; stroke-width: 0.8; stroke-linejoin: miter; stroke-linecap: square"/>
   </g>
   <g id="patch_5">
    <path d="M 84.71 647.08 
L 696.006 647.08 
" style="fill: none; stroke: #000000; stroke-width: 0.8; stroke-linejoin: miter; stroke-linecap: square"/>
   </g>
   <g id="patch_6">
    <path d="M 84.71 21.6 
L 696.006 21.6 
" style="fill: none; stroke: #000000; stroke-width: 0.8; stroke-linejoin: miter; stroke-linecap: square"/>
   </g>
  </g>
  <g id="axes_2">
   <g id="patch_7">
    <path d="M 797.942 647.08 
L 1409.238 647.08 
L 1409.238 21.6 
L 797.942 21.6 
z
" style="fill: #ffffff"/>
   </g>
   <g id="matplotlib.axis_3">
    <g id="xtick_7">
     <g id="line2d_18">
      <g>
       <use xlink:href="#mc48d9d4813" x="797.942" y="647.08" style="stroke: #000000; stroke-width: 0.8"/>
      </g>
     </g>
     <g id="text_15">
      <!-- 1.0 -->
      <g transform="translate(782.038875 669.276875) scale(0.2 -0.2)">
       <use xlink:href="#DejaVuSans-31"/>
       <use xlink:href="#DejaVuSans-2e" x="63.623047"/>
       <use xlink:href="#DejaVuSans-30" x="95.410156"/>
      </g>
     </g>
    </g>
    <g id="xtick_8">
     <g id="line2d_19">
      <g>
       <use xlink:href="#mc48d9d4813" x="920.2012" y="647.08" style="stroke: #000000; stroke-width: 0.8"/>
      </g>
     </g>
     <g id="text_16">
      <!-- 1.2 -->
      <g transform="translate(904.298075 669.276875) scale(0.2 -0.2)">
       <use xlink:href="#DejaVuSans-31"/>
       <use xlink:href="#DejaVuSans-2e" x="63.623047"/>
       <use xlink:href="#DejaVuSans-32" x="95.410156"/>
      </g>
     </g>
    </g>
    <g id="xtick_9">
     <g id="line2d_20">
      <g>
       <use xlink:href="#mc48d9d4813" x="1042.4604" y="647.08" style="stroke: #000000; stroke-width: 0.8"/>
      </g>
     </g>
     <g id="text_17">
      <!-- 1.4 -->
      <g transform="translate(1026.557275 669.276875) scale(0.2 -0.2)">
       <use xlink:href="#DejaVuSans-31"/>
       <use xlink:href="#DejaVuSans-2e" x="63.623047"/>
       <use xlink:href="#DejaVuSans-34" x="95.410156"/>
      </g>
     </g>
    </g>
    <g id="xtick_10">
     <g id="line2d_21">
      <g>
       <use xlink:href="#mc48d9d4813" x="1164.7196" y="647.08" style="stroke: #000000; stroke-width: 0.8"/>
      </g>
     </g>
     <g id="text_18">
      <!-- 1.6 -->
      <g transform="translate(1148.816475 669.276875) scale(0.2 -0.2)">
       <use xlink:href="#DejaVuSans-31"/>
       <use xlink:href="#DejaVuSans-2e" x="63.623047"/>
       <use xlink:href="#DejaVuSans-36" x="95.410156"/>
      </g>
     </g>
    </g>
    <g id="xtick_11">
     <g id="line2d_22">
      <g>
       <use xlink:href="#mc48d9d4813" x="1286.9788" y="647.08" style="stroke: #000000; stroke-width: 0.8"/>
      </g>
     </g>
     <g id="text_19">
      <!-- 1.8 -->
      <g transform="translate(1271.075675 669.276875) scale(0.2 -0.2)">
       <use xlink:href="#DejaVuSans-31"/>
       <use xlink:href="#DejaVuSans-2e" x="63.623047"/>
       <use xlink:href="#DejaVuSans-38" x="95.410156"/>
      </g>
     </g>
    </g>
    <g id="xtick_12">
     <g id="line2d_23">
      <g>
       <use xlink:href="#mc48d9d4813" x="1409.238" y="647.08" style="stroke: #000000; stroke-width: 0.8"/>
      </g>
     </g>
     <g id="text_20">
      <!-- 2.0 -->
      <g transform="translate(1393.334875 669.276875) scale(0.2 -0.2)">
       <use xlink:href="#DejaVuSans-32"/>
       <use xlink:href="#DejaVuSans-2e" x="63.623047"/>
       <use xlink:href="#DejaVuSans-30" x="95.410156"/>
      </g>
     </g>
    </g>
    <g id="text_21">
     <!-- Position $x$ -->
     <g transform="translate(1055.19 692.633125) scale(0.2 -0.2)">
      <use xlink:href="#DejaVuSans-50" transform="translate(0 0.015625)"/>
      <use xlink:href="#DejaVuSans-6f" transform="translate(60.302734 0.015625)"/>
      <use xlink:href="#DejaVuSans-73" transform="translate(121.484375 0.015625)"/>
      <use xlink:href="#DejaVuSans-69" transform="translate(173.583984 0.015625)"/>
      <use xlink:href="#DejaVuSans-74" transform="translate(201.367188 0.015625)"/>
      <use xlink:href="#DejaVuSans-69" transform="translate(240.576172 0.015625)"/>
      <use xlink:href="#DejaVuSans-6f" transform="translate(268.359375 0.015625)"/>
      <use xlink:href="#DejaVuSans-6e" transform="translate(329.541016 0.015625)"/>
      <use xlink:href="#DejaVuSans-20" transform="translate(392.919922 0.015625)"/>
      <use xlink:href="#DejaVuSans-Oblique-78" transform="translate(424.707031 0.015625)"/>
     </g>
    </g>
   </g>
   <g id="matplotlib.axis_4">
    <g id="ytick_7">
     <g id="line2d_24">
      <g>
       <use xlink:href="#m771528dd8b" x="797.942" y="647.08" style="stroke: #000000; stroke-width: 0.8"/>
      </g>
     </g>
     <g id="text_22">
      <!-- 0.0 -->
      <g transform="translate(759.13575 654.678437) scale(0.2 -0.2)">
       <use xlink:href="#DejaVuSans-30"/>
       <use xlink:href="#DejaVuSans-2e" x="63.623047"/>
       <use xlink:href="#DejaVuSans-30" x="95.410156"/>
      </g>
     </g>
    </g>
    <g id="ytick_8">
     <g id="line2d_25">
      <g>
       <use xlink:href="#m771528dd8b" x="797.942" y="512.94169" style="stroke: #000000; stroke-width: 0.8"/>
      </g>
     </g>
     <g id="text_23">
      <!-- 0.2 -->
      <g transform="translate(759.13575 520.540127) scale(0.2 -0.2)">
       <use xlink:href="#DejaVuSans-30"/>
       <use xlink:href="#DejaVuSans-2e" x="63.623047"/>
       <use xlink:href="#DejaVuSans-32" x="95.410156"/>
      </g>
     </g>
    </g>
    <g id="ytick_9">
     <g id="line2d_26">
      <g>
       <use xlink:href="#m771528dd8b" x="797.942" y="378.803379" style="stroke: #000000; stroke-width: 0.8"/>
      </g>
     </g>
     <g id="text_24">
      <!-- 0.4 -->
      <g transform="translate(759.13575 386.401817) scale(0.2 -0.2)">
       <use xlink:href="#DejaVuSans-30"/>
       <use xlink:href="#DejaVuSans-2e" x="63.623047"/>
       <use xlink:href="#DejaVuSans-34" x="95.410156"/>
      </g>
     </g>
    </g>
    <g id="ytick_10">
     <g id="line2d_27">
      <g>
       <use xlink:href="#m771528dd8b" x="797.942" y="244.665069" style="stroke: #000000; stroke-width: 0.8"/>
      </g>
     </g>
     <g id="text_25">
      <!-- 0.6 -->
      <g transform="translate(759.13575 252.263506) scale(0.2 -0.2)">
       <use xlink:href="#DejaVuSans-30"/>
       <use xlink:href="#DejaVuSans-2e" x="63.623047"/>
       <use xlink:href="#DejaVuSans-36" x="95.410156"/>
      </g>
     </g>
    </g>
    <g id="ytick_11">
     <g id="line2d_28">
      <g>
       <use xlink:href="#m771528dd8b" x="797.942" y="110.526758" style="stroke: #000000; stroke-width: 0.8"/>
      </g>
     </g>
     <g id="text_26">
      <!-- 0.8 -->
      <g transform="translate(759.13575 118.125196) scale(0.2 -0.2)">
       <use xlink:href="#DejaVuSans-30"/>
       <use xlink:href="#DejaVuSans-2e" x="63.623047"/>
       <use xlink:href="#DejaVuSans-38" x="95.410156"/>
      </g>
     </g>
    </g>
    <g id="text_27">
     <!-- $U_x$ -->
     <g transform="translate(750.976375 346.14) rotate(-90) scale(0.2 -0.2)">
      <defs>
       <path id="DejaVuSans-Oblique-55" d="M 991 4666 
L 1625 4666 
L 1075 1831 
Q 1041 1641 1027 1517 
Q 1013 1394 1013 1300 
Q 1013 869 1253 645 
Q 1494 422 1959 422 
Q 2563 422 2898 753 
Q 3234 1084 3378 1831 
L 3928 4666 
L 4563 4666 
L 4000 1753 
Q 3816 809 3300 359 
Q 2784 -91 1888 -91 
Q 1188 -91 780 261 
Q 372 613 372 1216 
Q 372 1325 387 1461 
Q 403 1597 434 1753 
L 991 4666 
z
" transform="scale(0.015625)"/>
      </defs>
      <use xlink:href="#DejaVuSans-Oblique-55" transform="translate(0 0.09375)"/>
      <use xlink:href="#DejaVuSans-Oblique-78" transform="translate(73.193359 -16.3125) scale(0.7)"/>
     </g>
    </g>
   </g>
   <g id="line2d_29">
    <path d="M 186.646 647.08 
L 941.217556 647.08 
L 941.217556 647.08 
L 950.766 624.166109 
L 950.766 624.166109 
L 1074.932444 115.163304 
L 1074.932444 115.163304 
L 1084.487 82.897719 
L 1084.487 82.897719 
L 1323.277556 82.897719 
L 1323.277556 82.897719 
L 1332.826 647.08 
L 1332.826 647.08 
L 1399.689556 647.08 
L 1399.689556 647.08 
" clip-path="url(#p51b54dabe5)" style="fill: none; stroke: #1f77b4; stroke-width: 1.5; stroke-linecap: square"/>
   </g>
   <g id="line2d_30">
    <path d="M 186.646 647.07991 
L 186.646 647.079856 
L 186.646 647.079972 
L 196.1975 649.359996 
L 205.749 653.755601 
L 215.3005 663.977135 
L 224.852 687.103653 
L 231.857812 721 
M 650.601121 721 
L 654.6695 713.839966 
L 664.221 699.304068 
L 673.7725 687.006872 
L 683.324 676.856022 
L 692.8755 668.701553 
L 702.427 662.342123 
L 711.9785 657.537892 
L 721.53 654.028499 
L 731.0815 651.553144 
L 740.633 649.868427 
L 750.1845 648.762155 
L 759.736 648.06037 
L 769.2875 647.628212 
L 788.3905 647.200878 
L 817.045 646.794255 
L 826.599556 646.531745 
L 836.148 646.09955 
L 845.696444 645.398087 
L 855.251 644.291996 
L 864.805556 642.606588 
L 874.354 640.130965 
L 883.902444 636.623382 
L 893.457 631.819822 
L 903.011556 625.457508 
L 912.56 617.302502 
L 922.108444 607.156884 
L 931.663 594.861029 
L 941.217556 580.31829 
L 950.766 563.507808 
L 950.766 563.507808 
L 960.314444 544.450779 
L 960.314444 544.450779 
L 969.869 523.186503 
L 969.869 523.186503 
L 979.423556 499.798818 
L 979.423556 499.798818 
L 988.972 474.42052 
L 988.972 474.42052 
L 998.520444 447.177029 
L 998.520444 447.177029 
L 1008.075 418.166937 
L 1008.075 418.166937 
L 1017.629556 387.51365 
L 1017.629556 387.514321 
L 1027.178 355.370758 
L 1027.178 355.371428 
L 1036.726444 321.869044 
L 1036.726444 321.869715 
L 1046.281 287.119173 
L 1046.281 287.119173 
L 1055.835556 251.295525 
L 1055.835556 251.296196 
L 1084.487 141.790374 
L 1084.487 141.793057 
L 1094.041556 109.350365 
L 1094.041556 109.353719 
L 1103.59 86.950609 
L 1103.59 86.955304 
L 1113.138444 80.595136 
L 1113.138444 80.601172 
L 1122.693 80.204122 
L 1122.693 80.210159 
L 1141.796 80.545504 
L 1170.453556 80.587758 
L 1208.659556 80.522701 
L 1208.659556 80.532761 
L 1227.756444 80.724579 
L 1237.311 81.038463 
L 1246.865556 81.692387 
L 1256.414 82.996211 
L 1265.962444 85.48716 
L 1275.517 90.066642 
L 1285.071556 98.184692 
L 1294.62 112.086787 
L 1304.168444 135.051265 
L 1313.723 171.381285 
L 1323.277556 225.693217 
L 1332.826 300.684581 
L 1342.374444 392.445916 
L 1351.929 486.006046 
L 1361.483556 560.846504 
L 1371.032 607.048098 
L 1380.580444 630.179244 
L 1390.135 640.404895 
L 1399.689556 644.800192 
L 1399.689556 644.800192 
" clip-path="url(#p51b54dabe5)" style="fill: none; stroke: #ff7f0e; stroke-width: 1.5; stroke-linecap: square"/>
   </g>
   <g id="line2d_31">
    <path d="M 186.646 647.075648 
L 186.646 647.072612 
L 196.1975 671.731939 
L 196.1975 671.726104 
L 205.749 702.727546 
L 205.749 702.718023 
L 209.940234 721 
M 657.737167 721 
L 664.221 711.918234 
L 664.221 711.918636 
L 673.7725 700.169261 
L 673.7725 700.169529 
L 683.324 689.975554 
L 683.324 689.975688 
L 692.8755 681.248314 
L 692.8755 681.248381 
L 702.427 673.884255 
L 702.427 673.884322 
L 711.9785 667.767213 
L 711.9785 667.767213 
L 721.53 662.770494 
L 731.0815 658.760228 
L 740.633 655.598588 
L 750.1845 653.14776 
L 759.736 651.273439 
L 769.2875 649.847132 
L 778.839 648.747721 
L 797.942 647.079807 
L 817.045 645.412453 
L 817.045 645.412828 
L 826.599556 644.31278 
L 826.599556 644.312847 
L 836.148 642.886414 
L 845.696444 641.012971 
L 845.696444 641.013092 
L 855.251 638.562217 
L 855.251 638.562284 
L 864.805556 635.398029 
L 864.805556 635.399035 
L 874.354 631.385684 
L 874.354 631.388098 
L 883.902444 626.390574 
L 883.902444 626.394196 
L 893.457 620.275946 
L 893.457 620.277891 
L 903.011556 612.907595 
L 903.011556 612.910076 
L 912.56 604.181026 
L 912.56 604.182434 
L 922.108444 593.991611 
L 922.108444 593.995099 
L 931.663 582.240425 
L 931.663 582.247601 
L 941.217556 568.850537 
L 941.217556 568.869317 
L 950.766 553.769367 
L 950.766 553.808267 
L 960.314444 536.992018 
L 960.314444 537.016163 
L 969.869 518.424593 
L 969.869 518.448067 
L 979.423556 498.086542 
L 979.423556 498.10398 
L 988.972 475.967806 
L 988.972 475.986585 
L 998.520444 452.079114 
L 998.520444 452.099235 
L 1008.075 426.404371 
L 1008.075 426.429857 
L 1017.629556 398.980464 
L 1017.629556 398.999243 
L 1027.178 369.861719 
L 1027.178 369.874462 
L 1036.726444 339.091062 
L 1036.726444 339.099781 
L 1046.281 306.724829 
L 1046.281 306.730194 
L 1055.835556 272.930023 
L 1055.835556 272.934047 
L 1065.384 238.043331 
L 1065.384 238.046684 
L 1074.932444 202.695874 
L 1074.932444 202.699228 
L 1084.487 168.233059 
L 1084.487 168.236413 
L 1094.041556 137.47045 
L 1094.041556 137.473133 
L 1103.59 114.788332 
L 1103.59 114.791015 
L 1113.138444 102.509982 
L 1113.138444 102.511994 
L 1122.693 96.496562 
L 1122.693 96.499244 
L 1132.247556 93.293339 
L 1132.247556 93.296692 
L 1141.796 91.514665 
L 1141.796 91.51936 
L 1151.344444 90.225596 
L 1151.344444 90.230961 
L 1160.899 89.322845 
L 1160.899 89.32821 
L 1170.453556 88.650141 
L 1170.453556 88.654836 
L 1180.002 88.204802 
L 1180.002 88.21218 
L 1189.550444 87.993534 
L 1189.550444 88.004936 
L 1199.105 88.077371 
L 1208.659556 88.495211 
L 1218.208 89.363086 
L 1227.756444 90.835925 
L 1237.311 93.127007 
L 1246.865556 96.518694 
L 1256.414 101.237009 
L 1256.414 101.374501 
L 1265.962444 107.970082 
L 1265.962444 108.147815 
L 1275.517 117.186725 
L 1275.517 117.387933 
L 1285.071556 129.55629 
L 1285.071556 129.760851 
L 1294.62 145.88897 
L 1294.62 146.081459 
L 1304.168444 167.304152 
L 1313.723 194.446368 
L 1323.277556 228.481952 
L 1332.826 270.206344 
L 1342.374444 319.887821 
L 1351.929 376.566623 
L 1361.483556 437.303779 
L 1371.032 497.024838 
L 1371.032 497.023496 
L 1380.580444 549.744547 
L 1380.580444 549.743206 
L 1390.135 591.424338 
L 1390.135 591.422863 
L 1399.689556 622.423635 
L 1399.689556 622.422159 
" clip-path="url(#p51b54dabe5)" style="fill: none; stroke: #2ca02c; stroke-width: 1.5; stroke-linecap: square"/>
   </g>
   <g id="line2d_32">
    <path d="M 186.646 647.078589 
L 186.646 647.098153 
L 196.1975 662.751647 
L 205.749 681.489897 
L 215.3005 712.15472 
L 217.043696 721 
M 655.879711 721 
L 664.221 708.604548 
L 664.221 708.635199 
L 673.7725 696.284682 
L 673.7725 696.286493 
L 683.324 685.786683 
L 683.324 685.787823 
L 692.8755 677.001696 
L 692.8755 677.002032 
L 702.427 669.790354 
L 702.427 669.790622 
L 711.9785 663.989744 
L 711.9785 663.989945 
L 721.53 659.422401 
L 721.53 659.422535 
L 731.0815 655.905362 
L 731.0815 655.905429 
L 740.633 653.258223 
L 740.633 653.25831 
L 750.1845 651.311299 
L 750.1845 651.311373 
L 759.736 649.91111 
L 759.736 649.911177 
L 769.2875 648.921759 
L 769.2875 648.921846 
L 778.839 648.216795 
L 778.839 648.216869 
L 817.045 645.943111 
L 817.045 645.943319 
L 826.599556 645.23639 
L 826.599556 645.2381 
L 836.148 644.24834 
L 836.148 644.248696 
L 845.696444 642.848962 
L 845.696444 642.849036 
L 855.251 640.90218 
L 855.251 640.902274 
L 864.805556 638.2539 
L 864.805556 638.254102 
L 874.354 634.736459 
L 874.354 634.736727 
L 883.902444 630.171128 
L 883.902444 630.171531 
L 893.457 624.370854 
L 893.457 624.371591 
L 903.011556 617.15609 
L 903.011556 617.157163 
L 912.56 608.368488 
L 912.56 608.371238 
L 922.108444 597.870154 
L 922.108444 597.879007 
L 931.663 585.527819 
L 931.663 585.532045 
L 941.217556 571.210701 
L 941.217556 571.367643 
L 950.766 554.904848 
L 950.766 555.286471 
L 950.766 554.868631 
L 950.766 554.882044 
L 960.314444 537.234138 
L 960.314444 536.527899 
L 960.314444 537.220724 
L 969.869 516.189849 
L 969.869 517.190521 
L 969.869 516.219359 
L 979.423556 495.215312 
L 979.423556 493.78741 
L 979.423556 495.124098 
L 988.972 469.662634 
L 988.972 471.099926 
L 988.972 469.572762 
L 998.520444 445.376893 
L 998.520444 443.500969 
L 998.520444 445.230012 
L 1008.075 416.006639 
L 1008.075 417.115963 
L 1008.075 415.427162 
L 1017.629556 386.925454 
L 1017.629556 388.047521 
L 1017.629556 385.777901 
L 1017.629556 388.020022 
L 1027.178 356.545809 
L 1027.178 354.054861 
L 1036.726444 323.597416 
L 1036.726444 320.704723 
L 1036.726444 324.68729 
L 1036.726444 322.171526 
L 1046.281 290.288191 
L 1046.281 285.053443 
L 1055.835556 257.203647 
L 1055.835556 245.56849 
L 1055.835556 259.146641 
L 1055.835556 256.384733 
L 1065.384 221.5745 
L 1065.384 208.354499 
L 1065.384 219.82869 
L 1074.932444 193.879634 
L 1074.932444 162.261222 
L 1074.932444 191.56776 
L 1084.487 162.398714 
L 1084.487 130.153205 
L 1084.487 164.568401 
L 1084.487 160.068731 
L 1094.041556 122.848703 
L 1094.041556 105.333593 
L 1094.041556 131.43825 
L 1103.59 103.93386 
L 1103.59 89.635387 
L 1103.59 108.94795 
L 1113.138444 98.496564 
L 1113.138444 86.562278 
L 1113.138444 102.76954 
L 1122.693 93.412051 
L 1122.693 84.701109 
L 1122.693 96.769533 
L 1132.247556 91.426804 
L 1132.247556 84.982129 
L 1132.247556 93.279254 
L 1141.796 89.937869 
L 1141.796 85.440211 
L 1141.796 89.605206 
L 1151.344444 88.84263 
L 1151.344444 85.603189 
L 1151.344444 87.247054 
L 1160.899 87.992863 
L 1160.899 88.850678 
L 1160.899 85.500574 
L 1170.453556 87.279918 
L 1170.453556 88.791657 
L 1170.453556 84.436857 
L 1180.002 86.683003 
L 1180.002 88.587096 
L 1180.002 83.837259 
L 1189.550444 86.177301 
L 1189.550444 88.262481 
L 1189.550444 83.568982 
L 1199.105 85.790983 
L 1199.105 87.882199 
L 1199.105 83.551544 
L 1208.659556 85.53545 
L 1208.659556 87.539476 
L 1208.659556 83.74202 
L 1218.208 85.469722 
L 1218.208 87.278577 
L 1218.208 84.111571 
L 1227.756444 85.621969 
L 1227.756444 87.169925 
L 1227.756444 84.654161 
L 1237.311 86.029079 
L 1237.311 87.310099 
L 1237.311 85.395275 
L 1246.865556 86.776229 
L 1246.865556 87.850677 
L 1246.865556 86.420762 
L 1256.414 88.219557 
L 1256.414 88.905675 
L 1256.414 87.840616 
L 1265.962444 90.314798 
L 1265.962444 90.237668 
L 1265.962444 89.872141 
L 1265.962444 90.680995 
L 1265.962444 89.951283 
L 1275.517 93.945922 
L 1275.517 93.388577 
L 1285.071556 100.236338 
L 1285.071556 100.45163 
L 1285.071556 99.624667 
L 1294.62 111.131051 
L 1294.62 111.30409 
L 1294.62 110.363109 
L 1304.168444 128.310145 
L 1304.168444 128.510681 
L 1304.168444 127.803102 
L 1313.723 154.36517 
L 1313.723 154.243775 
L 1313.723 155.013729 
L 1313.723 154.400046 
L 1323.277556 192.427586 
L 1323.277556 193.355153 
L 1323.277556 192.968164 
L 1332.826 245.79183 
L 1332.826 245.18016 
L 1332.826 245.079556 
L 1332.826 245.610744 
L 1342.374444 312.465278 
L 1342.374444 312.230536 
L 1361.483556 466.664643 
L 1361.483556 466.64184 
L 1361.483556 466.963772 
L 1361.483556 466.712933 
L 1371.032 533.68685 
L 1371.032 533.603684 
L 1380.580444 582.157058 
L 1380.580444 582.142839 
L 1390.135 612.743409 
L 1399.689556 631.444436 
L 1399.689556 631.444436 
" clip-path="url(#p51b54dabe5)" style="fill: none; stroke: #d62728; stroke-width: 1.5; stroke-linecap: square"/>
   </g>
   <g id="line2d_33">
    <path d="M 186.646 647.078571 
L 186.646 647.079029 
L 196.1975 649.015797 
L 205.749 652.555647 
L 215.3005 660.545877 
L 224.852 678.944556 
L 234.4035 717.165255 
L 234.95773 721 
M 658.372579 721 
L 664.221 712.722326 
L 664.221 712.722997 
L 673.7725 700.848537 
L 673.7725 700.849006 
L 683.324 690.543764 
L 683.324 690.544099 
L 692.8755 681.718268 
L 692.8755 681.718536 
L 702.427 674.268025 
L 702.427 674.268226 
L 711.9785 668.076133 
L 711.9785 668.076267 
L 721.53 663.015229 
L 721.53 663.015296 
L 731.0815 658.950637 
L 731.0815 658.950637 
L 740.633 655.743591 
L 740.633 655.743591 
L 750.1845 653.255433 
L 759.736 651.350548 
L 769.2875 649.899212 
L 778.839 648.778848 
L 797.942 647.075089 
L 817.045 645.372922 
L 817.045 645.367798 
L 826.599556 644.242156 
L 836.148 642.783771 
L 845.696444 640.870825 
L 855.251 638.371808 
L 864.805556 635.149001 
L 864.805556 635.150745 
L 874.354 631.040009 
L 874.354 631.095207 
L 883.902444 625.955429 
L 893.457 619.937649 
L 893.457 619.747777 
L 893.457 619.788756 
L 903.011556 612.322819 
L 912.56 603.485452 
L 922.108444 593.260021 
L 922.108444 593.384703 
L 922.108444 592.993287 
L 922.108444 593.201134 
L 931.663 581.387976 
L 931.663 581.679592 
L 931.663 581.040021 
L 931.663 581.301255 
L 941.217556 567.977297 
L 941.217556 567.697619 
L 941.217556 568.148323 
L 941.217556 567.808283 
L 950.766 552.487676 
L 950.766 552.571512 
L 950.766 552.959842 
L 950.766 551.906186 
L 950.766 552.556757 
L 960.314444 535.738495 
L 960.314444 536.031588 
L 960.314444 535.505095 
L 960.314444 535.914217 
L 969.869 516.788776 
L 969.869 518.45075 
L 969.869 515.920901 
L 969.869 516.946389 
L 979.423556 496.490296 
L 979.423556 494.582179 
L 979.423556 498.492981 
L 988.972 472.127426 
L 988.972 476.244131 
L 988.972 473.403752 
L 998.520444 451.286357 
L 998.520444 449.589507 
L 998.520444 450.016067 
L 1008.075 424.811478 
L 1008.075 422.649839 
L 1008.075 425.59887 
L 1008.075 424.297058 
L 1017.629556 396.443238 
L 1017.629556 398.868458 
L 1017.629556 394.512987 
L 1017.629556 396.750414 
L 1027.178 367.853669 
L 1027.178 370.52168 
L 1027.178 365.049507 
L 1027.178 367.249376 
L 1036.726444 336.235928 
L 1036.726444 334.222512 
L 1036.726444 337.783884 
L 1036.726444 335.875096 
L 1046.281 302.017915 
L 1046.281 300.001817 
L 1046.281 304.850246 
L 1046.281 302.632939 
L 1055.835556 267.213719 
L 1055.835556 265.510833 
L 1055.835556 269.424318 
L 1055.835556 267.820694 
L 1065.384 230.847481 
L 1065.384 234.766332 
L 1065.384 230.596643 
L 1065.384 231.539635 
L 1074.932444 192.882315 
L 1074.932444 190.139858 
L 1074.932444 193.844087 
L 1074.932444 193.455757 
L 1084.487 155.791731 
L 1084.487 158.852097 
L 1084.487 152.882271 
L 1084.487 154.555647 
L 1094.041556 119.195446 
L 1094.041556 115.860768 
L 1094.041556 117.817846 
L 1103.59 93.367115 
L 1103.59 88.350342 
L 1103.59 88.984146 
L 1113.138444 83.636051 
L 1113.138444 85.479782 
L 1113.138444 83.330216 
L 1122.693 80.213512 
L 1122.693 79.646778 
L 1122.693 81.651475 
L 1122.693 81.488497 
L 1132.247556 79.138394 
L 1132.247556 80.557577 
L 1132.247556 78.977428 
L 1132.247556 80.418073 
L 1141.796 79.261801 
L 1141.796 79.023035 
L 1141.796 80.548858 
L 1141.796 80.398623 
L 1151.344444 79.084068 
L 1151.344444 78.765489 
L 1151.344444 80.336249 
L 1160.899 79.005597 
L 1160.899 78.641411 
L 1160.899 80.363076 
L 1170.453556 78.920419 
L 1170.453556 78.50459 
L 1170.453556 80.439535 
L 1180.002 78.866763 
L 1180.002 78.422766 
L 1180.002 80.577698 
L 1189.550444 78.90231 
L 1189.550444 78.422766 
L 1189.550444 80.751407 
L 1199.105 78.990171 
L 1199.105 78.511968 
L 1199.105 80.879509 
L 1208.659556 79.129675 
L 1208.659556 78.693054 
L 1208.659556 80.92914 
L 1218.208 79.370453 
L 1218.208 78.882189 
L 1218.208 81.019683 
L 1227.756444 79.776221 
L 1227.756444 79.303384 
L 1227.756444 81.232293 
L 1237.311 80.456973 
L 1237.311 80.050534 
L 1237.311 81.697752 
L 1246.865556 81.614587 
L 1246.865556 81.29735 
L 1246.865556 82.639403 
L 1256.414 83.601846 
L 1256.414 83.379176 
L 1256.414 84.424784 
L 1265.962444 87.060602 
L 1265.962444 87.037128 
L 1265.962444 86.919086 
L 1265.962444 87.706478 
L 1275.517 93.029757 
L 1275.517 93.025733 
L 1275.517 92.952627 
L 1275.517 93.52741 
L 1285.071556 103.252438 
L 1285.071556 103.095496 
L 1285.071556 103.503276 
L 1294.62 119.942597 
L 1294.62 120.097527 
L 1304.168444 146.831963 
L 1313.723 188.131136 
L 1323.277556 248.197601 
L 1323.277556 248.180834 
L 1332.826 328.435785 
L 1342.374444 421.723614 
L 1342.374444 421.704835 
L 1351.929 510.80889 
L 1361.483556 576.943102 
L 1361.483556 576.94109 
L 1371.032 615.177953 
L 1380.580444 633.597893 
L 1390.135 641.599249 
L 1399.689556 645.141768 
L 1399.689556 645.141768 
" clip-path="url(#p51b54dabe5)" style="fill: none; stroke: #9467bd; stroke-width: 1.5; stroke-linecap: square"/>
   </g>
   <g id="patch_8">
    <path d="M 797.942 647.08 
L 797.942 21.6 
" style="fill: none; stroke: #000000; stroke-width: 0.8; stroke-linejoin: miter; stroke-linecap: square"/>
   </g>
   <g id="patch_9">
    <path d="M 1409.238 647.08 
L 1409.238 21.6 
" style="fill: none; stroke: #000000; stroke-width: 0.8; stroke-linejoin: miter; stroke-linecap: square"/>
   </g>
   <g id="patch_10">
    <path d="M 797.942 647.08 
L 1409.238 647.08 
" style="fill: none; stroke: #000000; stroke-width: 0.8; stroke-linejoin: miter; stroke-linecap: square"/>
   </g>
   <g id="patch_11">
    <path d="M 797.942 21.6 
L 1409.238 21.6 
" style="fill: none; stroke: #000000; stroke-width: 0.8; stroke-linejoin: miter; stroke-linecap: square"/>
   </g>
  </g>
  <g id="axes_3">
   <g id="patch_12">
    <path d="M 1511.174 647.08 
L 2122.47 647.08 
L 2122.47 21.6 
L 1511.174 21.6 
z
" style="fill: #ffffff"/>
   </g>
   <g id="matplotlib.axis_5">
    <g id="xtick_13">
     <g id="line2d_34">
      <g>
       <use xlink:href="#mc48d9d4813" x="1511.174" y="647.08" style="stroke: #000000; stroke-width: 0.8"/>
      </g>
     </g>
     <g id="text_28">
      <!-- 1.0 -->
      <g transform="translate(1495.270875 669.276875) scale(0.2 -0.2)">
       <use xlink:href="#DejaVuSans-31"/>
       <use xlink:href="#DejaVuSans-2e" x="63.623047"/>
       <use xlink:href="#DejaVuSans-30" x="95.410156"/>
      </g>
     </g>
    </g>
    <g id="xtick_14">
     <g id="line2d_35">
      <g>
       <use xlink:href="#mc48d9d4813" x="1633.4332" y="647.08" style="stroke: #000000; stroke-width: 0.8"/>
      </g>
     </g>
     <g id="text_29">
      <!-- 1.2 -->
      <g transform="translate(1617.530075 669.276875) scale(0.2 -0.2)">
       <use xlink:href="#DejaVuSans-31"/>
       <use xlink:href="#DejaVuSans-2e" x="63.623047"/>
       <use xlink:href="#DejaVuSans-32" x="95.410156"/>
      </g>
     </g>
    </g>
    <g id="xtick_15">
     <g id="line2d_36">
      <g>
       <use xlink:href="#mc48d9d4813" x="1755.6924" y="647.08" style="stroke: #000000; stroke-width: 0.8"/>
      </g>
     </g>
     <g id="text_30">
      <!-- 1.4 -->
      <g transform="translate(1739.789275 669.276875) scale(0.2 -0.2)">
       <use xlink:href="#DejaVuSans-31"/>
       <use xlink:href="#DejaVuSans-2e" x="63.623047"/>
       <use xlink:href="#DejaVuSans-34" x="95.410156"/>
      </g>
     </g>
    </g>
    <g id="xtick_16">
     <g id="line2d_37">
      <g>
       <use xlink:href="#mc48d9d4813" x="1877.9516" y="647.08" style="stroke: #000000; stroke-width: 0.8"/>
      </g>
     </g>
     <g id="text_31">
      <!-- 1.6 -->
      <g transform="translate(1862.048475 669.276875) scale(0.2 -0.2)">
       <use xlink:href="#DejaVuSans-31"/>
       <use xlink:href="#DejaVuSans-2e" x="63.623047"/>
       <use xlink:href="#DejaVuSans-36" x="95.410156"/>
      </g>
     </g>
    </g>
    <g id="xtick_17">
     <g id="line2d_38">
      <g>
       <use xlink:href="#mc48d9d4813" x="2000.2108" y="647.08" style="stroke: #000000; stroke-width: 0.8"/>
      </g>
     </g>
     <g id="text_32">
      <!-- 1.8 -->
      <g transform="translate(1984.307675 669.276875) scale(0.2 -0.2)">
       <use xlink:href="#DejaVuSans-31"/>
       <use xlink:href="#DejaVuSans-2e" x="63.623047"/>
       <use xlink:href="#DejaVuSans-38" x="95.410156"/>
      </g>
     </g>
    </g>
    <g id="xtick_18">
     <g id="line2d_39">
      <g>
       <use xlink:href="#mc48d9d4813" x="2122.47" y="647.08" style="stroke: #000000; stroke-width: 0.8"/>
      </g>
     </g>
     <g id="text_33">
      <!-- 2.0 -->
      <g transform="translate(2106.566875 669.276875) scale(0.2 -0.2)">
       <use xlink:href="#DejaVuSans-32"/>
       <use xlink:href="#DejaVuSans-2e" x="63.623047"/>
       <use xlink:href="#DejaVuSans-30" x="95.410156"/>
      </g>
     </g>
    </g>
    <g id="text_34">
     <!-- Position $x$ -->
     <g transform="translate(1768.422 692.633125) scale(0.2 -0.2)">
      <use xlink:href="#DejaVuSans-50" transform="translate(0 0.015625)"/>
      <use xlink:href="#DejaVuSans-6f" transform="translate(60.302734 0.015625)"/>
      <use xlink:href="#DejaVuSans-73" transform="translate(121.484375 0.015625)"/>
      <use xlink:href="#DejaVuSans-69" transform="translate(173.583984 0.015625)"/>
      <use xlink:href="#DejaVuSans-74" transform="translate(201.367188 0.015625)"/>
      <use xlink:href="#DejaVuSans-69" transform="translate(240.576172 0.015625)"/>
      <use xlink:href="#DejaVuSans-6f" transform="translate(268.359375 0.015625)"/>
      <use xlink:href="#DejaVuSans-6e" transform="translate(329.541016 0.015625)"/>
      <use xlink:href="#DejaVuSans-20" transform="translate(392.919922 0.015625)"/>
      <use xlink:href="#DejaVuSans-Oblique-78" transform="translate(424.707031 0.015625)"/>
     </g>
    </g>
   </g>
   <g id="matplotlib.axis_6">
    <g id="ytick_12">
     <g id="line2d_40">
      <g>
       <use xlink:href="#m771528dd8b" x="1511.174" y="647.08" style="stroke: #000000; stroke-width: 0.8"/>
      </g>
     </g>
     <g id="text_35">
      <!-- 0.0 -->
      <g transform="translate(1472.36775 654.678437) scale(0.2 -0.2)">
       <use xlink:href="#DejaVuSans-30"/>
       <use xlink:href="#DejaVuSans-2e" x="63.623047"/>
       <use xlink:href="#DejaVuSans-30" x="95.410156"/>
      </g>
     </g>
    </g>
    <g id="ytick_13">
     <g id="line2d_41">
      <g>
       <use xlink:href="#m771528dd8b" x="1511.174" y="527.370909" style="stroke: #000000; stroke-width: 0.8"/>
      </g>
     </g>
     <g id="text_36">
      <!-- 0.2 -->
      <g transform="translate(1472.36775 534.969347) scale(0.2 -0.2)">
       <use xlink:href="#DejaVuSans-30"/>
       <use xlink:href="#DejaVuSans-2e" x="63.623047"/>
       <use xlink:href="#DejaVuSans-32" x="95.410156"/>
      </g>
     </g>
    </g>
    <g id="ytick_14">
     <g id="line2d_42">
      <g>
       <use xlink:href="#m771528dd8b" x="1511.174" y="407.661818" style="stroke: #000000; stroke-width: 0.8"/>
      </g>
     </g>
     <g id="text_37">
      <!-- 0.4 -->
      <g transform="translate(1472.36775 415.260256) scale(0.2 -0.2)">
       <use xlink:href="#DejaVuSans-30"/>
       <use xlink:href="#DejaVuSans-2e" x="63.623047"/>
       <use xlink:href="#DejaVuSans-34" x="95.410156"/>
      </g>
     </g>
    </g>
    <g id="ytick_15">
     <g id="line2d_43">
      <g>
       <use xlink:href="#m771528dd8b" x="1511.174" y="287.952727" style="stroke: #000000; stroke-width: 0.8"/>
      </g>
     </g>
     <g id="text_38">
      <!-- 0.6 -->
      <g transform="translate(1472.36775 295.551165) scale(0.2 -0.2)">
       <use xlink:href="#DejaVuSans-30"/>
       <use xlink:href="#DejaVuSans-2e" x="63.623047"/>
       <use xlink:href="#DejaVuSans-36" x="95.410156"/>
      </g>
     </g>
    </g>
    <g id="ytick_16">
     <g id="line2d_44">
      <g>
       <use xlink:href="#m771528dd8b" x="1511.174" y="168.243636" style="stroke: #000000; stroke-width: 0.8"/>
      </g>
     </g>
     <g id="text_39">
      <!-- 0.8 -->
      <g transform="translate(1472.36775 175.842074) scale(0.2 -0.2)">
       <use xlink:href="#DejaVuSans-30"/>
       <use xlink:href="#DejaVuSans-2e" x="63.623047"/>
       <use xlink:href="#DejaVuSans-38" x="95.410156"/>
      </g>
     </g>
    </g>
    <g id="ytick_17">
     <g id="line2d_45">
      <g>
       <use xlink:href="#m771528dd8b" x="1511.174" y="48.534545" style="stroke: #000000; stroke-width: 0.8"/>
      </g>
     </g>
     <g id="text_40">
      <!-- 1.0 -->
      <g transform="translate(1472.36775 56.132983) scale(0.2 -0.2)">
       <use xlink:href="#DejaVuSans-31"/>
       <use xlink:href="#DejaVuSans-2e" x="63.623047"/>
       <use xlink:href="#DejaVuSans-30" x="95.410156"/>
      </g>
     </g>
    </g>
    <g id="text_41">
     <!-- $P$ -->
     <g transform="translate(1464.208375 340.44) rotate(-90) scale(0.2 -0.2)">
      <defs>
       <path id="DejaVuSans-Oblique-50" d="M 1081 4666 
L 2541 4666 
Q 3178 4666 3512 4369 
Q 3847 4072 3847 3500 
Q 3847 2731 3353 2303 
Q 2859 1875 1966 1875 
L 1172 1875 
L 806 0 
L 172 0 
L 1081 4666 
z
M 1613 4147 
L 1275 2394 
L 2069 2394 
Q 2606 2394 2893 2669 
Q 3181 2944 3181 3456 
Q 3181 3784 2986 3965 
Q 2791 4147 2438 4147 
L 1613 4147 
z
" transform="scale(0.015625)"/>
      </defs>
      <use xlink:href="#DejaVuSans-Oblique-50" transform="translate(0 0.09375)"/>
     </g>
    </g>
   </g>
   <g id="line2d_46">
    <path d="M 899.878 48.534545 
L 1654.449556 48.534545 
L 1654.449556 48.534545 
L 1663.998 74.472491 
L 1663.998 74.472491 
L 1673.546444 116.695629 
L 1673.546444 116.695629 
L 1683.101 156.415057 
L 1683.101 156.415057 
L 1692.655556 193.718416 
L 1692.655556 193.718416 
L 1702.204 228.695966 
L 1702.204 228.695966 
L 1711.752444 261.480556 
L 1711.752444 261.480556 
L 1721.307 292.195962 
L 1721.307 292.195962 
L 1730.861556 320.922081 
L 1730.861556 320.922081 
L 1740.41 347.740559 
L 1740.41 347.740559 
L 1749.958444 372.765161 
L 1749.958444 372.765161 
L 1759.513 396.101829 
L 1759.513 396.101829 
L 1769.067556 417.822515 
L 1769.067556 417.822515 
L 1778.616 438.000193 
L 1778.616 438.000193 
L 1788.164444 456.73146 
L 1788.164444 456.73146 
L 1797.719 471.140444 
L 1797.719 471.140444 
L 2036.509556 471.140444 
L 2036.509556 471.140444 
L 2046.058 587.225455 
L 2046.058 587.225455 
L 2112.921556 587.225455 
L 2112.921556 587.225455 
" clip-path="url(#p653d5bcc4c)" style="fill: none; stroke: #1f77b4; stroke-width: 1.5; stroke-linecap: square"/>
   </g>
   <g id="line2d_47">
    <path d="M 899.878 586.908225 
L 909.4295 586.753202 
L 909.4295 586.753202 
L 918.981 586.150467 
L 918.981 586.150467 
L 928.5325 584.603825 
L 928.5325 584.603825 
L 938.084 581.03829 
L 938.084 581.03829 
L 947.6355 573.736036 
L 957.187 561.215662 
L 966.7385 544.048181 
L 966.7385 544.048181 
L 976.29 525.261635 
L 976.29 525.261635 
L 985.8415 508.266535 
L 985.8415 508.266535 
L 995.393 494.946505 
L 995.393 494.946505 
L 1004.9445 485.534377 
L 1004.9445 485.534377 
L 1014.496 479.366965 
L 1014.496 479.366965 
L 1024.0475 475.554829 
L 1024.0475 475.554829 
L 1033.599 473.309087 
L 1033.599 473.309685 
L 1043.1505 472.042564 
L 1043.1505 472.043163 
L 1052.702 471.35723 
L 1052.702 471.35723 
L 1062.2535 471.001095 
L 1062.2535 471.001095 
L 1081.3565 470.747312 
L 1081.3565 470.747312 
L 1110.011 470.741327 
L 1110.011 470.741327 
L 1167.32 471.022044 
L 1167.32 471.022044 
L 1186.423 471.249492 
L 1186.423 471.249492 
L 1195.9745 471.130381 
L 1195.9745 471.13098 
L 1205.526 468.530898 
L 1205.526 468.530898 
L 1215.0775 458.993675 
L 1215.0775 458.993675 
L 1224.629 444.25988 
L 1224.629 444.25988 
L 1234.1805 426.648877 
L 1234.1805 426.648877 
L 1243.732 407.276953 
L 1243.732 407.276953 
L 1253.2835 386.652873 
L 1253.2835 386.652873 
L 1262.835 365.059148 
L 1262.835 365.059148 
L 1272.3865 342.699286 
L 1272.3865 342.699286 
L 1281.938 319.757637 
L 1281.938 319.757637 
L 1301.041 272.904696 
L 1301.041 272.904696 
L 1310.5925 249.430342 
L 1310.5925 249.430342 
L 1320.144 226.254063 
L 1320.144 226.254063 
L 1329.6955 203.649396 
L 1329.6955 203.649396 
L 1339.247 181.904239 
L 1339.247 181.904838 
L 1348.7985 161.311881 
L 1348.7985 161.31248 
L 1358.35 142.153639 
L 1358.35 142.153639 
L 1367.9015 124.682695 
L 1367.9015 124.682695 
L 1377.453 109.104353 
L 1377.453 109.104951 
L 1387.0045 95.557473 
L 1387.0045 95.557473 
L 1396.556 84.097124 
L 1396.556 84.097124 
L 1406.1075 74.688588 
L 1406.1075 74.688588 
L 1415.659 67.209762 
L 1415.659 67.209762 
L 1425.2105 61.465521 
L 1425.2105 61.465521 
L 1434.762 57.208068 
L 1434.762 57.208068 
L 1444.3135 54.166858 
L 1444.3135 54.166858 
L 1453.865 52.07554 
L 1453.865 52.07554 
L 1463.4165 50.689908 
L 1463.4165 50.689908 
L 1472.968 49.80825 
L 1472.968 49.80825 
L 1482.5195 49.270756 
L 1482.5195 49.270756 
L 1492.071 48.961308 
L 1492.071 48.961308 
L 1511.174 48.757204 
L 1511.174 48.757204 
L 1530.277 48.961308 
L 1530.277 48.961308 
L 1539.831556 49.270756 
L 1539.831556 49.270756 
L 1549.38 49.80825 
L 1549.38 49.80825 
L 1558.928444 50.689908 
L 1558.928444 50.689908 
L 1568.483 52.074942 
L 1568.483 52.074942 
L 1578.037556 54.167457 
L 1578.037556 54.167457 
L 1587.586 57.208068 
L 1587.586 57.208068 
L 1597.134444 61.464324 
L 1597.134444 61.464324 
L 1606.689 67.209164 
L 1606.689 67.209164 
L 1616.243556 74.688588 
L 1616.243556 74.688588 
L 1625.792 84.097124 
L 1625.792 84.097124 
L 1635.340444 95.555079 
L 1635.340444 95.555079 
L 1644.895 109.102557 
L 1644.895 109.102557 
L 1654.449556 124.683294 
L 1654.449556 124.683294 
L 1663.998 142.15304 
L 1663.998 142.15304 
L 1673.546444 161.307093 
L 1673.546444 161.307093 
L 1683.101 181.900648 
L 1683.101 181.900648 
L 1692.655556 203.649994 
L 1692.655556 203.649994 
L 1702.204 226.253465 
L 1702.204 226.252866 
L 1721.307 272.898711 
L 1721.307 272.898711 
L 1740.41 319.757039 
L 1740.41 319.757039 
L 1749.958444 342.692103 
L 1749.958444 342.692103 
L 1759.513 365.052564 
L 1759.513 365.052564 
L 1769.067556 386.653471 
L 1769.067556 386.653471 
L 1778.616 407.276953 
L 1778.616 407.276953 
L 1788.164444 426.642892 
L 1788.164444 426.642892 
L 1797.719 444.25569 
L 1797.719 444.255092 
L 1807.273556 458.996069 
L 1807.273556 458.996069 
L 1816.822 468.533292 
L 1816.822 468.533292 
L 1826.370444 471.13098 
L 1826.370444 471.130381 
L 1835.925 471.249492 
L 1835.925 471.249492 
L 1864.576444 470.95381 
L 1864.576444 470.95381 
L 1921.891556 470.722173 
L 1921.891556 470.722173 
L 1950.543 470.82632 
L 1950.543 470.82632 
L 1960.097556 471.002292 
L 1960.097556 471.002292 
L 1969.646 471.357828 
L 1979.194444 472.041966 
L 1979.194444 472.041966 
L 1988.749 473.308488 
L 1988.749 473.308488 
L 1998.303556 475.555428 
L 1998.303556 475.555428 
L 2007.852 479.368162 
L 2007.852 479.368162 
L 2017.400444 485.532582 
L 2017.400444 485.532582 
L 2026.955 494.944709 
L 2026.955 494.944709 
L 2036.509556 508.265338 
L 2036.509556 508.265338 
L 2046.058 525.258642 
L 2046.058 525.258642 
L 2055.606444 544.04459 
L 2055.606444 544.04459 
L 2065.161 561.215662 
L 2065.161 561.215662 
L 2074.715556 573.736036 
L 2074.715556 573.736036 
L 2084.264 581.037692 
L 2084.264 581.037692 
L 2093.812444 584.603825 
L 2093.812444 584.603825 
L 2103.367 586.150467 
L 2103.367 586.150467 
L 2112.921556 586.753202 
L 2112.921556 586.753202 
" clip-path="url(#p653d5bcc4c)" style="fill: none; stroke: #ff7f0e; stroke-width: 1.5; stroke-linecap: square"/>
   </g>
   <g id="line2d_48">
    <path d="M 899.878 580.775529 
L 899.878 580.776726 
L 899.878 580.776127 
L 909.4295 579.620935 
L 909.4295 579.622132 
L 918.981 576.013501 
L 918.981 576.015297 
L 928.5325 569.755708 
L 928.5325 569.757504 
L 938.084 560.927163 
L 938.084 560.930156 
L 947.6355 550.118031 
L 947.6355 550.121023 
L 966.7385 526.471295 
L 966.7385 526.474288 
L 976.29 515.413767 
L 976.29 515.416161 
L 985.8415 505.591037 
L 985.8415 505.593431 
L 995.393 497.201824 
L 995.393 497.205415 
L 1004.9445 490.255704 
L 1004.9445 490.262288 
L 1014.496 484.651523 
L 1014.496 484.659903 
L 1024.0475 480.225279 
L 1024.0475 480.234856 
L 1033.599 476.79322 
L 1033.599 476.802796 
L 1043.1505 474.173985 
L 1043.1505 474.181766 
L 1052.702 472.201777 
L 1052.702 472.207164 
L 1062.2535 470.729356 
L 1062.2535 470.734144 
L 1071.805 469.634616 
L 1071.805 469.639404 
L 1081.3565 468.819996 
L 1081.3565 468.824784 
L 1090.908 468.208881 
L 1090.908 468.211275 
L 1110.011 467.370917 
L 1110.011 467.372114 
L 1157.7685 465.838042 
L 1157.7685 465.838641 
L 1167.32 465.334665 
L 1167.32 465.335264 
L 1176.8715 464.630177 
L 1176.8715 464.631375 
L 1186.423 463.325348 
L 1186.423 463.325947 
L 1195.9745 460.806071 
L 1195.9745 460.806071 
L 1205.526 455.515527 
L 1205.526 455.516724 
L 1215.0775 445.377364 
L 1215.0775 445.37916 
L 1224.629 430.85306 
L 1224.629 430.855455 
L 1234.1805 413.465315 
L 1234.1805 413.467709 
L 1243.732 394.346576 
L 1243.732 394.34897 
L 1253.2835 374.163025 
L 1253.2835 374.16482 
L 1262.835 353.312095 
L 1262.835 353.313891 
L 1281.938 310.648374 
L 1281.938 310.650169 
L 1301.041 268.023558 
L 1301.041 268.025353 
L 1310.5925 247.170234 
L 1310.5925 247.171431 
L 1320.144 226.849017 
L 1320.144 226.850215 
L 1329.6955 207.222113 
L 1329.6955 207.223311 
L 1339.247 188.444545 
L 1339.247 188.445743 
L 1348.7985 170.660563 
L 1348.7985 170.661161 
L 1358.35 153.997057 
L 1358.35 153.997656 
L 1367.9015 138.562366 
L 1367.9015 138.562964 
L 1377.453 124.443277 
L 1377.453 124.443876 
L 1387.0045 111.69785 
L 1387.0045 111.698449 
L 1396.556 100.356611 
L 1396.556 100.356611 
L 1406.1075 90.417764 
L 1406.1075 90.418362 
L 1415.659 81.851381 
L 1415.659 81.851381 
L 1425.2105 74.597609 
L 1425.2105 74.597609 
L 1434.762 68.570256 
L 1434.762 68.570855 
L 1444.3135 63.665176 
L 1444.3135 63.665176 
L 1453.865 59.761463 
L 1453.865 59.761463 
L 1463.4165 56.734618 
L 1463.4165 56.734618 
L 1472.968 54.460145 
L 1472.968 54.460145 
L 1482.5195 52.824321 
L 1482.5195 52.824321 
L 1492.071 51.730778 
L 1492.071 51.730778 
L 1501.6225 51.105298 
L 1501.6225 51.105298 
L 1511.174 50.901793 
L 1511.174 50.901793 
L 1520.722444 51.105298 
L 1520.722444 51.105298 
L 1530.277 51.730778 
L 1539.831556 52.824321 
L 1539.831556 52.824321 
L 1549.38 54.460145 
L 1549.38 54.460145 
L 1558.928444 56.73402 
L 1558.928444 56.73402 
L 1568.483 59.761463 
L 1568.483 59.761463 
L 1578.037556 63.665775 
L 1578.037556 63.665775 
L 1587.586 68.570855 
L 1587.586 68.570855 
L 1597.134444 74.59701 
L 1597.134444 74.596412 
L 1606.689 81.85198 
L 1606.689 81.851381 
L 1616.243556 90.420158 
L 1616.243556 90.419559 
L 1625.792 100.357808 
L 1625.792 100.356611 
L 1635.340444 111.69785 
L 1635.340444 111.696055 
L 1644.895 124.444474 
L 1644.895 124.44208 
L 1654.449556 138.566556 
L 1654.449556 138.563563 
L 1663.998 153.998853 
L 1663.998 153.99586 
L 1673.546444 170.658169 
L 1673.546444 170.652183 
L 1683.101 188.44275 
L 1683.101 188.439159 
L 1692.655556 207.223311 
L 1692.655556 207.219719 
L 1702.204 226.846623 
L 1702.204 226.843631 
L 1711.752444 247.161256 
L 1711.752444 247.158263 
L 1721.307 268.016974 
L 1721.307 268.01458 
L 1740.41 310.645381 
L 1740.41 310.644783 
L 1759.513 353.308504 
L 1759.513 353.308504 
L 1769.067556 374.168412 
L 1778.616 394.349569 
L 1778.616 394.349569 
L 1788.164444 413.464118 
L 1788.164444 413.464118 
L 1797.719 430.859046 
L 1797.719 430.859046 
L 1807.273556 445.390532 
L 1807.273556 445.390532 
L 1816.822 455.523907 
L 1816.822 455.523308 
L 1826.370444 460.812056 
L 1826.370444 460.812056 
L 1835.925 463.333129 
L 1835.925 463.332531 
L 1845.479556 464.636163 
L 1845.479556 464.635564 
L 1855.028 465.338855 
L 1855.028 465.337658 
L 1864.576444 465.841633 
L 1864.576444 465.840436 
L 1883.685556 466.511406 
L 1883.685556 466.511406 
L 1912.337 467.376903 
L 1912.337 467.375705 
L 1931.44 468.214268 
L 1931.44 468.211873 
L 1940.988444 468.825383 
L 1940.988444 468.82239 
L 1950.543 469.639404 
L 1950.543 469.635813 
L 1960.097556 470.733545 
L 1960.097556 470.728757 
L 1969.646 472.20477 
L 1969.646 472.199982 
L 1979.194444 474.17578 
L 1979.194444 474.171591 
L 1988.749 476.794417 
L 1988.749 476.791424 
L 1998.303556 480.225878 
L 1998.303556 480.224082 
L 2007.852 484.650326 
L 2007.852 484.650326 
L 2017.400444 490.25331 
L 2026.955 497.198831 
L 2036.509556 505.588643 
L 2046.058 515.40838 
L 2055.606444 526.463514 
L 2074.715556 550.112644 
L 2074.715556 550.112045 
L 2084.264 560.921776 
L 2084.264 560.921776 
L 2093.812444 569.75092 
L 2093.812444 569.75092 
L 2103.367 576.011705 
L 2103.367 576.011705 
L 2112.921556 579.620935 
L 2112.921556 579.620336 
" clip-path="url(#p653d5bcc4c)" style="fill: none; stroke: #2ca02c; stroke-width: 1.5; stroke-linecap: square"/>
   </g>
   <g id="line2d_49">
    <path d="M 899.878 584.912076 
L 899.878 584.912675 
L 899.878 584.912675 
L 909.4295 584.133967 
L 918.981 581.541667 
L 928.5325 576.597083 
L 938.084 568.380251 
L 947.6355 556.469795 
L 957.187 541.630656 
L 966.7385 525.620762 
L 976.29 510.502701 
L 976.29 510.512278 
L 985.8415 497.578908 
L 995.393 487.604746 
L 995.393 487.652031 
L 1004.9445 480.389281 
L 1014.496 475.609297 
L 1014.496 475.524902 
L 1024.0475 472.576467 
L 1024.0475 472.451371 
L 1033.599 470.651545 
L 1033.599 470.588099 
L 1043.1505 469.513111 
L 1052.702 468.885836 
L 1052.702 468.893617 
L 1062.2535 468.469847 
L 1062.2535 468.491993 
L 1081.3565 467.998791 
L 1081.3565 468.048471 
L 1100.4595 467.770147 
L 1100.4595 467.791695 
L 1100.4595 467.828804 
L 1119.5625 467.570831 
L 1119.5625 467.679168 
L 1119.5625 467.658219 
L 1129.114 467.43556 
L 1129.114 467.63308 
L 1129.114 467.544495 
L 1138.6655 467.253602 
L 1138.6655 467.573824 
L 1138.6655 467.248215 
L 1138.6655 467.385282 
L 1148.217 467.009994 
L 1148.217 467.481648 
L 1148.217 466.971687 
L 1148.217 467.160828 
L 1157.7685 466.699349 
L 1157.7685 467.381691 
L 1157.7685 466.628122 
L 1157.7685 466.878314 
L 1167.32 466.383916 
L 1167.32 467.342187 
L 1167.32 466.680794 
L 1176.8715 466.227097 
L 1176.8715 467.008797 
L 1176.8715 466.306105 
L 1186.423 465.923634 
L 1186.423 466.658648 
L 1186.423 465.606405 
L 1186.423 465.878743 
L 1195.9745 465.050955 
L 1195.9745 465.575879 
L 1195.9745 464.294992 
L 1195.9745 464.715171 
L 1205.526 461.502179 
L 1205.526 464.918676 
L 1205.526 462.592729 
L 1215.0775 455.015742 
L 1215.0775 453.092017 
L 1215.0775 454.888252 
L 1224.629 440.976858 
L 1224.629 439.112389 
L 1224.629 443.317171 
L 1224.629 441.764544 
L 1234.1805 428.527113 
L 1234.1805 422.830157 
L 1234.1805 428.82459 
L 1234.1805 427.903428 
L 1243.732 409.980583 
L 1243.732 403.737754 
L 1243.732 410.345696 
L 1243.732 409.273103 
L 1253.2835 388.294683 
L 1253.2835 383.259719 
L 1253.2835 386.727092 
L 1262.835 364.679072 
L 1262.835 363.550814 
L 1262.835 365.647519 
L 1262.835 364.603655 
L 1272.3865 342.152814 
L 1272.3865 343.537848 
L 1272.3865 341.943921 
L 1272.3865 342.052857 
L 1281.938 319.557723 
L 1281.938 320.43938 
L 1281.938 320.156867 
L 1291.4895 297.318767 
L 1291.4895 297.846085 
L 1291.4895 297.188882 
L 1291.4895 297.542623 
L 1301.041 274.995415 
L 1301.041 275.041503 
L 1301.041 274.358563 
L 1301.041 275.045693 
L 1310.5925 252.438033 
L 1310.5925 252.754065 
L 1310.5925 252.168089 
L 1310.5925 252.607421 
L 1320.144 230.393604 
L 1320.144 230.656365 
L 1329.6955 209.182948 
L 1329.6955 209.323008 
L 1339.247 188.756986 
L 1339.247 188.840184 
L 1348.7985 169.467662 
L 1348.7985 169.510757 
L 1358.35 151.376625 
L 1358.35 151.428699 
L 1367.9015 134.768186 
L 1367.9015 134.769982 
L 1377.453 119.712374 
L 1377.453 119.736914 
L 1387.0045 106.322313 
L 1387.0045 106.324109 
L 1396.556 94.629129 
L 1396.556 94.630327 
L 1406.1075 84.625639 
L 1406.1075 84.625639 
L 1415.659 76.249594 
L 1415.659 76.249594 
L 1425.2105 69.392059 
L 1425.2105 69.392059 
L 1434.762 63.907587 
L 1434.762 63.908185 
L 1444.3135 59.62679 
L 1444.3135 59.62679 
L 1453.865 56.367111 
L 1453.865 56.367111 
L 1463.4165 53.948389 
L 1463.4165 53.948389 
L 1472.968 52.203031 
L 1472.968 52.203031 
L 1482.5195 50.985589 
L 1482.5195 50.985589 
L 1492.071 50.17456 
L 1492.071 50.17456 
L 1501.6225 49.671782 
L 1501.6225 49.671782 
L 1511.174 49.471868 
L 1511.174 49.471868 
L 1520.722444 49.671782 
L 1520.722444 49.671782 
L 1530.277 50.175159 
L 1530.277 50.17456 
L 1539.831556 50.985589 
L 1539.831556 50.985589 
L 1549.38 52.203031 
L 1549.38 52.203031 
L 1558.928444 53.948389 
L 1558.928444 53.947791 
L 1568.483 56.366513 
L 1568.483 56.366513 
L 1578.037556 59.62679 
L 1578.037556 59.62679 
L 1587.586 63.908185 
L 1587.586 63.908185 
L 1597.134444 69.39146 
L 1597.134444 69.39146 
L 1606.689 76.248996 
L 1606.689 76.248996 
L 1616.243556 84.626836 
L 1616.243556 84.625639 
L 1625.792 94.629728 
L 1625.792 94.629728 
L 1635.340444 106.325306 
L 1635.340444 106.319919 
L 1644.895 119.736914 
L 1644.895 119.732724 
L 1654.449556 134.818464 
L 1654.449556 134.766989 
L 1663.998 151.433487 
L 1663.998 151.422713 
L 1673.546444 169.519137 
L 1673.546444 169.499983 
L 1683.101 188.894652 
L 1683.101 188.822228 
L 1692.655556 209.351738 
L 1692.655556 209.311636 
L 1702.204 230.744351 
L 1702.204 230.640803 
L 1711.752444 252.602633 
L 1711.752444 252.345857 
L 1711.752444 252.791175 
L 1711.752444 252.569713 
L 1721.307 274.724274 
L 1721.307 275.254585 
L 1721.307 274.691354 
L 1721.307 275.075022 
L 1730.861556 297.463615 
L 1730.861556 296.958442 
L 1730.861556 297.940057 
L 1730.861556 297.66293 
L 1740.41 319.537372 
L 1740.41 320.61655 
L 1740.41 320.438183 
L 1749.958444 342.408991 
L 1749.958444 341.884665 
L 1749.958444 343.163159 
L 1759.513 363.780057 
L 1759.513 365.045382 
L 1759.513 363.624435 
L 1759.513 365.022039 
L 1769.067556 384.605249 
L 1769.067556 387.942738 
L 1769.067556 384.24672 
L 1769.067556 384.77344 
L 1778.616 404.655923 
L 1778.616 407.946726 
L 1778.616 405.35682 
L 1788.164444 422.854697 
L 1788.164444 429.704452 
L 1788.164444 422.463249 
L 1788.164444 423.361067 
L 1797.719 439.376348 
L 1797.719 443.764284 
L 1797.719 438.945395 
L 1797.719 440.290925 
L 1807.273556 456.188292 
L 1807.273556 452.682612 
L 1807.273556 454.495007 
L 1816.822 463.330137 
L 1816.822 462.350916 
L 1816.822 464.946209 
L 1816.822 463.750316 
L 1826.370444 465.22992 
L 1826.370444 464.391956 
L 1826.370444 465.02402 
L 1835.925 466.778956 
L 1835.925 465.612989 
L 1835.925 466.428807 
L 1845.479556 467.06506 
L 1845.479556 466.131329 
L 1845.479556 466.753817 
L 1855.028 467.311063 
L 1855.028 466.51799 
L 1855.028 467.13928 
L 1864.576444 467.496612 
L 1864.576444 466.807087 
L 1864.576444 467.218887 
L 1874.131 467.622306 
L 1874.131 467.141674 
L 1874.131 467.385282 
L 1883.685556 467.714482 
L 1883.685556 467.388873 
L 1883.685556 467.499006 
L 1893.234 467.777329 
L 1893.234 467.700117 
L 1893.234 467.565444 
L 1893.234 467.577415 
L 1902.782444 467.825213 
L 1902.782444 467.749198 
L 1902.782444 467.639664 
L 1912.337 467.86771 
L 1912.337 467.783315 
L 1912.337 467.698321 
L 1921.891556 467.919185 
L 1921.891556 467.849753 
L 1921.891556 467.758176 
L 1931.44 467.989215 
L 1931.44 467.928163 
L 1931.44 467.838381 
L 1940.988444 468.089172 
L 1940.988444 468.044281 
L 1940.988444 467.961681 
L 1950.543 468.271728 
L 1950.543 468.224443 
L 1950.543 468.147231 
L 1960.097556 468.565614 
L 1960.097556 468.493788 
L 1960.097556 468.423759 
L 1969.646 469.005545 
L 1969.646 468.851719 
L 1979.194444 469.647784 
L 1979.194444 469.708237 
L 1979.194444 469.50114 
L 1988.749 470.767663 
L 1988.749 470.823327 
L 1988.749 470.56715 
L 1998.303556 472.638716 
L 1998.303556 472.666847 
L 1998.303556 472.433415 
L 2007.852 475.667954 
L 2007.852 475.729006 
L 2007.852 475.557223 
L 2017.400444 480.50899 
L 2017.400444 480.477267 
L 2026.955 487.744806 
L 2026.955 487.692732 
L 2036.509556 497.766851 
L 2036.509556 497.688441 
L 2046.058 510.670892 
L 2046.058 510.614629 
L 2055.606444 525.811698 
L 2055.606444 525.747654 
L 2065.161 541.800643 
L 2065.161 541.741985 
L 2074.715556 556.584117 
L 2074.715556 556.558978 
L 2084.264 568.441901 
L 2084.264 568.430529 
L 2093.812444 576.622222 
L 2093.812444 576.622222 
L 2103.367 581.553638 
L 2112.921556 584.139354 
L 2112.921556 584.139354 
" clip-path="url(#p653d5bcc4c)" style="fill: none; stroke: #d62728; stroke-width: 1.5; stroke-linecap: square"/>
   </g>
   <g id="line2d_50">
    <path d="M 899.878 586.903437 
L 909.4295 586.781334 
L 909.4295 586.781334 
L 918.981 586.315067 
L 918.981 586.315067 
L 928.5325 585.117976 
L 928.5325 585.117976 
L 938.084 582.29344 
L 938.084 582.29344 
L 947.6355 576.31038 
L 957.187 565.486882 
L 966.7385 549.645778 
L 966.7385 549.645778 
L 976.29 531.174665 
L 976.29 531.174665 
L 985.8415 513.551692 
L 985.8415 513.551692 
L 995.393 499.1459 
L 995.393 499.1459 
L 1004.9445 488.608507 
L 1004.9445 488.608507 
L 1014.496 481.482823 
L 1024.0475 476.928491 
L 1033.599 474.138072 
L 1033.599 474.138072 
L 1043.1505 472.481897 
L 1043.1505 472.481897 
L 1052.702 471.524224 
L 1052.702 471.524224 
L 1062.2535 470.977153 
L 1062.2535 470.977153 
L 1071.805 470.662319 
L 1071.805 470.662917 
L 1090.908 470.383396 
L 1090.908 470.383396 
L 1119.5625 470.293615 
L 1119.5625 470.293615 
L 1167.32 470.363046 
L 1167.32 470.363046 
L 1176.8715 470.449236 
L 1176.8715 470.448638 
L 1186.423 469.984765 
L 1186.423 469.984765 
L 1195.9745 469.055823 
L 1195.9745 469.056421 
L 1205.526 464.719361 
L 1205.526 464.719959 
L 1215.0775 453.512794 
L 1215.0775 453.513991 
L 1224.629 437.421498 
L 1224.629 437.423294 
L 1234.1805 418.775012 
L 1234.1805 418.776209 
L 1243.732 398.750673 
L 1243.732 398.752469 
L 1253.2835 377.913511 
L 1253.2835 377.915306 
L 1262.835 356.575964 
L 1262.835 356.577161 
L 1301.041 270.127445 
L 1301.041 270.128642 
L 1310.5925 249.0772 
L 1310.5925 249.078397 
L 1320.144 228.578215 
L 1320.144 228.579412 
L 1329.6955 208.786711 
L 1329.6955 208.78731 
L 1339.247 189.855317 
L 1339.247 189.855916 
L 1348.7985 171.925289 
L 1348.7985 171.925888 
L 1358.35 155.12352 
L 1358.35 155.124119 
L 1367.9015 139.558944 
L 1367.9015 139.558944 
L 1377.453 125.315956 
L 1377.453 125.315956 
L 1387.0045 112.453813 
L 1387.0045 112.454412 
L 1396.556 101.003639 
L 1396.556 101.004237 
L 1406.1075 90.964834 
L 1406.1075 90.965433 
L 1415.659 82.307473 
L 1415.659 82.308071 
L 1425.2105 74.9717 
L 1425.2105 74.9717 
L 1434.762 68.872521 
L 1434.762 68.872521 
L 1444.3135 63.904594 
L 1444.3135 63.905193 
L 1453.865 59.948807 
L 1453.865 59.948807 
L 1463.4165 56.878868 
L 1463.4165 56.878868 
L 1472.968 54.570278 
L 1472.968 54.570876 
L 1482.5195 52.909314 
L 1482.5195 52.909913 
L 1492.071 51.797815 
L 1492.071 51.799611 
L 1501.6225 51.162759 
L 1501.6225 51.165153 
L 1511.174 50.957457 
L 1511.174 50.961049 
L 1520.722444 51.171138 
L 1530.277 51.81218 
L 1539.831556 52.930862 
L 1549.38 54.601402 
L 1558.928444 56.921364 
L 1568.483 60.006268 
L 1578.037556 63.977018 
L 1578.037556 63.977018 
L 1587.586 68.960508 
L 1587.586 68.959311 
L 1597.134444 75.080635 
L 1606.689 82.43616 
L 1606.689 82.428977 
L 1616.243556 91.113273 
L 1616.243556 91.100704 
L 1625.792 101.182005 
L 1625.792 101.141903 
L 1635.340444 112.607639 
L 1635.340444 112.581902 
L 1644.895 125.437461 
L 1654.449556 139.724741 
L 1654.449556 139.655908 
L 1663.998 155.361143 
L 1663.998 155.177988 
L 1673.546444 172.082707 
L 1673.546444 171.854661 
L 1683.101 189.979815 
L 1683.101 189.822996 
L 1692.655556 208.749003 
L 1692.655556 208.630491 
L 1692.655556 208.47846 
L 1692.655556 208.887267 
L 1692.655556 208.52814 
L 1702.204 228.647647 
L 1702.204 228.183175 
L 1702.204 228.398652 
L 1711.752444 249.047871 
L 1711.752444 249.021535 
L 1711.752444 249.13466 
L 1711.752444 248.528932 
L 1711.752444 248.562451 
L 1721.307 270.241767 
L 1721.307 269.751559 
L 1721.307 269.634842 
L 1740.41 312.819298 
L 1740.41 312.365601 
L 1740.41 312.973723 
L 1740.41 312.618785 
L 1749.958444 334.762573 
L 1749.958444 335.033714 
L 1749.958444 334.361548 
L 1759.513 356.356297 
L 1759.513 356.871047 
L 1759.513 355.926542 
L 1759.513 355.970834 
L 1769.067556 377.599274 
L 1769.067556 377.537025 
L 1769.067556 378.513852 
L 1769.067556 377.407141 
L 1778.616 398.297575 
L 1778.616 398.065339 
L 1778.616 397.27885 
L 1778.616 398.31194 
L 1778.616 398.216771 
L 1788.164444 418.768428 
L 1788.164444 419.575267 
L 1788.164444 418.570908 
L 1797.719 436.98037 
L 1797.719 436.834325 
L 1797.719 436.456044 
L 1797.719 437.857838 
L 1797.719 437.695632 
L 1807.273556 453.781541 
L 1807.273556 455.030107 
L 1807.273556 454.814032 
L 1816.822 464.886355 
L 1816.822 467.239237 
L 1816.822 466.969892 
L 1826.370444 468.925938 
L 1826.370444 468.404007 
L 1826.370444 469.21324 
L 1835.925 470.294812 
L 1835.925 470.158343 
L 1835.925 469.893786 
L 1835.925 469.923115 
L 1845.479556 470.546799 
L 1845.479556 470.474375 
L 1845.479556 470.309177 
L 1855.028 470.433076 
L 1855.028 470.334914 
L 1855.028 470.281045 
L 1864.576444 470.420506 
L 1864.576444 470.294812 
L 1883.685556 470.330724 
L 1883.685556 470.345089 
L 1883.685556 470.279249 
L 1931.44 470.412725 
L 1940.988444 470.515076 
L 1950.543 470.69464 
L 1960.097556 471.007679 
L 1969.646 471.55056 
L 1979.194444 472.502247 
L 1988.749 474.152437 
L 1998.303556 476.938666 
L 2007.852 481.486415 
L 2017.400444 488.600726 
L 2026.955 499.139914 
L 2026.955 499.129739 
L 2036.509556 513.550495 
L 2046.058 531.165089 
L 2055.606444 549.620041 
L 2055.606444 549.619442 
L 2065.161 565.470721 
L 2065.161 565.465335 
L 2074.715556 576.301401 
L 2074.715556 576.300204 
L 2084.264 582.288053 
L 2093.812444 585.115582 
L 2103.367 586.314468 
L 2103.367 586.314468 
L 2112.921556 586.781334 
L 2112.921556 586.781334 
" clip-path="url(#p653d5bcc4c)" style="fill: none; stroke: #9467bd; stroke-width: 1.5; stroke-linecap: square"/>
   </g>
   <g id="patch_13">
    <path d="M 1511.174 647.08 
L 1511.174 21.6 
" style="fill: none; stroke: #000000; stroke-width: 0.8; stroke-linejoin: miter; stroke-linecap: square"/>
   </g>
   <g id="patch_14">
    <path d="M 2122.47 647.08 
L 2122.47 21.6 
" style="fill: none; stroke: #000000; stroke-width: 0.8; stroke-linejoin: miter; stroke-linecap: square"/>
   </g>
   <g id="patch_15">
    <path d="M 1511.174 647.08 
L 2122.47 647.08 
" style="fill: none; stroke: #000000; stroke-width: 0.8; stroke-linejoin: miter; stroke-linecap: square"/>
   </g>
   <g id="patch_16">
    <path d="M 1511.174 21.6 
L 2122.47 21.6 
" style="fill: none; stroke: #000000; stroke-width: 0.8; stroke-linejoin: miter; stroke-linecap: square"/>
   </g>
   <g id="legend_1">
    <g id="patch_17">
     <path d="M 1945.698125 184.38125 
L 2108.47 184.38125 
Q 2112.47 184.38125 2112.47 180.38125 
L 2112.47 35.6 
Q 2112.47 31.6 2108.47 31.6 
L 1945.698125 31.6 
Q 1941.698125 31.6 1941.698125 35.6 
L 1941.698125 180.38125 
Q 1941.698125 184.38125 1945.698125 184.38125 
z
" style="fill: #ffffff; opacity: 0.8; stroke: #cccccc; stroke-linejoin: miter"/>
    </g>
    <g id="line2d_51">
     <path d="M 1949.698125 47.796875 
L 1969.698125 47.796875 
L 1989.698125 47.796875 
" style="fill: none; stroke: #1f77b4; stroke-width: 1.5; stroke-linecap: square"/>
    </g>
    <g id="text_42">
     <!-- Exact Sol. -->
     <g transform="translate(2005.698125 54.796875) scale(0.2 -0.2)">
      <defs>
       <path id="DejaVuSans-45" d="M 628 4666 
L 3578 4666 
L 3578 4134 
L 1259 4134 
L 1259 2753 
L 3481 2753 
L 3481 2222 
L 1259 2222 
L 1259 531 
L 3634 531 
L 3634 0 
L 628 0 
L 628 4666 
z
" transform="scale(0.015625)"/>
       <path id="DejaVuSans-78" d="M 3513 3500 
L 2247 1797 
L 3578 0 
L 2900 0 
L 1881 1375 
L 863 0 
L 184 0 
L 1544 1831 
L 300 3500 
L 978 3500 
L 1906 2253 
L 2834 3500 
L 3513 3500 
z
" transform="scale(0.015625)"/>
       <path id="DejaVuSans-61" d="M 2194 1759 
Q 1497 1759 1228 1600 
Q 959 1441 959 1056 
Q 959 750 1161 570 
Q 1363 391 1709 391 
Q 2188 391 2477 730 
Q 2766 1069 2766 1631 
L 2766 1759 
L 2194 1759 
z
M 3341 1997 
L 3341 0 
L 2766 0 
L 2766 531 
Q 2569 213 2275 61 
Q 1981 -91 1556 -91 
Q 1019 -91 701 211 
Q 384 513 384 1019 
Q 384 1609 779 1909 
Q 1175 2209 1959 2209 
L 2766 2209 
L 2766 2266 
Q 2766 2663 2505 2880 
Q 2244 3097 1772 3097 
Q 1472 3097 1187 3025 
Q 903 2953 641 2809 
L 641 3341 
Q 956 3463 1253 3523 
Q 1550 3584 1831 3584 
Q 2591 3584 2966 3190 
Q 3341 2797 3341 1997 
z
" transform="scale(0.015625)"/>
       <path id="DejaVuSans-63" d="M 3122 3366 
L 3122 2828 
Q 2878 2963 2633 3030 
Q 2388 3097 2138 3097 
Q 1578 3097 1268 2742 
Q 959 2388 959 1747 
Q 959 1106 1268 751 
Q 1578 397 2138 397 
Q 2388 397 2633 464 
Q 2878 531 3122 666 
L 3122 134 
Q 2881 22 2623 -34 
Q 2366 -91 2075 -91 
Q 1284 -91 818 406 
Q 353 903 353 1747 
Q 353 2603 823 3093 
Q 1294 3584 2113 3584 
Q 2378 3584 2631 3529 
Q 2884 3475 3122 3366 
z
" transform="scale(0.015625)"/>
       <path id="DejaVuSans-53" d="M 3425 4513 
L 3425 3897 
Q 3066 4069 2747 4153 
Q 2428 4238 2131 4238 
Q 1616 4238 1336 4038 
Q 1056 3838 1056 3469 
Q 1056 3159 1242 3001 
Q 1428 2844 1947 2747 
L 2328 2669 
Q 3034 2534 3370 2195 
Q 3706 1856 3706 1288 
Q 3706 609 3251 259 
Q 2797 -91 1919 -91 
Q 1588 -91 1214 -16 
Q 841 59 441 206 
L 441 856 
Q 825 641 1194 531 
Q 1563 422 1919 422 
Q 2459 422 2753 634 
Q 3047 847 3047 1241 
Q 3047 1584 2836 1778 
Q 2625 1972 2144 2069 
L 1759 2144 
Q 1053 2284 737 2584 
Q 422 2884 422 3419 
Q 422 4038 858 4394 
Q 1294 4750 2059 4750 
Q 2388 4750 2728 4690 
Q 3069 4631 3425 4513 
z
" transform="scale(0.015625)"/>
       <path id="DejaVuSans-6c" d="M 603 4863 
L 1178 4863 
L 1178 0 
L 603 0 
L 603 4863 
z
" transform="scale(0.015625)"/>
      </defs>
      <use xlink:href="#DejaVuSans-45"/>
      <use xlink:href="#DejaVuSans-78" x="63.183594"/>
      <use xlink:href="#DejaVuSans-61" x="122.363281"/>
      <use xlink:href="#DejaVuSans-63" x="183.642578"/>
      <use xlink:href="#DejaVuSans-74" x="238.623047"/>
      <use xlink:href="#DejaVuSans-20" x="277.832031"/>
      <use xlink:href="#DejaVuSans-53" x="309.619141"/>
      <use xlink:href="#DejaVuSans-6f" x="373.095703"/>
      <use xlink:href="#DejaVuSans-6c" x="434.277344"/>
      <use xlink:href="#DejaVuSans-2e" x="462.060547"/>
     </g>
    </g>
    <g id="line2d_52">
     <path d="M 1949.698125 77.153125 
L 1969.698125 77.153125 
L 1989.698125 77.153125 
" style="fill: none; stroke: #ff7f0e; stroke-width: 1.5; stroke-linecap: square"/>
    </g>
    <g id="text_43">
     <!-- N -->
     <g transform="translate(2005.698125 84.153125) scale(0.2 -0.2)">
      <defs>
       <path id="DejaVuSans-4e" d="M 628 4666 
L 1478 4666 
L 3547 763 
L 3547 4666 
L 4159 4666 
L 4159 0 
L 3309 0 
L 1241 3903 
L 1241 0 
L 628 0 
L 628 4666 
z
" transform="scale(0.015625)"/>
      </defs>
      <use xlink:href="#DejaVuSans-4e"/>
     </g>
    </g>
    <g id="line2d_53">
     <path d="M 1949.698125 106.509375 
L 1969.698125 106.509375 
L 1989.698125 106.509375 
" style="fill: none; stroke: #2ca02c; stroke-width: 1.5; stroke-linecap: square"/>
    </g>
    <g id="text_44">
     <!-- LDA -->
     <g transform="translate(2005.698125 113.509375) scale(0.2 -0.2)">
      <defs>
       <path id="DejaVuSans-4c" d="M 628 4666 
L 1259 4666 
L 1259 531 
L 3531 531 
L 3531 0 
L 628 0 
L 628 4666 
z
" transform="scale(0.015625)"/>
       <path id="DejaVuSans-44" d="M 1259 4147 
L 1259 519 
L 2022 519 
Q 2988 519 3436 956 
Q 3884 1394 3884 2338 
Q 3884 3275 3436 3711 
Q 2988 4147 2022 4147 
L 1259 4147 
z
M 628 4666 
L 1925 4666 
Q 3281 4666 3915 4102 
Q 4550 3538 4550 2338 
Q 4550 1131 3912 565 
Q 3275 0 1925 0 
L 628 0 
L 628 4666 
z
" transform="scale(0.015625)"/>
       <path id="DejaVuSans-41" d="M 2188 4044 
L 1331 1722 
L 3047 1722 
L 2188 4044 
z
M 1831 4666 
L 2547 4666 
L 4325 0 
L 3669 0 
L 3244 1197 
L 1141 1197 
L 716 0 
L 50 0 
L 1831 4666 
z
" transform="scale(0.015625)"/>
      </defs>
      <use xlink:href="#DejaVuSans-4c"/>
      <use xlink:href="#DejaVuSans-44" x="55.712891"/>
      <use xlink:href="#DejaVuSans-41" x="130.964844"/>
     </g>
    </g>
    <g id="line2d_54">
     <path d="M 1949.698125 135.865625 
L 1969.698125 135.865625 
L 1989.698125 135.865625 
" style="fill: none; stroke: #d62728; stroke-width: 1.5; stroke-linecap: square"/>
    </g>
    <g id="text_45">
     <!-- B -->
     <g transform="translate(2005.698125 142.865625) scale(0.2 -0.2)">
      <defs>
       <path id="DejaVuSans-42" d="M 1259 2228 
L 1259 519 
L 2272 519 
Q 2781 519 3026 730 
Q 3272 941 3272 1375 
Q 3272 1813 3026 2020 
Q 2781 2228 2272 2228 
L 1259 2228 
z
M 1259 4147 
L 1259 2741 
L 2194 2741 
Q 2656 2741 2882 2914 
Q 3109 3088 3109 3444 
Q 3109 3797 2882 3972 
Q 2656 4147 2194 4147 
L 1259 4147 
z
M 628 4666 
L 2241 4666 
Q 2963 4666 3353 4366 
Q 3744 4066 3744 3513 
Q 3744 3084 3544 2831 
Q 3344 2578 2956 2516 
Q 3422 2416 3680 2098 
Q 3938 1781 3938 1306 
Q 3938 681 3513 340 
Q 3088 0 2303 0 
L 628 0 
L 628 4666 
z
" transform="scale(0.015625)"/>
      </defs>
      <use xlink:href="#DejaVuSans-42"/>
     </g>
    </g>
    <g id="line2d_55">
     <path d="M 1949.698125 165.221875 
L 1969.698125 165.221875 
L 1989.698125 165.221875 
" style="fill: none; stroke: #9467bd; stroke-width: 1.5; stroke-linecap: square"/>
    </g>
    <g id="text_46">
     <!-- Bx -->
     <g transform="translate(2005.698125 172.221875) scale(0.2 -0.2)">
      <use xlink:href="#DejaVuSans-42"/>
      <use xlink:href="#DejaVuSans-78" x="68.603516"/>
     </g>
    </g>
   </g>
  </g>
 </g>
 <defs>
  <clipPath id="p0a14080b06">
   <rect x="84.71" y="21.6" width="611.296" height="625.48"/>
  </clipPath>
  <clipPath id="p51b54dabe5">
   <rect x="797.942" y="21.6" width="611.296" height="625.48"/>
  </clipPath>
  <clipPath id="p653d5bcc4c">
   <rect x="1511.174" y="21.6" width="611.296" height="625.48"/>
  </clipPath>
 </defs>
</svg>
