<?xml version="1.0" encoding="utf-8" standalone="no"?>
<!DOCTYPE svg PUBLIC "-//W3C//DTD SVG 1.1//EN"
  "http://www.w3.org/Graphics/SVG/1.1/DTD/svg11.dtd">
<svg xmlns:xlink="http://www.w3.org/1999/xlink" width="2160pt" height="720pt" viewBox="0 0 2160 720" xmlns="http://www.w3.org/2000/svg" version="1.1">
 <metadata>
  <rdf:RDF xmlns:dc="http://purl.org/dc/elements/1.1/" xmlns:cc="http://creativecommons.org/ns#" xmlns:rdf="http://www.w3.org/1999/02/22-rdf-syntax-ns#">
   <cc:Work>
    <dc:type rdf:resource="http://purl.org/dc/dcmitype/StillImage"/>
    <dc:date>2023-06-30T23:10:20.734116</dc:date>
    <dc:format>image/svg+xml</dc:format>
    <dc:creator>
     <cc:Agent>
      <dc:title>Matplotlib v3.7.1, https://matplotlib.org/</dc:title>
     </cc:Agent>
    </dc:creator>
   </cc:Work>
  </rdf:RDF>
 </metadata>
 <defs>
  <style type="text/css">*{stroke-linejoin: round; stroke-linecap: butt}</style>
 </defs>
 <g id="figure_1">
  <g id="patch_1">
   <path d="M 0 720 
L 2160 720 
L 2160 0 
L 0 0 
z
" style="fill: #ffffff"/>
  </g>
  <g id="axes_1">
   <g id="patch_2">
    <path d="M 84.71 647.08 
L 696.006 647.08 
L 696.006 21.6 
L 84.71 21.6 
z
" style="fill: #ffffff"/>
   </g>
   <g id="matplotlib.axis_1">
    <g id="xtick_1">
     <g id="line2d_1">
      <defs>
       <path id="m2cbdfe1ea2" d="M 0 0 
L 0 3.5 
" style="stroke: #000000; stroke-width: 0.8"/>
      </defs>
      <g>
       <use xlink:href="#m2cbdfe1ea2" x="84.71" y="647.08" style="stroke: #000000; stroke-width: 0.8"/>
      </g>
     </g>
     <g id="text_1">
      <!-- 1.0 -->
      <g transform="translate(68.806875 669.276875) scale(0.2 -0.2)">
       <defs>
        <path id="DejaVuSans-31" d="M 794 531 
L 1825 531 
L 1825 4091 
L 703 3866 
L 703 4441 
L 1819 4666 
L 2450 4666 
L 2450 531 
L 3481 531 
L 3481 0 
L 794 0 
L 794 531 
z
" transform="scale(0.015625)"/>
        <path id="DejaVuSans-2e" d="M 684 794 
L 1344 794 
L 1344 0 
L 684 0 
L 684 794 
z
" transform="scale(0.015625)"/>
        <path id="DejaVuSans-30" d="M 2034 4250 
Q 1547 4250 1301 3770 
Q 1056 3291 1056 2328 
Q 1056 1369 1301 889 
Q 1547 409 2034 409 
Q 2525 409 2770 889 
Q 3016 1369 3016 2328 
Q 3016 3291 2770 3770 
Q 2525 4250 2034 4250 
z
M 2034 4750 
Q 2819 4750 3233 4129 
Q 3647 3509 3647 2328 
Q 3647 1150 3233 529 
Q 2819 -91 2034 -91 
Q 1250 -91 836 529 
Q 422 1150 422 2328 
Q 422 3509 836 4129 
Q 1250 4750 2034 4750 
z
" transform="scale(0.015625)"/>
       </defs>
       <use xlink:href="#DejaVuSans-31"/>
       <use xlink:href="#DejaVuSans-2e" x="63.623047"/>
       <use xlink:href="#DejaVuSans-30" x="95.410156"/>
      </g>
     </g>
    </g>
    <g id="xtick_2">
     <g id="line2d_2">
      <g>
       <use xlink:href="#m2cbdfe1ea2" x="206.9692" y="647.08" style="stroke: #000000; stroke-width: 0.8"/>
      </g>
     </g>
     <g id="text_2">
      <!-- 1.2 -->
      <g transform="translate(191.066075 669.276875) scale(0.2 -0.2)">
       <defs>
        <path id="DejaVuSans-32" d="M 1228 531 
L 3431 531 
L 3431 0 
L 469 0 
L 469 531 
Q 828 903 1448 1529 
Q 2069 2156 2228 2338 
Q 2531 2678 2651 2914 
Q 2772 3150 2772 3378 
Q 2772 3750 2511 3984 
Q 2250 4219 1831 4219 
Q 1534 4219 1204 4116 
Q 875 4013 500 3803 
L 500 4441 
Q 881 4594 1212 4672 
Q 1544 4750 1819 4750 
Q 2544 4750 2975 4387 
Q 3406 4025 3406 3419 
Q 3406 3131 3298 2873 
Q 3191 2616 2906 2266 
Q 2828 2175 2409 1742 
Q 1991 1309 1228 531 
z
" transform="scale(0.015625)"/>
       </defs>
       <use xlink:href="#DejaVuSans-31"/>
       <use xlink:href="#DejaVuSans-2e" x="63.623047"/>
       <use xlink:href="#DejaVuSans-32" x="95.410156"/>
      </g>
     </g>
    </g>
    <g id="xtick_3">
     <g id="line2d_3">
      <g>
       <use xlink:href="#m2cbdfe1ea2" x="329.2284" y="647.08" style="stroke: #000000; stroke-width: 0.8"/>
      </g>
     </g>
     <g id="text_3">
      <!-- 1.4 -->
      <g transform="translate(313.325275 669.276875) scale(0.2 -0.2)">
       <defs>
        <path id="DejaVuSans-34" d="M 2419 4116 
L 825 1625 
L 2419 1625 
L 2419 4116 
z
M 2253 4666 
L 3047 4666 
L 3047 1625 
L 3713 1625 
L 3713 1100 
L 3047 1100 
L 3047 0 
L 2419 0 
L 2419 1100 
L 313 1100 
L 313 1709 
L 2253 4666 
z
" transform="scale(0.015625)"/>
       </defs>
       <use xlink:href="#DejaVuSans-31"/>
       <use xlink:href="#DejaVuSans-2e" x="63.623047"/>
       <use xlink:href="#DejaVuSans-34" x="95.410156"/>
      </g>
     </g>
    </g>
    <g id="xtick_4">
     <g id="line2d_4">
      <g>
       <use xlink:href="#m2cbdfe1ea2" x="451.4876" y="647.08" style="stroke: #000000; stroke-width: 0.8"/>
      </g>
     </g>
     <g id="text_4">
      <!-- 1.6 -->
      <g transform="translate(435.584475 669.276875) scale(0.2 -0.2)">
       <defs>
        <path id="DejaVuSans-36" d="M 2113 2584 
Q 1688 2584 1439 2293 
Q 1191 2003 1191 1497 
Q 1191 994 1439 701 
Q 1688 409 2113 409 
Q 2538 409 2786 701 
Q 3034 994 3034 1497 
Q 3034 2003 2786 2293 
Q 2538 2584 2113 2584 
z
M 3366 4563 
L 3366 3988 
Q 3128 4100 2886 4159 
Q 2644 4219 2406 4219 
Q 1781 4219 1451 3797 
Q 1122 3375 1075 2522 
Q 1259 2794 1537 2939 
Q 1816 3084 2150 3084 
Q 2853 3084 3261 2657 
Q 3669 2231 3669 1497 
Q 3669 778 3244 343 
Q 2819 -91 2113 -91 
Q 1303 -91 875 529 
Q 447 1150 447 2328 
Q 447 3434 972 4092 
Q 1497 4750 2381 4750 
Q 2619 4750 2861 4703 
Q 3103 4656 3366 4563 
z
" transform="scale(0.015625)"/>
       </defs>
       <use xlink:href="#DejaVuSans-31"/>
       <use xlink:href="#DejaVuSans-2e" x="63.623047"/>
       <use xlink:href="#DejaVuSans-36" x="95.410156"/>
      </g>
     </g>
    </g>
    <g id="xtick_5">
     <g id="line2d_5">
      <g>
       <use xlink:href="#m2cbdfe1ea2" x="573.7468" y="647.08" style="stroke: #000000; stroke-width: 0.8"/>
      </g>
     </g>
     <g id="text_5">
      <!-- 1.8 -->
      <g transform="translate(557.843675 669.276875) scale(0.2 -0.2)">
       <defs>
        <path id="DejaVuSans-38" d="M 2034 2216 
Q 1584 2216 1326 1975 
Q 1069 1734 1069 1313 
Q 1069 891 1326 650 
Q 1584 409 2034 409 
Q 2484 409 2743 651 
Q 3003 894 3003 1313 
Q 3003 1734 2745 1975 
Q 2488 2216 2034 2216 
z
M 1403 2484 
Q 997 2584 770 2862 
Q 544 3141 544 3541 
Q 544 4100 942 4425 
Q 1341 4750 2034 4750 
Q 2731 4750 3128 4425 
Q 3525 4100 3525 3541 
Q 3525 3141 3298 2862 
Q 3072 2584 2669 2484 
Q 3125 2378 3379 2068 
Q 3634 1759 3634 1313 
Q 3634 634 3220 271 
Q 2806 -91 2034 -91 
Q 1263 -91 848 271 
Q 434 634 434 1313 
Q 434 1759 690 2068 
Q 947 2378 1403 2484 
z
M 1172 3481 
Q 1172 3119 1398 2916 
Q 1625 2713 2034 2713 
Q 2441 2713 2670 2916 
Q 2900 3119 2900 3481 
Q 2900 3844 2670 4047 
Q 2441 4250 2034 4250 
Q 1625 4250 1398 4047 
Q 1172 3844 1172 3481 
z
" transform="scale(0.015625)"/>
       </defs>
       <use xlink:href="#DejaVuSans-31"/>
       <use xlink:href="#DejaVuSans-2e" x="63.623047"/>
       <use xlink:href="#DejaVuSans-38" x="95.410156"/>
      </g>
     </g>
    </g>
    <g id="xtick_6">
     <g id="line2d_6">
      <g>
       <use xlink:href="#m2cbdfe1ea2" x="696.006" y="647.08" style="stroke: #000000; stroke-width: 0.8"/>
      </g>
     </g>
     <g id="text_6">
      <!-- 2.0 -->
      <g transform="translate(680.102875 669.276875) scale(0.2 -0.2)">
       <use xlink:href="#DejaVuSans-32"/>
       <use xlink:href="#DejaVuSans-2e" x="63.623047"/>
       <use xlink:href="#DejaVuSans-30" x="95.410156"/>
      </g>
     </g>
    </g>
    <g id="text_7">
     <!-- Position $x$ -->
     <g transform="translate(341.958 692.633125) scale(0.2 -0.2)">
      <defs>
       <path id="DejaVuSans-50" d="M 1259 4147 
L 1259 2394 
L 2053 2394 
Q 2494 2394 2734 2622 
Q 2975 2850 2975 3272 
Q 2975 3691 2734 3919 
Q 2494 4147 2053 4147 
L 1259 4147 
z
M 628 4666 
L 2053 4666 
Q 2838 4666 3239 4311 
Q 3641 3956 3641 3272 
Q 3641 2581 3239 2228 
Q 2838 1875 2053 1875 
L 1259 1875 
L 1259 0 
L 628 0 
L 628 4666 
z
" transform="scale(0.015625)"/>
       <path id="DejaVuSans-6f" d="M 1959 3097 
Q 1497 3097 1228 2736 
Q 959 2375 959 1747 
Q 959 1119 1226 758 
Q 1494 397 1959 397 
Q 2419 397 2687 759 
Q 2956 1122 2956 1747 
Q 2956 2369 2687 2733 
Q 2419 3097 1959 3097 
z
M 1959 3584 
Q 2709 3584 3137 3096 
Q 3566 2609 3566 1747 
Q 3566 888 3137 398 
Q 2709 -91 1959 -91 
Q 1206 -91 779 398 
Q 353 888 353 1747 
Q 353 2609 779 3096 
Q 1206 3584 1959 3584 
z
" transform="scale(0.015625)"/>
       <path id="DejaVuSans-73" d="M 2834 3397 
L 2834 2853 
Q 2591 2978 2328 3040 
Q 2066 3103 1784 3103 
Q 1356 3103 1142 2972 
Q 928 2841 928 2578 
Q 928 2378 1081 2264 
Q 1234 2150 1697 2047 
L 1894 2003 
Q 2506 1872 2764 1633 
Q 3022 1394 3022 966 
Q 3022 478 2636 193 
Q 2250 -91 1575 -91 
Q 1294 -91 989 -36 
Q 684 19 347 128 
L 347 722 
Q 666 556 975 473 
Q 1284 391 1588 391 
Q 1994 391 2212 530 
Q 2431 669 2431 922 
Q 2431 1156 2273 1281 
Q 2116 1406 1581 1522 
L 1381 1569 
Q 847 1681 609 1914 
Q 372 2147 372 2553 
Q 372 3047 722 3315 
Q 1072 3584 1716 3584 
Q 2034 3584 2315 3537 
Q 2597 3491 2834 3397 
z
" transform="scale(0.015625)"/>
       <path id="DejaVuSans-69" d="M 603 3500 
L 1178 3500 
L 1178 0 
L 603 0 
L 603 3500 
z
M 603 4863 
L 1178 4863 
L 1178 4134 
L 603 4134 
L 603 4863 
z
" transform="scale(0.015625)"/>
       <path id="DejaVuSans-74" d="M 1172 4494 
L 1172 3500 
L 2356 3500 
L 2356 3053 
L 1172 3053 
L 1172 1153 
Q 1172 725 1289 603 
Q 1406 481 1766 481 
L 2356 481 
L 2356 0 
L 1766 0 
Q 1100 0 847 248 
Q 594 497 594 1153 
L 594 3053 
L 172 3053 
L 172 3500 
L 594 3500 
L 594 4494 
L 1172 4494 
z
" transform="scale(0.015625)"/>
       <path id="DejaVuSans-6e" d="M 3513 2113 
L 3513 0 
L 2938 0 
L 2938 2094 
Q 2938 2591 2744 2837 
Q 2550 3084 2163 3084 
Q 1697 3084 1428 2787 
Q 1159 2491 1159 1978 
L 1159 0 
L 581 0 
L 581 3500 
L 1159 3500 
L 1159 2956 
Q 1366 3272 1645 3428 
Q 1925 3584 2291 3584 
Q 2894 3584 3203 3211 
Q 3513 2838 3513 2113 
z
" transform="scale(0.015625)"/>
       <path id="DejaVuSans-20" transform="scale(0.015625)"/>
       <path id="DejaVuSans-Oblique-78" d="M 3841 3500 
L 2234 1784 
L 3219 0 
L 2559 0 
L 1819 1388 
L 531 0 
L -166 0 
L 1556 1844 
L 641 3500 
L 1300 3500 
L 1972 2234 
L 3144 3500 
L 3841 3500 
z
" transform="scale(0.015625)"/>
      </defs>
      <use xlink:href="#DejaVuSans-50" transform="translate(0 0.015625)"/>
      <use xlink:href="#DejaVuSans-6f" transform="translate(60.302734 0.015625)"/>
      <use xlink:href="#DejaVuSans-73" transform="translate(121.484375 0.015625)"/>
      <use xlink:href="#DejaVuSans-69" transform="translate(173.583984 0.015625)"/>
      <use xlink:href="#DejaVuSans-74" transform="translate(201.367188 0.015625)"/>
      <use xlink:href="#DejaVuSans-69" transform="translate(240.576172 0.015625)"/>
      <use xlink:href="#DejaVuSans-6f" transform="translate(268.359375 0.015625)"/>
      <use xlink:href="#DejaVuSans-6e" transform="translate(329.541016 0.015625)"/>
      <use xlink:href="#DejaVuSans-20" transform="translate(392.919922 0.015625)"/>
      <use xlink:href="#DejaVuSans-Oblique-78" transform="translate(424.707031 0.015625)"/>
     </g>
    </g>
   </g>
   <g id="matplotlib.axis_2">
    <g id="ytick_1">
     <g id="line2d_7">
      <defs>
       <path id="m0d9e4b2b2d" d="M 0 0 
L -3.5 0 
" style="stroke: #000000; stroke-width: 0.8"/>
      </defs>
      <g>
       <use xlink:href="#m0d9e4b2b2d" x="84.71" y="647.08" style="stroke: #000000; stroke-width: 0.8"/>
      </g>
     </g>
     <g id="text_8">
      <!-- 0.0 -->
      <g transform="translate(45.90375 654.678437) scale(0.2 -0.2)">
       <use xlink:href="#DejaVuSans-30"/>
       <use xlink:href="#DejaVuSans-2e" x="63.623047"/>
       <use xlink:href="#DejaVuSans-30" x="95.410156"/>
      </g>
     </g>
    </g>
    <g id="ytick_2">
     <g id="line2d_8">
      <g>
       <use xlink:href="#m0d9e4b2b2d" x="84.71" y="527.227545" style="stroke: #000000; stroke-width: 0.8"/>
      </g>
     </g>
     <g id="text_9">
      <!-- 0.2 -->
      <g transform="translate(45.90375 534.825982) scale(0.2 -0.2)">
       <use xlink:href="#DejaVuSans-30"/>
       <use xlink:href="#DejaVuSans-2e" x="63.623047"/>
       <use xlink:href="#DejaVuSans-32" x="95.410156"/>
      </g>
     </g>
    </g>
    <g id="ytick_3">
     <g id="line2d_9">
      <g>
       <use xlink:href="#m0d9e4b2b2d" x="84.71" y="407.37509" style="stroke: #000000; stroke-width: 0.8"/>
      </g>
     </g>
     <g id="text_10">
      <!-- 0.4 -->
      <g transform="translate(45.90375 414.973527) scale(0.2 -0.2)">
       <use xlink:href="#DejaVuSans-30"/>
       <use xlink:href="#DejaVuSans-2e" x="63.623047"/>
       <use xlink:href="#DejaVuSans-34" x="95.410156"/>
      </g>
     </g>
    </g>
    <g id="ytick_4">
     <g id="line2d_10">
      <g>
       <use xlink:href="#m0d9e4b2b2d" x="84.71" y="287.522635" style="stroke: #000000; stroke-width: 0.8"/>
      </g>
     </g>
     <g id="text_11">
      <!-- 0.6 -->
      <g transform="translate(45.90375 295.121072) scale(0.2 -0.2)">
       <use xlink:href="#DejaVuSans-30"/>
       <use xlink:href="#DejaVuSans-2e" x="63.623047"/>
       <use xlink:href="#DejaVuSans-36" x="95.410156"/>
      </g>
     </g>
    </g>
    <g id="ytick_5">
     <g id="line2d_11">
      <g>
       <use xlink:href="#m0d9e4b2b2d" x="84.71" y="167.67018" style="stroke: #000000; stroke-width: 0.8"/>
      </g>
     </g>
     <g id="text_12">
      <!-- 0.8 -->
      <g transform="translate(45.90375 175.268617) scale(0.2 -0.2)">
       <use xlink:href="#DejaVuSans-30"/>
       <use xlink:href="#DejaVuSans-2e" x="63.623047"/>
       <use xlink:href="#DejaVuSans-38" x="95.410156"/>
      </g>
     </g>
    </g>
    <g id="ytick_6">
     <g id="line2d_12">
      <g>
       <use xlink:href="#m0d9e4b2b2d" x="84.71" y="47.817725" style="stroke: #000000; stroke-width: 0.8"/>
      </g>
     </g>
     <g id="text_13">
      <!-- 1.0 -->
      <g transform="translate(45.90375 55.416162) scale(0.2 -0.2)">
       <use xlink:href="#DejaVuSans-31"/>
       <use xlink:href="#DejaVuSans-2e" x="63.623047"/>
       <use xlink:href="#DejaVuSans-30" x="95.410156"/>
      </g>
     </g>
    </g>
    <g id="text_14">
     <!-- $\rho$ -->
     <g transform="translate(37.70375 340.74) rotate(-90) scale(0.2 -0.2)">
      <defs>
       <path id="DejaVuSans-Oblique-3c1" d="M 1203 2875 
Q 1453 3194 1981 3475 
Q 2188 3584 2756 3584 
Q 3394 3584 3694 3078 
Q 3994 2572 3834 1747 
Q 3672 922 3175 415 
Q 2678 -91 2041 -91 
Q 1656 -91 1409 63 
Q 1163 213 1044 525 
L 681 -1331 
L 103 -1331 
L 697 1716 
Q 838 2438 1203 2875 
z
M 3238 1747 
Q 3359 2381 3169 2744 
Q 2978 3103 2522 3103 
Q 2066 3103 1734 2744 
Q 1403 2381 1281 1747 
Q 1156 1113 1347 750 
Q 1538 391 1994 391 
Q 2450 391 2781 750 
Q 3113 1113 3238 1747 
z
" transform="scale(0.015625)"/>
      </defs>
      <use xlink:href="#DejaVuSans-Oblique-3c1"/>
     </g>
    </g>
   </g>
   <g id="line2d_13">
    <path d="M 65.607 47.817725 
L 218.431 47.817725 
L 218.431 47.817725 
L 237.534 65.087545 
L 237.534 65.087545 
L 256.637 116.455965 
L 256.637 116.455965 
L 275.74 164.709186 
L 275.74 164.709186 
L 294.843 209.944651 
L 294.843 209.944651 
L 313.946 252.259806 
L 313.946 252.259806 
L 333.049 291.752096 
L 333.049 291.752096 
L 352.152 328.518967 
L 352.152 328.518967 
L 371.255 359.620443 
L 371.255 359.620443 
L 485.873 359.620443 
L 485.873 359.620443 
L 504.976 509.366084 
L 504.976 509.366084 
L 600.491 509.366084 
L 600.491 509.366084 
L 619.594 572.172216 
L 619.594 572.172216 
L 676.903 572.172216 
L 676.903 572.172216 
" clip-path="url(#p2b9c2f044b)" style="fill: none; stroke: #1f77b4; stroke-width: 1.5; stroke-linecap: square"/>
   </g>
   <g id="line2d_14">
    <path d="M 65.607 51.539143 
L 84.71 50.881153 
L 84.71 50.881153 
L 103.813 51.539743 
L 103.813 51.539143 
L 122.916 53.634164 
L 122.916 53.634164 
L 142.019 57.498807 
L 142.019 57.498207 
L 161.122 63.614278 
L 161.122 63.613679 
L 180.225 72.51572 
L 180.225 72.513922 
L 199.328 84.681943 
L 199.328 84.678946 
L 218.431 100.446136 
L 218.431 100.440743 
L 237.534 119.937142 
L 237.534 119.928752 
L 256.637 143.065669 
L 256.637 143.053684 
L 275.74 169.544672 
L 275.74 169.529091 
L 294.843 198.932494 
L 294.843 198.913917 
L 313.946 230.683207 
L 313.946 230.662832 
L 333.049 264.029756 
L 333.049 264.009381 
L 352.152 298.653332 
L 352.152 298.632957 
L 371.255 331.886021 
L 371.255 331.844672 
L 371.255 331.560022 
L 371.255 331.880628 
L 371.255 331.866845 
L 390.358 360.575103 
L 390.358 360.54514 
L 390.358 360.235921 
L 390.358 360.570309 
L 390.358 360.556526 
L 409.461 372.729341 
L 409.461 372.707168 
L 409.461 372.442893 
L 409.461 372.727543 
L 409.461 372.713161 
L 428.564 384.347838 
L 428.564 384.331058 
L 428.564 384.15068 
L 428.564 384.347838 
L 428.564 384.334055 
L 447.667 402.85006 
L 447.667 402.836277 
L 466.77 427.018308 
L 466.77 427.005723 
L 485.873 452.537293 
L 485.873 452.524109 
L 504.976 475.1133 
L 504.976 475.100716 
L 524.079 492.363065 
L 524.079 492.351679 
L 543.182 504.242241 
L 543.182 504.233252 
L 562.285 512.401796 
L 562.285 512.395804 
L 581.388 519.186644 
L 581.388 519.183048 
L 600.491 526.712779 
L 600.491 526.709782 
L 619.594 536.082844 
L 619.594 536.081046 
L 638.697 546.786267 
L 638.697 546.785069 
L 657.8 556.7508 
L 657.8 556.750201 
L 676.903 563.556023 
L 676.903 563.555423 
" clip-path="url(#p2b9c2f044b)" style="fill: none; stroke: #ff7f0e; stroke-width: 1.5; stroke-linecap: square"/>
   </g>
   <g id="line2d_15">
    <path d="M 65.607 59.690908 
L 84.71 58.699728 
L 84.71 58.720702 
L 103.813 59.736452 
L 103.813 59.686114 
L 122.916 62.640477 
L 122.916 62.623698 
L 142.019 67.640122 
L 142.019 67.625141 
L 161.122 74.830071 
L 161.122 74.782729 
L 180.225 84.2289 
L 180.225 84.217514 
L 199.328 96.105679 
L 199.328 96.039761 
L 218.431 110.323776 
L 218.431 110.295012 
L 237.534 127.060572 
L 237.534 127.047988 
L 256.637 146.288502 
L 256.637 146.279513 
L 275.74 167.94644 
L 275.74 167.936252 
L 294.843 191.978055 
L 294.843 191.967269 
L 313.946 218.524176 
L 313.946 218.514587 
L 333.049 247.811921 
L 333.049 247.808325 
L 352.152 279.944963 
L 352.152 279.943165 
L 371.255 313.566573 
L 371.255 313.564775 
L 390.358 344.800722 
L 390.358 344.798924 
L 409.461 368.276223 
L 409.461 368.273226 
L 428.564 387.325572 
L 428.564 387.319579 
L 447.667 406.972985 
L 447.667 406.963996 
L 466.77 427.850683 
L 466.77 427.835102 
L 485.873 449.043594 
L 485.873 449.019024 
L 504.976 468.914531 
L 504.976 468.885767 
L 524.079 486.119351 
L 524.079 486.092385 
L 543.182 499.979689 
L 543.182 499.960512 
L 562.285 510.591425 
L 562.285 510.581237 
L 581.388 518.658094 
L 581.388 518.6539 
L 600.491 525.163686 
L 600.491 525.163086 
L 619.594 530.972335 
L 619.594 530.972335 
L 638.697 536.430416 
L 638.697 536.430416 
L 657.8 541.104062 
L 676.903 543.926587 
L 676.903 543.926587 
" clip-path="url(#p2b9c2f044b)" style="fill: none; stroke: #2ca02c; stroke-width: 1.5; stroke-linecap: square"/>
   </g>
   <g id="line2d_16">
    <path d="M 65.607 55.192845 
L 84.71 53.88106 
L 84.71 53.884656 
L 103.813 55.216217 
L 103.813 55.190448 
L 122.916 58.441446 
L 122.916 58.439648 
L 142.019 63.52319 
L 142.019 63.522591 
L 161.122 70.775462 
L 161.122 70.773665 
L 180.225 80.485908 
L 180.225 80.485309 
L 199.328 92.948167 
L 199.328 92.939777 
L 218.431 108.405538 
L 218.431 108.38756 
L 237.534 126.967087 
L 237.534 126.817871 
L 237.534 126.977874 
L 237.534 126.814275 
L 237.534 126.886187 
L 256.637 148.595661 
L 256.637 148.577684 
L 256.637 148.420078 
L 256.637 148.487794 
L 275.74 173.293657 
L 275.74 172.899342 
L 275.74 173.384745 
L 275.74 173.337403 
L 294.843 200.555296 
L 294.843 200.101655 
L 294.843 200.847736 
L 294.843 200.530127 
L 313.946 231.028382 
L 313.946 229.634498 
L 313.946 231.2579 
L 313.946 229.684237 
L 333.049 261.723795 
L 333.049 259.981739 
L 333.049 262.389575 
L 333.049 260.833291 
L 352.152 293.680654 
L 352.152 291.428626 
L 352.152 296.205945 
L 352.152 293.515257 
L 371.255 320.672625 
L 371.255 326.362621 
L 371.255 319.08458 
L 371.255 325.568598 
L 390.358 347.614259 
L 390.358 355.562873 
L 390.358 345.800891 
L 390.358 354.845557 
L 409.461 367.153205 
L 409.461 364.839454 
L 409.461 368.925823 
L 409.461 367.631416 
L 428.564 382.575819 
L 428.564 381.537897 
L 428.564 383.347669 
L 428.564 383.15171 
L 447.667 402.649308 
L 447.667 401.827719 
L 447.667 403.029839 
L 447.667 402.844068 
L 466.77 426.226682 
L 466.77 425.702328 
L 466.77 426.375899 
L 466.77 426.277021 
L 485.873 450.493209 
L 485.873 450.15103 
L 485.873 450.507591 
L 485.873 450.467441 
L 504.976 472.366282 
L 504.976 472.2704 
L 504.976 472.157739 
L 504.976 472.367481 
L 504.976 472.316543 
L 524.079 489.827586 
L 524.079 489.767061 
L 543.182 502.302429 
L 543.182 502.264076 
L 562.285 510.628579 
L 562.285 510.575844 
L 600.491 522.991959 
L 600.491 522.951809 
L 619.594 530.33472 
L 619.594 530.280187 
L 638.697 538.894582 
L 638.697 538.829862 
L 657.8 547.658194 
L 657.8 547.626433 
L 676.903 555.416842 
L 676.903 555.403059 
" clip-path="url(#p2b9c2f044b)" style="fill: none; stroke: #d62728; stroke-width: 1.5; stroke-linecap: square"/>
   </g>
   <g id="line2d_17">
    <path d="M 65.607 59.562067 
L 84.71 58.591262 
L 84.71 58.59306 
L 103.813 59.643566 
L 103.813 59.569258 
L 122.916 62.633286 
L 122.916 62.520624 
L 142.019 67.631732 
L 142.019 67.695853 
L 142.019 67.53585 
L 142.019 67.549633 
L 161.122 74.811494 
L 161.122 74.917563 
L 161.122 74.734189 
L 161.122 74.738983 
L 180.225 84.310999 
L 180.225 84.281635 
L 180.225 84.447032 
L 180.225 84.193544 
L 180.225 84.237889 
L 199.328 96.241113 
L 199.328 96.19497 
L 199.328 96.36516 
L 199.328 96.053544 
L 199.328 96.149426 
L 218.431 110.656966 
L 218.431 110.47539 
L 218.431 110.743859 
L 218.431 110.45082 
L 237.534 127.596313 
L 237.534 127.559158 
L 237.534 127.251737 
L 237.534 127.682607 
L 237.534 127.441703 
L 256.637 147.035182 
L 256.637 146.977054 
L 256.637 146.597122 
L 256.637 147.132862 
L 256.637 146.99623 
L 275.74 169.121593 
L 275.74 168.865708 
L 275.74 168.336559 
L 275.74 169.167736 
L 275.74 169.019718 
L 294.843 193.743482 
L 294.843 192.594696 
L 294.843 193.971801 
L 294.843 193.332388 
L 313.946 220.404661 
L 313.946 219.156997 
L 313.946 220.915232 
L 313.946 220.481965 
L 333.049 251.786228 
L 333.049 248.906773 
L 333.049 251.807802 
L 333.049 251.431465 
L 352.152 283.929458 
L 352.152 285.822528 
L 352.152 282.805841 
L 352.152 284.14699 
L 371.255 320.328649 
L 371.255 317.750023 
L 371.255 322.294828 
L 390.358 357.073014 
L 390.358 353.547554 
L 390.358 359.087135 
L 390.358 354.833571 
L 409.461 379.518383 
L 409.461 378.063973 
L 409.461 383.053431 
L 409.461 379.762882 
L 428.564 398.036187 
L 428.564 396.641703 
L 428.564 396.975492 
L 447.667 416.823658 
L 447.667 416.133308 
L 447.667 417.384568 
L 447.667 416.336458 
L 466.77 439.005351 
L 466.77 438.852539 
L 466.77 438.352755 
L 466.77 439.695701 
L 466.77 438.75486 
L 485.873 462.036798 
L 485.873 461.987659 
L 485.873 461.47529 
L 485.873 462.762505 
L 485.873 462.014026 
L 504.976 482.113882 
L 504.976 482.109088 
L 504.976 481.706384 
L 504.976 482.695167 
L 504.976 482.18879 
L 524.079 497.283608 
L 524.079 497.18413 
L 524.079 497.594025 
L 524.079 496.960006 
L 524.079 497.301585 
L 543.182 507.670621 
L 543.182 507.471066 
L 543.182 507.439905 
L 543.182 507.792271 
L 543.182 507.651444 
L 562.285 515.096079 
L 562.285 515.043344 
L 581.388 521.787442 
L 581.388 521.741898 
L 600.491 529.613208 
L 600.491 529.580249 
L 619.594 539.249345 
L 619.594 539.242154 
L 638.697 549.804152 
L 638.697 549.802953 
L 657.8 559.096912 
L 657.8 559.092717 
L 676.903 565.092531 
L 676.903 565.091333 
" clip-path="url(#p2b9c2f044b)" style="fill: none; stroke: #9467bd; stroke-width: 1.5; stroke-linecap: square"/>
   </g>
   <g id="patch_3">
    <path d="M 84.71 647.08 
L 84.71 21.6 
" style="fill: none; stroke: #000000; stroke-width: 0.8; stroke-linejoin: miter; stroke-linecap: square"/>
   </g>
   <g id="patch_4">
    <path d="M 696.006 647.08 
L 696.006 21.6 
" style="fill: none; stroke: #000000; stroke-width: 0.8; stroke-linejoin: miter; stroke-linecap: square"/>
   </g>
   <g id="patch_5">
    <path d="M 84.71 647.08 
L 696.006 647.08 
" style="fill: none; stroke: #000000; stroke-width: 0.8; stroke-linejoin: miter; stroke-linecap: square"/>
   </g>
   <g id="patch_6">
    <path d="M 84.71 21.6 
L 696.006 21.6 
" style="fill: none; stroke: #000000; stroke-width: 0.8; stroke-linejoin: miter; stroke-linecap: square"/>
   </g>
  </g>
  <g id="axes_2">
   <g id="patch_7">
    <path d="M 797.942 647.08 
L 1409.238 647.08 
L 1409.238 21.6 
L 797.942 21.6 
z
" style="fill: #ffffff"/>
   </g>
   <g id="matplotlib.axis_3">
    <g id="xtick_7">
     <g id="line2d_18">
      <g>
       <use xlink:href="#m2cbdfe1ea2" x="797.942" y="647.08" style="stroke: #000000; stroke-width: 0.8"/>
      </g>
     </g>
     <g id="text_15">
      <!-- 1.0 -->
      <g transform="translate(782.038875 669.276875) scale(0.2 -0.2)">
       <use xlink:href="#DejaVuSans-31"/>
       <use xlink:href="#DejaVuSans-2e" x="63.623047"/>
       <use xlink:href="#DejaVuSans-30" x="95.410156"/>
      </g>
     </g>
    </g>
    <g id="xtick_8">
     <g id="line2d_19">
      <g>
       <use xlink:href="#m2cbdfe1ea2" x="920.2012" y="647.08" style="stroke: #000000; stroke-width: 0.8"/>
      </g>
     </g>
     <g id="text_16">
      <!-- 1.2 -->
      <g transform="translate(904.298075 669.276875) scale(0.2 -0.2)">
       <use xlink:href="#DejaVuSans-31"/>
       <use xlink:href="#DejaVuSans-2e" x="63.623047"/>
       <use xlink:href="#DejaVuSans-32" x="95.410156"/>
      </g>
     </g>
    </g>
    <g id="xtick_9">
     <g id="line2d_20">
      <g>
       <use xlink:href="#m2cbdfe1ea2" x="1042.4604" y="647.08" style="stroke: #000000; stroke-width: 0.8"/>
      </g>
     </g>
     <g id="text_17">
      <!-- 1.4 -->
      <g transform="translate(1026.557275 669.276875) scale(0.2 -0.2)">
       <use xlink:href="#DejaVuSans-31"/>
       <use xlink:href="#DejaVuSans-2e" x="63.623047"/>
       <use xlink:href="#DejaVuSans-34" x="95.410156"/>
      </g>
     </g>
    </g>
    <g id="xtick_10">
     <g id="line2d_21">
      <g>
       <use xlink:href="#m2cbdfe1ea2" x="1164.7196" y="647.08" style="stroke: #000000; stroke-width: 0.8"/>
      </g>
     </g>
     <g id="text_18">
      <!-- 1.6 -->
      <g transform="translate(1148.816475 669.276875) scale(0.2 -0.2)">
       <use xlink:href="#DejaVuSans-31"/>
       <use xlink:href="#DejaVuSans-2e" x="63.623047"/>
       <use xlink:href="#DejaVuSans-36" x="95.410156"/>
      </g>
     </g>
    </g>
    <g id="xtick_11">
     <g id="line2d_22">
      <g>
       <use xlink:href="#m2cbdfe1ea2" x="1286.9788" y="647.08" style="stroke: #000000; stroke-width: 0.8"/>
      </g>
     </g>
     <g id="text_19">
      <!-- 1.8 -->
      <g transform="translate(1271.075675 669.276875) scale(0.2 -0.2)">
       <use xlink:href="#DejaVuSans-31"/>
       <use xlink:href="#DejaVuSans-2e" x="63.623047"/>
       <use xlink:href="#DejaVuSans-38" x="95.410156"/>
      </g>
     </g>
    </g>
    <g id="xtick_12">
     <g id="line2d_23">
      <g>
       <use xlink:href="#m2cbdfe1ea2" x="1409.238" y="647.08" style="stroke: #000000; stroke-width: 0.8"/>
      </g>
     </g>
     <g id="text_20">
      <!-- 2.0 -->
      <g transform="translate(1393.334875 669.276875) scale(0.2 -0.2)">
       <use xlink:href="#DejaVuSans-32"/>
       <use xlink:href="#DejaVuSans-2e" x="63.623047"/>
       <use xlink:href="#DejaVuSans-30" x="95.410156"/>
      </g>
     </g>
    </g>
    <g id="text_21">
     <!-- Position $x$ -->
     <g transform="translate(1055.19 692.633125) scale(0.2 -0.2)">
      <use xlink:href="#DejaVuSans-50" transform="translate(0 0.015625)"/>
      <use xlink:href="#DejaVuSans-6f" transform="translate(60.302734 0.015625)"/>
      <use xlink:href="#DejaVuSans-73" transform="translate(121.484375 0.015625)"/>
      <use xlink:href="#DejaVuSans-69" transform="translate(173.583984 0.015625)"/>
      <use xlink:href="#DejaVuSans-74" transform="translate(201.367188 0.015625)"/>
      <use xlink:href="#DejaVuSans-69" transform="translate(240.576172 0.015625)"/>
      <use xlink:href="#DejaVuSans-6f" transform="translate(268.359375 0.015625)"/>
      <use xlink:href="#DejaVuSans-6e" transform="translate(329.541016 0.015625)"/>
      <use xlink:href="#DejaVuSans-20" transform="translate(392.919922 0.015625)"/>
      <use xlink:href="#DejaVuSans-Oblique-78" transform="translate(424.707031 0.015625)"/>
     </g>
    </g>
   </g>
   <g id="matplotlib.axis_4">
    <g id="ytick_7">
     <g id="line2d_24">
      <g>
       <use xlink:href="#m0d9e4b2b2d" x="797.942" y="647.08" style="stroke: #000000; stroke-width: 0.8"/>
      </g>
     </g>
     <g id="text_22">
      <!-- 0.0 -->
      <g transform="translate(759.13575 654.678437) scale(0.2 -0.2)">
       <use xlink:href="#DejaVuSans-30"/>
       <use xlink:href="#DejaVuSans-2e" x="63.623047"/>
       <use xlink:href="#DejaVuSans-30" x="95.410156"/>
      </g>
     </g>
    </g>
    <g id="ytick_8">
     <g id="line2d_25">
      <g>
       <use xlink:href="#m0d9e4b2b2d" x="797.942" y="513.094971" style="stroke: #000000; stroke-width: 0.8"/>
      </g>
     </g>
     <g id="text_23">
      <!-- 0.2 -->
      <g transform="translate(759.13575 520.693408) scale(0.2 -0.2)">
       <use xlink:href="#DejaVuSans-30"/>
       <use xlink:href="#DejaVuSans-2e" x="63.623047"/>
       <use xlink:href="#DejaVuSans-32" x="95.410156"/>
      </g>
     </g>
    </g>
    <g id="ytick_9">
     <g id="line2d_26">
      <g>
       <use xlink:href="#m0d9e4b2b2d" x="797.942" y="379.109942" style="stroke: #000000; stroke-width: 0.8"/>
      </g>
     </g>
     <g id="text_24">
      <!-- 0.4 -->
      <g transform="translate(759.13575 386.708379) scale(0.2 -0.2)">
       <use xlink:href="#DejaVuSans-30"/>
       <use xlink:href="#DejaVuSans-2e" x="63.623047"/>
       <use xlink:href="#DejaVuSans-34" x="95.410156"/>
      </g>
     </g>
    </g>
    <g id="ytick_10">
     <g id="line2d_27">
      <g>
       <use xlink:href="#m0d9e4b2b2d" x="797.942" y="245.124913" style="stroke: #000000; stroke-width: 0.8"/>
      </g>
     </g>
     <g id="text_25">
      <!-- 0.6 -->
      <g transform="translate(759.13575 252.72335) scale(0.2 -0.2)">
       <use xlink:href="#DejaVuSans-30"/>
       <use xlink:href="#DejaVuSans-2e" x="63.623047"/>
       <use xlink:href="#DejaVuSans-36" x="95.410156"/>
      </g>
     </g>
    </g>
    <g id="ytick_11">
     <g id="line2d_28">
      <g>
       <use xlink:href="#m0d9e4b2b2d" x="797.942" y="111.139884" style="stroke: #000000; stroke-width: 0.8"/>
      </g>
     </g>
     <g id="text_26">
      <!-- 0.8 -->
      <g transform="translate(759.13575 118.738321) scale(0.2 -0.2)">
       <use xlink:href="#DejaVuSans-30"/>
       <use xlink:href="#DejaVuSans-2e" x="63.623047"/>
       <use xlink:href="#DejaVuSans-38" x="95.410156"/>
      </g>
     </g>
    </g>
    <g id="text_27">
     <!-- $U_x$ -->
     <g transform="translate(750.976375 346.14) rotate(-90) scale(0.2 -0.2)">
      <defs>
       <path id="DejaVuSans-Oblique-55" d="M 991 4666 
L 1625 4666 
L 1075 1831 
Q 1041 1641 1027 1517 
Q 1013 1394 1013 1300 
Q 1013 869 1253 645 
Q 1494 422 1959 422 
Q 2563 422 2898 753 
Q 3234 1084 3378 1831 
L 3928 4666 
L 4563 4666 
L 4000 1753 
Q 3816 809 3300 359 
Q 2784 -91 1888 -91 
Q 1188 -91 780 261 
Q 372 613 372 1216 
Q 372 1325 387 1461 
Q 403 1597 434 1753 
L 991 4666 
z
" transform="scale(0.015625)"/>
      </defs>
      <use xlink:href="#DejaVuSans-Oblique-55" transform="translate(0 0.09375)"/>
      <use xlink:href="#DejaVuSans-Oblique-78" transform="translate(73.193359 -16.3125) scale(0.7)"/>
     </g>
    </g>
   </g>
   <g id="line2d_29">
    <path d="M 778.839 647.08 
L 931.663 647.08 
L 931.663 647.08 
L 950.766 621.912448 
L 950.766 621.912448 
L 1065.384 154.298937 
L 1065.384 154.298937 
L 1084.487 83.542416 
L 1084.487 83.542416 
L 1313.723 83.542416 
L 1313.723 83.542416 
L 1332.826 647.08 
L 1332.826 647.08 
L 1390.135 647.08 
L 1390.135 647.08 
" clip-path="url(#p6504f0de4f)" style="fill: none; stroke: #1f77b4; stroke-width: 1.5; stroke-linecap: square"/>
   </g>
   <g id="line2d_30">
    <path d="M 778.839 649.9226 
L 817.045 644.237246 
L 817.045 644.237367 
L 836.148 640.492867 
L 836.148 640.493162 
L 855.251 634.905718 
L 855.251 634.906388 
L 874.354 626.48965 
L 874.354 626.491057 
L 893.457 614.253132 
L 893.457 614.255745 
L 912.56 597.273879 
L 912.56 597.278904 
L 931.663 574.780338 
L 931.663 574.789047 
L 950.766 546.206021 
L 950.766 546.22076 
L 969.869 511.206452 
L 969.869 511.229899 
L 988.972 469.635587 
L 988.972 469.670423 
L 1008.075 421.495436 
L 1008.075 421.54367 
L 1027.178 366.893857 
L 1027.178 366.95147 
L 1046.281 306.048575 
L 1046.281 306.10016 
L 1065.384 239.368246 
L 1065.384 239.393033 
L 1084.487 168.327374 
L 1084.487 168.35953 
L 1103.59 100.908787 
L 1103.59 100.962381 
L 1122.693 81.474258 
L 1122.693 81.708732 
L 1122.693 81.427364 
L 1122.693 81.479618 
L 1141.796 79.664121 
L 1141.796 79.674839 
L 1141.796 79.877157 
L 1141.796 79.632634 
L 1141.796 79.665461 
L 1160.899 80.11364 
L 1160.899 80.110291 
L 1160.899 80.273083 
L 1160.899 80.079474 
L 1160.899 80.085504 
L 1180.002 80.709874 
L 1180.002 80.83649 
L 1180.002 80.669008 
L 1180.002 80.673028 
L 1199.105 81.719451 
L 1199.105 81.813241 
L 1199.105 81.653798 
L 1199.105 81.673896 
L 1218.208 83.906087 
L 1218.208 83.973749 
L 1218.208 83.780141 
L 1218.208 83.857182 
L 1237.311 88.7952 
L 1237.311 88.701411 
L 1256.414 98.955955 
L 1256.414 98.882933 
L 1275.517 118.77904 
L 1275.517 118.723436 
L 1294.62 154.295122 
L 1294.62 154.253586 
L 1313.723 212.246326 
L 1313.723 212.21551 
L 1332.826 296.653545 
L 1332.826 296.632108 
L 1371.032 506.963816 
L 1371.032 506.957787 
L 1390.135 588.8556 
L 1390.135 588.853054 
" clip-path="url(#p6504f0de4f)" style="fill: none; stroke: #ff7f0e; stroke-width: 1.5; stroke-linecap: square"/>
   </g>
   <g id="line2d_31">
    <path d="M 778.839 653.453889 
L 817.045 640.69361 
L 817.045 640.71007 
L 836.148 633.502024 
L 836.148 633.573036 
L 855.251 624.82857 
L 855.251 624.871445 
L 874.354 613.89767 
L 874.354 613.9792 
L 893.457 600.080397 
L 893.457 600.137809 
L 912.56 582.738848 
L 912.56 582.85374 
L 931.663 561.578124 
L 931.663 561.592862 
L 950.766 535.890514 
L 950.766 535.895203 
L 969.869 505.276944 
L 969.869 505.31915 
L 988.972 469.401113 
L 988.972 469.464086 
L 1008.075 427.829578 
L 1008.075 427.940786 
L 1027.178 380.208619 
L 1027.178 380.444433 
L 1046.281 326.432388 
L 1046.281 326.728495 
L 1065.384 266.98993 
L 1065.384 267.25723 
L 1084.487 204.485244 
L 1084.487 204.69694 
L 1103.59 148.164637 
L 1103.59 148.325419 
L 1122.693 115.677287 
L 1122.693 115.793854 
L 1141.796 103.402918 
L 1141.796 103.47996 
L 1160.899 99.046395 
L 1160.899 99.099319 
L 1180.002 98.845417 
L 1180.002 98.90839 
L 1199.105 101.318781 
L 1199.105 101.315431 
L 1218.208 106.60516 
L 1218.208 106.583723 
L 1218.208 106.469836 
L 1218.208 106.627268 
L 1218.208 106.61052 
L 1237.311 115.569429 
L 1237.311 115.530573 
L 1237.311 115.391229 
L 1237.311 115.587517 
L 1237.311 115.565409 
L 1256.414 129.440899 
L 1256.414 129.384625 
L 1256.414 129.242601 
L 1256.414 129.440899 
L 1256.414 129.423481 
L 1275.517 149.805283 
L 1275.517 149.783846 
L 1294.62 178.559141 
L 1294.62 178.547752 
L 1313.723 217.881737 
L 1313.723 217.877717 
L 1332.826 270.233707 
L 1332.826 270.231697 
L 1351.929 338.448835 
L 1351.929 338.448835 
L 1371.032 425.319369 
L 1371.032 425.295251 
L 1390.135 530.848657 
L 1390.135 530.787024 
" clip-path="url(#p6504f0de4f)" style="fill: none; stroke: #2ca02c; stroke-width: 1.5; stroke-linecap: square"/>
   </g>
   <g id="line2d_32">
    <path d="M 778.839 653.496188 
L 817.045 640.659873 
L 817.045 640.665909 
L 836.148 634.554611 
L 836.148 634.56131 
L 855.251 627.147516 
L 855.251 627.16125 
L 874.354 617.066416 
L 874.354 617.070435 
L 893.457 603.531248 
L 893.457 603.533727 
L 912.56 585.858623 
L 912.56 585.867734 
L 931.663 563.39764 
L 931.663 563.416398 
L 950.766 535.598426 
L 950.766 535.913291 
L 950.766 535.500617 
L 950.766 535.979614 
L 950.766 535.855678 
L 969.869 501.976893 
L 969.869 502.916798 
L 969.869 501.765197 
L 969.869 502.206008 
L 988.972 463.578794 
L 988.972 461.82024 
L 988.972 463.905717 
L 988.972 462.415134 
L 1008.075 415.605454 
L 1008.075 418.589301 
L 1008.075 415.538461 
L 1008.075 418.165908 
L 1027.178 364.389677 
L 1027.178 362.230508 
L 1027.178 367.369504 
L 1027.178 365.486344 
L 1046.281 302.564295 
L 1046.281 302.231342 
L 1046.281 310.699866 
L 1065.384 239.60138 
L 1065.384 253.010602 
L 1065.384 235.772758 
L 1065.384 248.260162 
L 1084.487 176.199664 
L 1084.487 198.112246 
L 1084.487 162.863464 
L 1084.487 197.459069 
L 1103.59 138.720032 
L 1103.59 110.00972 
L 1103.59 141.844563 
L 1103.59 115.161444 
L 1122.693 106.33719 
L 1122.693 96.715725 
L 1122.693 106.956201 
L 1122.693 99.792022 
L 1141.796 98.140656 
L 1141.796 90.628116 
L 1141.796 98.231096 
L 1141.796 93.248863 
L 1160.899 93.875913 
L 1160.899 88.949283 
L 1160.899 90.729944 
L 1180.002 91.656451 
L 1180.002 88.612311 
L 1180.002 89.726396 
L 1199.105 90.920873 
L 1199.105 89.250749 
L 1199.105 89.798078 
L 1218.208 92.115349 
L 1218.208 91.149987 
L 1218.208 92.272112 
L 1218.208 91.492319 
L 1237.311 95.899087 
L 1237.311 94.994018 
L 1237.311 96.05116 
L 1237.311 95.385924 
L 1256.414 103.857127 
L 1256.414 103.195241 
L 1256.414 103.520155 
L 1275.517 119.349816 
L 1275.517 118.559975 
L 1275.517 119.613097 
L 1275.517 118.981358 
L 1294.62 146.800669 
L 1294.62 146.734347 
L 1294.62 147.192575 
L 1294.62 146.055712 
L 1294.62 146.499873 
L 1313.723 190.957445 
L 1313.723 190.090562 
L 1313.723 191.126266 
L 1313.723 190.358532 
L 1332.826 253.632292 
L 1332.826 254.180291 
L 1332.826 252.682338 
L 1332.826 253.988692 
L 1351.929 334.802433 
L 1351.929 334.405837 
L 1351.929 335.529971 
L 1351.929 333.915452 
L 1351.929 334.809132 
L 1371.032 427.256122 
L 1371.032 426.56074 
L 1390.135 522.58848 
L 1390.135 522.289024 
" clip-path="url(#p6504f0de4f)" style="fill: none; stroke: #d62728; stroke-width: 1.5; stroke-linecap: square"/>
   </g>
   <g id="line2d_33">
    <path d="M 778.839 653.408327 
L 817.045 640.638985 
L 817.045 640.73881 
L 836.148 633.507986 
L 836.148 633.441463 
L 836.148 633.632392 
L 836.148 633.609681 
L 855.251 624.840093 
L 855.251 624.914924 
L 855.251 624.710328 
L 855.251 624.9992 
L 855.251 624.85731 
L 874.354 613.842133 
L 874.354 614.059256 
L 874.354 613.652477 
L 874.354 614.130134 
L 874.354 614.09503 
L 893.457 600.099288 
L 893.457 600.225904 
L 893.457 599.538159 
L 893.457 600.32445 
L 893.457 600.177469 
L 912.56 582.591465 
L 912.56 583.20324 
L 912.56 581.896417 
L 912.56 582.783733 
L 931.663 561.101807 
L 931.663 561.103817 
L 931.663 562.132152 
L 931.663 560.312635 
L 931.663 561.466246 
L 950.766 535.187092 
L 950.766 536.743329 
L 950.766 533.454666 
L 950.766 535.074545 
L 969.869 503.801769 
L 969.869 506.39036 
L 969.869 501.856977 
L 969.869 504.221142 
L 988.972 467.705533 
L 988.972 470.465624 
L 988.972 464.897876 
L 988.972 467.631841 
L 1008.075 420.809433 
L 1008.075 430.696188 
L 1008.075 420.552181 
L 1008.075 427.842977 
L 1027.178 380.627992 
L 1027.178 370.386177 
L 1027.178 383.637296 
L 1027.178 374.978513 
L 1046.281 315.94538 
L 1046.281 326.778739 
L 1046.281 322.079214 
L 1065.384 264.735632 
L 1065.384 251.277505 
L 1065.384 267.247851 
L 1065.384 257.702757 
L 1084.487 194.185814 
L 1084.487 200.85291 
L 1084.487 182.110414 
L 1103.59 123.219974 
L 1103.59 116.076562 
L 1103.59 130.561014 
L 1103.59 123.291656 
L 1122.693 91.767658 
L 1122.693 80.38228 
L 1122.693 92.334415 
L 1122.693 86.533533 
L 1141.796 81.113169 
L 1141.796 78.475004 
L 1141.796 84.927053 
L 1141.796 80.338735 
L 1160.899 81.689974 
L 1160.899 78.404661 
L 1160.899 83.475325 
L 1160.899 80.92358 
L 1180.002 82.300276 
L 1180.002 85.353795 
L 1180.002 79.504678 
L 1180.002 82.62452 
L 1199.105 84.127162 
L 1199.105 87.491526 
L 1199.105 81.700023 
L 1199.105 85.149468 
L 1218.208 87.875393 
L 1218.208 91.023371 
L 1218.208 85.674689 
L 1218.208 89.15562 
L 1237.311 95.107905 
L 1237.311 97.663669 
L 1237.311 93.261591 
L 1237.311 96.335878 
L 1256.414 108.6692 
L 1256.414 110.490056 
L 1256.414 107.216132 
L 1256.414 109.661359 
L 1275.517 133.029688 
L 1275.517 134.136404 
L 1275.517 131.916272 
L 1275.517 133.72842 
L 1294.62 174.411634 
L 1294.62 175.306654 
L 1294.62 173.261372 
L 1294.62 174.63003 
L 1313.723 238.366708 
L 1313.723 237.946665 
L 1313.723 237.437522 
L 1313.723 238.914707 
L 1313.723 238.535529 
L 1332.826 327.462063 
L 1332.826 326.964308 
L 1332.826 326.583791 
L 1332.826 327.492209 
L 1351.929 432.19816 
L 1351.929 431.597237 
L 1351.929 431.452533 
L 1351.929 432.211558 
L 1371.032 529.636093 
L 1371.032 529.598577 
L 1390.135 599.828572 
L 1390.135 599.818523 
" clip-path="url(#p6504f0de4f)" style="fill: none; stroke: #9467bd; stroke-width: 1.5; stroke-linecap: square"/>
   </g>
   <g id="patch_8">
    <path d="M 797.942 647.08 
L 797.942 21.6 
" style="fill: none; stroke: #000000; stroke-width: 0.8; stroke-linejoin: miter; stroke-linecap: square"/>
   </g>
   <g id="patch_9">
    <path d="M 1409.238 647.08 
L 1409.238 21.6 
" style="fill: none; stroke: #000000; stroke-width: 0.8; stroke-linejoin: miter; stroke-linecap: square"/>
   </g>
   <g id="patch_10">
    <path d="M 797.942 647.08 
L 1409.238 647.08 
" style="fill: none; stroke: #000000; stroke-width: 0.8; stroke-linejoin: miter; stroke-linecap: square"/>
   </g>
   <g id="patch_11">
    <path d="M 797.942 21.6 
L 1409.238 21.6 
" style="fill: none; stroke: #000000; stroke-width: 0.8; stroke-linejoin: miter; stroke-linecap: square"/>
   </g>
  </g>
  <g id="axes_3">
   <g id="patch_12">
    <path d="M 1511.174 647.08 
L 2122.47 647.08 
L 2122.47 21.6 
L 1511.174 21.6 
z
" style="fill: #ffffff"/>
   </g>
   <g id="matplotlib.axis_5">
    <g id="xtick_13">
     <g id="line2d_34">
      <g>
       <use xlink:href="#m2cbdfe1ea2" x="1511.174" y="647.08" style="stroke: #000000; stroke-width: 0.8"/>
      </g>
     </g>
     <g id="text_28">
      <!-- 1.0 -->
      <g transform="translate(1495.270875 669.276875) scale(0.2 -0.2)">
       <use xlink:href="#DejaVuSans-31"/>
       <use xlink:href="#DejaVuSans-2e" x="63.623047"/>
       <use xlink:href="#DejaVuSans-30" x="95.410156"/>
      </g>
     </g>
    </g>
    <g id="xtick_14">
     <g id="line2d_35">
      <g>
       <use xlink:href="#m2cbdfe1ea2" x="1633.4332" y="647.08" style="stroke: #000000; stroke-width: 0.8"/>
      </g>
     </g>
     <g id="text_29">
      <!-- 1.2 -->
      <g transform="translate(1617.530075 669.276875) scale(0.2 -0.2)">
       <use xlink:href="#DejaVuSans-31"/>
       <use xlink:href="#DejaVuSans-2e" x="63.623047"/>
       <use xlink:href="#DejaVuSans-32" x="95.410156"/>
      </g>
     </g>
    </g>
    <g id="xtick_15">
     <g id="line2d_36">
      <g>
       <use xlink:href="#m2cbdfe1ea2" x="1755.6924" y="647.08" style="stroke: #000000; stroke-width: 0.8"/>
      </g>
     </g>
     <g id="text_30">
      <!-- 1.4 -->
      <g transform="translate(1739.789275 669.276875) scale(0.2 -0.2)">
       <use xlink:href="#DejaVuSans-31"/>
       <use xlink:href="#DejaVuSans-2e" x="63.623047"/>
       <use xlink:href="#DejaVuSans-34" x="95.410156"/>
      </g>
     </g>
    </g>
    <g id="xtick_16">
     <g id="line2d_37">
      <g>
       <use xlink:href="#m2cbdfe1ea2" x="1877.9516" y="647.08" style="stroke: #000000; stroke-width: 0.8"/>
      </g>
     </g>
     <g id="text_31">
      <!-- 1.6 -->
      <g transform="translate(1862.048475 669.276875) scale(0.2 -0.2)">
       <use xlink:href="#DejaVuSans-31"/>
       <use xlink:href="#DejaVuSans-2e" x="63.623047"/>
       <use xlink:href="#DejaVuSans-36" x="95.410156"/>
      </g>
     </g>
    </g>
    <g id="xtick_17">
     <g id="line2d_38">
      <g>
       <use xlink:href="#m2cbdfe1ea2" x="2000.2108" y="647.08" style="stroke: #000000; stroke-width: 0.8"/>
      </g>
     </g>
     <g id="text_32">
      <!-- 1.8 -->
      <g transform="translate(1984.307675 669.276875) scale(0.2 -0.2)">
       <use xlink:href="#DejaVuSans-31"/>
       <use xlink:href="#DejaVuSans-2e" x="63.623047"/>
       <use xlink:href="#DejaVuSans-38" x="95.410156"/>
      </g>
     </g>
    </g>
    <g id="xtick_18">
     <g id="line2d_39">
      <g>
       <use xlink:href="#m2cbdfe1ea2" x="2122.47" y="647.08" style="stroke: #000000; stroke-width: 0.8"/>
      </g>
     </g>
     <g id="text_33">
      <!-- 2.0 -->
      <g transform="translate(2106.566875 669.276875) scale(0.2 -0.2)">
       <use xlink:href="#DejaVuSans-32"/>
       <use xlink:href="#DejaVuSans-2e" x="63.623047"/>
       <use xlink:href="#DejaVuSans-30" x="95.410156"/>
      </g>
     </g>
    </g>
    <g id="text_34">
     <!-- Position $x$ -->
     <g transform="translate(1768.422 692.633125) scale(0.2 -0.2)">
      <use xlink:href="#DejaVuSans-50" transform="translate(0 0.015625)"/>
      <use xlink:href="#DejaVuSans-6f" transform="translate(60.302734 0.015625)"/>
      <use xlink:href="#DejaVuSans-73" transform="translate(121.484375 0.015625)"/>
      <use xlink:href="#DejaVuSans-69" transform="translate(173.583984 0.015625)"/>
      <use xlink:href="#DejaVuSans-74" transform="translate(201.367188 0.015625)"/>
      <use xlink:href="#DejaVuSans-69" transform="translate(240.576172 0.015625)"/>
      <use xlink:href="#DejaVuSans-6f" transform="translate(268.359375 0.015625)"/>
      <use xlink:href="#DejaVuSans-6e" transform="translate(329.541016 0.015625)"/>
      <use xlink:href="#DejaVuSans-20" transform="translate(392.919922 0.015625)"/>
      <use xlink:href="#DejaVuSans-Oblique-78" transform="translate(424.707031 0.015625)"/>
     </g>
    </g>
   </g>
   <g id="matplotlib.axis_6">
    <g id="ytick_12">
     <g id="line2d_40">
      <g>
       <use xlink:href="#m0d9e4b2b2d" x="1511.174" y="647.08" style="stroke: #000000; stroke-width: 0.8"/>
      </g>
     </g>
     <g id="text_35">
      <!-- 0.0 -->
      <g transform="translate(1472.36775 654.678437) scale(0.2 -0.2)">
       <use xlink:href="#DejaVuSans-30"/>
       <use xlink:href="#DejaVuSans-2e" x="63.623047"/>
       <use xlink:href="#DejaVuSans-30" x="95.410156"/>
      </g>
     </g>
    </g>
    <g id="ytick_13">
     <g id="line2d_41">
      <g>
       <use xlink:href="#m0d9e4b2b2d" x="1511.174" y="527.370909" style="stroke: #000000; stroke-width: 0.8"/>
      </g>
     </g>
     <g id="text_36">
      <!-- 0.2 -->
      <g transform="translate(1472.36775 534.969347) scale(0.2 -0.2)">
       <use xlink:href="#DejaVuSans-30"/>
       <use xlink:href="#DejaVuSans-2e" x="63.623047"/>
       <use xlink:href="#DejaVuSans-32" x="95.410156"/>
      </g>
     </g>
    </g>
    <g id="ytick_14">
     <g id="line2d_42">
      <g>
       <use xlink:href="#m0d9e4b2b2d" x="1511.174" y="407.661818" style="stroke: #000000; stroke-width: 0.8"/>
      </g>
     </g>
     <g id="text_37">
      <!-- 0.4 -->
      <g transform="translate(1472.36775 415.260256) scale(0.2 -0.2)">
       <use xlink:href="#DejaVuSans-30"/>
       <use xlink:href="#DejaVuSans-2e" x="63.623047"/>
       <use xlink:href="#DejaVuSans-34" x="95.410156"/>
      </g>
     </g>
    </g>
    <g id="ytick_15">
     <g id="line2d_43">
      <g>
       <use xlink:href="#m0d9e4b2b2d" x="1511.174" y="287.952727" style="stroke: #000000; stroke-width: 0.8"/>
      </g>
     </g>
     <g id="text_38">
      <!-- 0.6 -->
      <g transform="translate(1472.36775 295.551165) scale(0.2 -0.2)">
       <use xlink:href="#DejaVuSans-30"/>
       <use xlink:href="#DejaVuSans-2e" x="63.623047"/>
       <use xlink:href="#DejaVuSans-36" x="95.410156"/>
      </g>
     </g>
    </g>
    <g id="ytick_16">
     <g id="line2d_44">
      <g>
       <use xlink:href="#m0d9e4b2b2d" x="1511.174" y="168.243636" style="stroke: #000000; stroke-width: 0.8"/>
      </g>
     </g>
     <g id="text_39">
      <!-- 0.8 -->
      <g transform="translate(1472.36775 175.842074) scale(0.2 -0.2)">
       <use xlink:href="#DejaVuSans-30"/>
       <use xlink:href="#DejaVuSans-2e" x="63.623047"/>
       <use xlink:href="#DejaVuSans-38" x="95.410156"/>
      </g>
     </g>
    </g>
    <g id="ytick_17">
     <g id="line2d_45">
      <g>
       <use xlink:href="#m0d9e4b2b2d" x="1511.174" y="48.534545" style="stroke: #000000; stroke-width: 0.8"/>
      </g>
     </g>
     <g id="text_40">
      <!-- 1.0 -->
      <g transform="translate(1472.36775 56.132983) scale(0.2 -0.2)">
       <use xlink:href="#DejaVuSans-31"/>
       <use xlink:href="#DejaVuSans-2e" x="63.623047"/>
       <use xlink:href="#DejaVuSans-30" x="95.410156"/>
      </g>
     </g>
    </g>
    <g id="text_41">
     <!-- $P$ -->
     <g transform="translate(1464.208375 340.44) rotate(-90) scale(0.2 -0.2)">
      <defs>
       <path id="DejaVuSans-Oblique-50" d="M 1081 4666 
L 2541 4666 
Q 3178 4666 3512 4369 
Q 3847 4072 3847 3500 
Q 3847 2731 3353 2303 
Q 2859 1875 1966 1875 
L 1172 1875 
L 806 0 
L 172 0 
L 1081 4666 
z
M 1613 4147 
L 1275 2394 
L 2069 2394 
Q 2606 2394 2893 2669 
Q 3181 2944 3181 3456 
Q 3181 3784 2986 3965 
Q 2791 4147 2438 4147 
L 1613 4147 
z
" transform="scale(0.015625)"/>
      </defs>
      <use xlink:href="#DejaVuSans-Oblique-50" transform="translate(0 0.09375)"/>
     </g>
    </g>
   </g>
   <g id="line2d_46">
    <path d="M 1492.071 48.534545 
L 1644.895 48.534545 
L 1644.895 48.534545 
L 1663.998 77.006093 
L 1663.998 77.006093 
L 1683.101 158.374641 
L 1683.101 158.374641 
L 1702.204 230.174834 
L 1702.204 230.174834 
L 1721.307 293.276506 
L 1721.307 293.276506 
L 1740.41 348.495105 
L 1740.41 348.495105 
L 1759.513 396.59344 
L 1759.513 396.59344 
L 1778.616 438.283447 
L 1778.616 438.283447 
L 1797.719 471.140444 
L 1797.719 471.140444 
L 2026.955 471.140444 
L 2026.955 471.140444 
L 2046.058 587.225455 
L 2046.058 587.225455 
L 2103.367 587.225455 
L 2103.367 587.225455 
" clip-path="url(#pffc0064575)" style="fill: none; stroke: #1f77b4; stroke-width: 1.5; stroke-linecap: square"/>
   </g>
   <g id="line2d_47">
    <path d="M 1492.071 54.710337 
L 1511.174 53.622182 
L 1511.174 53.622182 
L 1530.277 54.710337 
L 1530.277 54.710337 
L 1549.38 58.165142 
L 1549.38 58.164543 
L 1568.483 64.504337 
L 1568.483 64.503738 
L 1587.586 74.454556 
L 1587.586 74.453359 
L 1606.689 88.764581 
L 1606.689 88.761588 
L 1625.792 108.010212 
L 1625.792 108.004825 
L 1644.895 132.432662 
L 1644.895 132.424282 
L 1663.998 161.862543 
L 1663.998 161.849974 
L 1683.101 195.725851 
L 1683.101 195.709092 
L 1702.204 233.129555 
L 1702.204 233.109204 
L 1721.307 272.979514 
L 1721.307 272.955572 
L 1759.513 355.245996 
L 1759.513 355.221455 
L 1778.616 395.189927 
L 1778.616 395.165985 
L 1797.719 432.253058 
L 1797.719 432.231511 
L 1816.822 462.331164 
L 1816.822 462.310215 
L 1835.925 470.384593 
L 1835.925 470.367834 
L 1855.028 471.083096 
L 1855.028 471.068731 
L 1893.234 470.923883 
L 1893.234 470.925679 
L 1893.234 470.938248 
L 1893.234 470.923883 
L 1893.234 470.923883 
L 1912.337 471.142951 
L 1912.337 471.129783 
L 1931.44 471.737905 
L 1931.44 471.725934 
L 1950.543 473.088223 
L 1950.543 473.075654 
L 1969.646 475.873854 
L 1969.646 475.861883 
L 1988.749 481.185346 
L 1988.749 481.174572 
L 2007.852 490.415516 
L 2007.852 490.407136 
L 2026.955 504.714767 
L 2026.955 504.708781 
L 2046.058 523.869418 
L 2046.058 523.865228 
L 2065.161 545.086657 
L 2065.161 545.084263 
L 2084.264 563.408134 
L 2084.264 563.406937 
L 2103.367 574.815213 
L 2103.367 574.814615 
" clip-path="url(#pffc0064575)" style="fill: none; stroke: #ff7f0e; stroke-width: 1.5; stroke-linecap: square"/>
   </g>
   <g id="line2d_48">
    <path d="M 1492.071 68.196764 
L 1511.174 66.586676 
L 1511.174 66.591465 
L 1530.277 68.203946 
L 1530.277 68.188983 
L 1549.38 73.063537 
L 1549.38 73.036602 
L 1568.483 81.266602 
L 1568.483 81.240266 
L 1587.586 92.926866 
L 1587.586 92.908311 
L 1606.689 108.189775 
L 1606.689 108.14668 
L 1625.792 127.041563 
L 1625.792 127.000862 
L 1644.895 149.434345 
L 1644.895 149.427163 
L 1663.998 175.30767 
L 1663.998 175.297495 
L 1683.101 204.354482 
L 1683.101 204.341314 
L 1702.204 236.195305 
L 1702.204 236.180341 
L 1721.307 270.316585 
L 1721.307 270.301622 
L 1740.41 306.147911 
L 1740.41 306.134144 
L 1759.513 342.826776 
L 1759.513 342.817199 
L 1778.616 379.245873 
L 1778.616 379.237493 
L 1797.719 413.222305 
L 1797.719 413.213926 
L 1816.822 440.404649 
L 1816.822 440.396269 
L 1835.925 455.031903 
L 1835.925 455.022924 
L 1855.028 460.849764 
L 1855.028 460.838991 
L 1874.131 463.777849 
L 1874.131 463.769469 
L 1912.337 467.812045 
L 1912.337 467.807855 
L 1931.44 470.302593 
L 1931.44 470.299001 
L 1950.543 473.567658 
L 1950.543 473.564665 
L 1969.646 477.940631 
L 1969.646 477.938237 
L 1988.749 483.775252 
L 1988.749 483.774055 
L 2007.852 491.385159 
L 2007.852 491.384561 
L 2026.955 500.912207 
L 2026.955 500.91101 
L 2046.058 512.104409 
L 2046.058 512.104409 
L 2065.161 524.042996 
L 2065.161 524.042996 
L 2084.264 534.958071 
L 2103.367 542.571569 
L 2103.367 542.571569 
" clip-path="url(#pffc0064575)" style="fill: none; stroke: #2ca02c; stroke-width: 1.5; stroke-linecap: square"/>
   </g>
   <g id="line2d_49">
    <path d="M 1492.071 60.728712 
L 1511.174 58.508707 
L 1511.174 58.515291 
L 1530.277 60.728113 
L 1530.277 60.725121 
L 1549.38 66.109636 
L 1549.38 66.107241 
L 1568.483 74.438396 
L 1568.483 74.4366 
L 1587.586 86.224354 
L 1587.586 86.220763 
L 1606.689 101.826639 
L 1606.689 101.82604 
L 1625.792 121.552303 
L 1625.792 121.54093 
L 1644.895 145.543201 
L 1644.895 145.520457 
L 1663.998 173.667655 
L 1663.998 173.568297 
L 1683.101 205.521646 
L 1683.101 205.366623 
L 1702.204 240.5593 
L 1702.204 240.194187 
L 1702.204 240.714323 
L 1702.204 240.633519 
L 1721.307 277.990537 
L 1721.307 277.38421 
L 1721.307 278.356248 
L 1721.307 277.898959 
L 1740.41 317.143789 
L 1740.41 315.718652 
L 1740.41 317.593895 
L 1740.41 315.858113 
L 1759.513 357.100888 
L 1759.513 353.473703 
L 1759.513 353.72988 
L 1778.616 394.611133 
L 1778.616 389.513321 
L 1778.616 395.821991 
L 1778.616 391.499295 
L 1797.719 425.248281 
L 1797.719 420.375522 
L 1797.719 429.800817 
L 1797.719 421.900017 
L 1816.822 447.058679 
L 1816.822 457.442844 
L 1816.822 445.707761 
L 1816.822 455.781281 
L 1835.925 461.651815 
L 1835.925 460.015991 
L 1835.925 462.80222 
L 1835.925 461.18914 
L 1855.028 464.211794 
L 1855.028 463.727571 
L 1855.028 464.296788 
L 1855.028 464.20521 
L 1874.131 465.513631 
L 1874.131 465.005465 
L 1874.131 465.545952 
L 1874.131 465.335863 
L 1893.234 466.22171 
L 1893.234 465.893108 
L 1893.234 466.236673 
L 1893.234 466.102001 
L 1912.337 466.947147 
L 1912.337 466.728678 
L 1912.337 466.86754 
L 1931.44 467.944922 
L 1931.44 467.86352 
L 1931.44 467.776731 
L 1931.44 467.919185 
L 1931.44 467.883871 
L 1950.543 469.569973 
L 1950.543 469.497549 
L 1950.543 469.396993 
L 1950.543 469.576557 
L 1950.543 469.522688 
L 1969.646 472.337049 
L 1969.646 472.173047 
L 1969.646 472.076681 
L 1969.646 472.339443 
L 1969.646 472.222128 
L 1988.749 476.920111 
L 1988.749 477.008097 
L 1988.749 476.723788 
L 1988.749 476.854271 
L 2007.852 484.583289 
L 2007.852 484.556953 
L 2007.852 484.630574 
L 2007.852 484.412703 
L 2007.852 484.522237 
L 2026.955 496.124442 
L 2026.955 495.940689 
L 2026.955 495.868265 
L 2026.955 496.142997 
L 2026.955 496.057405 
L 2046.058 511.473542 
L 2046.058 511.384957 
L 2065.161 529.36646 
L 2065.161 529.25513 
L 2084.264 547.003799 
L 2084.264 546.946937 
L 2103.367 561.122289 
L 2103.367 561.097748 
" clip-path="url(#pffc0064575)" style="fill: none; stroke: #d62728; stroke-width: 1.5; stroke-linecap: square"/>
   </g>
   <g id="line2d_50">
    <path d="M 1492.071 67.985477 
L 1511.174 66.378383 
L 1511.174 66.381974 
L 1530.277 68.104588 
L 1530.277 68.12015 
L 1530.277 67.987273 
L 1530.277 67.997448 
L 1549.38 72.95939 
L 1549.38 73.053361 
L 1549.38 72.86482 
L 1549.38 72.868411 
L 1568.483 81.206149 
L 1568.483 81.361771 
L 1568.483 81.097812 
L 1568.483 81.121156 
L 1587.586 92.957991 
L 1587.586 93.130372 
L 1587.586 92.831099 
L 1587.586 92.837084 
L 1606.689 108.299309 
L 1606.689 108.253221 
L 1606.689 108.527355 
L 1606.689 108.115556 
L 1606.689 108.184388 
L 1625.792 127.23609 
L 1625.792 127.180425 
L 1625.792 127.574268 
L 1625.792 127.044556 
L 1625.792 127.20317 
L 1644.895 149.940715 
L 1644.895 149.807838 
L 1644.895 150.15679 
L 1644.895 149.696508 
L 1663.998 176.169575 
L 1663.998 175.651833 
L 1663.998 176.296467 
L 1663.998 175.915792 
L 1683.101 205.492317 
L 1683.101 205.419893 
L 1683.101 204.932079 
L 1683.101 205.674275 
L 1683.101 205.434258 
L 1702.204 238.0077 
L 1702.204 237.696457 
L 1702.204 237.003341 
L 1702.204 238.038825 
L 1702.204 237.779655 
L 1721.307 272.951383 
L 1721.307 271.589093 
L 1721.307 273.293751 
L 1721.307 272.367202 
L 1740.41 308.730634 
L 1740.41 307.482667 
L 1740.41 309.471633 
L 1740.41 308.668984 
L 1759.513 347.990428 
L 1759.513 344.157941 
L 1759.513 347.571446 
L 1778.616 383.854074 
L 1778.616 386.302724 
L 1778.616 382.103329 
L 1778.616 384.15215 
L 1797.719 420.378515 
L 1797.719 417.22418 
L 1797.719 423.057006 
L 1816.822 453.050717 
L 1816.822 449.367867 
L 1816.822 455.322197 
L 1816.822 451.206599 
L 1835.925 465.984686 
L 1835.925 464.903114 
L 1835.925 469.997335 
L 1835.925 466.93757 
L 1855.028 470.351075 
L 1855.028 468.995369 
L 1855.028 470.613238 
L 1855.028 469.726193 
L 1874.131 470.565953 
L 1874.131 470.517471 
L 1874.131 470.218198 
L 1874.131 470.814349 
L 1874.131 470.364243 
L 1893.234 471.076512 
L 1893.234 470.96638 
L 1893.234 470.806568 
L 1893.234 471.186644 
L 1893.234 470.922087 
L 1912.337 471.698401 
L 1912.337 471.643933 
L 1912.337 471.523027 
L 1912.337 471.792372 
L 1912.337 471.627174 
L 1931.44 472.83863 
L 1931.44 472.750644 
L 1931.44 472.684804 
L 1931.44 472.935594 
L 1931.44 472.799126 
L 1950.543 474.88386 
L 1950.543 474.770136 
L 1950.543 474.720457 
L 1950.543 474.962868 
L 1950.543 474.864108 
L 1969.646 478.566111 
L 1969.646 478.458373 
L 1969.646 478.399117 
L 1969.646 478.616389 
L 1969.646 478.560126 
L 1988.749 484.999876 
L 1988.749 484.888547 
L 1988.749 484.831087 
L 1988.749 485.019628 
L 1988.749 485.003468 
L 2007.852 495.502553 
L 2007.852 495.372669 
L 2007.852 495.326581 
L 2007.852 495.57797 
L 2007.852 495.504349 
L 2026.955 510.934252 
L 2026.955 510.854646 
L 2026.955 510.736732 
L 2026.955 510.98034 
L 2026.955 510.916895 
L 2046.058 530.494718 
L 2046.058 530.343286 
L 2046.058 530.318147 
L 2046.058 530.487535 
L 2065.161 550.910505 
L 2065.161 550.909308 
L 2084.264 567.4549 
L 2084.264 567.448316 
L 2103.367 577.173482 
L 2103.367 577.171687 
" clip-path="url(#pffc0064575)" style="fill: none; stroke: #9467bd; stroke-width: 1.5; stroke-linecap: square"/>
   </g>
   <g id="patch_13">
    <path d="M 1511.174 647.08 
L 1511.174 21.6 
" style="fill: none; stroke: #000000; stroke-width: 0.8; stroke-linejoin: miter; stroke-linecap: square"/>
   </g>
   <g id="patch_14">
    <path d="M 2122.47 647.08 
L 2122.47 21.6 
" style="fill: none; stroke: #000000; stroke-width: 0.8; stroke-linejoin: miter; stroke-linecap: square"/>
   </g>
   <g id="patch_15">
    <path d="M 1511.174 647.08 
L 2122.47 647.08 
" style="fill: none; stroke: #000000; stroke-width: 0.8; stroke-linejoin: miter; stroke-linecap: square"/>
   </g>
   <g id="patch_16">
    <path d="M 1511.174 21.6 
L 2122.47 21.6 
" style="fill: none; stroke: #000000; stroke-width: 0.8; stroke-linejoin: miter; stroke-linecap: square"/>
   </g>
   <g id="legend_1">
    <g id="patch_17">
     <path d="M 1945.698125 184.38125 
L 2108.47 184.38125 
Q 2112.47 184.38125 2112.47 180.38125 
L 2112.47 35.6 
Q 2112.47 31.6 2108.47 31.6 
L 1945.698125 31.6 
Q 1941.698125 31.6 1941.698125 35.6 
L 1941.698125 180.38125 
Q 1941.698125 184.38125 1945.698125 184.38125 
z
" style="fill: #ffffff; opacity: 0.8; stroke: #cccccc; stroke-linejoin: miter"/>
    </g>
    <g id="line2d_51">
     <path d="M 1949.698125 47.796875 
L 1969.698125 47.796875 
L 1989.698125 47.796875 
" style="fill: none; stroke: #1f77b4; stroke-width: 1.5; stroke-linecap: square"/>
    </g>
    <g id="text_42">
     <!-- Exact Sol. -->
     <g transform="translate(2005.698125 54.796875) scale(0.2 -0.2)">
      <defs>
       <path id="DejaVuSans-45" d="M 628 4666 
L 3578 4666 
L 3578 4134 
L 1259 4134 
L 1259 2753 
L 3481 2753 
L 3481 2222 
L 1259 2222 
L 1259 531 
L 3634 531 
L 3634 0 
L 628 0 
L 628 4666 
z
" transform="scale(0.015625)"/>
       <path id="DejaVuSans-78" d="M 3513 3500 
L 2247 1797 
L 3578 0 
L 2900 0 
L 1881 1375 
L 863 0 
L 184 0 
L 1544 1831 
L 300 3500 
L 978 3500 
L 1906 2253 
L 2834 3500 
L 3513 3500 
z
" transform="scale(0.015625)"/>
       <path id="DejaVuSans-61" d="M 2194 1759 
Q 1497 1759 1228 1600 
Q 959 1441 959 1056 
Q 959 750 1161 570 
Q 1363 391 1709 391 
Q 2188 391 2477 730 
Q 2766 1069 2766 1631 
L 2766 1759 
L 2194 1759 
z
M 3341 1997 
L 3341 0 
L 2766 0 
L 2766 531 
Q 2569 213 2275 61 
Q 1981 -91 1556 -91 
Q 1019 -91 701 211 
Q 384 513 384 1019 
Q 384 1609 779 1909 
Q 1175 2209 1959 2209 
L 2766 2209 
L 2766 2266 
Q 2766 2663 2505 2880 
Q 2244 3097 1772 3097 
Q 1472 3097 1187 3025 
Q 903 2953 641 2809 
L 641 3341 
Q 956 3463 1253 3523 
Q 1550 3584 1831 3584 
Q 2591 3584 2966 3190 
Q 3341 2797 3341 1997 
z
" transform="scale(0.015625)"/>
       <path id="DejaVuSans-63" d="M 3122 3366 
L 3122 2828 
Q 2878 2963 2633 3030 
Q 2388 3097 2138 3097 
Q 1578 3097 1268 2742 
Q 959 2388 959 1747 
Q 959 1106 1268 751 
Q 1578 397 2138 397 
Q 2388 397 2633 464 
Q 2878 531 3122 666 
L 3122 134 
Q 2881 22 2623 -34 
Q 2366 -91 2075 -91 
Q 1284 -91 818 406 
Q 353 903 353 1747 
Q 353 2603 823 3093 
Q 1294 3584 2113 3584 
Q 2378 3584 2631 3529 
Q 2884 3475 3122 3366 
z
" transform="scale(0.015625)"/>
       <path id="DejaVuSans-53" d="M 3425 4513 
L 3425 3897 
Q 3066 4069 2747 4153 
Q 2428 4238 2131 4238 
Q 1616 4238 1336 4038 
Q 1056 3838 1056 3469 
Q 1056 3159 1242 3001 
Q 1428 2844 1947 2747 
L 2328 2669 
Q 3034 2534 3370 2195 
Q 3706 1856 3706 1288 
Q 3706 609 3251 259 
Q 2797 -91 1919 -91 
Q 1588 -91 1214 -16 
Q 841 59 441 206 
L 441 856 
Q 825 641 1194 531 
Q 1563 422 1919 422 
Q 2459 422 2753 634 
Q 3047 847 3047 1241 
Q 3047 1584 2836 1778 
Q 2625 1972 2144 2069 
L 1759 2144 
Q 1053 2284 737 2584 
Q 422 2884 422 3419 
Q 422 4038 858 4394 
Q 1294 4750 2059 4750 
Q 2388 4750 2728 4690 
Q 3069 4631 3425 4513 
z
" transform="scale(0.015625)"/>
       <path id="DejaVuSans-6c" d="M 603 4863 
L 1178 4863 
L 1178 0 
L 603 0 
L 603 4863 
z
" transform="scale(0.015625)"/>
      </defs>
      <use xlink:href="#DejaVuSans-45"/>
      <use xlink:href="#DejaVuSans-78" x="63.183594"/>
      <use xlink:href="#DejaVuSans-61" x="122.363281"/>
      <use xlink:href="#DejaVuSans-63" x="183.642578"/>
      <use xlink:href="#DejaVuSans-74" x="238.623047"/>
      <use xlink:href="#DejaVuSans-20" x="277.832031"/>
      <use xlink:href="#DejaVuSans-53" x="309.619141"/>
      <use xlink:href="#DejaVuSans-6f" x="373.095703"/>
      <use xlink:href="#DejaVuSans-6c" x="434.277344"/>
      <use xlink:href="#DejaVuSans-2e" x="462.060547"/>
     </g>
    </g>
    <g id="line2d_52">
     <path d="M 1949.698125 77.153125 
L 1969.698125 77.153125 
L 1989.698125 77.153125 
" style="fill: none; stroke: #ff7f0e; stroke-width: 1.5; stroke-linecap: square"/>
    </g>
    <g id="text_43">
     <!-- N -->
     <g transform="translate(2005.698125 84.153125) scale(0.2 -0.2)">
      <defs>
       <path id="DejaVuSans-4e" d="M 628 4666 
L 1478 4666 
L 3547 763 
L 3547 4666 
L 4159 4666 
L 4159 0 
L 3309 0 
L 1241 3903 
L 1241 0 
L 628 0 
L 628 4666 
z
" transform="scale(0.015625)"/>
      </defs>
      <use xlink:href="#DejaVuSans-4e"/>
     </g>
    </g>
    <g id="line2d_53">
     <path d="M 1949.698125 106.509375 
L 1969.698125 106.509375 
L 1989.698125 106.509375 
" style="fill: none; stroke: #2ca02c; stroke-width: 1.5; stroke-linecap: square"/>
    </g>
    <g id="text_44">
     <!-- LDA -->
     <g transform="translate(2005.698125 113.509375) scale(0.2 -0.2)">
      <defs>
       <path id="DejaVuSans-4c" d="M 628 4666 
L 1259 4666 
L 1259 531 
L 3531 531 
L 3531 0 
L 628 0 
L 628 4666 
z
" transform="scale(0.015625)"/>
       <path id="DejaVuSans-44" d="M 1259 4147 
L 1259 519 
L 2022 519 
Q 2988 519 3436 956 
Q 3884 1394 3884 2338 
Q 3884 3275 3436 3711 
Q 2988 4147 2022 4147 
L 1259 4147 
z
M 628 4666 
L 1925 4666 
Q 3281 4666 3915 4102 
Q 4550 3538 4550 2338 
Q 4550 1131 3912 565 
Q 3275 0 1925 0 
L 628 0 
L 628 4666 
z
" transform="scale(0.015625)"/>
       <path id="DejaVuSans-41" d="M 2188 4044 
L 1331 1722 
L 3047 1722 
L 2188 4044 
z
M 1831 4666 
L 2547 4666 
L 4325 0 
L 3669 0 
L 3244 1197 
L 1141 1197 
L 716 0 
L 50 0 
L 1831 4666 
z
" transform="scale(0.015625)"/>
      </defs>
      <use xlink:href="#DejaVuSans-4c"/>
      <use xlink:href="#DejaVuSans-44" x="55.712891"/>
      <use xlink:href="#DejaVuSans-41" x="130.964844"/>
     </g>
    </g>
    <g id="line2d_54">
     <path d="M 1949.698125 135.865625 
L 1969.698125 135.865625 
L 1989.698125 135.865625 
" style="fill: none; stroke: #d62728; stroke-width: 1.5; stroke-linecap: square"/>
    </g>
    <g id="text_45">
     <!-- B -->
     <g transform="translate(2005.698125 142.865625) scale(0.2 -0.2)">
      <defs>
       <path id="DejaVuSans-42" d="M 1259 2228 
L 1259 519 
L 2272 519 
Q 2781 519 3026 730 
Q 3272 941 3272 1375 
Q 3272 1813 3026 2020 
Q 2781 2228 2272 2228 
L 1259 2228 
z
M 1259 4147 
L 1259 2741 
L 2194 2741 
Q 2656 2741 2882 2914 
Q 3109 3088 3109 3444 
Q 3109 3797 2882 3972 
Q 2656 4147 2194 4147 
L 1259 4147 
z
M 628 4666 
L 2241 4666 
Q 2963 4666 3353 4366 
Q 3744 4066 3744 3513 
Q 3744 3084 3544 2831 
Q 3344 2578 2956 2516 
Q 3422 2416 3680 2098 
Q 3938 1781 3938 1306 
Q 3938 681 3513 340 
Q 3088 0 2303 0 
L 628 0 
L 628 4666 
z
" transform="scale(0.015625)"/>
      </defs>
      <use xlink:href="#DejaVuSans-42"/>
     </g>
    </g>
    <g id="line2d_55">
     <path d="M 1949.698125 165.221875 
L 1969.698125 165.221875 
L 1989.698125 165.221875 
" style="fill: none; stroke: #9467bd; stroke-width: 1.5; stroke-linecap: square"/>
    </g>
    <g id="text_46">
     <!-- Bx -->
     <g transform="translate(2005.698125 172.221875) scale(0.2 -0.2)">
      <use xlink:href="#DejaVuSans-42"/>
      <use xlink:href="#DejaVuSans-78" x="68.603516"/>
     </g>
    </g>
   </g>
  </g>
 </g>
 <defs>
  <clipPath id="p2b9c2f044b">
   <rect x="84.71" y="21.6" width="611.296" height="625.48"/>
  </clipPath>
  <clipPath id="p6504f0de4f">
   <rect x="797.942" y="21.6" width="611.296" height="625.48"/>
  </clipPath>
  <clipPath id="pffc0064575">
   <rect x="1511.174" y="21.6" width="611.296" height="625.48"/>
  </clipPath>
 </defs>
</svg>
