<?xml version="1.0" encoding="utf-8" standalone="no"?>
<!DOCTYPE svg PUBLIC "-//W3C//DTD SVG 1.1//EN"
  "http://www.w3.org/Graphics/SVG/1.1/DTD/svg11.dtd">
<svg xmlns:xlink="http://www.w3.org/1999/xlink" width="2160pt" height="720pt" viewBox="0 0 2160 720" xmlns="http://www.w3.org/2000/svg" version="1.1">
 <metadata>
  <rdf:RDF xmlns:dc="http://purl.org/dc/elements/1.1/" xmlns:cc="http://creativecommons.org/ns#" xmlns:rdf="http://www.w3.org/1999/02/22-rdf-syntax-ns#">
   <cc:Work>
    <dc:type rdf:resource="http://purl.org/dc/dcmitype/StillImage"/>
    <dc:date>2023-06-27T00:08:57.100989</dc:date>
    <dc:format>image/svg+xml</dc:format>
    <dc:creator>
     <cc:Agent>
      <dc:title>Matplotlib v3.7.1, https://matplotlib.org/</dc:title>
     </cc:Agent>
    </dc:creator>
   </cc:Work>
  </rdf:RDF>
 </metadata>
 <defs>
  <style type="text/css">*{stroke-linejoin: round; stroke-linecap: butt}</style>
 </defs>
 <g id="figure_1">
  <g id="patch_1">
   <path d="M 0 720 
L 2160 720 
L 2160 0 
L 0 0 
z
" style="fill: #ffffff"/>
  </g>
  <g id="axes_1">
   <g id="patch_2">
    <path d="M 84.71 647.08 
L 696.006 647.08 
L 696.006 21.6 
L 84.71 21.6 
z
" style="fill: #ffffff"/>
   </g>
   <g id="matplotlib.axis_1">
    <g id="xtick_1">
     <g id="line2d_1">
      <defs>
       <path id="m4dc9a868e3" d="M 0 0 
L 0 3.5 
" style="stroke: #000000; stroke-width: 0.8"/>
      </defs>
      <g>
       <use xlink:href="#m4dc9a868e3" x="84.71" y="647.08" style="stroke: #000000; stroke-width: 0.8"/>
      </g>
     </g>
     <g id="text_1">
      <!-- 1.0 -->
      <g transform="translate(68.806875 669.276875) scale(0.2 -0.2)">
       <defs>
        <path id="DejaVuSans-31" d="M 794 531 
L 1825 531 
L 1825 4091 
L 703 3866 
L 703 4441 
L 1819 4666 
L 2450 4666 
L 2450 531 
L 3481 531 
L 3481 0 
L 794 0 
L 794 531 
z
" transform="scale(0.015625)"/>
        <path id="DejaVuSans-2e" d="M 684 794 
L 1344 794 
L 1344 0 
L 684 0 
L 684 794 
z
" transform="scale(0.015625)"/>
        <path id="DejaVuSans-30" d="M 2034 4250 
Q 1547 4250 1301 3770 
Q 1056 3291 1056 2328 
Q 1056 1369 1301 889 
Q 1547 409 2034 409 
Q 2525 409 2770 889 
Q 3016 1369 3016 2328 
Q 3016 3291 2770 3770 
Q 2525 4250 2034 4250 
z
M 2034 4750 
Q 2819 4750 3233 4129 
Q 3647 3509 3647 2328 
Q 3647 1150 3233 529 
Q 2819 -91 2034 -91 
Q 1250 -91 836 529 
Q 422 1150 422 2328 
Q 422 3509 836 4129 
Q 1250 4750 2034 4750 
z
" transform="scale(0.015625)"/>
       </defs>
       <use xlink:href="#DejaVuSans-31"/>
       <use xlink:href="#DejaVuSans-2e" x="63.623047"/>
       <use xlink:href="#DejaVuSans-30" x="95.410156"/>
      </g>
     </g>
    </g>
    <g id="xtick_2">
     <g id="line2d_2">
      <g>
       <use xlink:href="#m4dc9a868e3" x="206.9692" y="647.08" style="stroke: #000000; stroke-width: 0.8"/>
      </g>
     </g>
     <g id="text_2">
      <!-- 1.2 -->
      <g transform="translate(191.066075 669.276875) scale(0.2 -0.2)">
       <defs>
        <path id="DejaVuSans-32" d="M 1228 531 
L 3431 531 
L 3431 0 
L 469 0 
L 469 531 
Q 828 903 1448 1529 
Q 2069 2156 2228 2338 
Q 2531 2678 2651 2914 
Q 2772 3150 2772 3378 
Q 2772 3750 2511 3984 
Q 2250 4219 1831 4219 
Q 1534 4219 1204 4116 
Q 875 4013 500 3803 
L 500 4441 
Q 881 4594 1212 4672 
Q 1544 4750 1819 4750 
Q 2544 4750 2975 4387 
Q 3406 4025 3406 3419 
Q 3406 3131 3298 2873 
Q 3191 2616 2906 2266 
Q 2828 2175 2409 1742 
Q 1991 1309 1228 531 
z
" transform="scale(0.015625)"/>
       </defs>
       <use xlink:href="#DejaVuSans-31"/>
       <use xlink:href="#DejaVuSans-2e" x="63.623047"/>
       <use xlink:href="#DejaVuSans-32" x="95.410156"/>
      </g>
     </g>
    </g>
    <g id="xtick_3">
     <g id="line2d_3">
      <g>
       <use xlink:href="#m4dc9a868e3" x="329.2284" y="647.08" style="stroke: #000000; stroke-width: 0.8"/>
      </g>
     </g>
     <g id="text_3">
      <!-- 1.4 -->
      <g transform="translate(313.325275 669.276875) scale(0.2 -0.2)">
       <defs>
        <path id="DejaVuSans-34" d="M 2419 4116 
L 825 1625 
L 2419 1625 
L 2419 4116 
z
M 2253 4666 
L 3047 4666 
L 3047 1625 
L 3713 1625 
L 3713 1100 
L 3047 1100 
L 3047 0 
L 2419 0 
L 2419 1100 
L 313 1100 
L 313 1709 
L 2253 4666 
z
" transform="scale(0.015625)"/>
       </defs>
       <use xlink:href="#DejaVuSans-31"/>
       <use xlink:href="#DejaVuSans-2e" x="63.623047"/>
       <use xlink:href="#DejaVuSans-34" x="95.410156"/>
      </g>
     </g>
    </g>
    <g id="xtick_4">
     <g id="line2d_4">
      <g>
       <use xlink:href="#m4dc9a868e3" x="451.4876" y="647.08" style="stroke: #000000; stroke-width: 0.8"/>
      </g>
     </g>
     <g id="text_4">
      <!-- 1.6 -->
      <g transform="translate(435.584475 669.276875) scale(0.2 -0.2)">
       <defs>
        <path id="DejaVuSans-36" d="M 2113 2584 
Q 1688 2584 1439 2293 
Q 1191 2003 1191 1497 
Q 1191 994 1439 701 
Q 1688 409 2113 409 
Q 2538 409 2786 701 
Q 3034 994 3034 1497 
Q 3034 2003 2786 2293 
Q 2538 2584 2113 2584 
z
M 3366 4563 
L 3366 3988 
Q 3128 4100 2886 4159 
Q 2644 4219 2406 4219 
Q 1781 4219 1451 3797 
Q 1122 3375 1075 2522 
Q 1259 2794 1537 2939 
Q 1816 3084 2150 3084 
Q 2853 3084 3261 2657 
Q 3669 2231 3669 1497 
Q 3669 778 3244 343 
Q 2819 -91 2113 -91 
Q 1303 -91 875 529 
Q 447 1150 447 2328 
Q 447 3434 972 4092 
Q 1497 4750 2381 4750 
Q 2619 4750 2861 4703 
Q 3103 4656 3366 4563 
z
" transform="scale(0.015625)"/>
       </defs>
       <use xlink:href="#DejaVuSans-31"/>
       <use xlink:href="#DejaVuSans-2e" x="63.623047"/>
       <use xlink:href="#DejaVuSans-36" x="95.410156"/>
      </g>
     </g>
    </g>
    <g id="xtick_5">
     <g id="line2d_5">
      <g>
       <use xlink:href="#m4dc9a868e3" x="573.7468" y="647.08" style="stroke: #000000; stroke-width: 0.8"/>
      </g>
     </g>
     <g id="text_5">
      <!-- 1.8 -->
      <g transform="translate(557.843675 669.276875) scale(0.2 -0.2)">
       <defs>
        <path id="DejaVuSans-38" d="M 2034 2216 
Q 1584 2216 1326 1975 
Q 1069 1734 1069 1313 
Q 1069 891 1326 650 
Q 1584 409 2034 409 
Q 2484 409 2743 651 
Q 3003 894 3003 1313 
Q 3003 1734 2745 1975 
Q 2488 2216 2034 2216 
z
M 1403 2484 
Q 997 2584 770 2862 
Q 544 3141 544 3541 
Q 544 4100 942 4425 
Q 1341 4750 2034 4750 
Q 2731 4750 3128 4425 
Q 3525 4100 3525 3541 
Q 3525 3141 3298 2862 
Q 3072 2584 2669 2484 
Q 3125 2378 3379 2068 
Q 3634 1759 3634 1313 
Q 3634 634 3220 271 
Q 2806 -91 2034 -91 
Q 1263 -91 848 271 
Q 434 634 434 1313 
Q 434 1759 690 2068 
Q 947 2378 1403 2484 
z
M 1172 3481 
Q 1172 3119 1398 2916 
Q 1625 2713 2034 2713 
Q 2441 2713 2670 2916 
Q 2900 3119 2900 3481 
Q 2900 3844 2670 4047 
Q 2441 4250 2034 4250 
Q 1625 4250 1398 4047 
Q 1172 3844 1172 3481 
z
" transform="scale(0.015625)"/>
       </defs>
       <use xlink:href="#DejaVuSans-31"/>
       <use xlink:href="#DejaVuSans-2e" x="63.623047"/>
       <use xlink:href="#DejaVuSans-38" x="95.410156"/>
      </g>
     </g>
    </g>
    <g id="xtick_6">
     <g id="line2d_6">
      <g>
       <use xlink:href="#m4dc9a868e3" x="696.006" y="647.08" style="stroke: #000000; stroke-width: 0.8"/>
      </g>
     </g>
     <g id="text_6">
      <!-- 2.0 -->
      <g transform="translate(680.102875 669.276875) scale(0.2 -0.2)">
       <use xlink:href="#DejaVuSans-32"/>
       <use xlink:href="#DejaVuSans-2e" x="63.623047"/>
       <use xlink:href="#DejaVuSans-30" x="95.410156"/>
      </g>
     </g>
    </g>
    <g id="text_7">
     <!-- Position $x$ -->
     <g transform="translate(341.958 692.633125) scale(0.2 -0.2)">
      <defs>
       <path id="DejaVuSans-50" d="M 1259 4147 
L 1259 2394 
L 2053 2394 
Q 2494 2394 2734 2622 
Q 2975 2850 2975 3272 
Q 2975 3691 2734 3919 
Q 2494 4147 2053 4147 
L 1259 4147 
z
M 628 4666 
L 2053 4666 
Q 2838 4666 3239 4311 
Q 3641 3956 3641 3272 
Q 3641 2581 3239 2228 
Q 2838 1875 2053 1875 
L 1259 1875 
L 1259 0 
L 628 0 
L 628 4666 
z
" transform="scale(0.015625)"/>
       <path id="DejaVuSans-6f" d="M 1959 3097 
Q 1497 3097 1228 2736 
Q 959 2375 959 1747 
Q 959 1119 1226 758 
Q 1494 397 1959 397 
Q 2419 397 2687 759 
Q 2956 1122 2956 1747 
Q 2956 2369 2687 2733 
Q 2419 3097 1959 3097 
z
M 1959 3584 
Q 2709 3584 3137 3096 
Q 3566 2609 3566 1747 
Q 3566 888 3137 398 
Q 2709 -91 1959 -91 
Q 1206 -91 779 398 
Q 353 888 353 1747 
Q 353 2609 779 3096 
Q 1206 3584 1959 3584 
z
" transform="scale(0.015625)"/>
       <path id="DejaVuSans-73" d="M 2834 3397 
L 2834 2853 
Q 2591 2978 2328 3040 
Q 2066 3103 1784 3103 
Q 1356 3103 1142 2972 
Q 928 2841 928 2578 
Q 928 2378 1081 2264 
Q 1234 2150 1697 2047 
L 1894 2003 
Q 2506 1872 2764 1633 
Q 3022 1394 3022 966 
Q 3022 478 2636 193 
Q 2250 -91 1575 -91 
Q 1294 -91 989 -36 
Q 684 19 347 128 
L 347 722 
Q 666 556 975 473 
Q 1284 391 1588 391 
Q 1994 391 2212 530 
Q 2431 669 2431 922 
Q 2431 1156 2273 1281 
Q 2116 1406 1581 1522 
L 1381 1569 
Q 847 1681 609 1914 
Q 372 2147 372 2553 
Q 372 3047 722 3315 
Q 1072 3584 1716 3584 
Q 2034 3584 2315 3537 
Q 2597 3491 2834 3397 
z
" transform="scale(0.015625)"/>
       <path id="DejaVuSans-69" d="M 603 3500 
L 1178 3500 
L 1178 0 
L 603 0 
L 603 3500 
z
M 603 4863 
L 1178 4863 
L 1178 4134 
L 603 4134 
L 603 4863 
z
" transform="scale(0.015625)"/>
       <path id="DejaVuSans-74" d="M 1172 4494 
L 1172 3500 
L 2356 3500 
L 2356 3053 
L 1172 3053 
L 1172 1153 
Q 1172 725 1289 603 
Q 1406 481 1766 481 
L 2356 481 
L 2356 0 
L 1766 0 
Q 1100 0 847 248 
Q 594 497 594 1153 
L 594 3053 
L 172 3053 
L 172 3500 
L 594 3500 
L 594 4494 
L 1172 4494 
z
" transform="scale(0.015625)"/>
       <path id="DejaVuSans-6e" d="M 3513 2113 
L 3513 0 
L 2938 0 
L 2938 2094 
Q 2938 2591 2744 2837 
Q 2550 3084 2163 3084 
Q 1697 3084 1428 2787 
Q 1159 2491 1159 1978 
L 1159 0 
L 581 0 
L 581 3500 
L 1159 3500 
L 1159 2956 
Q 1366 3272 1645 3428 
Q 1925 3584 2291 3584 
Q 2894 3584 3203 3211 
Q 3513 2838 3513 2113 
z
" transform="scale(0.015625)"/>
       <path id="DejaVuSans-20" transform="scale(0.015625)"/>
       <path id="DejaVuSans-Oblique-78" d="M 3841 3500 
L 2234 1784 
L 3219 0 
L 2559 0 
L 1819 1388 
L 531 0 
L -166 0 
L 1556 1844 
L 641 3500 
L 1300 3500 
L 1972 2234 
L 3144 3500 
L 3841 3500 
z
" transform="scale(0.015625)"/>
      </defs>
      <use xlink:href="#DejaVuSans-50" transform="translate(0 0.015625)"/>
      <use xlink:href="#DejaVuSans-6f" transform="translate(60.302734 0.015625)"/>
      <use xlink:href="#DejaVuSans-73" transform="translate(121.484375 0.015625)"/>
      <use xlink:href="#DejaVuSans-69" transform="translate(173.583984 0.015625)"/>
      <use xlink:href="#DejaVuSans-74" transform="translate(201.367188 0.015625)"/>
      <use xlink:href="#DejaVuSans-69" transform="translate(240.576172 0.015625)"/>
      <use xlink:href="#DejaVuSans-6f" transform="translate(268.359375 0.015625)"/>
      <use xlink:href="#DejaVuSans-6e" transform="translate(329.541016 0.015625)"/>
      <use xlink:href="#DejaVuSans-20" transform="translate(392.919922 0.015625)"/>
      <use xlink:href="#DejaVuSans-Oblique-78" transform="translate(424.707031 0.015625)"/>
     </g>
    </g>
   </g>
   <g id="matplotlib.axis_2">
    <g id="ytick_1">
     <g id="line2d_7">
      <defs>
       <path id="m71277fc27d" d="M 0 0 
L -3.5 0 
" style="stroke: #000000; stroke-width: 0.8"/>
      </defs>
      <g>
       <use xlink:href="#m71277fc27d" x="84.71" y="647.08" style="stroke: #000000; stroke-width: 0.8"/>
      </g>
     </g>
     <g id="text_8">
      <!-- 0.0 -->
      <g transform="translate(45.90375 654.678437) scale(0.2 -0.2)">
       <use xlink:href="#DejaVuSans-30"/>
       <use xlink:href="#DejaVuSans-2e" x="63.623047"/>
       <use xlink:href="#DejaVuSans-30" x="95.410156"/>
      </g>
     </g>
    </g>
    <g id="ytick_2">
     <g id="line2d_8">
      <g>
       <use xlink:href="#m71277fc27d" x="84.71" y="527.227545" style="stroke: #000000; stroke-width: 0.8"/>
      </g>
     </g>
     <g id="text_9">
      <!-- 0.2 -->
      <g transform="translate(45.90375 534.825982) scale(0.2 -0.2)">
       <use xlink:href="#DejaVuSans-30"/>
       <use xlink:href="#DejaVuSans-2e" x="63.623047"/>
       <use xlink:href="#DejaVuSans-32" x="95.410156"/>
      </g>
     </g>
    </g>
    <g id="ytick_3">
     <g id="line2d_9">
      <g>
       <use xlink:href="#m71277fc27d" x="84.71" y="407.37509" style="stroke: #000000; stroke-width: 0.8"/>
      </g>
     </g>
     <g id="text_10">
      <!-- 0.4 -->
      <g transform="translate(45.90375 414.973527) scale(0.2 -0.2)">
       <use xlink:href="#DejaVuSans-30"/>
       <use xlink:href="#DejaVuSans-2e" x="63.623047"/>
       <use xlink:href="#DejaVuSans-34" x="95.410156"/>
      </g>
     </g>
    </g>
    <g id="ytick_4">
     <g id="line2d_10">
      <g>
       <use xlink:href="#m71277fc27d" x="84.71" y="287.522635" style="stroke: #000000; stroke-width: 0.8"/>
      </g>
     </g>
     <g id="text_11">
      <!-- 0.6 -->
      <g transform="translate(45.90375 295.121072) scale(0.2 -0.2)">
       <use xlink:href="#DejaVuSans-30"/>
       <use xlink:href="#DejaVuSans-2e" x="63.623047"/>
       <use xlink:href="#DejaVuSans-36" x="95.410156"/>
      </g>
     </g>
    </g>
    <g id="ytick_5">
     <g id="line2d_11">
      <g>
       <use xlink:href="#m71277fc27d" x="84.71" y="167.67018" style="stroke: #000000; stroke-width: 0.8"/>
      </g>
     </g>
     <g id="text_12">
      <!-- 0.8 -->
      <g transform="translate(45.90375 175.268617) scale(0.2 -0.2)">
       <use xlink:href="#DejaVuSans-30"/>
       <use xlink:href="#DejaVuSans-2e" x="63.623047"/>
       <use xlink:href="#DejaVuSans-38" x="95.410156"/>
      </g>
     </g>
    </g>
    <g id="ytick_6">
     <g id="line2d_12">
      <g>
       <use xlink:href="#m71277fc27d" x="84.71" y="47.817725" style="stroke: #000000; stroke-width: 0.8"/>
      </g>
     </g>
     <g id="text_13">
      <!-- 1.0 -->
      <g transform="translate(45.90375 55.416162) scale(0.2 -0.2)">
       <use xlink:href="#DejaVuSans-31"/>
       <use xlink:href="#DejaVuSans-2e" x="63.623047"/>
       <use xlink:href="#DejaVuSans-30" x="95.410156"/>
      </g>
     </g>
    </g>
    <g id="text_14">
     <!-- $\rho$ -->
     <g transform="translate(37.70375 340.74) rotate(-90) scale(0.2 -0.2)">
      <defs>
       <path id="DejaVuSans-Oblique-3c1" d="M 1203 2875 
Q 1453 3194 1981 3475 
Q 2188 3584 2756 3584 
Q 3394 3584 3694 3078 
Q 3994 2572 3834 1747 
Q 3672 922 3175 415 
Q 2678 -91 2041 -91 
Q 1656 -91 1409 63 
Q 1163 213 1044 525 
L 681 -1331 
L 103 -1331 
L 697 1716 
Q 838 2438 1203 2875 
z
M 3238 1747 
Q 3359 2381 3169 2744 
Q 2978 3103 2522 3103 
Q 2066 3103 1734 2744 
Q 1403 2381 1281 1747 
Q 1156 1113 1347 750 
Q 1538 391 1994 391 
Q 2450 391 2781 750 
Q 3113 1113 3238 1747 
z
" transform="scale(0.015625)"/>
      </defs>
      <use xlink:href="#DejaVuSans-Oblique-3c1"/>
     </g>
    </g>
   </g>
   <g id="line2d_13">
    <path d="M -1 47.817725 
L 218.431 47.817725 
L 218.431 47.817725 
L 237.534 65.087545 
L 237.534 65.087545 
L 256.637 116.455965 
L 256.637 116.455965 
L 275.74 164.709186 
L 275.74 164.709186 
L 294.843 209.944651 
L 294.843 209.944651 
L 313.946 252.259806 
L 313.946 252.259806 
L 333.049 291.752096 
L 333.049 291.752096 
L 352.152 328.518967 
L 352.152 328.518967 
L 371.255 359.620443 
L 371.255 359.620443 
L 485.873 359.620443 
L 485.873 359.620443 
L 504.976 509.366084 
L 504.976 509.366084 
L 600.491 509.366084 
L 600.491 509.366084 
L 619.594 572.172216 
L 619.594 572.172216 
L 676.903 572.172216 
L 676.903 572.172216 
" clip-path="url(#p3e307f0141)" style="fill: none; stroke: #1f77b4; stroke-width: 1.5; stroke-linecap: square"/>
   </g>
   <g id="line2d_14">
    <path d="M -1 67.945693 
L 8.298 63.613679 
L 8.298 63.613679 
L 27.401 57.498207 
L 27.401 57.498207 
L 46.504 53.634164 
L 46.504 53.634164 
L 65.607 51.539143 
L 65.607 51.539143 
L 84.71 50.881153 
L 84.71 50.881153 
L 103.813 51.539143 
L 103.813 51.539143 
L 122.916 53.634164 
L 122.916 53.634164 
L 142.019 57.498207 
L 142.019 57.498207 
L 161.122 63.613679 
L 161.122 63.613679 
L 180.225 72.513922 
L 180.225 72.513922 
L 199.328 84.678946 
L 199.328 84.678946 
L 218.431 100.440743 
L 218.431 100.440743 
L 237.534 119.928752 
L 237.534 119.928752 
L 256.637 143.053684 
L 256.637 143.053684 
L 275.74 169.529091 
L 275.74 169.529091 
L 294.843 198.913917 
L 294.843 198.913917 
L 313.946 230.662832 
L 313.946 230.662832 
L 333.049 264.009381 
L 333.049 264.009381 
L 352.152 298.632957 
L 352.152 298.632957 
L 371.255 331.866845 
L 371.255 331.866845 
L 390.358 360.556526 
L 390.358 360.556526 
L 409.461 372.713161 
L 409.461 372.713161 
L 428.564 384.334055 
L 428.564 384.334055 
L 447.667 402.836277 
L 447.667 402.836277 
L 466.77 427.005723 
L 466.77 427.005124 
L 485.873 452.524109 
L 485.873 452.524109 
L 504.976 475.100716 
L 504.976 475.100716 
L 524.079 492.351679 
L 524.079 492.351679 
L 543.182 504.233252 
L 543.182 504.233252 
L 562.285 512.395804 
L 562.285 512.395804 
L 581.388 519.183048 
L 581.388 519.183048 
L 600.491 526.709782 
L 600.491 526.709782 
L 619.594 536.081046 
L 619.594 536.081046 
L 638.697 546.785069 
L 638.697 546.785069 
L 657.8 556.750201 
L 657.8 556.750201 
L 676.903 563.555423 
L 676.903 563.555423 
" clip-path="url(#p3e307f0141)" style="fill: none; stroke: #ff7f0e; stroke-width: 1.5; stroke-linecap: square"/>
   </g>
   <g id="line2d_15">
    <path d="M -1 79.377689 
L 8.298 74.788123 
L 8.298 74.788123 
L 27.401 67.631732 
L 27.401 67.631732 
L 46.504 62.632687 
L 46.504 62.632687 
L 65.607 59.688511 
L 65.607 59.68911 
L 84.71 58.718305 
L 84.71 58.719504 
L 103.813 59.688511 
L 122.916 62.632087 
L 142.019 67.631133 
L 142.019 67.631133 
L 161.122 74.788123 
L 161.122 74.787523 
L 180.225 84.217514 
L 180.225 84.216915 
L 199.328 96.025378 
L 199.328 96.025378 
L 218.431 110.290817 
L 218.431 110.290817 
L 237.534 127.047988 
L 237.534 127.047988 
L 256.637 146.280112 
L 256.637 146.280112 
L 275.74 167.936851 
L 275.74 167.936851 
L 294.843 191.967868 
L 294.843 191.967868 
L 313.946 218.514587 
L 313.946 218.514587 
L 333.049 247.807127 
L 333.049 247.807127 
L 352.152 279.941368 
L 352.152 279.941368 
L 371.255 313.562978 
L 371.255 313.562978 
L 390.358 344.797127 
L 390.358 344.797127 
L 409.461 368.271429 
L 409.461 368.271429 
L 428.564 387.316583 
L 428.564 387.316583 
L 447.667 406.9604 
L 447.667 406.959801 
L 466.77 427.830308 
L 466.77 427.830308 
L 485.873 449.01423 
L 485.873 449.013631 
L 504.976 468.880973 
L 504.976 468.880373 
L 524.079 486.088789 
L 524.079 486.088789 
L 543.182 499.957516 
L 543.182 499.957516 
L 562.285 510.57884 
L 562.285 510.57884 
L 581.388 518.652701 
L 581.388 518.652102 
L 600.491 525.161888 
L 600.491 525.161888 
L 619.594 530.971136 
L 619.594 530.971136 
L 638.697 536.428618 
L 638.697 536.428618 
L 657.8 541.099268 
L 657.8 541.099268 
L 676.903 543.914602 
L 676.903 543.914602 
" clip-path="url(#p3e307f0141)" style="fill: none; stroke: #2ca02c; stroke-width: 1.5; stroke-linecap: square"/>
   </g>
   <g id="line2d_16">
    <path d="M -1 75.50032 
L 8.298 70.773665 
L 8.298 70.773665 
L 27.401 63.52379 
L 27.401 63.52379 
L 46.504 58.441446 
L 46.504 58.441446 
L 65.607 55.191647 
L 65.607 55.191647 
L 84.71 53.882858 
L 84.71 53.884656 
L 103.813 55.192246 
L 103.813 55.191647 
L 122.916 58.441446 
L 122.916 58.441446 
L 142.019 63.52319 
L 142.019 63.52319 
L 161.122 70.773665 
L 161.122 70.773665 
L 180.225 80.485309 
L 180.225 80.485309 
L 199.328 92.947567 
L 218.431 108.398946 
L 218.431 108.34681 
L 237.534 126.958098 
L 237.534 126.941918 
L 256.637 148.579481 
L 256.637 148.468618 
L 275.74 173.144441 
L 275.74 173.108485 
L 294.843 200.484583 
L 294.843 200.116037 
L 294.843 200.472598 
L 313.946 229.782516 
L 313.946 230.982239 
L 333.049 260.75299 
L 333.049 261.427759 
L 333.049 260.111779 
L 352.152 292.654118 
L 352.152 293.904179 
L 352.152 293.023862 
L 371.255 323.321365 
L 371.255 320.749331 
L 371.255 323.171549 
L 390.358 352.716378 
L 390.358 347.563321 
L 390.358 349.771004 
L 409.461 366.972228 
L 409.461 365.851008 
L 428.564 382.675297 
L 428.564 382.112589 
L 428.564 382.213865 
L 447.667 402.557021 
L 447.667 402.287952 
L 466.77 426.106231 
L 466.77 425.980386 
L 485.873 450.382945 
L 485.873 450.330809 
L 504.976 472.293172 
L 504.976 472.2704 
L 524.079 489.765263 
L 524.079 489.758671 
L 543.182 502.280256 
L 562.285 510.596818 
L 600.491 522.887088 
L 600.491 522.86971 
L 619.594 530.305356 
L 619.594 530.235242 
L 638.697 538.841847 
L 657.8 547.62883 
L 676.903 555.404258 
L 676.903 555.404258 
" clip-path="url(#p3e307f0141)" style="fill: none; stroke: #d62728; stroke-width: 1.5; stroke-linecap: square"/>
   </g>
   <g id="line2d_17">
    <path d="M -1 74.622902 
L 8.298 70.222343 
L 8.298 70.080917 
L 27.401 63.240938 
L 27.401 63.309254 
L 27.401 63.433301 
L 46.504 58.432457 
L 46.504 58.522946 
L 46.504 58.708118 
L 65.607 55.609333 
L 65.607 55.970688 
L 84.71 54.477326 
L 84.71 54.996887 
L 103.813 55.132919 
L 103.813 55.810086 
L 122.916 57.757688 
L 122.916 58.477402 
L 142.019 62.458301 
L 142.019 63.067751 
L 161.122 69.094532 
L 161.122 69.814246 
L 180.225 78.513137 
L 180.225 79.367086 
L 199.328 90.785429 
L 199.328 91.278622 
L 218.431 105.975529 
L 218.431 105.400837 
L 218.431 105.509902 
L 237.534 123.594439 
L 237.534 123.336157 
L 237.534 123.798188 
L 256.637 143.319756 
L 256.637 143.869879 
L 275.74 165.53321 
L 275.74 166.309854 
L 294.843 192.16143 
L 294.843 192.576718 
L 294.843 191.225382 
L 313.946 221.143551 
L 313.946 220.981151 
L 313.946 220.658149 
L 333.049 251.670571 
L 333.049 248.878608 
L 333.049 250.699166 
L 352.152 290.052121 
L 352.152 284.401078 
L 371.255 320.869783 
L 371.255 321.258105 
L 371.255 318.418201 
L 390.358 351.540625 
L 390.358 349.824937 
L 390.358 350.924583 
L 409.461 372.587915 
L 409.461 366.191988 
L 409.461 366.879942 
L 428.564 389.354674 
L 428.564 386.49859 
L 428.564 386.826986 
L 447.667 407.755621 
L 447.667 404.360201 
L 466.77 429.806675 
L 466.77 425.533935 
L 485.873 452.06867 
L 485.873 447.77915 
L 504.976 472.274595 
L 504.976 468.72037 
L 524.079 489.168398 
L 524.079 487.033826 
L 543.182 503.191135 
L 543.182 502.076507 
L 543.182 502.432469 
L 562.285 513.334248 
L 562.285 512.740979 
L 562.285 513.352825 
L 581.388 521.132448 
L 581.388 521.804221 
L 600.491 528.417081 
L 600.491 529.617403 
L 619.594 535.991156 
L 619.594 537.271181 
L 619.594 536.864282 
L 638.697 545.026234 
L 638.697 545.862205 
L 657.8 554.052322 
L 657.8 553.831194 
L 657.8 554.017565 
L 676.903 559.578719 
L 676.903 559.141857 
L 676.903 559.56134 
" clip-path="url(#p3e307f0141)" style="fill: none; stroke: #9467bd; stroke-width: 1.5; stroke-linecap: square"/>
   </g>
   <g id="patch_3">
    <path d="M 84.71 647.08 
L 84.71 21.6 
" style="fill: none; stroke: #000000; stroke-width: 0.8; stroke-linejoin: miter; stroke-linecap: square"/>
   </g>
   <g id="patch_4">
    <path d="M 696.006 647.08 
L 696.006 21.6 
" style="fill: none; stroke: #000000; stroke-width: 0.8; stroke-linejoin: miter; stroke-linecap: square"/>
   </g>
   <g id="patch_5">
    <path d="M 84.71 647.08 
L 696.006 647.08 
" style="fill: none; stroke: #000000; stroke-width: 0.8; stroke-linejoin: miter; stroke-linecap: square"/>
   </g>
   <g id="patch_6">
    <path d="M 84.71 21.6 
L 696.006 21.6 
" style="fill: none; stroke: #000000; stroke-width: 0.8; stroke-linejoin: miter; stroke-linecap: square"/>
   </g>
  </g>
  <g id="axes_2">
   <g id="patch_7">
    <path d="M 797.942 647.08 
L 1409.238 647.08 
L 1409.238 21.6 
L 797.942 21.6 
z
" style="fill: #ffffff"/>
   </g>
   <g id="matplotlib.axis_3">
    <g id="xtick_7">
     <g id="line2d_18">
      <g>
       <use xlink:href="#m4dc9a868e3" x="797.942" y="647.08" style="stroke: #000000; stroke-width: 0.8"/>
      </g>
     </g>
     <g id="text_15">
      <!-- 1.0 -->
      <g transform="translate(782.038875 669.276875) scale(0.2 -0.2)">
       <use xlink:href="#DejaVuSans-31"/>
       <use xlink:href="#DejaVuSans-2e" x="63.623047"/>
       <use xlink:href="#DejaVuSans-30" x="95.410156"/>
      </g>
     </g>
    </g>
    <g id="xtick_8">
     <g id="line2d_19">
      <g>
       <use xlink:href="#m4dc9a868e3" x="920.2012" y="647.08" style="stroke: #000000; stroke-width: 0.8"/>
      </g>
     </g>
     <g id="text_16">
      <!-- 1.2 -->
      <g transform="translate(904.298075 669.276875) scale(0.2 -0.2)">
       <use xlink:href="#DejaVuSans-31"/>
       <use xlink:href="#DejaVuSans-2e" x="63.623047"/>
       <use xlink:href="#DejaVuSans-32" x="95.410156"/>
      </g>
     </g>
    </g>
    <g id="xtick_9">
     <g id="line2d_20">
      <g>
       <use xlink:href="#m4dc9a868e3" x="1042.4604" y="647.08" style="stroke: #000000; stroke-width: 0.8"/>
      </g>
     </g>
     <g id="text_17">
      <!-- 1.4 -->
      <g transform="translate(1026.557275 669.276875) scale(0.2 -0.2)">
       <use xlink:href="#DejaVuSans-31"/>
       <use xlink:href="#DejaVuSans-2e" x="63.623047"/>
       <use xlink:href="#DejaVuSans-34" x="95.410156"/>
      </g>
     </g>
    </g>
    <g id="xtick_10">
     <g id="line2d_21">
      <g>
       <use xlink:href="#m4dc9a868e3" x="1164.7196" y="647.08" style="stroke: #000000; stroke-width: 0.8"/>
      </g>
     </g>
     <g id="text_18">
      <!-- 1.6 -->
      <g transform="translate(1148.816475 669.276875) scale(0.2 -0.2)">
       <use xlink:href="#DejaVuSans-31"/>
       <use xlink:href="#DejaVuSans-2e" x="63.623047"/>
       <use xlink:href="#DejaVuSans-36" x="95.410156"/>
      </g>
     </g>
    </g>
    <g id="xtick_11">
     <g id="line2d_22">
      <g>
       <use xlink:href="#m4dc9a868e3" x="1286.9788" y="647.08" style="stroke: #000000; stroke-width: 0.8"/>
      </g>
     </g>
     <g id="text_19">
      <!-- 1.8 -->
      <g transform="translate(1271.075675 669.276875) scale(0.2 -0.2)">
       <use xlink:href="#DejaVuSans-31"/>
       <use xlink:href="#DejaVuSans-2e" x="63.623047"/>
       <use xlink:href="#DejaVuSans-38" x="95.410156"/>
      </g>
     </g>
    </g>
    <g id="xtick_12">
     <g id="line2d_23">
      <g>
       <use xlink:href="#m4dc9a868e3" x="1409.238" y="647.08" style="stroke: #000000; stroke-width: 0.8"/>
      </g>
     </g>
     <g id="text_20">
      <!-- 2.0 -->
      <g transform="translate(1393.334875 669.276875) scale(0.2 -0.2)">
       <use xlink:href="#DejaVuSans-32"/>
       <use xlink:href="#DejaVuSans-2e" x="63.623047"/>
       <use xlink:href="#DejaVuSans-30" x="95.410156"/>
      </g>
     </g>
    </g>
    <g id="text_21">
     <!-- Position $x$ -->
     <g transform="translate(1055.19 692.633125) scale(0.2 -0.2)">
      <use xlink:href="#DejaVuSans-50" transform="translate(0 0.015625)"/>
      <use xlink:href="#DejaVuSans-6f" transform="translate(60.302734 0.015625)"/>
      <use xlink:href="#DejaVuSans-73" transform="translate(121.484375 0.015625)"/>
      <use xlink:href="#DejaVuSans-69" transform="translate(173.583984 0.015625)"/>
      <use xlink:href="#DejaVuSans-74" transform="translate(201.367188 0.015625)"/>
      <use xlink:href="#DejaVuSans-69" transform="translate(240.576172 0.015625)"/>
      <use xlink:href="#DejaVuSans-6f" transform="translate(268.359375 0.015625)"/>
      <use xlink:href="#DejaVuSans-6e" transform="translate(329.541016 0.015625)"/>
      <use xlink:href="#DejaVuSans-20" transform="translate(392.919922 0.015625)"/>
      <use xlink:href="#DejaVuSans-Oblique-78" transform="translate(424.707031 0.015625)"/>
     </g>
    </g>
   </g>
   <g id="matplotlib.axis_4">
    <g id="ytick_7">
     <g id="line2d_24">
      <g>
       <use xlink:href="#m71277fc27d" x="797.942" y="647.08" style="stroke: #000000; stroke-width: 0.8"/>
      </g>
     </g>
     <g id="text_22">
      <!-- 0.0 -->
      <g transform="translate(759.13575 654.678437) scale(0.2 -0.2)">
       <use xlink:href="#DejaVuSans-30"/>
       <use xlink:href="#DejaVuSans-2e" x="63.623047"/>
       <use xlink:href="#DejaVuSans-30" x="95.410156"/>
      </g>
     </g>
    </g>
    <g id="ytick_8">
     <g id="line2d_25">
      <g>
       <use xlink:href="#m71277fc27d" x="797.942" y="512.828901" style="stroke: #000000; stroke-width: 0.8"/>
      </g>
     </g>
     <g id="text_23">
      <!-- 0.2 -->
      <g transform="translate(759.13575 520.427338) scale(0.2 -0.2)">
       <use xlink:href="#DejaVuSans-30"/>
       <use xlink:href="#DejaVuSans-2e" x="63.623047"/>
       <use xlink:href="#DejaVuSans-32" x="95.410156"/>
      </g>
     </g>
    </g>
    <g id="ytick_9">
     <g id="line2d_26">
      <g>
       <use xlink:href="#m71277fc27d" x="797.942" y="378.577801" style="stroke: #000000; stroke-width: 0.8"/>
      </g>
     </g>
     <g id="text_24">
      <!-- 0.4 -->
      <g transform="translate(759.13575 386.176239) scale(0.2 -0.2)">
       <use xlink:href="#DejaVuSans-30"/>
       <use xlink:href="#DejaVuSans-2e" x="63.623047"/>
       <use xlink:href="#DejaVuSans-34" x="95.410156"/>
      </g>
     </g>
    </g>
    <g id="ytick_10">
     <g id="line2d_27">
      <g>
       <use xlink:href="#m71277fc27d" x="797.942" y="244.326702" style="stroke: #000000; stroke-width: 0.8"/>
      </g>
     </g>
     <g id="text_25">
      <!-- 0.6 -->
      <g transform="translate(759.13575 251.92514) scale(0.2 -0.2)">
       <use xlink:href="#DejaVuSans-30"/>
       <use xlink:href="#DejaVuSans-2e" x="63.623047"/>
       <use xlink:href="#DejaVuSans-36" x="95.410156"/>
      </g>
     </g>
    </g>
    <g id="ytick_11">
     <g id="line2d_28">
      <g>
       <use xlink:href="#m71277fc27d" x="797.942" y="110.075603" style="stroke: #000000; stroke-width: 0.8"/>
      </g>
     </g>
     <g id="text_26">
      <!-- 0.8 -->
      <g transform="translate(759.13575 117.67404) scale(0.2 -0.2)">
       <use xlink:href="#DejaVuSans-30"/>
       <use xlink:href="#DejaVuSans-2e" x="63.623047"/>
       <use xlink:href="#DejaVuSans-38" x="95.410156"/>
      </g>
     </g>
    </g>
    <g id="text_27">
     <!-- $U_x$ -->
     <g transform="translate(750.976375 346.14) rotate(-90) scale(0.2 -0.2)">
      <defs>
       <path id="DejaVuSans-Oblique-55" d="M 991 4666 
L 1625 4666 
L 1075 1831 
Q 1041 1641 1027 1517 
Q 1013 1394 1013 1300 
Q 1013 869 1253 645 
Q 1494 422 1959 422 
Q 2563 422 2898 753 
Q 3234 1084 3378 1831 
L 3928 4666 
L 4563 4666 
L 4000 1753 
Q 3816 809 3300 359 
Q 2784 -91 1888 -91 
Q 1188 -91 780 261 
Q 372 613 372 1216 
Q 372 1325 387 1461 
Q 403 1597 434 1753 
L 991 4666 
z
" transform="scale(0.015625)"/>
      </defs>
      <use xlink:href="#DejaVuSans-Oblique-55" transform="translate(0 0.09375)"/>
      <use xlink:href="#DejaVuSans-Oblique-78" transform="translate(73.193359 -16.3125) scale(0.7)"/>
     </g>
    </g>
   </g>
   <g id="line2d_29">
    <path d="M 186.646 647.08 
L 931.663 647.08 
L 931.663 647.08 
L 950.766 621.86247 
L 950.766 621.86247 
L 1065.384 153.320363 
L 1065.384 153.320363 
L 1084.487 82.423332 
L 1084.487 82.423332 
L 1313.723 82.423332 
L 1313.723 82.423332 
L 1332.826 647.08 
L 1332.826 647.08 
L 1390.135 647.08 
L 1390.135 647.08 
" clip-path="url(#p25541530ea)" style="fill: none; stroke: #1f77b4; stroke-width: 1.5; stroke-linecap: square"/>
   </g>
   <g id="line2d_30">
    <path d="M 186.646 647.079907 
L 186.646 647.081483 
L 205.749 705.434992 
L 205.749 705.431166 
L 209.373048 721 
M 663.229653 721 
L 664.221 719.514509 
L 664.221 719.514509 
L 683.324 696.979992 
L 683.324 696.979992 
L 702.427 679.969371 
L 702.427 679.969438 
L 721.53 667.709829 
L 721.53 667.709829 
L 740.633 659.277786 
L 740.633 659.277786 
L 759.736 653.679905 
L 759.736 653.679912 
L 778.839 649.928271 
L 778.839 649.928271 
L 817.045 644.231722 
L 817.045 644.231729 
L 836.148 640.480082 
L 836.148 640.480088 
L 855.251 634.882214 
L 855.251 634.882214 
L 874.354 626.450171 
L 874.354 626.450171 
L 893.457 614.190562 
L 893.457 614.190562 
L 912.56 597.180008 
L 912.56 597.180008 
L 931.663 574.645491 
L 931.663 574.645491 
L 950.766 546.020471 
L 950.766 546.020471 
L 969.869 510.960125 
L 988.972 469.318119 
L 988.972 469.318119 
L 1008.075 421.096467 
L 1008.075 421.096467 
L 1027.178 366.395185 
L 1027.178 366.395185 
L 1046.281 305.423035 
L 1046.281 305.423035 
L 1065.384 238.58344 
L 1065.384 238.58344 
L 1084.487 167.408877 
L 1084.487 167.408877 
L 1103.59 99.877889 
L 1103.59 99.87856 
L 1122.693 80.356437 
L 1122.693 80.356437 
L 1141.796 78.539348 
L 1141.796 78.539348 
L 1160.899 78.960225 
L 1160.899 78.960225 
L 1180.002 79.548916 
L 1199.105 80.551101 
L 1199.105 80.551101 
L 1218.208 82.739394 
L 1218.208 82.739394 
L 1237.311 87.592571 
L 1237.311 87.592571 
L 1256.414 97.794312 
L 1256.414 97.793641 
L 1275.517 117.674215 
L 1275.517 117.674215 
L 1294.62 153.274921 
L 1294.62 153.27425 
L 1313.723 211.351947 
L 1313.723 211.351947 
L 1332.826 295.936181 
L 1332.826 295.936181 
L 1371.032 506.6802 
L 1371.032 506.678858 
L 1390.135 588.737224 
L 1390.135 588.736352 
" clip-path="url(#p25541530ea)" style="fill: none; stroke: #ff7f0e; stroke-width: 1.5; stroke-linecap: square"/>
   </g>
   <g id="line2d_31">
    <path d="M 186.646 647.073411 
L 186.646 647.076663 
L 198.770067 721 
M 674.729289 721 
L 683.324 711.420175 
L 683.324 711.420175 
L 702.427 694.120108 
L 702.427 694.120108 
L 721.53 680.289963 
L 721.53 680.289963 
L 740.633 669.345813 
L 759.736 660.640301 
L 778.839 653.468312 
L 817.045 640.693118 
L 836.148 633.516074 
L 836.148 633.519699 
L 855.251 624.803715 
L 855.251 624.812978 
L 874.354 613.865137 
L 874.354 613.869164 
L 893.457 600.038952 
L 893.457 600.039422 
L 912.56 582.739557 
L 912.56 582.739557 
L 931.663 561.447265 
L 931.663 561.447265 
L 950.766 535.692534 
L 950.766 535.692534 
L 969.869 505.047036 
L 969.869 505.047036 
L 988.972 469.118756 
L 988.972 469.118756 
L 1008.075 427.507628 
L 1008.075 427.507628 
L 1027.178 379.916956 
L 1027.178 379.916956 
L 1046.281 326.084279 
L 1046.281 326.084279 
L 1065.384 266.485517 
L 1065.384 266.485517 
L 1084.487 203.796295 
L 1084.487 203.796295 
L 1103.59 147.310816 
L 1103.59 147.310816 
L 1122.693 114.713978 
L 1122.693 114.713978 
L 1141.796 102.375631 
L 1141.796 102.376302 
L 1160.899 97.986962 
L 1160.899 97.986962 
L 1180.002 97.796326 
L 1180.002 97.796997 
L 1199.105 100.209489 
L 1199.105 100.209489 
L 1218.208 105.517107 
L 1218.208 105.516435 
L 1237.311 114.49045 
L 1237.311 114.49045 
L 1256.414 128.377384 
L 1256.414 128.376713 
L 1275.517 148.779523 
L 1275.517 148.778852 
L 1294.62 177.602563 
L 1294.62 177.601892 
L 1313.723 217.011973 
L 1313.723 217.011973 
L 1332.826 269.471933 
L 1332.826 269.471933 
L 1351.929 337.823195 
L 1351.929 337.822524 
L 1371.032 424.863553 
L 1371.032 424.862882 
L 1390.135 530.597034 
L 1390.135 530.596362 
" clip-path="url(#p25541530ea)" style="fill: none; stroke: #2ca02c; stroke-width: 1.5; stroke-linecap: square"/>
   </g>
   <g id="line2d_32">
    <path d="M 186.646 647.043483 
L 186.646 647.089918 
L 186.646 647.046353 
L 197.939407 721 
M 672.605172 721 
L 683.324 708.412883 
L 683.324 708.422482 
L 702.427 690.711876 
L 702.427 690.711876 
L 721.53 677.148621 
L 721.53 677.148756 
L 740.633 667.037768 
L 740.633 667.037903 
L 759.736 659.622677 
L 759.736 659.623147 
L 778.839 653.506882 
L 778.839 653.507379 
L 817.045 640.652648 
L 836.148 634.536786 
L 836.148 634.536786 
L 855.251 627.121896 
L 855.251 627.121963 
L 874.354 617.010976 
L 893.457 603.446849 
L 912.56 585.737719 
L 931.663 563.24623 
L 931.663 563.303958 
L 950.766 535.399867 
L 950.766 535.677767 
L 950.766 535.324686 
L 969.869 502.486867 
L 969.869 501.505492 
L 969.869 502.570103 
L 988.972 461.700712 
L 988.972 463.461415 
L 988.972 461.965858 
L 1008.075 417.88988 
L 1008.075 415.979486 
L 1008.075 416.754786 
L 1027.178 364.639181 
L 1027.178 364.24851 
L 1027.178 364.588837 
L 1046.281 307.935544 
L 1046.281 304.5061 
L 1046.281 306.589677 
L 1065.384 246.958024 
L 1065.384 240.459599 
L 1065.384 246.858006 
L 1084.487 197.220676 
L 1084.487 177.759637 
L 1084.487 179.998945 
L 1103.59 118.576382 
L 1103.59 137.185598 
L 1103.59 113.719178 
L 1122.693 100.184653 
L 1122.693 103.609398 
L 1122.693 97.972866 
L 1141.796 93.31301 
L 1141.796 95.306639 
L 1141.796 91.360999 
L 1160.899 90.342034 
L 1160.899 91.249571 
L 1160.899 89.174049 
L 1180.002 89.123034 
L 1180.002 89.382138 
L 1180.002 88.328938 
L 1199.105 89.097526 
L 1199.105 89.033085 
L 1199.105 88.553138 
L 1218.208 90.718608 
L 1218.208 90.308471 
L 1237.311 94.60652 
L 1237.311 94.411184 
L 1256.414 102.559555 
L 1256.414 102.450811 
L 1256.414 102.402481 
L 1275.517 118.031994 
L 1294.62 145.821972 
L 1294.62 146.069665 
L 1313.723 190.028174 
L 1313.723 190.161753 
L 1332.826 252.13676 
L 1332.826 253.327567 
L 1332.826 252.366329 
L 1351.929 334.881082 
L 1351.929 333.293563 
L 1351.929 333.857418 
L 1371.032 426.316821 
L 1390.135 522.068733 
L 1390.135 522.0298 
" clip-path="url(#p25541530ea)" style="fill: none; stroke: #d62728; stroke-width: 1.5; stroke-linecap: square"/>
   </g>
   <g id="line2d_33">
    <path d="M 186.646 666.026522 
L 186.646 659.26275 
L 201.362505 721 
M 670.41073 721 
L 683.324 705.784649 
L 683.324 705.861173 
L 683.324 706.378106 
L 702.427 687.748551 
L 702.427 687.241283 
L 702.427 688.110358 
L 721.53 675.517471 
L 721.53 674.632622 
L 721.53 675.200638 
L 740.633 664.751875 
L 740.633 665.692841 
L 759.736 657.323627 
L 759.736 657.344705 
L 759.736 657.957158 
L 778.839 651.816285 
L 778.839 651.926438 
L 778.839 652.369017 
L 797.942 647.282559 
L 797.942 647.330923 
L 817.045 643.031215 
L 817.045 642.202886 
L 836.148 637.604826 
L 836.148 636.261442 
L 855.251 630.336337 
L 855.251 628.666253 
L 874.354 620.980378 
L 874.354 618.42323 
L 893.457 608.070792 
L 893.457 604.710957 
L 912.56 590.318568 
L 912.56 588.867045 
L 931.663 566.810596 
L 931.663 569.324448 
L 931.663 568.107462 
L 950.766 542.320511 
L 950.766 537.942583 
L 969.869 512.738952 
L 969.869 503.928724 
L 969.869 509.471952 
L 988.972 467.021754 
L 988.972 475.329212 
L 1008.075 422.877979 
L 1008.075 432.608499 
L 1027.178 372.805004 
L 1027.178 376.987597 
L 1027.178 366.136081 
L 1046.281 321.702323 
L 1046.281 326.660887 
L 1046.281 310.621237 
L 1065.384 240.350184 
L 1065.384 239.056675 
L 1065.384 262.551289 
L 1084.487 180.672886 
L 1084.487 168.769512 
L 1084.487 192.116449 
L 1103.59 120.668014 
L 1103.59 116.092066 
L 1103.59 120.684796 
L 1122.693 93.58554 
L 1122.693 100.435031 
L 1122.693 98.952228 
L 1141.796 85.172695 
L 1141.796 78.458126 
L 1160.899 85.474089 
L 1160.899 85.88087 
L 1160.899 78.863565 
L 1180.002 84.440355 
L 1180.002 86.519905 
L 1180.002 78.961568 
L 1199.105 85.669424 
L 1199.105 90.472257 
L 1199.105 82.477604 
L 1218.208 90.011776 
L 1218.208 98.197737 
L 1218.208 89.588885 
L 1237.311 98.801867 
L 1237.311 109.056637 
L 1237.311 99.761762 
L 1256.414 116.171274 
L 1256.414 126.836852 
L 1256.414 115.477196 
L 1275.517 140.501601 
L 1275.517 151.064477 
L 1275.517 144.141819 
L 1294.62 176.682272 
L 1294.62 185.024635 
L 1313.723 230.168581 
L 1313.723 237.924267 
L 1332.826 308.579949 
L 1332.826 300.075814 
L 1332.826 309.733838 
L 1351.929 400.956788 
L 1351.929 394.473803 
L 1351.929 397.549495 
L 1371.032 498.491555 
L 1371.032 486.114274 
L 1371.032 490.981548 
L 1390.135 590.618217 
L 1390.135 581.285818 
L 1390.135 581.285818 
" clip-path="url(#p25541530ea)" style="fill: none; stroke: #9467bd; stroke-width: 1.5; stroke-linecap: square"/>
   </g>
   <g id="patch_8">
    <path d="M 797.942 647.08 
L 797.942 21.6 
" style="fill: none; stroke: #000000; stroke-width: 0.8; stroke-linejoin: miter; stroke-linecap: square"/>
   </g>
   <g id="patch_9">
    <path d="M 1409.238 647.08 
L 1409.238 21.6 
" style="fill: none; stroke: #000000; stroke-width: 0.8; stroke-linejoin: miter; stroke-linecap: square"/>
   </g>
   <g id="patch_10">
    <path d="M 797.942 647.08 
L 1409.238 647.08 
" style="fill: none; stroke: #000000; stroke-width: 0.8; stroke-linejoin: miter; stroke-linecap: square"/>
   </g>
   <g id="patch_11">
    <path d="M 797.942 21.6 
L 1409.238 21.6 
" style="fill: none; stroke: #000000; stroke-width: 0.8; stroke-linejoin: miter; stroke-linecap: square"/>
   </g>
  </g>
  <g id="axes_3">
   <g id="patch_12">
    <path d="M 1511.174 647.08 
L 2122.47 647.08 
L 2122.47 21.6 
L 1511.174 21.6 
z
" style="fill: #ffffff"/>
   </g>
   <g id="matplotlib.axis_5">
    <g id="xtick_13">
     <g id="line2d_34">
      <g>
       <use xlink:href="#m4dc9a868e3" x="1511.174" y="647.08" style="stroke: #000000; stroke-width: 0.8"/>
      </g>
     </g>
     <g id="text_28">
      <!-- 1.0 -->
      <g transform="translate(1495.270875 669.276875) scale(0.2 -0.2)">
       <use xlink:href="#DejaVuSans-31"/>
       <use xlink:href="#DejaVuSans-2e" x="63.623047"/>
       <use xlink:href="#DejaVuSans-30" x="95.410156"/>
      </g>
     </g>
    </g>
    <g id="xtick_14">
     <g id="line2d_35">
      <g>
       <use xlink:href="#m4dc9a868e3" x="1633.4332" y="647.08" style="stroke: #000000; stroke-width: 0.8"/>
      </g>
     </g>
     <g id="text_29">
      <!-- 1.2 -->
      <g transform="translate(1617.530075 669.276875) scale(0.2 -0.2)">
       <use xlink:href="#DejaVuSans-31"/>
       <use xlink:href="#DejaVuSans-2e" x="63.623047"/>
       <use xlink:href="#DejaVuSans-32" x="95.410156"/>
      </g>
     </g>
    </g>
    <g id="xtick_15">
     <g id="line2d_36">
      <g>
       <use xlink:href="#m4dc9a868e3" x="1755.6924" y="647.08" style="stroke: #000000; stroke-width: 0.8"/>
      </g>
     </g>
     <g id="text_30">
      <!-- 1.4 -->
      <g transform="translate(1739.789275 669.276875) scale(0.2 -0.2)">
       <use xlink:href="#DejaVuSans-31"/>
       <use xlink:href="#DejaVuSans-2e" x="63.623047"/>
       <use xlink:href="#DejaVuSans-34" x="95.410156"/>
      </g>
     </g>
    </g>
    <g id="xtick_16">
     <g id="line2d_37">
      <g>
       <use xlink:href="#m4dc9a868e3" x="1877.9516" y="647.08" style="stroke: #000000; stroke-width: 0.8"/>
      </g>
     </g>
     <g id="text_31">
      <!-- 1.6 -->
      <g transform="translate(1862.048475 669.276875) scale(0.2 -0.2)">
       <use xlink:href="#DejaVuSans-31"/>
       <use xlink:href="#DejaVuSans-2e" x="63.623047"/>
       <use xlink:href="#DejaVuSans-36" x="95.410156"/>
      </g>
     </g>
    </g>
    <g id="xtick_17">
     <g id="line2d_38">
      <g>
       <use xlink:href="#m4dc9a868e3" x="2000.2108" y="647.08" style="stroke: #000000; stroke-width: 0.8"/>
      </g>
     </g>
     <g id="text_32">
      <!-- 1.8 -->
      <g transform="translate(1984.307675 669.276875) scale(0.2 -0.2)">
       <use xlink:href="#DejaVuSans-31"/>
       <use xlink:href="#DejaVuSans-2e" x="63.623047"/>
       <use xlink:href="#DejaVuSans-38" x="95.410156"/>
      </g>
     </g>
    </g>
    <g id="xtick_18">
     <g id="line2d_39">
      <g>
       <use xlink:href="#m4dc9a868e3" x="2122.47" y="647.08" style="stroke: #000000; stroke-width: 0.8"/>
      </g>
     </g>
     <g id="text_33">
      <!-- 2.0 -->
      <g transform="translate(2106.566875 669.276875) scale(0.2 -0.2)">
       <use xlink:href="#DejaVuSans-32"/>
       <use xlink:href="#DejaVuSans-2e" x="63.623047"/>
       <use xlink:href="#DejaVuSans-30" x="95.410156"/>
      </g>
     </g>
    </g>
    <g id="text_34">
     <!-- Position $x$ -->
     <g transform="translate(1768.422 692.633125) scale(0.2 -0.2)">
      <use xlink:href="#DejaVuSans-50" transform="translate(0 0.015625)"/>
      <use xlink:href="#DejaVuSans-6f" transform="translate(60.302734 0.015625)"/>
      <use xlink:href="#DejaVuSans-73" transform="translate(121.484375 0.015625)"/>
      <use xlink:href="#DejaVuSans-69" transform="translate(173.583984 0.015625)"/>
      <use xlink:href="#DejaVuSans-74" transform="translate(201.367188 0.015625)"/>
      <use xlink:href="#DejaVuSans-69" transform="translate(240.576172 0.015625)"/>
      <use xlink:href="#DejaVuSans-6f" transform="translate(268.359375 0.015625)"/>
      <use xlink:href="#DejaVuSans-6e" transform="translate(329.541016 0.015625)"/>
      <use xlink:href="#DejaVuSans-20" transform="translate(392.919922 0.015625)"/>
      <use xlink:href="#DejaVuSans-Oblique-78" transform="translate(424.707031 0.015625)"/>
     </g>
    </g>
   </g>
   <g id="matplotlib.axis_6">
    <g id="ytick_12">
     <g id="line2d_40">
      <g>
       <use xlink:href="#m71277fc27d" x="1511.174" y="647.08" style="stroke: #000000; stroke-width: 0.8"/>
      </g>
     </g>
     <g id="text_35">
      <!-- 0.0 -->
      <g transform="translate(1472.36775 654.678437) scale(0.2 -0.2)">
       <use xlink:href="#DejaVuSans-30"/>
       <use xlink:href="#DejaVuSans-2e" x="63.623047"/>
       <use xlink:href="#DejaVuSans-30" x="95.410156"/>
      </g>
     </g>
    </g>
    <g id="ytick_13">
     <g id="line2d_41">
      <g>
       <use xlink:href="#m71277fc27d" x="1511.174" y="527.370909" style="stroke: #000000; stroke-width: 0.8"/>
      </g>
     </g>
     <g id="text_36">
      <!-- 0.2 -->
      <g transform="translate(1472.36775 534.969347) scale(0.2 -0.2)">
       <use xlink:href="#DejaVuSans-30"/>
       <use xlink:href="#DejaVuSans-2e" x="63.623047"/>
       <use xlink:href="#DejaVuSans-32" x="95.410156"/>
      </g>
     </g>
    </g>
    <g id="ytick_14">
     <g id="line2d_42">
      <g>
       <use xlink:href="#m71277fc27d" x="1511.174" y="407.661818" style="stroke: #000000; stroke-width: 0.8"/>
      </g>
     </g>
     <g id="text_37">
      <!-- 0.4 -->
      <g transform="translate(1472.36775 415.260256) scale(0.2 -0.2)">
       <use xlink:href="#DejaVuSans-30"/>
       <use xlink:href="#DejaVuSans-2e" x="63.623047"/>
       <use xlink:href="#DejaVuSans-34" x="95.410156"/>
      </g>
     </g>
    </g>
    <g id="ytick_15">
     <g id="line2d_43">
      <g>
       <use xlink:href="#m71277fc27d" x="1511.174" y="287.952727" style="stroke: #000000; stroke-width: 0.8"/>
      </g>
     </g>
     <g id="text_38">
      <!-- 0.6 -->
      <g transform="translate(1472.36775 295.551165) scale(0.2 -0.2)">
       <use xlink:href="#DejaVuSans-30"/>
       <use xlink:href="#DejaVuSans-2e" x="63.623047"/>
       <use xlink:href="#DejaVuSans-36" x="95.410156"/>
      </g>
     </g>
    </g>
    <g id="ytick_16">
     <g id="line2d_44">
      <g>
       <use xlink:href="#m71277fc27d" x="1511.174" y="168.243636" style="stroke: #000000; stroke-width: 0.8"/>
      </g>
     </g>
     <g id="text_39">
      <!-- 0.8 -->
      <g transform="translate(1472.36775 175.842074) scale(0.2 -0.2)">
       <use xlink:href="#DejaVuSans-30"/>
       <use xlink:href="#DejaVuSans-2e" x="63.623047"/>
       <use xlink:href="#DejaVuSans-38" x="95.410156"/>
      </g>
     </g>
    </g>
    <g id="ytick_17">
     <g id="line2d_45">
      <g>
       <use xlink:href="#m71277fc27d" x="1511.174" y="48.534545" style="stroke: #000000; stroke-width: 0.8"/>
      </g>
     </g>
     <g id="text_40">
      <!-- 1.0 -->
      <g transform="translate(1472.36775 56.132983) scale(0.2 -0.2)">
       <use xlink:href="#DejaVuSans-31"/>
       <use xlink:href="#DejaVuSans-2e" x="63.623047"/>
       <use xlink:href="#DejaVuSans-30" x="95.410156"/>
      </g>
     </g>
    </g>
    <g id="text_41">
     <!-- $P$ -->
     <g transform="translate(1464.208375 340.44) rotate(-90) scale(0.2 -0.2)">
      <defs>
       <path id="DejaVuSans-Oblique-50" d="M 1081 4666 
L 2541 4666 
Q 3178 4666 3512 4369 
Q 3847 4072 3847 3500 
Q 3847 2731 3353 2303 
Q 2859 1875 1966 1875 
L 1172 1875 
L 806 0 
L 172 0 
L 1081 4666 
z
M 1613 4147 
L 1275 2394 
L 2069 2394 
Q 2606 2394 2893 2669 
Q 3181 2944 3181 3456 
Q 3181 3784 2986 3965 
Q 2791 4147 2438 4147 
L 1613 4147 
z
" transform="scale(0.015625)"/>
      </defs>
      <use xlink:href="#DejaVuSans-Oblique-50" transform="translate(0 0.09375)"/>
     </g>
    </g>
   </g>
   <g id="line2d_46">
    <path d="M 899.878 48.534545 
L 1644.895 48.534545 
L 1644.895 48.534545 
L 1663.998 77.006093 
L 1663.998 77.006093 
L 1683.101 158.374641 
L 1683.101 158.374641 
L 1702.204 230.174834 
L 1702.204 230.174834 
L 1721.307 293.276506 
L 1721.307 293.276506 
L 1740.41 348.495105 
L 1740.41 348.495105 
L 1759.513 396.59344 
L 1759.513 396.59344 
L 1778.616 438.283447 
L 1778.616 438.283447 
L 1797.719 471.140444 
L 1797.719 471.140444 
L 2026.955 471.140444 
L 2026.955 471.140444 
L 2046.058 587.225455 
L 2046.058 587.225455 
L 2103.367 587.225455 
L 2103.367 587.225455 
" clip-path="url(#p5a4bd19b4f)" style="fill: none; stroke: #1f77b4; stroke-width: 1.5; stroke-linecap: square"/>
   </g>
   <g id="line2d_47">
    <path d="M 899.878 578.469932 
L 899.878 578.469333 
L 899.878 578.469932 
L 918.981 574.813417 
L 918.981 574.813417 
L 938.084 563.397959 
L 938.084 563.400353 
L 957.187 545.05254 
L 957.187 545.066905 
L 976.29 523.811958 
L 976.29 523.834703 
L 995.393 504.587276 
L 995.393 504.666883 
L 1014.496 490.377209 
L 1014.496 490.393968 
L 1033.599 481.169185 
L 1033.599 481.172777 
L 1052.702 475.861284 
L 1052.702 475.861284 
L 1071.805 473.075654 
L 1071.805 473.075654 
L 1090.908 471.725934 
L 1090.908 471.725934 
L 1110.011 471.129783 
L 1110.011 471.129783 
L 1129.114 470.923883 
L 1129.114 470.923883 
L 1167.32 471.068731 
L 1167.32 471.068731 
L 1186.423 470.367834 
L 1186.423 470.367834 
L 1205.526 462.310215 
L 1205.526 462.310215 
L 1224.629 432.231511 
L 1224.629 432.231511 
L 1243.732 395.165985 
L 1243.732 395.165985 
L 1262.835 355.221455 
L 1262.835 355.221455 
L 1301.041 272.955572 
L 1301.041 272.955572 
L 1320.144 233.109204 
L 1320.144 233.109204 
L 1339.247 195.708493 
L 1339.247 195.708493 
L 1358.35 161.849974 
L 1358.35 161.849974 
L 1377.453 132.424282 
L 1377.453 132.424282 
L 1396.556 108.004825 
L 1396.556 108.004825 
L 1415.659 88.761588 
L 1415.659 88.761588 
L 1434.762 74.453359 
L 1434.762 74.453359 
L 1453.865 64.503738 
L 1453.865 64.503738 
L 1472.968 58.164543 
L 1472.968 58.164543 
L 1492.071 54.710337 
L 1492.071 54.710337 
L 1511.174 53.622182 
L 1511.174 53.622182 
L 1530.277 54.710337 
L 1530.277 54.710337 
L 1549.38 58.164543 
L 1549.38 58.164543 
L 1568.483 64.503738 
L 1568.483 64.503738 
L 1587.586 74.453359 
L 1587.586 74.453359 
L 1606.689 88.761588 
L 1606.689 88.761588 
L 1625.792 108.004825 
L 1625.792 108.004825 
L 1644.895 132.424282 
L 1644.895 132.424282 
L 1663.998 161.849974 
L 1663.998 161.849974 
L 1683.101 195.708493 
L 1683.101 195.708493 
L 1702.204 233.109204 
L 1702.204 233.109204 
L 1721.307 272.955572 
L 1721.307 272.955572 
L 1759.513 355.221455 
L 1759.513 355.221455 
L 1778.616 395.165985 
L 1778.616 395.165985 
L 1797.719 432.231511 
L 1797.719 432.231511 
L 1816.822 462.310814 
L 1835.925 470.367834 
L 1835.925 470.367834 
L 1855.028 471.068731 
L 1855.028 471.068731 
L 1893.234 470.923883 
L 1893.234 470.923883 
L 1912.337 471.129783 
L 1912.337 471.129783 
L 1931.44 471.725934 
L 1931.44 471.725335 
L 1950.543 473.075654 
L 1950.543 473.075654 
L 1969.646 475.861883 
L 1969.646 475.861883 
L 1988.749 481.174572 
L 1988.749 481.174572 
L 2007.852 490.407136 
L 2007.852 490.407136 
L 2026.955 504.708781 
L 2026.955 504.708781 
L 2046.058 523.865228 
L 2046.058 523.865228 
L 2065.161 545.084263 
L 2065.161 545.084263 
L 2084.264 563.406937 
L 2084.264 563.406937 
L 2103.367 574.814615 
L 2103.367 574.814615 
" clip-path="url(#p5a4bd19b4f)" style="fill: none; stroke: #ff7f0e; stroke-width: 1.5; stroke-linecap: square"/>
   </g>
   <g id="line2d_48">
    <path d="M 899.878 545.130351 
L 899.878 545.129154 
L 918.981 542.550022 
L 938.084 534.944305 
L 957.187 524.031624 
L 976.29 512.093635 
L 995.393 500.900835 
L 1014.496 491.375583 
L 1033.599 483.768668 
L 1052.702 477.938836 
L 1052.702 477.940033 
L 1071.805 473.564067 
L 1071.805 473.565863 
L 1090.908 470.299001 
L 1090.908 470.299001 
L 1110.011 467.808454 
L 1110.011 467.808454 
L 1148.217 463.770666 
L 1148.217 463.771265 
L 1167.32 460.841983 
L 1167.32 460.842582 
L 1186.423 455.027114 
L 1186.423 455.029508 
L 1205.526 440.401656 
L 1205.526 440.405247 
L 1224.629 413.219911 
L 1224.629 413.225897 
L 1243.732 379.237493 
L 1262.835 342.807623 
L 1281.938 306.130553 
L 1301.041 270.301622 
L 1301.041 270.30222 
L 1320.144 236.18094 
L 1320.144 236.18094 
L 1339.247 204.341913 
L 1339.247 204.341913 
L 1358.35 175.296896 
L 1358.35 175.296896 
L 1377.453 149.425966 
L 1377.453 149.425966 
L 1396.556 126.994876 
L 1396.556 126.994876 
L 1415.659 108.14668 
L 1415.659 108.14668 
L 1434.762 92.917289 
L 1434.762 92.917289 
L 1453.865 81.253434 
L 1453.865 81.254033 
L 1472.968 73.050967 
L 1472.968 73.051566 
L 1492.071 68.193172 
L 1492.071 68.193771 
L 1511.174 66.587873 
L 1511.174 66.589071 
L 1530.277 68.193172 
L 1549.38 73.04977 
L 1568.483 81.252237 
L 1568.483 81.252237 
L 1587.586 92.917289 
L 1587.586 92.916691 
L 1606.689 108.14668 
L 1606.689 108.14668 
L 1625.792 126.994876 
L 1625.792 126.994278 
L 1644.895 149.425966 
L 1644.895 149.425966 
L 1663.998 175.296896 
L 1663.998 175.296896 
L 1683.101 204.341913 
L 1683.101 204.341913 
L 1702.204 236.181538 
L 1702.204 236.181538 
L 1721.307 270.303417 
L 1721.307 270.303417 
L 1740.41 306.136538 
L 1740.41 306.136538 
L 1759.513 342.820791 
L 1759.513 342.820791 
L 1778.616 379.241683 
L 1778.616 379.241683 
L 1797.719 413.218116 
L 1797.719 413.218116 
L 1816.822 440.401057 
L 1816.822 440.401057 
L 1835.925 455.027114 
L 1835.925 455.027114 
L 1855.028 460.841983 
L 1855.028 460.841983 
L 1874.131 463.771265 
L 1874.131 463.771265 
L 1912.337 467.808454 
L 1912.337 467.807855 
L 1931.44 470.298403 
L 1931.44 470.298403 
L 1950.543 473.563468 
L 1950.543 473.563468 
L 1969.646 477.93704 
L 1969.646 477.936441 
L 1988.749 483.771661 
L 1988.749 483.771661 
L 2007.852 491.381568 
L 2007.852 491.381568 
L 2026.955 500.908017 
L 2026.955 500.908017 
L 2046.058 512.101416 
L 2046.058 512.101416 
L 2065.161 524.038807 
L 2065.161 524.038807 
L 2084.264 534.95029 
L 2084.264 534.95029 
L 2103.367 542.553613 
L 2103.367 542.553613 
" clip-path="url(#p5a4bd19b4f)" style="fill: none; stroke: #2ca02c; stroke-width: 1.5; stroke-linecap: square"/>
   </g>
   <g id="line2d_49">
    <path d="M 899.878 566.192567 
L 899.878 566.207531 
L 918.981 561.090566 
L 918.981 561.100143 
L 938.084 546.931973 
L 938.084 546.958908 
L 976.29 511.357424 
L 976.29 511.367599 
L 995.393 495.966426 
L 995.393 495.977799 
L 1014.496 484.448017 
L 1014.496 484.491113 
L 1033.599 476.826738 
L 1033.599 476.848286 
L 1052.702 472.179033 
L 1052.702 472.199982 
L 1071.805 469.467023 
L 1071.805 469.490965 
L 1090.908 467.823417 
L 1090.908 467.868907 
L 1110.011 466.772372 
L 1110.011 466.84719 
L 1129.114 466.130731 
L 1129.114 465.966131 
L 1129.114 466.102599 
L 1148.217 465.433425 
L 1148.217 465.106021 
L 1148.217 465.387337 
L 1167.32 464.08191 
L 1167.32 463.865236 
L 1167.32 464.075326 
L 1186.423 461.426164 
L 1186.423 460.464301 
L 1186.423 461.469857 
L 1205.526 446.677405 
L 1205.526 455.349132 
L 1205.526 446.349402 
L 1224.629 424.688641 
L 1224.629 422.062822 
L 1224.629 423.550207 
L 1243.732 395.240204 
L 1243.732 391.063554 
L 1243.732 391.912292 
L 1262.835 356.185712 
L 1262.835 355.31842 
L 1262.835 355.345953 
L 1301.041 277.904346 
L 1301.041 277.969588 
L 1320.144 240.39051 
L 1339.247 205.395353 
L 1339.247 205.446828 
L 1358.35 173.538968 
L 1358.35 173.607801 
L 1377.453 145.457011 
L 1396.556 121.54093 
L 1396.556 121.550507 
L 1415.659 101.824843 
L 1415.659 101.824843 
L 1434.762 86.220763 
L 1434.762 86.221361 
L 1453.865 74.438396 
L 1453.865 74.438396 
L 1472.968 66.109636 
L 1472.968 66.109636 
L 1492.071 60.727515 
L 1492.071 60.727515 
L 1511.174 58.5117 
L 1511.174 58.514692 
L 1530.277 60.728113 
L 1530.277 60.727515 
L 1549.38 66.109636 
L 1549.38 66.109636 
L 1568.483 74.438396 
L 1568.483 74.438396 
L 1587.586 86.221361 
L 1587.586 86.221361 
L 1606.689 101.82604 
L 1606.689 101.82604 
L 1625.792 121.551105 
L 1644.895 145.534822 
L 1644.895 145.468383 
L 1663.998 173.644911 
L 1663.998 173.611392 
L 1683.101 205.419893 
L 1702.204 240.41086 
L 1702.204 240.233691 
L 1721.307 277.860054 
L 1721.307 277.38421 
L 1721.307 277.961208 
L 1740.41 316.204073 
L 1740.41 316.754136 
L 1759.513 354.03035 
L 1759.513 356.3551 
L 1759.513 355.272332 
L 1778.616 391.119817 
L 1778.616 393.751622 
L 1778.616 390.687069 
L 1797.719 420.935162 
L 1797.719 425.534984 
L 1816.822 454.363327 
L 1816.822 446.895276 
L 1816.822 452.748452 
L 1835.925 461.020948 
L 1835.925 461.632662 
L 1835.925 460.015991 
L 1855.028 463.991529 
L 1855.028 464.148947 
L 1855.028 463.767075 
L 1874.131 465.222737 
L 1874.131 465.42325 
L 1874.131 465.138941 
L 1931.44 467.881476 
L 1931.44 467.868907 
L 1950.543 469.531068 
L 1950.543 469.529272 
L 1969.646 472.271209 
L 1988.749 476.905746 
L 2007.852 484.522237 
L 2007.852 484.510865 
L 2026.955 495.940689 
L 2026.955 495.910163 
L 2046.058 511.41249 
L 2046.058 511.302956 
L 2065.161 529.264108 
L 2084.264 546.94574 
L 2103.367 561.090566 
L 2103.367 561.090566 
" clip-path="url(#p5a4bd19b4f)" style="fill: none; stroke: #d62728; stroke-width: 1.5; stroke-linecap: square"/>
   </g>
   <g id="line2d_50">
    <path d="M 899.878 570.80017 
L 899.878 570.258487 
L 918.981 565.052937 
L 918.981 565.200179 
L 918.981 564.833869 
L 938.084 552.698959 
L 938.084 552.257232 
L 957.187 535.665552 
L 957.187 536.768073 
L 976.29 518.334668 
L 976.29 519.167245 
L 995.393 503.5075 
L 995.393 504.687832 
L 1014.496 492.132743 
L 1014.496 491.219362 
L 1014.496 492.218933 
L 1033.599 482.964822 
L 1033.599 483.878801 
L 1052.702 477.280436 
L 1052.702 477.84666 
L 1071.805 473.552695 
L 1071.805 474.592967 
L 1090.908 471.603232 
L 1090.908 472.328071 
L 1110.011 470.126022 
L 1110.011 470.513281 
L 1129.114 468.839748 
L 1129.114 469.207853 
L 1148.217 468.022733 
L 1148.217 468.363904 
L 1167.32 467.254799 
L 1167.32 467.570233 
L 1186.423 464.347065 
L 1186.423 462.245572 
L 1205.526 454.638658 
L 1205.526 454.752382 
L 1205.526 452.755036 
L 1224.629 422.099932 
L 1224.629 424.377397 
L 1243.732 392.066118 
L 1243.732 389.926916 
L 1262.835 354.002817 
L 1262.835 351.443436 
L 1262.835 353.62693 
L 1281.938 312.996468 
L 1281.938 313.301726 
L 1281.938 312.588858 
L 1301.041 273.354204 
L 1301.041 272.684431 
L 1301.041 272.928638 
L 1320.144 235.404028 
L 1320.144 235.500992 
L 1320.144 235.073631 
L 1339.247 199.491899 
L 1339.247 201.125928 
L 1358.35 168.107168 
L 1358.35 169.896819 
L 1377.453 141.947739 
L 1377.453 142.893441 
L 1396.556 119.296385 
L 1396.556 119.999077 
L 1415.659 99.902315 
L 1415.659 99.94541 
L 1434.762 85.182287 
L 1434.762 84.9297 
L 1453.865 74.003253 
L 1453.865 74.066699 
L 1453.865 74.326468 
L 1472.968 66.112628 
L 1472.968 66.594457 
L 1492.071 61.45774 
L 1492.071 62.067658 
L 1511.174 59.5813 
L 1511.174 60.448593 
L 1530.277 60.655091 
L 1530.277 61.79951 
L 1549.38 64.967012 
L 1549.38 66.213783 
L 1568.483 72.681066 
L 1568.483 73.788375 
L 1587.586 83.320212 
L 1587.586 84.733976 
L 1606.689 98.728567 
L 1606.689 100.168668 
L 1625.792 118.020286 
L 1625.792 119.173683 
L 1644.895 141.642481 
L 1644.895 141.869329 
L 1663.998 169.072023 
L 1663.998 169.635255 
L 1683.101 199.394935 
L 1683.101 199.735507 
L 1683.101 199.541578 
L 1702.204 231.955209 
L 1702.204 233.198388 
L 1721.307 268.445532 
L 1721.307 269.141042 
L 1721.307 267.900257 
L 1740.41 306.997845 
L 1740.41 307.762188 
L 1740.41 307.549704 
L 1759.513 344.921087 
L 1759.513 342.774703 
L 1759.513 345.134169 
L 1778.616 390.244744 
L 1778.616 385.066129 
L 1797.719 421.723447 
L 1797.719 424.877781 
L 1797.719 421.597153 
L 1816.822 450.682871 
L 1816.822 451.933233 
L 1835.925 463.616241 
L 1835.925 459.588629 
L 1835.925 459.631126 
L 1855.028 467.476261 
L 1855.028 467.201529 
L 1874.131 467.921579 
L 1874.131 467.272157 
L 1893.234 469.320978 
L 1893.234 468.573993 
L 1912.337 470.590493 
L 1912.337 470.071554 
L 1931.44 472.593226 
L 1931.44 472.359793 
L 1931.44 472.426831 
L 1950.543 475.888817 
L 1950.543 475.76851 
L 1950.543 475.927124 
L 1969.646 479.917627 
L 1969.646 480.814847 
L 1988.749 486.378925 
L 1988.749 487.335999 
L 2007.852 495.750351 
L 2007.852 496.73855 
L 2026.955 508.115103 
L 2026.955 509.826943 
L 2046.058 523.958601 
L 2046.058 525.095239 
L 2046.058 524.970143 
L 2065.161 542.308209 
L 2065.161 543.611243 
L 2084.264 559.108183 
L 2084.264 558.378556 
L 2084.264 558.938795 
L 2103.367 568.880036 
L 2103.367 568.144424 
L 2103.367 568.817189 
" clip-path="url(#p5a4bd19b4f)" style="fill: none; stroke: #9467bd; stroke-width: 1.5; stroke-linecap: square"/>
   </g>
   <g id="patch_13">
    <path d="M 1511.174 647.08 
L 1511.174 21.6 
" style="fill: none; stroke: #000000; stroke-width: 0.8; stroke-linejoin: miter; stroke-linecap: square"/>
   </g>
   <g id="patch_14">
    <path d="M 2122.47 647.08 
L 2122.47 21.6 
" style="fill: none; stroke: #000000; stroke-width: 0.8; stroke-linejoin: miter; stroke-linecap: square"/>
   </g>
   <g id="patch_15">
    <path d="M 1511.174 647.08 
L 2122.47 647.08 
" style="fill: none; stroke: #000000; stroke-width: 0.8; stroke-linejoin: miter; stroke-linecap: square"/>
   </g>
   <g id="patch_16">
    <path d="M 1511.174 21.6 
L 2122.47 21.6 
" style="fill: none; stroke: #000000; stroke-width: 0.8; stroke-linejoin: miter; stroke-linecap: square"/>
   </g>
   <g id="legend_1">
    <g id="patch_17">
     <path d="M 1945.698125 184.38125 
L 2108.47 184.38125 
Q 2112.47 184.38125 2112.47 180.38125 
L 2112.47 35.6 
Q 2112.47 31.6 2108.47 31.6 
L 1945.698125 31.6 
Q 1941.698125 31.6 1941.698125 35.6 
L 1941.698125 180.38125 
Q 1941.698125 184.38125 1945.698125 184.38125 
z
" style="fill: #ffffff; opacity: 0.8; stroke: #cccccc; stroke-linejoin: miter"/>
    </g>
    <g id="line2d_51">
     <path d="M 1949.698125 47.796875 
L 1969.698125 47.796875 
L 1989.698125 47.796875 
" style="fill: none; stroke: #1f77b4; stroke-width: 1.5; stroke-linecap: square"/>
    </g>
    <g id="text_42">
     <!-- Exact Sol. -->
     <g transform="translate(2005.698125 54.796875) scale(0.2 -0.2)">
      <defs>
       <path id="DejaVuSans-45" d="M 628 4666 
L 3578 4666 
L 3578 4134 
L 1259 4134 
L 1259 2753 
L 3481 2753 
L 3481 2222 
L 1259 2222 
L 1259 531 
L 3634 531 
L 3634 0 
L 628 0 
L 628 4666 
z
" transform="scale(0.015625)"/>
       <path id="DejaVuSans-78" d="M 3513 3500 
L 2247 1797 
L 3578 0 
L 2900 0 
L 1881 1375 
L 863 0 
L 184 0 
L 1544 1831 
L 300 3500 
L 978 3500 
L 1906 2253 
L 2834 3500 
L 3513 3500 
z
" transform="scale(0.015625)"/>
       <path id="DejaVuSans-61" d="M 2194 1759 
Q 1497 1759 1228 1600 
Q 959 1441 959 1056 
Q 959 750 1161 570 
Q 1363 391 1709 391 
Q 2188 391 2477 730 
Q 2766 1069 2766 1631 
L 2766 1759 
L 2194 1759 
z
M 3341 1997 
L 3341 0 
L 2766 0 
L 2766 531 
Q 2569 213 2275 61 
Q 1981 -91 1556 -91 
Q 1019 -91 701 211 
Q 384 513 384 1019 
Q 384 1609 779 1909 
Q 1175 2209 1959 2209 
L 2766 2209 
L 2766 2266 
Q 2766 2663 2505 2880 
Q 2244 3097 1772 3097 
Q 1472 3097 1187 3025 
Q 903 2953 641 2809 
L 641 3341 
Q 956 3463 1253 3523 
Q 1550 3584 1831 3584 
Q 2591 3584 2966 3190 
Q 3341 2797 3341 1997 
z
" transform="scale(0.015625)"/>
       <path id="DejaVuSans-63" d="M 3122 3366 
L 3122 2828 
Q 2878 2963 2633 3030 
Q 2388 3097 2138 3097 
Q 1578 3097 1268 2742 
Q 959 2388 959 1747 
Q 959 1106 1268 751 
Q 1578 397 2138 397 
Q 2388 397 2633 464 
Q 2878 531 3122 666 
L 3122 134 
Q 2881 22 2623 -34 
Q 2366 -91 2075 -91 
Q 1284 -91 818 406 
Q 353 903 353 1747 
Q 353 2603 823 3093 
Q 1294 3584 2113 3584 
Q 2378 3584 2631 3529 
Q 2884 3475 3122 3366 
z
" transform="scale(0.015625)"/>
       <path id="DejaVuSans-53" d="M 3425 4513 
L 3425 3897 
Q 3066 4069 2747 4153 
Q 2428 4238 2131 4238 
Q 1616 4238 1336 4038 
Q 1056 3838 1056 3469 
Q 1056 3159 1242 3001 
Q 1428 2844 1947 2747 
L 2328 2669 
Q 3034 2534 3370 2195 
Q 3706 1856 3706 1288 
Q 3706 609 3251 259 
Q 2797 -91 1919 -91 
Q 1588 -91 1214 -16 
Q 841 59 441 206 
L 441 856 
Q 825 641 1194 531 
Q 1563 422 1919 422 
Q 2459 422 2753 634 
Q 3047 847 3047 1241 
Q 3047 1584 2836 1778 
Q 2625 1972 2144 2069 
L 1759 2144 
Q 1053 2284 737 2584 
Q 422 2884 422 3419 
Q 422 4038 858 4394 
Q 1294 4750 2059 4750 
Q 2388 4750 2728 4690 
Q 3069 4631 3425 4513 
z
" transform="scale(0.015625)"/>
       <path id="DejaVuSans-6c" d="M 603 4863 
L 1178 4863 
L 1178 0 
L 603 0 
L 603 4863 
z
" transform="scale(0.015625)"/>
      </defs>
      <use xlink:href="#DejaVuSans-45"/>
      <use xlink:href="#DejaVuSans-78" x="63.183594"/>
      <use xlink:href="#DejaVuSans-61" x="122.363281"/>
      <use xlink:href="#DejaVuSans-63" x="183.642578"/>
      <use xlink:href="#DejaVuSans-74" x="238.623047"/>
      <use xlink:href="#DejaVuSans-20" x="277.832031"/>
      <use xlink:href="#DejaVuSans-53" x="309.619141"/>
      <use xlink:href="#DejaVuSans-6f" x="373.095703"/>
      <use xlink:href="#DejaVuSans-6c" x="434.277344"/>
      <use xlink:href="#DejaVuSans-2e" x="462.060547"/>
     </g>
    </g>
    <g id="line2d_52">
     <path d="M 1949.698125 77.153125 
L 1969.698125 77.153125 
L 1989.698125 77.153125 
" style="fill: none; stroke: #ff7f0e; stroke-width: 1.5; stroke-linecap: square"/>
    </g>
    <g id="text_43">
     <!-- N -->
     <g transform="translate(2005.698125 84.153125) scale(0.2 -0.2)">
      <defs>
       <path id="DejaVuSans-4e" d="M 628 4666 
L 1478 4666 
L 3547 763 
L 3547 4666 
L 4159 4666 
L 4159 0 
L 3309 0 
L 1241 3903 
L 1241 0 
L 628 0 
L 628 4666 
z
" transform="scale(0.015625)"/>
      </defs>
      <use xlink:href="#DejaVuSans-4e"/>
     </g>
    </g>
    <g id="line2d_53">
     <path d="M 1949.698125 106.509375 
L 1969.698125 106.509375 
L 1989.698125 106.509375 
" style="fill: none; stroke: #2ca02c; stroke-width: 1.5; stroke-linecap: square"/>
    </g>
    <g id="text_44">
     <!-- LDA -->
     <g transform="translate(2005.698125 113.509375) scale(0.2 -0.2)">
      <defs>
       <path id="DejaVuSans-4c" d="M 628 4666 
L 1259 4666 
L 1259 531 
L 3531 531 
L 3531 0 
L 628 0 
L 628 4666 
z
" transform="scale(0.015625)"/>
       <path id="DejaVuSans-44" d="M 1259 4147 
L 1259 519 
L 2022 519 
Q 2988 519 3436 956 
Q 3884 1394 3884 2338 
Q 3884 3275 3436 3711 
Q 2988 4147 2022 4147 
L 1259 4147 
z
M 628 4666 
L 1925 4666 
Q 3281 4666 3915 4102 
Q 4550 3538 4550 2338 
Q 4550 1131 3912 565 
Q 3275 0 1925 0 
L 628 0 
L 628 4666 
z
" transform="scale(0.015625)"/>
       <path id="DejaVuSans-41" d="M 2188 4044 
L 1331 1722 
L 3047 1722 
L 2188 4044 
z
M 1831 4666 
L 2547 4666 
L 4325 0 
L 3669 0 
L 3244 1197 
L 1141 1197 
L 716 0 
L 50 0 
L 1831 4666 
z
" transform="scale(0.015625)"/>
      </defs>
      <use xlink:href="#DejaVuSans-4c"/>
      <use xlink:href="#DejaVuSans-44" x="55.712891"/>
      <use xlink:href="#DejaVuSans-41" x="130.964844"/>
     </g>
    </g>
    <g id="line2d_54">
     <path d="M 1949.698125 135.865625 
L 1969.698125 135.865625 
L 1989.698125 135.865625 
" style="fill: none; stroke: #d62728; stroke-width: 1.5; stroke-linecap: square"/>
    </g>
    <g id="text_45">
     <!-- B -->
     <g transform="translate(2005.698125 142.865625) scale(0.2 -0.2)">
      <defs>
       <path id="DejaVuSans-42" d="M 1259 2228 
L 1259 519 
L 2272 519 
Q 2781 519 3026 730 
Q 3272 941 3272 1375 
Q 3272 1813 3026 2020 
Q 2781 2228 2272 2228 
L 1259 2228 
z
M 1259 4147 
L 1259 2741 
L 2194 2741 
Q 2656 2741 2882 2914 
Q 3109 3088 3109 3444 
Q 3109 3797 2882 3972 
Q 2656 4147 2194 4147 
L 1259 4147 
z
M 628 4666 
L 2241 4666 
Q 2963 4666 3353 4366 
Q 3744 4066 3744 3513 
Q 3744 3084 3544 2831 
Q 3344 2578 2956 2516 
Q 3422 2416 3680 2098 
Q 3938 1781 3938 1306 
Q 3938 681 3513 340 
Q 3088 0 2303 0 
L 628 0 
L 628 4666 
z
" transform="scale(0.015625)"/>
      </defs>
      <use xlink:href="#DejaVuSans-42"/>
     </g>
    </g>
    <g id="line2d_55">
     <path d="M 1949.698125 165.221875 
L 1969.698125 165.221875 
L 1989.698125 165.221875 
" style="fill: none; stroke: #9467bd; stroke-width: 1.5; stroke-linecap: square"/>
    </g>
    <g id="text_46">
     <!-- Bx -->
     <g transform="translate(2005.698125 172.221875) scale(0.2 -0.2)">
      <use xlink:href="#DejaVuSans-42"/>
      <use xlink:href="#DejaVuSans-78" x="68.603516"/>
     </g>
    </g>
   </g>
  </g>
 </g>
 <defs>
  <clipPath id="p3e307f0141">
   <rect x="84.71" y="21.6" width="611.296" height="625.48"/>
  </clipPath>
  <clipPath id="p25541530ea">
   <rect x="797.942" y="21.6" width="611.296" height="625.48"/>
  </clipPath>
  <clipPath id="p5a4bd19b4f">
   <rect x="1511.174" y="21.6" width="611.296" height="625.48"/>
  </clipPath>
 </defs>
</svg>
