<?xml version="1.0" encoding="utf-8" standalone="no"?>
<!DOCTYPE svg PUBLIC "-//W3C//DTD SVG 1.1//EN"
  "http://www.w3.org/Graphics/SVG/1.1/DTD/svg11.dtd">
<svg xmlns:xlink="http://www.w3.org/1999/xlink" width="2160pt" height="720pt" viewBox="0 0 2160 720" xmlns="http://www.w3.org/2000/svg" version="1.1">
 <metadata>
  <rdf:RDF xmlns:dc="http://purl.org/dc/elements/1.1/" xmlns:cc="http://creativecommons.org/ns#" xmlns:rdf="http://www.w3.org/1999/02/22-rdf-syntax-ns#">
   <cc:Work>
    <dc:type rdf:resource="http://purl.org/dc/dcmitype/StillImage"/>
    <dc:date>2023-06-30T01:43:35.063464</dc:date>
    <dc:format>image/svg+xml</dc:format>
    <dc:creator>
     <cc:Agent>
      <dc:title>Matplotlib v3.7.1, https://matplotlib.org/</dc:title>
     </cc:Agent>
    </dc:creator>
   </cc:Work>
  </rdf:RDF>
 </metadata>
 <defs>
  <style type="text/css">*{stroke-linejoin: round; stroke-linecap: butt}</style>
 </defs>
 <g id="figure_1">
  <g id="patch_1">
   <path d="M 0 720 
L 2160 720 
L 2160 0 
L 0 0 
z
" style="fill: #ffffff"/>
  </g>
  <g id="axes_1">
   <g id="patch_2">
    <path d="M 84.71 647.08 
L 696.006 647.08 
L 696.006 21.6 
L 84.71 21.6 
z
" style="fill: #ffffff"/>
   </g>
   <g id="matplotlib.axis_1">
    <g id="xtick_1">
     <g id="line2d_1">
      <defs>
       <path id="m2cd7c4551a" d="M 0 0 
L 0 3.5 
" style="stroke: #000000; stroke-width: 0.8"/>
      </defs>
      <g>
       <use xlink:href="#m2cd7c4551a" x="84.71" y="647.08" style="stroke: #000000; stroke-width: 0.8"/>
      </g>
     </g>
     <g id="text_1">
      <!-- 1.0 -->
      <g transform="translate(68.806875 669.276875) scale(0.2 -0.2)">
       <defs>
        <path id="DejaVuSans-31" d="M 794 531 
L 1825 531 
L 1825 4091 
L 703 3866 
L 703 4441 
L 1819 4666 
L 2450 4666 
L 2450 531 
L 3481 531 
L 3481 0 
L 794 0 
L 794 531 
z
" transform="scale(0.015625)"/>
        <path id="DejaVuSans-2e" d="M 684 794 
L 1344 794 
L 1344 0 
L 684 0 
L 684 794 
z
" transform="scale(0.015625)"/>
        <path id="DejaVuSans-30" d="M 2034 4250 
Q 1547 4250 1301 3770 
Q 1056 3291 1056 2328 
Q 1056 1369 1301 889 
Q 1547 409 2034 409 
Q 2525 409 2770 889 
Q 3016 1369 3016 2328 
Q 3016 3291 2770 3770 
Q 2525 4250 2034 4250 
z
M 2034 4750 
Q 2819 4750 3233 4129 
Q 3647 3509 3647 2328 
Q 3647 1150 3233 529 
Q 2819 -91 2034 -91 
Q 1250 -91 836 529 
Q 422 1150 422 2328 
Q 422 3509 836 4129 
Q 1250 4750 2034 4750 
z
" transform="scale(0.015625)"/>
       </defs>
       <use xlink:href="#DejaVuSans-31"/>
       <use xlink:href="#DejaVuSans-2e" x="63.623047"/>
       <use xlink:href="#DejaVuSans-30" x="95.410156"/>
      </g>
     </g>
    </g>
    <g id="xtick_2">
     <g id="line2d_2">
      <g>
       <use xlink:href="#m2cd7c4551a" x="206.9692" y="647.08" style="stroke: #000000; stroke-width: 0.8"/>
      </g>
     </g>
     <g id="text_2">
      <!-- 1.2 -->
      <g transform="translate(191.066075 669.276875) scale(0.2 -0.2)">
       <defs>
        <path id="DejaVuSans-32" d="M 1228 531 
L 3431 531 
L 3431 0 
L 469 0 
L 469 531 
Q 828 903 1448 1529 
Q 2069 2156 2228 2338 
Q 2531 2678 2651 2914 
Q 2772 3150 2772 3378 
Q 2772 3750 2511 3984 
Q 2250 4219 1831 4219 
Q 1534 4219 1204 4116 
Q 875 4013 500 3803 
L 500 4441 
Q 881 4594 1212 4672 
Q 1544 4750 1819 4750 
Q 2544 4750 2975 4387 
Q 3406 4025 3406 3419 
Q 3406 3131 3298 2873 
Q 3191 2616 2906 2266 
Q 2828 2175 2409 1742 
Q 1991 1309 1228 531 
z
" transform="scale(0.015625)"/>
       </defs>
       <use xlink:href="#DejaVuSans-31"/>
       <use xlink:href="#DejaVuSans-2e" x="63.623047"/>
       <use xlink:href="#DejaVuSans-32" x="95.410156"/>
      </g>
     </g>
    </g>
    <g id="xtick_3">
     <g id="line2d_3">
      <g>
       <use xlink:href="#m2cd7c4551a" x="329.2284" y="647.08" style="stroke: #000000; stroke-width: 0.8"/>
      </g>
     </g>
     <g id="text_3">
      <!-- 1.4 -->
      <g transform="translate(313.325275 669.276875) scale(0.2 -0.2)">
       <defs>
        <path id="DejaVuSans-34" d="M 2419 4116 
L 825 1625 
L 2419 1625 
L 2419 4116 
z
M 2253 4666 
L 3047 4666 
L 3047 1625 
L 3713 1625 
L 3713 1100 
L 3047 1100 
L 3047 0 
L 2419 0 
L 2419 1100 
L 313 1100 
L 313 1709 
L 2253 4666 
z
" transform="scale(0.015625)"/>
       </defs>
       <use xlink:href="#DejaVuSans-31"/>
       <use xlink:href="#DejaVuSans-2e" x="63.623047"/>
       <use xlink:href="#DejaVuSans-34" x="95.410156"/>
      </g>
     </g>
    </g>
    <g id="xtick_4">
     <g id="line2d_4">
      <g>
       <use xlink:href="#m2cd7c4551a" x="451.4876" y="647.08" style="stroke: #000000; stroke-width: 0.8"/>
      </g>
     </g>
     <g id="text_4">
      <!-- 1.6 -->
      <g transform="translate(435.584475 669.276875) scale(0.2 -0.2)">
       <defs>
        <path id="DejaVuSans-36" d="M 2113 2584 
Q 1688 2584 1439 2293 
Q 1191 2003 1191 1497 
Q 1191 994 1439 701 
Q 1688 409 2113 409 
Q 2538 409 2786 701 
Q 3034 994 3034 1497 
Q 3034 2003 2786 2293 
Q 2538 2584 2113 2584 
z
M 3366 4563 
L 3366 3988 
Q 3128 4100 2886 4159 
Q 2644 4219 2406 4219 
Q 1781 4219 1451 3797 
Q 1122 3375 1075 2522 
Q 1259 2794 1537 2939 
Q 1816 3084 2150 3084 
Q 2853 3084 3261 2657 
Q 3669 2231 3669 1497 
Q 3669 778 3244 343 
Q 2819 -91 2113 -91 
Q 1303 -91 875 529 
Q 447 1150 447 2328 
Q 447 3434 972 4092 
Q 1497 4750 2381 4750 
Q 2619 4750 2861 4703 
Q 3103 4656 3366 4563 
z
" transform="scale(0.015625)"/>
       </defs>
       <use xlink:href="#DejaVuSans-31"/>
       <use xlink:href="#DejaVuSans-2e" x="63.623047"/>
       <use xlink:href="#DejaVuSans-36" x="95.410156"/>
      </g>
     </g>
    </g>
    <g id="xtick_5">
     <g id="line2d_5">
      <g>
       <use xlink:href="#m2cd7c4551a" x="573.7468" y="647.08" style="stroke: #000000; stroke-width: 0.8"/>
      </g>
     </g>
     <g id="text_5">
      <!-- 1.8 -->
      <g transform="translate(557.843675 669.276875) scale(0.2 -0.2)">
       <defs>
        <path id="DejaVuSans-38" d="M 2034 2216 
Q 1584 2216 1326 1975 
Q 1069 1734 1069 1313 
Q 1069 891 1326 650 
Q 1584 409 2034 409 
Q 2484 409 2743 651 
Q 3003 894 3003 1313 
Q 3003 1734 2745 1975 
Q 2488 2216 2034 2216 
z
M 1403 2484 
Q 997 2584 770 2862 
Q 544 3141 544 3541 
Q 544 4100 942 4425 
Q 1341 4750 2034 4750 
Q 2731 4750 3128 4425 
Q 3525 4100 3525 3541 
Q 3525 3141 3298 2862 
Q 3072 2584 2669 2484 
Q 3125 2378 3379 2068 
Q 3634 1759 3634 1313 
Q 3634 634 3220 271 
Q 2806 -91 2034 -91 
Q 1263 -91 848 271 
Q 434 634 434 1313 
Q 434 1759 690 2068 
Q 947 2378 1403 2484 
z
M 1172 3481 
Q 1172 3119 1398 2916 
Q 1625 2713 2034 2713 
Q 2441 2713 2670 2916 
Q 2900 3119 2900 3481 
Q 2900 3844 2670 4047 
Q 2441 4250 2034 4250 
Q 1625 4250 1398 4047 
Q 1172 3844 1172 3481 
z
" transform="scale(0.015625)"/>
       </defs>
       <use xlink:href="#DejaVuSans-31"/>
       <use xlink:href="#DejaVuSans-2e" x="63.623047"/>
       <use xlink:href="#DejaVuSans-38" x="95.410156"/>
      </g>
     </g>
    </g>
    <g id="xtick_6">
     <g id="line2d_6">
      <g>
       <use xlink:href="#m2cd7c4551a" x="696.006" y="647.08" style="stroke: #000000; stroke-width: 0.8"/>
      </g>
     </g>
     <g id="text_6">
      <!-- 2.0 -->
      <g transform="translate(680.102875 669.276875) scale(0.2 -0.2)">
       <use xlink:href="#DejaVuSans-32"/>
       <use xlink:href="#DejaVuSans-2e" x="63.623047"/>
       <use xlink:href="#DejaVuSans-30" x="95.410156"/>
      </g>
     </g>
    </g>
    <g id="text_7">
     <!-- Position $x$ -->
     <g transform="translate(341.958 692.633125) scale(0.2 -0.2)">
      <defs>
       <path id="DejaVuSans-50" d="M 1259 4147 
L 1259 2394 
L 2053 2394 
Q 2494 2394 2734 2622 
Q 2975 2850 2975 3272 
Q 2975 3691 2734 3919 
Q 2494 4147 2053 4147 
L 1259 4147 
z
M 628 4666 
L 2053 4666 
Q 2838 4666 3239 4311 
Q 3641 3956 3641 3272 
Q 3641 2581 3239 2228 
Q 2838 1875 2053 1875 
L 1259 1875 
L 1259 0 
L 628 0 
L 628 4666 
z
" transform="scale(0.015625)"/>
       <path id="DejaVuSans-6f" d="M 1959 3097 
Q 1497 3097 1228 2736 
Q 959 2375 959 1747 
Q 959 1119 1226 758 
Q 1494 397 1959 397 
Q 2419 397 2687 759 
Q 2956 1122 2956 1747 
Q 2956 2369 2687 2733 
Q 2419 3097 1959 3097 
z
M 1959 3584 
Q 2709 3584 3137 3096 
Q 3566 2609 3566 1747 
Q 3566 888 3137 398 
Q 2709 -91 1959 -91 
Q 1206 -91 779 398 
Q 353 888 353 1747 
Q 353 2609 779 3096 
Q 1206 3584 1959 3584 
z
" transform="scale(0.015625)"/>
       <path id="DejaVuSans-73" d="M 2834 3397 
L 2834 2853 
Q 2591 2978 2328 3040 
Q 2066 3103 1784 3103 
Q 1356 3103 1142 2972 
Q 928 2841 928 2578 
Q 928 2378 1081 2264 
Q 1234 2150 1697 2047 
L 1894 2003 
Q 2506 1872 2764 1633 
Q 3022 1394 3022 966 
Q 3022 478 2636 193 
Q 2250 -91 1575 -91 
Q 1294 -91 989 -36 
Q 684 19 347 128 
L 347 722 
Q 666 556 975 473 
Q 1284 391 1588 391 
Q 1994 391 2212 530 
Q 2431 669 2431 922 
Q 2431 1156 2273 1281 
Q 2116 1406 1581 1522 
L 1381 1569 
Q 847 1681 609 1914 
Q 372 2147 372 2553 
Q 372 3047 722 3315 
Q 1072 3584 1716 3584 
Q 2034 3584 2315 3537 
Q 2597 3491 2834 3397 
z
" transform="scale(0.015625)"/>
       <path id="DejaVuSans-69" d="M 603 3500 
L 1178 3500 
L 1178 0 
L 603 0 
L 603 3500 
z
M 603 4863 
L 1178 4863 
L 1178 4134 
L 603 4134 
L 603 4863 
z
" transform="scale(0.015625)"/>
       <path id="DejaVuSans-74" d="M 1172 4494 
L 1172 3500 
L 2356 3500 
L 2356 3053 
L 1172 3053 
L 1172 1153 
Q 1172 725 1289 603 
Q 1406 481 1766 481 
L 2356 481 
L 2356 0 
L 1766 0 
Q 1100 0 847 248 
Q 594 497 594 1153 
L 594 3053 
L 172 3053 
L 172 3500 
L 594 3500 
L 594 4494 
L 1172 4494 
z
" transform="scale(0.015625)"/>
       <path id="DejaVuSans-6e" d="M 3513 2113 
L 3513 0 
L 2938 0 
L 2938 2094 
Q 2938 2591 2744 2837 
Q 2550 3084 2163 3084 
Q 1697 3084 1428 2787 
Q 1159 2491 1159 1978 
L 1159 0 
L 581 0 
L 581 3500 
L 1159 3500 
L 1159 2956 
Q 1366 3272 1645 3428 
Q 1925 3584 2291 3584 
Q 2894 3584 3203 3211 
Q 3513 2838 3513 2113 
z
" transform="scale(0.015625)"/>
       <path id="DejaVuSans-20" transform="scale(0.015625)"/>
       <path id="DejaVuSans-Oblique-78" d="M 3841 3500 
L 2234 1784 
L 3219 0 
L 2559 0 
L 1819 1388 
L 531 0 
L -166 0 
L 1556 1844 
L 641 3500 
L 1300 3500 
L 1972 2234 
L 3144 3500 
L 3841 3500 
z
" transform="scale(0.015625)"/>
      </defs>
      <use xlink:href="#DejaVuSans-50" transform="translate(0 0.015625)"/>
      <use xlink:href="#DejaVuSans-6f" transform="translate(60.302734 0.015625)"/>
      <use xlink:href="#DejaVuSans-73" transform="translate(121.484375 0.015625)"/>
      <use xlink:href="#DejaVuSans-69" transform="translate(173.583984 0.015625)"/>
      <use xlink:href="#DejaVuSans-74" transform="translate(201.367188 0.015625)"/>
      <use xlink:href="#DejaVuSans-69" transform="translate(240.576172 0.015625)"/>
      <use xlink:href="#DejaVuSans-6f" transform="translate(268.359375 0.015625)"/>
      <use xlink:href="#DejaVuSans-6e" transform="translate(329.541016 0.015625)"/>
      <use xlink:href="#DejaVuSans-20" transform="translate(392.919922 0.015625)"/>
      <use xlink:href="#DejaVuSans-Oblique-78" transform="translate(424.707031 0.015625)"/>
     </g>
    </g>
   </g>
   <g id="matplotlib.axis_2">
    <g id="ytick_1">
     <g id="line2d_7">
      <defs>
       <path id="md2f1105303" d="M 0 0 
L -3.5 0 
" style="stroke: #000000; stroke-width: 0.8"/>
      </defs>
      <g>
       <use xlink:href="#md2f1105303" x="84.71" y="647.08" style="stroke: #000000; stroke-width: 0.8"/>
      </g>
     </g>
     <g id="text_8">
      <!-- 0.0 -->
      <g transform="translate(45.90375 654.678437) scale(0.2 -0.2)">
       <use xlink:href="#DejaVuSans-30"/>
       <use xlink:href="#DejaVuSans-2e" x="63.623047"/>
       <use xlink:href="#DejaVuSans-30" x="95.410156"/>
      </g>
     </g>
    </g>
    <g id="ytick_2">
     <g id="line2d_8">
      <g>
       <use xlink:href="#md2f1105303" x="84.71" y="527.227545" style="stroke: #000000; stroke-width: 0.8"/>
      </g>
     </g>
     <g id="text_9">
      <!-- 0.2 -->
      <g transform="translate(45.90375 534.825982) scale(0.2 -0.2)">
       <use xlink:href="#DejaVuSans-30"/>
       <use xlink:href="#DejaVuSans-2e" x="63.623047"/>
       <use xlink:href="#DejaVuSans-32" x="95.410156"/>
      </g>
     </g>
    </g>
    <g id="ytick_3">
     <g id="line2d_9">
      <g>
       <use xlink:href="#md2f1105303" x="84.71" y="407.37509" style="stroke: #000000; stroke-width: 0.8"/>
      </g>
     </g>
     <g id="text_10">
      <!-- 0.4 -->
      <g transform="translate(45.90375 414.973527) scale(0.2 -0.2)">
       <use xlink:href="#DejaVuSans-30"/>
       <use xlink:href="#DejaVuSans-2e" x="63.623047"/>
       <use xlink:href="#DejaVuSans-34" x="95.410156"/>
      </g>
     </g>
    </g>
    <g id="ytick_4">
     <g id="line2d_10">
      <g>
       <use xlink:href="#md2f1105303" x="84.71" y="287.522635" style="stroke: #000000; stroke-width: 0.8"/>
      </g>
     </g>
     <g id="text_11">
      <!-- 0.6 -->
      <g transform="translate(45.90375 295.121072) scale(0.2 -0.2)">
       <use xlink:href="#DejaVuSans-30"/>
       <use xlink:href="#DejaVuSans-2e" x="63.623047"/>
       <use xlink:href="#DejaVuSans-36" x="95.410156"/>
      </g>
     </g>
    </g>
    <g id="ytick_5">
     <g id="line2d_11">
      <g>
       <use xlink:href="#md2f1105303" x="84.71" y="167.67018" style="stroke: #000000; stroke-width: 0.8"/>
      </g>
     </g>
     <g id="text_12">
      <!-- 0.8 -->
      <g transform="translate(45.90375 175.268617) scale(0.2 -0.2)">
       <use xlink:href="#DejaVuSans-30"/>
       <use xlink:href="#DejaVuSans-2e" x="63.623047"/>
       <use xlink:href="#DejaVuSans-38" x="95.410156"/>
      </g>
     </g>
    </g>
    <g id="ytick_6">
     <g id="line2d_12">
      <g>
       <use xlink:href="#md2f1105303" x="84.71" y="47.817725" style="stroke: #000000; stroke-width: 0.8"/>
      </g>
     </g>
     <g id="text_13">
      <!-- 1.0 -->
      <g transform="translate(45.90375 55.416162) scale(0.2 -0.2)">
       <use xlink:href="#DejaVuSans-31"/>
       <use xlink:href="#DejaVuSans-2e" x="63.623047"/>
       <use xlink:href="#DejaVuSans-30" x="95.410156"/>
      </g>
     </g>
    </g>
    <g id="text_14">
     <!-- $\rho$ -->
     <g transform="translate(37.70375 340.74) rotate(-90) scale(0.2 -0.2)">
      <defs>
       <path id="DejaVuSans-Oblique-3c1" d="M 1203 2875 
Q 1453 3194 1981 3475 
Q 2188 3584 2756 3584 
Q 3394 3584 3694 3078 
Q 3994 2572 3834 1747 
Q 3672 922 3175 415 
Q 2678 -91 2041 -91 
Q 1656 -91 1409 63 
Q 1163 213 1044 525 
L 681 -1331 
L 103 -1331 
L 697 1716 
Q 838 2438 1203 2875 
z
M 3238 1747 
Q 3359 2381 3169 2744 
Q 2978 3103 2522 3103 
Q 2066 3103 1734 2744 
Q 1403 2381 1281 1747 
Q 1156 1113 1347 750 
Q 1538 391 1994 391 
Q 2450 391 2781 750 
Q 3113 1113 3238 1747 
z
" transform="scale(0.015625)"/>
      </defs>
      <use xlink:href="#DejaVuSans-Oblique-3c1"/>
     </g>
    </g>
   </g>
   <g id="line2d_13">
    <path d="M -1 47.817725 
L 218.431 47.817725 
L 218.431 47.817725 
L 237.534 65.087545 
L 237.534 65.087545 
L 256.637 116.455965 
L 256.637 116.455965 
L 275.74 164.709186 
L 275.74 164.709186 
L 294.843 209.944651 
L 294.843 209.944651 
L 313.946 252.259806 
L 313.946 252.259806 
L 333.049 291.752096 
L 333.049 291.752096 
L 352.152 328.518967 
L 352.152 328.518967 
L 371.255 359.620443 
L 371.255 359.620443 
L 485.873 359.620443 
L 485.873 359.620443 
L 504.976 509.366084 
L 504.976 509.366084 
L 600.491 509.366084 
L 600.491 509.366084 
L 619.594 572.172216 
L 619.594 572.172216 
L 676.903 572.172216 
L 676.903 572.172216 
" clip-path="url(#p0ddd5c7ae3)" style="fill: none; stroke: #1f77b4; stroke-width: 1.5; stroke-linecap: square"/>
   </g>
   <g id="line2d_14">
    <path d="M -1 67.945693 
L 8.298 63.613679 
L 8.298 63.613679 
L 27.401 57.498207 
L 27.401 57.498207 
L 46.504 53.634164 
L 46.504 53.634164 
L 65.607 51.539143 
L 65.607 51.539143 
L 84.71 50.881153 
L 84.71 50.881153 
L 103.813 51.539143 
L 103.813 51.539143 
L 122.916 53.634164 
L 122.916 53.634164 
L 142.019 57.498207 
L 142.019 57.498207 
L 161.122 63.613679 
L 161.122 63.613679 
L 180.225 72.513922 
L 180.225 72.513922 
L 199.328 84.678946 
L 199.328 84.678946 
L 218.431 100.440743 
L 218.431 100.440743 
L 237.534 119.928752 
L 237.534 119.928752 
L 256.637 143.053684 
L 256.637 143.053684 
L 275.74 169.529091 
L 275.74 169.529091 
L 294.843 198.913917 
L 294.843 198.913917 
L 313.946 230.662832 
L 313.946 230.662832 
L 333.049 264.009381 
L 333.049 264.009381 
L 352.152 298.632957 
L 352.152 298.632957 
L 371.255 331.866845 
L 371.255 331.866845 
L 390.358 360.556526 
L 390.358 360.556526 
L 409.461 372.713161 
L 409.461 372.713161 
L 428.564 384.334055 
L 428.564 384.334055 
L 447.667 402.836277 
L 447.667 402.836277 
L 466.77 427.005723 
L 466.77 427.005124 
L 485.873 452.524109 
L 485.873 452.524109 
L 504.976 475.100716 
L 504.976 475.100716 
L 524.079 492.351679 
L 524.079 492.351679 
L 543.182 504.233252 
L 543.182 504.233252 
L 562.285 512.395804 
L 562.285 512.395804 
L 581.388 519.183048 
L 581.388 519.183048 
L 600.491 526.709782 
L 600.491 526.709782 
L 619.594 536.081046 
L 619.594 536.081046 
L 638.697 546.785069 
L 638.697 546.785069 
L 657.8 556.750201 
L 657.8 556.750201 
L 676.903 563.555423 
L 676.903 563.555423 
" clip-path="url(#p0ddd5c7ae3)" style="fill: none; stroke: #ff7f0e; stroke-width: 1.5; stroke-linecap: square"/>
   </g>
   <g id="line2d_15">
    <path d="M -1 79.377689 
L 8.298 74.788123 
L 8.298 74.788123 
L 27.401 67.631732 
L 27.401 67.631732 
L 46.504 62.632687 
L 46.504 62.632687 
L 65.607 59.688511 
L 65.607 59.68911 
L 84.71 58.718305 
L 84.71 58.719504 
L 103.813 59.688511 
L 122.916 62.632087 
L 142.019 67.631133 
L 142.019 67.631133 
L 161.122 74.788123 
L 161.122 74.787523 
L 180.225 84.217514 
L 180.225 84.216915 
L 199.328 96.025378 
L 199.328 96.025378 
L 218.431 110.290817 
L 218.431 110.290817 
L 237.534 127.047988 
L 237.534 127.047988 
L 256.637 146.280112 
L 256.637 146.280112 
L 275.74 167.936851 
L 275.74 167.936851 
L 294.843 191.967868 
L 294.843 191.967868 
L 313.946 218.514587 
L 313.946 218.514587 
L 333.049 247.807127 
L 333.049 247.807127 
L 352.152 279.941368 
L 352.152 279.941368 
L 371.255 313.562978 
L 371.255 313.562978 
L 390.358 344.797127 
L 390.358 344.797127 
L 409.461 368.271429 
L 409.461 368.271429 
L 428.564 387.316583 
L 428.564 387.316583 
L 447.667 406.9604 
L 447.667 406.959801 
L 466.77 427.830308 
L 466.77 427.830308 
L 485.873 449.01423 
L 485.873 449.013631 
L 504.976 468.880973 
L 504.976 468.880373 
L 524.079 486.088789 
L 524.079 486.088789 
L 543.182 499.957516 
L 543.182 499.957516 
L 562.285 510.57884 
L 562.285 510.57884 
L 581.388 518.652701 
L 581.388 518.652102 
L 600.491 525.161888 
L 600.491 525.161888 
L 619.594 530.971136 
L 619.594 530.971136 
L 638.697 536.428618 
L 638.697 536.428618 
L 657.8 541.099268 
L 657.8 541.099268 
L 676.903 543.914602 
L 676.903 543.914602 
" clip-path="url(#p0ddd5c7ae3)" style="fill: none; stroke: #2ca02c; stroke-width: 1.5; stroke-linecap: square"/>
   </g>
   <g id="line2d_16">
    <path d="M -1 75.50032 
L 8.298 70.773665 
L 8.298 70.773665 
L 27.401 63.52379 
L 27.401 63.52379 
L 46.504 58.441446 
L 46.504 58.441446 
L 65.607 55.191647 
L 65.607 55.191647 
L 84.71 53.882858 
L 84.71 53.884656 
L 103.813 55.192246 
L 103.813 55.191647 
L 122.916 58.441446 
L 122.916 58.441446 
L 142.019 63.52319 
L 142.019 63.52319 
L 161.122 70.773665 
L 161.122 70.773665 
L 180.225 80.485309 
L 180.225 80.485309 
L 199.328 92.947567 
L 218.431 108.398946 
L 218.431 108.34681 
L 237.534 126.958098 
L 237.534 126.941918 
L 256.637 148.579481 
L 256.637 148.468618 
L 275.74 173.144441 
L 275.74 173.108485 
L 294.843 200.484583 
L 294.843 200.116037 
L 294.843 200.472598 
L 313.946 229.782516 
L 313.946 230.982239 
L 333.049 260.75299 
L 333.049 261.427759 
L 333.049 260.111779 
L 352.152 292.654118 
L 352.152 293.904179 
L 352.152 293.023862 
L 371.255 323.321365 
L 371.255 320.749331 
L 371.255 323.171549 
L 390.358 352.716378 
L 390.358 347.563321 
L 390.358 349.771004 
L 409.461 366.972228 
L 409.461 365.851008 
L 428.564 382.675297 
L 428.564 382.112589 
L 428.564 382.213865 
L 447.667 402.557021 
L 447.667 402.287952 
L 466.77 426.106231 
L 466.77 425.980386 
L 485.873 450.382945 
L 485.873 450.330809 
L 504.976 472.293172 
L 504.976 472.2704 
L 524.079 489.765263 
L 524.079 489.758671 
L 543.182 502.280256 
L 562.285 510.596818 
L 600.491 522.887088 
L 600.491 522.86971 
L 619.594 530.305356 
L 619.594 530.235242 
L 638.697 538.841847 
L 657.8 547.62883 
L 676.903 555.404258 
L 676.903 555.404258 
" clip-path="url(#p0ddd5c7ae3)" style="fill: none; stroke: #d62728; stroke-width: 1.5; stroke-linecap: square"/>
   </g>
   <g id="line2d_17">
    <path d="M -1 79.346299 
L 8.298 74.726399 
L 8.298 74.727597 
L 27.401 67.532854 
L 27.401 67.534652 
L 46.504 62.517628 
L 46.504 62.521224 
L 65.607 59.571655 
L 65.607 59.580644 
L 84.71 58.60864 
L 84.71 58.621225 
L 103.813 59.607011 
L 122.916 62.576356 
L 142.019 67.631732 
L 161.122 74.876214 
L 180.225 84.406282 
L 199.328 96.342388 
L 218.431 110.656966 
L 218.431 110.47539 
L 218.431 110.743859 
L 237.534 127.559158 
L 237.534 127.251737 
L 237.534 127.682607 
L 256.637 147.101101 
L 275.74 168.941814 
L 275.74 168.699113 
L 275.74 169.061667 
L 294.843 192.805637 
L 294.843 193.450443 
L 294.843 192.926688 
L 313.946 220.343536 
L 313.946 219.86113 
L 313.946 220.348929 
L 333.049 250.408524 
L 333.049 250.25751 
L 333.049 249.736152 
L 352.152 283.646007 
L 352.152 284.105641 
L 352.152 283.720316 
L 371.255 321.105293 
L 371.255 320.362207 
L 371.255 320.857198 
L 390.358 357.951533 
L 390.358 357.047845 
L 409.461 379.888128 
L 409.461 382.563834 
L 428.564 396.781931 
L 428.564 397.493854 
L 428.564 397.309281 
L 447.667 416.316083 
L 447.667 417.354005 
L 447.667 417.092727 
L 466.77 438.352755 
L 466.77 439.502739 
L 466.77 439.450603 
L 485.873 461.47529 
L 485.873 462.589917 
L 504.976 481.706384 
L 504.976 482.579509 
L 524.079 496.960006 
L 524.079 497.510728 
L 543.182 507.439905 
L 543.182 507.738936 
L 562.285 515.000197 
L 562.285 515.052933 
L 581.388 521.713133 
L 600.491 529.536502 
L 619.594 539.194213 
L 638.697 549.763402 
L 657.8 559.06575 
L 676.903 565.076351 
L 676.903 565.076351 
" clip-path="url(#p0ddd5c7ae3)" style="fill: none; stroke: #9467bd; stroke-width: 1.5; stroke-linecap: square"/>
   </g>
   <g id="patch_3">
    <path d="M 84.71 647.08 
L 84.71 21.6 
" style="fill: none; stroke: #000000; stroke-width: 0.8; stroke-linejoin: miter; stroke-linecap: square"/>
   </g>
   <g id="patch_4">
    <path d="M 696.006 647.08 
L 696.006 21.6 
" style="fill: none; stroke: #000000; stroke-width: 0.8; stroke-linejoin: miter; stroke-linecap: square"/>
   </g>
   <g id="patch_5">
    <path d="M 84.71 647.08 
L 696.006 647.08 
" style="fill: none; stroke: #000000; stroke-width: 0.8; stroke-linejoin: miter; stroke-linecap: square"/>
   </g>
   <g id="patch_6">
    <path d="M 84.71 21.6 
L 696.006 21.6 
" style="fill: none; stroke: #000000; stroke-width: 0.8; stroke-linejoin: miter; stroke-linecap: square"/>
   </g>
  </g>
  <g id="axes_2">
   <g id="patch_7">
    <path d="M 797.942 647.08 
L 1409.238 647.08 
L 1409.238 21.6 
L 797.942 21.6 
z
" style="fill: #ffffff"/>
   </g>
   <g id="matplotlib.axis_3">
    <g id="xtick_7">
     <g id="line2d_18">
      <g>
       <use xlink:href="#m2cd7c4551a" x="797.942" y="647.08" style="stroke: #000000; stroke-width: 0.8"/>
      </g>
     </g>
     <g id="text_15">
      <!-- 1.0 -->
      <g transform="translate(782.038875 669.276875) scale(0.2 -0.2)">
       <use xlink:href="#DejaVuSans-31"/>
       <use xlink:href="#DejaVuSans-2e" x="63.623047"/>
       <use xlink:href="#DejaVuSans-30" x="95.410156"/>
      </g>
     </g>
    </g>
    <g id="xtick_8">
     <g id="line2d_19">
      <g>
       <use xlink:href="#m2cd7c4551a" x="920.2012" y="647.08" style="stroke: #000000; stroke-width: 0.8"/>
      </g>
     </g>
     <g id="text_16">
      <!-- 1.2 -->
      <g transform="translate(904.298075 669.276875) scale(0.2 -0.2)">
       <use xlink:href="#DejaVuSans-31"/>
       <use xlink:href="#DejaVuSans-2e" x="63.623047"/>
       <use xlink:href="#DejaVuSans-32" x="95.410156"/>
      </g>
     </g>
    </g>
    <g id="xtick_9">
     <g id="line2d_20">
      <g>
       <use xlink:href="#m2cd7c4551a" x="1042.4604" y="647.08" style="stroke: #000000; stroke-width: 0.8"/>
      </g>
     </g>
     <g id="text_17">
      <!-- 1.4 -->
      <g transform="translate(1026.557275 669.276875) scale(0.2 -0.2)">
       <use xlink:href="#DejaVuSans-31"/>
       <use xlink:href="#DejaVuSans-2e" x="63.623047"/>
       <use xlink:href="#DejaVuSans-34" x="95.410156"/>
      </g>
     </g>
    </g>
    <g id="xtick_10">
     <g id="line2d_21">
      <g>
       <use xlink:href="#m2cd7c4551a" x="1164.7196" y="647.08" style="stroke: #000000; stroke-width: 0.8"/>
      </g>
     </g>
     <g id="text_18">
      <!-- 1.6 -->
      <g transform="translate(1148.816475 669.276875) scale(0.2 -0.2)">
       <use xlink:href="#DejaVuSans-31"/>
       <use xlink:href="#DejaVuSans-2e" x="63.623047"/>
       <use xlink:href="#DejaVuSans-36" x="95.410156"/>
      </g>
     </g>
    </g>
    <g id="xtick_11">
     <g id="line2d_22">
      <g>
       <use xlink:href="#m2cd7c4551a" x="1286.9788" y="647.08" style="stroke: #000000; stroke-width: 0.8"/>
      </g>
     </g>
     <g id="text_19">
      <!-- 1.8 -->
      <g transform="translate(1271.075675 669.276875) scale(0.2 -0.2)">
       <use xlink:href="#DejaVuSans-31"/>
       <use xlink:href="#DejaVuSans-2e" x="63.623047"/>
       <use xlink:href="#DejaVuSans-38" x="95.410156"/>
      </g>
     </g>
    </g>
    <g id="xtick_12">
     <g id="line2d_23">
      <g>
       <use xlink:href="#m2cd7c4551a" x="1409.238" y="647.08" style="stroke: #000000; stroke-width: 0.8"/>
      </g>
     </g>
     <g id="text_20">
      <!-- 2.0 -->
      <g transform="translate(1393.334875 669.276875) scale(0.2 -0.2)">
       <use xlink:href="#DejaVuSans-32"/>
       <use xlink:href="#DejaVuSans-2e" x="63.623047"/>
       <use xlink:href="#DejaVuSans-30" x="95.410156"/>
      </g>
     </g>
    </g>
    <g id="text_21">
     <!-- Position $x$ -->
     <g transform="translate(1055.19 692.633125) scale(0.2 -0.2)">
      <use xlink:href="#DejaVuSans-50" transform="translate(0 0.015625)"/>
      <use xlink:href="#DejaVuSans-6f" transform="translate(60.302734 0.015625)"/>
      <use xlink:href="#DejaVuSans-73" transform="translate(121.484375 0.015625)"/>
      <use xlink:href="#DejaVuSans-69" transform="translate(173.583984 0.015625)"/>
      <use xlink:href="#DejaVuSans-74" transform="translate(201.367188 0.015625)"/>
      <use xlink:href="#DejaVuSans-69" transform="translate(240.576172 0.015625)"/>
      <use xlink:href="#DejaVuSans-6f" transform="translate(268.359375 0.015625)"/>
      <use xlink:href="#DejaVuSans-6e" transform="translate(329.541016 0.015625)"/>
      <use xlink:href="#DejaVuSans-20" transform="translate(392.919922 0.015625)"/>
      <use xlink:href="#DejaVuSans-Oblique-78" transform="translate(424.707031 0.015625)"/>
     </g>
    </g>
   </g>
   <g id="matplotlib.axis_4">
    <g id="ytick_7">
     <g id="line2d_24">
      <g>
       <use xlink:href="#md2f1105303" x="797.942" y="647.08" style="stroke: #000000; stroke-width: 0.8"/>
      </g>
     </g>
     <g id="text_22">
      <!-- 0.0 -->
      <g transform="translate(759.13575 654.678437) scale(0.2 -0.2)">
       <use xlink:href="#DejaVuSans-30"/>
       <use xlink:href="#DejaVuSans-2e" x="63.623047"/>
       <use xlink:href="#DejaVuSans-30" x="95.410156"/>
      </g>
     </g>
    </g>
    <g id="ytick_8">
     <g id="line2d_25">
      <g>
       <use xlink:href="#md2f1105303" x="797.942" y="513.094928" style="stroke: #000000; stroke-width: 0.8"/>
      </g>
     </g>
     <g id="text_23">
      <!-- 0.2 -->
      <g transform="translate(759.13575 520.693365) scale(0.2 -0.2)">
       <use xlink:href="#DejaVuSans-30"/>
       <use xlink:href="#DejaVuSans-2e" x="63.623047"/>
       <use xlink:href="#DejaVuSans-32" x="95.410156"/>
      </g>
     </g>
    </g>
    <g id="ytick_9">
     <g id="line2d_26">
      <g>
       <use xlink:href="#md2f1105303" x="797.942" y="379.109856" style="stroke: #000000; stroke-width: 0.8"/>
      </g>
     </g>
     <g id="text_24">
      <!-- 0.4 -->
      <g transform="translate(759.13575 386.708293) scale(0.2 -0.2)">
       <use xlink:href="#DejaVuSans-30"/>
       <use xlink:href="#DejaVuSans-2e" x="63.623047"/>
       <use xlink:href="#DejaVuSans-34" x="95.410156"/>
      </g>
     </g>
    </g>
    <g id="ytick_10">
     <g id="line2d_27">
      <g>
       <use xlink:href="#md2f1105303" x="797.942" y="245.124784" style="stroke: #000000; stroke-width: 0.8"/>
      </g>
     </g>
     <g id="text_25">
      <!-- 0.6 -->
      <g transform="translate(759.13575 252.723221) scale(0.2 -0.2)">
       <use xlink:href="#DejaVuSans-30"/>
       <use xlink:href="#DejaVuSans-2e" x="63.623047"/>
       <use xlink:href="#DejaVuSans-36" x="95.410156"/>
      </g>
     </g>
    </g>
    <g id="ytick_11">
     <g id="line2d_28">
      <g>
       <use xlink:href="#md2f1105303" x="797.942" y="111.139711" style="stroke: #000000; stroke-width: 0.8"/>
      </g>
     </g>
     <g id="text_26">
      <!-- 0.8 -->
      <g transform="translate(759.13575 118.738149) scale(0.2 -0.2)">
       <use xlink:href="#DejaVuSans-30"/>
       <use xlink:href="#DejaVuSans-2e" x="63.623047"/>
       <use xlink:href="#DejaVuSans-38" x="95.410156"/>
      </g>
     </g>
    </g>
    <g id="text_27">
     <!-- $U_x$ -->
     <g transform="translate(750.976375 346.14) rotate(-90) scale(0.2 -0.2)">
      <defs>
       <path id="DejaVuSans-Oblique-55" d="M 991 4666 
L 1625 4666 
L 1075 1831 
Q 1041 1641 1027 1517 
Q 1013 1394 1013 1300 
Q 1013 869 1253 645 
Q 1494 422 1959 422 
Q 2563 422 2898 753 
Q 3234 1084 3378 1831 
L 3928 4666 
L 4563 4666 
L 4000 1753 
Q 3816 809 3300 359 
Q 2784 -91 1888 -91 
Q 1188 -91 780 261 
Q 372 613 372 1216 
Q 372 1325 387 1461 
Q 403 1597 434 1753 
L 991 4666 
z
" transform="scale(0.015625)"/>
      </defs>
      <use xlink:href="#DejaVuSans-Oblique-55" transform="translate(0 0.09375)"/>
      <use xlink:href="#DejaVuSans-Oblique-78" transform="translate(73.193359 -16.3125) scale(0.7)"/>
     </g>
    </g>
   </g>
   <g id="line2d_29">
    <path d="M 186.646 647.08 
L 931.663 647.08 
L 931.663 647.08 
L 950.766 621.91244 
L 950.766 621.91244 
L 1065.384 154.298779 
L 1065.384 154.298779 
L 1084.487 83.542235 
L 1084.487 83.542235 
L 1313.723 83.542235 
L 1313.723 83.542235 
L 1332.826 647.08 
L 1332.826 647.08 
L 1390.135 647.08 
L 1390.135 647.08 
" clip-path="url(#pcc7e5b45ff)" style="fill: none; stroke: #1f77b4; stroke-width: 1.5; stroke-linecap: square"/>
   </g>
   <g id="line2d_30">
    <path d="M 186.646 647.079908 
L 186.646 647.08148 
L 205.749 705.319358 
L 205.749 705.31554 
L 209.407212 721 
M 663.131707 721 
L 664.221 719.370976 
L 664.221 719.370976 
L 683.324 696.881112 
L 683.324 696.881112 
L 702.427 679.904199 
L 702.427 679.904266 
L 721.53 667.66895 
L 721.53 667.66895 
L 740.633 659.253616 
L 740.633 659.253616 
L 759.736 653.666827 
L 759.736 653.666833 
L 778.839 649.922627 
L 778.839 649.922627 
L 817.045 644.237366 
L 817.045 644.237373 
L 836.148 640.49316 
L 836.148 640.493167 
L 855.251 634.906384 
L 855.251 634.906384 
L 874.354 626.49105 
L 874.354 626.49105 
L 893.457 614.255734 
L 893.457 614.255734 
L 912.56 597.278888 
L 912.56 597.278888 
L 931.663 574.789024 
L 931.663 574.789024 
L 950.766 546.220727 
L 950.766 546.220727 
L 969.869 511.229856 
L 988.972 469.670366 
L 988.972 469.670366 
L 1008.075 421.544268 
L 1008.075 421.544268 
L 1027.178 366.95138 
L 1027.178 366.95138 
L 1046.281 306.10005 
L 1046.281 306.10005 
L 1065.384 239.392902 
L 1065.384 239.392902 
L 1084.487 168.359376 
L 1084.487 168.359376 
L 1103.59 100.962205 
L 1103.59 100.962875 
L 1122.693 81.479436 
L 1122.693 81.479436 
L 1141.796 79.665948 
L 1141.796 79.665948 
L 1160.899 80.085991 
L 1160.899 80.085991 
L 1180.002 80.673516 
L 1199.105 81.673714 
L 1199.105 81.673714 
L 1218.208 83.857671 
L 1218.208 83.857671 
L 1237.311 88.701231 
L 1237.311 88.701231 
L 1256.414 98.882757 
L 1256.414 98.882087 
L 1275.517 118.723267 
L 1275.517 118.723267 
L 1294.62 154.253428 
L 1294.62 154.252758 
L 1313.723 212.21537 
L 1313.723 212.21537 
L 1332.826 296.631995 
L 1332.826 296.631995 
L 1371.032 506.958412 
L 1371.032 506.957072 
L 1390.135 588.852834 
L 1390.135 588.851963 
" clip-path="url(#pcc7e5b45ff)" style="fill: none; stroke: #ff7f0e; stroke-width: 1.5; stroke-linecap: square"/>
   </g>
   <g id="line2d_31">
    <path d="M 186.646 647.073424 
L 186.646 647.076669 
L 198.794138 721 
M 674.597614 721 
L 683.324 711.292681 
L 683.324 711.292681 
L 702.427 694.026895 
L 702.427 694.026895 
L 721.53 680.224155 
L 721.53 680.224155 
L 740.633 669.301692 
L 759.736 660.61343 
L 778.839 653.455653 
L 817.045 640.705774 
L 836.148 633.542952 
L 836.148 633.54657 
L 855.251 624.847857 
L 855.251 624.857102 
L 874.354 613.930954 
L 874.354 613.934974 
L 893.457 600.132167 
L 893.457 600.132636 
L 912.56 582.867051 
L 912.56 582.867051 
L 931.663 561.616952 
L 931.663 561.616952 
L 950.766 535.913256 
L 950.766 535.913256 
L 969.869 505.328483 
L 969.869 505.328483 
L 988.972 469.471398 
L 988.972 469.471398 
L 1008.075 427.942725 
L 1008.075 427.942725 
L 1027.178 380.446357 
L 1027.178 380.446357 
L 1046.281 326.720353 
L 1046.281 326.720353 
L 1065.384 267.23969 
L 1065.384 267.23969 
L 1084.487 204.67469 
L 1084.487 204.67469 
L 1103.59 148.301141 
L 1103.59 148.301141 
L 1122.693 115.768896 
L 1122.693 115.768896 
L 1141.796 103.454998 
L 1141.796 103.455668 
L 1160.899 99.075026 
L 1160.899 99.075026 
L 1180.002 98.884767 
L 1180.002 98.885437 
L 1199.105 101.293149 
L 1199.105 101.293149 
L 1218.208 106.590248 
L 1218.208 106.589578 
L 1237.311 115.545811 
L 1237.311 115.545811 
L 1256.414 129.405226 
L 1256.414 129.404557 
L 1275.517 149.766938 
L 1275.517 149.766268 
L 1294.62 178.532863 
L 1294.62 178.532193 
L 1313.723 217.864181 
L 1313.723 217.864181 
L 1332.826 270.220188 
L 1332.826 270.220188 
L 1351.929 338.436007 
L 1351.929 338.435337 
L 1371.032 425.303889 
L 1371.032 425.303219 
L 1390.135 530.827852 
L 1390.135 530.827182 
" clip-path="url(#pcc7e5b45ff)" style="fill: none; stroke: #2ca02c; stroke-width: 1.5; stroke-linecap: square"/>
   </g>
   <g id="line2d_32">
    <path d="M 186.646 647.043555 
L 186.646 647.089898 
L 186.646 647.04642 
L 197.96182 721 
M 672.480092 721 
L 683.324 708.291348 
L 683.324 708.300928 
L 702.427 690.625416 
L 702.427 690.625416 
L 721.53 677.089039 
L 721.53 677.089173 
L 740.633 666.998221 
L 740.633 666.998355 
L 759.736 659.597823 
L 759.736 659.598292 
L 778.839 653.494147 
L 778.839 653.494643 
L 817.045 640.665384 
L 836.148 634.561641 
L 836.148 634.561641 
L 855.251 627.161444 
L 855.251 627.161511 
L 874.354 617.070559 
L 893.457 603.533311 
L 912.56 585.859273 
L 931.663 563.412352 
L 931.663 563.469965 
L 950.766 535.621168 
L 950.766 535.898517 
L 950.766 535.546136 
L 969.869 502.773388 
L 969.869 501.793957 
L 969.869 502.856459 
L 988.972 462.068053 
L 988.972 463.825267 
L 988.972 462.332674 
L 1008.075 418.344034 
L 1008.075 416.437427 
L 1008.075 417.211191 
L 1027.178 365.198856 
L 1027.178 364.808959 
L 1027.178 365.148611 
L 1046.281 308.607581 
L 1046.281 305.184932 
L 1046.281 307.26438 
L 1065.384 247.750891 
L 1065.384 241.265344 
L 1065.384 247.651072 
L 1084.487 198.112102 
L 1084.487 178.689625 
L 1084.487 180.924496 
L 1103.59 119.623646 
L 1103.59 138.195987 
L 1103.59 114.776066 
L 1122.693 101.268361 
L 1122.693 104.68632 
L 1122.693 99.060957 
L 1141.796 94.410335 
L 1141.796 96.400014 
L 1141.796 92.462192 
L 1160.899 91.445246 
L 1160.899 92.350985 
L 1160.899 90.279576 
L 1180.002 90.228661 
L 1180.002 90.487252 
L 1180.002 89.43614 
L 1199.105 90.203204 
L 1199.105 90.138891 
L 1199.105 89.659895 
L 1218.208 91.821074 
L 1218.208 91.411749 
L 1237.311 95.701282 
L 1237.311 95.506333 
L 1256.414 103.638557 
L 1256.414 103.530029 
L 1256.414 103.481795 
L 1275.517 119.080337 
L 1294.62 146.815247 
L 1294.62 147.062449 
L 1313.723 190.933851 
L 1313.723 191.067166 
L 1332.826 252.919365 
L 1332.826 254.107813 
L 1332.826 253.14848 
L 1351.929 335.499725 
L 1351.929 333.915351 
L 1351.929 334.478088 
L 1371.032 426.754277 
L 1390.135 522.31645 
L 1390.135 522.277595 
" clip-path="url(#pcc7e5b45ff)" style="fill: none; stroke: #d62728; stroke-width: 1.5; stroke-linecap: square"/>
   </g>
   <g id="line2d_33">
    <path d="M 186.646 646.982494 
L 186.646 647.004493 
L 205.749 694.273897 
L 213.019782 721 
M 674.77167 721 
L 683.324 711.396921 
L 702.427 694.010884 
L 721.53 680.146243 
L 740.633 669.205424 
L 759.736 660.520713 
L 778.839 653.388024 
L 817.045 640.687921 
L 817.045 640.694519 
L 836.148 633.525266 
L 855.251 624.785085 
L 874.354 613.881916 
L 874.354 613.998416 
L 874.354 613.652466 
L 893.457 599.971519 
L 893.457 600.21028 
L 893.457 599.802228 
L 912.56 582.554129 
L 912.56 582.958831 
L 912.56 582.351678 
L 931.663 560.397688 
L 931.663 561.72213 
L 931.663 560.936308 
L 950.766 535.026274 
L 950.766 535.763862 
L 950.766 534.943204 
L 969.869 506.366198 
L 969.869 504.067684 
L 969.869 504.497776 
L 988.972 468.011631 
L 988.972 468.856407 
L 988.972 467.93191 
L 1008.075 429.435319 
L 1008.075 420.552108 
L 1008.075 430.696118 
L 1027.178 370.386088 
L 1027.178 382.580739 
L 1027.178 374.806255 
L 1046.281 326.778636 
L 1046.281 319.355863 
L 1046.281 321.517042 
L 1065.384 264.232395 
L 1065.384 257.524432 
L 1065.384 258.609041 
L 1084.487 190.546634 
L 1084.487 194.564177 
L 1084.487 188.550257 
L 1103.59 116.759045 
L 1103.59 122.634961 
L 1103.59 120.649302 
L 1122.693 86.655279 
L 1122.693 82.381156 
L 1141.796 80.515413 
L 1141.796 84.926872 
L 1141.796 83.621857 
L 1160.899 78.404479 
L 1160.899 82.845414 
L 1180.002 79.504496 
L 1180.002 84.703117 
L 1199.105 81.699842 
L 1199.105 86.868316 
L 1218.208 85.856728 
L 1218.208 90.51338 
L 1237.311 93.495887 
L 1237.311 97.343939 
L 1256.414 107.399518 
L 1256.414 110.282877 
L 1275.517 131.97305 
L 1275.517 134.013643 
L 1294.62 173.26122 
L 1294.62 174.627198 
L 1313.723 237.43739 
L 1313.723 238.319682 
L 1332.826 326.882475 
L 1332.826 327.162503 
L 1351.929 431.829632 
L 1371.032 529.331909 
L 1390.135 599.676885 
L 1390.135 599.676885 
" clip-path="url(#pcc7e5b45ff)" style="fill: none; stroke: #9467bd; stroke-width: 1.5; stroke-linecap: square"/>
   </g>
   <g id="patch_8">
    <path d="M 797.942 647.08 
L 797.942 21.6 
" style="fill: none; stroke: #000000; stroke-width: 0.8; stroke-linejoin: miter; stroke-linecap: square"/>
   </g>
   <g id="patch_9">
    <path d="M 1409.238 647.08 
L 1409.238 21.6 
" style="fill: none; stroke: #000000; stroke-width: 0.8; stroke-linejoin: miter; stroke-linecap: square"/>
   </g>
   <g id="patch_10">
    <path d="M 797.942 647.08 
L 1409.238 647.08 
" style="fill: none; stroke: #000000; stroke-width: 0.8; stroke-linejoin: miter; stroke-linecap: square"/>
   </g>
   <g id="patch_11">
    <path d="M 797.942 21.6 
L 1409.238 21.6 
" style="fill: none; stroke: #000000; stroke-width: 0.8; stroke-linejoin: miter; stroke-linecap: square"/>
   </g>
  </g>
  <g id="axes_3">
   <g id="patch_12">
    <path d="M 1511.174 647.08 
L 2122.47 647.08 
L 2122.47 21.6 
L 1511.174 21.6 
z
" style="fill: #ffffff"/>
   </g>
   <g id="matplotlib.axis_5">
    <g id="xtick_13">
     <g id="line2d_34">
      <g>
       <use xlink:href="#m2cd7c4551a" x="1511.174" y="647.08" style="stroke: #000000; stroke-width: 0.8"/>
      </g>
     </g>
     <g id="text_28">
      <!-- 1.0 -->
      <g transform="translate(1495.270875 669.276875) scale(0.2 -0.2)">
       <use xlink:href="#DejaVuSans-31"/>
       <use xlink:href="#DejaVuSans-2e" x="63.623047"/>
       <use xlink:href="#DejaVuSans-30" x="95.410156"/>
      </g>
     </g>
    </g>
    <g id="xtick_14">
     <g id="line2d_35">
      <g>
       <use xlink:href="#m2cd7c4551a" x="1633.4332" y="647.08" style="stroke: #000000; stroke-width: 0.8"/>
      </g>
     </g>
     <g id="text_29">
      <!-- 1.2 -->
      <g transform="translate(1617.530075 669.276875) scale(0.2 -0.2)">
       <use xlink:href="#DejaVuSans-31"/>
       <use xlink:href="#DejaVuSans-2e" x="63.623047"/>
       <use xlink:href="#DejaVuSans-32" x="95.410156"/>
      </g>
     </g>
    </g>
    <g id="xtick_15">
     <g id="line2d_36">
      <g>
       <use xlink:href="#m2cd7c4551a" x="1755.6924" y="647.08" style="stroke: #000000; stroke-width: 0.8"/>
      </g>
     </g>
     <g id="text_30">
      <!-- 1.4 -->
      <g transform="translate(1739.789275 669.276875) scale(0.2 -0.2)">
       <use xlink:href="#DejaVuSans-31"/>
       <use xlink:href="#DejaVuSans-2e" x="63.623047"/>
       <use xlink:href="#DejaVuSans-34" x="95.410156"/>
      </g>
     </g>
    </g>
    <g id="xtick_16">
     <g id="line2d_37">
      <g>
       <use xlink:href="#m2cd7c4551a" x="1877.9516" y="647.08" style="stroke: #000000; stroke-width: 0.8"/>
      </g>
     </g>
     <g id="text_31">
      <!-- 1.6 -->
      <g transform="translate(1862.048475 669.276875) scale(0.2 -0.2)">
       <use xlink:href="#DejaVuSans-31"/>
       <use xlink:href="#DejaVuSans-2e" x="63.623047"/>
       <use xlink:href="#DejaVuSans-36" x="95.410156"/>
      </g>
     </g>
    </g>
    <g id="xtick_17">
     <g id="line2d_38">
      <g>
       <use xlink:href="#m2cd7c4551a" x="2000.2108" y="647.08" style="stroke: #000000; stroke-width: 0.8"/>
      </g>
     </g>
     <g id="text_32">
      <!-- 1.8 -->
      <g transform="translate(1984.307675 669.276875) scale(0.2 -0.2)">
       <use xlink:href="#DejaVuSans-31"/>
       <use xlink:href="#DejaVuSans-2e" x="63.623047"/>
       <use xlink:href="#DejaVuSans-38" x="95.410156"/>
      </g>
     </g>
    </g>
    <g id="xtick_18">
     <g id="line2d_39">
      <g>
       <use xlink:href="#m2cd7c4551a" x="2122.47" y="647.08" style="stroke: #000000; stroke-width: 0.8"/>
      </g>
     </g>
     <g id="text_33">
      <!-- 2.0 -->
      <g transform="translate(2106.566875 669.276875) scale(0.2 -0.2)">
       <use xlink:href="#DejaVuSans-32"/>
       <use xlink:href="#DejaVuSans-2e" x="63.623047"/>
       <use xlink:href="#DejaVuSans-30" x="95.410156"/>
      </g>
     </g>
    </g>
    <g id="text_34">
     <!-- Position $x$ -->
     <g transform="translate(1768.422 692.633125) scale(0.2 -0.2)">
      <use xlink:href="#DejaVuSans-50" transform="translate(0 0.015625)"/>
      <use xlink:href="#DejaVuSans-6f" transform="translate(60.302734 0.015625)"/>
      <use xlink:href="#DejaVuSans-73" transform="translate(121.484375 0.015625)"/>
      <use xlink:href="#DejaVuSans-69" transform="translate(173.583984 0.015625)"/>
      <use xlink:href="#DejaVuSans-74" transform="translate(201.367188 0.015625)"/>
      <use xlink:href="#DejaVuSans-69" transform="translate(240.576172 0.015625)"/>
      <use xlink:href="#DejaVuSans-6f" transform="translate(268.359375 0.015625)"/>
      <use xlink:href="#DejaVuSans-6e" transform="translate(329.541016 0.015625)"/>
      <use xlink:href="#DejaVuSans-20" transform="translate(392.919922 0.015625)"/>
      <use xlink:href="#DejaVuSans-Oblique-78" transform="translate(424.707031 0.015625)"/>
     </g>
    </g>
   </g>
   <g id="matplotlib.axis_6">
    <g id="ytick_12">
     <g id="line2d_40">
      <g>
       <use xlink:href="#md2f1105303" x="1511.174" y="647.08" style="stroke: #000000; stroke-width: 0.8"/>
      </g>
     </g>
     <g id="text_35">
      <!-- 0.0 -->
      <g transform="translate(1472.36775 654.678437) scale(0.2 -0.2)">
       <use xlink:href="#DejaVuSans-30"/>
       <use xlink:href="#DejaVuSans-2e" x="63.623047"/>
       <use xlink:href="#DejaVuSans-30" x="95.410156"/>
      </g>
     </g>
    </g>
    <g id="ytick_13">
     <g id="line2d_41">
      <g>
       <use xlink:href="#md2f1105303" x="1511.174" y="527.370909" style="stroke: #000000; stroke-width: 0.8"/>
      </g>
     </g>
     <g id="text_36">
      <!-- 0.2 -->
      <g transform="translate(1472.36775 534.969347) scale(0.2 -0.2)">
       <use xlink:href="#DejaVuSans-30"/>
       <use xlink:href="#DejaVuSans-2e" x="63.623047"/>
       <use xlink:href="#DejaVuSans-32" x="95.410156"/>
      </g>
     </g>
    </g>
    <g id="ytick_14">
     <g id="line2d_42">
      <g>
       <use xlink:href="#md2f1105303" x="1511.174" y="407.661818" style="stroke: #000000; stroke-width: 0.8"/>
      </g>
     </g>
     <g id="text_37">
      <!-- 0.4 -->
      <g transform="translate(1472.36775 415.260256) scale(0.2 -0.2)">
       <use xlink:href="#DejaVuSans-30"/>
       <use xlink:href="#DejaVuSans-2e" x="63.623047"/>
       <use xlink:href="#DejaVuSans-34" x="95.410156"/>
      </g>
     </g>
    </g>
    <g id="ytick_15">
     <g id="line2d_43">
      <g>
       <use xlink:href="#md2f1105303" x="1511.174" y="287.952727" style="stroke: #000000; stroke-width: 0.8"/>
      </g>
     </g>
     <g id="text_38">
      <!-- 0.6 -->
      <g transform="translate(1472.36775 295.551165) scale(0.2 -0.2)">
       <use xlink:href="#DejaVuSans-30"/>
       <use xlink:href="#DejaVuSans-2e" x="63.623047"/>
       <use xlink:href="#DejaVuSans-36" x="95.410156"/>
      </g>
     </g>
    </g>
    <g id="ytick_16">
     <g id="line2d_44">
      <g>
       <use xlink:href="#md2f1105303" x="1511.174" y="168.243636" style="stroke: #000000; stroke-width: 0.8"/>
      </g>
     </g>
     <g id="text_39">
      <!-- 0.8 -->
      <g transform="translate(1472.36775 175.842074) scale(0.2 -0.2)">
       <use xlink:href="#DejaVuSans-30"/>
       <use xlink:href="#DejaVuSans-2e" x="63.623047"/>
       <use xlink:href="#DejaVuSans-38" x="95.410156"/>
      </g>
     </g>
    </g>
    <g id="ytick_17">
     <g id="line2d_45">
      <g>
       <use xlink:href="#md2f1105303" x="1511.174" y="48.534545" style="stroke: #000000; stroke-width: 0.8"/>
      </g>
     </g>
     <g id="text_40">
      <!-- 1.0 -->
      <g transform="translate(1472.36775 56.132983) scale(0.2 -0.2)">
       <use xlink:href="#DejaVuSans-31"/>
       <use xlink:href="#DejaVuSans-2e" x="63.623047"/>
       <use xlink:href="#DejaVuSans-30" x="95.410156"/>
      </g>
     </g>
    </g>
    <g id="text_41">
     <!-- $P$ -->
     <g transform="translate(1464.208375 340.44) rotate(-90) scale(0.2 -0.2)">
      <defs>
       <path id="DejaVuSans-Oblique-50" d="M 1081 4666 
L 2541 4666 
Q 3178 4666 3512 4369 
Q 3847 4072 3847 3500 
Q 3847 2731 3353 2303 
Q 2859 1875 1966 1875 
L 1172 1875 
L 806 0 
L 172 0 
L 1081 4666 
z
M 1613 4147 
L 1275 2394 
L 2069 2394 
Q 2606 2394 2893 2669 
Q 3181 2944 3181 3456 
Q 3181 3784 2986 3965 
Q 2791 4147 2438 4147 
L 1613 4147 
z
" transform="scale(0.015625)"/>
      </defs>
      <use xlink:href="#DejaVuSans-Oblique-50" transform="translate(0 0.09375)"/>
     </g>
    </g>
   </g>
   <g id="line2d_46">
    <path d="M 899.878 48.534545 
L 1644.895 48.534545 
L 1644.895 48.534545 
L 1663.998 77.006093 
L 1663.998 77.006093 
L 1683.101 158.374641 
L 1683.101 158.374641 
L 1702.204 230.174834 
L 1702.204 230.174834 
L 1721.307 293.276506 
L 1721.307 293.276506 
L 1740.41 348.495105 
L 1740.41 348.495105 
L 1759.513 396.59344 
L 1759.513 396.59344 
L 1778.616 438.283447 
L 1778.616 438.283447 
L 1797.719 471.140444 
L 1797.719 471.140444 
L 2026.955 471.140444 
L 2026.955 471.140444 
L 2046.058 587.225455 
L 2046.058 587.225455 
L 2103.367 587.225455 
L 2103.367 587.225455 
" clip-path="url(#p5957d64aab)" style="fill: none; stroke: #1f77b4; stroke-width: 1.5; stroke-linecap: square"/>
   </g>
   <g id="line2d_47">
    <path d="M 899.878 578.469932 
L 899.878 578.469333 
L 899.878 578.469932 
L 918.981 574.813417 
L 918.981 574.813417 
L 938.084 563.397959 
L 938.084 563.400353 
L 957.187 545.05254 
L 957.187 545.066905 
L 976.29 523.811958 
L 976.29 523.834703 
L 995.393 504.587276 
L 995.393 504.666883 
L 1014.496 490.377209 
L 1014.496 490.393968 
L 1033.599 481.169185 
L 1033.599 481.172777 
L 1052.702 475.861284 
L 1052.702 475.861284 
L 1071.805 473.075654 
L 1071.805 473.075654 
L 1090.908 471.725934 
L 1090.908 471.725934 
L 1110.011 471.129783 
L 1110.011 471.129783 
L 1129.114 470.923883 
L 1129.114 470.923883 
L 1167.32 471.068731 
L 1167.32 471.068731 
L 1186.423 470.367834 
L 1186.423 470.367834 
L 1205.526 462.310215 
L 1205.526 462.310215 
L 1224.629 432.231511 
L 1224.629 432.231511 
L 1243.732 395.165985 
L 1243.732 395.165985 
L 1262.835 355.221455 
L 1262.835 355.221455 
L 1301.041 272.955572 
L 1301.041 272.955572 
L 1320.144 233.109204 
L 1320.144 233.109204 
L 1339.247 195.708493 
L 1339.247 195.708493 
L 1358.35 161.849974 
L 1358.35 161.849974 
L 1377.453 132.424282 
L 1377.453 132.424282 
L 1396.556 108.004825 
L 1396.556 108.004825 
L 1415.659 88.761588 
L 1415.659 88.761588 
L 1434.762 74.453359 
L 1434.762 74.453359 
L 1453.865 64.503738 
L 1453.865 64.503738 
L 1472.968 58.164543 
L 1472.968 58.164543 
L 1492.071 54.710337 
L 1492.071 54.710337 
L 1511.174 53.622182 
L 1511.174 53.622182 
L 1530.277 54.710337 
L 1530.277 54.710337 
L 1549.38 58.164543 
L 1549.38 58.164543 
L 1568.483 64.503738 
L 1568.483 64.503738 
L 1587.586 74.453359 
L 1587.586 74.453359 
L 1606.689 88.761588 
L 1606.689 88.761588 
L 1625.792 108.004825 
L 1625.792 108.004825 
L 1644.895 132.424282 
L 1644.895 132.424282 
L 1663.998 161.849974 
L 1663.998 161.849974 
L 1683.101 195.708493 
L 1683.101 195.708493 
L 1702.204 233.109204 
L 1702.204 233.109204 
L 1721.307 272.955572 
L 1721.307 272.955572 
L 1759.513 355.221455 
L 1759.513 355.221455 
L 1778.616 395.165985 
L 1778.616 395.165985 
L 1797.719 432.231511 
L 1797.719 432.231511 
L 1816.822 462.310814 
L 1835.925 470.367834 
L 1835.925 470.367834 
L 1855.028 471.068731 
L 1855.028 471.068731 
L 1893.234 470.923883 
L 1893.234 470.923883 
L 1912.337 471.129783 
L 1912.337 471.129783 
L 1931.44 471.725934 
L 1931.44 471.725335 
L 1950.543 473.075654 
L 1950.543 473.075654 
L 1969.646 475.861883 
L 1969.646 475.861883 
L 1988.749 481.174572 
L 1988.749 481.174572 
L 2007.852 490.407136 
L 2007.852 490.407136 
L 2026.955 504.708781 
L 2026.955 504.708781 
L 2046.058 523.865228 
L 2046.058 523.865228 
L 2065.161 545.084263 
L 2065.161 545.084263 
L 2084.264 563.406937 
L 2084.264 563.406937 
L 2103.367 574.814615 
L 2103.367 574.814615 
" clip-path="url(#p5957d64aab)" style="fill: none; stroke: #ff7f0e; stroke-width: 1.5; stroke-linecap: square"/>
   </g>
   <g id="line2d_48">
    <path d="M 899.878 545.130351 
L 899.878 545.129154 
L 918.981 542.550022 
L 938.084 534.944305 
L 957.187 524.031624 
L 976.29 512.093635 
L 995.393 500.900835 
L 1014.496 491.375583 
L 1033.599 483.768668 
L 1052.702 477.938836 
L 1052.702 477.940033 
L 1071.805 473.564067 
L 1071.805 473.565863 
L 1090.908 470.299001 
L 1090.908 470.299001 
L 1110.011 467.808454 
L 1110.011 467.808454 
L 1148.217 463.770666 
L 1148.217 463.771265 
L 1167.32 460.841983 
L 1167.32 460.842582 
L 1186.423 455.027114 
L 1186.423 455.029508 
L 1205.526 440.401656 
L 1205.526 440.405247 
L 1224.629 413.219911 
L 1224.629 413.225897 
L 1243.732 379.237493 
L 1262.835 342.807623 
L 1281.938 306.130553 
L 1301.041 270.301622 
L 1301.041 270.30222 
L 1320.144 236.18094 
L 1320.144 236.18094 
L 1339.247 204.341913 
L 1339.247 204.341913 
L 1358.35 175.296896 
L 1358.35 175.296896 
L 1377.453 149.425966 
L 1377.453 149.425966 
L 1396.556 126.994876 
L 1396.556 126.994876 
L 1415.659 108.14668 
L 1415.659 108.14668 
L 1434.762 92.917289 
L 1434.762 92.917289 
L 1453.865 81.253434 
L 1453.865 81.254033 
L 1472.968 73.050967 
L 1472.968 73.051566 
L 1492.071 68.193172 
L 1492.071 68.193771 
L 1511.174 66.587873 
L 1511.174 66.589071 
L 1530.277 68.193172 
L 1549.38 73.04977 
L 1568.483 81.252237 
L 1568.483 81.252237 
L 1587.586 92.917289 
L 1587.586 92.916691 
L 1606.689 108.14668 
L 1606.689 108.14668 
L 1625.792 126.994876 
L 1625.792 126.994278 
L 1644.895 149.425966 
L 1644.895 149.425966 
L 1663.998 175.296896 
L 1663.998 175.296896 
L 1683.101 204.341913 
L 1683.101 204.341913 
L 1702.204 236.181538 
L 1702.204 236.181538 
L 1721.307 270.303417 
L 1721.307 270.303417 
L 1740.41 306.136538 
L 1740.41 306.136538 
L 1759.513 342.820791 
L 1759.513 342.820791 
L 1778.616 379.241683 
L 1778.616 379.241683 
L 1797.719 413.218116 
L 1797.719 413.218116 
L 1816.822 440.401057 
L 1816.822 440.401057 
L 1835.925 455.027114 
L 1835.925 455.027114 
L 1855.028 460.841983 
L 1855.028 460.841983 
L 1874.131 463.771265 
L 1874.131 463.771265 
L 1912.337 467.808454 
L 1912.337 467.807855 
L 1931.44 470.298403 
L 1931.44 470.298403 
L 1950.543 473.563468 
L 1950.543 473.563468 
L 1969.646 477.93704 
L 1969.646 477.936441 
L 1988.749 483.771661 
L 1988.749 483.771661 
L 2007.852 491.381568 
L 2007.852 491.381568 
L 2026.955 500.908017 
L 2026.955 500.908017 
L 2046.058 512.101416 
L 2046.058 512.101416 
L 2065.161 524.038807 
L 2065.161 524.038807 
L 2084.264 534.95029 
L 2084.264 534.95029 
L 2103.367 542.553613 
L 2103.367 542.553613 
" clip-path="url(#p5957d64aab)" style="fill: none; stroke: #2ca02c; stroke-width: 1.5; stroke-linecap: square"/>
   </g>
   <g id="line2d_49">
    <path d="M 899.878 566.192567 
L 899.878 566.207531 
L 918.981 561.090566 
L 918.981 561.100143 
L 938.084 546.931973 
L 938.084 546.958908 
L 976.29 511.357424 
L 976.29 511.367599 
L 995.393 495.966426 
L 995.393 495.977799 
L 1014.496 484.448017 
L 1014.496 484.491113 
L 1033.599 476.826738 
L 1033.599 476.848286 
L 1052.702 472.179033 
L 1052.702 472.199982 
L 1071.805 469.467023 
L 1071.805 469.490965 
L 1090.908 467.823417 
L 1090.908 467.868907 
L 1110.011 466.772372 
L 1110.011 466.84719 
L 1129.114 466.130731 
L 1129.114 465.966131 
L 1129.114 466.102599 
L 1148.217 465.433425 
L 1148.217 465.106021 
L 1148.217 465.387337 
L 1167.32 464.08191 
L 1167.32 463.865236 
L 1167.32 464.075326 
L 1186.423 461.426164 
L 1186.423 460.464301 
L 1186.423 461.469857 
L 1205.526 446.677405 
L 1205.526 455.349132 
L 1205.526 446.349402 
L 1224.629 424.688641 
L 1224.629 422.062822 
L 1224.629 423.550207 
L 1243.732 395.240204 
L 1243.732 391.063554 
L 1243.732 391.912292 
L 1262.835 356.185712 
L 1262.835 355.31842 
L 1262.835 355.345953 
L 1301.041 277.904346 
L 1301.041 277.969588 
L 1320.144 240.39051 
L 1339.247 205.395353 
L 1339.247 205.446828 
L 1358.35 173.538968 
L 1358.35 173.607801 
L 1377.453 145.457011 
L 1396.556 121.54093 
L 1396.556 121.550507 
L 1415.659 101.824843 
L 1415.659 101.824843 
L 1434.762 86.220763 
L 1434.762 86.221361 
L 1453.865 74.438396 
L 1453.865 74.438396 
L 1472.968 66.109636 
L 1472.968 66.109636 
L 1492.071 60.727515 
L 1492.071 60.727515 
L 1511.174 58.5117 
L 1511.174 58.514692 
L 1530.277 60.728113 
L 1530.277 60.727515 
L 1549.38 66.109636 
L 1549.38 66.109636 
L 1568.483 74.438396 
L 1568.483 74.438396 
L 1587.586 86.221361 
L 1587.586 86.221361 
L 1606.689 101.82604 
L 1606.689 101.82604 
L 1625.792 121.551105 
L 1644.895 145.534822 
L 1644.895 145.468383 
L 1663.998 173.644911 
L 1663.998 173.611392 
L 1683.101 205.419893 
L 1702.204 240.41086 
L 1702.204 240.233691 
L 1721.307 277.860054 
L 1721.307 277.38421 
L 1721.307 277.961208 
L 1740.41 316.204073 
L 1740.41 316.754136 
L 1759.513 354.03035 
L 1759.513 356.3551 
L 1759.513 355.272332 
L 1778.616 391.119817 
L 1778.616 393.751622 
L 1778.616 390.687069 
L 1797.719 420.935162 
L 1797.719 425.534984 
L 1816.822 454.363327 
L 1816.822 446.895276 
L 1816.822 452.748452 
L 1835.925 461.020948 
L 1835.925 461.632662 
L 1835.925 460.015991 
L 1855.028 463.991529 
L 1855.028 464.148947 
L 1855.028 463.767075 
L 1874.131 465.222737 
L 1874.131 465.42325 
L 1874.131 465.138941 
L 1931.44 467.881476 
L 1931.44 467.868907 
L 1950.543 469.531068 
L 1950.543 469.529272 
L 1969.646 472.271209 
L 1988.749 476.905746 
L 2007.852 484.522237 
L 2007.852 484.510865 
L 2026.955 495.940689 
L 2026.955 495.910163 
L 2046.058 511.41249 
L 2046.058 511.302956 
L 2065.161 529.264108 
L 2084.264 546.94574 
L 2103.367 561.090566 
L 2103.367 561.090566 
" clip-path="url(#p5957d64aab)" style="fill: none; stroke: #d62728; stroke-width: 1.5; stroke-linecap: square"/>
   </g>
   <g id="line2d_50">
    <path d="M 899.878 580.176385 
L 899.878 580.179377 
L 918.981 577.172884 
L 918.981 577.173482 
L 938.084 567.459089 
L 938.084 567.459089 
L 957.187 550.923673 
L 957.187 550.923673 
L 976.29 530.497711 
L 976.29 530.498309 
L 995.393 510.924676 
L 995.393 510.924676 
L 1014.496 495.501955 
L 1014.496 495.501955 
L 1033.599 484.991497 
L 1033.599 484.992095 
L 1052.702 478.543367 
L 1052.702 478.543965 
L 1071.805 474.849144 
L 1071.805 474.850341 
L 1090.908 472.795535 
L 1090.908 472.796732 
L 1110.011 471.64513 
L 1110.011 471.645729 
L 1129.114 470.964584 
L 1129.114 470.965183 
L 1148.217 470.470784 
L 1148.217 470.471981 
L 1167.32 469.410161 
L 1167.32 469.410161 
L 1186.423 466.491055 
L 1205.526 451.64234 
L 1224.629 421.386465 
L 1224.629 421.391254 
L 1243.732 385.005077 
L 1243.732 385.008668 
L 1281.938 309.186726 
L 1281.938 309.187324 
L 1301.041 272.514444 
L 1301.041 272.514444 
L 1320.144 237.759903 
L 1320.144 237.759903 
L 1339.247 205.4169 
L 1339.247 205.4169 
L 1358.35 175.979836 
L 1358.35 175.980435 
L 1377.453 149.807838 
L 1377.453 149.808436 
L 1396.556 127.154089 
L 1396.556 127.154688 
L 1415.659 108.150271 
L 1415.659 108.151468 
L 1434.762 92.819727 
L 1434.762 92.820924 
L 1453.865 81.091827 
L 1453.865 81.096017 
L 1472.968 72.834294 
L 1472.968 72.868411 
L 1492.071 68.001638 
L 1492.071 68.016003 
L 1511.174 66.407711 
L 1511.174 66.427463 
L 1530.277 68.059098 
L 1549.38 72.95939 
L 1568.483 81.255828 
L 1587.586 93.066327 
L 1606.689 108.299309 
L 1606.689 108.253221 
L 1606.689 108.455529 
L 1625.792 127.324076 
L 1625.792 127.276791 
L 1625.792 127.509027 
L 1644.895 150.04546 
L 1644.895 149.744991 
L 1644.895 150.15679 
L 1663.998 176.045078 
L 1663.998 175.651833 
L 1663.998 176.296467 
L 1683.101 205.290607 
L 1683.101 205.182869 
L 1683.101 205.627588 
L 1702.204 237.796414 
L 1721.307 271.834497 
L 1721.307 272.566518 
L 1721.307 271.797985 
L 1740.41 308.667188 
L 1740.41 308.266163 
L 1740.41 309.223237 
L 1759.513 346.220529 
L 1759.513 345.666874 
L 1778.616 383.222609 
L 1778.616 384.009696 
L 1778.616 383.690073 
L 1797.719 421.062652 
L 1797.719 420.189375 
L 1797.719 420.970476 
L 1816.822 454.189151 
L 1816.822 453.088425 
L 1835.925 466.738853 
L 1835.925 469.417943 
L 1855.028 469.367665 
L 1855.028 469.191094 
L 1855.028 469.337139 
L 1874.131 470.553982 
L 1874.131 470.503105 
L 1893.234 471.020249 
L 1893.234 470.920292 
L 1912.337 471.663087 
L 1912.337 471.627174 
L 1931.44 472.788352 
L 1950.543 474.823407 
L 1969.646 478.466154 
L 1969.646 478.513439 
L 1988.749 484.935233 
L 2007.852 495.418159 
L 2026.955 510.821726 
L 2046.058 530.391768 
L 2065.161 550.835687 
L 2084.264 567.402826 
L 2103.367 577.148942 
L 2103.367 577.148942 
" clip-path="url(#p5957d64aab)" style="fill: none; stroke: #9467bd; stroke-width: 1.5; stroke-linecap: square"/>
   </g>
   <g id="patch_13">
    <path d="M 1511.174 647.08 
L 1511.174 21.6 
" style="fill: none; stroke: #000000; stroke-width: 0.8; stroke-linejoin: miter; stroke-linecap: square"/>
   </g>
   <g id="patch_14">
    <path d="M 2122.47 647.08 
L 2122.47 21.6 
" style="fill: none; stroke: #000000; stroke-width: 0.8; stroke-linejoin: miter; stroke-linecap: square"/>
   </g>
   <g id="patch_15">
    <path d="M 1511.174 647.08 
L 2122.47 647.08 
" style="fill: none; stroke: #000000; stroke-width: 0.8; stroke-linejoin: miter; stroke-linecap: square"/>
   </g>
   <g id="patch_16">
    <path d="M 1511.174 21.6 
L 2122.47 21.6 
" style="fill: none; stroke: #000000; stroke-width: 0.8; stroke-linejoin: miter; stroke-linecap: square"/>
   </g>
   <g id="legend_1">
    <g id="patch_17">
     <path d="M 1945.698125 184.38125 
L 2108.47 184.38125 
Q 2112.47 184.38125 2112.47 180.38125 
L 2112.47 35.6 
Q 2112.47 31.6 2108.47 31.6 
L 1945.698125 31.6 
Q 1941.698125 31.6 1941.698125 35.6 
L 1941.698125 180.38125 
Q 1941.698125 184.38125 1945.698125 184.38125 
z
" style="fill: #ffffff; opacity: 0.8; stroke: #cccccc; stroke-linejoin: miter"/>
    </g>
    <g id="line2d_51">
     <path d="M 1949.698125 47.796875 
L 1969.698125 47.796875 
L 1989.698125 47.796875 
" style="fill: none; stroke: #1f77b4; stroke-width: 1.5; stroke-linecap: square"/>
    </g>
    <g id="text_42">
     <!-- Exact Sol. -->
     <g transform="translate(2005.698125 54.796875) scale(0.2 -0.2)">
      <defs>
       <path id="DejaVuSans-45" d="M 628 4666 
L 3578 4666 
L 3578 4134 
L 1259 4134 
L 1259 2753 
L 3481 2753 
L 3481 2222 
L 1259 2222 
L 1259 531 
L 3634 531 
L 3634 0 
L 628 0 
L 628 4666 
z
" transform="scale(0.015625)"/>
       <path id="DejaVuSans-78" d="M 3513 3500 
L 2247 1797 
L 3578 0 
L 2900 0 
L 1881 1375 
L 863 0 
L 184 0 
L 1544 1831 
L 300 3500 
L 978 3500 
L 1906 2253 
L 2834 3500 
L 3513 3500 
z
" transform="scale(0.015625)"/>
       <path id="DejaVuSans-61" d="M 2194 1759 
Q 1497 1759 1228 1600 
Q 959 1441 959 1056 
Q 959 750 1161 570 
Q 1363 391 1709 391 
Q 2188 391 2477 730 
Q 2766 1069 2766 1631 
L 2766 1759 
L 2194 1759 
z
M 3341 1997 
L 3341 0 
L 2766 0 
L 2766 531 
Q 2569 213 2275 61 
Q 1981 -91 1556 -91 
Q 1019 -91 701 211 
Q 384 513 384 1019 
Q 384 1609 779 1909 
Q 1175 2209 1959 2209 
L 2766 2209 
L 2766 2266 
Q 2766 2663 2505 2880 
Q 2244 3097 1772 3097 
Q 1472 3097 1187 3025 
Q 903 2953 641 2809 
L 641 3341 
Q 956 3463 1253 3523 
Q 1550 3584 1831 3584 
Q 2591 3584 2966 3190 
Q 3341 2797 3341 1997 
z
" transform="scale(0.015625)"/>
       <path id="DejaVuSans-63" d="M 3122 3366 
L 3122 2828 
Q 2878 2963 2633 3030 
Q 2388 3097 2138 3097 
Q 1578 3097 1268 2742 
Q 959 2388 959 1747 
Q 959 1106 1268 751 
Q 1578 397 2138 397 
Q 2388 397 2633 464 
Q 2878 531 3122 666 
L 3122 134 
Q 2881 22 2623 -34 
Q 2366 -91 2075 -91 
Q 1284 -91 818 406 
Q 353 903 353 1747 
Q 353 2603 823 3093 
Q 1294 3584 2113 3584 
Q 2378 3584 2631 3529 
Q 2884 3475 3122 3366 
z
" transform="scale(0.015625)"/>
       <path id="DejaVuSans-53" d="M 3425 4513 
L 3425 3897 
Q 3066 4069 2747 4153 
Q 2428 4238 2131 4238 
Q 1616 4238 1336 4038 
Q 1056 3838 1056 3469 
Q 1056 3159 1242 3001 
Q 1428 2844 1947 2747 
L 2328 2669 
Q 3034 2534 3370 2195 
Q 3706 1856 3706 1288 
Q 3706 609 3251 259 
Q 2797 -91 1919 -91 
Q 1588 -91 1214 -16 
Q 841 59 441 206 
L 441 856 
Q 825 641 1194 531 
Q 1563 422 1919 422 
Q 2459 422 2753 634 
Q 3047 847 3047 1241 
Q 3047 1584 2836 1778 
Q 2625 1972 2144 2069 
L 1759 2144 
Q 1053 2284 737 2584 
Q 422 2884 422 3419 
Q 422 4038 858 4394 
Q 1294 4750 2059 4750 
Q 2388 4750 2728 4690 
Q 3069 4631 3425 4513 
z
" transform="scale(0.015625)"/>
       <path id="DejaVuSans-6c" d="M 603 4863 
L 1178 4863 
L 1178 0 
L 603 0 
L 603 4863 
z
" transform="scale(0.015625)"/>
      </defs>
      <use xlink:href="#DejaVuSans-45"/>
      <use xlink:href="#DejaVuSans-78" x="63.183594"/>
      <use xlink:href="#DejaVuSans-61" x="122.363281"/>
      <use xlink:href="#DejaVuSans-63" x="183.642578"/>
      <use xlink:href="#DejaVuSans-74" x="238.623047"/>
      <use xlink:href="#DejaVuSans-20" x="277.832031"/>
      <use xlink:href="#DejaVuSans-53" x="309.619141"/>
      <use xlink:href="#DejaVuSans-6f" x="373.095703"/>
      <use xlink:href="#DejaVuSans-6c" x="434.277344"/>
      <use xlink:href="#DejaVuSans-2e" x="462.060547"/>
     </g>
    </g>
    <g id="line2d_52">
     <path d="M 1949.698125 77.153125 
L 1969.698125 77.153125 
L 1989.698125 77.153125 
" style="fill: none; stroke: #ff7f0e; stroke-width: 1.5; stroke-linecap: square"/>
    </g>
    <g id="text_43">
     <!-- N -->
     <g transform="translate(2005.698125 84.153125) scale(0.2 -0.2)">
      <defs>
       <path id="DejaVuSans-4e" d="M 628 4666 
L 1478 4666 
L 3547 763 
L 3547 4666 
L 4159 4666 
L 4159 0 
L 3309 0 
L 1241 3903 
L 1241 0 
L 628 0 
L 628 4666 
z
" transform="scale(0.015625)"/>
      </defs>
      <use xlink:href="#DejaVuSans-4e"/>
     </g>
    </g>
    <g id="line2d_53">
     <path d="M 1949.698125 106.509375 
L 1969.698125 106.509375 
L 1989.698125 106.509375 
" style="fill: none; stroke: #2ca02c; stroke-width: 1.5; stroke-linecap: square"/>
    </g>
    <g id="text_44">
     <!-- LDA -->
     <g transform="translate(2005.698125 113.509375) scale(0.2 -0.2)">
      <defs>
       <path id="DejaVuSans-4c" d="M 628 4666 
L 1259 4666 
L 1259 531 
L 3531 531 
L 3531 0 
L 628 0 
L 628 4666 
z
" transform="scale(0.015625)"/>
       <path id="DejaVuSans-44" d="M 1259 4147 
L 1259 519 
L 2022 519 
Q 2988 519 3436 956 
Q 3884 1394 3884 2338 
Q 3884 3275 3436 3711 
Q 2988 4147 2022 4147 
L 1259 4147 
z
M 628 4666 
L 1925 4666 
Q 3281 4666 3915 4102 
Q 4550 3538 4550 2338 
Q 4550 1131 3912 565 
Q 3275 0 1925 0 
L 628 0 
L 628 4666 
z
" transform="scale(0.015625)"/>
       <path id="DejaVuSans-41" d="M 2188 4044 
L 1331 1722 
L 3047 1722 
L 2188 4044 
z
M 1831 4666 
L 2547 4666 
L 4325 0 
L 3669 0 
L 3244 1197 
L 1141 1197 
L 716 0 
L 50 0 
L 1831 4666 
z
" transform="scale(0.015625)"/>
      </defs>
      <use xlink:href="#DejaVuSans-4c"/>
      <use xlink:href="#DejaVuSans-44" x="55.712891"/>
      <use xlink:href="#DejaVuSans-41" x="130.964844"/>
     </g>
    </g>
    <g id="line2d_54">
     <path d="M 1949.698125 135.865625 
L 1969.698125 135.865625 
L 1989.698125 135.865625 
" style="fill: none; stroke: #d62728; stroke-width: 1.5; stroke-linecap: square"/>
    </g>
    <g id="text_45">
     <!-- B -->
     <g transform="translate(2005.698125 142.865625) scale(0.2 -0.2)">
      <defs>
       <path id="DejaVuSans-42" d="M 1259 2228 
L 1259 519 
L 2272 519 
Q 2781 519 3026 730 
Q 3272 941 3272 1375 
Q 3272 1813 3026 2020 
Q 2781 2228 2272 2228 
L 1259 2228 
z
M 1259 4147 
L 1259 2741 
L 2194 2741 
Q 2656 2741 2882 2914 
Q 3109 3088 3109 3444 
Q 3109 3797 2882 3972 
Q 2656 4147 2194 4147 
L 1259 4147 
z
M 628 4666 
L 2241 4666 
Q 2963 4666 3353 4366 
Q 3744 4066 3744 3513 
Q 3744 3084 3544 2831 
Q 3344 2578 2956 2516 
Q 3422 2416 3680 2098 
Q 3938 1781 3938 1306 
Q 3938 681 3513 340 
Q 3088 0 2303 0 
L 628 0 
L 628 4666 
z
" transform="scale(0.015625)"/>
      </defs>
      <use xlink:href="#DejaVuSans-42"/>
     </g>
    </g>
    <g id="line2d_55">
     <path d="M 1949.698125 165.221875 
L 1969.698125 165.221875 
L 1989.698125 165.221875 
" style="fill: none; stroke: #9467bd; stroke-width: 1.5; stroke-linecap: square"/>
    </g>
    <g id="text_46">
     <!-- Bx -->
     <g transform="translate(2005.698125 172.221875) scale(0.2 -0.2)">
      <use xlink:href="#DejaVuSans-42"/>
      <use xlink:href="#DejaVuSans-78" x="68.603516"/>
     </g>
    </g>
   </g>
  </g>
 </g>
 <defs>
  <clipPath id="p0ddd5c7ae3">
   <rect x="84.71" y="21.6" width="611.296" height="625.48"/>
  </clipPath>
  <clipPath id="pcc7e5b45ff">
   <rect x="797.942" y="21.6" width="611.296" height="625.48"/>
  </clipPath>
  <clipPath id="p5957d64aab">
   <rect x="1511.174" y="21.6" width="611.296" height="625.48"/>
  </clipPath>
 </defs>
</svg>
