<?xml version="1.0" encoding="utf-8" standalone="no"?>
<!DOCTYPE svg PUBLIC "-//W3C//DTD SVG 1.1//EN"
  "http://www.w3.org/Graphics/SVG/1.1/DTD/svg11.dtd">
<svg xmlns:xlink="http://www.w3.org/1999/xlink" width="2160pt" height="720pt" viewBox="0 0 2160 720" xmlns="http://www.w3.org/2000/svg" version="1.1">
 <metadata>
  <rdf:RDF xmlns:dc="http://purl.org/dc/elements/1.1/" xmlns:cc="http://creativecommons.org/ns#" xmlns:rdf="http://www.w3.org/1999/02/22-rdf-syntax-ns#">
   <cc:Work>
    <dc:type rdf:resource="http://purl.org/dc/dcmitype/StillImage"/>
    <dc:date>2023-06-26T23:50:39.404455</dc:date>
    <dc:format>image/svg+xml</dc:format>
    <dc:creator>
     <cc:Agent>
      <dc:title>Matplotlib v3.7.1, https://matplotlib.org/</dc:title>
     </cc:Agent>
    </dc:creator>
   </cc:Work>
  </rdf:RDF>
 </metadata>
 <defs>
  <style type="text/css">*{stroke-linejoin: round; stroke-linecap: butt}</style>
 </defs>
 <g id="figure_1">
  <g id="patch_1">
   <path d="M 0 720 
L 2160 720 
L 2160 0 
L 0 0 
z
" style="fill: #ffffff"/>
  </g>
  <g id="axes_1">
   <g id="patch_2">
    <path d="M 84.71 647.08 
L 696.006 647.08 
L 696.006 21.6 
L 84.71 21.6 
z
" style="fill: #ffffff"/>
   </g>
   <g id="matplotlib.axis_1">
    <g id="xtick_1">
     <g id="line2d_1">
      <defs>
       <path id="m8a68cf0299" d="M 0 0 
L 0 3.5 
" style="stroke: #000000; stroke-width: 0.8"/>
      </defs>
      <g>
       <use xlink:href="#m8a68cf0299" x="84.71" y="647.08" style="stroke: #000000; stroke-width: 0.8"/>
      </g>
     </g>
     <g id="text_1">
      <!-- 1.0 -->
      <g transform="translate(68.806875 669.276875) scale(0.2 -0.2)">
       <defs>
        <path id="DejaVuSans-31" d="M 794 531 
L 1825 531 
L 1825 4091 
L 703 3866 
L 703 4441 
L 1819 4666 
L 2450 4666 
L 2450 531 
L 3481 531 
L 3481 0 
L 794 0 
L 794 531 
z
" transform="scale(0.015625)"/>
        <path id="DejaVuSans-2e" d="M 684 794 
L 1344 794 
L 1344 0 
L 684 0 
L 684 794 
z
" transform="scale(0.015625)"/>
        <path id="DejaVuSans-30" d="M 2034 4250 
Q 1547 4250 1301 3770 
Q 1056 3291 1056 2328 
Q 1056 1369 1301 889 
Q 1547 409 2034 409 
Q 2525 409 2770 889 
Q 3016 1369 3016 2328 
Q 3016 3291 2770 3770 
Q 2525 4250 2034 4250 
z
M 2034 4750 
Q 2819 4750 3233 4129 
Q 3647 3509 3647 2328 
Q 3647 1150 3233 529 
Q 2819 -91 2034 -91 
Q 1250 -91 836 529 
Q 422 1150 422 2328 
Q 422 3509 836 4129 
Q 1250 4750 2034 4750 
z
" transform="scale(0.015625)"/>
       </defs>
       <use xlink:href="#DejaVuSans-31"/>
       <use xlink:href="#DejaVuSans-2e" x="63.623047"/>
       <use xlink:href="#DejaVuSans-30" x="95.410156"/>
      </g>
     </g>
    </g>
    <g id="xtick_2">
     <g id="line2d_2">
      <g>
       <use xlink:href="#m8a68cf0299" x="206.9692" y="647.08" style="stroke: #000000; stroke-width: 0.8"/>
      </g>
     </g>
     <g id="text_2">
      <!-- 1.2 -->
      <g transform="translate(191.066075 669.276875) scale(0.2 -0.2)">
       <defs>
        <path id="DejaVuSans-32" d="M 1228 531 
L 3431 531 
L 3431 0 
L 469 0 
L 469 531 
Q 828 903 1448 1529 
Q 2069 2156 2228 2338 
Q 2531 2678 2651 2914 
Q 2772 3150 2772 3378 
Q 2772 3750 2511 3984 
Q 2250 4219 1831 4219 
Q 1534 4219 1204 4116 
Q 875 4013 500 3803 
L 500 4441 
Q 881 4594 1212 4672 
Q 1544 4750 1819 4750 
Q 2544 4750 2975 4387 
Q 3406 4025 3406 3419 
Q 3406 3131 3298 2873 
Q 3191 2616 2906 2266 
Q 2828 2175 2409 1742 
Q 1991 1309 1228 531 
z
" transform="scale(0.015625)"/>
       </defs>
       <use xlink:href="#DejaVuSans-31"/>
       <use xlink:href="#DejaVuSans-2e" x="63.623047"/>
       <use xlink:href="#DejaVuSans-32" x="95.410156"/>
      </g>
     </g>
    </g>
    <g id="xtick_3">
     <g id="line2d_3">
      <g>
       <use xlink:href="#m8a68cf0299" x="329.2284" y="647.08" style="stroke: #000000; stroke-width: 0.8"/>
      </g>
     </g>
     <g id="text_3">
      <!-- 1.4 -->
      <g transform="translate(313.325275 669.276875) scale(0.2 -0.2)">
       <defs>
        <path id="DejaVuSans-34" d="M 2419 4116 
L 825 1625 
L 2419 1625 
L 2419 4116 
z
M 2253 4666 
L 3047 4666 
L 3047 1625 
L 3713 1625 
L 3713 1100 
L 3047 1100 
L 3047 0 
L 2419 0 
L 2419 1100 
L 313 1100 
L 313 1709 
L 2253 4666 
z
" transform="scale(0.015625)"/>
       </defs>
       <use xlink:href="#DejaVuSans-31"/>
       <use xlink:href="#DejaVuSans-2e" x="63.623047"/>
       <use xlink:href="#DejaVuSans-34" x="95.410156"/>
      </g>
     </g>
    </g>
    <g id="xtick_4">
     <g id="line2d_4">
      <g>
       <use xlink:href="#m8a68cf0299" x="451.4876" y="647.08" style="stroke: #000000; stroke-width: 0.8"/>
      </g>
     </g>
     <g id="text_4">
      <!-- 1.6 -->
      <g transform="translate(435.584475 669.276875) scale(0.2 -0.2)">
       <defs>
        <path id="DejaVuSans-36" d="M 2113 2584 
Q 1688 2584 1439 2293 
Q 1191 2003 1191 1497 
Q 1191 994 1439 701 
Q 1688 409 2113 409 
Q 2538 409 2786 701 
Q 3034 994 3034 1497 
Q 3034 2003 2786 2293 
Q 2538 2584 2113 2584 
z
M 3366 4563 
L 3366 3988 
Q 3128 4100 2886 4159 
Q 2644 4219 2406 4219 
Q 1781 4219 1451 3797 
Q 1122 3375 1075 2522 
Q 1259 2794 1537 2939 
Q 1816 3084 2150 3084 
Q 2853 3084 3261 2657 
Q 3669 2231 3669 1497 
Q 3669 778 3244 343 
Q 2819 -91 2113 -91 
Q 1303 -91 875 529 
Q 447 1150 447 2328 
Q 447 3434 972 4092 
Q 1497 4750 2381 4750 
Q 2619 4750 2861 4703 
Q 3103 4656 3366 4563 
z
" transform="scale(0.015625)"/>
       </defs>
       <use xlink:href="#DejaVuSans-31"/>
       <use xlink:href="#DejaVuSans-2e" x="63.623047"/>
       <use xlink:href="#DejaVuSans-36" x="95.410156"/>
      </g>
     </g>
    </g>
    <g id="xtick_5">
     <g id="line2d_5">
      <g>
       <use xlink:href="#m8a68cf0299" x="573.7468" y="647.08" style="stroke: #000000; stroke-width: 0.8"/>
      </g>
     </g>
     <g id="text_5">
      <!-- 1.8 -->
      <g transform="translate(557.843675 669.276875) scale(0.2 -0.2)">
       <defs>
        <path id="DejaVuSans-38" d="M 2034 2216 
Q 1584 2216 1326 1975 
Q 1069 1734 1069 1313 
Q 1069 891 1326 650 
Q 1584 409 2034 409 
Q 2484 409 2743 651 
Q 3003 894 3003 1313 
Q 3003 1734 2745 1975 
Q 2488 2216 2034 2216 
z
M 1403 2484 
Q 997 2584 770 2862 
Q 544 3141 544 3541 
Q 544 4100 942 4425 
Q 1341 4750 2034 4750 
Q 2731 4750 3128 4425 
Q 3525 4100 3525 3541 
Q 3525 3141 3298 2862 
Q 3072 2584 2669 2484 
Q 3125 2378 3379 2068 
Q 3634 1759 3634 1313 
Q 3634 634 3220 271 
Q 2806 -91 2034 -91 
Q 1263 -91 848 271 
Q 434 634 434 1313 
Q 434 1759 690 2068 
Q 947 2378 1403 2484 
z
M 1172 3481 
Q 1172 3119 1398 2916 
Q 1625 2713 2034 2713 
Q 2441 2713 2670 2916 
Q 2900 3119 2900 3481 
Q 2900 3844 2670 4047 
Q 2441 4250 2034 4250 
Q 1625 4250 1398 4047 
Q 1172 3844 1172 3481 
z
" transform="scale(0.015625)"/>
       </defs>
       <use xlink:href="#DejaVuSans-31"/>
       <use xlink:href="#DejaVuSans-2e" x="63.623047"/>
       <use xlink:href="#DejaVuSans-38" x="95.410156"/>
      </g>
     </g>
    </g>
    <g id="xtick_6">
     <g id="line2d_6">
      <g>
       <use xlink:href="#m8a68cf0299" x="696.006" y="647.08" style="stroke: #000000; stroke-width: 0.8"/>
      </g>
     </g>
     <g id="text_6">
      <!-- 2.0 -->
      <g transform="translate(680.102875 669.276875) scale(0.2 -0.2)">
       <use xlink:href="#DejaVuSans-32"/>
       <use xlink:href="#DejaVuSans-2e" x="63.623047"/>
       <use xlink:href="#DejaVuSans-30" x="95.410156"/>
      </g>
     </g>
    </g>
    <g id="text_7">
     <!-- Position $x$ -->
     <g transform="translate(341.958 692.633125) scale(0.2 -0.2)">
      <defs>
       <path id="DejaVuSans-50" d="M 1259 4147 
L 1259 2394 
L 2053 2394 
Q 2494 2394 2734 2622 
Q 2975 2850 2975 3272 
Q 2975 3691 2734 3919 
Q 2494 4147 2053 4147 
L 1259 4147 
z
M 628 4666 
L 2053 4666 
Q 2838 4666 3239 4311 
Q 3641 3956 3641 3272 
Q 3641 2581 3239 2228 
Q 2838 1875 2053 1875 
L 1259 1875 
L 1259 0 
L 628 0 
L 628 4666 
z
" transform="scale(0.015625)"/>
       <path id="DejaVuSans-6f" d="M 1959 3097 
Q 1497 3097 1228 2736 
Q 959 2375 959 1747 
Q 959 1119 1226 758 
Q 1494 397 1959 397 
Q 2419 397 2687 759 
Q 2956 1122 2956 1747 
Q 2956 2369 2687 2733 
Q 2419 3097 1959 3097 
z
M 1959 3584 
Q 2709 3584 3137 3096 
Q 3566 2609 3566 1747 
Q 3566 888 3137 398 
Q 2709 -91 1959 -91 
Q 1206 -91 779 398 
Q 353 888 353 1747 
Q 353 2609 779 3096 
Q 1206 3584 1959 3584 
z
" transform="scale(0.015625)"/>
       <path id="DejaVuSans-73" d="M 2834 3397 
L 2834 2853 
Q 2591 2978 2328 3040 
Q 2066 3103 1784 3103 
Q 1356 3103 1142 2972 
Q 928 2841 928 2578 
Q 928 2378 1081 2264 
Q 1234 2150 1697 2047 
L 1894 2003 
Q 2506 1872 2764 1633 
Q 3022 1394 3022 966 
Q 3022 478 2636 193 
Q 2250 -91 1575 -91 
Q 1294 -91 989 -36 
Q 684 19 347 128 
L 347 722 
Q 666 556 975 473 
Q 1284 391 1588 391 
Q 1994 391 2212 530 
Q 2431 669 2431 922 
Q 2431 1156 2273 1281 
Q 2116 1406 1581 1522 
L 1381 1569 
Q 847 1681 609 1914 
Q 372 2147 372 2553 
Q 372 3047 722 3315 
Q 1072 3584 1716 3584 
Q 2034 3584 2315 3537 
Q 2597 3491 2834 3397 
z
" transform="scale(0.015625)"/>
       <path id="DejaVuSans-69" d="M 603 3500 
L 1178 3500 
L 1178 0 
L 603 0 
L 603 3500 
z
M 603 4863 
L 1178 4863 
L 1178 4134 
L 603 4134 
L 603 4863 
z
" transform="scale(0.015625)"/>
       <path id="DejaVuSans-74" d="M 1172 4494 
L 1172 3500 
L 2356 3500 
L 2356 3053 
L 1172 3053 
L 1172 1153 
Q 1172 725 1289 603 
Q 1406 481 1766 481 
L 2356 481 
L 2356 0 
L 1766 0 
Q 1100 0 847 248 
Q 594 497 594 1153 
L 594 3053 
L 172 3053 
L 172 3500 
L 594 3500 
L 594 4494 
L 1172 4494 
z
" transform="scale(0.015625)"/>
       <path id="DejaVuSans-6e" d="M 3513 2113 
L 3513 0 
L 2938 0 
L 2938 2094 
Q 2938 2591 2744 2837 
Q 2550 3084 2163 3084 
Q 1697 3084 1428 2787 
Q 1159 2491 1159 1978 
L 1159 0 
L 581 0 
L 581 3500 
L 1159 3500 
L 1159 2956 
Q 1366 3272 1645 3428 
Q 1925 3584 2291 3584 
Q 2894 3584 3203 3211 
Q 3513 2838 3513 2113 
z
" transform="scale(0.015625)"/>
       <path id="DejaVuSans-20" transform="scale(0.015625)"/>
       <path id="DejaVuSans-Oblique-78" d="M 3841 3500 
L 2234 1784 
L 3219 0 
L 2559 0 
L 1819 1388 
L 531 0 
L -166 0 
L 1556 1844 
L 641 3500 
L 1300 3500 
L 1972 2234 
L 3144 3500 
L 3841 3500 
z
" transform="scale(0.015625)"/>
      </defs>
      <use xlink:href="#DejaVuSans-50" transform="translate(0 0.015625)"/>
      <use xlink:href="#DejaVuSans-6f" transform="translate(60.302734 0.015625)"/>
      <use xlink:href="#DejaVuSans-73" transform="translate(121.484375 0.015625)"/>
      <use xlink:href="#DejaVuSans-69" transform="translate(173.583984 0.015625)"/>
      <use xlink:href="#DejaVuSans-74" transform="translate(201.367188 0.015625)"/>
      <use xlink:href="#DejaVuSans-69" transform="translate(240.576172 0.015625)"/>
      <use xlink:href="#DejaVuSans-6f" transform="translate(268.359375 0.015625)"/>
      <use xlink:href="#DejaVuSans-6e" transform="translate(329.541016 0.015625)"/>
      <use xlink:href="#DejaVuSans-20" transform="translate(392.919922 0.015625)"/>
      <use xlink:href="#DejaVuSans-Oblique-78" transform="translate(424.707031 0.015625)"/>
     </g>
    </g>
   </g>
   <g id="matplotlib.axis_2">
    <g id="ytick_1">
     <g id="line2d_7">
      <defs>
       <path id="m6a43e5016d" d="M 0 0 
L -3.5 0 
" style="stroke: #000000; stroke-width: 0.8"/>
      </defs>
      <g>
       <use xlink:href="#m6a43e5016d" x="84.71" y="647.08" style="stroke: #000000; stroke-width: 0.8"/>
      </g>
     </g>
     <g id="text_8">
      <!-- 0.0 -->
      <g transform="translate(45.90375 654.678437) scale(0.2 -0.2)">
       <use xlink:href="#DejaVuSans-30"/>
       <use xlink:href="#DejaVuSans-2e" x="63.623047"/>
       <use xlink:href="#DejaVuSans-30" x="95.410156"/>
      </g>
     </g>
    </g>
    <g id="ytick_2">
     <g id="line2d_8">
      <g>
       <use xlink:href="#m6a43e5016d" x="84.71" y="527.227545" style="stroke: #000000; stroke-width: 0.8"/>
      </g>
     </g>
     <g id="text_9">
      <!-- 0.2 -->
      <g transform="translate(45.90375 534.825982) scale(0.2 -0.2)">
       <use xlink:href="#DejaVuSans-30"/>
       <use xlink:href="#DejaVuSans-2e" x="63.623047"/>
       <use xlink:href="#DejaVuSans-32" x="95.410156"/>
      </g>
     </g>
    </g>
    <g id="ytick_3">
     <g id="line2d_9">
      <g>
       <use xlink:href="#m6a43e5016d" x="84.71" y="407.37509" style="stroke: #000000; stroke-width: 0.8"/>
      </g>
     </g>
     <g id="text_10">
      <!-- 0.4 -->
      <g transform="translate(45.90375 414.973527) scale(0.2 -0.2)">
       <use xlink:href="#DejaVuSans-30"/>
       <use xlink:href="#DejaVuSans-2e" x="63.623047"/>
       <use xlink:href="#DejaVuSans-34" x="95.410156"/>
      </g>
     </g>
    </g>
    <g id="ytick_4">
     <g id="line2d_10">
      <g>
       <use xlink:href="#m6a43e5016d" x="84.71" y="287.522635" style="stroke: #000000; stroke-width: 0.8"/>
      </g>
     </g>
     <g id="text_11">
      <!-- 0.6 -->
      <g transform="translate(45.90375 295.121072) scale(0.2 -0.2)">
       <use xlink:href="#DejaVuSans-30"/>
       <use xlink:href="#DejaVuSans-2e" x="63.623047"/>
       <use xlink:href="#DejaVuSans-36" x="95.410156"/>
      </g>
     </g>
    </g>
    <g id="ytick_5">
     <g id="line2d_11">
      <g>
       <use xlink:href="#m6a43e5016d" x="84.71" y="167.67018" style="stroke: #000000; stroke-width: 0.8"/>
      </g>
     </g>
     <g id="text_12">
      <!-- 0.8 -->
      <g transform="translate(45.90375 175.268617) scale(0.2 -0.2)">
       <use xlink:href="#DejaVuSans-30"/>
       <use xlink:href="#DejaVuSans-2e" x="63.623047"/>
       <use xlink:href="#DejaVuSans-38" x="95.410156"/>
      </g>
     </g>
    </g>
    <g id="ytick_6">
     <g id="line2d_12">
      <g>
       <use xlink:href="#m6a43e5016d" x="84.71" y="47.817725" style="stroke: #000000; stroke-width: 0.8"/>
      </g>
     </g>
     <g id="text_13">
      <!-- 1.0 -->
      <g transform="translate(45.90375 55.416162) scale(0.2 -0.2)">
       <use xlink:href="#DejaVuSans-31"/>
       <use xlink:href="#DejaVuSans-2e" x="63.623047"/>
       <use xlink:href="#DejaVuSans-30" x="95.410156"/>
      </g>
     </g>
    </g>
    <g id="text_14">
     <!-- $\rho$ -->
     <g transform="translate(37.70375 340.74) rotate(-90) scale(0.2 -0.2)">
      <defs>
       <path id="DejaVuSans-Oblique-3c1" d="M 1203 2875 
Q 1453 3194 1981 3475 
Q 2188 3584 2756 3584 
Q 3394 3584 3694 3078 
Q 3994 2572 3834 1747 
Q 3672 922 3175 415 
Q 2678 -91 2041 -91 
Q 1656 -91 1409 63 
Q 1163 213 1044 525 
L 681 -1331 
L 103 -1331 
L 697 1716 
Q 838 2438 1203 2875 
z
M 3238 1747 
Q 3359 2381 3169 2744 
Q 2978 3103 2522 3103 
Q 2066 3103 1734 2744 
Q 1403 2381 1281 1747 
Q 1156 1113 1347 750 
Q 1538 391 1994 391 
Q 2450 391 2781 750 
Q 3113 1113 3238 1747 
z
" transform="scale(0.015625)"/>
      </defs>
      <use xlink:href="#DejaVuSans-Oblique-3c1"/>
     </g>
    </g>
   </g>
   <g id="line2d_13">
    <path d="M -1 47.817725 
L 224.800704 47.817725 
L 224.800704 47.817725 
L 237.534 63.793559 
L 237.534 63.793559 
L 250.267296 98.540044 
L 250.267296 98.540044 
L 263.006704 131.894149 
L 263.006704 131.894149 
L 275.74 163.852999 
L 275.74 163.852999 
L 288.473296 194.462061 
L 288.473296 194.462061 
L 301.212704 223.764204 
L 301.212704 223.764204 
L 313.946 251.760444 
L 313.946 251.760444 
L 326.679296 278.49428 
L 326.679296 278.49428 
L 339.418704 304.006786 
L 339.418704 304.006786 
L 352.152 328.302614 
L 352.152 328.302614 
L 364.885296 351.423422 
L 364.885296 351.423422 
L 377.624704 359.620443 
L 377.624704 359.620443 
L 492.242704 359.620443 
L 492.242704 359.620443 
L 504.976 509.366084 
L 504.976 509.366084 
L 606.860704 509.366084 
L 606.860704 509.366084 
L 619.594 572.172216 
L 619.594 572.172216 
L 683.272704 572.172216 
L 683.272704 572.172216 
" clip-path="url(#p2835b58556)" style="fill: none; stroke: #1f77b4; stroke-width: 1.5; stroke-linecap: square"/>
   </g>
   <g id="line2d_14">
    <path d="M -1 59.88448 
L 8.298 56.569351 
L 8.298 56.569351 
L 21.03313 53.362099 
L 21.03313 53.362099 
L 33.76887 51.201159 
L 33.76887 51.201159 
L 46.504 49.819261 
L 46.504 49.819261 
L 59.23913 48.995275 
L 59.23913 48.995275 
L 71.97487 48.566802 
L 71.97487 48.566802 
L 84.71 48.434365 
L 84.71 48.434365 
L 97.443296 48.566802 
L 97.443296 48.566802 
L 110.182704 48.995275 
L 110.182704 48.995275 
L 122.916 49.819261 
L 122.916 49.819261 
L 135.649296 51.201159 
L 135.649296 51.201159 
L 148.388704 53.362099 
L 148.388704 53.362099 
L 161.122 56.569351 
L 161.122 56.569351 
L 173.855296 61.109961 
L 173.855296 61.109961 
L 186.594704 67.263785 
L 186.594704 67.263785 
L 199.328 75.268132 
L 199.328 75.268132 
L 212.061296 85.289595 
L 212.061296 85.289595 
L 224.800704 97.409674 
L 224.800704 97.409674 
L 237.534 111.615186 
L 237.534 111.615186 
L 250.267296 127.809051 
L 250.267296 127.809051 
L 263.006704 145.827669 
L 263.006704 145.827669 
L 275.74 165.452909 
L 275.74 165.452909 
L 288.473296 186.433681 
L 288.473296 186.433681 
L 301.212704 208.511701 
L 301.212704 208.511701 
L 313.946 231.408914 
L 326.679296 254.843664 
L 326.679296 254.843664 
L 352.152 302.085307 
L 352.152 302.085307 
L 364.885296 324.992707 
L 364.885296 324.992707 
L 377.624704 345.999846 
L 377.624704 345.999247 
L 390.358 361.819771 
L 390.358 361.817374 
L 403.091296 367.196951 
L 403.091296 367.189161 
L 415.830704 369.727037 
L 415.830704 369.721044 
L 428.564 374.421058 
L 428.564 374.420459 
L 441.297296 383.296132 
L 441.297296 383.291937 
L 454.036704 397.130102 
L 454.036704 397.116918 
L 466.77 415.28715 
L 466.77 415.264378 
L 492.242704 456.198785 
L 492.242704 456.19459 
L 492.242704 456.162829 
L 504.976 474.121521 
L 504.976 474.087963 
L 517.709296 488.276096 
L 517.709296 488.249129 
L 530.448704 498.413217 
L 530.448704 498.395239 
L 543.182 505.141734 
L 543.182 505.132146 
L 555.915296 509.551705 
L 555.915296 509.54751 
L 581.388 516.31438 
L 581.388 516.31438 
L 594.121296 520.905328 
L 594.121296 520.905328 
L 606.860704 527.419309 
L 606.860704 527.41871 
L 619.594 536.068461 
L 619.594 536.067263 
L 632.327296 546.13427 
L 632.327296 546.131873 
L 645.066704 555.904043 
L 645.066704 555.902245 
L 657.8 563.496096 
L 657.8 563.494898 
L 670.533296 568.117008 
L 670.533296 568.116408 
L 683.272704 570.296525 
L 683.272704 570.296525 
" clip-path="url(#p2835b58556)" style="fill: none; stroke: #ff7f0e; stroke-width: 1.5; stroke-linecap: square"/>
   </g>
   <g id="line2d_15">
    <path d="M -1 69.355972 
L 8.298 65.243672 
L 8.298 65.243672 
L 21.03313 60.746808 
L 21.03313 60.747407 
L 33.76887 57.27708 
L 33.76887 57.27708 
L 46.504 54.722424 
L 46.504 54.722424 
L 59.23913 52.979171 
L 59.23913 52.981568 
L 71.97487 51.970013 
L 71.97487 51.973009 
L 84.71 51.642816 
L 84.71 51.643415 
L 97.443296 51.97241 
L 97.443296 51.971811 
L 110.182704 52.980369 
L 110.182704 52.97977 
L 122.916 54.720027 
L 122.916 54.719428 
L 135.649296 57.275282 
L 148.388704 60.74561 
L 161.122 65.243672 
L 173.855296 70.876138 
L 173.855296 70.876138 
L 186.594704 77.74728 
L 186.594704 77.74728 
L 199.328 85.936199 
L 199.328 85.935599 
L 212.061296 95.502222 
L 212.061296 95.500425 
L 224.800704 106.47831 
L 224.800704 106.477112 
L 237.534 118.869856 
L 237.534 118.869256 
L 250.267296 132.65948 
L 250.267296 132.657083 
L 263.006704 147.799841 
L 263.006704 147.796845 
L 275.74 164.218429 
L 275.74 164.216631 
L 288.473296 181.828949 
L 288.473296 181.82835 
L 301.212704 200.530727 
L 301.212704 200.530727 
L 313.946 220.220088 
L 313.946 220.220088 
L 326.679296 240.789765 
L 326.679296 240.789765 
L 339.418704 262.170844 
L 364.885296 306.284937 
L 377.624704 327.328631 
L 390.358 344.945144 
L 390.358 344.944545 
L 403.091296 357.262381 
L 403.091296 357.258186 
L 415.830704 367.069908 
L 415.830704 367.062117 
L 428.564 377.437145 
L 428.564 377.431152 
L 441.297296 389.454151 
L 441.297296 389.449957 
L 454.036704 403.491271 
L 454.036704 403.487675 
L 466.77 419.117634 
L 466.77 419.114638 
L 492.242704 451.958405 
L 492.242704 451.955409 
L 504.976 467.270755 
L 504.976 467.269556 
L 517.709296 480.796704 
L 517.709296 480.796105 
L 530.448704 492.109577 
L 543.182 501.13986 
L 555.915296 508.147034 
L 568.654704 513.616501 
L 581.388 518.148122 
L 594.121296 522.347153 
L 594.121296 522.346554 
L 606.860704 526.722367 
L 606.860704 526.721168 
L 619.594 531.618939 
L 619.594 531.61774 
L 632.327296 537.166909 
L 632.327296 537.16571 
L 657.8 549.384069 
L 657.8 549.38347 
L 670.533296 554.838554 
L 670.533296 554.837955 
L 683.272704 558.588738 
L 683.272704 558.588738 
" clip-path="url(#p2835b58556)" style="fill: none; stroke: #2ca02c; stroke-width: 1.5; stroke-linecap: square"/>
   </g>
   <g id="line2d_16">
    <path d="M -1 65.85577 
L 8.298 61.917167 
L 8.298 61.917167 
L 21.03313 57.764879 
L 21.03313 57.764879 
L 33.76887 54.667292 
L 46.504 52.444629 
L 46.504 52.444629 
L 59.23913 50.93269 
L 59.23913 50.93269 
L 71.97487 49.980462 
L 71.97487 49.980462 
L 84.71 49.598133 
L 84.71 49.598133 
L 97.443296 49.980462 
L 97.443296 49.980462 
L 110.182704 50.93269 
L 110.182704 50.93269 
L 122.916 52.444629 
L 122.916 52.444629 
L 135.649296 54.667292 
L 135.649296 54.667292 
L 148.388704 57.764879 
L 148.388704 57.764879 
L 161.122 61.942936 
L 173.855296 67.312925 
L 186.594704 74.12414 
L 199.328 82.501827 
L 212.061296 92.553852 
L 212.061296 92.545462 
L 224.800704 104.359319 
L 237.534 117.897253 
L 237.534 117.837926 
L 250.267296 133.126305 
L 250.267296 133.104732 
L 263.006704 149.979957 
L 263.006704 149.890068 
L 275.74 168.413265 
L 275.74 168.314986 
L 288.473296 188.093038 
L 288.473296 187.865318 
L 288.473296 188.235662 
L 288.473296 187.938428 
L 301.212704 209.102574 
L 301.212704 208.524286 
L 301.212704 209.193662 
L 301.212704 208.699271 
L 313.946 230.934298 
L 313.946 231.376554 
L 313.946 230.302076 
L 326.679296 253.054866 
L 326.679296 253.833907 
L 326.679296 252.727669 
L 339.418704 278.000956 
L 339.418704 274.48868 
L 339.418704 276.455459 
L 352.152 298.660523 
L 352.152 299.887213 
L 352.152 298.015717 
L 352.152 298.203286 
L 364.885296 318.898809 
L 364.885296 322.69154 
L 364.885296 318.774162 
L 377.624704 337.044471 
L 377.624704 341.698941 
L 377.624704 336.049096 
L 390.358 348.869114 
L 390.358 358.659262 
L 390.358 348.675552 
L 403.091296 356.202286 
L 403.091296 360.892712 
L 403.091296 358.471093 
L 415.830704 363.148935 
L 415.830704 365.109721 
L 415.830704 364.742373 
L 428.564 371.786102 
L 428.564 371.627297 
L 428.564 372.339221 
L 441.297296 383.312312 
L 441.297296 382.670503 
L 441.297296 383.448345 
L 441.297296 383.334485 
L 454.036704 398.337016 
L 454.036704 397.678427 
L 454.036704 398.401137 
L 454.036704 398.153642 
L 466.77 416.283723 
L 466.77 415.695847 
L 466.77 416.319079 
L 466.77 416.07458 
L 479.503296 435.714203 
L 479.503296 435.259962 
L 479.503296 435.732181 
L 479.503296 435.541016 
L 492.242704 454.795313 
L 492.242704 454.4813 
L 492.242704 454.801306 
L 492.242704 454.66767 
L 504.976 471.877284 
L 504.976 471.687318 
L 504.976 471.88028 
L 504.976 471.793987 
L 517.709296 485.894628 
L 517.709296 485.849683 
L 530.448704 496.457225 
L 530.448704 496.437449 
L 543.182 503.794592 
L 543.182 503.773618 
L 555.915296 508.511985 
L 555.915296 508.503595 
L 568.654704 511.639535 
L 568.654704 511.625752 
L 581.388 514.457266 
L 581.388 514.452472 
L 594.121296 518.035461 
L 594.121296 518.020479 
L 606.860704 522.995555 
L 606.860704 522.957202 
L 619.594 529.542495 
L 619.594 529.494554 
L 632.327296 537.422794 
L 645.066704 545.974267 
L 657.8 554.144609 
L 657.8 554.144609 
L 670.533296 560.847357 
L 670.533296 560.845559 
L 683.272704 565.364596 
L 683.272704 565.363997 
" clip-path="url(#p2835b58556)" style="fill: none; stroke: #d62728; stroke-width: 1.5; stroke-linecap: square"/>
   </g>
   <g id="line2d_17">
    <path d="M -1 65.478199 
L 8.298 61.545625 
L 8.298 61.655889 
L 8.298 61.700834 
L 21.03313 57.539556 
L 21.03313 57.682181 
L 21.03313 57.69896 
L 33.76887 54.583396 
L 46.504 52.376313 
L 59.23913 50.866771 
L 59.23913 50.963252 
L 59.23913 51.002204 
L 59.23913 50.971642 
L 71.97487 50.027804 
L 71.97487 50.118892 
L 84.71 49.654463 
L 84.71 49.759334 
L 97.443296 49.700607 
L 97.443296 49.753941 
L 97.443296 49.913345 
L 110.182704 50.399346 
L 110.182704 50.579125 
L 122.916 51.617047 
L 122.916 51.920873 
L 135.649296 53.45858 
L 135.649296 53.936192 
L 148.388704 56.01803 
L 148.388704 56.814449 
L 161.122 59.98994 
L 161.122 60.751003 
L 173.855296 65.323973 
L 173.855296 65.803383 
L 186.594704 71.888292 
L 186.594704 72.498341 
L 199.328 80.034064 
L 199.328 80.339688 
L 212.061296 89.893127 
L 212.061296 90.369541 
L 212.061296 90.358754 
L 224.800704 101.608705 
L 224.800704 101.315066 
L 224.800704 101.928112 
L 237.534 114.992029 
L 237.534 114.245349 
L 237.534 115.055551 
L 237.534 115.008809 
L 250.267296 129.59665 
L 250.267296 129.332376 
L 250.267296 129.87291 
L 263.006704 146.154866 
L 263.006704 145.296723 
L 263.006704 145.484292 
L 275.74 163.32433 
L 275.74 163.277587 
L 275.74 162.507535 
L 275.74 163.744412 
L 288.473296 183.707037 
L 288.473296 181.803181 
L 288.473296 182.593009 
L 301.212704 203.724195 
L 301.212704 201.590821 
L 301.212704 202.443572 
L 313.946 223.377002 
L 313.946 223.281719 
L 313.946 221.775173 
L 313.946 223.465692 
L 313.946 223.06958 
L 326.679296 246.950182 
L 326.679296 242.090165 
L 339.418704 270.158411 
L 339.418704 265.702896 
L 339.418704 265.936009 
L 352.152 293.265365 
L 352.152 289.13525 
L 364.885296 316.904464 
L 364.885296 311.769386 
L 364.885296 312.040851 
L 377.624704 335.062111 
L 377.624704 335.044133 
L 377.624704 335.319794 
L 377.624704 332.23599 
L 390.358 348.81578 
L 390.358 350.938367 
L 403.091296 360.473229 
L 403.091296 362.646753 
L 403.091296 362.60061 
L 415.830704 367.147812 
L 415.830704 370.792525 
L 428.564 374.883089 
L 428.564 379.426696 
L 428.564 379.016201 
L 441.297296 386.90489 
L 441.297296 390.616121 
L 441.297296 389.825095 
L 454.036704 401.918208 
L 454.036704 404.194805 
L 454.036704 402.575598 
L 466.77 419.254865 
L 466.77 420.461779 
L 466.77 417.492435 
L 479.503296 437.82061 
L 479.503296 438.78722 
L 479.503296 433.933795 
L 492.242704 456.531376 
L 492.242704 456.913106 
L 492.242704 450.666396 
L 504.976 472.881648 
L 504.976 466.668496 
L 517.709296 486.894797 
L 517.709296 480.790711 
L 530.448704 498.003322 
L 530.448704 492.780152 
L 543.182 505.678673 
L 543.182 502.225724 
L 555.915296 510.877872 
L 555.915296 509.237092 
L 568.654704 515.016977 
L 568.654704 515.313612 
L 568.654704 514.583111 
L 568.654704 514.634647 
L 581.388 518.424382 
L 581.388 519.85542 
L 581.388 519.308294 
L 594.121296 522.898474 
L 594.121296 524.62435 
L 594.121296 524.002915 
L 606.860704 528.867126 
L 606.860704 529.791788 
L 606.860704 529.296198 
L 619.594 535.77722 
L 619.594 536.489743 
L 619.594 536.181123 
L 632.327296 544.33109 
L 632.327296 544.328093 
L 632.327296 544.10337 
L 645.066704 552.653644 
L 645.066704 552.837018 
L 645.066704 552.416336 
L 657.8 560.284051 
L 657.8 560.517763 
L 657.8 560.266672 
L 670.533296 565.518007 
L 670.533296 565.465871 
L 683.272704 568.312367 
L 683.272704 568.294389 
L 683.272704 567.958803 
L 683.272704 567.958803 
" clip-path="url(#p2835b58556)" style="fill: none; stroke: #9467bd; stroke-width: 1.5; stroke-linecap: square"/>
   </g>
   <g id="patch_3">
    <path d="M 84.71 647.08 
L 84.71 21.6 
" style="fill: none; stroke: #000000; stroke-width: 0.8; stroke-linejoin: miter; stroke-linecap: square"/>
   </g>
   <g id="patch_4">
    <path d="M 696.006 647.08 
L 696.006 21.6 
" style="fill: none; stroke: #000000; stroke-width: 0.8; stroke-linejoin: miter; stroke-linecap: square"/>
   </g>
   <g id="patch_5">
    <path d="M 84.71 647.08 
L 696.006 647.08 
" style="fill: none; stroke: #000000; stroke-width: 0.8; stroke-linejoin: miter; stroke-linecap: square"/>
   </g>
   <g id="patch_6">
    <path d="M 84.71 21.6 
L 696.006 21.6 
" style="fill: none; stroke: #000000; stroke-width: 0.8; stroke-linejoin: miter; stroke-linecap: square"/>
   </g>
  </g>
  <g id="axes_2">
   <g id="patch_7">
    <path d="M 797.942 647.08 
L 1409.238 647.08 
L 1409.238 21.6 
L 797.942 21.6 
z
" style="fill: #ffffff"/>
   </g>
   <g id="matplotlib.axis_3">
    <g id="xtick_7">
     <g id="line2d_18">
      <g>
       <use xlink:href="#m8a68cf0299" x="797.942" y="647.08" style="stroke: #000000; stroke-width: 0.8"/>
      </g>
     </g>
     <g id="text_15">
      <!-- 1.0 -->
      <g transform="translate(782.038875 669.276875) scale(0.2 -0.2)">
       <use xlink:href="#DejaVuSans-31"/>
       <use xlink:href="#DejaVuSans-2e" x="63.623047"/>
       <use xlink:href="#DejaVuSans-30" x="95.410156"/>
      </g>
     </g>
    </g>
    <g id="xtick_8">
     <g id="line2d_19">
      <g>
       <use xlink:href="#m8a68cf0299" x="920.2012" y="647.08" style="stroke: #000000; stroke-width: 0.8"/>
      </g>
     </g>
     <g id="text_16">
      <!-- 1.2 -->
      <g transform="translate(904.298075 669.276875) scale(0.2 -0.2)">
       <use xlink:href="#DejaVuSans-31"/>
       <use xlink:href="#DejaVuSans-2e" x="63.623047"/>
       <use xlink:href="#DejaVuSans-32" x="95.410156"/>
      </g>
     </g>
    </g>
    <g id="xtick_9">
     <g id="line2d_20">
      <g>
       <use xlink:href="#m8a68cf0299" x="1042.4604" y="647.08" style="stroke: #000000; stroke-width: 0.8"/>
      </g>
     </g>
     <g id="text_17">
      <!-- 1.4 -->
      <g transform="translate(1026.557275 669.276875) scale(0.2 -0.2)">
       <use xlink:href="#DejaVuSans-31"/>
       <use xlink:href="#DejaVuSans-2e" x="63.623047"/>
       <use xlink:href="#DejaVuSans-34" x="95.410156"/>
      </g>
     </g>
    </g>
    <g id="xtick_10">
     <g id="line2d_21">
      <g>
       <use xlink:href="#m8a68cf0299" x="1164.7196" y="647.08" style="stroke: #000000; stroke-width: 0.8"/>
      </g>
     </g>
     <g id="text_18">
      <!-- 1.6 -->
      <g transform="translate(1148.816475 669.276875) scale(0.2 -0.2)">
       <use xlink:href="#DejaVuSans-31"/>
       <use xlink:href="#DejaVuSans-2e" x="63.623047"/>
       <use xlink:href="#DejaVuSans-36" x="95.410156"/>
      </g>
     </g>
    </g>
    <g id="xtick_11">
     <g id="line2d_22">
      <g>
       <use xlink:href="#m8a68cf0299" x="1286.9788" y="647.08" style="stroke: #000000; stroke-width: 0.8"/>
      </g>
     </g>
     <g id="text_19">
      <!-- 1.8 -->
      <g transform="translate(1271.075675 669.276875) scale(0.2 -0.2)">
       <use xlink:href="#DejaVuSans-31"/>
       <use xlink:href="#DejaVuSans-2e" x="63.623047"/>
       <use xlink:href="#DejaVuSans-38" x="95.410156"/>
      </g>
     </g>
    </g>
    <g id="xtick_12">
     <g id="line2d_23">
      <g>
       <use xlink:href="#m8a68cf0299" x="1409.238" y="647.08" style="stroke: #000000; stroke-width: 0.8"/>
      </g>
     </g>
     <g id="text_20">
      <!-- 2.0 -->
      <g transform="translate(1393.334875 669.276875) scale(0.2 -0.2)">
       <use xlink:href="#DejaVuSans-32"/>
       <use xlink:href="#DejaVuSans-2e" x="63.623047"/>
       <use xlink:href="#DejaVuSans-30" x="95.410156"/>
      </g>
     </g>
    </g>
    <g id="text_21">
     <!-- Position $x$ -->
     <g transform="translate(1055.19 692.633125) scale(0.2 -0.2)">
      <use xlink:href="#DejaVuSans-50" transform="translate(0 0.015625)"/>
      <use xlink:href="#DejaVuSans-6f" transform="translate(60.302734 0.015625)"/>
      <use xlink:href="#DejaVuSans-73" transform="translate(121.484375 0.015625)"/>
      <use xlink:href="#DejaVuSans-69" transform="translate(173.583984 0.015625)"/>
      <use xlink:href="#DejaVuSans-74" transform="translate(201.367188 0.015625)"/>
      <use xlink:href="#DejaVuSans-69" transform="translate(240.576172 0.015625)"/>
      <use xlink:href="#DejaVuSans-6f" transform="translate(268.359375 0.015625)"/>
      <use xlink:href="#DejaVuSans-6e" transform="translate(329.541016 0.015625)"/>
      <use xlink:href="#DejaVuSans-20" transform="translate(392.919922 0.015625)"/>
      <use xlink:href="#DejaVuSans-Oblique-78" transform="translate(424.707031 0.015625)"/>
     </g>
    </g>
   </g>
   <g id="matplotlib.axis_4">
    <g id="ytick_7">
     <g id="line2d_24">
      <g>
       <use xlink:href="#m6a43e5016d" x="797.942" y="647.08" style="stroke: #000000; stroke-width: 0.8"/>
      </g>
     </g>
     <g id="text_22">
      <!-- 0.0 -->
      <g transform="translate(759.13575 654.678437) scale(0.2 -0.2)">
       <use xlink:href="#DejaVuSans-30"/>
       <use xlink:href="#DejaVuSans-2e" x="63.623047"/>
       <use xlink:href="#DejaVuSans-30" x="95.410156"/>
      </g>
     </g>
    </g>
    <g id="ytick_8">
     <g id="line2d_25">
      <g>
       <use xlink:href="#m6a43e5016d" x="797.942" y="513.584176" style="stroke: #000000; stroke-width: 0.8"/>
      </g>
     </g>
     <g id="text_23">
      <!-- 0.2 -->
      <g transform="translate(759.13575 521.182613) scale(0.2 -0.2)">
       <use xlink:href="#DejaVuSans-30"/>
       <use xlink:href="#DejaVuSans-2e" x="63.623047"/>
       <use xlink:href="#DejaVuSans-32" x="95.410156"/>
      </g>
     </g>
    </g>
    <g id="ytick_9">
     <g id="line2d_26">
      <g>
       <use xlink:href="#m6a43e5016d" x="797.942" y="380.088351" style="stroke: #000000; stroke-width: 0.8"/>
      </g>
     </g>
     <g id="text_24">
      <!-- 0.4 -->
      <g transform="translate(759.13575 387.686789) scale(0.2 -0.2)">
       <use xlink:href="#DejaVuSans-30"/>
       <use xlink:href="#DejaVuSans-2e" x="63.623047"/>
       <use xlink:href="#DejaVuSans-34" x="95.410156"/>
      </g>
     </g>
    </g>
    <g id="ytick_10">
     <g id="line2d_27">
      <g>
       <use xlink:href="#m6a43e5016d" x="797.942" y="246.592527" style="stroke: #000000; stroke-width: 0.8"/>
      </g>
     </g>
     <g id="text_25">
      <!-- 0.6 -->
      <g transform="translate(759.13575 254.190965) scale(0.2 -0.2)">
       <use xlink:href="#DejaVuSans-30"/>
       <use xlink:href="#DejaVuSans-2e" x="63.623047"/>
       <use xlink:href="#DejaVuSans-36" x="95.410156"/>
      </g>
     </g>
    </g>
    <g id="ytick_11">
     <g id="line2d_28">
      <g>
       <use xlink:href="#m6a43e5016d" x="797.942" y="113.096703" style="stroke: #000000; stroke-width: 0.8"/>
      </g>
     </g>
     <g id="text_26">
      <!-- 0.8 -->
      <g transform="translate(759.13575 120.69514) scale(0.2 -0.2)">
       <use xlink:href="#DejaVuSans-30"/>
       <use xlink:href="#DejaVuSans-2e" x="63.623047"/>
       <use xlink:href="#DejaVuSans-38" x="95.410156"/>
      </g>
     </g>
    </g>
    <g id="text_27">
     <!-- $U_x$ -->
     <g transform="translate(750.976375 346.14) rotate(-90) scale(0.2 -0.2)">
      <defs>
       <path id="DejaVuSans-Oblique-55" d="M 991 4666 
L 1625 4666 
L 1075 1831 
Q 1041 1641 1027 1517 
Q 1013 1394 1013 1300 
Q 1013 869 1253 645 
Q 1494 422 1959 422 
Q 2563 422 2898 753 
Q 3234 1084 3378 1831 
L 3928 4666 
L 4563 4666 
L 4000 1753 
Q 3816 809 3300 359 
Q 2784 -91 1888 -91 
Q 1188 -91 780 261 
Q 372 613 372 1216 
Q 372 1325 387 1461 
Q 403 1597 434 1753 
L 991 4666 
z
" transform="scale(0.015625)"/>
      </defs>
      <use xlink:href="#DejaVuSans-Oblique-55" transform="translate(0 0.09375)"/>
      <use xlink:href="#DejaVuSans-Oblique-78" transform="translate(73.193359 -16.3125) scale(0.7)"/>
     </g>
    </g>
   </g>
   <g id="line2d_29">
    <path d="M 186.646 647.08 
L 938.032704 647.08 
L 938.032704 647.08 
L 950.766 623.900257 
L 950.766 623.900257 
L 1078.117296 104.655117 
L 1078.117296 104.655117 
L 1090.856704 85.599999 
L 1090.856704 85.599999 
L 1320.092704 85.599999 
L 1320.092704 85.599999 
L 1332.826 647.08 
L 1332.826 647.08 
L 1396.504704 647.08 
L 1396.504704 647.08 
" clip-path="url(#p57f26f0711)" style="fill: none; stroke: #1f77b4; stroke-width: 1.5; stroke-linecap: square"/>
   </g>
   <g id="line2d_30">
    <path d="M 186.646 647.078223 
L 186.646 647.076933 
L 186.646 647.077154 
L 199.381313 659.317829 
L 212.116687 681.723234 
L 223.262281 721 
M 654.834793 721 
L 657.85313 716.040605 
L 657.85313 716.040605 
L 670.58887 698.552118 
L 683.324 684.355038 
L 696.05913 673.201662 
L 708.79487 664.752444 
L 721.53 658.599021 
L 734.26513 654.299321 
L 747.00087 651.418748 
L 759.736 649.562095 
L 772.47113 648.393445 
L 785.20687 647.640006 
L 810.675296 646.520072 
L 823.414704 645.766561 
L 823.414704 645.766568 
L 836.148 644.597819 
L 836.148 644.597825 
L 848.881296 642.741633 
L 861.620704 639.860679 
L 874.354 635.560378 
L 887.087296 629.40849 
L 899.826704 620.958138 
L 912.56 609.803694 
L 925.293296 595.610551 
L 938.032704 578.119395 
L 938.032704 578.119395 
L 950.766 557.194592 
L 963.499296 532.802235 
L 963.499296 532.802235 
L 976.238704 504.959678 
L 988.972 473.783063 
L 1001.705296 439.430583 
L 1001.705296 439.430583 
L 1014.444704 402.043075 
L 1014.444704 402.043075 
L 1027.178 361.82412 
L 1027.178 361.82412 
L 1039.911296 318.99332 
L 1039.911296 318.993988 
L 1052.650704 273.774279 
L 1052.650704 273.775614 
L 1065.384 226.591515 
L 1065.384 226.593518 
L 1078.117296 178.337447 
L 1078.117296 178.340785 
L 1090.856704 131.470401 
L 1090.856704 131.475073 
L 1103.59 94.265782 
L 1103.59 94.273124 
L 1116.323296 83.287085 
L 1116.323296 83.295095 
L 1129.062704 82.400673 
L 1129.062704 82.402008 
L 1154.529296 82.789146 
L 1154.529296 82.773794 
L 1154.529296 82.761779 
L 1205.474704 83.162934 
L 1205.474704 83.088177 
L 1218.208 83.567427 
L 1218.208 83.478652 
L 1230.941296 84.433147 
L 1230.941296 84.33703 
L 1243.680704 86.226663 
L 1243.680704 86.133884 
L 1256.414 89.818369 
L 1256.414 89.737604 
L 1269.147296 96.714763 
L 1269.147296 96.650685 
L 1281.886704 109.320106 
L 1281.886704 109.272048 
L 1294.62 131.195399 
L 1294.62 131.16069 
L 1307.353296 167.158507 
L 1307.353296 167.13381 
L 1320.092704 222.45982 
L 1320.092704 222.439128 
L 1332.826 300.14104 
L 1332.826 300.117678 
L 1345.559296 395.730725 
L 1345.559296 395.70536 
L 1358.298704 492.282915 
L 1358.298704 492.259553 
L 1371.032 567.538516 
L 1371.032 567.522496 
L 1383.765296 612.428823 
L 1383.765296 612.420546 
L 1396.504704 634.8387 
L 1396.504704 634.835229 
" clip-path="url(#p57f26f0711)" style="fill: none; stroke: #ff7f0e; stroke-width: 1.5; stroke-linecap: square"/>
   </g>
   <g id="line2d_31">
    <path d="M 186.646 647.067829 
L 186.646 647.051533 
L 199.381313 706.439719 
L 199.381313 706.417692 
L 202.259377 721 
M 663.625687 721 
L 670.58887 712.122303 
L 670.58887 712.12277 
L 683.324 698.280187 
L 683.324 698.280588 
L 696.05913 686.664115 
L 696.05913 686.664382 
L 708.79487 677.08312 
L 708.79487 677.083387 
L 721.53 669.323875 
L 721.53 669.324075 
L 734.26513 663.151562 
L 734.26513 663.151829 
L 747.00087 658.317612 
L 747.00087 658.317745 
L 759.736 654.56164 
L 759.736 654.561707 
L 772.47113 651.616455 
L 772.47113 651.616542 
L 785.20687 649.212729 
L 785.20687 649.212803 
L 810.675296 644.948052 
L 810.675296 644.94932 
L 823.414704 642.544519 
L 823.414704 642.545968 
L 836.148 639.595557 
L 836.148 639.599962 
L 848.881296 635.845726 
L 848.881296 635.84686 
L 861.620704 631.001362 
L 861.620704 631.008171 
L 874.354 624.827314 
L 887.087296 617.071874 
L 887.087296 617.084089 
L 899.826704 607.49208 
L 899.826704 607.492147 
L 912.56 595.870668 
L 912.56 595.873471 
L 925.293296 582.034827 
L 925.293296 582.035828 
L 938.032704 565.794393 
L 950.766 547.017537 
L 950.766 547.022877 
L 963.499296 525.605475 
L 963.499296 525.60681 
L 976.238704 501.417366 
L 976.238704 501.427379 
L 988.972 474.402484 
L 988.972 474.413831 
L 1001.705296 444.518109 
L 1001.705296 444.525451 
L 1014.444704 411.680138 
L 1014.444704 411.684811 
L 1027.178 375.90259 
L 1027.178 375.905927 
L 1039.911296 337.206155 
L 1039.911296 337.208825 
L 1052.650704 295.699634 
L 1052.650704 295.702971 
L 1065.384 251.851595 
L 1065.384 251.854265 
L 1078.117296 206.814776 
L 1078.117296 206.817446 
L 1090.856704 163.62554 
L 1090.856704 163.627542 
L 1103.59 128.912621 
L 1103.59 128.915291 
L 1116.323296 109.617802 
L 1116.323296 109.623809 
L 1129.062704 101.086084 
L 1129.062704 101.098766 
L 1141.796 96.923684 
L 1141.796 96.929691 
L 1154.529296 94.965968 
L 1167.268704 93.865962 
L 1180.002 93.494176 
L 1192.735296 93.802552 
L 1192.735296 93.792539 
L 1205.474704 94.906562 
L 1205.474704 94.901222 
L 1218.208 97.050505 
L 1218.208 97.050505 
L 1230.941296 100.594152 
L 1243.680704 106.014082 
L 1256.414 113.949074 
L 1269.147296 125.218124 
L 1281.886704 140.789744 
L 1294.62 161.784633 
L 1307.353296 189.475004 
L 1320.092704 225.107042 
L 1320.092704 225.103037 
L 1332.826 269.707997 
L 1332.826 269.695982 
L 1345.559296 323.750444 
L 1345.559296 323.733089 
L 1358.298704 386.333286 
L 1358.298704 386.314597 
L 1383.765296 523.183193 
L 1383.765296 523.171178 
L 1396.504704 587.702593 
L 1396.504704 587.689577 
" clip-path="url(#p57f26f0711)" style="fill: none; stroke: #2ca02c; stroke-width: 1.5; stroke-linecap: square"/>
   </g>
   <g id="line2d_32">
    <path d="M 186.646 647.05958 
L 186.646 647.094471 
L 186.646 647.087786 
L 199.381313 694.582687 
L 199.381313 694.547511 
L 206.170193 721 
M 661.564366 721 
L 670.58887 708.724634 
L 670.58887 708.734913 
L 683.324 694.305349 
L 683.324 694.309554 
L 696.05913 682.491837 
L 696.05913 682.492704 
L 708.79487 673.037395 
L 708.79487 673.037529 
L 721.53 665.656678 
L 734.26513 660.04151 
L 747.00087 655.879177 
L 759.736 652.867912 
L 772.47113 650.682171 
L 772.47113 650.682185 
L 797.942 647.080026 
L 797.942 647.080049 
L 823.414704 643.477775 
L 823.414704 643.477902 
L 836.148 641.291881 
L 836.148 641.291975 
L 848.881296 638.281223 
L 848.881296 638.28129 
L 861.620704 634.118423 
L 861.620704 634.11849 
L 874.354 628.502321 
L 887.087296 621.123739 
L 899.826704 611.667362 
L 912.56 599.849111 
L 925.293296 585.420415 
L 925.293296 585.431895 
L 938.032704 568.113883 
L 950.766 547.826522 
L 950.766 548.119545 
L 950.766 547.739082 
L 950.766 548.176281 
L 963.499296 524.432046 
L 963.499296 525.11688 
L 963.499296 524.221123 
L 963.499296 524.272519 
L 976.238704 498.817535 
L 976.238704 497.601388 
L 976.238704 498.852244 
L 988.972 467.678967 
L 988.972 469.559923 
L 988.972 467.902572 
L 1001.705296 436.790035 
L 1001.705296 434.80562 
L 1001.705296 437.107088 
L 1014.444704 398.690995 
L 1014.444704 401.633243 
L 1014.444704 399.934508 
L 1027.178 362.351429 
L 1027.178 360.055968 
L 1027.178 362.536321 
L 1039.911296 316.972193 
L 1039.911296 321.760688 
L 1039.911296 316.958176 
L 1039.911296 319.208916 
L 1052.650704 273.044725 
L 1052.650704 276.871383 
L 1052.650704 273.67082 
L 1065.384 216.218222 
L 1065.384 242.899365 
L 1065.384 224.985561 
L 1078.117296 172.986935 
L 1078.117296 195.017083 
L 1078.117296 175.425903 
L 1090.856704 123.192992 
L 1090.856704 157.950632 
L 1090.856704 130.095394 
L 1103.59 104.310675 
L 1103.59 111.249788 
L 1103.59 110.018957 
L 1116.323296 97.699295 
L 1116.323296 99.737108 
L 1116.323296 97.137277 
L 1129.062704 95.192911 
L 1129.062704 93.629674 
L 1129.062704 96.611971 
L 1129.062704 94.221728 
L 1141.796 93.837928 
L 1141.796 90.804235 
L 1141.796 94.57883 
L 1141.796 93.411409 
L 1154.529296 92.903457 
L 1154.529296 89.234324 
L 1154.529296 93.35534 
L 1154.529296 92.778639 
L 1167.268704 92.108489 
L 1167.268704 88.449369 
L 1167.268704 92.362132 
L 1167.268704 92.094472 
L 1180.002 91.375597 
L 1180.002 88.078918 
L 1180.002 91.482394 
L 1180.002 91.357575 
L 1192.735296 90.735485 
L 1192.735296 87.990811 
L 1192.735296 90.761517 
L 1192.735296 90.694101 
L 1205.474704 90.319645 
L 1205.474704 88.158348 
L 1205.474704 90.294281 
L 1218.208 90.264912 
L 1218.208 88.611566 
L 1218.208 90.280264 
L 1230.941296 90.832269 
L 1230.941296 89.620127 
L 1230.941296 90.878325 
L 1243.680704 92.216621 
L 1243.680704 91.426993 
L 1243.680704 92.366136 
L 1256.414 95.025373 
L 1256.414 94.530771 
L 1256.414 95.157534 
L 1269.147296 100.286444 
L 1269.147296 100.058833 
L 1269.147296 100.381893 
L 1281.886704 110.036979 
L 1281.886704 109.770655 
L 1281.886704 110.077695 
L 1294.62 126.992283 
L 1307.353296 154.156014 
L 1320.092704 194.684678 
L 1320.092704 194.142018 
L 1320.092704 194.80616 
L 1320.092704 194.55185 
L 1332.826 250.882416 
L 1332.826 250.612087 
L 1345.559296 322.386116 
L 1345.559296 321.943578 
L 1358.298704 403.681736 
L 1371.032 483.643732 
L 1383.765296 549.986485 
L 1396.504704 599.635451 
L 1396.504704 599.620366 
" clip-path="url(#p57f26f0711)" style="fill: none; stroke: #d62728; stroke-width: 1.5; stroke-linecap: square"/>
   </g>
   <g id="line2d_33">
    <path d="M 186.646 651.72974 
L 186.646 652.987978 
L 186.646 651.258766 
L 199.381313 678.872631 
L 199.381313 671.799822 
L 212.116687 718.478907 
L 212.116687 707.399888 
L 212.116687 712.267146 
L 213.734513 721 
M 659.685424 721 
L 670.58887 704.623709 
L 670.58887 706.575751 
L 670.58887 705.99678 
L 683.324 691.083094 
L 683.324 692.627574 
L 696.05913 680.899498 
L 696.05913 680.363446 
L 696.05913 681.663295 
L 708.79487 671.924107 
L 708.79487 671.14636 
L 708.79487 672.485657 
L 708.79487 672.345753 
L 721.53 664.994339 
L 721.53 664.275397 
L 721.53 665.097464 
L 734.26513 659.47976 
L 734.26513 659.152361 
L 734.26513 659.604244 
L 747.00087 655.367488 
L 747.00087 655.176989 
L 747.00087 655.229119 
L 759.736 652.469106 
L 759.736 652.484558 
L 759.736 652.342192 
L 772.47113 650.145838 
L 772.47113 650.464573 
L 772.47113 650.425058 
L 785.20687 648.757909 
L 785.20687 648.847178 
L 785.20687 648.651867 
L 797.942 647.439374 
L 797.942 647.382971 
L 810.675296 646.204508 
L 810.675296 646.018401 
L 823.414704 645.043835 
L 823.414704 644.516226 
L 836.148 643.151325 
L 836.148 642.411337 
L 848.881296 640.324377 
L 848.881296 640.377375 
L 848.881296 639.363407 
L 861.620704 636.806495 
L 861.620704 635.420341 
L 874.354 631.741864 
L 874.354 630.125029 
L 887.087296 624.729595 
L 887.087296 623.76996 
L 899.826704 615.710817 
L 899.826704 615.763014 
L 899.826704 614.467371 
L 912.56 604.58621 
L 912.56 603.033654 
L 912.56 603.860193 
L 925.293296 590.81952 
L 925.293296 588.836239 
L 925.293296 589.587153 
L 938.032704 574.44292 
L 938.032704 571.193631 
L 938.032704 572.642728 
L 950.766 553.0115 
L 950.766 553.954648 
L 950.766 552.346023 
L 950.766 553.518784 
L 963.499296 532.090034 
L 963.499296 527.914952 
L 963.499296 528.931523 
L 976.238704 504.390318 
L 976.238704 500.961478 
L 976.238704 508.007388 
L 988.972 475.081978 
L 988.972 475.379006 
L 988.972 480.676788 
L 988.972 472.940037 
L 1001.705296 445.650821 
L 1001.705296 440.494544 
L 1001.705296 448.300045 
L 1001.705296 444.05955 
L 1014.444704 407.380238 
L 1014.444704 411.282988 
L 1014.444704 403.650364 
L 1014.444704 410.451977 
L 1027.178 374.537595 
L 1027.178 370.795707 
L 1027.178 376.413879 
L 1039.911296 324.576115 
L 1039.911296 340.829232 
L 1052.650704 279.626736 
L 1052.650704 296.305037 
L 1052.650704 295.194352 
L 1065.384 231.462778 
L 1065.384 253.037038 
L 1065.384 249.952617 
L 1078.117296 186.106237 
L 1078.117296 203.122282 
L 1090.856704 150.271285 
L 1090.856704 146.43328 
L 1090.856704 158.710224 
L 1103.59 123.679584 
L 1103.59 125.788151 
L 1103.59 112.269029 
L 1103.59 116.994781 
L 1116.323296 101.935117 
L 1116.323296 105.574881 
L 1116.323296 88.475401 
L 1116.323296 95.513968 
L 1129.062704 95.614757 
L 1129.062704 96.780843 
L 1129.062704 82.130344 
L 1129.062704 87.446148 
L 1141.796 92.982887 
L 1141.796 93.752491 
L 1141.796 78.949139 
L 1141.796 84.190852 
L 1154.529296 90.669405 
L 1154.529296 92.392836 
L 1154.529296 78.295677 
L 1154.529296 81.601033 
L 1167.268704 86.430912 
L 1167.268704 90.986457 
L 1167.268704 80.258065 
L 1167.268704 80.364194 
L 1180.002 84.497225 
L 1180.002 91.086579 
L 1180.002 79.836886 
L 1192.735296 82.746427 
L 1192.735296 92.001693 
L 1192.735296 79.608608 
L 1205.474704 82.945336 
L 1205.474704 93.900003 
L 1205.474704 80.378211 
L 1218.208 84.49856 
L 1218.208 95.940487 
L 1218.208 83.019426 
L 1230.941296 86.865441 
L 1230.941296 98.376786 
L 1230.941296 87.031643 
L 1243.680704 90.987125 
L 1243.680704 101.53196 
L 1243.680704 94.676282 
L 1256.414 97.667256 
L 1256.414 109.669865 
L 1256.414 106.661537 
L 1269.147296 111.058222 
L 1269.147296 121.467559 
L 1281.886704 129.191627 
L 1281.886704 138.676505 
L 1294.62 156.051654 
L 1294.62 155.447586 
L 1294.62 162.429417 
L 1307.353296 193.219562 
L 1307.353296 196.62771 
L 1307.353296 192.121559 
L 1307.353296 193.573993 
L 1320.092704 242.926732 
L 1320.092704 240.718711 
L 1320.092704 246.782091 
L 1320.092704 241.940865 
L 1332.826 310.445582 
L 1332.826 312.239766 
L 1332.826 302.569329 
L 1345.559296 385.876063 
L 1345.559296 377.007268 
L 1358.298704 470.010471 
L 1358.298704 472.75648 
L 1358.298704 463.605342 
L 1371.032 541.927342 
L 1371.032 547.584227 
L 1371.032 544.831543 
L 1383.765296 600.489357 
L 1383.765296 593.795742 
L 1383.765296 595.40924 
L 1396.504704 629.534043 
L 1396.504704 632.212036 
L 1396.504704 627.572989 
L 1396.504704 627.572989 
" clip-path="url(#p57f26f0711)" style="fill: none; stroke: #9467bd; stroke-width: 1.5; stroke-linecap: square"/>
   </g>
   <g id="patch_8">
    <path d="M 797.942 647.08 
L 797.942 21.6 
" style="fill: none; stroke: #000000; stroke-width: 0.8; stroke-linejoin: miter; stroke-linecap: square"/>
   </g>
   <g id="patch_9">
    <path d="M 1409.238 647.08 
L 1409.238 21.6 
" style="fill: none; stroke: #000000; stroke-width: 0.8; stroke-linejoin: miter; stroke-linecap: square"/>
   </g>
   <g id="patch_10">
    <path d="M 797.942 647.08 
L 1409.238 647.08 
" style="fill: none; stroke: #000000; stroke-width: 0.8; stroke-linejoin: miter; stroke-linecap: square"/>
   </g>
   <g id="patch_11">
    <path d="M 797.942 21.6 
L 1409.238 21.6 
" style="fill: none; stroke: #000000; stroke-width: 0.8; stroke-linejoin: miter; stroke-linecap: square"/>
   </g>
  </g>
  <g id="axes_3">
   <g id="patch_12">
    <path d="M 1511.174 647.08 
L 2122.47 647.08 
L 2122.47 21.6 
L 1511.174 21.6 
z
" style="fill: #ffffff"/>
   </g>
   <g id="matplotlib.axis_5">
    <g id="xtick_13">
     <g id="line2d_34">
      <g>
       <use xlink:href="#m8a68cf0299" x="1511.174" y="647.08" style="stroke: #000000; stroke-width: 0.8"/>
      </g>
     </g>
     <g id="text_28">
      <!-- 1.0 -->
      <g transform="translate(1495.270875 669.276875) scale(0.2 -0.2)">
       <use xlink:href="#DejaVuSans-31"/>
       <use xlink:href="#DejaVuSans-2e" x="63.623047"/>
       <use xlink:href="#DejaVuSans-30" x="95.410156"/>
      </g>
     </g>
    </g>
    <g id="xtick_14">
     <g id="line2d_35">
      <g>
       <use xlink:href="#m8a68cf0299" x="1633.4332" y="647.08" style="stroke: #000000; stroke-width: 0.8"/>
      </g>
     </g>
     <g id="text_29">
      <!-- 1.2 -->
      <g transform="translate(1617.530075 669.276875) scale(0.2 -0.2)">
       <use xlink:href="#DejaVuSans-31"/>
       <use xlink:href="#DejaVuSans-2e" x="63.623047"/>
       <use xlink:href="#DejaVuSans-32" x="95.410156"/>
      </g>
     </g>
    </g>
    <g id="xtick_15">
     <g id="line2d_36">
      <g>
       <use xlink:href="#m8a68cf0299" x="1755.6924" y="647.08" style="stroke: #000000; stroke-width: 0.8"/>
      </g>
     </g>
     <g id="text_30">
      <!-- 1.4 -->
      <g transform="translate(1739.789275 669.276875) scale(0.2 -0.2)">
       <use xlink:href="#DejaVuSans-31"/>
       <use xlink:href="#DejaVuSans-2e" x="63.623047"/>
       <use xlink:href="#DejaVuSans-34" x="95.410156"/>
      </g>
     </g>
    </g>
    <g id="xtick_16">
     <g id="line2d_37">
      <g>
       <use xlink:href="#m8a68cf0299" x="1877.9516" y="647.08" style="stroke: #000000; stroke-width: 0.8"/>
      </g>
     </g>
     <g id="text_31">
      <!-- 1.6 -->
      <g transform="translate(1862.048475 669.276875) scale(0.2 -0.2)">
       <use xlink:href="#DejaVuSans-31"/>
       <use xlink:href="#DejaVuSans-2e" x="63.623047"/>
       <use xlink:href="#DejaVuSans-36" x="95.410156"/>
      </g>
     </g>
    </g>
    <g id="xtick_17">
     <g id="line2d_38">
      <g>
       <use xlink:href="#m8a68cf0299" x="2000.2108" y="647.08" style="stroke: #000000; stroke-width: 0.8"/>
      </g>
     </g>
     <g id="text_32">
      <!-- 1.8 -->
      <g transform="translate(1984.307675 669.276875) scale(0.2 -0.2)">
       <use xlink:href="#DejaVuSans-31"/>
       <use xlink:href="#DejaVuSans-2e" x="63.623047"/>
       <use xlink:href="#DejaVuSans-38" x="95.410156"/>
      </g>
     </g>
    </g>
    <g id="xtick_18">
     <g id="line2d_39">
      <g>
       <use xlink:href="#m8a68cf0299" x="2122.47" y="647.08" style="stroke: #000000; stroke-width: 0.8"/>
      </g>
     </g>
     <g id="text_33">
      <!-- 2.0 -->
      <g transform="translate(2106.566875 669.276875) scale(0.2 -0.2)">
       <use xlink:href="#DejaVuSans-32"/>
       <use xlink:href="#DejaVuSans-2e" x="63.623047"/>
       <use xlink:href="#DejaVuSans-30" x="95.410156"/>
      </g>
     </g>
    </g>
    <g id="text_34">
     <!-- Position $x$ -->
     <g transform="translate(1768.422 692.633125) scale(0.2 -0.2)">
      <use xlink:href="#DejaVuSans-50" transform="translate(0 0.015625)"/>
      <use xlink:href="#DejaVuSans-6f" transform="translate(60.302734 0.015625)"/>
      <use xlink:href="#DejaVuSans-73" transform="translate(121.484375 0.015625)"/>
      <use xlink:href="#DejaVuSans-69" transform="translate(173.583984 0.015625)"/>
      <use xlink:href="#DejaVuSans-74" transform="translate(201.367188 0.015625)"/>
      <use xlink:href="#DejaVuSans-69" transform="translate(240.576172 0.015625)"/>
      <use xlink:href="#DejaVuSans-6f" transform="translate(268.359375 0.015625)"/>
      <use xlink:href="#DejaVuSans-6e" transform="translate(329.541016 0.015625)"/>
      <use xlink:href="#DejaVuSans-20" transform="translate(392.919922 0.015625)"/>
      <use xlink:href="#DejaVuSans-Oblique-78" transform="translate(424.707031 0.015625)"/>
     </g>
    </g>
   </g>
   <g id="matplotlib.axis_6">
    <g id="ytick_12">
     <g id="line2d_40">
      <g>
       <use xlink:href="#m6a43e5016d" x="1511.174" y="647.08" style="stroke: #000000; stroke-width: 0.8"/>
      </g>
     </g>
     <g id="text_35">
      <!-- 0.0 -->
      <g transform="translate(1472.36775 654.678437) scale(0.2 -0.2)">
       <use xlink:href="#DejaVuSans-30"/>
       <use xlink:href="#DejaVuSans-2e" x="63.623047"/>
       <use xlink:href="#DejaVuSans-30" x="95.410156"/>
      </g>
     </g>
    </g>
    <g id="ytick_13">
     <g id="line2d_41">
      <g>
       <use xlink:href="#m6a43e5016d" x="1511.174" y="527.370909" style="stroke: #000000; stroke-width: 0.8"/>
      </g>
     </g>
     <g id="text_36">
      <!-- 0.2 -->
      <g transform="translate(1472.36775 534.969347) scale(0.2 -0.2)">
       <use xlink:href="#DejaVuSans-30"/>
       <use xlink:href="#DejaVuSans-2e" x="63.623047"/>
       <use xlink:href="#DejaVuSans-32" x="95.410156"/>
      </g>
     </g>
    </g>
    <g id="ytick_14">
     <g id="line2d_42">
      <g>
       <use xlink:href="#m6a43e5016d" x="1511.174" y="407.661818" style="stroke: #000000; stroke-width: 0.8"/>
      </g>
     </g>
     <g id="text_37">
      <!-- 0.4 -->
      <g transform="translate(1472.36775 415.260256) scale(0.2 -0.2)">
       <use xlink:href="#DejaVuSans-30"/>
       <use xlink:href="#DejaVuSans-2e" x="63.623047"/>
       <use xlink:href="#DejaVuSans-34" x="95.410156"/>
      </g>
     </g>
    </g>
    <g id="ytick_15">
     <g id="line2d_43">
      <g>
       <use xlink:href="#m6a43e5016d" x="1511.174" y="287.952727" style="stroke: #000000; stroke-width: 0.8"/>
      </g>
     </g>
     <g id="text_38">
      <!-- 0.6 -->
      <g transform="translate(1472.36775 295.551165) scale(0.2 -0.2)">
       <use xlink:href="#DejaVuSans-30"/>
       <use xlink:href="#DejaVuSans-2e" x="63.623047"/>
       <use xlink:href="#DejaVuSans-36" x="95.410156"/>
      </g>
     </g>
    </g>
    <g id="ytick_16">
     <g id="line2d_44">
      <g>
       <use xlink:href="#m6a43e5016d" x="1511.174" y="168.243636" style="stroke: #000000; stroke-width: 0.8"/>
      </g>
     </g>
     <g id="text_39">
      <!-- 0.8 -->
      <g transform="translate(1472.36775 175.842074) scale(0.2 -0.2)">
       <use xlink:href="#DejaVuSans-30"/>
       <use xlink:href="#DejaVuSans-2e" x="63.623047"/>
       <use xlink:href="#DejaVuSans-38" x="95.410156"/>
      </g>
     </g>
    </g>
    <g id="ytick_17">
     <g id="line2d_45">
      <g>
       <use xlink:href="#m6a43e5016d" x="1511.174" y="48.534545" style="stroke: #000000; stroke-width: 0.8"/>
      </g>
     </g>
     <g id="text_40">
      <!-- 1.0 -->
      <g transform="translate(1472.36775 56.132983) scale(0.2 -0.2)">
       <use xlink:href="#DejaVuSans-31"/>
       <use xlink:href="#DejaVuSans-2e" x="63.623047"/>
       <use xlink:href="#DejaVuSans-30" x="95.410156"/>
      </g>
     </g>
    </g>
    <g id="text_41">
     <!-- $P$ -->
     <g transform="translate(1464.208375 340.44) rotate(-90) scale(0.2 -0.2)">
      <defs>
       <path id="DejaVuSans-Oblique-50" d="M 1081 4666 
L 2541 4666 
Q 3178 4666 3512 4369 
Q 3847 4072 3847 3500 
Q 3847 2731 3353 2303 
Q 2859 1875 1966 1875 
L 1172 1875 
L 806 0 
L 172 0 
L 1081 4666 
z
M 1613 4147 
L 1275 2394 
L 2069 2394 
Q 2606 2394 2893 2669 
Q 3181 2944 3181 3456 
Q 3181 3784 2986 3965 
Q 2791 4147 2438 4147 
L 1613 4147 
z
" transform="scale(0.015625)"/>
      </defs>
      <use xlink:href="#DejaVuSans-Oblique-50" transform="translate(0 0.09375)"/>
     </g>
    </g>
   </g>
   <g id="line2d_46">
    <path d="M 899.878 48.534545 
L 1651.264704 48.534545 
L 1651.264704 48.534545 
L 1663.998 74.892051 
L 1663.998 74.892051 
L 1676.731296 130.565302 
L 1676.731296 130.565302 
L 1689.470704 181.84171 
L 1689.470704 181.84171 
L 1702.204 228.940791 
L 1702.204 228.940791 
L 1714.937296 272.145696 
L 1714.937296 272.145696 
L 1727.676704 311.721208 
L 1727.676704 311.721208 
L 1740.41 347.865431 
L 1740.41 347.865431 
L 1753.143296 380.823789 
L 1753.143296 380.823789 
L 1765.882704 410.825409 
L 1765.882704 410.825409 
L 1778.616 438.047051 
L 1778.616 438.047051 
L 1791.349296 462.699574 
L 1791.349296 462.699574 
L 1804.088704 471.140444 
L 1804.088704 471.140444 
L 2033.324704 471.140444 
L 2033.324704 471.140444 
L 2046.058 587.225455 
L 2046.058 587.225455 
L 2109.736704 587.225455 
L 2109.736704 587.225455 
" clip-path="url(#p725339784e)" style="fill: none; stroke: #1f77b4; stroke-width: 1.5; stroke-linecap: square"/>
   </g>
   <g id="line2d_47">
    <path d="M 899.878 585.5196 
L 899.878 585.519001 
L 899.878 585.519001 
L 912.613313 584.684629 
L 925.348687 581.594937 
L 925.348687 581.594937 
L 938.084 574.619489 
L 950.819313 562.065596 
L 963.55487 544.330096 
L 976.29 524.670871 
L 989.02513 506.932377 
L 1001.76087 493.254417 
L 1014.496 483.863239 
L 1014.496 483.863239 
L 1027.23113 477.959785 
L 1027.23113 477.959785 
L 1039.96687 474.503185 
L 1039.96687 474.503185 
L 1052.702 472.596817 
L 1052.702 472.596817 
L 1065.43713 471.597845 
L 1065.43713 471.597845 
L 1078.17287 471.09806 
L 1078.17287 471.09806 
L 1090.908 470.860437 
L 1090.908 470.860437 
L 1116.37887 470.734743 
L 1116.37887 470.734743 
L 1154.58487 470.880189 
L 1154.58487 470.880189 
L 1180.05513 471.167491 
L 1180.05513 471.167491 
L 1192.79087 470.861634 
L 1192.79087 470.862233 
L 1205.526 466.336032 
L 1205.526 466.336032 
L 1218.26113 450.174706 
L 1218.26113 450.174706 
L 1230.99687 427.744215 
L 1230.99687 427.744215 
L 1243.732 402.255157 
L 1243.732 402.255157 
L 1256.46713 374.914199 
L 1269.20287 346.32707 
L 1281.938 316.943875 
L 1307.40887 257.52926 
L 1320.144 228.441148 
L 1332.87913 200.441791 
L 1345.61487 174.051323 
L 1358.35 149.764743 
L 1371.08513 128.010608 
L 1371.08513 128.010608 
L 1383.82087 109.108543 
L 1396.556 93.23392 
L 1396.556 93.23392 
L 1409.29113 80.390332 
L 1422.02687 70.413177 
L 1422.02687 70.413177 
L 1434.762 62.991214 
L 1447.49713 57.718028 
L 1447.49713 57.718028 
L 1460.23287 54.148902 
L 1460.23287 54.148902 
L 1472.968 51.860064 
L 1472.968 51.860064 
L 1485.70313 50.492388 
L 1498.43887 49.780119 
L 1498.43887 49.780119 
L 1511.174 49.561051 
L 1511.174 49.561051 
L 1523.907296 49.780119 
L 1523.907296 49.780119 
L 1536.646704 50.492388 
L 1536.646704 50.492388 
L 1549.38 51.860064 
L 1549.38 51.860064 
L 1562.113296 54.148902 
L 1562.113296 54.148902 
L 1574.852704 57.718028 
L 1574.852704 57.718028 
L 1587.586 62.991812 
L 1587.586 62.991812 
L 1600.319296 70.413177 
L 1600.319296 70.413177 
L 1613.058704 80.390332 
L 1613.058704 80.390332 
L 1625.792 93.23392 
L 1625.792 93.23392 
L 1638.525296 109.107944 
L 1638.525296 109.107944 
L 1651.264704 128.010009 
L 1651.264704 128.010009 
L 1663.998 149.765341 
L 1663.998 149.765341 
L 1676.731296 174.050126 
L 1676.731296 174.050126 
L 1689.470704 200.441192 
L 1689.470704 200.441192 
L 1702.204 228.441747 
L 1702.204 228.441747 
L 1714.937296 257.527465 
L 1714.937296 257.526866 
L 1753.143296 346.325873 
L 1753.143296 346.325274 
L 1765.882704 374.915396 
L 1765.882704 374.915396 
L 1778.616 402.259347 
L 1778.616 402.259347 
L 1791.349296 427.747208 
L 1791.349296 427.746609 
L 1804.088704 450.184881 
L 1804.088704 450.183086 
L 1816.822 466.35339 
L 1816.822 466.349799 
L 1829.555296 470.875401 
L 1829.555296 470.865225 
L 1842.294704 471.169885 
L 1842.294704 471.162703 
L 1867.761296 470.874802 
L 1867.761296 470.878992 
L 1905.967296 470.732348 
L 1905.967296 470.734743 
L 1931.44 470.861634 
L 1944.173296 471.098658 
L 1956.912704 471.599641 
L 1969.646 472.599212 
L 1969.646 472.599212 
L 1982.379296 474.50498 
L 1982.379296 474.50498 
L 1995.118704 477.96158 
L 1995.118704 477.96158 
L 2007.852 483.864436 
L 2007.852 483.864436 
L 2020.585296 493.254417 
L 2020.585296 493.254417 
L 2033.324704 506.931779 
L 2033.324704 506.930582 
L 2046.058 524.669075 
L 2046.058 524.666082 
L 2058.791296 544.3283 
L 2058.791296 544.324709 
L 2071.530704 562.063801 
L 2071.530704 562.060209 
L 2084.264 574.617693 
L 2084.264 574.615299 
L 2096.997296 581.59374 
L 2096.997296 581.592543 
L 2109.736704 584.684629 
L 2109.736704 584.684031 
" clip-path="url(#p725339784e)" style="fill: none; stroke: #ff7f0e; stroke-width: 1.5; stroke-linecap: square"/>
   </g>
   <g id="line2d_48">
    <path d="M 899.878 569.804789 
L 899.878 569.806585 
L 912.613313 567.518944 
L 912.613313 567.521937 
L 925.348687 560.836184 
L 925.348687 560.840374 
L 938.084 550.728547 
L 938.084 550.732737 
L 950.819313 538.669053 
L 950.819313 538.673841 
L 963.55487 526.147482 
L 963.55487 526.154066 
L 976.29 514.300472 
L 976.29 514.308253 
L 989.02513 503.805576 
L 989.02513 503.813956 
L 1001.76087 494.950096 
L 1001.76087 494.951892 
L 1014.496 487.754981 
L 1014.496 487.754981 
L 1027.23113 482.080172 
L 1039.96687 477.713783 
L 1052.702 474.415199 
L 1065.43713 471.950987 
L 1078.17287 470.118839 
L 1090.908 468.749367 
L 1090.908 468.749367 
L 1103.64313 467.7073 
L 1103.64313 467.7073 
L 1116.37887 466.884898 
L 1116.37887 466.884898 
L 1154.58487 464.815128 
L 1154.58487 464.815128 
L 1167.32 463.864638 
L 1167.32 463.864638 
L 1180.05513 462.068403 
L 1180.05513 462.068403 
L 1192.79087 458.422663 
L 1205.526 449.984967 
L 1205.526 449.984967 
L 1218.26113 434.001409 
L 1218.26113 434.001409 
L 1230.99687 412.479511 
L 1230.99687 412.479511 
L 1243.732 387.952315 
L 1243.732 387.952315 
L 1256.46713 361.907807 
L 1256.46713 361.907807 
L 1294.67313 281.568043 
L 1294.67313 281.568043 
L 1307.40887 255.454103 
L 1320.144 230.213441 
L 1320.144 230.213441 
L 1332.87913 206.133958 
L 1345.61487 183.47183 
L 1345.61487 183.47183 
L 1358.35 162.449716 
L 1358.35 162.449716 
L 1371.08513 143.248977 
L 1371.08513 143.248977 
L 1383.82087 126.002488 
L 1383.82087 126.002488 
L 1396.556 110.790455 
L 1409.29113 97.635623 
L 1409.29113 97.635623 
L 1422.02687 86.504473 
L 1422.02687 86.504473 
L 1434.762 77.313209 
L 1434.762 77.313808 
L 1447.49713 69.935538 
L 1447.49713 69.936137 
L 1460.23287 64.218831 
L 1460.23287 64.218831 
L 1472.968 59.996092 
L 1485.70313 57.1123 
L 1485.70313 57.112899 
L 1498.43887 55.438767 
L 1498.43887 55.439366 
L 1511.174 54.8905 
L 1511.174 54.891098 
L 1523.907296 55.438169 
L 1523.907296 55.43757 
L 1536.646704 57.111103 
L 1536.646704 57.109308 
L 1549.38 59.9931 
L 1549.38 59.991903 
L 1562.113296 64.215838 
L 1574.852704 69.933743 
L 1587.586 77.313209 
L 1600.319296 86.505671 
L 1613.058704 97.639813 
L 1613.058704 97.639215 
L 1625.792 110.798236 
L 1625.792 110.797039 
L 1638.525296 126.010868 
L 1638.525296 126.009671 
L 1651.264704 143.258553 
L 1651.264704 143.257955 
L 1663.998 162.459293 
L 1663.998 162.457497 
L 1676.731296 183.480808 
L 1676.731296 183.477815 
L 1689.470704 206.142337 
L 1689.470704 206.138746 
L 1702.204 230.218828 
L 1702.204 230.216434 
L 1714.937296 255.4553 
L 1714.937296 255.454702 
L 1727.676704 281.571634 
L 1727.676704 281.571036 
L 1753.143296 335.163599 
L 1753.143296 335.163599 
L 1765.882704 361.913792 
L 1778.616 387.959497 
L 1791.349296 412.484299 
L 1804.088704 434.015176 
L 1816.822 449.998135 
L 1816.822 449.997537 
L 1829.555296 458.431641 
L 1829.555296 458.428049 
L 1842.294704 462.075585 
L 1842.294704 462.067804 
L 1855.028 463.867032 
L 1855.028 463.861645 
L 1867.761296 464.815727 
L 1867.761296 464.812734 
L 1893.234 466.189987 
L 1893.234 466.18879 
L 1905.967296 466.8843 
L 1905.967296 466.883701 
L 1918.706704 467.7073 
L 1918.706704 467.706701 
L 1931.44 468.750564 
L 1931.44 468.749367 
L 1944.173296 470.120036 
L 1944.173296 470.118241 
L 1956.912704 471.952783 
L 1956.912704 471.950388 
L 1969.646 474.417593 
L 1969.646 474.4146 
L 1982.379296 477.717972 
L 1982.379296 477.715578 
L 1995.118704 482.084361 
L 1995.118704 482.083164 
L 2007.852 487.756777 
L 2020.585296 494.950096 
L 2033.324704 503.803182 
L 2033.324704 503.803182 
L 2046.058 514.296881 
L 2046.058 514.296282 
L 2058.791296 526.142694 
L 2058.791296 526.141497 
L 2071.530704 538.664265 
L 2071.530704 538.663068 
L 2084.264 550.723759 
L 2084.264 550.722561 
L 2096.997296 560.832593 
L 2096.997296 560.831994 
L 2109.736704 567.517747 
L 2109.736704 567.517747 
" clip-path="url(#p725339784e)" style="fill: none; stroke: #2ca02c; stroke-width: 1.5; stroke-linecap: square"/>
   </g>
   <g id="line2d_49">
    <path d="M 899.878 579.878908 
L 899.878 579.877711 
L 899.878 579.877711 
L 912.613313 577.606829 
L 912.613313 577.608625 
L 925.348687 570.525438 
L 925.348687 570.541 
L 938.084 559.090825 
L 938.084 559.145293 
L 950.819313 544.032619 
L 950.819313 544.133773 
L 963.55487 527.238032 
L 963.55487 527.35415 
L 976.29 511.022837 
L 976.29 511.154517 
L 989.02513 497.140772 
L 989.02513 497.310759 
L 1001.76087 486.632708 
L 1001.76087 486.665628 
L 1014.496 479.17962 
L 1014.496 479.204759 
L 1027.23113 474.334993 
L 1027.23113 474.293095 
L 1027.23113 474.425972 
L 1039.96687 471.441026 
L 1039.96687 471.548166 
L 1052.702 469.794428 
L 1052.702 469.828545 
L 1065.43713 468.778097 
L 1065.43713 468.784681 
L 1078.17287 468.130471 
L 1103.64313 467.412815 
L 1103.64313 467.424786 
L 1116.37887 467.292508 
L 1116.37887 467.165616 
L 1116.37887 467.20093 
L 1129.114 467.094389 
L 1129.114 466.926198 
L 1129.114 466.981863 
L 1141.84913 466.855569 
L 1141.84913 466.659247 
L 1141.84913 466.731671 
L 1154.58487 466.54253 
L 1154.58487 466.219914 
L 1154.58487 466.377332 
L 1167.32 466.068482 
L 1167.32 465.483105 
L 1167.32 465.806918 
L 1180.05513 465.04078 
L 1180.05513 465.388535 
L 1180.05513 464.126801 
L 1180.05513 464.779215 
L 1192.79087 462.486188 
L 1192.79087 464.245911 
L 1192.79087 461.628472 
L 1192.79087 463.173318 
L 1205.526 457.578713 
L 1205.526 456.144 
L 1205.526 460.898845 
L 1205.526 460.433177 
L 1218.26113 445.480314 
L 1218.26113 440.58122 
L 1218.26113 445.814901 
L 1218.26113 444.857228 
L 1230.99687 422.411175 
L 1230.99687 426.047937 
L 1230.99687 421.34337 
L 1243.732 400.365549 
L 1243.732 404.590681 
L 1243.732 397.001724 
L 1256.46713 374.11574 
L 1256.46713 375.640235 
L 1256.46713 373.145497 
L 1269.20287 346.554517 
L 1269.20287 347.500817 
L 1269.20287 345.78778 
L 1269.20287 346.670036 
L 1281.938 317.691458 
L 1281.938 318.798169 
L 1281.938 317.525063 
L 1281.938 317.604071 
L 1294.67313 289.316812 
L 1294.67313 290.075768 
L 1294.67313 289.022927 
L 1294.67313 289.252169 
L 1307.40887 261.223483 
L 1307.40887 261.671195 
L 1307.40887 261.039729 
L 1307.40887 261.386287 
L 1320.144 233.768801 
L 1320.144 233.810101 
L 1332.87913 207.583635 
L 1332.87913 207.605781 
L 1345.61487 182.828992 
L 1345.61487 182.861912 
L 1358.35 159.949592 
L 1358.35 160.005257 
L 1371.08513 139.265657 
L 1371.08513 139.333891 
L 1383.82087 120.918443 
L 1383.82087 120.925027 
L 1396.556 105.02766 
L 1396.556 105.031849 
L 1409.29113 91.61665 
L 1409.29113 91.617249 
L 1422.02687 80.599823 
L 1422.02687 80.599823 
L 1434.762 71.805394 
L 1434.762 71.805394 
L 1447.49713 64.995144 
L 1447.49713 64.995144 
L 1460.23287 59.891347 
L 1472.968 56.216278 
L 1472.968 56.216278 
L 1485.70313 53.710767 
L 1485.70313 53.710767 
L 1498.43887 52.127614 
L 1498.43887 52.127614 
L 1511.174 51.487769 
L 1511.174 51.488367 
L 1523.907296 52.127614 
L 1523.907296 52.127614 
L 1536.646704 53.710767 
L 1536.646704 53.710168 
L 1549.38 56.216278 
L 1549.38 56.216278 
L 1562.113296 59.891347 
L 1562.113296 59.891347 
L 1574.852704 64.994545 
L 1574.852704 64.994545 
L 1587.586 71.805394 
L 1587.586 71.805394 
L 1600.319296 80.599224 
L 1600.319296 80.599224 
L 1613.058704 91.61665 
L 1613.058704 91.61665 
L 1625.792 105.031849 
L 1638.525296 120.931611 
L 1638.525296 120.921436 
L 1651.264704 139.327905 
L 1663.998 160.063316 
L 1663.998 160.008848 
L 1676.731296 182.91638 
L 1676.731296 182.876876 
L 1689.470704 207.733271 
L 1689.470704 207.62673 
L 1702.204 234.046527 
L 1702.204 233.838233 
L 1714.937296 261.51258 
L 1714.937296 261.024766 
L 1714.937296 261.572435 
L 1714.937296 261.335411 
L 1727.676704 289.76632 
L 1727.676704 289.114504 
L 1727.676704 290.032074 
L 1727.676704 289.161789 
L 1740.41 318.43545 
L 1740.41 317.332331 
L 1740.41 318.675467 
L 1740.41 317.453237 
L 1753.143296 347.056697 
L 1753.143296 347.333225 
L 1753.143296 345.754262 
L 1765.882704 374.792695 
L 1765.882704 372.755844 
L 1765.882704 375.113515 
L 1765.882704 374.233653 
L 1778.616 403.975975 
L 1778.616 397.493728 
L 1778.616 401.845752 
L 1791.349296 425.979703 
L 1791.349296 422.496767 
L 1791.349296 425.79176 
L 1804.088704 447.685356 
L 1804.088704 442.272111 
L 1804.088704 445.302546 
L 1816.822 458.063535 
L 1816.822 462.023512 
L 1816.822 455.940495 
L 1829.555296 462.819577 
L 1829.555296 464.094479 
L 1829.555296 462.682511 
L 1829.555296 463.240355 
L 1842.294704 464.651725 
L 1842.294704 465.547748 
L 1842.294704 464.647535 
L 1842.294704 465.214956 
L 1855.028 465.760231 
L 1855.028 466.192381 
L 1855.028 466.023591 
L 1867.761296 466.510209 
L 1867.761296 466.492851 
L 1867.761296 466.595801 
L 1867.761296 466.544326 
L 1905.967296 467.255398 
L 1905.967296 467.157835 
L 1905.967296 467.27515 
L 1931.44 467.732439 
L 1931.44 467.721665 
L 1944.173296 468.123289 
L 1944.173296 468.119697 
L 1956.912704 468.763732 
L 1956.912704 468.749966 
L 1969.646 469.803406 
L 1969.646 469.766895 
L 1982.379296 471.467362 
L 1982.379296 471.457785 
L 1995.118704 474.347563 
L 1995.118704 474.323023 
L 2007.852 479.143708 
L 2007.852 479.138919 
L 2020.585296 486.626723 
L 2020.585296 486.594401 
L 2033.324704 497.277839 
L 2033.324704 497.203021 
L 2046.058 511.130575 
L 2046.058 511.044385 
L 2058.791296 527.319434 
L 2058.791296 527.31704 
L 2071.530704 544.096663 
L 2084.264 559.140505 
L 2084.264 559.140505 
L 2096.997296 570.54938 
L 2096.997296 570.546985 
L 2109.736704 577.613413 
L 2109.736704 577.611019 
" clip-path="url(#p725339784e)" style="fill: none; stroke: #d62728; stroke-width: 1.5; stroke-linecap: square"/>
   </g>
   <g id="line2d_50">
    <path d="M 899.878 582.893781 
L 899.878 582.530464 
L 912.613313 580.601951 
L 912.613313 581.187927 
L 912.613313 580.723455 
L 925.348687 575.383831 
L 925.348687 575.55322 
L 925.348687 574.759548 
L 938.084 565.807104 
L 938.084 566.253619 
L 938.084 565.258238 
L 950.819313 552.858172 
L 950.819313 553.12632 
L 950.819313 551.474335 
L 963.55487 536.818949 
L 963.55487 535.47701 
L 963.55487 536.076154 
L 976.29 520.912604 
L 976.29 519.849587 
L 976.29 520.640864 
L 989.02513 507.026948 
L 989.02513 505.497664 
L 989.02513 507.676968 
L 1001.76087 496.058004 
L 1001.76087 494.595757 
L 1001.76087 496.239961 
L 1014.496 487.392861 
L 1014.496 487.177983 
L 1014.496 487.28632 
L 1027.23113 480.898044 
L 1027.23113 480.999199 
L 1027.23113 480.77235 
L 1039.96687 476.622036 
L 1039.96687 476.812972 
L 1039.96687 476.106688 
L 1052.702 474.098568 
L 1052.702 474.141663 
L 1052.702 473.06907 
L 1065.43713 472.183821 
L 1065.43713 472.270012 
L 1065.43713 471.291988 
L 1078.17287 470.831707 
L 1078.17287 470.959796 
L 1078.17287 470.184081 
L 1090.908 470.018284 
L 1090.908 470.093102 
L 1090.908 469.30781 
L 1103.64313 469.435899 
L 1103.64313 468.466854 
L 1116.37887 468.981004 
L 1116.37887 467.949711 
L 1116.37887 468.076602 
L 1129.114 468.712257 
L 1129.114 467.655226 
L 1129.114 467.895841 
L 1141.84913 468.170574 
L 1141.84913 467.2955 
L 1141.84913 467.840177 
L 1154.58487 467.700716 
L 1154.58487 467.194346 
L 1154.58487 467.493619 
L 1167.32 467.241631 
L 1167.32 467.290113 
L 1167.32 467.976047 
L 1180.05513 467.034535 
L 1180.05513 467.118929 
L 1180.05513 468.36151 
L 1192.79087 464.361431 
L 1192.79087 463.516883 
L 1192.79087 465.665063 
L 1205.526 459.69098 
L 1205.526 460.076444 
L 1205.526 458.459174 
L 1218.26113 444.745899 
L 1218.26113 443.257915 
L 1218.26113 444.482539 
L 1230.99687 421.912587 
L 1230.99687 425.391333 
L 1230.99687 422.34354 
L 1243.732 400.437375 
L 1243.732 401.489019 
L 1243.732 398.100055 
L 1243.732 399.355204 
L 1256.46713 368.853927 
L 1256.46713 371.344474 
L 1256.46713 368.716261 
L 1269.20287 344.633785 
L 1269.20287 344.831305 
L 1269.20287 345.334681 
L 1269.20287 343.5576 
L 1281.938 316.478207 
L 1281.938 315.001595 
L 1281.938 316.353111 
L 1294.67313 285.960768 
L 1294.67313 286.289369 
L 1294.67313 285.006687 
L 1307.40887 258.155339 
L 1307.40887 255.666587 
L 1307.40887 257.259316 
L 1320.144 228.620113 
L 1320.144 229.086979 
L 1332.87913 202.332596 
L 1332.87913 202.963463 
L 1332.87913 201.875905 
L 1345.61487 178.551188 
L 1345.61487 177.871839 
L 1345.61487 178.606254 
L 1358.35 156.042886 
L 1358.35 156.138653 
L 1358.35 156.342757 
L 1358.35 155.879483 
L 1358.35 156.050068 
L 1371.08513 135.631289 
L 1371.08513 136.214871 
L 1383.82087 117.779671 
L 1383.82087 118.730161 
L 1396.556 102.268964 
L 1396.556 103.548654 
L 1409.29113 89.83897 
L 1409.29113 90.745168 
L 1422.02687 79.643347 
L 1422.02687 79.754676 
L 1422.02687 80.031204 
L 1422.02687 80.002474 
L 1434.762 71.179914 
L 1434.762 71.436092 
L 1434.762 71.44088 
L 1447.49713 64.614469 
L 1447.49713 64.899377 
L 1460.23287 59.757273 
L 1460.23287 59.766251 
L 1472.968 56.100759 
L 1485.70313 53.604824 
L 1485.70313 53.829877 
L 1485.70313 53.773015 
L 1498.43887 52.209016 
L 1498.43887 52.297601 
L 1498.43887 52.371222 
L 1498.43887 52.361645 
L 1511.174 51.588923 
L 1511.174 51.648777 
L 1511.174 51.7631 
L 1523.907296 51.66434 
L 1523.907296 51.753523 
L 1523.907296 52.018679 
L 1536.646704 52.649545 
L 1536.646704 53.123593 
L 1549.38 54.700761 
L 1549.38 55.354971 
L 1562.113296 57.749153 
L 1562.113296 58.690066 
L 1574.852704 62.091001 
L 1574.852704 63.457481 
L 1587.586 68.666023 
L 1587.586 69.887056 
L 1600.319296 77.350918 
L 1600.319296 78.172122 
L 1613.058704 87.989465 
L 1613.058704 88.869327 
L 1625.792 101.028179 
L 1625.792 101.63271 
L 1638.525296 116.558638 
L 1638.525296 117.59472 
L 1651.264704 134.94775 
L 1651.264704 135.804268 
L 1663.998 155.346777 
L 1663.998 155.267171 
L 1663.998 156.071616 
L 1663.998 156.039893 
L 1676.731296 177.486974 
L 1676.731296 178.332719 
L 1676.731296 178.26209 
L 1689.470704 201.896855 
L 1689.470704 201.875307 
L 1702.204 227.346409 
L 1702.204 226.922639 
L 1702.204 228.179584 
L 1714.937296 255.425373 
L 1714.937296 255.940721 
L 1714.937296 254.552095 
L 1727.676704 282.897412 
L 1727.676704 282.789674 
L 1727.676704 281.442947 
L 1727.676704 281.750599 
L 1740.41 309.31242 
L 1740.41 309.126871 
L 1740.41 308.113534 
L 1740.41 309.517721 
L 1753.143296 339.175649 
L 1753.143296 334.386088 
L 1765.882704 368.024343 
L 1765.882704 364.105665 
L 1765.882704 364.384588 
L 1778.616 395.379067 
L 1778.616 392.045767 
L 1791.349296 422.309423 
L 1791.349296 417.327729 
L 1791.349296 417.728754 
L 1804.088704 441.72085 
L 1804.088704 442.132649 
L 1804.088704 438.453391 
L 1816.822 454.975041 
L 1816.822 456.039853 
L 1829.555296 464.595462 
L 1829.555296 463.910127 
L 1829.555296 464.944414 
L 1829.555296 464.650528 
L 1842.294704 467.294902 
L 1842.294704 467.248215 
L 1842.294704 466.750824 
L 1842.294704 467.455312 
L 1855.028 468.1598 
L 1855.028 468.067025 
L 1855.028 467.983229 
L 1855.028 468.195114 
L 1867.761296 468.615293 
L 1867.761296 468.451292 
L 1867.761296 468.726623 
L 1880.500704 469.424527 
L 1880.500704 468.61649 
L 1880.500704 468.824185 
L 1893.234 469.391607 
L 1893.234 468.666768 
L 1893.234 468.891821 
L 1905.967296 469.53406 
L 1905.967296 468.972026 
L 1905.967296 469.265912 
L 1918.706704 469.665142 
L 1918.706704 469.58374 
L 1918.706704 469.478994 
L 1918.706704 469.784252 
L 1931.44 470.312768 
L 1931.44 470.171511 
L 1931.44 470.416915 
L 1931.44 470.395367 
L 1944.173296 471.425464 
L 1944.173296 471.375186 
L 1944.173296 471.563728 
L 1956.912704 472.815885 
L 1956.912704 473.166633 
L 1969.646 475.135847 
L 1969.646 475.470434 
L 1969.646 475.206476 
L 1982.379296 478.048369 
L 1982.379296 479.058714 
L 1982.379296 478.464359 
L 1995.118704 482.233399 
L 1995.118704 484.078715 
L 1995.118704 483.807574 
L 2007.852 488.138649 
L 2007.852 491.182851 
L 2007.852 490.698029 
L 2020.585296 497.253897 
L 2020.585296 499.782752 
L 2020.585296 499.550516 
L 2033.324704 509.089535 
L 2033.324704 511.189233 
L 2033.324704 511.056954 
L 2046.058 524.209392 
L 2046.058 525.375957 
L 2046.058 524.581089 
L 2058.791296 540.65383 
L 2058.791296 540.593377 
L 2058.791296 540.947716 
L 2058.791296 540.130701 
L 2071.530704 556.478773 
L 2071.530704 556.956412 
L 2071.530704 555.942476 
L 2084.264 569.603678 
L 2084.264 570.008295 
L 2084.264 569.585123 
L 2096.997296 577.834875 
L 2096.997296 577.748684 
L 2109.736704 581.942692 
L 2109.736704 581.914561 
L 2109.736704 581.444104 
L 2109.736704 581.444104 
" clip-path="url(#p725339784e)" style="fill: none; stroke: #9467bd; stroke-width: 1.5; stroke-linecap: square"/>
   </g>
   <g id="patch_13">
    <path d="M 1511.174 647.08 
L 1511.174 21.6 
" style="fill: none; stroke: #000000; stroke-width: 0.8; stroke-linejoin: miter; stroke-linecap: square"/>
   </g>
   <g id="patch_14">
    <path d="M 2122.47 647.08 
L 2122.47 21.6 
" style="fill: none; stroke: #000000; stroke-width: 0.8; stroke-linejoin: miter; stroke-linecap: square"/>
   </g>
   <g id="patch_15">
    <path d="M 1511.174 647.08 
L 2122.47 647.08 
" style="fill: none; stroke: #000000; stroke-width: 0.8; stroke-linejoin: miter; stroke-linecap: square"/>
   </g>
   <g id="patch_16">
    <path d="M 1511.174 21.6 
L 2122.47 21.6 
" style="fill: none; stroke: #000000; stroke-width: 0.8; stroke-linejoin: miter; stroke-linecap: square"/>
   </g>
   <g id="legend_1">
    <g id="patch_17">
     <path d="M 1945.698125 184.38125 
L 2108.47 184.38125 
Q 2112.47 184.38125 2112.47 180.38125 
L 2112.47 35.6 
Q 2112.47 31.6 2108.47 31.6 
L 1945.698125 31.6 
Q 1941.698125 31.6 1941.698125 35.6 
L 1941.698125 180.38125 
Q 1941.698125 184.38125 1945.698125 184.38125 
z
" style="fill: #ffffff; opacity: 0.8; stroke: #cccccc; stroke-linejoin: miter"/>
    </g>
    <g id="line2d_51">
     <path d="M 1949.698125 47.796875 
L 1969.698125 47.796875 
L 1989.698125 47.796875 
" style="fill: none; stroke: #1f77b4; stroke-width: 1.5; stroke-linecap: square"/>
    </g>
    <g id="text_42">
     <!-- Exact Sol. -->
     <g transform="translate(2005.698125 54.796875) scale(0.2 -0.2)">
      <defs>
       <path id="DejaVuSans-45" d="M 628 4666 
L 3578 4666 
L 3578 4134 
L 1259 4134 
L 1259 2753 
L 3481 2753 
L 3481 2222 
L 1259 2222 
L 1259 531 
L 3634 531 
L 3634 0 
L 628 0 
L 628 4666 
z
" transform="scale(0.015625)"/>
       <path id="DejaVuSans-78" d="M 3513 3500 
L 2247 1797 
L 3578 0 
L 2900 0 
L 1881 1375 
L 863 0 
L 184 0 
L 1544 1831 
L 300 3500 
L 978 3500 
L 1906 2253 
L 2834 3500 
L 3513 3500 
z
" transform="scale(0.015625)"/>
       <path id="DejaVuSans-61" d="M 2194 1759 
Q 1497 1759 1228 1600 
Q 959 1441 959 1056 
Q 959 750 1161 570 
Q 1363 391 1709 391 
Q 2188 391 2477 730 
Q 2766 1069 2766 1631 
L 2766 1759 
L 2194 1759 
z
M 3341 1997 
L 3341 0 
L 2766 0 
L 2766 531 
Q 2569 213 2275 61 
Q 1981 -91 1556 -91 
Q 1019 -91 701 211 
Q 384 513 384 1019 
Q 384 1609 779 1909 
Q 1175 2209 1959 2209 
L 2766 2209 
L 2766 2266 
Q 2766 2663 2505 2880 
Q 2244 3097 1772 3097 
Q 1472 3097 1187 3025 
Q 903 2953 641 2809 
L 641 3341 
Q 956 3463 1253 3523 
Q 1550 3584 1831 3584 
Q 2591 3584 2966 3190 
Q 3341 2797 3341 1997 
z
" transform="scale(0.015625)"/>
       <path id="DejaVuSans-63" d="M 3122 3366 
L 3122 2828 
Q 2878 2963 2633 3030 
Q 2388 3097 2138 3097 
Q 1578 3097 1268 2742 
Q 959 2388 959 1747 
Q 959 1106 1268 751 
Q 1578 397 2138 397 
Q 2388 397 2633 464 
Q 2878 531 3122 666 
L 3122 134 
Q 2881 22 2623 -34 
Q 2366 -91 2075 -91 
Q 1284 -91 818 406 
Q 353 903 353 1747 
Q 353 2603 823 3093 
Q 1294 3584 2113 3584 
Q 2378 3584 2631 3529 
Q 2884 3475 3122 3366 
z
" transform="scale(0.015625)"/>
       <path id="DejaVuSans-53" d="M 3425 4513 
L 3425 3897 
Q 3066 4069 2747 4153 
Q 2428 4238 2131 4238 
Q 1616 4238 1336 4038 
Q 1056 3838 1056 3469 
Q 1056 3159 1242 3001 
Q 1428 2844 1947 2747 
L 2328 2669 
Q 3034 2534 3370 2195 
Q 3706 1856 3706 1288 
Q 3706 609 3251 259 
Q 2797 -91 1919 -91 
Q 1588 -91 1214 -16 
Q 841 59 441 206 
L 441 856 
Q 825 641 1194 531 
Q 1563 422 1919 422 
Q 2459 422 2753 634 
Q 3047 847 3047 1241 
Q 3047 1584 2836 1778 
Q 2625 1972 2144 2069 
L 1759 2144 
Q 1053 2284 737 2584 
Q 422 2884 422 3419 
Q 422 4038 858 4394 
Q 1294 4750 2059 4750 
Q 2388 4750 2728 4690 
Q 3069 4631 3425 4513 
z
" transform="scale(0.015625)"/>
       <path id="DejaVuSans-6c" d="M 603 4863 
L 1178 4863 
L 1178 0 
L 603 0 
L 603 4863 
z
" transform="scale(0.015625)"/>
      </defs>
      <use xlink:href="#DejaVuSans-45"/>
      <use xlink:href="#DejaVuSans-78" x="63.183594"/>
      <use xlink:href="#DejaVuSans-61" x="122.363281"/>
      <use xlink:href="#DejaVuSans-63" x="183.642578"/>
      <use xlink:href="#DejaVuSans-74" x="238.623047"/>
      <use xlink:href="#DejaVuSans-20" x="277.832031"/>
      <use xlink:href="#DejaVuSans-53" x="309.619141"/>
      <use xlink:href="#DejaVuSans-6f" x="373.095703"/>
      <use xlink:href="#DejaVuSans-6c" x="434.277344"/>
      <use xlink:href="#DejaVuSans-2e" x="462.060547"/>
     </g>
    </g>
    <g id="line2d_52">
     <path d="M 1949.698125 77.153125 
L 1969.698125 77.153125 
L 1989.698125 77.153125 
" style="fill: none; stroke: #ff7f0e; stroke-width: 1.5; stroke-linecap: square"/>
    </g>
    <g id="text_43">
     <!-- N -->
     <g transform="translate(2005.698125 84.153125) scale(0.2 -0.2)">
      <defs>
       <path id="DejaVuSans-4e" d="M 628 4666 
L 1478 4666 
L 3547 763 
L 3547 4666 
L 4159 4666 
L 4159 0 
L 3309 0 
L 1241 3903 
L 1241 0 
L 628 0 
L 628 4666 
z
" transform="scale(0.015625)"/>
      </defs>
      <use xlink:href="#DejaVuSans-4e"/>
     </g>
    </g>
    <g id="line2d_53">
     <path d="M 1949.698125 106.509375 
L 1969.698125 106.509375 
L 1989.698125 106.509375 
" style="fill: none; stroke: #2ca02c; stroke-width: 1.5; stroke-linecap: square"/>
    </g>
    <g id="text_44">
     <!-- LDA -->
     <g transform="translate(2005.698125 113.509375) scale(0.2 -0.2)">
      <defs>
       <path id="DejaVuSans-4c" d="M 628 4666 
L 1259 4666 
L 1259 531 
L 3531 531 
L 3531 0 
L 628 0 
L 628 4666 
z
" transform="scale(0.015625)"/>
       <path id="DejaVuSans-44" d="M 1259 4147 
L 1259 519 
L 2022 519 
Q 2988 519 3436 956 
Q 3884 1394 3884 2338 
Q 3884 3275 3436 3711 
Q 2988 4147 2022 4147 
L 1259 4147 
z
M 628 4666 
L 1925 4666 
Q 3281 4666 3915 4102 
Q 4550 3538 4550 2338 
Q 4550 1131 3912 565 
Q 3275 0 1925 0 
L 628 0 
L 628 4666 
z
" transform="scale(0.015625)"/>
       <path id="DejaVuSans-41" d="M 2188 4044 
L 1331 1722 
L 3047 1722 
L 2188 4044 
z
M 1831 4666 
L 2547 4666 
L 4325 0 
L 3669 0 
L 3244 1197 
L 1141 1197 
L 716 0 
L 50 0 
L 1831 4666 
z
" transform="scale(0.015625)"/>
      </defs>
      <use xlink:href="#DejaVuSans-4c"/>
      <use xlink:href="#DejaVuSans-44" x="55.712891"/>
      <use xlink:href="#DejaVuSans-41" x="130.964844"/>
     </g>
    </g>
    <g id="line2d_54">
     <path d="M 1949.698125 135.865625 
L 1969.698125 135.865625 
L 1989.698125 135.865625 
" style="fill: none; stroke: #d62728; stroke-width: 1.5; stroke-linecap: square"/>
    </g>
    <g id="text_45">
     <!-- B -->
     <g transform="translate(2005.698125 142.865625) scale(0.2 -0.2)">
      <defs>
       <path id="DejaVuSans-42" d="M 1259 2228 
L 1259 519 
L 2272 519 
Q 2781 519 3026 730 
Q 3272 941 3272 1375 
Q 3272 1813 3026 2020 
Q 2781 2228 2272 2228 
L 1259 2228 
z
M 1259 4147 
L 1259 2741 
L 2194 2741 
Q 2656 2741 2882 2914 
Q 3109 3088 3109 3444 
Q 3109 3797 2882 3972 
Q 2656 4147 2194 4147 
L 1259 4147 
z
M 628 4666 
L 2241 4666 
Q 2963 4666 3353 4366 
Q 3744 4066 3744 3513 
Q 3744 3084 3544 2831 
Q 3344 2578 2956 2516 
Q 3422 2416 3680 2098 
Q 3938 1781 3938 1306 
Q 3938 681 3513 340 
Q 3088 0 2303 0 
L 628 0 
L 628 4666 
z
" transform="scale(0.015625)"/>
      </defs>
      <use xlink:href="#DejaVuSans-42"/>
     </g>
    </g>
    <g id="line2d_55">
     <path d="M 1949.698125 165.221875 
L 1969.698125 165.221875 
L 1989.698125 165.221875 
" style="fill: none; stroke: #9467bd; stroke-width: 1.5; stroke-linecap: square"/>
    </g>
    <g id="text_46">
     <!-- Bx -->
     <g transform="translate(2005.698125 172.221875) scale(0.2 -0.2)">
      <use xlink:href="#DejaVuSans-42"/>
      <use xlink:href="#DejaVuSans-78" x="68.603516"/>
     </g>
    </g>
   </g>
  </g>
 </g>
 <defs>
  <clipPath id="p2835b58556">
   <rect x="84.71" y="21.6" width="611.296" height="625.48"/>
  </clipPath>
  <clipPath id="p57f26f0711">
   <rect x="797.942" y="21.6" width="611.296" height="625.48"/>
  </clipPath>
  <clipPath id="p725339784e">
   <rect x="1511.174" y="21.6" width="611.296" height="625.48"/>
  </clipPath>
 </defs>
</svg>
