<?xml version="1.0" encoding="utf-8" standalone="no"?>
<!DOCTYPE svg PUBLIC "-//W3C//DTD SVG 1.1//EN"
  "http://www.w3.org/Graphics/SVG/1.1/DTD/svg11.dtd">
<svg xmlns:xlink="http://www.w3.org/1999/xlink" width="2160pt" height="720pt" viewBox="0 0 2160 720" xmlns="http://www.w3.org/2000/svg" version="1.1">
 <metadata>
  <rdf:RDF xmlns:dc="http://purl.org/dc/elements/1.1/" xmlns:cc="http://creativecommons.org/ns#" xmlns:rdf="http://www.w3.org/1999/02/22-rdf-syntax-ns#">
   <cc:Work>
    <dc:type rdf:resource="http://purl.org/dc/dcmitype/StillImage"/>
    <dc:date>2023-06-30T01:43:15.806723</dc:date>
    <dc:format>image/svg+xml</dc:format>
    <dc:creator>
     <cc:Agent>
      <dc:title>Matplotlib v3.7.1, https://matplotlib.org/</dc:title>
     </cc:Agent>
    </dc:creator>
   </cc:Work>
  </rdf:RDF>
 </metadata>
 <defs>
  <style type="text/css">*{stroke-linejoin: round; stroke-linecap: butt}</style>
 </defs>
 <g id="figure_1">
  <g id="patch_1">
   <path d="M 0 720 
L 2160 720 
L 2160 0 
L 0 0 
z
" style="fill: #ffffff"/>
  </g>
  <g id="axes_1">
   <g id="patch_2">
    <path d="M 84.71 647.08 
L 696.006 647.08 
L 696.006 21.6 
L 84.71 21.6 
z
" style="fill: #ffffff"/>
   </g>
   <g id="matplotlib.axis_1">
    <g id="xtick_1">
     <g id="line2d_1">
      <defs>
       <path id="me6c846ad9d" d="M 0 0 
L 0 3.5 
" style="stroke: #000000; stroke-width: 0.8"/>
      </defs>
      <g>
       <use xlink:href="#me6c846ad9d" x="84.71" y="647.08" style="stroke: #000000; stroke-width: 0.8"/>
      </g>
     </g>
     <g id="text_1">
      <!-- 1.0 -->
      <g transform="translate(68.806875 669.276875) scale(0.2 -0.2)">
       <defs>
        <path id="DejaVuSans-31" d="M 794 531 
L 1825 531 
L 1825 4091 
L 703 3866 
L 703 4441 
L 1819 4666 
L 2450 4666 
L 2450 531 
L 3481 531 
L 3481 0 
L 794 0 
L 794 531 
z
" transform="scale(0.015625)"/>
        <path id="DejaVuSans-2e" d="M 684 794 
L 1344 794 
L 1344 0 
L 684 0 
L 684 794 
z
" transform="scale(0.015625)"/>
        <path id="DejaVuSans-30" d="M 2034 4250 
Q 1547 4250 1301 3770 
Q 1056 3291 1056 2328 
Q 1056 1369 1301 889 
Q 1547 409 2034 409 
Q 2525 409 2770 889 
Q 3016 1369 3016 2328 
Q 3016 3291 2770 3770 
Q 2525 4250 2034 4250 
z
M 2034 4750 
Q 2819 4750 3233 4129 
Q 3647 3509 3647 2328 
Q 3647 1150 3233 529 
Q 2819 -91 2034 -91 
Q 1250 -91 836 529 
Q 422 1150 422 2328 
Q 422 3509 836 4129 
Q 1250 4750 2034 4750 
z
" transform="scale(0.015625)"/>
       </defs>
       <use xlink:href="#DejaVuSans-31"/>
       <use xlink:href="#DejaVuSans-2e" x="63.623047"/>
       <use xlink:href="#DejaVuSans-30" x="95.410156"/>
      </g>
     </g>
    </g>
    <g id="xtick_2">
     <g id="line2d_2">
      <g>
       <use xlink:href="#me6c846ad9d" x="206.9692" y="647.08" style="stroke: #000000; stroke-width: 0.8"/>
      </g>
     </g>
     <g id="text_2">
      <!-- 1.2 -->
      <g transform="translate(191.066075 669.276875) scale(0.2 -0.2)">
       <defs>
        <path id="DejaVuSans-32" d="M 1228 531 
L 3431 531 
L 3431 0 
L 469 0 
L 469 531 
Q 828 903 1448 1529 
Q 2069 2156 2228 2338 
Q 2531 2678 2651 2914 
Q 2772 3150 2772 3378 
Q 2772 3750 2511 3984 
Q 2250 4219 1831 4219 
Q 1534 4219 1204 4116 
Q 875 4013 500 3803 
L 500 4441 
Q 881 4594 1212 4672 
Q 1544 4750 1819 4750 
Q 2544 4750 2975 4387 
Q 3406 4025 3406 3419 
Q 3406 3131 3298 2873 
Q 3191 2616 2906 2266 
Q 2828 2175 2409 1742 
Q 1991 1309 1228 531 
z
" transform="scale(0.015625)"/>
       </defs>
       <use xlink:href="#DejaVuSans-31"/>
       <use xlink:href="#DejaVuSans-2e" x="63.623047"/>
       <use xlink:href="#DejaVuSans-32" x="95.410156"/>
      </g>
     </g>
    </g>
    <g id="xtick_3">
     <g id="line2d_3">
      <g>
       <use xlink:href="#me6c846ad9d" x="329.2284" y="647.08" style="stroke: #000000; stroke-width: 0.8"/>
      </g>
     </g>
     <g id="text_3">
      <!-- 1.4 -->
      <g transform="translate(313.325275 669.276875) scale(0.2 -0.2)">
       <defs>
        <path id="DejaVuSans-34" d="M 2419 4116 
L 825 1625 
L 2419 1625 
L 2419 4116 
z
M 2253 4666 
L 3047 4666 
L 3047 1625 
L 3713 1625 
L 3713 1100 
L 3047 1100 
L 3047 0 
L 2419 0 
L 2419 1100 
L 313 1100 
L 313 1709 
L 2253 4666 
z
" transform="scale(0.015625)"/>
       </defs>
       <use xlink:href="#DejaVuSans-31"/>
       <use xlink:href="#DejaVuSans-2e" x="63.623047"/>
       <use xlink:href="#DejaVuSans-34" x="95.410156"/>
      </g>
     </g>
    </g>
    <g id="xtick_4">
     <g id="line2d_4">
      <g>
       <use xlink:href="#me6c846ad9d" x="451.4876" y="647.08" style="stroke: #000000; stroke-width: 0.8"/>
      </g>
     </g>
     <g id="text_4">
      <!-- 1.6 -->
      <g transform="translate(435.584475 669.276875) scale(0.2 -0.2)">
       <defs>
        <path id="DejaVuSans-36" d="M 2113 2584 
Q 1688 2584 1439 2293 
Q 1191 2003 1191 1497 
Q 1191 994 1439 701 
Q 1688 409 2113 409 
Q 2538 409 2786 701 
Q 3034 994 3034 1497 
Q 3034 2003 2786 2293 
Q 2538 2584 2113 2584 
z
M 3366 4563 
L 3366 3988 
Q 3128 4100 2886 4159 
Q 2644 4219 2406 4219 
Q 1781 4219 1451 3797 
Q 1122 3375 1075 2522 
Q 1259 2794 1537 2939 
Q 1816 3084 2150 3084 
Q 2853 3084 3261 2657 
Q 3669 2231 3669 1497 
Q 3669 778 3244 343 
Q 2819 -91 2113 -91 
Q 1303 -91 875 529 
Q 447 1150 447 2328 
Q 447 3434 972 4092 
Q 1497 4750 2381 4750 
Q 2619 4750 2861 4703 
Q 3103 4656 3366 4563 
z
" transform="scale(0.015625)"/>
       </defs>
       <use xlink:href="#DejaVuSans-31"/>
       <use xlink:href="#DejaVuSans-2e" x="63.623047"/>
       <use xlink:href="#DejaVuSans-36" x="95.410156"/>
      </g>
     </g>
    </g>
    <g id="xtick_5">
     <g id="line2d_5">
      <g>
       <use xlink:href="#me6c846ad9d" x="573.7468" y="647.08" style="stroke: #000000; stroke-width: 0.8"/>
      </g>
     </g>
     <g id="text_5">
      <!-- 1.8 -->
      <g transform="translate(557.843675 669.276875) scale(0.2 -0.2)">
       <defs>
        <path id="DejaVuSans-38" d="M 2034 2216 
Q 1584 2216 1326 1975 
Q 1069 1734 1069 1313 
Q 1069 891 1326 650 
Q 1584 409 2034 409 
Q 2484 409 2743 651 
Q 3003 894 3003 1313 
Q 3003 1734 2745 1975 
Q 2488 2216 2034 2216 
z
M 1403 2484 
Q 997 2584 770 2862 
Q 544 3141 544 3541 
Q 544 4100 942 4425 
Q 1341 4750 2034 4750 
Q 2731 4750 3128 4425 
Q 3525 4100 3525 3541 
Q 3525 3141 3298 2862 
Q 3072 2584 2669 2484 
Q 3125 2378 3379 2068 
Q 3634 1759 3634 1313 
Q 3634 634 3220 271 
Q 2806 -91 2034 -91 
Q 1263 -91 848 271 
Q 434 634 434 1313 
Q 434 1759 690 2068 
Q 947 2378 1403 2484 
z
M 1172 3481 
Q 1172 3119 1398 2916 
Q 1625 2713 2034 2713 
Q 2441 2713 2670 2916 
Q 2900 3119 2900 3481 
Q 2900 3844 2670 4047 
Q 2441 4250 2034 4250 
Q 1625 4250 1398 4047 
Q 1172 3844 1172 3481 
z
" transform="scale(0.015625)"/>
       </defs>
       <use xlink:href="#DejaVuSans-31"/>
       <use xlink:href="#DejaVuSans-2e" x="63.623047"/>
       <use xlink:href="#DejaVuSans-38" x="95.410156"/>
      </g>
     </g>
    </g>
    <g id="xtick_6">
     <g id="line2d_6">
      <g>
       <use xlink:href="#me6c846ad9d" x="696.006" y="647.08" style="stroke: #000000; stroke-width: 0.8"/>
      </g>
     </g>
     <g id="text_6">
      <!-- 2.0 -->
      <g transform="translate(680.102875 669.276875) scale(0.2 -0.2)">
       <use xlink:href="#DejaVuSans-32"/>
       <use xlink:href="#DejaVuSans-2e" x="63.623047"/>
       <use xlink:href="#DejaVuSans-30" x="95.410156"/>
      </g>
     </g>
    </g>
    <g id="text_7">
     <!-- Position $x$ -->
     <g transform="translate(341.958 692.633125) scale(0.2 -0.2)">
      <defs>
       <path id="DejaVuSans-50" d="M 1259 4147 
L 1259 2394 
L 2053 2394 
Q 2494 2394 2734 2622 
Q 2975 2850 2975 3272 
Q 2975 3691 2734 3919 
Q 2494 4147 2053 4147 
L 1259 4147 
z
M 628 4666 
L 2053 4666 
Q 2838 4666 3239 4311 
Q 3641 3956 3641 3272 
Q 3641 2581 3239 2228 
Q 2838 1875 2053 1875 
L 1259 1875 
L 1259 0 
L 628 0 
L 628 4666 
z
" transform="scale(0.015625)"/>
       <path id="DejaVuSans-6f" d="M 1959 3097 
Q 1497 3097 1228 2736 
Q 959 2375 959 1747 
Q 959 1119 1226 758 
Q 1494 397 1959 397 
Q 2419 397 2687 759 
Q 2956 1122 2956 1747 
Q 2956 2369 2687 2733 
Q 2419 3097 1959 3097 
z
M 1959 3584 
Q 2709 3584 3137 3096 
Q 3566 2609 3566 1747 
Q 3566 888 3137 398 
Q 2709 -91 1959 -91 
Q 1206 -91 779 398 
Q 353 888 353 1747 
Q 353 2609 779 3096 
Q 1206 3584 1959 3584 
z
" transform="scale(0.015625)"/>
       <path id="DejaVuSans-73" d="M 2834 3397 
L 2834 2853 
Q 2591 2978 2328 3040 
Q 2066 3103 1784 3103 
Q 1356 3103 1142 2972 
Q 928 2841 928 2578 
Q 928 2378 1081 2264 
Q 1234 2150 1697 2047 
L 1894 2003 
Q 2506 1872 2764 1633 
Q 3022 1394 3022 966 
Q 3022 478 2636 193 
Q 2250 -91 1575 -91 
Q 1294 -91 989 -36 
Q 684 19 347 128 
L 347 722 
Q 666 556 975 473 
Q 1284 391 1588 391 
Q 1994 391 2212 530 
Q 2431 669 2431 922 
Q 2431 1156 2273 1281 
Q 2116 1406 1581 1522 
L 1381 1569 
Q 847 1681 609 1914 
Q 372 2147 372 2553 
Q 372 3047 722 3315 
Q 1072 3584 1716 3584 
Q 2034 3584 2315 3537 
Q 2597 3491 2834 3397 
z
" transform="scale(0.015625)"/>
       <path id="DejaVuSans-69" d="M 603 3500 
L 1178 3500 
L 1178 0 
L 603 0 
L 603 3500 
z
M 603 4863 
L 1178 4863 
L 1178 4134 
L 603 4134 
L 603 4863 
z
" transform="scale(0.015625)"/>
       <path id="DejaVuSans-74" d="M 1172 4494 
L 1172 3500 
L 2356 3500 
L 2356 3053 
L 1172 3053 
L 1172 1153 
Q 1172 725 1289 603 
Q 1406 481 1766 481 
L 2356 481 
L 2356 0 
L 1766 0 
Q 1100 0 847 248 
Q 594 497 594 1153 
L 594 3053 
L 172 3053 
L 172 3500 
L 594 3500 
L 594 4494 
L 1172 4494 
z
" transform="scale(0.015625)"/>
       <path id="DejaVuSans-6e" d="M 3513 2113 
L 3513 0 
L 2938 0 
L 2938 2094 
Q 2938 2591 2744 2837 
Q 2550 3084 2163 3084 
Q 1697 3084 1428 2787 
Q 1159 2491 1159 1978 
L 1159 0 
L 581 0 
L 581 3500 
L 1159 3500 
L 1159 2956 
Q 1366 3272 1645 3428 
Q 1925 3584 2291 3584 
Q 2894 3584 3203 3211 
Q 3513 2838 3513 2113 
z
" transform="scale(0.015625)"/>
       <path id="DejaVuSans-20" transform="scale(0.015625)"/>
       <path id="DejaVuSans-Oblique-78" d="M 3841 3500 
L 2234 1784 
L 3219 0 
L 2559 0 
L 1819 1388 
L 531 0 
L -166 0 
L 1556 1844 
L 641 3500 
L 1300 3500 
L 1972 2234 
L 3144 3500 
L 3841 3500 
z
" transform="scale(0.015625)"/>
      </defs>
      <use xlink:href="#DejaVuSans-50" transform="translate(0 0.015625)"/>
      <use xlink:href="#DejaVuSans-6f" transform="translate(60.302734 0.015625)"/>
      <use xlink:href="#DejaVuSans-73" transform="translate(121.484375 0.015625)"/>
      <use xlink:href="#DejaVuSans-69" transform="translate(173.583984 0.015625)"/>
      <use xlink:href="#DejaVuSans-74" transform="translate(201.367188 0.015625)"/>
      <use xlink:href="#DejaVuSans-69" transform="translate(240.576172 0.015625)"/>
      <use xlink:href="#DejaVuSans-6f" transform="translate(268.359375 0.015625)"/>
      <use xlink:href="#DejaVuSans-6e" transform="translate(329.541016 0.015625)"/>
      <use xlink:href="#DejaVuSans-20" transform="translate(392.919922 0.015625)"/>
      <use xlink:href="#DejaVuSans-Oblique-78" transform="translate(424.707031 0.015625)"/>
     </g>
    </g>
   </g>
   <g id="matplotlib.axis_2">
    <g id="ytick_1">
     <g id="line2d_7">
      <defs>
       <path id="mebe0e5707a" d="M 0 0 
L -3.5 0 
" style="stroke: #000000; stroke-width: 0.8"/>
      </defs>
      <g>
       <use xlink:href="#mebe0e5707a" x="84.71" y="647.08" style="stroke: #000000; stroke-width: 0.8"/>
      </g>
     </g>
     <g id="text_8">
      <!-- 0.0 -->
      <g transform="translate(45.90375 654.678437) scale(0.2 -0.2)">
       <use xlink:href="#DejaVuSans-30"/>
       <use xlink:href="#DejaVuSans-2e" x="63.623047"/>
       <use xlink:href="#DejaVuSans-30" x="95.410156"/>
      </g>
     </g>
    </g>
    <g id="ytick_2">
     <g id="line2d_8">
      <g>
       <use xlink:href="#mebe0e5707a" x="84.71" y="527.227545" style="stroke: #000000; stroke-width: 0.8"/>
      </g>
     </g>
     <g id="text_9">
      <!-- 0.2 -->
      <g transform="translate(45.90375 534.825982) scale(0.2 -0.2)">
       <use xlink:href="#DejaVuSans-30"/>
       <use xlink:href="#DejaVuSans-2e" x="63.623047"/>
       <use xlink:href="#DejaVuSans-32" x="95.410156"/>
      </g>
     </g>
    </g>
    <g id="ytick_3">
     <g id="line2d_9">
      <g>
       <use xlink:href="#mebe0e5707a" x="84.71" y="407.37509" style="stroke: #000000; stroke-width: 0.8"/>
      </g>
     </g>
     <g id="text_10">
      <!-- 0.4 -->
      <g transform="translate(45.90375 414.973527) scale(0.2 -0.2)">
       <use xlink:href="#DejaVuSans-30"/>
       <use xlink:href="#DejaVuSans-2e" x="63.623047"/>
       <use xlink:href="#DejaVuSans-34" x="95.410156"/>
      </g>
     </g>
    </g>
    <g id="ytick_4">
     <g id="line2d_10">
      <g>
       <use xlink:href="#mebe0e5707a" x="84.71" y="287.522635" style="stroke: #000000; stroke-width: 0.8"/>
      </g>
     </g>
     <g id="text_11">
      <!-- 0.6 -->
      <g transform="translate(45.90375 295.121072) scale(0.2 -0.2)">
       <use xlink:href="#DejaVuSans-30"/>
       <use xlink:href="#DejaVuSans-2e" x="63.623047"/>
       <use xlink:href="#DejaVuSans-36" x="95.410156"/>
      </g>
     </g>
    </g>
    <g id="ytick_5">
     <g id="line2d_11">
      <g>
       <use xlink:href="#mebe0e5707a" x="84.71" y="167.67018" style="stroke: #000000; stroke-width: 0.8"/>
      </g>
     </g>
     <g id="text_12">
      <!-- 0.8 -->
      <g transform="translate(45.90375 175.268617) scale(0.2 -0.2)">
       <use xlink:href="#DejaVuSans-30"/>
       <use xlink:href="#DejaVuSans-2e" x="63.623047"/>
       <use xlink:href="#DejaVuSans-38" x="95.410156"/>
      </g>
     </g>
    </g>
    <g id="ytick_6">
     <g id="line2d_12">
      <g>
       <use xlink:href="#mebe0e5707a" x="84.71" y="47.817725" style="stroke: #000000; stroke-width: 0.8"/>
      </g>
     </g>
     <g id="text_13">
      <!-- 1.0 -->
      <g transform="translate(45.90375 55.416162) scale(0.2 -0.2)">
       <use xlink:href="#DejaVuSans-31"/>
       <use xlink:href="#DejaVuSans-2e" x="63.623047"/>
       <use xlink:href="#DejaVuSans-30" x="95.410156"/>
      </g>
     </g>
    </g>
    <g id="text_14">
     <!-- $\rho$ -->
     <g transform="translate(37.70375 340.74) rotate(-90) scale(0.2 -0.2)">
      <defs>
       <path id="DejaVuSans-Oblique-3c1" d="M 1203 2875 
Q 1453 3194 1981 3475 
Q 2188 3584 2756 3584 
Q 3394 3584 3694 3078 
Q 3994 2572 3834 1747 
Q 3672 922 3175 415 
Q 2678 -91 2041 -91 
Q 1656 -91 1409 63 
Q 1163 213 1044 525 
L 681 -1331 
L 103 -1331 
L 697 1716 
Q 838 2438 1203 2875 
z
M 3238 1747 
Q 3359 2381 3169 2744 
Q 2978 3103 2522 3103 
Q 2066 3103 1734 2744 
Q 1403 2381 1281 1747 
Q 1156 1113 1347 750 
Q 1538 391 1994 391 
Q 2450 391 2781 750 
Q 3113 1113 3238 1747 
z
" transform="scale(0.015625)"/>
      </defs>
      <use xlink:href="#DejaVuSans-Oblique-3c1"/>
     </g>
    </g>
   </g>
   <g id="line2d_13">
    <path d="M -1 47.817725 
L 224.800704 47.817725 
L 224.800704 47.817725 
L 237.534 63.793559 
L 237.534 63.793559 
L 250.267296 98.540044 
L 250.267296 98.540044 
L 263.006704 131.894149 
L 263.006704 131.894149 
L 275.74 163.852999 
L 275.74 163.852999 
L 288.473296 194.462061 
L 288.473296 194.462061 
L 301.212704 223.764204 
L 301.212704 223.764204 
L 313.946 251.760444 
L 313.946 251.760444 
L 326.679296 278.49428 
L 326.679296 278.49428 
L 339.418704 304.006786 
L 339.418704 304.006786 
L 352.152 328.302614 
L 352.152 328.302614 
L 364.885296 351.423422 
L 364.885296 351.423422 
L 377.624704 359.620443 
L 377.624704 359.620443 
L 492.242704 359.620443 
L 492.242704 359.620443 
L 504.976 509.366084 
L 504.976 509.366084 
L 606.860704 509.366084 
L 606.860704 509.366084 
L 619.594 572.172216 
L 619.594 572.172216 
L 683.272704 572.172216 
L 683.272704 572.172216 
" clip-path="url(#p48cf1d6529)" style="fill: none; stroke: #1f77b4; stroke-width: 1.5; stroke-linecap: square"/>
   </g>
   <g id="line2d_14">
    <path d="M -1 59.88448 
L 8.298 56.569351 
L 8.298 56.569351 
L 21.03313 53.362099 
L 21.03313 53.362099 
L 33.76887 51.201159 
L 33.76887 51.201159 
L 46.504 49.819261 
L 46.504 49.819261 
L 59.23913 48.995275 
L 59.23913 48.995275 
L 71.97487 48.566802 
L 71.97487 48.566802 
L 84.71 48.434365 
L 84.71 48.434365 
L 97.443296 48.566802 
L 97.443296 48.566802 
L 110.182704 48.995275 
L 110.182704 48.995275 
L 122.916 49.819261 
L 122.916 49.819261 
L 135.649296 51.201159 
L 135.649296 51.201159 
L 148.388704 53.362099 
L 148.388704 53.362099 
L 161.122 56.569351 
L 161.122 56.569351 
L 173.855296 61.109961 
L 173.855296 61.109961 
L 186.594704 67.263785 
L 186.594704 67.263785 
L 199.328 75.268132 
L 199.328 75.268132 
L 212.061296 85.289595 
L 212.061296 85.289595 
L 224.800704 97.409674 
L 224.800704 97.409674 
L 237.534 111.615186 
L 237.534 111.615186 
L 250.267296 127.809051 
L 250.267296 127.809051 
L 263.006704 145.827669 
L 263.006704 145.827669 
L 275.74 165.452909 
L 275.74 165.452909 
L 288.473296 186.433681 
L 288.473296 186.433681 
L 301.212704 208.511701 
L 301.212704 208.511701 
L 313.946 231.408914 
L 326.679296 254.843664 
L 326.679296 254.843664 
L 352.152 302.085307 
L 352.152 302.085307 
L 364.885296 324.992707 
L 364.885296 324.992707 
L 377.624704 345.999846 
L 377.624704 345.999247 
L 390.358 361.819771 
L 390.358 361.817374 
L 403.091296 367.196951 
L 403.091296 367.189161 
L 415.830704 369.727037 
L 415.830704 369.721044 
L 428.564 374.421058 
L 428.564 374.420459 
L 441.297296 383.296132 
L 441.297296 383.291937 
L 454.036704 397.130102 
L 454.036704 397.116918 
L 466.77 415.28715 
L 466.77 415.264378 
L 492.242704 456.198785 
L 492.242704 456.19459 
L 492.242704 456.162829 
L 504.976 474.121521 
L 504.976 474.087963 
L 517.709296 488.276096 
L 517.709296 488.249129 
L 530.448704 498.413217 
L 530.448704 498.395239 
L 543.182 505.141734 
L 543.182 505.132146 
L 555.915296 509.551705 
L 555.915296 509.54751 
L 581.388 516.31438 
L 581.388 516.31438 
L 594.121296 520.905328 
L 594.121296 520.905328 
L 606.860704 527.419309 
L 606.860704 527.41871 
L 619.594 536.068461 
L 619.594 536.067263 
L 632.327296 546.13427 
L 632.327296 546.131873 
L 645.066704 555.904043 
L 645.066704 555.902245 
L 657.8 563.496096 
L 657.8 563.494898 
L 670.533296 568.117008 
L 670.533296 568.116408 
L 683.272704 570.296525 
L 683.272704 570.296525 
" clip-path="url(#p48cf1d6529)" style="fill: none; stroke: #ff7f0e; stroke-width: 1.5; stroke-linecap: square"/>
   </g>
   <g id="line2d_15">
    <path d="M -1 69.355972 
L 8.298 65.243672 
L 8.298 65.243672 
L 21.03313 60.746808 
L 21.03313 60.747407 
L 33.76887 57.27708 
L 33.76887 57.27708 
L 46.504 54.722424 
L 46.504 54.722424 
L 59.23913 52.979171 
L 59.23913 52.981568 
L 71.97487 51.970013 
L 71.97487 51.973009 
L 84.71 51.642816 
L 84.71 51.643415 
L 97.443296 51.97241 
L 97.443296 51.971811 
L 110.182704 52.980369 
L 110.182704 52.97977 
L 122.916 54.720027 
L 122.916 54.719428 
L 135.649296 57.275282 
L 148.388704 60.74561 
L 161.122 65.243672 
L 173.855296 70.876138 
L 173.855296 70.876138 
L 186.594704 77.74728 
L 186.594704 77.74728 
L 199.328 85.936199 
L 199.328 85.935599 
L 212.061296 95.502222 
L 212.061296 95.500425 
L 224.800704 106.47831 
L 224.800704 106.477112 
L 237.534 118.869856 
L 237.534 118.869256 
L 250.267296 132.65948 
L 250.267296 132.657083 
L 263.006704 147.799841 
L 263.006704 147.796845 
L 275.74 164.218429 
L 275.74 164.216631 
L 288.473296 181.828949 
L 288.473296 181.82835 
L 301.212704 200.530727 
L 301.212704 200.530727 
L 313.946 220.220088 
L 313.946 220.220088 
L 326.679296 240.789765 
L 326.679296 240.789765 
L 339.418704 262.170844 
L 364.885296 306.284937 
L 377.624704 327.328631 
L 390.358 344.945144 
L 390.358 344.944545 
L 403.091296 357.262381 
L 403.091296 357.258186 
L 415.830704 367.069908 
L 415.830704 367.062117 
L 428.564 377.437145 
L 428.564 377.431152 
L 441.297296 389.454151 
L 441.297296 389.449957 
L 454.036704 403.491271 
L 454.036704 403.487675 
L 466.77 419.117634 
L 466.77 419.114638 
L 492.242704 451.958405 
L 492.242704 451.955409 
L 504.976 467.270755 
L 504.976 467.269556 
L 517.709296 480.796704 
L 517.709296 480.796105 
L 530.448704 492.109577 
L 543.182 501.13986 
L 555.915296 508.147034 
L 568.654704 513.616501 
L 581.388 518.148122 
L 594.121296 522.347153 
L 594.121296 522.346554 
L 606.860704 526.722367 
L 606.860704 526.721168 
L 619.594 531.618939 
L 619.594 531.61774 
L 632.327296 537.166909 
L 632.327296 537.16571 
L 657.8 549.384069 
L 657.8 549.38347 
L 670.533296 554.838554 
L 670.533296 554.837955 
L 683.272704 558.588738 
L 683.272704 558.588738 
" clip-path="url(#p48cf1d6529)" style="fill: none; stroke: #2ca02c; stroke-width: 1.5; stroke-linecap: square"/>
   </g>
   <g id="line2d_16">
    <path d="M -1 65.85577 
L 8.298 61.917167 
L 8.298 61.917167 
L 21.03313 57.764879 
L 21.03313 57.764879 
L 33.76887 54.667292 
L 46.504 52.444629 
L 46.504 52.444629 
L 59.23913 50.93269 
L 59.23913 50.93269 
L 71.97487 49.980462 
L 71.97487 49.980462 
L 84.71 49.598133 
L 84.71 49.598133 
L 97.443296 49.980462 
L 97.443296 49.980462 
L 110.182704 50.93269 
L 110.182704 50.93269 
L 122.916 52.444629 
L 122.916 52.444629 
L 135.649296 54.667292 
L 135.649296 54.667292 
L 148.388704 57.764879 
L 148.388704 57.764879 
L 161.122 61.942936 
L 173.855296 67.312925 
L 186.594704 74.12414 
L 199.328 82.501827 
L 212.061296 92.553852 
L 212.061296 92.545462 
L 224.800704 104.359319 
L 237.534 117.897253 
L 237.534 117.837926 
L 250.267296 133.126305 
L 250.267296 133.104732 
L 263.006704 149.979957 
L 263.006704 149.890068 
L 275.74 168.413265 
L 275.74 168.314986 
L 288.473296 188.093038 
L 288.473296 187.865318 
L 288.473296 188.235662 
L 288.473296 187.938428 
L 301.212704 209.102574 
L 301.212704 208.524286 
L 301.212704 209.193662 
L 301.212704 208.699271 
L 313.946 230.934298 
L 313.946 231.376554 
L 313.946 230.302076 
L 326.679296 253.054866 
L 326.679296 253.833907 
L 326.679296 252.727669 
L 339.418704 278.000956 
L 339.418704 274.48868 
L 339.418704 276.455459 
L 352.152 298.660523 
L 352.152 299.887213 
L 352.152 298.015717 
L 352.152 298.203286 
L 364.885296 318.898809 
L 364.885296 322.69154 
L 364.885296 318.774162 
L 377.624704 337.044471 
L 377.624704 341.698941 
L 377.624704 336.049096 
L 390.358 348.869114 
L 390.358 358.659262 
L 390.358 348.675552 
L 403.091296 356.202286 
L 403.091296 360.892712 
L 403.091296 358.471093 
L 415.830704 363.148935 
L 415.830704 365.109721 
L 415.830704 364.742373 
L 428.564 371.786102 
L 428.564 371.627297 
L 428.564 372.339221 
L 441.297296 383.312312 
L 441.297296 382.670503 
L 441.297296 383.448345 
L 441.297296 383.334485 
L 454.036704 398.337016 
L 454.036704 397.678427 
L 454.036704 398.401137 
L 454.036704 398.153642 
L 466.77 416.283723 
L 466.77 415.695847 
L 466.77 416.319079 
L 466.77 416.07458 
L 479.503296 435.714203 
L 479.503296 435.259962 
L 479.503296 435.732181 
L 479.503296 435.541016 
L 492.242704 454.795313 
L 492.242704 454.4813 
L 492.242704 454.801306 
L 492.242704 454.66767 
L 504.976 471.877284 
L 504.976 471.687318 
L 504.976 471.88028 
L 504.976 471.793987 
L 517.709296 485.894628 
L 517.709296 485.849683 
L 530.448704 496.457225 
L 530.448704 496.437449 
L 543.182 503.794592 
L 543.182 503.773618 
L 555.915296 508.511985 
L 555.915296 508.503595 
L 568.654704 511.639535 
L 568.654704 511.625752 
L 581.388 514.457266 
L 581.388 514.452472 
L 594.121296 518.035461 
L 594.121296 518.020479 
L 606.860704 522.995555 
L 606.860704 522.957202 
L 619.594 529.542495 
L 619.594 529.494554 
L 632.327296 537.422794 
L 645.066704 545.974267 
L 657.8 554.144609 
L 657.8 554.144609 
L 670.533296 560.847357 
L 670.533296 560.845559 
L 683.272704 565.364596 
L 683.272704 565.363997 
" clip-path="url(#p48cf1d6529)" style="fill: none; stroke: #d62728; stroke-width: 1.5; stroke-linecap: square"/>
   </g>
   <g id="line2d_17">
    <path d="M -1 69.477411 
L 8.298 65.335359 
L 8.298 65.335359 
L 21.03313 60.808532 
L 21.03313 60.808532 
L 33.76887 57.316631 
L 33.76887 57.317829 
L 46.504 54.746994 
L 46.504 54.746994 
L 59.23913 52.997148 
L 59.23913 52.998946 
L 71.97487 51.983796 
L 71.97487 51.987391 
L 84.71 51.654801 
L 84.71 51.660194 
L 97.443296 51.99698 
L 110.182704 53.018123 
L 122.916 54.778156 
L 135.649296 57.359179 
L 148.388704 60.863664 
L 161.122 65.39948 
L 161.122 65.39948 
L 173.855296 71.082884 
L 173.855296 71.079888 
L 186.594704 78.042117 
L 186.594704 78.025337 
L 199.328 86.289164 
L 199.328 86.27598 
L 212.061296 95.960059 
L 212.061296 95.915114 
L 224.800704 107.006859 
L 224.800704 106.947533 
L 237.534 119.45893 
L 237.534 119.243196 
L 237.534 119.511665 
L 237.534 119.501478 
L 250.267296 133.25215 
L 250.267296 133.476873 
L 250.267296 133.342039 
L 263.006704 148.65379 
L 263.006704 148.51536 
L 275.74 165.361222 
L 275.74 165.090955 
L 288.473296 183.032867 
L 288.473296 182.998709 
L 288.473296 183.236017 
L 288.473296 182.72185 
L 301.212704 202.217051 
L 301.212704 202.100794 
L 313.946 222.019073 
L 313.946 221.492921 
L 313.946 222.285146 
L 313.946 221.572024 
L 326.679296 243.09273 
L 326.679296 241.975106 
L 326.679296 242.827856 
L 339.418704 264.679356 
L 339.418704 265.69151 
L 339.418704 265.161163 
L 352.152 288.188415 
L 352.152 286.696252 
L 364.885296 311.728037 
L 364.885296 312.296137 
L 364.885296 311.219862 
L 377.624704 335.067504 
L 377.624704 335.848942 
L 377.624704 334.40472 
L 377.624704 335.454628 
L 390.358 354.620833 
L 390.358 357.008294 
L 390.358 356.65413 
L 403.091296 365.433922 
L 403.091296 365.130695 
L 403.091296 366.304051 
L 415.830704 374.943015 
L 415.830704 375.18332 
L 415.830704 374.299408 
L 428.564 383.764156 
L 428.564 383.617936 
L 428.564 384.535407 
L 428.564 384.088357 
L 441.297296 395.865659 
L 441.297296 395.60438 
L 441.297296 396.536832 
L 441.297296 395.879442 
L 454.036704 410.558371 
L 454.036704 410.246155 
L 454.036704 411.228946 
L 454.036704 410.566161 
L 466.77 427.507905 
L 466.77 427.139958 
L 466.77 428.071811 
L 466.77 427.439589 
L 479.503296 445.808177 
L 479.503296 445.421053 
L 479.503296 446.286388 
L 479.503296 445.705703 
L 492.242704 463.942452 
L 492.242704 463.613457 
L 492.242704 464.321186 
L 492.242704 463.835184 
L 504.976 479.783951 
L 504.976 479.543047 
L 504.976 480.047626 
L 504.976 479.698855 
L 517.709296 492.15572 
L 517.709296 491.996316 
L 517.709296 492.322914 
L 517.709296 492.100588 
L 530.448704 501.032592 
L 530.448704 500.904949 
L 543.182 506.831054 
L 543.182 506.766334 
L 555.915296 510.784387 
L 555.915296 510.755023 
L 568.654704 514.056959 
L 568.654704 514.052764 
L 581.388 517.778377 
L 581.388 517.775381 
L 594.121296 522.867912 
L 594.121296 522.867912 
L 606.860704 529.961979 
L 606.860704 529.929619 
L 619.594 539.017431 
L 619.594 539.007243 
L 632.327296 549.059269 
L 632.327296 549.04249 
L 645.066704 558.26154 
L 645.066704 558.257346 
L 657.8 564.985263 
L 657.8 564.984664 
L 670.533296 568.856497 
L 670.533296 568.855898 
L 683.272704 570.60934 
L 683.272704 570.60934 
" clip-path="url(#p48cf1d6529)" style="fill: none; stroke: #9467bd; stroke-width: 1.5; stroke-linecap: square"/>
   </g>
   <g id="patch_3">
    <path d="M 84.71 647.08 
L 84.71 21.6 
" style="fill: none; stroke: #000000; stroke-width: 0.8; stroke-linejoin: miter; stroke-linecap: square"/>
   </g>
   <g id="patch_4">
    <path d="M 696.006 647.08 
L 696.006 21.6 
" style="fill: none; stroke: #000000; stroke-width: 0.8; stroke-linejoin: miter; stroke-linecap: square"/>
   </g>
   <g id="patch_5">
    <path d="M 84.71 647.08 
L 696.006 647.08 
" style="fill: none; stroke: #000000; stroke-width: 0.8; stroke-linejoin: miter; stroke-linecap: square"/>
   </g>
   <g id="patch_6">
    <path d="M 84.71 21.6 
L 696.006 21.6 
" style="fill: none; stroke: #000000; stroke-width: 0.8; stroke-linejoin: miter; stroke-linecap: square"/>
   </g>
  </g>
  <g id="axes_2">
   <g id="patch_7">
    <path d="M 797.942 647.08 
L 1409.238 647.08 
L 1409.238 21.6 
L 797.942 21.6 
z
" style="fill: #ffffff"/>
   </g>
   <g id="matplotlib.axis_3">
    <g id="xtick_7">
     <g id="line2d_18">
      <g>
       <use xlink:href="#me6c846ad9d" x="797.942" y="647.08" style="stroke: #000000; stroke-width: 0.8"/>
      </g>
     </g>
     <g id="text_15">
      <!-- 1.0 -->
      <g transform="translate(782.038875 669.276875) scale(0.2 -0.2)">
       <use xlink:href="#DejaVuSans-31"/>
       <use xlink:href="#DejaVuSans-2e" x="63.623047"/>
       <use xlink:href="#DejaVuSans-30" x="95.410156"/>
      </g>
     </g>
    </g>
    <g id="xtick_8">
     <g id="line2d_19">
      <g>
       <use xlink:href="#me6c846ad9d" x="920.2012" y="647.08" style="stroke: #000000; stroke-width: 0.8"/>
      </g>
     </g>
     <g id="text_16">
      <!-- 1.2 -->
      <g transform="translate(904.298075 669.276875) scale(0.2 -0.2)">
       <use xlink:href="#DejaVuSans-31"/>
       <use xlink:href="#DejaVuSans-2e" x="63.623047"/>
       <use xlink:href="#DejaVuSans-32" x="95.410156"/>
      </g>
     </g>
    </g>
    <g id="xtick_9">
     <g id="line2d_20">
      <g>
       <use xlink:href="#me6c846ad9d" x="1042.4604" y="647.08" style="stroke: #000000; stroke-width: 0.8"/>
      </g>
     </g>
     <g id="text_17">
      <!-- 1.4 -->
      <g transform="translate(1026.557275 669.276875) scale(0.2 -0.2)">
       <use xlink:href="#DejaVuSans-31"/>
       <use xlink:href="#DejaVuSans-2e" x="63.623047"/>
       <use xlink:href="#DejaVuSans-34" x="95.410156"/>
      </g>
     </g>
    </g>
    <g id="xtick_10">
     <g id="line2d_21">
      <g>
       <use xlink:href="#me6c846ad9d" x="1164.7196" y="647.08" style="stroke: #000000; stroke-width: 0.8"/>
      </g>
     </g>
     <g id="text_18">
      <!-- 1.6 -->
      <g transform="translate(1148.816475 669.276875) scale(0.2 -0.2)">
       <use xlink:href="#DejaVuSans-31"/>
       <use xlink:href="#DejaVuSans-2e" x="63.623047"/>
       <use xlink:href="#DejaVuSans-36" x="95.410156"/>
      </g>
     </g>
    </g>
    <g id="xtick_11">
     <g id="line2d_22">
      <g>
       <use xlink:href="#me6c846ad9d" x="1286.9788" y="647.08" style="stroke: #000000; stroke-width: 0.8"/>
      </g>
     </g>
     <g id="text_19">
      <!-- 1.8 -->
      <g transform="translate(1271.075675 669.276875) scale(0.2 -0.2)">
       <use xlink:href="#DejaVuSans-31"/>
       <use xlink:href="#DejaVuSans-2e" x="63.623047"/>
       <use xlink:href="#DejaVuSans-38" x="95.410156"/>
      </g>
     </g>
    </g>
    <g id="xtick_12">
     <g id="line2d_23">
      <g>
       <use xlink:href="#me6c846ad9d" x="1409.238" y="647.08" style="stroke: #000000; stroke-width: 0.8"/>
      </g>
     </g>
     <g id="text_20">
      <!-- 2.0 -->
      <g transform="translate(1393.334875 669.276875) scale(0.2 -0.2)">
       <use xlink:href="#DejaVuSans-32"/>
       <use xlink:href="#DejaVuSans-2e" x="63.623047"/>
       <use xlink:href="#DejaVuSans-30" x="95.410156"/>
      </g>
     </g>
    </g>
    <g id="text_21">
     <!-- Position $x$ -->
     <g transform="translate(1055.19 692.633125) scale(0.2 -0.2)">
      <use xlink:href="#DejaVuSans-50" transform="translate(0 0.015625)"/>
      <use xlink:href="#DejaVuSans-6f" transform="translate(60.302734 0.015625)"/>
      <use xlink:href="#DejaVuSans-73" transform="translate(121.484375 0.015625)"/>
      <use xlink:href="#DejaVuSans-69" transform="translate(173.583984 0.015625)"/>
      <use xlink:href="#DejaVuSans-74" transform="translate(201.367188 0.015625)"/>
      <use xlink:href="#DejaVuSans-69" transform="translate(240.576172 0.015625)"/>
      <use xlink:href="#DejaVuSans-6f" transform="translate(268.359375 0.015625)"/>
      <use xlink:href="#DejaVuSans-6e" transform="translate(329.541016 0.015625)"/>
      <use xlink:href="#DejaVuSans-20" transform="translate(392.919922 0.015625)"/>
      <use xlink:href="#DejaVuSans-Oblique-78" transform="translate(424.707031 0.015625)"/>
     </g>
    </g>
   </g>
   <g id="matplotlib.axis_4">
    <g id="ytick_7">
     <g id="line2d_24">
      <g>
       <use xlink:href="#mebe0e5707a" x="797.942" y="647.08" style="stroke: #000000; stroke-width: 0.8"/>
      </g>
     </g>
     <g id="text_22">
      <!-- 0.0 -->
      <g transform="translate(759.13575 654.678437) scale(0.2 -0.2)">
       <use xlink:href="#DejaVuSans-30"/>
       <use xlink:href="#DejaVuSans-2e" x="63.623047"/>
       <use xlink:href="#DejaVuSans-30" x="95.410156"/>
      </g>
     </g>
    </g>
    <g id="ytick_8">
     <g id="line2d_25">
      <g>
       <use xlink:href="#mebe0e5707a" x="797.942" y="513.280432" style="stroke: #000000; stroke-width: 0.8"/>
      </g>
     </g>
     <g id="text_23">
      <!-- 0.2 -->
      <g transform="translate(759.13575 520.878869) scale(0.2 -0.2)">
       <use xlink:href="#DejaVuSans-30"/>
       <use xlink:href="#DejaVuSans-2e" x="63.623047"/>
       <use xlink:href="#DejaVuSans-32" x="95.410156"/>
      </g>
     </g>
    </g>
    <g id="ytick_9">
     <g id="line2d_26">
      <g>
       <use xlink:href="#mebe0e5707a" x="797.942" y="379.480863" style="stroke: #000000; stroke-width: 0.8"/>
      </g>
     </g>
     <g id="text_24">
      <!-- 0.4 -->
      <g transform="translate(759.13575 387.079301) scale(0.2 -0.2)">
       <use xlink:href="#DejaVuSans-30"/>
       <use xlink:href="#DejaVuSans-2e" x="63.623047"/>
       <use xlink:href="#DejaVuSans-34" x="95.410156"/>
      </g>
     </g>
    </g>
    <g id="ytick_10">
     <g id="line2d_27">
      <g>
       <use xlink:href="#mebe0e5707a" x="797.942" y="245.681295" style="stroke: #000000; stroke-width: 0.8"/>
      </g>
     </g>
     <g id="text_25">
      <!-- 0.6 -->
      <g transform="translate(759.13575 253.279733) scale(0.2 -0.2)">
       <use xlink:href="#DejaVuSans-30"/>
       <use xlink:href="#DejaVuSans-2e" x="63.623047"/>
       <use xlink:href="#DejaVuSans-36" x="95.410156"/>
      </g>
     </g>
    </g>
    <g id="ytick_11">
     <g id="line2d_28">
      <g>
       <use xlink:href="#mebe0e5707a" x="797.942" y="111.881727" style="stroke: #000000; stroke-width: 0.8"/>
      </g>
     </g>
     <g id="text_26">
      <!-- 0.8 -->
      <g transform="translate(759.13575 119.480164) scale(0.2 -0.2)">
       <use xlink:href="#DejaVuSans-30"/>
       <use xlink:href="#DejaVuSans-2e" x="63.623047"/>
       <use xlink:href="#DejaVuSans-38" x="95.410156"/>
      </g>
     </g>
    </g>
    <g id="text_27">
     <!-- $U_x$ -->
     <g transform="translate(750.976375 346.14) rotate(-90) scale(0.2 -0.2)">
      <defs>
       <path id="DejaVuSans-Oblique-55" d="M 991 4666 
L 1625 4666 
L 1075 1831 
Q 1041 1641 1027 1517 
Q 1013 1394 1013 1300 
Q 1013 869 1253 645 
Q 1494 422 1959 422 
Q 2563 422 2898 753 
Q 3234 1084 3378 1831 
L 3928 4666 
L 4563 4666 
L 4000 1753 
Q 3816 809 3300 359 
Q 2784 -91 1888 -91 
Q 1188 -91 780 261 
Q 372 613 372 1216 
Q 372 1325 387 1461 
Q 403 1597 434 1753 
L 991 4666 
z
" transform="scale(0.015625)"/>
      </defs>
      <use xlink:href="#DejaVuSans-Oblique-55" transform="translate(0 0.09375)"/>
      <use xlink:href="#DejaVuSans-Oblique-78" transform="translate(73.193359 -16.3125) scale(0.7)"/>
     </g>
    </g>
   </g>
   <g id="line2d_29">
    <path d="M 186.646 647.08 
L 938.032704 647.08 
L 938.032704 647.08 
L 950.766 623.847516 
L 950.766 623.847516 
L 1078.117296 103.420934 
L 1078.117296 103.420934 
L 1090.856704 84.32246 
L 1090.856704 84.32246 
L 1320.092704 84.32246 
L 1320.092704 84.32246 
L 1332.826 647.08 
L 1332.826 647.08 
L 1396.504704 647.08 
L 1396.504704 647.08 
" clip-path="url(#p74393e5833)" style="fill: none; stroke: #1f77b4; stroke-width: 1.5; stroke-linecap: square"/>
   </g>
   <g id="line2d_30">
    <path d="M 186.646 647.078219 
L 186.646 647.076926 
L 186.646 647.077148 
L 199.381313 659.345674 
L 212.116687 681.802058 
L 223.214661 721 
M 654.936937 721 
L 657.85313 716.197512 
L 657.85313 716.197512 
L 670.58887 698.669233 
L 683.324 684.43985 
L 696.05913 673.261097 
L 708.79487 664.792654 
L 721.53 658.62523 
L 734.26513 654.315747 
L 747.00087 651.42862 
L 759.736 649.567742 
L 772.47113 648.396434 
L 785.20687 647.64128 
L 810.675296 646.518798 
L 823.414704 645.763573 
L 823.414704 645.763579 
L 836.148 644.592171 
L 836.148 644.592178 
L 848.881296 642.731762 
L 861.620704 639.844253 
L 874.354 635.534168 
L 887.087296 629.368282 
L 899.826704 620.898703 
L 912.56 609.718879 
L 925.293296 595.493443 
L 938.032704 577.962488 
L 938.032704 577.962488 
L 950.766 556.990075 
L 963.499296 532.542218 
L 963.499296 532.542218 
L 976.238704 504.636311 
L 988.972 473.388759 
L 1001.705296 438.958117 
L 1001.705296 438.958117 
L 1014.444704 401.48554 
L 1014.444704 401.48554 
L 1027.178 361.175076 
L 1027.178 361.175076 
L 1039.911296 318.246822 
L 1039.911296 318.247491 
L 1052.650704 272.924894 
L 1052.650704 272.926232 
L 1065.384 225.634775 
L 1065.384 225.636782 
L 1078.117296 177.270914 
L 1078.117296 177.274259 
L 1090.856704 130.297231 
L 1090.856704 130.301914 
L 1103.59 93.00796 
L 1103.59 93.015319 
L 1116.323296 82.004283 
L 1116.323296 82.012311 
L 1129.062704 81.115854 
L 1129.062704 81.117192 
L 1154.529296 81.505211 
L 1154.529296 81.489824 
L 1154.529296 81.477782 
L 1205.474704 81.87985 
L 1205.474704 81.804922 
L 1218.208 82.285262 
L 1218.208 82.196286 
L 1230.941296 83.152953 
L 1230.941296 83.056617 
L 1243.680704 84.95055 
L 1243.680704 84.857559 
L 1256.414 88.550427 
L 1256.414 88.469479 
L 1269.147296 95.462513 
L 1269.147296 95.398289 
L 1281.886704 108.096537 
L 1281.886704 108.048369 
L 1294.62 130.021603 
L 1294.62 129.986816 
L 1307.353296 166.066538 
L 1307.353296 166.041785 
L 1320.092704 221.493678 
L 1320.092704 221.472939 
L 1332.826 299.351647 
L 1332.826 299.328232 
L 1345.559296 395.158828 
L 1345.559296 395.133406 
L 1358.298704 491.930704 
L 1358.298704 491.907289 
L 1371.032 567.357534 
L 1371.032 567.341478 
L 1383.765296 612.349981 
L 1383.765296 612.341685 
L 1396.504704 634.810847 
L 1396.504704 634.807368 
" clip-path="url(#p74393e5833)" style="fill: none; stroke: #ff7f0e; stroke-width: 1.5; stroke-linecap: square"/>
   </g>
   <g id="line2d_31">
    <path d="M 186.646 647.067801 
L 186.646 647.051469 
L 199.381313 706.574781 
L 199.381313 706.552704 
L 202.226257 721 
M 663.757309 721 
L 670.58887 712.270294 
L 670.58887 712.270762 
L 683.324 698.396684 
L 683.324 698.397085 
L 696.05913 686.754181 
L 696.05913 686.754449 
L 708.79487 677.151386 
L 708.79487 677.151654 
L 721.53 669.374487 
L 721.53 669.374688 
L 734.26513 663.18813 
L 734.26513 663.188398 
L 747.00087 658.343181 
L 747.00087 658.343315 
L 759.736 654.578663 
L 759.736 654.57873 
L 772.47113 651.626777 
L 772.47113 651.626864 
L 785.20687 649.217582 
L 785.20687 649.217655 
L 810.675296 644.943201 
L 810.675296 644.944472 
L 823.414704 642.5342 
L 823.414704 642.535652 
L 836.148 639.578527 
L 836.148 639.582943 
L 848.881296 635.820164 
L 848.881296 635.821302 
L 861.620704 630.964779 
L 861.620704 630.971602 
L 874.354 624.776682 
L 887.087296 617.003596 
L 887.087296 617.015839 
L 899.826704 607.402006 
L 899.826704 607.402073 
L 912.56 595.754151 
L 912.56 595.756961 
L 925.293296 581.886829 
L 925.293296 581.887833 
L 938.032704 565.609443 
L 950.766 546.789865 
L 950.766 546.795217 
L 963.499296 525.329083 
L 963.499296 525.330421 
L 976.238704 501.085939 
L 976.238704 501.095974 
L 988.972 474.009589 
L 988.972 474.020962 
L 1001.705296 444.057218 
L 1001.705296 444.064577 
L 1014.444704 411.144531 
L 1014.444704 411.149214 
L 1027.178 375.285578 
L 1027.178 375.288923 
L 1039.911296 336.501097 
L 1039.911296 336.503773 
L 1052.650704 294.900135 
L 1052.650704 294.90348 
L 1065.384 250.952329 
L 1065.384 250.955005 
L 1078.117296 205.813038 
L 1078.117296 205.815714 
L 1090.856704 162.525533 
L 1090.856704 162.52754 
L 1103.59 127.733631 
L 1103.59 127.736307 
L 1116.323296 108.39491 
L 1116.323296 108.400931 
L 1129.062704 99.84378 
L 1129.062704 99.856491 
L 1141.796 95.671909 
L 1141.796 95.67793 
L 1154.529296 93.709739 
L 1167.268704 92.60723 
L 1180.002 92.234598 
L 1192.735296 92.543675 
L 1192.735296 92.53364 
L 1205.474704 93.650198 
L 1205.474704 93.644846 
L 1218.208 95.799019 
L 1218.208 95.799019 
L 1230.941296 99.350728 
L 1243.680704 104.782991 
L 1256.414 112.736037 
L 1269.147296 124.030728 
L 1281.886704 139.637778 
L 1294.62 160.680437 
L 1307.353296 188.433812 
L 1320.092704 224.146924 
L 1320.092704 224.14291 
L 1332.826 268.849359 
L 1332.826 268.837318 
L 1345.559296 323.01477 
L 1345.559296 322.997376 
L 1358.298704 385.740007 
L 1358.298704 385.721275 
L 1383.765296 522.90129 
L 1383.765296 522.889248 
L 1396.504704 587.567491 
L 1396.504704 587.554445 
" clip-path="url(#p74393e5833)" style="fill: none; stroke: #2ca02c; stroke-width: 1.5; stroke-linecap: square"/>
   </g>
   <g id="line2d_32">
    <path d="M 186.646 647.059534 
L 186.646 647.094503 
L 186.646 647.087804 
L 199.381313 694.69077 
L 199.381313 694.655514 
L 206.127126 721 
M 661.687734 721 
L 670.58887 708.864894 
L 670.58887 708.875197 
L 683.324 694.412801 
L 683.324 694.417016 
L 696.05913 682.572409 
L 696.05913 682.573279 
L 708.79487 673.096456 
L 708.79487 673.09659 
L 721.53 665.698946 
L 734.26513 660.071001 
L 747.00087 655.899198 
L 759.736 652.881081 
L 772.47113 650.690367 
L 772.47113 650.690381 
L 797.942 647.080026 
L 797.942 647.08005 
L 823.414704 643.469579 
L 823.414704 643.469706 
L 836.148 641.278712 
L 836.148 641.278805 
L 848.881296 638.261204 
L 848.881296 638.26127 
L 861.620704 634.088932 
L 861.620704 634.088999 
L 874.354 628.460051 
L 887.087296 621.064681 
L 899.826704 611.586788 
L 912.56 599.741646 
L 925.293296 585.28012 
L 925.293296 585.291627 
L 938.032704 567.93421 
L 950.766 547.60069 
L 950.766 547.89438 
L 950.766 547.513051 
L 950.766 547.951245 
L 963.499296 524.152985 
L 963.499296 524.839376 
L 963.499296 523.941581 
L 963.499296 523.993094 
L 976.238704 498.480193 
L 976.238704 497.261278 
L 976.238704 498.51498 
L 988.972 467.270774 
L 988.972 469.15601 
L 988.972 467.494888 
L 1001.705296 436.311561 
L 1001.705296 434.322631 
L 1001.705296 436.629335 
L 1014.444704 398.125833 
L 1014.444704 401.074776 
L 1014.444704 399.372176 
L 1027.178 361.703584 
L 1027.178 359.4029 
L 1027.178 361.888896 
L 1039.911296 316.221097 
L 1039.911296 321.020487 
L 1039.911296 316.207048 
L 1039.911296 318.462908 
L 1052.650704 272.19368 
L 1052.650704 276.029044 
L 1052.650704 272.8212 
L 1065.384 215.237879 
L 1065.384 241.97973 
L 1065.384 224.025166 
L 1078.117296 171.908227 
L 1078.117296 193.988501 
L 1078.117296 174.352745 
L 1090.856704 122.000988 
L 1090.856704 156.837713 
L 1090.856704 128.919095 
L 1103.59 103.075708 
L 1103.59 110.03061 
L 1103.59 108.796978 
L 1116.323296 96.449285 
L 1116.323296 98.491735 
L 1116.323296 95.885989 
L 1129.062704 93.937198 
L 1129.062704 92.370405 
L 1129.062704 95.359487 
L 1129.062704 92.963806 
L 1141.796 92.579132 
L 1141.796 89.538537 
L 1141.796 93.32172 
L 1141.796 92.151643 
L 1154.529296 91.642535 
L 1154.529296 87.965054 
L 1154.529296 92.095447 
L 1154.529296 91.517433 
L 1167.268704 90.845759 
L 1167.268704 87.178313 
L 1167.268704 91.099978 
L 1167.268704 90.83171 
L 1180.002 90.111199 
L 1180.002 86.807019 
L 1180.002 90.218239 
L 1180.002 90.093136 
L 1192.735296 89.46963 
L 1192.735296 86.718711 
L 1192.735296 89.495721 
L 1192.735296 89.428152 
L 1205.474704 89.052845 
L 1205.474704 86.88663 
L 1205.474704 89.027423 
L 1218.208 88.997987 
L 1218.208 87.340879 
L 1218.208 89.013374 
L 1230.941296 89.566635 
L 1230.941296 88.351735 
L 1230.941296 89.612796 
L 1243.680704 90.954137 
L 1243.680704 90.162712 
L 1243.680704 91.103992 
L 1256.414 93.769279 
L 1256.414 93.273552 
L 1256.414 93.901741 
L 1269.147296 99.04232 
L 1269.147296 98.814192 
L 1269.147296 99.137987 
L 1281.886704 108.815041 
L 1281.886704 108.548111 
L 1281.886704 108.85585 
L 1294.62 125.808924 
L 1307.353296 153.03446 
L 1320.092704 193.65534 
L 1320.092704 193.111445 
L 1320.092704 193.777098 
L 1320.092704 193.52221 
L 1332.826 249.980944 
L 1332.826 249.71 
L 1345.559296 321.647338 
L 1345.559296 321.203793 
L 1358.298704 403.12793 
L 1371.032 483.271865 
L 1383.765296 549.765567 
L 1396.504704 599.5275 
L 1396.504704 599.51238 
" clip-path="url(#p74393e5833)" style="fill: none; stroke: #d62728; stroke-width: 1.5; stroke-linecap: square"/>
   </g>
   <g id="line2d_33">
    <path d="M 186.646 647.068862 
L 186.646 647.067251 
L 199.381313 656.881956 
L 199.381313 656.88142 
L 212.116687 674.866089 
L 224.852 712.069394 
L 226.569801 721 
M 664.182922 721 
L 670.58887 712.735448 
L 670.58887 712.736184 
L 683.324 698.738408 
L 683.324 698.738809 
L 696.05913 686.999302 
L 696.05913 686.999503 
L 708.79487 677.322449 
L 708.79487 677.322583 
L 721.53 669.489956 
L 721.53 669.490023 
L 734.26513 663.263058 
L 734.26513 663.263258 
L 747.00087 658.389542 
L 759.736 654.599603 
L 759.736 654.605088 
L 772.47113 651.636016 
L 785.20687 649.216411 
L 810.675296 644.917277 
L 823.414704 642.489437 
L 836.148 639.512363 
L 848.881296 635.715667 
L 861.620704 630.823955 
L 861.620704 630.829039 
L 874.354 624.56354 
L 874.354 624.585817 
L 887.087296 616.763292 
L 887.087296 616.77413 
L 887.087296 616.655651 
L 887.087296 616.825375 
L 899.826704 607.027434 
L 899.826704 606.885606 
L 912.56 595.481668 
L 912.56 595.119473 
L 912.56 595.269663 
L 925.293296 581.193413 
L 925.293296 581.877129 
L 925.293296 581.235828 
L 938.032704 565.081604 
L 938.032704 565.388674 
L 938.032704 564.227293 
L 938.032704 564.909671 
L 950.766 545.236452 
L 950.766 546.820639 
L 950.766 545.817142 
L 963.499296 525.744531 
L 963.499296 523.036427 
L 963.499296 524.561073 
L 976.238704 499.876391 
L 976.238704 499.046834 
L 976.238704 501.651911 
L 976.238704 500.200855 
L 988.972 471.821967 
L 988.972 473.048909 
L 988.972 472.379911 
L 1001.705296 441.810054 
L 1001.705296 441.023313 
L 1001.705296 444.784419 
L 1014.444704 407.911265 
L 1014.444704 414.110868 
L 1014.444704 405.365059 
L 1014.444704 405.887546 
L 1027.178 371.850943 
L 1027.178 374.051277 
L 1027.178 369.655961 
L 1027.178 371.326449 
L 1039.911296 329.183599 
L 1039.911296 337.907331 
L 1039.911296 330.285438 
L 1052.650704 291.221985 
L 1052.650704 286.256014 
L 1052.650704 288.464376 
L 1065.384 243.594691 
L 1065.384 239.681723 
L 1065.384 250.562972 
L 1078.117296 195.306427 
L 1078.117296 190.710412 
L 1078.117296 196.315945 
L 1078.117296 195.048863 
L 1090.856704 145.613936 
L 1090.856704 142.425492 
L 1090.856704 146.272899 
L 1090.856704 145.997941 
L 1103.59 105.195763 
L 1103.59 97.660171 
L 1103.59 100.488694 
L 1116.323296 88.77588 
L 1116.323296 90.660446 
L 1116.323296 86.742795 
L 1129.062704 80.563262 
L 1129.062704 78.988441 
L 1129.062704 83.635969 
L 1129.062704 82.407689 
L 1141.796 81.016843 
L 1141.796 78.885415 
L 1141.796 82.91412 
L 1141.796 80.088274 
L 1154.529296 80.374605 
L 1154.529296 78.39504 
L 1154.529296 82.570925 
L 1154.529296 80.159187 
L 1167.268704 80.376612 
L 1167.268704 78.362259 
L 1167.268704 82.249137 
L 1167.268704 79.882891 
L 1180.002 80.555903 
L 1180.002 78.619154 
L 1180.002 82.057803 
L 1180.002 80.006656 
L 1192.735296 80.937232 
L 1192.735296 79.171747 
L 1192.735296 82.004283 
L 1192.735296 80.235453 
L 1205.474704 81.457712 
L 1205.474704 80.023381 
L 1205.474704 82.441808 
L 1205.474704 80.782693 
L 1218.208 82.359521 
L 1218.208 81.204162 
L 1218.208 83.179044 
L 1218.208 81.775486 
L 1230.941296 83.949729 
L 1230.941296 83.04792 
L 1230.941296 84.598657 
L 1230.941296 83.507522 
L 1243.680704 86.796984 
L 1243.680704 86.120627 
L 1243.680704 87.290035 
L 1243.680704 86.49928 
L 1256.414 91.890064 
L 1256.414 91.409724 
L 1256.414 92.254668 
L 1256.414 91.714787 
L 1269.147296 100.903472 
L 1269.147296 100.585029 
L 1269.147296 101.169734 
L 1269.147296 100.821186 
L 1281.886704 116.40549 
L 1281.886704 116.315176 
L 1281.886704 116.657703 
L 1281.886704 116.430243 
L 1294.62 142.46028 
L 1294.62 142.335847 
L 1307.353296 183.534072 
L 1307.353296 183.463158 
L 1320.092704 244.665757 
L 1332.826 327.45357 
L 1332.826 327.399382 
L 1345.559296 424.206045 
L 1345.559296 424.171926 
L 1358.298704 515.643332 
L 1371.032 581.936536 
L 1371.032 581.92911 
L 1383.765296 619.219585 
L 1383.765296 619.215303 
L 1396.504704 637.245732 
L 1396.504704 637.243524 
" clip-path="url(#p74393e5833)" style="fill: none; stroke: #9467bd; stroke-width: 1.5; stroke-linecap: square"/>
   </g>
   <g id="patch_8">
    <path d="M 797.942 647.08 
L 797.942 21.6 
" style="fill: none; stroke: #000000; stroke-width: 0.8; stroke-linejoin: miter; stroke-linecap: square"/>
   </g>
   <g id="patch_9">
    <path d="M 1409.238 647.08 
L 1409.238 21.6 
" style="fill: none; stroke: #000000; stroke-width: 0.8; stroke-linejoin: miter; stroke-linecap: square"/>
   </g>
   <g id="patch_10">
    <path d="M 797.942 647.08 
L 1409.238 647.08 
" style="fill: none; stroke: #000000; stroke-width: 0.8; stroke-linejoin: miter; stroke-linecap: square"/>
   </g>
   <g id="patch_11">
    <path d="M 797.942 21.6 
L 1409.238 21.6 
" style="fill: none; stroke: #000000; stroke-width: 0.8; stroke-linejoin: miter; stroke-linecap: square"/>
   </g>
  </g>
  <g id="axes_3">
   <g id="patch_12">
    <path d="M 1511.174 647.08 
L 2122.47 647.08 
L 2122.47 21.6 
L 1511.174 21.6 
z
" style="fill: #ffffff"/>
   </g>
   <g id="matplotlib.axis_5">
    <g id="xtick_13">
     <g id="line2d_34">
      <g>
       <use xlink:href="#me6c846ad9d" x="1511.174" y="647.08" style="stroke: #000000; stroke-width: 0.8"/>
      </g>
     </g>
     <g id="text_28">
      <!-- 1.0 -->
      <g transform="translate(1495.270875 669.276875) scale(0.2 -0.2)">
       <use xlink:href="#DejaVuSans-31"/>
       <use xlink:href="#DejaVuSans-2e" x="63.623047"/>
       <use xlink:href="#DejaVuSans-30" x="95.410156"/>
      </g>
     </g>
    </g>
    <g id="xtick_14">
     <g id="line2d_35">
      <g>
       <use xlink:href="#me6c846ad9d" x="1633.4332" y="647.08" style="stroke: #000000; stroke-width: 0.8"/>
      </g>
     </g>
     <g id="text_29">
      <!-- 1.2 -->
      <g transform="translate(1617.530075 669.276875) scale(0.2 -0.2)">
       <use xlink:href="#DejaVuSans-31"/>
       <use xlink:href="#DejaVuSans-2e" x="63.623047"/>
       <use xlink:href="#DejaVuSans-32" x="95.410156"/>
      </g>
     </g>
    </g>
    <g id="xtick_15">
     <g id="line2d_36">
      <g>
       <use xlink:href="#me6c846ad9d" x="1755.6924" y="647.08" style="stroke: #000000; stroke-width: 0.8"/>
      </g>
     </g>
     <g id="text_30">
      <!-- 1.4 -->
      <g transform="translate(1739.789275 669.276875) scale(0.2 -0.2)">
       <use xlink:href="#DejaVuSans-31"/>
       <use xlink:href="#DejaVuSans-2e" x="63.623047"/>
       <use xlink:href="#DejaVuSans-34" x="95.410156"/>
      </g>
     </g>
    </g>
    <g id="xtick_16">
     <g id="line2d_37">
      <g>
       <use xlink:href="#me6c846ad9d" x="1877.9516" y="647.08" style="stroke: #000000; stroke-width: 0.8"/>
      </g>
     </g>
     <g id="text_31">
      <!-- 1.6 -->
      <g transform="translate(1862.048475 669.276875) scale(0.2 -0.2)">
       <use xlink:href="#DejaVuSans-31"/>
       <use xlink:href="#DejaVuSans-2e" x="63.623047"/>
       <use xlink:href="#DejaVuSans-36" x="95.410156"/>
      </g>
     </g>
    </g>
    <g id="xtick_17">
     <g id="line2d_38">
      <g>
       <use xlink:href="#me6c846ad9d" x="2000.2108" y="647.08" style="stroke: #000000; stroke-width: 0.8"/>
      </g>
     </g>
     <g id="text_32">
      <!-- 1.8 -->
      <g transform="translate(1984.307675 669.276875) scale(0.2 -0.2)">
       <use xlink:href="#DejaVuSans-31"/>
       <use xlink:href="#DejaVuSans-2e" x="63.623047"/>
       <use xlink:href="#DejaVuSans-38" x="95.410156"/>
      </g>
     </g>
    </g>
    <g id="xtick_18">
     <g id="line2d_39">
      <g>
       <use xlink:href="#me6c846ad9d" x="2122.47" y="647.08" style="stroke: #000000; stroke-width: 0.8"/>
      </g>
     </g>
     <g id="text_33">
      <!-- 2.0 -->
      <g transform="translate(2106.566875 669.276875) scale(0.2 -0.2)">
       <use xlink:href="#DejaVuSans-32"/>
       <use xlink:href="#DejaVuSans-2e" x="63.623047"/>
       <use xlink:href="#DejaVuSans-30" x="95.410156"/>
      </g>
     </g>
    </g>
    <g id="text_34">
     <!-- Position $x$ -->
     <g transform="translate(1768.422 692.633125) scale(0.2 -0.2)">
      <use xlink:href="#DejaVuSans-50" transform="translate(0 0.015625)"/>
      <use xlink:href="#DejaVuSans-6f" transform="translate(60.302734 0.015625)"/>
      <use xlink:href="#DejaVuSans-73" transform="translate(121.484375 0.015625)"/>
      <use xlink:href="#DejaVuSans-69" transform="translate(173.583984 0.015625)"/>
      <use xlink:href="#DejaVuSans-74" transform="translate(201.367188 0.015625)"/>
      <use xlink:href="#DejaVuSans-69" transform="translate(240.576172 0.015625)"/>
      <use xlink:href="#DejaVuSans-6f" transform="translate(268.359375 0.015625)"/>
      <use xlink:href="#DejaVuSans-6e" transform="translate(329.541016 0.015625)"/>
      <use xlink:href="#DejaVuSans-20" transform="translate(392.919922 0.015625)"/>
      <use xlink:href="#DejaVuSans-Oblique-78" transform="translate(424.707031 0.015625)"/>
     </g>
    </g>
   </g>
   <g id="matplotlib.axis_6">
    <g id="ytick_12">
     <g id="line2d_40">
      <g>
       <use xlink:href="#mebe0e5707a" x="1511.174" y="647.08" style="stroke: #000000; stroke-width: 0.8"/>
      </g>
     </g>
     <g id="text_35">
      <!-- 0.0 -->
      <g transform="translate(1472.36775 654.678437) scale(0.2 -0.2)">
       <use xlink:href="#DejaVuSans-30"/>
       <use xlink:href="#DejaVuSans-2e" x="63.623047"/>
       <use xlink:href="#DejaVuSans-30" x="95.410156"/>
      </g>
     </g>
    </g>
    <g id="ytick_13">
     <g id="line2d_41">
      <g>
       <use xlink:href="#mebe0e5707a" x="1511.174" y="527.370909" style="stroke: #000000; stroke-width: 0.8"/>
      </g>
     </g>
     <g id="text_36">
      <!-- 0.2 -->
      <g transform="translate(1472.36775 534.969347) scale(0.2 -0.2)">
       <use xlink:href="#DejaVuSans-30"/>
       <use xlink:href="#DejaVuSans-2e" x="63.623047"/>
       <use xlink:href="#DejaVuSans-32" x="95.410156"/>
      </g>
     </g>
    </g>
    <g id="ytick_14">
     <g id="line2d_42">
      <g>
       <use xlink:href="#mebe0e5707a" x="1511.174" y="407.661818" style="stroke: #000000; stroke-width: 0.8"/>
      </g>
     </g>
     <g id="text_37">
      <!-- 0.4 -->
      <g transform="translate(1472.36775 415.260256) scale(0.2 -0.2)">
       <use xlink:href="#DejaVuSans-30"/>
       <use xlink:href="#DejaVuSans-2e" x="63.623047"/>
       <use xlink:href="#DejaVuSans-34" x="95.410156"/>
      </g>
     </g>
    </g>
    <g id="ytick_15">
     <g id="line2d_43">
      <g>
       <use xlink:href="#mebe0e5707a" x="1511.174" y="287.952727" style="stroke: #000000; stroke-width: 0.8"/>
      </g>
     </g>
     <g id="text_38">
      <!-- 0.6 -->
      <g transform="translate(1472.36775 295.551165) scale(0.2 -0.2)">
       <use xlink:href="#DejaVuSans-30"/>
       <use xlink:href="#DejaVuSans-2e" x="63.623047"/>
       <use xlink:href="#DejaVuSans-36" x="95.410156"/>
      </g>
     </g>
    </g>
    <g id="ytick_16">
     <g id="line2d_44">
      <g>
       <use xlink:href="#mebe0e5707a" x="1511.174" y="168.243636" style="stroke: #000000; stroke-width: 0.8"/>
      </g>
     </g>
     <g id="text_39">
      <!-- 0.8 -->
      <g transform="translate(1472.36775 175.842074) scale(0.2 -0.2)">
       <use xlink:href="#DejaVuSans-30"/>
       <use xlink:href="#DejaVuSans-2e" x="63.623047"/>
       <use xlink:href="#DejaVuSans-38" x="95.410156"/>
      </g>
     </g>
    </g>
    <g id="ytick_17">
     <g id="line2d_45">
      <g>
       <use xlink:href="#mebe0e5707a" x="1511.174" y="48.534545" style="stroke: #000000; stroke-width: 0.8"/>
      </g>
     </g>
     <g id="text_40">
      <!-- 1.0 -->
      <g transform="translate(1472.36775 56.132983) scale(0.2 -0.2)">
       <use xlink:href="#DejaVuSans-31"/>
       <use xlink:href="#DejaVuSans-2e" x="63.623047"/>
       <use xlink:href="#DejaVuSans-30" x="95.410156"/>
      </g>
     </g>
    </g>
    <g id="text_41">
     <!-- $P$ -->
     <g transform="translate(1464.208375 340.44) rotate(-90) scale(0.2 -0.2)">
      <defs>
       <path id="DejaVuSans-Oblique-50" d="M 1081 4666 
L 2541 4666 
Q 3178 4666 3512 4369 
Q 3847 4072 3847 3500 
Q 3847 2731 3353 2303 
Q 2859 1875 1966 1875 
L 1172 1875 
L 806 0 
L 172 0 
L 1081 4666 
z
M 1613 4147 
L 1275 2394 
L 2069 2394 
Q 2606 2394 2893 2669 
Q 3181 2944 3181 3456 
Q 3181 3784 2986 3965 
Q 2791 4147 2438 4147 
L 1613 4147 
z
" transform="scale(0.015625)"/>
      </defs>
      <use xlink:href="#DejaVuSans-Oblique-50" transform="translate(0 0.09375)"/>
     </g>
    </g>
   </g>
   <g id="line2d_46">
    <path d="M 899.878 48.534545 
L 1651.264704 48.534545 
L 1651.264704 48.534545 
L 1663.998 74.892051 
L 1663.998 74.892051 
L 1676.731296 130.565302 
L 1676.731296 130.565302 
L 1689.470704 181.84171 
L 1689.470704 181.84171 
L 1702.204 228.940791 
L 1702.204 228.940791 
L 1714.937296 272.145696 
L 1714.937296 272.145696 
L 1727.676704 311.721208 
L 1727.676704 311.721208 
L 1740.41 347.865431 
L 1740.41 347.865431 
L 1753.143296 380.823789 
L 1753.143296 380.823789 
L 1765.882704 410.825409 
L 1765.882704 410.825409 
L 1778.616 438.047051 
L 1778.616 438.047051 
L 1791.349296 462.699574 
L 1791.349296 462.699574 
L 1804.088704 471.140444 
L 1804.088704 471.140444 
L 2033.324704 471.140444 
L 2033.324704 471.140444 
L 2046.058 587.225455 
L 2046.058 587.225455 
L 2109.736704 587.225455 
L 2109.736704 587.225455 
" clip-path="url(#pf62fa47c58)" style="fill: none; stroke: #1f77b4; stroke-width: 1.5; stroke-linecap: square"/>
   </g>
   <g id="line2d_47">
    <path d="M 899.878 585.5196 
L 899.878 585.519001 
L 899.878 585.519001 
L 912.613313 584.684629 
L 925.348687 581.594937 
L 925.348687 581.594937 
L 938.084 574.619489 
L 950.819313 562.065596 
L 963.55487 544.330096 
L 976.29 524.670871 
L 989.02513 506.932377 
L 1001.76087 493.254417 
L 1014.496 483.863239 
L 1014.496 483.863239 
L 1027.23113 477.959785 
L 1027.23113 477.959785 
L 1039.96687 474.503185 
L 1039.96687 474.503185 
L 1052.702 472.596817 
L 1052.702 472.596817 
L 1065.43713 471.597845 
L 1065.43713 471.597845 
L 1078.17287 471.09806 
L 1078.17287 471.09806 
L 1090.908 470.860437 
L 1090.908 470.860437 
L 1116.37887 470.734743 
L 1116.37887 470.734743 
L 1154.58487 470.880189 
L 1154.58487 470.880189 
L 1180.05513 471.167491 
L 1180.05513 471.167491 
L 1192.79087 470.861634 
L 1192.79087 470.862233 
L 1205.526 466.336032 
L 1205.526 466.336032 
L 1218.26113 450.174706 
L 1218.26113 450.174706 
L 1230.99687 427.744215 
L 1230.99687 427.744215 
L 1243.732 402.255157 
L 1243.732 402.255157 
L 1256.46713 374.914199 
L 1269.20287 346.32707 
L 1281.938 316.943875 
L 1307.40887 257.52926 
L 1320.144 228.441148 
L 1332.87913 200.441791 
L 1345.61487 174.051323 
L 1358.35 149.764743 
L 1371.08513 128.010608 
L 1371.08513 128.010608 
L 1383.82087 109.108543 
L 1396.556 93.23392 
L 1396.556 93.23392 
L 1409.29113 80.390332 
L 1422.02687 70.413177 
L 1422.02687 70.413177 
L 1434.762 62.991214 
L 1447.49713 57.718028 
L 1447.49713 57.718028 
L 1460.23287 54.148902 
L 1460.23287 54.148902 
L 1472.968 51.860064 
L 1472.968 51.860064 
L 1485.70313 50.492388 
L 1498.43887 49.780119 
L 1498.43887 49.780119 
L 1511.174 49.561051 
L 1511.174 49.561051 
L 1523.907296 49.780119 
L 1523.907296 49.780119 
L 1536.646704 50.492388 
L 1536.646704 50.492388 
L 1549.38 51.860064 
L 1549.38 51.860064 
L 1562.113296 54.148902 
L 1562.113296 54.148902 
L 1574.852704 57.718028 
L 1574.852704 57.718028 
L 1587.586 62.991812 
L 1587.586 62.991812 
L 1600.319296 70.413177 
L 1600.319296 70.413177 
L 1613.058704 80.390332 
L 1613.058704 80.390332 
L 1625.792 93.23392 
L 1625.792 93.23392 
L 1638.525296 109.107944 
L 1638.525296 109.107944 
L 1651.264704 128.010009 
L 1651.264704 128.010009 
L 1663.998 149.765341 
L 1663.998 149.765341 
L 1676.731296 174.050126 
L 1676.731296 174.050126 
L 1689.470704 200.441192 
L 1689.470704 200.441192 
L 1702.204 228.441747 
L 1702.204 228.441747 
L 1714.937296 257.527465 
L 1714.937296 257.526866 
L 1753.143296 346.325873 
L 1753.143296 346.325274 
L 1765.882704 374.915396 
L 1765.882704 374.915396 
L 1778.616 402.259347 
L 1778.616 402.259347 
L 1791.349296 427.747208 
L 1791.349296 427.746609 
L 1804.088704 450.184881 
L 1804.088704 450.183086 
L 1816.822 466.35339 
L 1816.822 466.349799 
L 1829.555296 470.875401 
L 1829.555296 470.865225 
L 1842.294704 471.169885 
L 1842.294704 471.162703 
L 1867.761296 470.874802 
L 1867.761296 470.878992 
L 1905.967296 470.732348 
L 1905.967296 470.734743 
L 1931.44 470.861634 
L 1944.173296 471.098658 
L 1956.912704 471.599641 
L 1969.646 472.599212 
L 1969.646 472.599212 
L 1982.379296 474.50498 
L 1982.379296 474.50498 
L 1995.118704 477.96158 
L 1995.118704 477.96158 
L 2007.852 483.864436 
L 2007.852 483.864436 
L 2020.585296 493.254417 
L 2020.585296 493.254417 
L 2033.324704 506.931779 
L 2033.324704 506.930582 
L 2046.058 524.669075 
L 2046.058 524.666082 
L 2058.791296 544.3283 
L 2058.791296 544.324709 
L 2071.530704 562.063801 
L 2071.530704 562.060209 
L 2084.264 574.617693 
L 2084.264 574.615299 
L 2096.997296 581.59374 
L 2096.997296 581.592543 
L 2109.736704 584.684629 
L 2109.736704 584.684031 
" clip-path="url(#pf62fa47c58)" style="fill: none; stroke: #ff7f0e; stroke-width: 1.5; stroke-linecap: square"/>
   </g>
   <g id="line2d_48">
    <path d="M 899.878 569.804789 
L 899.878 569.806585 
L 912.613313 567.518944 
L 912.613313 567.521937 
L 925.348687 560.836184 
L 925.348687 560.840374 
L 938.084 550.728547 
L 938.084 550.732737 
L 950.819313 538.669053 
L 950.819313 538.673841 
L 963.55487 526.147482 
L 963.55487 526.154066 
L 976.29 514.300472 
L 976.29 514.308253 
L 989.02513 503.805576 
L 989.02513 503.813956 
L 1001.76087 494.950096 
L 1001.76087 494.951892 
L 1014.496 487.754981 
L 1014.496 487.754981 
L 1027.23113 482.080172 
L 1039.96687 477.713783 
L 1052.702 474.415199 
L 1065.43713 471.950987 
L 1078.17287 470.118839 
L 1090.908 468.749367 
L 1090.908 468.749367 
L 1103.64313 467.7073 
L 1103.64313 467.7073 
L 1116.37887 466.884898 
L 1116.37887 466.884898 
L 1154.58487 464.815128 
L 1154.58487 464.815128 
L 1167.32 463.864638 
L 1167.32 463.864638 
L 1180.05513 462.068403 
L 1180.05513 462.068403 
L 1192.79087 458.422663 
L 1205.526 449.984967 
L 1205.526 449.984967 
L 1218.26113 434.001409 
L 1218.26113 434.001409 
L 1230.99687 412.479511 
L 1230.99687 412.479511 
L 1243.732 387.952315 
L 1243.732 387.952315 
L 1256.46713 361.907807 
L 1256.46713 361.907807 
L 1294.67313 281.568043 
L 1294.67313 281.568043 
L 1307.40887 255.454103 
L 1320.144 230.213441 
L 1320.144 230.213441 
L 1332.87913 206.133958 
L 1345.61487 183.47183 
L 1345.61487 183.47183 
L 1358.35 162.449716 
L 1358.35 162.449716 
L 1371.08513 143.248977 
L 1371.08513 143.248977 
L 1383.82087 126.002488 
L 1383.82087 126.002488 
L 1396.556 110.790455 
L 1409.29113 97.635623 
L 1409.29113 97.635623 
L 1422.02687 86.504473 
L 1422.02687 86.504473 
L 1434.762 77.313209 
L 1434.762 77.313808 
L 1447.49713 69.935538 
L 1447.49713 69.936137 
L 1460.23287 64.218831 
L 1460.23287 64.218831 
L 1472.968 59.996092 
L 1485.70313 57.1123 
L 1485.70313 57.112899 
L 1498.43887 55.438767 
L 1498.43887 55.439366 
L 1511.174 54.8905 
L 1511.174 54.891098 
L 1523.907296 55.438169 
L 1523.907296 55.43757 
L 1536.646704 57.111103 
L 1536.646704 57.109308 
L 1549.38 59.9931 
L 1549.38 59.991903 
L 1562.113296 64.215838 
L 1574.852704 69.933743 
L 1587.586 77.313209 
L 1600.319296 86.505671 
L 1613.058704 97.639813 
L 1613.058704 97.639215 
L 1625.792 110.798236 
L 1625.792 110.797039 
L 1638.525296 126.010868 
L 1638.525296 126.009671 
L 1651.264704 143.258553 
L 1651.264704 143.257955 
L 1663.998 162.459293 
L 1663.998 162.457497 
L 1676.731296 183.480808 
L 1676.731296 183.477815 
L 1689.470704 206.142337 
L 1689.470704 206.138746 
L 1702.204 230.218828 
L 1702.204 230.216434 
L 1714.937296 255.4553 
L 1714.937296 255.454702 
L 1727.676704 281.571634 
L 1727.676704 281.571036 
L 1753.143296 335.163599 
L 1753.143296 335.163599 
L 1765.882704 361.913792 
L 1778.616 387.959497 
L 1791.349296 412.484299 
L 1804.088704 434.015176 
L 1816.822 449.998135 
L 1816.822 449.997537 
L 1829.555296 458.431641 
L 1829.555296 458.428049 
L 1842.294704 462.075585 
L 1842.294704 462.067804 
L 1855.028 463.867032 
L 1855.028 463.861645 
L 1867.761296 464.815727 
L 1867.761296 464.812734 
L 1893.234 466.189987 
L 1893.234 466.18879 
L 1905.967296 466.8843 
L 1905.967296 466.883701 
L 1918.706704 467.7073 
L 1918.706704 467.706701 
L 1931.44 468.750564 
L 1931.44 468.749367 
L 1944.173296 470.120036 
L 1944.173296 470.118241 
L 1956.912704 471.952783 
L 1956.912704 471.950388 
L 1969.646 474.417593 
L 1969.646 474.4146 
L 1982.379296 477.717972 
L 1982.379296 477.715578 
L 1995.118704 482.084361 
L 1995.118704 482.083164 
L 2007.852 487.756777 
L 2020.585296 494.950096 
L 2033.324704 503.803182 
L 2033.324704 503.803182 
L 2046.058 514.296881 
L 2046.058 514.296282 
L 2058.791296 526.142694 
L 2058.791296 526.141497 
L 2071.530704 538.664265 
L 2071.530704 538.663068 
L 2084.264 550.723759 
L 2084.264 550.722561 
L 2096.997296 560.832593 
L 2096.997296 560.831994 
L 2109.736704 567.517747 
L 2109.736704 567.517747 
" clip-path="url(#pf62fa47c58)" style="fill: none; stroke: #2ca02c; stroke-width: 1.5; stroke-linecap: square"/>
   </g>
   <g id="line2d_49">
    <path d="M 899.878 579.878908 
L 899.878 579.877711 
L 899.878 579.877711 
L 912.613313 577.606829 
L 912.613313 577.608625 
L 925.348687 570.525438 
L 925.348687 570.541 
L 938.084 559.090825 
L 938.084 559.145293 
L 950.819313 544.032619 
L 950.819313 544.133773 
L 963.55487 527.238032 
L 963.55487 527.35415 
L 976.29 511.022837 
L 976.29 511.154517 
L 989.02513 497.140772 
L 989.02513 497.310759 
L 1001.76087 486.632708 
L 1001.76087 486.665628 
L 1014.496 479.17962 
L 1014.496 479.204759 
L 1027.23113 474.334993 
L 1027.23113 474.293095 
L 1027.23113 474.425972 
L 1039.96687 471.441026 
L 1039.96687 471.548166 
L 1052.702 469.794428 
L 1052.702 469.828545 
L 1065.43713 468.778097 
L 1065.43713 468.784681 
L 1078.17287 468.130471 
L 1103.64313 467.412815 
L 1103.64313 467.424786 
L 1116.37887 467.292508 
L 1116.37887 467.165616 
L 1116.37887 467.20093 
L 1129.114 467.094389 
L 1129.114 466.926198 
L 1129.114 466.981863 
L 1141.84913 466.855569 
L 1141.84913 466.659247 
L 1141.84913 466.731671 
L 1154.58487 466.54253 
L 1154.58487 466.219914 
L 1154.58487 466.377332 
L 1167.32 466.068482 
L 1167.32 465.483105 
L 1167.32 465.806918 
L 1180.05513 465.04078 
L 1180.05513 465.388535 
L 1180.05513 464.126801 
L 1180.05513 464.779215 
L 1192.79087 462.486188 
L 1192.79087 464.245911 
L 1192.79087 461.628472 
L 1192.79087 463.173318 
L 1205.526 457.578713 
L 1205.526 456.144 
L 1205.526 460.898845 
L 1205.526 460.433177 
L 1218.26113 445.480314 
L 1218.26113 440.58122 
L 1218.26113 445.814901 
L 1218.26113 444.857228 
L 1230.99687 422.411175 
L 1230.99687 426.047937 
L 1230.99687 421.34337 
L 1243.732 400.365549 
L 1243.732 404.590681 
L 1243.732 397.001724 
L 1256.46713 374.11574 
L 1256.46713 375.640235 
L 1256.46713 373.145497 
L 1269.20287 346.554517 
L 1269.20287 347.500817 
L 1269.20287 345.78778 
L 1269.20287 346.670036 
L 1281.938 317.691458 
L 1281.938 318.798169 
L 1281.938 317.525063 
L 1281.938 317.604071 
L 1294.67313 289.316812 
L 1294.67313 290.075768 
L 1294.67313 289.022927 
L 1294.67313 289.252169 
L 1307.40887 261.223483 
L 1307.40887 261.671195 
L 1307.40887 261.039729 
L 1307.40887 261.386287 
L 1320.144 233.768801 
L 1320.144 233.810101 
L 1332.87913 207.583635 
L 1332.87913 207.605781 
L 1345.61487 182.828992 
L 1345.61487 182.861912 
L 1358.35 159.949592 
L 1358.35 160.005257 
L 1371.08513 139.265657 
L 1371.08513 139.333891 
L 1383.82087 120.918443 
L 1383.82087 120.925027 
L 1396.556 105.02766 
L 1396.556 105.031849 
L 1409.29113 91.61665 
L 1409.29113 91.617249 
L 1422.02687 80.599823 
L 1422.02687 80.599823 
L 1434.762 71.805394 
L 1434.762 71.805394 
L 1447.49713 64.995144 
L 1447.49713 64.995144 
L 1460.23287 59.891347 
L 1472.968 56.216278 
L 1472.968 56.216278 
L 1485.70313 53.710767 
L 1485.70313 53.710767 
L 1498.43887 52.127614 
L 1498.43887 52.127614 
L 1511.174 51.487769 
L 1511.174 51.488367 
L 1523.907296 52.127614 
L 1523.907296 52.127614 
L 1536.646704 53.710767 
L 1536.646704 53.710168 
L 1549.38 56.216278 
L 1549.38 56.216278 
L 1562.113296 59.891347 
L 1562.113296 59.891347 
L 1574.852704 64.994545 
L 1574.852704 64.994545 
L 1587.586 71.805394 
L 1587.586 71.805394 
L 1600.319296 80.599224 
L 1600.319296 80.599224 
L 1613.058704 91.61665 
L 1613.058704 91.61665 
L 1625.792 105.031849 
L 1638.525296 120.931611 
L 1638.525296 120.921436 
L 1651.264704 139.327905 
L 1663.998 160.063316 
L 1663.998 160.008848 
L 1676.731296 182.91638 
L 1676.731296 182.876876 
L 1689.470704 207.733271 
L 1689.470704 207.62673 
L 1702.204 234.046527 
L 1702.204 233.838233 
L 1714.937296 261.51258 
L 1714.937296 261.024766 
L 1714.937296 261.572435 
L 1714.937296 261.335411 
L 1727.676704 289.76632 
L 1727.676704 289.114504 
L 1727.676704 290.032074 
L 1727.676704 289.161789 
L 1740.41 318.43545 
L 1740.41 317.332331 
L 1740.41 318.675467 
L 1740.41 317.453237 
L 1753.143296 347.056697 
L 1753.143296 347.333225 
L 1753.143296 345.754262 
L 1765.882704 374.792695 
L 1765.882704 372.755844 
L 1765.882704 375.113515 
L 1765.882704 374.233653 
L 1778.616 403.975975 
L 1778.616 397.493728 
L 1778.616 401.845752 
L 1791.349296 425.979703 
L 1791.349296 422.496767 
L 1791.349296 425.79176 
L 1804.088704 447.685356 
L 1804.088704 442.272111 
L 1804.088704 445.302546 
L 1816.822 458.063535 
L 1816.822 462.023512 
L 1816.822 455.940495 
L 1829.555296 462.819577 
L 1829.555296 464.094479 
L 1829.555296 462.682511 
L 1829.555296 463.240355 
L 1842.294704 464.651725 
L 1842.294704 465.547748 
L 1842.294704 464.647535 
L 1842.294704 465.214956 
L 1855.028 465.760231 
L 1855.028 466.192381 
L 1855.028 466.023591 
L 1867.761296 466.510209 
L 1867.761296 466.492851 
L 1867.761296 466.595801 
L 1867.761296 466.544326 
L 1905.967296 467.255398 
L 1905.967296 467.157835 
L 1905.967296 467.27515 
L 1931.44 467.732439 
L 1931.44 467.721665 
L 1944.173296 468.123289 
L 1944.173296 468.119697 
L 1956.912704 468.763732 
L 1956.912704 468.749966 
L 1969.646 469.803406 
L 1969.646 469.766895 
L 1982.379296 471.467362 
L 1982.379296 471.457785 
L 1995.118704 474.347563 
L 1995.118704 474.323023 
L 2007.852 479.143708 
L 2007.852 479.138919 
L 2020.585296 486.626723 
L 2020.585296 486.594401 
L 2033.324704 497.277839 
L 2033.324704 497.203021 
L 2046.058 511.130575 
L 2046.058 511.044385 
L 2058.791296 527.319434 
L 2058.791296 527.31704 
L 2071.530704 544.096663 
L 2084.264 559.140505 
L 2084.264 559.140505 
L 2096.997296 570.54938 
L 2096.997296 570.546985 
L 2109.736704 577.613413 
L 2109.736704 577.611019 
" clip-path="url(#pf62fa47c58)" style="fill: none; stroke: #d62728; stroke-width: 1.5; stroke-linecap: square"/>
   </g>
   <g id="line2d_50">
    <path d="M 899.878 585.769792 
L 912.613313 585.119772 
L 912.613313 585.119772 
L 925.348687 582.669925 
L 925.348687 582.669925 
L 938.084 576.962196 
L 938.084 576.962196 
L 950.819313 566.165633 
L 950.819313 566.165633 
L 963.55487 549.923503 
L 963.55487 549.923503 
L 976.29 530.747304 
L 976.29 530.747304 
L 989.02513 512.473711 
L 989.02513 512.473711 
L 1001.76087 497.72615 
L 1001.76087 497.72615 
L 1014.496 487.181575 
L 1014.496 487.181575 
L 1027.23113 480.272564 
L 1027.23113 480.273163 
L 1039.96687 476.026483 
L 1039.96687 476.026483 
L 1052.702 473.533541 
L 1052.702 473.533541 
L 1065.43713 472.1102 
L 1065.43713 472.1102 
L 1078.17287 471.304558 
L 1078.17287 471.304558 
L 1090.908 470.844276 
L 1090.908 470.844276 
L 1116.37887 470.415119 
L 1116.37887 470.415119 
L 1154.58487 470.152956 
L 1154.58487 470.152956 
L 1167.32 470.169716 
L 1167.32 470.169716 
L 1180.05513 469.528075 
L 1180.05513 469.528075 
L 1192.79087 468.021536 
L 1192.79087 468.021536 
L 1205.526 460.125524 
L 1205.526 460.125524 
L 1218.26113 442.229614 
L 1218.26113 442.229614 
L 1230.99687 418.773815 
L 1230.99687 418.773815 
L 1243.732 392.860388 
L 1243.732 392.860986 
L 1256.46713 365.845637 
L 1256.46713 365.845637 
L 1281.938 310.940464 
L 1281.938 310.941063 
L 1294.67313 283.8078 
L 1294.67313 283.810194 
L 1307.40887 257.328748 
L 1307.40887 257.332339 
L 1320.144 231.777441 
L 1320.144 231.779236 
L 1332.87913 207.422028 
L 1332.87913 207.429809 
L 1345.61487 184.528861 
L 1345.61487 184.531854 
L 1358.35 163.303242 
L 1358.35 163.305038 
L 1371.08513 143.927129 
L 1371.08513 143.928326 
L 1383.82087 126.531602 
L 1383.82087 126.531602 
L 1396.556 111.193276 
L 1409.29113 97.934297 
L 1422.02687 86.71995 
L 1422.02687 86.71995 
L 1434.762 77.463444 
L 1434.762 77.464043 
L 1447.49713 70.037291 
L 1447.49713 70.037291 
L 1460.23287 64.283473 
L 1460.23287 64.285868 
L 1472.968 60.036793 
L 1472.968 60.037392 
L 1485.70313 57.138038 
L 1485.70313 57.141031 
L 1498.43887 55.457322 
L 1498.43887 55.462709 
L 1511.174 54.909653 
L 1511.174 54.918631 
L 1523.907296 55.478271 
L 1536.646704 57.172753 
L 1549.38 60.088867 
L 1562.113296 64.3547 
L 1574.852704 70.12827 
L 1587.586 77.569985 
L 1587.586 77.569387 
L 1600.319296 86.841455 
L 1600.319296 86.838462 
L 1613.058704 98.118649 
L 1613.058704 98.097102 
L 1625.792 111.365059 
L 1625.792 111.350095 
L 1638.525296 126.641136 
L 1638.525296 126.745283 
L 1638.525296 126.678246 
L 1651.264704 144.112678 
L 1651.264704 144.012122 
L 1663.998 163.390031 
L 1663.998 163.041079 
L 1663.998 163.457068 
L 1676.731296 184.380422 
L 1676.731296 184.707826 
L 1676.731296 184.559387 
L 1689.470704 207.435196 
L 1689.470704 207.265209 
L 1702.204 231.873208 
L 1702.204 231.482956 
L 1714.937296 257.330543 
L 1714.937296 256.748757 
L 1727.676704 283.645594 
L 1727.676704 283.429519 
L 1727.676704 284.014897 
L 1740.41 310.801601 
L 1740.41 310.164749 
L 1740.41 311.397753 
L 1740.41 310.313188 
L 1753.143296 338.263465 
L 1753.143296 336.813788 
L 1753.143296 337.934265 
L 1765.882704 365.016053 
L 1765.882704 366.473511 
L 1765.882704 365.763636 
L 1778.616 392.699379 
L 1778.616 391.112036 
L 1791.349296 418.87856 
L 1791.349296 418.569112 
L 1791.349296 419.486682 
L 1791.349296 418.032217 
L 1804.088704 442.495368 
L 1804.088704 443.36266 
L 1804.088704 441.79088 
L 1804.088704 442.831152 
L 1816.822 460.348183 
L 1816.822 462.874644 
L 1816.822 462.437107 
L 1829.555296 467.065659 
L 1829.555296 466.863949 
L 1829.555296 467.939535 
L 1842.294704 470.248724 
L 1842.294704 469.520294 
L 1855.028 470.016488 
L 1855.028 470.304987 
L 1867.761296 470.124226 
L 1867.761296 470.189468 
L 1880.500704 470.163132 
L 1880.500704 470.268476 
L 1893.234 470.248125 
L 1893.234 470.319352 
L 1905.967296 470.473777 
L 1905.967296 470.434871 
L 1918.706704 470.616829 
L 1918.706704 470.583311 
L 1931.44 470.868817 
L 1931.44 470.846671 
L 1944.173296 471.326105 
L 1944.173296 471.302762 
L 1956.912704 472.124565 
L 1956.912704 472.104813 
L 1969.646 473.537132 
L 1969.646 473.522767 
L 1982.379296 476.016308 
L 1982.379296 476.007329 
L 1995.118704 480.243834 
L 1995.118704 480.243236 
L 2007.852 487.143866 
L 2007.852 487.140873 
L 2020.585296 497.672879 
L 2033.324704 512.430017 
L 2033.324704 512.371959 
L 2046.058 530.693435 
L 2046.058 530.67907 
L 2058.791296 549.873824 
L 2058.791296 549.849284 
L 2071.530704 566.12553 
L 2071.530704 566.120742 
L 2084.264 576.937655 
L 2084.264 576.936458 
L 2096.997296 582.659151 
L 2096.997296 582.658553 
L 2109.736704 585.11618 
L 2109.736704 585.115582 
" clip-path="url(#pf62fa47c58)" style="fill: none; stroke: #9467bd; stroke-width: 1.5; stroke-linecap: square"/>
   </g>
   <g id="patch_13">
    <path d="M 1511.174 647.08 
L 1511.174 21.6 
" style="fill: none; stroke: #000000; stroke-width: 0.8; stroke-linejoin: miter; stroke-linecap: square"/>
   </g>
   <g id="patch_14">
    <path d="M 2122.47 647.08 
L 2122.47 21.6 
" style="fill: none; stroke: #000000; stroke-width: 0.8; stroke-linejoin: miter; stroke-linecap: square"/>
   </g>
   <g id="patch_15">
    <path d="M 1511.174 647.08 
L 2122.47 647.08 
" style="fill: none; stroke: #000000; stroke-width: 0.8; stroke-linejoin: miter; stroke-linecap: square"/>
   </g>
   <g id="patch_16">
    <path d="M 1511.174 21.6 
L 2122.47 21.6 
" style="fill: none; stroke: #000000; stroke-width: 0.8; stroke-linejoin: miter; stroke-linecap: square"/>
   </g>
   <g id="legend_1">
    <g id="patch_17">
     <path d="M 1945.698125 184.38125 
L 2108.47 184.38125 
Q 2112.47 184.38125 2112.47 180.38125 
L 2112.47 35.6 
Q 2112.47 31.6 2108.47 31.6 
L 1945.698125 31.6 
Q 1941.698125 31.6 1941.698125 35.6 
L 1941.698125 180.38125 
Q 1941.698125 184.38125 1945.698125 184.38125 
z
" style="fill: #ffffff; opacity: 0.8; stroke: #cccccc; stroke-linejoin: miter"/>
    </g>
    <g id="line2d_51">
     <path d="M 1949.698125 47.796875 
L 1969.698125 47.796875 
L 1989.698125 47.796875 
" style="fill: none; stroke: #1f77b4; stroke-width: 1.5; stroke-linecap: square"/>
    </g>
    <g id="text_42">
     <!-- Exact Sol. -->
     <g transform="translate(2005.698125 54.796875) scale(0.2 -0.2)">
      <defs>
       <path id="DejaVuSans-45" d="M 628 4666 
L 3578 4666 
L 3578 4134 
L 1259 4134 
L 1259 2753 
L 3481 2753 
L 3481 2222 
L 1259 2222 
L 1259 531 
L 3634 531 
L 3634 0 
L 628 0 
L 628 4666 
z
" transform="scale(0.015625)"/>
       <path id="DejaVuSans-78" d="M 3513 3500 
L 2247 1797 
L 3578 0 
L 2900 0 
L 1881 1375 
L 863 0 
L 184 0 
L 1544 1831 
L 300 3500 
L 978 3500 
L 1906 2253 
L 2834 3500 
L 3513 3500 
z
" transform="scale(0.015625)"/>
       <path id="DejaVuSans-61" d="M 2194 1759 
Q 1497 1759 1228 1600 
Q 959 1441 959 1056 
Q 959 750 1161 570 
Q 1363 391 1709 391 
Q 2188 391 2477 730 
Q 2766 1069 2766 1631 
L 2766 1759 
L 2194 1759 
z
M 3341 1997 
L 3341 0 
L 2766 0 
L 2766 531 
Q 2569 213 2275 61 
Q 1981 -91 1556 -91 
Q 1019 -91 701 211 
Q 384 513 384 1019 
Q 384 1609 779 1909 
Q 1175 2209 1959 2209 
L 2766 2209 
L 2766 2266 
Q 2766 2663 2505 2880 
Q 2244 3097 1772 3097 
Q 1472 3097 1187 3025 
Q 903 2953 641 2809 
L 641 3341 
Q 956 3463 1253 3523 
Q 1550 3584 1831 3584 
Q 2591 3584 2966 3190 
Q 3341 2797 3341 1997 
z
" transform="scale(0.015625)"/>
       <path id="DejaVuSans-63" d="M 3122 3366 
L 3122 2828 
Q 2878 2963 2633 3030 
Q 2388 3097 2138 3097 
Q 1578 3097 1268 2742 
Q 959 2388 959 1747 
Q 959 1106 1268 751 
Q 1578 397 2138 397 
Q 2388 397 2633 464 
Q 2878 531 3122 666 
L 3122 134 
Q 2881 22 2623 -34 
Q 2366 -91 2075 -91 
Q 1284 -91 818 406 
Q 353 903 353 1747 
Q 353 2603 823 3093 
Q 1294 3584 2113 3584 
Q 2378 3584 2631 3529 
Q 2884 3475 3122 3366 
z
" transform="scale(0.015625)"/>
       <path id="DejaVuSans-53" d="M 3425 4513 
L 3425 3897 
Q 3066 4069 2747 4153 
Q 2428 4238 2131 4238 
Q 1616 4238 1336 4038 
Q 1056 3838 1056 3469 
Q 1056 3159 1242 3001 
Q 1428 2844 1947 2747 
L 2328 2669 
Q 3034 2534 3370 2195 
Q 3706 1856 3706 1288 
Q 3706 609 3251 259 
Q 2797 -91 1919 -91 
Q 1588 -91 1214 -16 
Q 841 59 441 206 
L 441 856 
Q 825 641 1194 531 
Q 1563 422 1919 422 
Q 2459 422 2753 634 
Q 3047 847 3047 1241 
Q 3047 1584 2836 1778 
Q 2625 1972 2144 2069 
L 1759 2144 
Q 1053 2284 737 2584 
Q 422 2884 422 3419 
Q 422 4038 858 4394 
Q 1294 4750 2059 4750 
Q 2388 4750 2728 4690 
Q 3069 4631 3425 4513 
z
" transform="scale(0.015625)"/>
       <path id="DejaVuSans-6c" d="M 603 4863 
L 1178 4863 
L 1178 0 
L 603 0 
L 603 4863 
z
" transform="scale(0.015625)"/>
      </defs>
      <use xlink:href="#DejaVuSans-45"/>
      <use xlink:href="#DejaVuSans-78" x="63.183594"/>
      <use xlink:href="#DejaVuSans-61" x="122.363281"/>
      <use xlink:href="#DejaVuSans-63" x="183.642578"/>
      <use xlink:href="#DejaVuSans-74" x="238.623047"/>
      <use xlink:href="#DejaVuSans-20" x="277.832031"/>
      <use xlink:href="#DejaVuSans-53" x="309.619141"/>
      <use xlink:href="#DejaVuSans-6f" x="373.095703"/>
      <use xlink:href="#DejaVuSans-6c" x="434.277344"/>
      <use xlink:href="#DejaVuSans-2e" x="462.060547"/>
     </g>
    </g>
    <g id="line2d_52">
     <path d="M 1949.698125 77.153125 
L 1969.698125 77.153125 
L 1989.698125 77.153125 
" style="fill: none; stroke: #ff7f0e; stroke-width: 1.5; stroke-linecap: square"/>
    </g>
    <g id="text_43">
     <!-- N -->
     <g transform="translate(2005.698125 84.153125) scale(0.2 -0.2)">
      <defs>
       <path id="DejaVuSans-4e" d="M 628 4666 
L 1478 4666 
L 3547 763 
L 3547 4666 
L 4159 4666 
L 4159 0 
L 3309 0 
L 1241 3903 
L 1241 0 
L 628 0 
L 628 4666 
z
" transform="scale(0.015625)"/>
      </defs>
      <use xlink:href="#DejaVuSans-4e"/>
     </g>
    </g>
    <g id="line2d_53">
     <path d="M 1949.698125 106.509375 
L 1969.698125 106.509375 
L 1989.698125 106.509375 
" style="fill: none; stroke: #2ca02c; stroke-width: 1.5; stroke-linecap: square"/>
    </g>
    <g id="text_44">
     <!-- LDA -->
     <g transform="translate(2005.698125 113.509375) scale(0.2 -0.2)">
      <defs>
       <path id="DejaVuSans-4c" d="M 628 4666 
L 1259 4666 
L 1259 531 
L 3531 531 
L 3531 0 
L 628 0 
L 628 4666 
z
" transform="scale(0.015625)"/>
       <path id="DejaVuSans-44" d="M 1259 4147 
L 1259 519 
L 2022 519 
Q 2988 519 3436 956 
Q 3884 1394 3884 2338 
Q 3884 3275 3436 3711 
Q 2988 4147 2022 4147 
L 1259 4147 
z
M 628 4666 
L 1925 4666 
Q 3281 4666 3915 4102 
Q 4550 3538 4550 2338 
Q 4550 1131 3912 565 
Q 3275 0 1925 0 
L 628 0 
L 628 4666 
z
" transform="scale(0.015625)"/>
       <path id="DejaVuSans-41" d="M 2188 4044 
L 1331 1722 
L 3047 1722 
L 2188 4044 
z
M 1831 4666 
L 2547 4666 
L 4325 0 
L 3669 0 
L 3244 1197 
L 1141 1197 
L 716 0 
L 50 0 
L 1831 4666 
z
" transform="scale(0.015625)"/>
      </defs>
      <use xlink:href="#DejaVuSans-4c"/>
      <use xlink:href="#DejaVuSans-44" x="55.712891"/>
      <use xlink:href="#DejaVuSans-41" x="130.964844"/>
     </g>
    </g>
    <g id="line2d_54">
     <path d="M 1949.698125 135.865625 
L 1969.698125 135.865625 
L 1989.698125 135.865625 
" style="fill: none; stroke: #d62728; stroke-width: 1.5; stroke-linecap: square"/>
    </g>
    <g id="text_45">
     <!-- B -->
     <g transform="translate(2005.698125 142.865625) scale(0.2 -0.2)">
      <defs>
       <path id="DejaVuSans-42" d="M 1259 2228 
L 1259 519 
L 2272 519 
Q 2781 519 3026 730 
Q 3272 941 3272 1375 
Q 3272 1813 3026 2020 
Q 2781 2228 2272 2228 
L 1259 2228 
z
M 1259 4147 
L 1259 2741 
L 2194 2741 
Q 2656 2741 2882 2914 
Q 3109 3088 3109 3444 
Q 3109 3797 2882 3972 
Q 2656 4147 2194 4147 
L 1259 4147 
z
M 628 4666 
L 2241 4666 
Q 2963 4666 3353 4366 
Q 3744 4066 3744 3513 
Q 3744 3084 3544 2831 
Q 3344 2578 2956 2516 
Q 3422 2416 3680 2098 
Q 3938 1781 3938 1306 
Q 3938 681 3513 340 
Q 3088 0 2303 0 
L 628 0 
L 628 4666 
z
" transform="scale(0.015625)"/>
      </defs>
      <use xlink:href="#DejaVuSans-42"/>
     </g>
    </g>
    <g id="line2d_55">
     <path d="M 1949.698125 165.221875 
L 1969.698125 165.221875 
L 1989.698125 165.221875 
" style="fill: none; stroke: #9467bd; stroke-width: 1.5; stroke-linecap: square"/>
    </g>
    <g id="text_46">
     <!-- Bx -->
     <g transform="translate(2005.698125 172.221875) scale(0.2 -0.2)">
      <use xlink:href="#DejaVuSans-42"/>
      <use xlink:href="#DejaVuSans-78" x="68.603516"/>
     </g>
    </g>
   </g>
  </g>
 </g>
 <defs>
  <clipPath id="p48cf1d6529">
   <rect x="84.71" y="21.6" width="611.296" height="625.48"/>
  </clipPath>
  <clipPath id="p74393e5833">
   <rect x="797.942" y="21.6" width="611.296" height="625.48"/>
  </clipPath>
  <clipPath id="pf62fa47c58">
   <rect x="1511.174" y="21.6" width="611.296" height="625.48"/>
  </clipPath>
 </defs>
</svg>
