<?xml version="1.0" encoding="utf-8" standalone="no"?>
<!DOCTYPE svg PUBLIC "-//W3C//DTD SVG 1.1//EN"
  "http://www.w3.org/Graphics/SVG/1.1/DTD/svg11.dtd">
<svg xmlns:xlink="http://www.w3.org/1999/xlink" width="2160pt" height="720pt" viewBox="0 0 2160 720" xmlns="http://www.w3.org/2000/svg" version="1.1">
 <metadata>
  <rdf:RDF xmlns:dc="http://purl.org/dc/elements/1.1/" xmlns:cc="http://creativecommons.org/ns#" xmlns:rdf="http://www.w3.org/1999/02/22-rdf-syntax-ns#">
   <cc:Work>
    <dc:type rdf:resource="http://purl.org/dc/dcmitype/StillImage"/>
    <dc:date>2023-07-14T00:06:42.017659</dc:date>
    <dc:format>image/svg+xml</dc:format>
    <dc:creator>
     <cc:Agent>
      <dc:title>Matplotlib v3.7.1, https://matplotlib.org/</dc:title>
     </cc:Agent>
    </dc:creator>
   </cc:Work>
  </rdf:RDF>
 </metadata>
 <defs>
  <style type="text/css">*{stroke-linejoin: round; stroke-linecap: butt}</style>
 </defs>
 <g id="figure_1">
  <g id="patch_1">
   <path d="M 0 720 
L 2160 720 
L 2160 0 
L 0 0 
z
" style="fill: #ffffff"/>
  </g>
  <g id="axes_1">
   <g id="patch_2">
    <path d="M 136.812223 645.712 
L 710.649737 645.712 
L 710.649737 21.6 
L 136.812223 21.6 
z
" style="fill: #ffffff"/>
   </g>
   <g id="matplotlib.axis_1">
    <g id="xtick_1">
     <g id="line2d_1">
      <defs>
       <path id="m6d8fb6384f" d="M 0 0 
L 0 3.5 
" style="stroke: #000000; stroke-width: 0.8"/>
      </defs>
      <g>
       <use xlink:href="#m6d8fb6384f" x="143.514507" y="645.712" style="stroke: #000000; stroke-width: 0.8"/>
      </g>
     </g>
     <g id="text_1">
      <!-- $\mathdefault{10^{-2}}$ -->
      <g transform="translate(120.014507 667.908875) scale(0.2 -0.2)">
       <defs>
        <path id="DejaVuSans-31" d="M 794 531 
L 1825 531 
L 1825 4091 
L 703 3866 
L 703 4441 
L 1819 4666 
L 2450 4666 
L 2450 531 
L 3481 531 
L 3481 0 
L 794 0 
L 794 531 
z
" transform="scale(0.015625)"/>
        <path id="DejaVuSans-30" d="M 2034 4250 
Q 1547 4250 1301 3770 
Q 1056 3291 1056 2328 
Q 1056 1369 1301 889 
Q 1547 409 2034 409 
Q 2525 409 2770 889 
Q 3016 1369 3016 2328 
Q 3016 3291 2770 3770 
Q 2525 4250 2034 4250 
z
M 2034 4750 
Q 2819 4750 3233 4129 
Q 3647 3509 3647 2328 
Q 3647 1150 3233 529 
Q 2819 -91 2034 -91 
Q 1250 -91 836 529 
Q 422 1150 422 2328 
Q 422 3509 836 4129 
Q 1250 4750 2034 4750 
z
" transform="scale(0.015625)"/>
        <path id="DejaVuSans-2212" d="M 678 2272 
L 4684 2272 
L 4684 1741 
L 678 1741 
L 678 2272 
z
" transform="scale(0.015625)"/>
        <path id="DejaVuSans-32" d="M 1228 531 
L 3431 531 
L 3431 0 
L 469 0 
L 469 531 
Q 828 903 1448 1529 
Q 2069 2156 2228 2338 
Q 2531 2678 2651 2914 
Q 2772 3150 2772 3378 
Q 2772 3750 2511 3984 
Q 2250 4219 1831 4219 
Q 1534 4219 1204 4116 
Q 875 4013 500 3803 
L 500 4441 
Q 881 4594 1212 4672 
Q 1544 4750 1819 4750 
Q 2544 4750 2975 4387 
Q 3406 4025 3406 3419 
Q 3406 3131 3298 2873 
Q 3191 2616 2906 2266 
Q 2828 2175 2409 1742 
Q 1991 1309 1228 531 
z
" transform="scale(0.015625)"/>
       </defs>
       <use xlink:href="#DejaVuSans-31" transform="translate(0 0.765625)"/>
       <use xlink:href="#DejaVuSans-30" transform="translate(63.623047 0.765625)"/>
       <use xlink:href="#DejaVuSans-2212" transform="translate(128.203125 39.046875) scale(0.7)"/>
       <use xlink:href="#DejaVuSans-32" transform="translate(186.855469 39.046875) scale(0.7)"/>
      </g>
     </g>
    </g>
    <g id="xtick_2">
     <g id="line2d_2">
      <defs>
       <path id="m75f96c24eb" d="M 0 0 
L 0 2 
" style="stroke: #000000; stroke-width: 0.6"/>
      </defs>
      <g>
       <use xlink:href="#m75f96c24eb" x="472.643798" y="645.712" style="stroke: #000000; stroke-width: 0.6"/>
      </g>
     </g>
     <g id="text_2">
      <!-- $\mathdefault{2\times10^{-2}}$ -->
      <g transform="translate(430.543798 666.308875) scale(0.2 -0.2)">
       <defs>
        <path id="DejaVuSans-d7" d="M 4488 3438 
L 3059 2003 
L 4488 575 
L 4116 197 
L 2681 1631 
L 1247 197 
L 878 575 
L 2303 2003 
L 878 3438 
L 1247 3816 
L 2681 2381 
L 4116 3816 
L 4488 3438 
z
" transform="scale(0.015625)"/>
       </defs>
       <use xlink:href="#DejaVuSans-32" transform="translate(0 0.765625)"/>
       <use xlink:href="#DejaVuSans-d7" transform="translate(83.105469 0.765625)"/>
       <use xlink:href="#DejaVuSans-31" transform="translate(186.376953 0.765625)"/>
       <use xlink:href="#DejaVuSans-30" transform="translate(250 0.765625)"/>
       <use xlink:href="#DejaVuSans-2212" transform="translate(314.580078 39.046875) scale(0.7)"/>
       <use xlink:href="#DejaVuSans-32" transform="translate(373.232422 39.046875) scale(0.7)"/>
      </g>
     </g>
    </g>
    <g id="xtick_3">
     <g id="line2d_3">
      <g>
       <use xlink:href="#m75f96c24eb" x="665.172091" y="645.712" style="stroke: #000000; stroke-width: 0.6"/>
      </g>
     </g>
     <g id="text_3">
      <!-- $\mathdefault{3\times10^{-2}}$ -->
      <g transform="translate(623.072091 666.308875) scale(0.2 -0.2)">
       <defs>
        <path id="DejaVuSans-33" d="M 2597 2516 
Q 3050 2419 3304 2112 
Q 3559 1806 3559 1356 
Q 3559 666 3084 287 
Q 2609 -91 1734 -91 
Q 1441 -91 1130 -33 
Q 819 25 488 141 
L 488 750 
Q 750 597 1062 519 
Q 1375 441 1716 441 
Q 2309 441 2620 675 
Q 2931 909 2931 1356 
Q 2931 1769 2642 2001 
Q 2353 2234 1838 2234 
L 1294 2234 
L 1294 2753 
L 1863 2753 
Q 2328 2753 2575 2939 
Q 2822 3125 2822 3475 
Q 2822 3834 2567 4026 
Q 2313 4219 1838 4219 
Q 1578 4219 1281 4162 
Q 984 4106 628 3988 
L 628 4550 
Q 988 4650 1302 4700 
Q 1616 4750 1894 4750 
Q 2613 4750 3031 4423 
Q 3450 4097 3450 3541 
Q 3450 3153 3228 2886 
Q 3006 2619 2597 2516 
z
" transform="scale(0.015625)"/>
       </defs>
       <use xlink:href="#DejaVuSans-33" transform="translate(0 0.765625)"/>
       <use xlink:href="#DejaVuSans-d7" transform="translate(83.105469 0.765625)"/>
       <use xlink:href="#DejaVuSans-31" transform="translate(186.376953 0.765625)"/>
       <use xlink:href="#DejaVuSans-30" transform="translate(250 0.765625)"/>
       <use xlink:href="#DejaVuSans-2212" transform="translate(314.580078 39.046875) scale(0.7)"/>
       <use xlink:href="#DejaVuSans-32" transform="translate(373.232422 39.046875) scale(0.7)"/>
      </g>
     </g>
    </g>
    <g id="text_4">
     <!-- $h$ -->
     <g transform="translate(417.33098 691.265125) scale(0.2 -0.2)">
      <defs>
       <path id="DejaVuSans-Oblique-68" d="M 3566 2113 
L 3156 0 
L 2578 0 
L 2988 2091 
Q 3016 2238 3031 2350 
Q 3047 2463 3047 2528 
Q 3047 2791 2881 2937 
Q 2716 3084 2419 3084 
Q 1956 3084 1617 2771 
Q 1278 2459 1178 1941 
L 800 0 
L 225 0 
L 1172 4863 
L 1747 4863 
L 1375 2950 
Q 1594 3244 1934 3414 
Q 2275 3584 2650 3584 
Q 3113 3584 3367 3334 
Q 3622 3084 3622 2631 
Q 3622 2519 3608 2391 
Q 3594 2263 3566 2113 
z
" transform="scale(0.015625)"/>
      </defs>
      <use xlink:href="#DejaVuSans-Oblique-68" transform="translate(0 0.015625)"/>
     </g>
    </g>
   </g>
   <g id="matplotlib.axis_2">
    <g id="ytick_1">
     <g id="line2d_4">
      <defs>
       <path id="m3749c99996" d="M 0 0 
L -2 0 
" style="stroke: #000000; stroke-width: 0.6"/>
      </defs>
      <g>
       <use xlink:href="#m3749c99996" x="136.812223" y="459.980526" style="stroke: #000000; stroke-width: 0.6"/>
      </g>
     </g>
     <g id="text_5">
      <!-- $\mathdefault{3\times10^{-2}}$ -->
      <g transform="translate(47.212223 467.578963) scale(0.2 -0.2)">
       <use xlink:href="#DejaVuSans-33" transform="translate(0 0.765625)"/>
       <use xlink:href="#DejaVuSans-d7" transform="translate(83.105469 0.765625)"/>
       <use xlink:href="#DejaVuSans-31" transform="translate(186.376953 0.765625)"/>
       <use xlink:href="#DejaVuSans-30" transform="translate(250 0.765625)"/>
       <use xlink:href="#DejaVuSans-2212" transform="translate(314.580078 39.046875) scale(0.7)"/>
       <use xlink:href="#DejaVuSans-32" transform="translate(373.232422 39.046875) scale(0.7)"/>
      </g>
     </g>
    </g>
    <g id="ytick_2">
     <g id="line2d_5">
      <g>
       <use xlink:href="#m3749c99996" x="136.812223" y="261.41672" style="stroke: #000000; stroke-width: 0.6"/>
      </g>
     </g>
     <g id="text_6">
      <!-- $\mathdefault{4\times10^{-2}}$ -->
      <g transform="translate(47.212223 269.015157) scale(0.2 -0.2)">
       <defs>
        <path id="DejaVuSans-34" d="M 2419 4116 
L 825 1625 
L 2419 1625 
L 2419 4116 
z
M 2253 4666 
L 3047 4666 
L 3047 1625 
L 3713 1625 
L 3713 1100 
L 3047 1100 
L 3047 0 
L 2419 0 
L 2419 1100 
L 313 1100 
L 313 1709 
L 2253 4666 
z
" transform="scale(0.015625)"/>
       </defs>
       <use xlink:href="#DejaVuSans-34" transform="translate(0 0.765625)"/>
       <use xlink:href="#DejaVuSans-d7" transform="translate(83.105469 0.765625)"/>
       <use xlink:href="#DejaVuSans-31" transform="translate(186.376953 0.765625)"/>
       <use xlink:href="#DejaVuSans-30" transform="translate(250 0.765625)"/>
       <use xlink:href="#DejaVuSans-2212" transform="translate(314.580078 39.046875) scale(0.7)"/>
       <use xlink:href="#DejaVuSans-32" transform="translate(373.232422 39.046875) scale(0.7)"/>
      </g>
     </g>
    </g>
    <g id="ytick_3">
     <g id="line2d_6">
      <g>
       <use xlink:href="#m3749c99996" x="136.812223" y="107.398667" style="stroke: #000000; stroke-width: 0.6"/>
      </g>
     </g>
     <g id="text_7">
      <!-- $\mathdefault{5\times10^{-2}}$ -->
      <g transform="translate(47.212223 114.997104) scale(0.2 -0.2)">
       <defs>
        <path id="DejaVuSans-35" d="M 691 4666 
L 3169 4666 
L 3169 4134 
L 1269 4134 
L 1269 2991 
Q 1406 3038 1543 3061 
Q 1681 3084 1819 3084 
Q 2600 3084 3056 2656 
Q 3513 2228 3513 1497 
Q 3513 744 3044 326 
Q 2575 -91 1722 -91 
Q 1428 -91 1123 -41 
Q 819 9 494 109 
L 494 744 
Q 775 591 1075 516 
Q 1375 441 1709 441 
Q 2250 441 2565 725 
Q 2881 1009 2881 1497 
Q 2881 1984 2565 2268 
Q 2250 2553 1709 2553 
Q 1456 2553 1204 2497 
Q 953 2441 691 2322 
L 691 4666 
z
" transform="scale(0.015625)"/>
       </defs>
       <use xlink:href="#DejaVuSans-35" transform="translate(0 0.765625)"/>
       <use xlink:href="#DejaVuSans-d7" transform="translate(83.105469 0.765625)"/>
       <use xlink:href="#DejaVuSans-31" transform="translate(186.376953 0.765625)"/>
       <use xlink:href="#DejaVuSans-30" transform="translate(250 0.765625)"/>
       <use xlink:href="#DejaVuSans-2212" transform="translate(314.580078 39.046875) scale(0.7)"/>
       <use xlink:href="#DejaVuSans-32" transform="translate(373.232422 39.046875) scale(0.7)"/>
      </g>
     </g>
    </g>
    <g id="text_8">
     <!-- Error $\rho$ -->
     <g transform="translate(39.012223 367.956) rotate(-90) scale(0.2 -0.2)">
      <defs>
       <path id="DejaVuSans-45" d="M 628 4666 
L 3578 4666 
L 3578 4134 
L 1259 4134 
L 1259 2753 
L 3481 2753 
L 3481 2222 
L 1259 2222 
L 1259 531 
L 3634 531 
L 3634 0 
L 628 0 
L 628 4666 
z
" transform="scale(0.015625)"/>
       <path id="DejaVuSans-72" d="M 2631 2963 
Q 2534 3019 2420 3045 
Q 2306 3072 2169 3072 
Q 1681 3072 1420 2755 
Q 1159 2438 1159 1844 
L 1159 0 
L 581 0 
L 581 3500 
L 1159 3500 
L 1159 2956 
Q 1341 3275 1631 3429 
Q 1922 3584 2338 3584 
Q 2397 3584 2469 3576 
Q 2541 3569 2628 3553 
L 2631 2963 
z
" transform="scale(0.015625)"/>
       <path id="DejaVuSans-6f" d="M 1959 3097 
Q 1497 3097 1228 2736 
Q 959 2375 959 1747 
Q 959 1119 1226 758 
Q 1494 397 1959 397 
Q 2419 397 2687 759 
Q 2956 1122 2956 1747 
Q 2956 2369 2687 2733 
Q 2419 3097 1959 3097 
z
M 1959 3584 
Q 2709 3584 3137 3096 
Q 3566 2609 3566 1747 
Q 3566 888 3137 398 
Q 2709 -91 1959 -91 
Q 1206 -91 779 398 
Q 353 888 353 1747 
Q 353 2609 779 3096 
Q 1206 3584 1959 3584 
z
" transform="scale(0.015625)"/>
       <path id="DejaVuSans-20" transform="scale(0.015625)"/>
       <path id="DejaVuSans-Oblique-3c1" d="M 1203 2875 
Q 1453 3194 1981 3475 
Q 2188 3584 2756 3584 
Q 3394 3584 3694 3078 
Q 3994 2572 3834 1747 
Q 3672 922 3175 415 
Q 2678 -91 2041 -91 
Q 1656 -91 1409 63 
Q 1163 213 1044 525 
L 681 -1331 
L 103 -1331 
L 697 1716 
Q 838 2438 1203 2875 
z
M 3238 1747 
Q 3359 2381 3169 2744 
Q 2978 3103 2522 3103 
Q 2066 3103 1734 2744 
Q 1403 2381 1281 1747 
Q 1156 1113 1347 750 
Q 1538 391 1994 391 
Q 2450 391 2781 750 
Q 3113 1113 3238 1747 
z
" transform="scale(0.015625)"/>
      </defs>
      <use xlink:href="#DejaVuSans-45" transform="translate(0 0.09375)"/>
      <use xlink:href="#DejaVuSans-72" transform="translate(63.183594 0.09375)"/>
      <use xlink:href="#DejaVuSans-72" transform="translate(104.296875 0.09375)"/>
      <use xlink:href="#DejaVuSans-6f" transform="translate(145.410156 0.09375)"/>
      <use xlink:href="#DejaVuSans-72" transform="translate(206.591797 0.09375)"/>
      <use xlink:href="#DejaVuSans-20" transform="translate(247.705078 0.09375)"/>
      <use xlink:href="#DejaVuSans-Oblique-3c1" transform="translate(279.492188 0.09375)"/>
     </g>
    </g>
   </g>
   <g id="line2d_7">
    <path d="M 162.895746 617.343273 
L 249.460086 543.107472 
L 355.422429 448.598616 
L 492.005713 353.611788 
L 684.566213 215.149819 
" clip-path="url(#p4dabc043b7)" style="fill: none; stroke: #ff0000; stroke-width: 1.5; stroke-linecap: square"/>
    <defs>
     <path id="mfa80af10ce" d="M 0 1.5 
C 0.397805 1.5 0.77937 1.341951 1.06066 1.06066 
C 1.341951 0.77937 1.5 0.397805 1.5 0 
C 1.5 -0.397805 1.341951 -0.77937 1.06066 -1.06066 
C 0.77937 -1.341951 0.397805 -1.5 0 -1.5 
C -0.397805 -1.5 -0.77937 -1.341951 -1.06066 -1.06066 
C -1.341951 -0.77937 -1.5 -0.397805 -1.5 0 
C -1.5 0.397805 -1.341951 0.77937 -1.06066 1.06066 
C -0.77937 1.341951 -0.397805 1.5 0 1.5 
z
" style="stroke: #ff0000"/>
    </defs>
    <g clip-path="url(#p4dabc043b7)">
     <use xlink:href="#mfa80af10ce" x="162.895746" y="617.343273" style="fill: #ff0000; stroke: #ff0000"/>
     <use xlink:href="#mfa80af10ce" x="249.460086" y="543.107472" style="fill: #ff0000; stroke: #ff0000"/>
     <use xlink:href="#mfa80af10ce" x="355.422429" y="448.598616" style="fill: #ff0000; stroke: #ff0000"/>
     <use xlink:href="#mfa80af10ce" x="492.005713" y="353.611788" style="fill: #ff0000; stroke: #ff0000"/>
     <use xlink:href="#mfa80af10ce" x="684.566213" y="215.149819" style="fill: #ff0000; stroke: #ff0000"/>
    </g>
   </g>
   <g id="line2d_8">
    <path d="M 162.895746 608.858549 
L 249.460086 542.473632 
L 355.422429 461.212672 
L 492.005713 356.468963 
L 684.566213 208.797151 
" clip-path="url(#p4dabc043b7)" style="fill: none; stroke-dasharray: 5.55,2.4; stroke-dashoffset: 0; stroke: #ff0000; stroke-width: 1.5"/>
   </g>
   <g id="line2d_9">
    <path d="M 162.895746 421.084106 
L 249.460086 347.748392 
L 355.422429 263.65657 
L 492.005713 176.594228 
L 684.566213 58.81868 
" clip-path="url(#p4dabc043b7)" style="fill: none; stroke: #008000; stroke-width: 1.5; stroke-linecap: square"/>
    <defs>
     <path id="ma6ef0b262d" d="M 0 1.5 
C 0.397805 1.5 0.77937 1.341951 1.06066 1.06066 
C 1.341951 0.77937 1.5 0.397805 1.5 0 
C 1.5 -0.397805 1.341951 -0.77937 1.06066 -1.06066 
C 0.77937 -1.341951 0.397805 -1.5 0 -1.5 
C -0.397805 -1.5 -0.77937 -1.341951 -1.06066 -1.06066 
C -1.341951 -0.77937 -1.5 -0.397805 -1.5 0 
C -1.5 0.397805 -1.341951 0.77937 -1.06066 1.06066 
C -0.77937 1.341951 -0.397805 1.5 0 1.5 
z
" style="stroke: #008000"/>
    </defs>
    <g clip-path="url(#p4dabc043b7)">
     <use xlink:href="#ma6ef0b262d" x="162.895746" y="421.084106" style="fill: #008000; stroke: #008000"/>
     <use xlink:href="#ma6ef0b262d" x="249.460086" y="347.748392" style="fill: #008000; stroke: #008000"/>
     <use xlink:href="#ma6ef0b262d" x="355.422429" y="263.65657" style="fill: #008000; stroke: #008000"/>
     <use xlink:href="#ma6ef0b262d" x="492.005713" y="176.594228" style="fill: #008000; stroke: #008000"/>
     <use xlink:href="#ma6ef0b262d" x="684.566213" y="58.81868" style="fill: #008000; stroke: #008000"/>
    </g>
   </g>
   <g id="line2d_10">
    <path d="M 162.895746 409.182686 
L 249.460086 349.575863 
L 355.422429 276.611885 
L 492.005713 182.562815 
L 684.566213 49.968727 
" clip-path="url(#p4dabc043b7)" style="fill: none; stroke-dasharray: 5.55,2.4; stroke-dashoffset: 0; stroke: #008000; stroke-width: 1.5"/>
   </g>
   <g id="line2d_11">
    <path d="M 162.895746 564.521084 
L 249.460086 487.423109 
L 355.422429 390.245986 
L 492.005713 296.989407 
L 684.566213 163.811155 
" clip-path="url(#p4dabc043b7)" style="fill: none; stroke: #0000ff; stroke-width: 1.5; stroke-linecap: square"/>
    <defs>
     <path id="m7f28a4e55d" d="M 0 1.5 
C 0.397805 1.5 0.77937 1.341951 1.06066 1.06066 
C 1.341951 0.77937 1.5 0.397805 1.5 0 
C 1.5 -0.397805 1.341951 -0.77937 1.06066 -1.06066 
C 0.77937 -1.341951 0.397805 -1.5 0 -1.5 
C -0.397805 -1.5 -0.77937 -1.341951 -1.06066 -1.06066 
C -1.341951 -0.77937 -1.5 -0.397805 -1.5 0 
C -1.5 0.397805 -1.341951 0.77937 -1.06066 1.06066 
C -0.77937 1.341951 -0.397805 1.5 0 1.5 
z
" style="stroke: #0000ff"/>
    </defs>
    <g clip-path="url(#p4dabc043b7)">
     <use xlink:href="#m7f28a4e55d" x="162.895746" y="564.521084" style="fill: #0000ff; stroke: #0000ff"/>
     <use xlink:href="#m7f28a4e55d" x="249.460086" y="487.423109" style="fill: #0000ff; stroke: #0000ff"/>
     <use xlink:href="#m7f28a4e55d" x="355.422429" y="390.245986" style="fill: #0000ff; stroke: #0000ff"/>
     <use xlink:href="#m7f28a4e55d" x="492.005713" y="296.989407" style="fill: #0000ff; stroke: #0000ff"/>
     <use xlink:href="#m7f28a4e55d" x="684.566213" y="163.811155" style="fill: #0000ff; stroke: #0000ff"/>
    </g>
   </g>
   <g id="line2d_12">
    <path d="M 162.895746 553.054572 
L 249.460086 486.991409 
L 355.422429 406.124304 
L 492.005713 301.888266 
L 684.566213 154.93219 
" clip-path="url(#p4dabc043b7)" style="fill: none; stroke-dasharray: 5.55,2.4; stroke-dashoffset: 0; stroke: #0000ff; stroke-width: 1.5"/>
   </g>
   <g id="line2d_13">
    <path d="M 162.895746 470.811928 
L 249.460086 397.457968 
L 355.422429 309.97294 
L 492.005713 221.042926 
L 684.566213 99.46174 
" clip-path="url(#p4dabc043b7)" style="fill: none; stroke: #ffa500; stroke-width: 1.5; stroke-linecap: square"/>
    <defs>
     <path id="m27f3a7ca4b" d="M 0 1.5 
C 0.397805 1.5 0.77937 1.341951 1.06066 1.06066 
C 1.341951 0.77937 1.5 0.397805 1.5 0 
C 1.5 -0.397805 1.341951 -0.77937 1.06066 -1.06066 
C 0.77937 -1.341951 0.397805 -1.5 0 -1.5 
C -0.397805 -1.5 -0.77937 -1.341951 -1.06066 -1.06066 
C -1.341951 -0.77937 -1.5 -0.397805 -1.5 0 
C -1.5 0.397805 -1.341951 0.77937 -1.06066 1.06066 
C -0.77937 1.341951 -0.397805 1.5 0 1.5 
z
" style="stroke: #ffa500"/>
    </defs>
    <g clip-path="url(#p4dabc043b7)">
     <use xlink:href="#m27f3a7ca4b" x="162.895746" y="470.811928" style="fill: #ffa500; stroke: #ffa500"/>
     <use xlink:href="#m27f3a7ca4b" x="249.460086" y="397.457968" style="fill: #ffa500; stroke: #ffa500"/>
     <use xlink:href="#m27f3a7ca4b" x="355.422429" y="309.97294" style="fill: #ffa500; stroke: #ffa500"/>
     <use xlink:href="#m27f3a7ca4b" x="492.005713" y="221.042926" style="fill: #ffa500; stroke: #ffa500"/>
     <use xlink:href="#m27f3a7ca4b" x="684.566213" y="99.46174" style="fill: #ffa500; stroke: #ffa500"/>
    </g>
   </g>
   <g id="line2d_14">
    <path d="M 162.895746 459.498831 
L 249.460086 398.303394 
L 355.422429 323.394814 
L 492.005713 226.839193 
L 684.566213 90.71127 
" clip-path="url(#p4dabc043b7)" style="fill: none; stroke-dasharray: 5.55,2.4; stroke-dashoffset: 0; stroke: #ffa500; stroke-width: 1.5"/>
   </g>
   <g id="patch_3">
    <path d="M 136.812223 645.712 
L 136.812223 21.6 
" style="fill: none; stroke: #000000; stroke-width: 0.8; stroke-linejoin: miter; stroke-linecap: square"/>
   </g>
   <g id="patch_4">
    <path d="M 710.649737 645.712 
L 710.649737 21.6 
" style="fill: none; stroke: #000000; stroke-width: 0.8; stroke-linejoin: miter; stroke-linecap: square"/>
   </g>
   <g id="patch_5">
    <path d="M 136.812223 645.712 
L 710.649737 645.712 
" style="fill: none; stroke: #000000; stroke-width: 0.8; stroke-linejoin: miter; stroke-linecap: square"/>
   </g>
   <g id="patch_6">
    <path d="M 136.812223 21.6 
L 710.649737 21.6 
" style="fill: none; stroke: #000000; stroke-width: 0.8; stroke-linejoin: miter; stroke-linecap: square"/>
   </g>
  </g>
  <g id="axes_2">
   <g id="patch_7">
    <path d="M 849.324223 645.712 
L 1423.161737 645.712 
L 1423.161737 21.6 
L 849.324223 21.6 
z
" style="fill: #ffffff"/>
   </g>
   <g id="matplotlib.axis_3">
    <g id="xtick_4">
     <g id="line2d_15">
      <g>
       <use xlink:href="#m6d8fb6384f" x="856.026507" y="645.712" style="stroke: #000000; stroke-width: 0.8"/>
      </g>
     </g>
     <g id="text_9">
      <!-- $\mathdefault{10^{-2}}$ -->
      <g transform="translate(832.526507 667.908875) scale(0.2 -0.2)">
       <use xlink:href="#DejaVuSans-31" transform="translate(0 0.765625)"/>
       <use xlink:href="#DejaVuSans-30" transform="translate(63.623047 0.765625)"/>
       <use xlink:href="#DejaVuSans-2212" transform="translate(128.203125 39.046875) scale(0.7)"/>
       <use xlink:href="#DejaVuSans-32" transform="translate(186.855469 39.046875) scale(0.7)"/>
      </g>
     </g>
    </g>
    <g id="xtick_5">
     <g id="line2d_16">
      <g>
       <use xlink:href="#m75f96c24eb" x="1185.155798" y="645.712" style="stroke: #000000; stroke-width: 0.6"/>
      </g>
     </g>
     <g id="text_10">
      <!-- $\mathdefault{2\times10^{-2}}$ -->
      <g transform="translate(1143.055798 666.308875) scale(0.2 -0.2)">
       <use xlink:href="#DejaVuSans-32" transform="translate(0 0.765625)"/>
       <use xlink:href="#DejaVuSans-d7" transform="translate(83.105469 0.765625)"/>
       <use xlink:href="#DejaVuSans-31" transform="translate(186.376953 0.765625)"/>
       <use xlink:href="#DejaVuSans-30" transform="translate(250 0.765625)"/>
       <use xlink:href="#DejaVuSans-2212" transform="translate(314.580078 39.046875) scale(0.7)"/>
       <use xlink:href="#DejaVuSans-32" transform="translate(373.232422 39.046875) scale(0.7)"/>
      </g>
     </g>
    </g>
    <g id="xtick_6">
     <g id="line2d_17">
      <g>
       <use xlink:href="#m75f96c24eb" x="1377.684091" y="645.712" style="stroke: #000000; stroke-width: 0.6"/>
      </g>
     </g>
     <g id="text_11">
      <!-- $\mathdefault{3\times10^{-2}}$ -->
      <g transform="translate(1335.584091 666.308875) scale(0.2 -0.2)">
       <use xlink:href="#DejaVuSans-33" transform="translate(0 0.765625)"/>
       <use xlink:href="#DejaVuSans-d7" transform="translate(83.105469 0.765625)"/>
       <use xlink:href="#DejaVuSans-31" transform="translate(186.376953 0.765625)"/>
       <use xlink:href="#DejaVuSans-30" transform="translate(250 0.765625)"/>
       <use xlink:href="#DejaVuSans-2212" transform="translate(314.580078 39.046875) scale(0.7)"/>
       <use xlink:href="#DejaVuSans-32" transform="translate(373.232422 39.046875) scale(0.7)"/>
      </g>
     </g>
    </g>
    <g id="text_12">
     <!-- $h$ -->
     <g transform="translate(1129.84298 691.265125) scale(0.2 -0.2)">
      <use xlink:href="#DejaVuSans-Oblique-68" transform="translate(0 0.015625)"/>
     </g>
    </g>
   </g>
   <g id="matplotlib.axis_4">
    <g id="ytick_4">
     <g id="line2d_18">
      <defs>
       <path id="m9cca0e3f19" d="M 0 0 
L -3.5 0 
" style="stroke: #000000; stroke-width: 0.8"/>
      </defs>
      <g>
       <use xlink:href="#m9cca0e3f19" x="849.324223" y="139.213356" style="stroke: #000000; stroke-width: 0.8"/>
      </g>
     </g>
     <g id="text_13">
      <!-- $\mathdefault{10^{-1}}$ -->
      <g transform="translate(795.324223 146.811793) scale(0.2 -0.2)">
       <use xlink:href="#DejaVuSans-31" transform="translate(0 0.684375)"/>
       <use xlink:href="#DejaVuSans-30" transform="translate(63.623047 0.684375)"/>
       <use xlink:href="#DejaVuSans-2212" transform="translate(128.203125 38.965625) scale(0.7)"/>
       <use xlink:href="#DejaVuSans-31" transform="translate(186.855469 38.965625) scale(0.7)"/>
      </g>
     </g>
    </g>
    <g id="ytick_5">
     <g id="line2d_19">
      <g>
       <use xlink:href="#m3749c99996" x="849.324223" y="541.140391" style="stroke: #000000; stroke-width: 0.6"/>
      </g>
     </g>
    </g>
    <g id="ytick_6">
     <g id="line2d_20">
      <g>
       <use xlink:href="#m3749c99996" x="849.324223" y="435.419752" style="stroke: #000000; stroke-width: 0.6"/>
      </g>
     </g>
     <g id="text_14">
      <!-- $\mathdefault{6\times10^{-2}}$ -->
      <g transform="translate(759.724223 443.018189) scale(0.2 -0.2)">
       <defs>
        <path id="DejaVuSans-36" d="M 2113 2584 
Q 1688 2584 1439 2293 
Q 1191 2003 1191 1497 
Q 1191 994 1439 701 
Q 1688 409 2113 409 
Q 2538 409 2786 701 
Q 3034 994 3034 1497 
Q 3034 2003 2786 2293 
Q 2538 2584 2113 2584 
z
M 3366 4563 
L 3366 3988 
Q 3128 4100 2886 4159 
Q 2644 4219 2406 4219 
Q 1781 4219 1451 3797 
Q 1122 3375 1075 2522 
Q 1259 2794 1537 2939 
Q 1816 3084 2150 3084 
Q 2853 3084 3261 2657 
Q 3669 2231 3669 1497 
Q 3669 778 3244 343 
Q 2819 -91 2113 -91 
Q 1303 -91 875 529 
Q 447 1150 447 2328 
Q 447 3434 972 4092 
Q 1497 4750 2381 4750 
Q 2619 4750 2861 4703 
Q 3103 4656 3366 4563 
z
" transform="scale(0.015625)"/>
       </defs>
       <use xlink:href="#DejaVuSans-36" transform="translate(0 0.765625)"/>
       <use xlink:href="#DejaVuSans-d7" transform="translate(83.105469 0.765625)"/>
       <use xlink:href="#DejaVuSans-31" transform="translate(186.376953 0.765625)"/>
       <use xlink:href="#DejaVuSans-30" transform="translate(250 0.765625)"/>
       <use xlink:href="#DejaVuSans-2212" transform="translate(314.580078 39.046875) scale(0.7)"/>
       <use xlink:href="#DejaVuSans-32" transform="translate(373.232422 39.046875) scale(0.7)"/>
      </g>
     </g>
    </g>
    <g id="ytick_7">
     <g id="line2d_21">
      <g>
       <use xlink:href="#m3749c99996" x="849.324223" y="346.034225" style="stroke: #000000; stroke-width: 0.6"/>
      </g>
     </g>
    </g>
    <g id="ytick_8">
     <g id="line2d_22">
      <g>
       <use xlink:href="#m3749c99996" x="849.324223" y="268.60496" style="stroke: #000000; stroke-width: 0.6"/>
      </g>
     </g>
    </g>
    <g id="ytick_9">
     <g id="line2d_23">
      <g>
       <use xlink:href="#m3749c99996" x="849.324223" y="200.307508" style="stroke: #000000; stroke-width: 0.6"/>
      </g>
     </g>
    </g>
    <g id="text_15">
     <!-- Error $U_x$ -->
     <g transform="translate(751.564848 373.356) rotate(-90) scale(0.2 -0.2)">
      <defs>
       <path id="DejaVuSans-Oblique-55" d="M 991 4666 
L 1625 4666 
L 1075 1831 
Q 1041 1641 1027 1517 
Q 1013 1394 1013 1300 
Q 1013 869 1253 645 
Q 1494 422 1959 422 
Q 2563 422 2898 753 
Q 3234 1084 3378 1831 
L 3928 4666 
L 4563 4666 
L 4000 1753 
Q 3816 809 3300 359 
Q 2784 -91 1888 -91 
Q 1188 -91 780 261 
Q 372 613 372 1216 
Q 372 1325 387 1461 
Q 403 1597 434 1753 
L 991 4666 
z
" transform="scale(0.015625)"/>
       <path id="DejaVuSans-Oblique-78" d="M 3841 3500 
L 2234 1784 
L 3219 0 
L 2559 0 
L 1819 1388 
L 531 0 
L -166 0 
L 1556 1844 
L 641 3500 
L 1300 3500 
L 1972 2234 
L 3144 3500 
L 3841 3500 
z
" transform="scale(0.015625)"/>
      </defs>
      <use xlink:href="#DejaVuSans-45" transform="translate(0 0.09375)"/>
      <use xlink:href="#DejaVuSans-72" transform="translate(63.183594 0.09375)"/>
      <use xlink:href="#DejaVuSans-72" transform="translate(104.296875 0.09375)"/>
      <use xlink:href="#DejaVuSans-6f" transform="translate(145.410156 0.09375)"/>
      <use xlink:href="#DejaVuSans-72" transform="translate(206.591797 0.09375)"/>
      <use xlink:href="#DejaVuSans-20" transform="translate(247.705078 0.09375)"/>
      <use xlink:href="#DejaVuSans-Oblique-55" transform="translate(279.492188 0.09375)"/>
      <use xlink:href="#DejaVuSans-Oblique-78" transform="translate(352.685547 -16.3125) scale(0.7)"/>
     </g>
    </g>
   </g>
   <g id="line2d_24">
    <path d="M 875.407746 617.343273 
L 961.972086 536.994588 
L 1067.934429 439.974102 
L 1204.517713 331.014874 
L 1397.078213 203.209626 
" clip-path="url(#pee3bd7ca92)" style="fill: none; stroke: #ff0000; stroke-width: 1.5; stroke-linecap: square"/>
    <g clip-path="url(#pee3bd7ca92)">
     <use xlink:href="#mfa80af10ce" x="875.407746" y="617.343273" style="fill: #ff0000; stroke: #ff0000"/>
     <use xlink:href="#mfa80af10ce" x="961.972086" y="536.994588" style="fill: #ff0000; stroke: #ff0000"/>
     <use xlink:href="#mfa80af10ce" x="1067.934429" y="439.974102" style="fill: #ff0000; stroke: #ff0000"/>
     <use xlink:href="#mfa80af10ce" x="1204.517713" y="331.014874" style="fill: #ff0000; stroke: #ff0000"/>
     <use xlink:href="#mfa80af10ce" x="1397.078213" y="203.209626" style="fill: #ff0000; stroke: #ff0000"/>
    </g>
   </g>
   <g id="line2d_25">
    <path d="M 875.407746 605.2899 
L 961.972086 536.496898 
L 1067.934429 452.288231 
L 1204.517713 343.744989 
L 1397.078213 190.716445 
" clip-path="url(#pee3bd7ca92)" style="fill: none; stroke-dasharray: 5.55,2.4; stroke-dashoffset: 0; stroke: #ff0000; stroke-width: 1.5"/>
   </g>
   <g id="line2d_26">
    <path d="M 875.407746 382.245621 
L 961.972086 309.020059 
L 1067.934429 233.976465 
L 1204.517713 149.361569 
L 1397.078213 66.310333 
" clip-path="url(#pee3bd7ca92)" style="fill: none; stroke: #008000; stroke-width: 1.5; stroke-linecap: square"/>
    <g clip-path="url(#pee3bd7ca92)">
     <use xlink:href="#ma6ef0b262d" x="875.407746" y="382.245621" style="fill: #008000; stroke: #008000"/>
     <use xlink:href="#ma6ef0b262d" x="961.972086" y="309.020059" style="fill: #008000; stroke: #008000"/>
     <use xlink:href="#ma6ef0b262d" x="1067.934429" y="233.976465" style="fill: #008000; stroke: #008000"/>
     <use xlink:href="#ma6ef0b262d" x="1204.517713" y="149.361569" style="fill: #008000; stroke: #008000"/>
     <use xlink:href="#ma6ef0b262d" x="1397.078213" y="66.310333" style="fill: #008000; stroke: #008000"/>
    </g>
   </g>
   <g id="line2d_27">
    <path d="M 875.407746 364.375984 
L 961.972086 312.204243 
L 1067.934429 248.341457 
L 1204.517713 166.023636 
L 1397.078213 49.968727 
" clip-path="url(#pee3bd7ca92)" style="fill: none; stroke-dasharray: 5.55,2.4; stroke-dashoffset: 0; stroke: #008000; stroke-width: 1.5"/>
   </g>
   <g id="line2d_28">
    <path d="M 875.407746 484.55933 
L 961.972086 412.792917 
L 1067.934429 332.393711 
L 1204.517713 238.596565 
L 1397.078213 135.144401 
" clip-path="url(#pee3bd7ca92)" style="fill: none; stroke: #0000ff; stroke-width: 1.5; stroke-linecap: square"/>
    <g clip-path="url(#pee3bd7ca92)">
     <use xlink:href="#m7f28a4e55d" x="875.407746" y="484.55933" style="fill: #0000ff; stroke: #0000ff"/>
     <use xlink:href="#m7f28a4e55d" x="961.972086" y="412.792917" style="fill: #0000ff; stroke: #0000ff"/>
     <use xlink:href="#m7f28a4e55d" x="1067.934429" y="332.393711" style="fill: #0000ff; stroke: #0000ff"/>
     <use xlink:href="#m7f28a4e55d" x="1204.517713" y="238.596565" style="fill: #0000ff; stroke: #0000ff"/>
     <use xlink:href="#m7f28a4e55d" x="1397.078213" y="135.144401" style="fill: #0000ff; stroke: #0000ff"/>
    </g>
   </g>
   <g id="line2d_29">
    <path d="M 875.407746 471.967515 
L 961.972086 414.02022 
L 1067.934429 343.087649 
L 1204.517713 251.657022 
L 1397.078213 122.754519 
" clip-path="url(#pee3bd7ca92)" style="fill: none; stroke-dasharray: 5.55,2.4; stroke-dashoffset: 0; stroke: #0000ff; stroke-width: 1.5"/>
   </g>
   <g id="line2d_30">
    <path d="M 875.407746 531.455179 
L 961.972086 454.203007 
L 1067.934429 361.967689 
L 1204.517713 255.39935 
L 1397.078213 137.024001 
" clip-path="url(#pee3bd7ca92)" style="fill: none; stroke: #ffa500; stroke-width: 1.5; stroke-linecap: square"/>
    <g clip-path="url(#pee3bd7ca92)">
     <use xlink:href="#m27f3a7ca4b" x="875.407746" y="531.455179" style="fill: #ffa500; stroke: #ffa500"/>
     <use xlink:href="#m27f3a7ca4b" x="961.972086" y="454.203007" style="fill: #ffa500; stroke: #ffa500"/>
     <use xlink:href="#m27f3a7ca4b" x="1067.934429" y="361.967689" style="fill: #ffa500; stroke: #ffa500"/>
     <use xlink:href="#m27f3a7ca4b" x="1204.517713" y="255.39935" style="fill: #ffa500; stroke: #ffa500"/>
     <use xlink:href="#m27f3a7ca4b" x="1397.078213" y="137.024001" style="fill: #ffa500; stroke: #ffa500"/>
    </g>
   </g>
   <g id="line2d_31">
    <path d="M 875.407746 519.349229 
L 961.972086 453.713972 
L 1067.934429 373.370662 
L 1204.517713 269.809785 
L 1397.078213 123.805577 
" clip-path="url(#pee3bd7ca92)" style="fill: none; stroke-dasharray: 5.55,2.4; stroke-dashoffset: 0; stroke: #ffa500; stroke-width: 1.5"/>
   </g>
   <g id="patch_8">
    <path d="M 849.324223 645.712 
L 849.324223 21.6 
" style="fill: none; stroke: #000000; stroke-width: 0.8; stroke-linejoin: miter; stroke-linecap: square"/>
   </g>
   <g id="patch_9">
    <path d="M 1423.161737 645.712 
L 1423.161737 21.6 
" style="fill: none; stroke: #000000; stroke-width: 0.8; stroke-linejoin: miter; stroke-linecap: square"/>
   </g>
   <g id="patch_10">
    <path d="M 849.324223 645.712 
L 1423.161737 645.712 
" style="fill: none; stroke: #000000; stroke-width: 0.8; stroke-linejoin: miter; stroke-linecap: square"/>
   </g>
   <g id="patch_11">
    <path d="M 849.324223 21.6 
L 1423.161737 21.6 
" style="fill: none; stroke: #000000; stroke-width: 0.8; stroke-linejoin: miter; stroke-linecap: square"/>
   </g>
  </g>
  <g id="axes_3">
   <g id="patch_12">
    <path d="M 1561.836223 645.712 
L 2135.673737 645.712 
L 2135.673737 21.6 
L 1561.836223 21.6 
z
" style="fill: #ffffff"/>
   </g>
   <g id="matplotlib.axis_5">
    <g id="xtick_7">
     <g id="line2d_32">
      <g>
       <use xlink:href="#m6d8fb6384f" x="1568.538507" y="645.712" style="stroke: #000000; stroke-width: 0.8"/>
      </g>
     </g>
     <g id="text_16">
      <!-- $\mathdefault{10^{-2}}$ -->
      <g transform="translate(1545.038507 667.908875) scale(0.2 -0.2)">
       <use xlink:href="#DejaVuSans-31" transform="translate(0 0.765625)"/>
       <use xlink:href="#DejaVuSans-30" transform="translate(63.623047 0.765625)"/>
       <use xlink:href="#DejaVuSans-2212" transform="translate(128.203125 39.046875) scale(0.7)"/>
       <use xlink:href="#DejaVuSans-32" transform="translate(186.855469 39.046875) scale(0.7)"/>
      </g>
     </g>
    </g>
    <g id="xtick_8">
     <g id="line2d_33">
      <g>
       <use xlink:href="#m75f96c24eb" x="1897.667798" y="645.712" style="stroke: #000000; stroke-width: 0.6"/>
      </g>
     </g>
     <g id="text_17">
      <!-- $\mathdefault{2\times10^{-2}}$ -->
      <g transform="translate(1855.567798 666.308875) scale(0.2 -0.2)">
       <use xlink:href="#DejaVuSans-32" transform="translate(0 0.765625)"/>
       <use xlink:href="#DejaVuSans-d7" transform="translate(83.105469 0.765625)"/>
       <use xlink:href="#DejaVuSans-31" transform="translate(186.376953 0.765625)"/>
       <use xlink:href="#DejaVuSans-30" transform="translate(250 0.765625)"/>
       <use xlink:href="#DejaVuSans-2212" transform="translate(314.580078 39.046875) scale(0.7)"/>
       <use xlink:href="#DejaVuSans-32" transform="translate(373.232422 39.046875) scale(0.7)"/>
      </g>
     </g>
    </g>
    <g id="xtick_9">
     <g id="line2d_34">
      <g>
       <use xlink:href="#m75f96c24eb" x="2090.196091" y="645.712" style="stroke: #000000; stroke-width: 0.6"/>
      </g>
     </g>
     <g id="text_18">
      <!-- $\mathdefault{3\times10^{-2}}$ -->
      <g transform="translate(2048.096091 666.308875) scale(0.2 -0.2)">
       <use xlink:href="#DejaVuSans-33" transform="translate(0 0.765625)"/>
       <use xlink:href="#DejaVuSans-d7" transform="translate(83.105469 0.765625)"/>
       <use xlink:href="#DejaVuSans-31" transform="translate(186.376953 0.765625)"/>
       <use xlink:href="#DejaVuSans-30" transform="translate(250 0.765625)"/>
       <use xlink:href="#DejaVuSans-2212" transform="translate(314.580078 39.046875) scale(0.7)"/>
       <use xlink:href="#DejaVuSans-32" transform="translate(373.232422 39.046875) scale(0.7)"/>
      </g>
     </g>
    </g>
    <g id="text_19">
     <!-- $h$ -->
     <g transform="translate(1842.35498 691.265125) scale(0.2 -0.2)">
      <use xlink:href="#DejaVuSans-Oblique-68" transform="translate(0 0.015625)"/>
     </g>
    </g>
   </g>
   <g id="matplotlib.axis_6">
    <g id="ytick_10">
     <g id="line2d_35">
      <g>
       <use xlink:href="#m3749c99996" x="1561.836223" y="451.912021" style="stroke: #000000; stroke-width: 0.6"/>
      </g>
     </g>
     <g id="text_20">
      <!-- $\mathdefault{3\times10^{-2}}$ -->
      <g transform="translate(1472.236223 459.510459) scale(0.2 -0.2)">
       <use xlink:href="#DejaVuSans-33" transform="translate(0 0.765625)"/>
       <use xlink:href="#DejaVuSans-d7" transform="translate(83.105469 0.765625)"/>
       <use xlink:href="#DejaVuSans-31" transform="translate(186.376953 0.765625)"/>
       <use xlink:href="#DejaVuSans-30" transform="translate(250 0.765625)"/>
       <use xlink:href="#DejaVuSans-2212" transform="translate(314.580078 39.046875) scale(0.7)"/>
       <use xlink:href="#DejaVuSans-32" transform="translate(373.232422 39.046875) scale(0.7)"/>
      </g>
     </g>
    </g>
    <g id="ytick_11">
     <g id="line2d_36">
      <g>
       <use xlink:href="#m3749c99996" x="1561.836223" y="293.056959" style="stroke: #000000; stroke-width: 0.6"/>
      </g>
     </g>
     <g id="text_21">
      <!-- $\mathdefault{4\times10^{-2}}$ -->
      <g transform="translate(1472.236223 300.655396) scale(0.2 -0.2)">
       <use xlink:href="#DejaVuSans-34" transform="translate(0 0.765625)"/>
       <use xlink:href="#DejaVuSans-d7" transform="translate(83.105469 0.765625)"/>
       <use xlink:href="#DejaVuSans-31" transform="translate(186.376953 0.765625)"/>
       <use xlink:href="#DejaVuSans-30" transform="translate(250 0.765625)"/>
       <use xlink:href="#DejaVuSans-2212" transform="translate(314.580078 39.046875) scale(0.7)"/>
       <use xlink:href="#DejaVuSans-32" transform="translate(373.232422 39.046875) scale(0.7)"/>
      </g>
     </g>
    </g>
    <g id="ytick_12">
     <g id="line2d_37">
      <g>
       <use xlink:href="#m3749c99996" x="1561.836223" y="169.839399" style="stroke: #000000; stroke-width: 0.6"/>
      </g>
     </g>
    </g>
    <g id="ytick_13">
     <g id="line2d_38">
      <g>
       <use xlink:href="#m3749c99996" x="1561.836223" y="69.163323" style="stroke: #000000; stroke-width: 0.6"/>
      </g>
     </g>
     <g id="text_22">
      <!-- $\mathdefault{6\times10^{-2}}$ -->
      <g transform="translate(1472.236223 76.76176) scale(0.2 -0.2)">
       <use xlink:href="#DejaVuSans-36" transform="translate(0 0.765625)"/>
       <use xlink:href="#DejaVuSans-d7" transform="translate(83.105469 0.765625)"/>
       <use xlink:href="#DejaVuSans-31" transform="translate(186.376953 0.765625)"/>
       <use xlink:href="#DejaVuSans-30" transform="translate(250 0.765625)"/>
       <use xlink:href="#DejaVuSans-2212" transform="translate(314.580078 39.046875) scale(0.7)"/>
       <use xlink:href="#DejaVuSans-32" transform="translate(373.232422 39.046875) scale(0.7)"/>
      </g>
     </g>
    </g>
    <g id="text_23">
     <!-- Error $P$ -->
     <g transform="translate(1464.076848 367.656) rotate(-90) scale(0.2 -0.2)">
      <defs>
       <path id="DejaVuSans-Oblique-50" d="M 1081 4666 
L 2541 4666 
Q 3178 4666 3512 4369 
Q 3847 4072 3847 3500 
Q 3847 2731 3353 2303 
Q 2859 1875 1966 1875 
L 1172 1875 
L 806 0 
L 172 0 
L 1081 4666 
z
M 1613 4147 
L 1275 2394 
L 2069 2394 
Q 2606 2394 2893 2669 
Q 3181 2944 3181 3456 
Q 3181 3784 2986 3965 
Q 2791 4147 2438 4147 
L 1613 4147 
z
" transform="scale(0.015625)"/>
      </defs>
      <use xlink:href="#DejaVuSans-45" transform="translate(0 0.09375)"/>
      <use xlink:href="#DejaVuSans-72" transform="translate(63.183594 0.09375)"/>
      <use xlink:href="#DejaVuSans-72" transform="translate(104.296875 0.09375)"/>
      <use xlink:href="#DejaVuSans-6f" transform="translate(145.410156 0.09375)"/>
      <use xlink:href="#DejaVuSans-72" transform="translate(206.591797 0.09375)"/>
      <use xlink:href="#DejaVuSans-20" transform="translate(247.705078 0.09375)"/>
      <use xlink:href="#DejaVuSans-Oblique-50" transform="translate(279.492188 0.09375)"/>
     </g>
    </g>
   </g>
   <g id="line2d_39">
    <path d="M 1587.919746 617.343273 
L 1674.484086 545.976514 
L 1780.446429 457.590871 
L 1917.029713 352.735696 
L 2109.590213 216.278858 
" clip-path="url(#p87705f9acd)" style="fill: none; stroke: #ff0000; stroke-width: 1.5; stroke-linecap: square"/>
    <g clip-path="url(#p87705f9acd)">
     <use xlink:href="#mfa80af10ce" x="1587.919746" y="617.343273" style="fill: #ff0000; stroke: #ff0000"/>
     <use xlink:href="#mfa80af10ce" x="1674.484086" y="545.976514" style="fill: #ff0000; stroke: #ff0000"/>
     <use xlink:href="#mfa80af10ce" x="1780.446429" y="457.590871" style="fill: #ff0000; stroke: #ff0000"/>
     <use xlink:href="#mfa80af10ce" x="1917.029713" y="352.735696" style="fill: #ff0000; stroke: #ff0000"/>
     <use xlink:href="#mfa80af10ce" x="2109.590213" y="216.278858" style="fill: #ff0000; stroke: #ff0000"/>
    </g>
   </g>
   <g id="line2d_40">
    <path d="M 1587.919746 611.890303 
L 1674.484086 545.272131 
L 1780.446429 463.725648 
L 1917.029713 358.613905 
L 2109.590213 210.423225 
" clip-path="url(#p87705f9acd)" style="fill: none; stroke-dasharray: 5.55,2.4; stroke-dashoffset: 0; stroke: #ff0000; stroke-width: 1.5"/>
   </g>
   <g id="line2d_41">
    <path d="M 1587.919746 424.920274 
L 1674.484086 357.861981 
L 1780.446429 279.342165 
L 1917.029713 183.087054 
L 2109.590213 53.910241 
" clip-path="url(#p87705f9acd)" style="fill: none; stroke: #008000; stroke-width: 1.5; stroke-linecap: square"/>
    <g clip-path="url(#p87705f9acd)">
     <use xlink:href="#ma6ef0b262d" x="1587.919746" y="424.920274" style="fill: #008000; stroke: #008000"/>
     <use xlink:href="#ma6ef0b262d" x="1674.484086" y="357.861981" style="fill: #008000; stroke: #008000"/>
     <use xlink:href="#ma6ef0b262d" x="1780.446429" y="279.342165" style="fill: #008000; stroke: #008000"/>
     <use xlink:href="#ma6ef0b262d" x="1917.029713" y="183.087054" style="fill: #008000; stroke: #008000"/>
     <use xlink:href="#ma6ef0b262d" x="2109.590213" y="53.910241" style="fill: #008000; stroke: #008000"/>
    </g>
   </g>
   <g id="line2d_42">
    <path d="M 1587.919746 420.198328 
L 1674.484086 358.763605 
L 1780.446429 283.562116 
L 1917.029713 186.62894 
L 2109.590213 49.968727 
" clip-path="url(#p87705f9acd)" style="fill: none; stroke-dasharray: 5.55,2.4; stroke-dashoffset: 0; stroke: #008000; stroke-width: 1.5"/>
   </g>
   <g id="line2d_43">
    <path d="M 1587.919746 504.471751 
L 1674.484086 440.705134 
L 1780.446429 359.372378 
L 1917.029713 264.263885 
L 2109.590213 138.174096 
" clip-path="url(#p87705f9acd)" style="fill: none; stroke: #0000ff; stroke-width: 1.5; stroke-linecap: square"/>
    <g clip-path="url(#p87705f9acd)">
     <use xlink:href="#m7f28a4e55d" x="1587.919746" y="504.471751" style="fill: #0000ff; stroke: #0000ff"/>
     <use xlink:href="#m7f28a4e55d" x="1674.484086" y="440.705134" style="fill: #0000ff; stroke: #0000ff"/>
     <use xlink:href="#m7f28a4e55d" x="1780.446429" y="359.372378" style="fill: #0000ff; stroke: #0000ff"/>
     <use xlink:href="#m7f28a4e55d" x="1917.029713" y="264.263885" style="fill: #0000ff; stroke: #0000ff"/>
     <use xlink:href="#m7f28a4e55d" x="2109.590213" y="138.174096" style="fill: #0000ff; stroke: #0000ff"/>
    </g>
   </g>
   <g id="line2d_44">
    <path d="M 1587.919746 500.325021 
L 1674.484086 439.444377 
L 1780.446429 364.92113 
L 1917.029713 268.862196 
L 2109.590213 133.434522 
" clip-path="url(#p87705f9acd)" style="fill: none; stroke-dasharray: 5.55,2.4; stroke-dashoffset: 0; stroke: #0000ff; stroke-width: 1.5"/>
   </g>
   <g id="line2d_45">
    <path d="M 1587.919746 490.904244 
L 1674.484086 422.150057 
L 1780.446429 339.08181 
L 1917.029713 240.35932 
L 2109.590213 109.423206 
" clip-path="url(#p87705f9acd)" style="fill: none; stroke: #ffa500; stroke-width: 1.5; stroke-linecap: square"/>
    <g clip-path="url(#p87705f9acd)">
     <use xlink:href="#m27f3a7ca4b" x="1587.919746" y="490.904244" style="fill: #ffa500; stroke: #ffa500"/>
     <use xlink:href="#m27f3a7ca4b" x="1674.484086" y="422.150057" style="fill: #ffa500; stroke: #ffa500"/>
     <use xlink:href="#m27f3a7ca4b" x="1780.446429" y="339.08181" style="fill: #ffa500; stroke: #ffa500"/>
     <use xlink:href="#m27f3a7ca4b" x="1917.029713" y="240.35932" style="fill: #ffa500; stroke: #ffa500"/>
     <use xlink:href="#m27f3a7ca4b" x="2109.590213" y="109.423206" style="fill: #ffa500; stroke: #ffa500"/>
    </g>
   </g>
   <g id="line2d_46">
    <path d="M 1587.919746 485.484424 
L 1674.484086 422.239031 
L 1780.446429 344.821125 
L 1917.029713 245.031033 
L 2109.590213 104.343026 
" clip-path="url(#p87705f9acd)" style="fill: none; stroke-dasharray: 5.55,2.4; stroke-dashoffset: 0; stroke: #ffa500; stroke-width: 1.5"/>
   </g>
   <g id="patch_13">
    <path d="M 1561.836223 645.712 
L 1561.836223 21.6 
" style="fill: none; stroke: #000000; stroke-width: 0.8; stroke-linejoin: miter; stroke-linecap: square"/>
   </g>
   <g id="patch_14">
    <path d="M 2135.673737 645.712 
L 2135.673737 21.6 
" style="fill: none; stroke: #000000; stroke-width: 0.8; stroke-linejoin: miter; stroke-linecap: square"/>
   </g>
   <g id="patch_15">
    <path d="M 1561.836223 645.712 
L 2135.673737 645.712 
" style="fill: none; stroke: #000000; stroke-width: 0.8; stroke-linejoin: miter; stroke-linecap: square"/>
   </g>
   <g id="patch_16">
    <path d="M 1561.836223 21.6 
L 2135.673737 21.6 
" style="fill: none; stroke: #000000; stroke-width: 0.8; stroke-linejoin: miter; stroke-linecap: square"/>
   </g>
   <g id="legend_1">
    <g id="patch_17">
     <path d="M 2017.798737 635.712 
L 2121.673737 635.712 
Q 2125.673737 635.712 2125.673737 631.712 
L 2125.673737 516.287 
Q 2125.673737 512.287 2121.673737 512.287 
L 2017.798737 512.287 
Q 2013.798737 512.287 2013.798737 516.287 
L 2013.798737 631.712 
Q 2013.798737 635.712 2017.798737 635.712 
z
" style="fill: #ffffff; opacity: 0.8; stroke: #cccccc; stroke-linejoin: miter"/>
    </g>
    <g id="line2d_47">
     <path d="M 2021.798737 528.483875 
L 2041.798737 528.483875 
L 2061.798737 528.483875 
" style="fill: none; stroke-dasharray: 5.55,2.4; stroke-dashoffset: 0; stroke: #ff0000; stroke-width: 1.5"/>
    </g>
    <g id="text_24">
     <!-- N -->
     <g transform="translate(2077.798737 535.483875) scale(0.2 -0.2)">
      <defs>
       <path id="DejaVuSans-4e" d="M 628 4666 
L 1478 4666 
L 3547 763 
L 3547 4666 
L 4159 4666 
L 4159 0 
L 3309 0 
L 1241 3903 
L 1241 0 
L 628 0 
L 628 4666 
z
" transform="scale(0.015625)"/>
      </defs>
      <use xlink:href="#DejaVuSans-4e"/>
     </g>
    </g>
    <g id="line2d_48">
     <path d="M 2021.798737 557.840125 
L 2041.798737 557.840125 
L 2061.798737 557.840125 
" style="fill: none; stroke-dasharray: 5.55,2.4; stroke-dashoffset: 0; stroke: #008000; stroke-width: 1.5"/>
    </g>
    <g id="text_25">
     <!-- LDA -->
     <g transform="translate(2077.798737 564.840125) scale(0.2 -0.2)">
      <defs>
       <path id="DejaVuSans-4c" d="M 628 4666 
L 1259 4666 
L 1259 531 
L 3531 531 
L 3531 0 
L 628 0 
L 628 4666 
z
" transform="scale(0.015625)"/>
       <path id="DejaVuSans-44" d="M 1259 4147 
L 1259 519 
L 2022 519 
Q 2988 519 3436 956 
Q 3884 1394 3884 2338 
Q 3884 3275 3436 3711 
Q 2988 4147 2022 4147 
L 1259 4147 
z
M 628 4666 
L 1925 4666 
Q 3281 4666 3915 4102 
Q 4550 3538 4550 2338 
Q 4550 1131 3912 565 
Q 3275 0 1925 0 
L 628 0 
L 628 4666 
z
" transform="scale(0.015625)"/>
       <path id="DejaVuSans-41" d="M 2188 4044 
L 1331 1722 
L 3047 1722 
L 2188 4044 
z
M 1831 4666 
L 2547 4666 
L 4325 0 
L 3669 0 
L 3244 1197 
L 1141 1197 
L 716 0 
L 50 0 
L 1831 4666 
z
" transform="scale(0.015625)"/>
      </defs>
      <use xlink:href="#DejaVuSans-4c"/>
      <use xlink:href="#DejaVuSans-44" x="55.712891"/>
      <use xlink:href="#DejaVuSans-41" x="130.964844"/>
     </g>
    </g>
    <g id="line2d_49">
     <path d="M 2021.798737 587.196375 
L 2041.798737 587.196375 
L 2061.798737 587.196375 
" style="fill: none; stroke-dasharray: 5.55,2.4; stroke-dashoffset: 0; stroke: #0000ff; stroke-width: 1.5"/>
    </g>
    <g id="text_26">
     <!-- B -->
     <g transform="translate(2077.798737 594.196375) scale(0.2 -0.2)">
      <defs>
       <path id="DejaVuSans-42" d="M 1259 2228 
L 1259 519 
L 2272 519 
Q 2781 519 3026 730 
Q 3272 941 3272 1375 
Q 3272 1813 3026 2020 
Q 2781 2228 2272 2228 
L 1259 2228 
z
M 1259 4147 
L 1259 2741 
L 2194 2741 
Q 2656 2741 2882 2914 
Q 3109 3088 3109 3444 
Q 3109 3797 2882 3972 
Q 2656 4147 2194 4147 
L 1259 4147 
z
M 628 4666 
L 2241 4666 
Q 2963 4666 3353 4366 
Q 3744 4066 3744 3513 
Q 3744 3084 3544 2831 
Q 3344 2578 2956 2516 
Q 3422 2416 3680 2098 
Q 3938 1781 3938 1306 
Q 3938 681 3513 340 
Q 3088 0 2303 0 
L 628 0 
L 628 4666 
z
" transform="scale(0.015625)"/>
      </defs>
      <use xlink:href="#DejaVuSans-42"/>
     </g>
    </g>
    <g id="line2d_50">
     <path d="M 2021.798737 616.552625 
L 2041.798737 616.552625 
L 2061.798737 616.552625 
" style="fill: none; stroke-dasharray: 5.55,2.4; stroke-dashoffset: 0; stroke: #ffa500; stroke-width: 1.5"/>
    </g>
    <g id="text_27">
     <!-- Bx -->
     <g transform="translate(2077.798737 623.552625) scale(0.2 -0.2)">
      <defs>
       <path id="DejaVuSans-78" d="M 3513 3500 
L 2247 1797 
L 3578 0 
L 2900 0 
L 1881 1375 
L 863 0 
L 184 0 
L 1544 1831 
L 300 3500 
L 978 3500 
L 1906 2253 
L 2834 3500 
L 3513 3500 
z
" transform="scale(0.015625)"/>
      </defs>
      <use xlink:href="#DejaVuSans-42"/>
      <use xlink:href="#DejaVuSans-78" x="68.603516"/>
     </g>
    </g>
   </g>
  </g>
 </g>
 <defs>
  <clipPath id="p4dabc043b7">
   <rect x="136.812223" y="21.6" width="573.837514" height="624.112"/>
  </clipPath>
  <clipPath id="pee3bd7ca92">
   <rect x="849.324223" y="21.6" width="573.837514" height="624.112"/>
  </clipPath>
  <clipPath id="p87705f9acd">
   <rect x="1561.836223" y="21.6" width="573.837514" height="624.112"/>
  </clipPath>
 </defs>
</svg>
